<svg width="24" height="32" viewBox="0 0 24 32" fill="none" xmlns="http://www.w3.org/2000/svg">
<path fill-rule="evenodd" clip-rule="evenodd" d="M24 16C24 18.1333 18.76 20.4444 12 20.4444C5.26 20.4444 0.04 18.1333 0 16.0356V9.84889C2.96 11.4844 7.28 12.4444 12 12.4444C16.72 12.4444 21.04 11.4844 24 9.84889V16ZM24 21.4044V27.6267C23.92 30.0444 18.58 32 12 32C5.42 32 0.08 30.0444 0 27.6089V21.3867C2.96 23.04 7.28 24 12 24C16.72 24 21.04 23.04 24 21.4044ZM12 8.88889C5.38 8.88889 0 6.89778 0 4.44444C0 1.99111 5.38 0 12 0C18.62 0 24 1.99111 24 4.44444C24 6.89778 18.62 8.88889 12 8.88889Z" fill="#2770EF"/>
</svg>
