<svg width="31" height="32" viewBox="0 0 31 32" fill="none" xmlns="http://www.w3.org/2000/svg">
<path d="M29.4386 1.33092C30.1613 2.05425 30.6339 3.00904 30.7451 4.05063C30.7451 4.48462 30.6339 4.77397 30.3837 5.3237C30.1335 5.87342 27.0479 11.4286 26.1306 12.962C25.6024 13.859 25.3244 14.9295 25.3244 15.9711C25.3244 17.0416 25.6024 18.0832 26.1306 18.9801C27.0479 20.5136 30.1335 26.0976 30.3837 26.6474C30.6339 27.1971 30.7451 27.4575 30.7451 27.8915C30.6339 28.9331 30.1891 29.8879 29.4664 30.5823C28.7714 31.3345 27.8541 31.8264 26.8811 31.9132C26.4642 31.9132 26.1861 31.7975 25.6858 31.5371C25.1854 31.2767 19.7369 28.1519 18.2636 27.1971C18.1524 27.1392 18.0412 27.0524 17.9022 26.9946L10.619 22.5099C10.7858 23.9566 11.3974 25.3454 12.3981 26.358C12.5927 26.5606 12.7873 26.7342 13.0097 26.9078C12.8429 26.9946 12.6483 27.0814 12.4815 27.1971C11.0082 28.1519 5.64309 31.3635 5.11493 31.6239C4.58676 31.8843 4.33656 32 3.89178 32C2.89104 31.8843 1.97369 31.4213 1.30653 30.6691C0.583767 29.9457 0.111194 28.991 0 27.9494C0.0277985 27.5154 0.138992 27.0814 0.361381 26.7052C0.611568 26.1555 3.6972 20.5714 4.61453 19.038C5.1427 18.141 5.4207 17.0994 5.4207 16.0289C5.4207 14.9584 5.1427 13.9168 4.61453 13.0199C3.6972 11.4286 0.583767 5.84448 0.361381 5.29476C0.138992 4.91861 0.0277985 4.48462 0 4.05063C0.111194 3.00904 0.55597 2.05425 1.27873 1.33092C1.97369 0.578663 2.89104 0.115732 3.89178 0C4.30875 0.0289331 4.72573 0.144666 5.11493 0.376132C5.5597 0.578663 9.47926 2.95117 11.5642 4.22425L12.0367 4.51356C12.2035 4.6293 12.3425 4.71609 12.4537 4.77397L12.6761 4.91861L20.0983 9.49006C19.9315 7.75406 19.0697 6.16274 17.7354 5.09223C17.9022 5.00544 18.0968 4.91861 18.2636 4.80288C19.7369 3.84811 25.102 0.607595 25.6302 0.376132C25.9916 0.144666 26.4085 0.0289331 26.8533 0C27.8263 0.115732 28.7436 0.578663 29.4386 1.33092ZM15.7617 18.0543L17.3462 16.405C17.5686 16.1736 17.5686 15.8264 17.3462 15.595L15.7617 13.9457C15.5393 13.7143 15.2058 13.7143 14.9834 13.9457L13.3989 15.595C13.1765 15.8264 13.1765 16.1736 13.3989 16.405L14.9834 18.0543C15.178 18.2568 15.5393 18.2568 15.7617 18.0543Z" fill="#FF694A"/>
</svg>
