<?xml version="1.0" encoding="UTF-8"?>
<svg focusable="false" width="14px" height="14px" viewBox="0 0 14 14" version="1.1" xmlns="http://www.w3.org/2000/svg" xmlns:xlink="http://www.w3.org/1999/xlink">
    <!-- Generator: Sketch 45.2 (43514) - http://www.bohemiancoding.com/sketch -->
    <title>question_14</title>
    <desc>Created with Sketch.</desc>
    <defs></defs>
    <g id="Symbols" stroke="none" stroke-width="1" fill="none" fill-rule="evenodd">
        <g id="question_14" fill="#4A4A4A">
            <path d="M7,14 C3.13400675,14 0,10.8659932 0,7 C0,3.13400675 3.13400675,0 7,0 C10.8659932,0 14,3.13400675 14,7 C14,10.8659932 10.8659932,14 7,14 Z M4.5,5.23131673 C4.5,5.39501861 4.56737433,5.54715232 4.702125,5.68772242 C4.83687567,5.82829252 5.00224902,5.89857651 5.19825,5.89857651 C5.53075166,5.89857651 5.75649941,5.69751091 5.8755,5.29537367 C6.00150063,4.91103011 6.15549909,4.62010775 6.3375,4.42259786 C6.51950091,4.22508798 6.80299808,4.12633452 7.188,4.12633452 C7.51700165,4.12633452 7.78562396,4.22419831 7.993875,4.41992883 C8.20212604,4.61565934 8.30625,4.85587046 8.30625,5.1405694 C8.30625,5.2864776 8.27212534,5.42170756 8.203875,5.54626335 C8.13562466,5.67081913 8.0516255,5.78380732 7.951875,5.88523132 C7.8521245,5.98665531 7.69025112,6.13700968 7.46625,6.33629893 C7.21074872,6.56405808 7.00775075,6.76067533 6.85725,6.92615658 C6.70674925,7.09163784 6.58600046,7.28380673 6.495,7.50266904 C6.40399954,7.72153134 6.3585,7.98042555 6.3585,8.27935943 C6.3585,8.51779479 6.42062438,8.69750829 6.544875,8.81850534 C6.66912562,8.93950238 6.82224909,9 7.00425,9 C7.35425175,9 7.56249967,8.81494847 7.629,8.44483986 C7.66750019,8.27046176 7.6963749,8.14857686 7.715625,8.07918149 C7.7348751,8.00978613 7.76199982,7.94039181 7.797,7.87099644 C7.83200018,7.80160108 7.88537464,7.72508939 7.957125,7.64145907 C8.02887536,7.55782876 8.12424941,7.46085464 8.24325,7.35053381 C8.67375215,6.95907278 8.97212417,6.68060581 9.138375,6.51512456 C9.30462583,6.3496433 9.4481244,6.15302605 9.568875,5.9252669 C9.6896256,5.69750776 9.75,5.43238585 9.75,5.12989324 C9.75,4.74554968 9.64412606,4.38968135 9.432375,4.06227758 C9.22062394,3.73487381 8.92050194,3.4759796 8.532,3.28558719 C8.14349806,3.09519478 7.69550254,3 7.188,3 C6.64199727,3 6.16425205,3.11387786 5.75475,3.34163701 C5.34524795,3.56939616 5.03375107,3.85675983 4.82025,4.20373665 C4.60674893,4.55071348 4.5,4.89323674 4.5,5.23131673 Z M7.00747508,11.5 C7.20348935,11.5 7.3762451,11.433111 7.52574751,11.2993311 C7.67524992,11.1655512 7.75,10.9816065 7.75,10.7474916 C7.75,10.5367882 7.67857214,10.3595325 7.53571429,10.2157191 C7.39285643,10.0719056 7.21677846,10 7.00747508,10 C6.79484944,10 6.61544924,10.0719056 6.4692691,10.2157191 C6.32308897,10.3595325 6.25,10.5367882 6.25,10.7474916 C6.25,10.984951 6.32558064,11.1697318 6.47674419,11.3018395 C6.62790773,11.4339471 6.80481626,11.5 7.00747508,11.5 Z" id="question-shape"></path>
        </g>
    </g>
</svg>