<?xml version="1.0" encoding="UTF-8"?>
<svg focusable="false" width="14px" height="14px" viewBox="0 0 14 14" version="1.1" xmlns="http://www.w3.org/2000/svg" xmlns:xlink="http://www.w3.org/1999/xlink">
    <!-- Generator: Sketch 46.2 (44496) - http://www.bohemiancoding.com/sketch -->
    <title>sort</title>
    <desc>Created with Sketch.</desc>
    <defs></defs>
    <g id="icons-final" stroke="none" stroke-width="1" fill="none" fill-rule="evenodd">
        <g id="sort" fill="#333333">
            <path d="M1,3 C1,2.44771525 1.45576096,2 2.00247329,2 L11.9975267,2 C12.5511774,2 13,2.44386482 13,3 C13,3.55228475 12.544239,4 11.9975267,4 L2.00247329,4 C1.44882258,4 1,3.55613518 1,3 Z M1,7 C1,6.44771525 1.4463114,6 1.99754465,6 L9.00245535,6 C9.55338405,6 10,6.44386482 10,7 C10,7.55228475 9.5536886,8 9.00245535,8 L1.99754465,8 C1.44661595,8 1,7.55613518 1,7 Z M1,11 C1,10.4477153 1.45097518,10 1.99077797,10 L6.00922203,10 C6.55641359,10 7,10.4438648 7,11 C7,11.5522847 6.54902482,12 6.00922203,12 L1.99077797,12 C1.44358641,12 1,11.5561352 1,11 Z" id="sort-shape"></path>
        </g>
    </g>
</svg>