<?xml version="1.0" encoding="UTF-8"?>
<svg focusable="false" width="14px" height="14px" viewBox="0 0 14 14" version="1.1" xmlns="http://www.w3.org/2000/svg" xmlns:xlink="http://www.w3.org/1999/xlink">
    <!-- Generator: Sketch 45.2 (43514) - http://www.bohemiancoding.com/sketch -->
    <title>a-lowercase-flat-b</title>
    <desc>Created with Sketch.</desc>
    <defs></defs>
    <g id="icons-final" stroke="none" stroke-width="1" fill="none" fill-rule="evenodd">
        <g id="a-lowercase-copy-2" fill="#333333">
            <path d="M5.41349997,13.19 C3.74149997,13.19 2.39249997,12.069 2.39249997,10.093 L2.39249997,9.979 C2.39249997,7.737 3.85549997,6.73 5.94549997,6.73 C6.80049997,6.73 7.44649997,6.901 8.07349997,7.148 L8.07349997,6.844 C8.07349997,5.666 7.37049997,5.058 6.15449997,5.058 C5.20449997,5.058 4.44449997,5.362 3.81749997,5.628 L3.07649997,3.519 C4.06449997,3.025 5.09049997,2.702 6.55349997,2.702 C7.94049997,2.702 8.98549997,3.082 9.65049997,3.747 C10.3535,4.45 10.6955,5.514 10.6955,6.825 L10.6955,13 L8.05449997,13 L8.05449997,11.898 C7.44649997,12.696 6.61049997,13.19 5.41349997,13.19 Z M6.30649997,11.214 C7.35149997,11.233 8.11149997,10.587 8.11149997,9.656 L8.11149997,8.801 C7.71249997,8.611 7.16149997,8.478 6.61049997,8.478 C5.62249997,8.478 4.99549997,8.972 4.99549997,9.903 L4.99549997,9.941 C4.99549997,10.777 5.52749997,11.195 6.30649997,11.214 Z" id="a"></path>
        </g>
    </g>
</svg>