<?xml version="1.0" encoding="UTF-8"?>
<svg focusable="false" width="14px" height="14px" viewBox="0 0 14 14" version="1.1" xmlns="http://www.w3.org/2000/svg" xmlns:xlink="http://www.w3.org/1999/xlink">
    <!-- Generator: Sketch 45.2 (43514) - http://www.bohemiancoding.com/sketch -->
    <title>calendar-dark-squares</title>
    <desc>Created with Sketch.</desc>
    <defs>
        <path d="M9,2 L10.9975267,2 C11.5511774,2 12,2.44483697 12,2.9955775 L12,12.0044225 C12,12.5542648 11.544239,13 10.9975267,13 L1.00247329,13 C0.448822582,13 0,12.555163 0,12.0044225 L0,2.9955775 C0,2.44573523 0.455760956,2 1.00247329,2 L3,2 L3,0.998956561 C3,0.447248087 3.44386482,0 4,0 C4.55228475,0 5,0.442660332 5,0.998956561 L5,2 L7,2 L7,0.998956561 C7,0.447248087 7.44386482,0 8,0 C8.55228475,0 9,0.442660332 9,0.998956561 L9,2 Z M2,6 L2,8 L4,8 L4,6 L2,6 Z M5,6 L5,8 L7,8 L7,6 L5,6 Z M8,6 L8,8 L10,8 L10,6 L8,6 Z M2,9 L2,11 L4,11 L4,9 L2,9 Z M5,9 L5,11 L7,11 L7,9 L5,9 Z M8,9 L8,11 L10,11 L10,9 L8,9 Z" id="path-1"></path>
    </defs>
    <g id="icons-final" stroke="none" stroke-width="1" fill="none" fill-rule="evenodd">
        <g id="calendar-copy-6">
            <g id="calendar-dark" transform="translate(1.000000, 0.000000)">
                <g id="Combined-Shape">
                    <use fill="#333333" fill-rule="evenodd" xlink:href="#path-1"></use>
                    <path stroke="#333333" stroke-width="1" d="M10.9975267,2.5 L8.5,2.5 L8.5,0.998956561 C8.5,0.720860772 8.27820494,0.5 8,0.5 C7.72151843,0.5 7.5,0.721877403 7.5,0.998956561 L7.5,2.5 L4.5,2.5 L4.5,0.998956561 C4.5,0.720860772 4.27820494,0.5 4,0.5 C3.72151843,0.5 3.5,0.721877403 3.5,0.998956561 L3.5,2.5 L1.00247329,2.5 C0.728209077,2.5 0.5,2.72556091 0.5,2.9955775 L0.5,12.0044225 C0.5,12.2778646 0.723813532,12.5 1.00247329,12.5 L10.9975267,12.5 C11.2717909,12.5 11.5,12.2744391 11.5,12.0044225 L11.5,2.9955775 C11.5,2.72213544 11.2761865,2.5 10.9975267,2.5 Z M1.5,8.5 L1.5,5.5 L4.5,5.5 L4.5,8.5 L1.5,8.5 Z M4.5,8.5 L4.5,5.5 L7.5,5.5 L7.5,8.5 L4.5,8.5 Z M7.5,8.5 L7.5,5.5 L10.5,5.5 L10.5,8.5 L7.5,8.5 Z M1.5,11.5 L1.5,8.5 L4.5,8.5 L4.5,11.5 L1.5,11.5 Z M4.5,11.5 L4.5,8.5 L7.5,8.5 L7.5,11.5 L4.5,11.5 Z M7.5,8.5 L10.5,8.5 L10.5,11.5 L7.5,11.5 L7.5,8.5 Z"></path>
                </g>
            </g>
        </g>
    </g>
</svg>