<?xml version="1.0" encoding="UTF-8"?>
<svg focusable="false" width="13px" height="15px" viewBox="0 0 13 15" version="1.1" xmlns="http://www.w3.org/2000/svg" xmlns:xlink="http://www.w3.org/1999/xlink">
    <!-- Generator: Sketch 45.2 (43514) - http://www.bohemiancoding.com/sketch -->
    <title>Combined Shape</title>
    <desc>Created with Sketch.</desc>
    <defs></defs>
    <g id="Page-1" stroke="none" stroke-width="1" fill="none" fill-rule="evenodd">
        <path d="M2.14035088,11.9648246 C2.21052632,11.7192105 2.28070175,11.4735965 2.35087719,11.1227193 L3.64912281,4.63149123 L2.63157895,4.63149123 C2.56140351,4.63149123 2.52631579,4.63149123 2.49122807,4.59640351 C2.45614035,4.56131579 2.45614035,4.49114035 2.45614035,4.38587719 C2.45614035,4.35078947 2.45614035,4.31570175 2.45614035,4.24552632 C2.45614035,4.2104386 2.49122807,4.14026316 2.49122807,4.07008772 C2.49122807,3.99991228 2.49122807,3.96482456 2.52631579,3.89464912 C2.52631579,3.82447368 2.56140351,3.75429825 2.59649123,3.71921053 C2.63157895,3.68412281 2.66666667,3.64903509 2.70175439,3.61394737 C2.73684211,3.57885965 2.77192982,3.57885965 2.84210526,3.57885965 L3.85964912,3.57885965 L4.07017544,2.56131579 C4.14035088,2.14026316 4.24561404,1.75429825 4.42105263,1.43850877 C4.56140351,1.1227193 4.77192982,0.842017544 4.98245614,0.631491228 C5.19298246,0.420964912 5.47368421,0.280614035 5.75438596,0.175350877 C6.07017544,0.0700877193 6.38596491,0.035 6.73684211,0.035 C6.73684211,0.035 6.77192982,0.035 6.80701754,0.035 C6.84210526,0.035 6.87719298,0.035 6.9122807,0.035 C7.01754386,0.035 7.12280702,0.0700877193 7.26315789,0.0700877193 C7.40350877,0.105175439 7.50877193,0.140263158 7.61403509,0.140263158 C7.71929825,0.140263158 7.8245614,0.175350877 7.89473684,0.210438596 C7.96491228,0.245526316 8.03508772,0.280614035 8.07017544,0.315701754 C8.10526316,0.350789474 8.14035088,0.385877193 8.14035088,0.420964912 C8.1754386,0.456052632 8.1754386,0.491140351 8.1754386,0.561315789 C8.1754386,0.596403509 8.1754386,0.631491228 8.1754386,0.666578947 C8.14035088,0.701666667 8.14035088,0.736754386 8.14035088,0.806929825 C8.14035088,0.877105263 8.10526316,0.912192982 8.10526316,0.982368421 C8.07017544,1.05254386 8.07017544,1.08763158 8.03508772,1.15780702 C8,1.22798246 7.96491228,1.26307018 7.96491228,1.29815789 C7.96491228,1.33324561 7.92982456,1.33324561 7.89473684,1.33324561 C7.85964912,1.33324561 7.78947368,1.33324561 7.75438596,1.33324561 C7.75438596,1.33324561 7.71929825,1.33324561 7.71929825,1.33324561 C7.68421053,1.33324561 7.64912281,1.33324561 7.57894737,1.29815789 C7.50877193,1.26307018 7.43859649,1.26307018 7.36842105,1.22798246 C7.29824561,1.19289474 7.22807018,1.19289474 7.12280702,1.15780702 C7.05263158,1.1227193 6.98245614,1.1227193 6.87719298,1.1227193 C6.70175439,1.1227193 6.52631579,1.15780702 6.38596491,1.22798246 C6.21052632,1.29815789 6.07017544,1.40342105 5.96491228,1.54377193 C5.85964912,1.68412281 5.75438596,1.89464912 5.68421053,2.10517544 C5.61403509,2.31570175 5.54385965,2.56131579 5.47368421,2.87710526 L5.33333333,3.57885965 L6.94736842,3.57885965 C7.01754386,3.57885965 7.05263158,3.61394737 7.0877193,3.64903509 C7.12280702,3.71921053 7.12280702,3.75429825 7.12280702,3.8595614 C7.12280702,3.89464912 7.12280702,3.96482456 7.12280702,4.035 C7.12280702,4.07008772 7.0877193,4.14026316 7.0877193,4.2104386 C7.05263158,4.28061404 7.05263158,4.31570175 7.01754386,4.38587719 C7.01754386,4.42096491 6.98245614,4.49114035 6.94736842,4.52622807 C6.9122807,4.56131579 6.87719298,4.59640351 6.84210526,4.63149123 C6.80701754,4.66657895 6.77192982,4.66657895 6.73684211,4.66657895 L5.12280702,4.66657895 L3.75438596,11.4385088 C3.68421053,11.8946491 3.54385965,12.280614 3.40350877,12.5964035 C3.26315789,12.912193 3.05263158,13.1928947 2.84210526,13.4034211 C2.63157895,13.6490351 2.35087719,13.789386 2.07017544,13.8946491 C1.78947368,13.9999123 1.43859649,14.035 1.0877193,14.035 C1.05263158,14.035 1.01754386,14.035 0.98245614,14.035 C0.98245614,14.035 0.947368421,14.035 0.912280702,14.035 C0.701754386,14.035 0.49122807,13.9999123 0.315789474,13.9999123 C0.175438596,13.9648246 0.0701754386,13.9297368 0.0350877193,13.8946491 C0.0350877193,13.8946491 1.77635684e-15,13.8595614 1.77635684e-15,13.8244737 C1.77635684e-15,13.789386 1.77635684e-15,13.7542982 1.77635684e-15,13.6841228 C1.77635684e-15,13.6490351 1.77635684e-15,13.6490351 1.77635684e-15,13.5788596 C1.77635684e-15,13.5086842 0.0350877193,13.4735965 0.0350877193,13.4034211 C0.0350877193,13.3332456 0.0701754386,13.2981579 0.0701754386,13.2279825 C0.105263158,13.157807 0.105263158,13.1227193 0.140350877,13.0525439 C0.140350877,12.9823684 0.175438596,12.9472807 0.210526316,12.912193 C0.245614035,12.8771053 0.280701754,12.8771053 0.315789474,12.8771053 C0.350877193,12.8771053 0.385964912,12.8771053 0.421052632,12.8771053 C0.456140351,12.8771053 0.456140351,12.8771053 0.49122807,12.8771053 C0.526315789,12.8771053 0.561403509,12.8420175 0.596491228,12.8771053 C0.631578947,12.912193 0.666666667,12.912193 0.701754386,12.912193 C0.736842105,12.9472807 0.771929825,12.9472807 0.842105263,12.9472807 C0.877192982,12.9472807 0.912280702,12.9472807 0.947368421,12.9472807 C1.12280702,12.9472807 1.29824561,12.912193 1.43859649,12.8420175 C1.61403509,12.7718421 1.75438596,12.6665789 1.85964912,12.5262281 C1.96491228,12.3858772 2.07017544,12.1753509 2.14035088,11.9648246 Z M12.5263158,7.61394737 C12.5263158,7.68412281 12.5263158,7.71921053 12.3859649,7.82447368 L10.5964912,10.6665789 L12.4912281,13.6841228 C12.5263158,13.7542982 12.5614035,13.8244737 12.5614035,13.8595614 C12.5614035,13.8946491 12.5263158,13.9297368 12.4912281,13.9648246 C12.4210526,13.9999123 12.3859649,14.035 12.2807018,14.035 C12.1754386,14.035 12.0701754,14.035 11.9298246,14.035 C11.8596491,14.035 11.8245614,14.035 11.754386,14.035 C11.7192982,14.035 11.6842105,14.035 11.6140351,14.035 C11.4736842,14.035 11.3684211,14.035 11.2982456,14.035 C11.2280702,14.035 11.1578947,14.035 11.122807,13.9999123 C11.0877193,13.9648246 11.0526316,13.9648246 11.0175439,13.9297368 C10.9824561,13.9297368 10.9824561,13.8946491 10.9473684,13.8595614 L9.64912281,11.7192105 L8.35087719,13.8595614 C8.31578947,13.8595614 8.31578947,13.8946491 8.28070175,13.9297368 C8.24561404,13.9648246 8.21052632,13.9999123 8.1754386,13.9999123 C8.14035088,13.9999123 8.07017544,14.035 8,14.035 C7.92982456,14.035 7.8245614,14.035 7.68421053,14.035 C7.64912281,14.035 7.57894737,14.035 7.54385965,14.035 C7.50877193,14.035 7.43859649,14.035 7.36842105,14.035 C7.22807018,14.035 7.12280702,14.035 7.05263158,14.035 C6.98245614,13.9999123 6.9122807,13.9999123 6.87719298,13.9648246 C6.80701754,13.9297368 6.80701754,13.8946491 6.80701754,13.8595614 C6.80701754,13.789386 6.84210526,13.7542982 6.87719298,13.6841228 L8.73684211,10.7016667 L6.9122807,7.82447368 C6.87719298,7.75429825 6.84210526,7.68412281 6.84210526,7.64903509 C6.84210526,7.61394737 6.87719298,7.57885965 6.9122807,7.54377193 C6.98245614,7.50868421 7.01754386,7.47359649 7.12280702,7.47359649 C7.19298246,7.47359649 7.33333333,7.47359649 7.47368421,7.47359649 C7.54385965,7.47359649 7.61403509,7.47359649 7.64912281,7.47359649 C7.71929825,7.47359649 7.75438596,7.47359649 7.8245614,7.47359649 C7.96491228,7.47359649 8.07017544,7.47359649 8.14035088,7.47359649 C8.21052632,7.47359649 8.28070175,7.50868421 8.31578947,7.50868421 C8.35087719,7.54377193 8.38596491,7.57885965 8.42105263,7.57885965 C8.45614035,7.57885965 8.45614035,7.61394737 8.49122807,7.64903509 L9.71929825,9.64903509 L10.9824561,7.64903509 C11.0175439,7.61394737 11.0175439,7.61394737 11.0526316,7.57885965 C11.0877193,7.54377193 11.122807,7.50868421 11.1578947,7.50868421 C11.1929825,7.50868421 11.2631579,7.47359649 11.3333333,7.47359649 C11.4035088,7.47359649 11.4736842,7.47359649 11.6140351,7.47359649 C11.6842105,7.47359649 11.754386,7.47359649 11.7894737,7.47359649 C11.8245614,7.47359649 11.8947368,7.47359649 11.9649123,7.47359649 C12.1052632,7.47359649 12.2105263,7.47359649 12.2807018,7.47359649 C12.3508772,7.47359649 12.3859649,7.47359649 12.4561404,7.50868421 C12.5263158,7.54377193 12.5263158,7.57885965 12.5263158,7.61394737 Z" id="Combined-Shape" fill="#000000" fill-rule="nonzero"></path>
    </g>
</svg>