<?xml version="1.0" encoding="UTF-8"?>
<svg focusable="false" width="24px" height="16px" viewBox="0 0 24 16" version="1.1" xmlns="http://www.w3.org/2000/svg" xmlns:xlink="http://www.w3.org/1999/xlink">
    <!-- Generator: Sketch 45.2 (43514) - http://www.bohemiancoding.com/sketch -->
    <title>Combined Shape</title>
    <desc>Created with Sketch.</desc>
    <defs></defs>
    <g id="Page-5a---simple-query" stroke="none" stroke-width="1" fill="none" fill-rule="evenodd">
        <g id="1query1" transform="translate(-951.000000, -448.000000)" fill="#000000">
            <path d="M960,456 C960,453.673907 961.143391,451.547932 963,450.254318 C964.856609,451.547932 966,453.673907 966,456 C966,458.326093 964.856609,460.452068 963,461.745682 C961.143391,460.452068 960,458.326093 960,456 Z M963,462.929742 L963,462.929742 C965.391205,461.546505 967,458.961129 967,456 C967,453.038871 965.391205,450.453495 963,449.070258 C964.176693,448.389577 965.542851,448 967,448 C971.418278,448 975,451.581722 975,456 C975,460.418278 971.418278,464 967,464 C965.542851,464 964.176693,463.610423 963,462.929742 Z M963,449.070258 L963,449.070258 C960.608795,450.453495 959,453.038871 959,456 C959,458.961129 960.608795,461.546505 963,462.929742 C961.823307,463.610423 960.457149,464 959,464 C954.581722,464 951,460.418278 951,456 C951,451.581722 954.581722,448 959,448 C960.457149,448 961.823307,448.389577 963,449.070258 Z" id="Combined-Shape"></path>
        </g>
    </g>
</svg>