<?xml version="1.0" encoding="UTF-8"?>
<svg focusable="false" width="24px" height="16px" viewBox="0 0 24 16" version="1.1" xmlns="http://www.w3.org/2000/svg" xmlns:xlink="http://www.w3.org/1999/xlink">
    <!-- Generator: Sketch 45.2 (43514) - http://www.bohemiancoding.com/sketch -->
    <title>Combined Shape</title>
    <desc>Created with Sketch.</desc>
    <defs></defs>
    <g id="Page-5a---simple-query" stroke="none" stroke-width="1" fill="none" fill-rule="evenodd">
        <g id="1query1" transform="translate(-982.000000, -448.000000)" fill="#000000">
            <path d="M994.936454,449.704213 C995.861763,449.253115 996.901323,449 998,449 C1001.86599,449 1005,452.134007 1005,456 C1005,459.865993 1001.86599,463 998,463 C996.901323,463 995.861763,462.746885 994.936454,462.295787 C996.801755,460.831182 998,458.555524 998,456 C998,453.444476 996.801755,451.168818 994.936454,449.704213 Z M994,462.929742 C992.823307,463.610423 991.457149,464 990,464 C985.581722,464 982,460.418278 982,456 C982,451.581722 985.581722,448 990,448 C991.457149,448 992.823307,448.389577 994,449.070258 C995.176693,448.389577 996.542851,448 998,448 C1002.41828,448 1006,451.581722 1006,456 C1006,460.418278 1002.41828,464 998,464 C996.542851,464 995.176693,463.610423 994,462.929742 Z M993.063546,449.704213 C992.138237,449.253115 991.098677,449 990,449 C986.134007,449 983,452.134007 983,456 C983,459.865993 986.134007,463 990,463 C991.098677,463 992.138237,462.746885 993.063546,462.295787 C991.198245,460.831182 990,458.555524 990,456 C990,453.444476 991.198245,451.168818 993.063546,449.704213 Z" id="Combined-Shape"></path>
        </g>
    </g>
</svg>