<?xml version="1.0" encoding="UTF-8"?>
<svg focusable="false" width="24px" height="16px" viewBox="0 0 24 16" version="1.1" xmlns="http://www.w3.org/2000/svg" xmlns:xlink="http://www.w3.org/1999/xlink">
    <!-- Generator: Sketch 45.2 (43514) - http://www.bohemiancoding.com/sketch -->
    <title>Combined Shape</title>
    <desc>Created with Sketch.</desc>
    <defs></defs>
    <g id="Page-5a---simple-query" stroke="none" stroke-width="1" fill="none" fill-rule="evenodd">
        <g id="1query1" transform="translate(-1151.000000, -528.000000)" fill="#000000">
            <path d="M1163.94646,542.295787 C1164.87177,542.746885 1165.91133,543 1167.01001,543 C1170.876,543 1174.01001,539.865993 1174.01001,536 C1174.01001,532.134007 1170.876,529 1167.01001,529 C1165.91133,529 1164.87177,529.253115 1163.94646,529.704213 C1163.65041,529.471755 1163.33755,529.259729 1163.01001,529.070258 C1164.1867,528.389577 1165.55286,528 1167.01001,528 C1171.42829,528 1175.01001,531.581722 1175.01001,536 C1175.01001,540.418278 1171.42829,544 1167.01001,544 C1165.55286,544 1164.1867,543.610423 1163.01001,542.929742 C1163.33755,542.740271 1163.65041,542.528245 1163.94646,542.295787 Z M1160,535.995682 C1160,533.669588 1161.14339,531.543614 1163,530.25 C1164.85661,531.543614 1166,533.669588 1166,535.995682 C1166,538.321775 1164.85661,540.447749 1163,541.741363 C1161.14339,540.447749 1160,538.321775 1160,535.995682 Z M1163,529.070258 L1163,529.070258 C1160.60879,530.453495 1159,533.038871 1159,536 C1159,538.961129 1160.60879,541.546505 1163,542.929742 C1161.82331,543.610423 1160.45715,544 1159,544 C1154.58172,544 1151,540.418278 1151,536 C1151,531.581722 1154.58172,528 1159,528 C1160.45715,528 1161.82331,528.389577 1163,529.070258 Z" id="Combined-Shape"></path>
        </g>
    </g>
</svg>