<?xml version="1.0" encoding="UTF-8"?>
<svg focusable="false" width="24px" height="16px" viewBox="0 0 24 16" version="1.1" xmlns="http://www.w3.org/2000/svg" xmlns:xlink="http://www.w3.org/1999/xlink">
    <!-- Generator: Sketch 45.2 (43514) - http://www.bohemiancoding.com/sketch -->
    <title>Combined Shape</title>
    <desc>Created with Sketch.</desc>
    <defs></defs>
    <g id="Page-5a---simple-query" stroke="none" stroke-width="1" fill="none" fill-rule="evenodd">
        <g id="1query1" transform="translate(-1191.000000, -528.000000)" fill="#000000">
            <path d="M1203.94646,542.295787 C1204.87177,542.746885 1205.91133,543 1207.01001,543 C1210.876,543 1214.01001,539.865993 1214.01001,536 C1214.01001,532.134007 1210.876,529 1207.01001,529 C1205.91133,529 1204.87177,529.253115 1203.94646,529.704213 C1203.65041,529.471755 1203.33755,529.259729 1203.01001,529.070258 C1204.1867,528.389577 1205.55286,528 1207.01001,528 C1211.42829,528 1215.01001,531.581722 1215.01001,536 C1215.01001,540.418278 1211.42829,544 1207.01001,544 C1205.55286,544 1204.1867,543.610423 1203.01001,542.929742 C1203.33755,542.740271 1203.65041,542.528245 1203.94646,542.295787 Z M1200,535.995682 C1200,533.669588 1201.14339,531.543614 1203,530.25 C1204.85661,531.543614 1206,533.669588 1206,535.995682 C1206,538.321775 1204.85661,540.447749 1203,541.741363 C1201.14339,540.447749 1200,538.321775 1200,535.995682 Z M1203,529.070258 L1203,529.070258 C1200.60879,530.453495 1199,533.038871 1199,536 C1199,538.961129 1200.60879,541.546505 1203,542.929742 C1201.82331,543.610423 1200.45715,544 1199,544 C1194.58172,544 1191,540.418278 1191,536 C1191,531.581722 1194.58172,528 1199,528 C1200.45715,528 1201.82331,528.389577 1203,529.070258 Z" id="Combined-Shape" transform="translate(1203.005005, 536.000000) scale(-1, 1) translate(-1203.005005, -536.000000) "></path>
        </g>
    </g>
</svg>