<svg width="35" height="24" viewBox="0 0 35 24" fill="none" xmlns="http://www.w3.org/2000/svg">
<g filter="url(#filter0_dd_4056_289867)">
<rect x="4" y="4" width="27" height="14" rx="7" fill="#F6F8FA"/>
<rect x="4.5" y="4.5" width="26" height="13" rx="6.5" stroke="#C0C6CF"/>
</g>
<path fill-rule="evenodd" clip-rule="evenodd" d="M16 13.6667C17.4728 13.6667 18.6667 12.4728 18.6667 11C18.6667 9.52724 17.4728 8.33333 16 8.33333C14.5272 8.33333 13.3333 9.52724 13.3333 11C13.3333 12.4728 14.5272 13.6667 16 13.6667ZM16 15C18.2091 15 20 13.2091 20 11C20 8.79086 18.2091 7 16 7C13.7909 7 12 8.79086 12 11C12 13.2091 13.7909 15 16 15Z" fill="#C0C6CF"/>
<path fill-rule="evenodd" clip-rule="evenodd" d="M16 15C18.2091 15 20 13.2091 20 11C20 8.79086 18.2091 7 16 7C13.7909 7 12 8.79086 12 11C12 13.2091 13.7909 15 16 15Z" fill="#C0C6CF"/>
<path fill-rule="evenodd" clip-rule="evenodd" d="M20 13.6667C21.4728 13.6667 22.6667 12.4728 22.6667 11C22.6667 9.52724 21.4728 8.33333 20 8.33333C18.5272 8.33333 17.3333 9.52724 17.3333 11C17.3333 12.4728 18.5272 13.6667 20 13.6667ZM20 15C22.2091 15 24 13.2091 24 11C24 8.79086 22.2091 7 20 7C17.7909 7 16 8.79086 16 11C16 13.2091 17.7909 15 20 15Z" fill="#C0C6CF"/>
<defs>
<filter id="filter0_dd_4056_289867" x="0" y="0" width="35" height="24" filterUnits="userSpaceOnUse" color-interpolation-filters="sRGB">
<feFlood flood-opacity="0" result="BackgroundImageFix"/>
<feColorMatrix in="SourceAlpha" type="matrix" values="0 0 0 0 0 0 0 0 0 0 0 0 0 0 0 0 0 0 127 0" result="hardAlpha"/>
<feOffset dy="2"/>
<feGaussianBlur stdDeviation="2"/>
<feColorMatrix type="matrix" values="0 0 0 0 0.0980392 0 0 0 0 0.137255 0 0 0 0 0.192157 0 0 0 0.04 0"/>
<feBlend mode="normal" in2="BackgroundImageFix" result="effect1_dropShadow_4056_289867"/>
<feColorMatrix in="SourceAlpha" type="matrix" values="0 0 0 0 0 0 0 0 0 0 0 0 0 0 0 0 0 0 127 0" result="hardAlpha"/>
<feOffset/>
<feGaussianBlur stdDeviation="2"/>
<feColorMatrix type="matrix" values="0 0 0 0 0.0980392 0 0 0 0 0.137255 0 0 0 0 0.192157 0 0 0 0.1 0"/>
<feBlend mode="normal" in2="effect1_dropShadow_4056_289867" result="effect2_dropShadow_4056_289867"/>
<feBlend mode="normal" in="SourceGraphic" in2="effect2_dropShadow_4056_289867" result="shape"/>
</filter>
</defs>
</svg>