<svg focusable="false" viewBox="0 0 48 48" xmlns="http://www.w3.org/2000/svg"><g fill="none" fill-rule="nonzero"><path d="m23 12v-10a22 22 0 0 0 -21 21v2a21.86 21.86 0 0 0 7.16 15.24 21.8 21.8 0 0 0 13.84 5.76v-10a11.7 11.7 0 0 1 -6.72-2.82 12 12 0 0 1 -4.28-8.18v-1a8.14 8.14 0 0 1 0-1 12 12 0 0 1 11-11z" fill="#06bf7f"/><path d="m25 2v10a11.7 11.7 0 0 1 6.72 2.82l7.1-7.1a21.8 21.8 0 0 0 -13.82-5.72z" fill="#3872f7"/><path d="m40.24 9.18-7.08 7.08a12 12 0 0 1 2.84 6.74h10a21.8 21.8 0 0 0 -5.76-13.82z" fill="#48d1e0"/><path d="m36 25a12 12 0 0 1 -11 11v10a22 22 0 0 0 21-21z" fill="#fcc838"/></g></svg>