<svg focusable="false" viewBox="0 0 48 48" xmlns="http://www.w3.org/2000/svg"><g fill="none" fill-rule="nonzero"><path d="m22.18 12v22c-4.9 0-9.95 10-14.85 10v-22.04c4.9 0 9.95-9.96 14.85-9.96z" fill="#bceef3"/><path d="m7.333 12h14.849v-8h-14.849z" fill="#ffebb5"/><path d="m25.82 8v16.43c4.8 0 10.05 5.9 14.85 5.9v-18.86c-4.8 0-9.65-3.47-14.45-3.47" fill="#d5c5f9"/><path d="m25.82 34c4.8 0 10.05 10 14.85 10v-8.14c-4.8 0-10.05-11.42-14.85-11.42z" fill="#a5e7d0"/><path d="m25.818 8h14.849v-4h-14.849z" fill="#ffd1ba"/><path d="m22.182 34v-30h3.636v30z" fill="#3872f7"/><path d="m4 12h3.333v-8h-3.333z" fill="#fcc838"/><path d="m40.667 8h3.333v-4h-3.333z" fill="#ff8142"/><path d="m40.667 43.998v-8.125h3.333v8.125z" fill="#06bf7f"/><path d="m40.667 30.336v-18.876h3.333v18.876z" fill="#8b60f0"/><path d="m4 21.956h3.333v22.042h-3.333z" fill="#48d1e0"/></g></svg>