<svg focusable="false" xmlns="http://www.w3.org/2000/svg" xmlns:xlink="http://www.w3.org/1999/xlink" viewBox="0 0 48 48"><defs><path id="a" d="M26.98 31.5l.35-.2.48.88-.88.48-.14-.25-.34.19-7.86-13.95-9.1 17.18-.89-.47 9.96-18.8zm.43 2.04l.88-.48.48.87-.88.49zm.97 1.75l.87-.48.48.88-.87.48zm.96 1.75l.88-.48.48.88-.88.48zm1.13 1.53l.36-.58.85.52-.81 1.32-.57-1.03.28-.16zm1.73-.91l-.85-.52.52-.86.86.53zm1.05-1.7l-.85-.53.52-.85.85.52zm1.05-1.7l-.85-.53.52-.85.85.52zm1.05-1.71l-.86-.52.53-.86.85.53zm1.04-1.7l-.85-.53.53-.85.85.52zm1.05-1.7l-.85-.53.52-.85.86.52zm1.05-1.71l-.85-.53.52-.85.85.53zm1.05-1.7l-.85-.53.52-.85.85.52zm1.04-1.7l-.85-.53.53-.85.85.52z"/><path id="b" d="M27.16 22.48l.87.5-9.47 16.9-9.96-18.8.89-.47 9.1 17.18zm1.4-.38l-.85-.5.5-.87.86.5zm1.02-1.73l-.87-.5.5-.87.87.5zm1-1.73l-.86-.5.5-.86.87.5zm1.02-1.72l-.87-.5.5-.87.87.5zm1-1.73l-.86-.5.5-.87.87.5zm1.01-1.73l-.86-.5.5-.86.87.5zm1.01-1.72l-.86-.5.5-.87.87.5zM35.63 10l-.86-.5.5-.87.87.5zm.15-2.23l.58-1 .72 1.68-.92.4-.33-.78.27-.11zm.77 2l.92-.4.4.92-.93.4zm.78 1.83l.92-.4.4.93-.92.39zm.79 1.84l.92-.4.4.93-.93.39zm.78 1.84l.92-.4.4.93-.92.39zm.79 1.84l.92-.4.39.93-.92.39z"/><mask id="c" fill="#fff"><use fill-rule="evenodd" xlink:href="#a"/></mask><mask id="d" fill="#fff"><use fill-rule="evenodd" xlink:href="#b"/></mask></defs><g fill="none" fill-rule="evenodd"><path d="M0 0h48v48H0z"/><use fill="#06bf7f" fill-rule="nonzero" xlink:href="#a"/><g fill="#06bf7f" mask="url(#c)"><path d="M0 0h48v48H0z"/></g><use fill="#2e75f0" fill-rule="nonzero" xlink:href="#b"/><g fill="#2e75f0" mask="url(#d)"><path d="M0 0h48v48H0z"/></g><path stroke="#47515f" d="M4.5 4v39.5H44"/></g></svg>