<svg focusable="false" viewBox="0 0 48 48" xmlns="http://www.w3.org/2000/svg"><g fill="none" fill-rule="nonzero"><path d="m23 12a12 12 0 0 0 -11 11c-.02.33-.02.67 0 1v1a12 12 0 0 0 4.28 8.18 11.7 11.7 0 0 0 6.72 2.82v10a21.8 21.8 0 0 1 -15.26-7.18 21.86 21.86 0 0 1 -5.74-13.82v-2a22 22 0 0 1 21-21zm13 13h10a22 22 0 0 1 -21 21v-10a12 12 0 0 0 11-11zm4.24-15.82a21.8 21.8 0 0 1 5.76 13.82h-10a12 12 0 0 0 -2.84-6.74z" fill="#d9dfe7"/><path d="m25 2v10a11.7 11.7 0 0 1 6.72 2.82l7.1-7.1a21.8 21.8 0 0 0 -13.82-5.72z" fill="#8b60f0"/></g></svg>