<svg focusable="false" xmlns="http://www.w3.org/2000/svg" viewBox="0 0 48 48"><mask id="a" fill="#fff"><path fill-rule="evenodd" d="M.23.92L.77.08l28 18-.54.84z"/></mask><mask id="b" fill="#fff"><path fill-rule="evenodd" d="M9.74 2.67L1.38 12.3l-.76-.65L9.93.93l8.37 15.4 8.17-5.4 7.45 8.92-.76.64-6.88-8.23-8.33 5.5z"/></mask><g fill="none" fill-rule="evenodd"><path d="M0 0h48v48H0z"/><path stroke="#47515f" d="M4.5 4v39.5H44"/><g fill="#8c62f5" mask="url(#a)" transform="translate(10 9)"><path d="M-10-9h48v48h-48z"/></g><g mask="url(#b)" transform="translate(7 17)"><g transform="translate(-7 -17)"><path fill="#000" d="M0 0h48v48H0z"/><path fill="#fff" d="M0 0h48v48H0z" opacity=".8"/><path fill="#2e75f0" d="M0 0h48v48H0z" opacity=".08"/></g></g></g></svg>