<svg focusable="false" xmlns="http://www.w3.org/2000/svg" xmlns:xlink="http://www.w3.org/1999/xlink" viewBox="0 0 48 48"><defs><path id="a" d="M28 38.53l.02-.05.89.47-.47.88-.44-.23-.44.24-16-30 .88-.48zm1.37-.47l-.88-.46.47-.89.88.47zm.94-1.77l-.89-.46.47-.89.88.47zm.93-1.76l-.88-.47.46-.89.89.47zm.93-1.77l-.88-.47.46-.88.89.46zm.94-1.77l-.89-.47.47-.88.88.46zm.93-1.77l-.89-.47.47-.88.88.46zm.93-1.77l-.88-.47.46-.88.89.46zm.93-1.77l-.88-.47.46-.88.89.46zm.94-1.77l-.89-.47.47-.88.88.47zm.93-1.77l-.89-.47.47-.88.88.47zm.05-2.23l.44-.85.96 1.4-.82.57-.5-.72.3-.2zm1.14 1.94l.83-.56.56.82-.82.57zm1.13 1.65l.82-.56.57.83-.83.56zm1.13 1.66l.82-.57.57.83-.83.56z"/><path id="b" d="M18.58 37.79l8.58-15.3.87.48-9.47 16.9L8.6 21.09l.89-.47zm9.86-15.55l-.88-.48.5-.88.86.5zm.97-1.74l-.87-.49.49-.87.87.48zm.98-1.75l-.88-.49.5-.87.86.49zm.97-1.75l-.87-.48.49-.88.87.5zm.98-1.74l-.88-.49.5-.87.86.49zm.97-1.75l-.87-.49.49-.87.87.49zm.98-1.74l-.88-.5.5-.86.86.48zm.97-1.75l-.87-.49.49-.87.87.49zm.98-1.75l-.88-.48.5-.88.86.49zm.1-2.23l.39-.7 1.04 1.4-.8.6-.58-.78.37-.28zm1.23 2.1l.8-.6.6.8-.8.6zm1.2 1.6l.8-.6.6.8-.8.6zm1.2 1.6l.8-.6.6.8-.8.6zm1.19 1.6l.8-.59.6.8-.8.6zm1.2 1.61l.8-.6.6.8-.8.6z"/><mask id="c" fill="#fff"><use fill-rule="evenodd" xlink:href="#a"/></mask><mask id="d" fill="#fff"><use fill-rule="evenodd" xlink:href="#b"/></mask></defs><g fill="none" fill-rule="evenodd"><path d="M0 0h48v48H0z"/><use fill="#369faa" fill-rule="nonzero" xlink:href="#a"/><g mask="url(#c)"><path fill="#48d1e0" d="M0 0h48v48H0z"/><path fill="#000" d="M0 0h48v48H0z" opacity=".24"/></g><use fill="#2e75f0" fill-rule="nonzero" xlink:href="#b"/><g fill="#2e75f0" mask="url(#d)"><path d="M0 0h48v48H0z"/></g><path stroke="#47515f" d="M4.5 4v39.5H44"/></g></svg>