<svg focusable="false" viewBox="0 0 48 48" xmlns="http://www.w3.org/2000/svg"><g fill="none" fill-rule="evenodd"><path d="m26.13 35.93.37.18-.47.95-10.16-17.98-7.42 15.57-.9-.43 8.25-17.3 10.64 18.83zm.82-.71-.9-.45.45-.9.9.45zm.9-1.79-.9-.45.45-.9.9.46-.46.89zm.89-1.79-.9-.45.45-.9.9.46-.45.9zm.9-1.79-.9-.45.45-.89.89.45-.45.9zm.89-1.79-.9-.44.45-.9.9.45-.45.9zm.9-1.79-.9-.44.44-.9.9.45-.45.9zm.89-1.78-.9-.45.45-.9.9.45zm.9-1.8-.9-.44.44-.9.9.45-.45.9zm1.23-2.47-.34.69-.9-.45.71-1.43.62.87-.3.22.2.1zm-.14 1.08.81-.58.59.8-.82.59zm1.16 1.62.82-.58.58.82-.82.58zm1.16 1.63.82-.58.58.82-.82.58zm1.17 1.63.8-.58.59.81-.81.58zm1.16 1.63.81-.58.58.81-.81.58zm1.16 1.63.81-.58.02.02-.82.58z" fill="#06bf7f" fill-rule="nonzero"/><path d="m26.15 20.87-.1.18-.87-.5.1-.17.4-.7.86.5-.39.69-10.37 18.45-8.23-17.07.9-.44 7.4 15.35 9.43-16.78zm.88-1.56-.87-.5.5-.86.87.49zm.99-1.74-.87-.5.5-.86.86.49zm.99-1.74-.87-.5.49-.86.87.49-.5.87zm.98-1.74-.87-.5.5-.86.86.49zm.99-1.74-.87-.5.49-.86.87.49-.5.87zm.98-1.74-.87-.5.5-.86.87.49zm.99-1.74-.87-.5.5-.86.86.49-.5.87zm.99-1.74-.87-.5.49-.86.87.49-.5.87zm.34-.06.75-.66.66.74-.75.67zm1.33 1.5.74-.67.67.75-.75.66zm1.32 1.5.75-.67.66.75-.74.66-.67-.75zm1.33 1.49.75-.66.66.74-.75.67zm1.33 1.5.74-.67.67.75-.75.66z" fill="#3872f7" fill-rule="nonzero"/><path d="m4.5 4v39.5h39.5" stroke="#47515f"/></g></svg>