<svg focusable="false" xmlns="http://www.w3.org/2000/svg" viewBox="0 0 48 48"><mask id="a" fill="#fff"><path fill-rule="evenodd" d="M34 23h10a22 22 0 0 1-21 21V34a12 12 0 0 0 11-11zM21 10a12 12 0 0 0-11 11c-.02.33-.02.67 0 1v1a12 12 0 0 0 4.28 8.18A11.7 11.7 0 0 0 21 34v10a21.8 21.8 0 0 1-15.26-7.18A21.86 21.86 0 0 1 0 23v-2A22 22 0 0 1 21 0zm17.24-2.82A21.8 21.8 0 0 1 44 21H34a12 12 0 0 0-2.84-6.74z"/></mask><mask id="b" fill="#fff"><path fill-rule="evenodd" d="M25 2v10a11.7 11.7 0 0 1 6.72 2.82l7.1-7.1A21.8 21.8 0 0 0 25 2z"/></mask><g fill="none" fill-rule="evenodd"><path d="M0 0h48v48H0z"/><g mask="url(#a)" transform="translate(2 2)"><g transform="translate(-2 -2)"><path fill="#000" d="M0 0h48v48H0z"/><path fill="#fff" d="M0 0h48v48H0z" opacity=".9"/><path fill="#2e75f0" d="M0 0h48v48H0z" opacity=".06"/></g></g><g fill="#48d1e0" mask="url(#b)"><path d="M0 0h48v48H0z"/></g></g></svg>