<svg focusable="false" xmlns="http://www.w3.org/2000/svg" xmlns:xlink="http://www.w3.org/1999/xlink" viewBox="0 0 48 48"><defs><path id="a" d="M10 8V0H0v8z"/><mask id="b" fill="#fff"><path fill-rule="evenodd" d="M18 30v-8H0v8zm8-10.67H0v-8h26zM36 8.67H0v-8h36z"/></mask><mask id="c" fill="#fff"><use fill-rule="evenodd" xlink:href="#a"/></mask></defs><g fill="none" fill-rule="evenodd"><path d="M0 0h48v48H0z"/><path stroke="#47515f" d="M4 4v40"/><g mask="url(#b)" transform="translate(7 14)"><g transform="matrix(1 0 0 -1 -7 34)"><path fill="#000" d="M0 0h48v48H0z"/><path fill="#fff" d="M0 0h48v48H0z" opacity=".9"/><path fill="#2e75f0" d="M0 0h48v48H0z" opacity=".06"/></g></g><g transform="matrix(1 0 0 -1 7 12)"><use fill="#6cb6e1" fill-rule="nonzero" xlink:href="#a"/><g fill="#48d1e0" mask="url(#c)"><path d="M-7-36h48v48H-7z"/></g></g></g></svg>