<svg focusable="false" xmlns="http://www.w3.org/2000/svg" viewBox="0 0 48 48"><mask id="a" fill="#fff"><path fill-rule="evenodd" d="M11 23h10A22 22 0 0 1 0 44V34a12 12 0 0 0 11-11zm4.24-15.82A21.8 21.8 0 0 1 21 21H11a12 12 0 0 0-2.84-6.74zM0 0a21.8 21.8 0 0 1 13.82 5.72l-7.1 7.1A11.7 11.7 0 0 0 0 10z"/></mask><mask id="b" fill="#fff"><path fill-rule="evenodd" d="M23 12V2A22 22 0 0 0 2 23v2a21.86 21.86 0 0 0 7.16 15.24A21.8 21.8 0 0 0 23 46V36a11.7 11.7 0 0 1-6.72-2.82A12 12 0 0 1 12 25v-1a8.14 8.14 0 0 1 0-1 12 12 0 0 1 11-11z"/></mask><g fill="none" fill-rule="evenodd"><path d="M0 0h48v48H0z"/><g mask="url(#a)" transform="translate(25 2)"><g transform="translate(-25 -2)"><path fill="#000" d="M0 0h48v48H0z"/><path fill="#fff" d="M0 0h48v48H0z" opacity=".9"/><path fill="#2e75f0" d="M0 0h48v48H0z" opacity=".06"/></g></g><g fill="#2e75f0" mask="url(#b)"><path d="M0 0h48v48H0z"/></g></g></svg>