<svg focusable="false" xmlns="http://www.w3.org/2000/svg" xmlns:xlink="http://www.w3.org/1999/xlink" viewBox="0 0 48 48"><defs><path id="a" d="M3 6a3 3 0 1 1 0-6 3 3 0 0 1 0 6zm7 4a3 3 0 1 1 0-6 3 3 0 0 1 0 6zM3 22a3 3 0 1 1 0-6 3 3 0 0 1 0 6zm7-4a3 3 0 1 1 0-6 3 3 0 0 1 0 6zm-7-4a3 3 0 1 1 0-6 3 3 0 0 1 0 6zm14 0a3 3 0 1 1 0-6 3 3 0 0 1 0 6z"/><mask id="b" fill="#fff"><use fill-rule="evenodd" xlink:href="#a"/></mask><mask id="c" fill="#fff"><path fill-rule="evenodd" d="M10 18a3 3 0 1 1 0-6 3 3 0 0 1 0 6zm-7-4a3 3 0 1 1 0-6 3 3 0 0 1 0 6zm14 8a3 3 0 1 1 0-6 3 3 0 0 1 0 6zm0-8a3 3 0 1 1 0-6 3 3 0 0 1 0 6zm7-4a3 3 0 1 1 0-6 3 3 0 0 1 0 6zm-14 0a3 3 0 1 1 0-6 3 3 0 0 1 0 6zm7-4a3 3 0 1 1 0-6 3 3 0 0 1 0 6z"/></mask></defs><g fill="none" fill-rule="evenodd"><path d="M0 0h48v48H0z"/><g transform="translate(10 16)"><use fill="#dd5970" fill-rule="nonzero" xlink:href="#a"/><g fill="#48d1e0" mask="url(#b)"><path d="M-10-16h48v48h-48z"/></g></g><g mask="url(#c)" transform="translate(17 4)"><g transform="translate(-17 -4)"><path fill="#000" d="M0 0h48v48H0z"/><path fill="#fff" d="M0 0h48v48H0z" opacity=".9"/><path fill="#2e75f0" d="M0 0h48v48H0z" opacity=".06"/></g></g><path stroke="#47515f" d="M4.5 4v39.5H44"/></g></svg>