<svg focusable="false" viewBox="0 0 48 48" xmlns="http://www.w3.org/2000/svg" xmlns:xlink="http://www.w3.org/1999/xlink"><defs><path id="a" d="m16 0h8v20h-8zm-16 22h14v10h-14z"/><path id="b" d="m0 0h14v20h-14z"/><path id="c" d="m16 0h8v10h-8zm-16 12h14v6h-14z"/><path id="d" d="m0 0h8v6h-8z"/><mask id="e" fill="#fff"><use fill="none" xlink:href="#a"/></mask><mask id="f" fill="#fff"><use fill="none" xlink:href="#b"/></mask><mask id="g" fill="#fff"><use fill="none" xlink:href="#c"/></mask><mask id="h" fill="#fff"><use fill="none" xlink:href="#d"/></mask></defs><g fill="none" fill-rule="evenodd"><g transform="translate(20 4)"><use fill="#9e8bad" fill-rule="nonzero" xlink:href="#a"/><g fill="#de546b" mask="url(#e)" opacity=".5"><path d="m0 0h48v48h-48z" transform="translate(-20 -4)"/></g><g fill="#68b8e3" mask="url(#e)" opacity=".5"><path d="m0 0h48v48h-48z" transform="translate(-20 -4)"/></g></g><g transform="translate(20 4)"><use fill="#b47998" fill-rule="nonzero" xlink:href="#b"/><g fill="#de546b" mask="url(#f)"><path d="m0 0h48v48h-48z" transform="translate(-20 -4)"/></g><g fill="#68b8e3" mask="url(#f)" opacity=".25"><path d="m0 0h48v48h-48z" transform="translate(-20 -4)"/></g></g><g transform="translate(20 26)"><use fill="#81a4cb" fill-rule="nonzero" xlink:href="#c"/><g fill="#68b8e3" mask="url(#g)"><path d="m0 0h48v48h-48z" transform="translate(-20 -26)"/></g><g fill="#de546b" mask="url(#g)" opacity=".25"><path d="m0 0h48v48h-48z" transform="translate(-20 -26)"/></g></g><g fill="#68b8e3" transform="translate(36 38)"><use fill-rule="nonzero" xlink:href="#d"/><g mask="url(#h)"><path d="m0 0h48v48h-48z" transform="translate(-36 -38)"/></g></g><g fill-rule="nonzero"><path d="m36 4h8v20h-8z" fill="#48d1e0"/><path d="m20 4h14v20h-14z" fill="#48d1e0"/><path d="m36 26h8v10h-8z" fill="#48d1e0"/><path d="m36 38h8v6h-8z" fill="#48d1e0"/><path d="m20 38h14v6h-14z" fill="#48d1e0"/><path d="m4 4h14v40h-14z" fill="#0058e6"/><path d="m20 26h14v10h-14z" fill="#48d1e0"/><path d="m36 4h8v20h-8z" fill="#3872f7" fill-opacity=".5"/><path d="m20 4h14v20h-14z" fill="#3872f7" fill-opacity=".8"/><path d="m36 26h8v10h-8z" fill="#3872f7" fill-opacity=".2"/><path d="m20 38h14v6h-14z" fill="#3872f7" fill-opacity=".2"/><path d="m20 26h14v10h-14z" fill="#3872f7" fill-opacity=".5"/></g></g></svg>