<svg focusable="false" viewBox="0 0 48 48" xmlns="http://www.w3.org/2000/svg"><g fill="none" fill-rule="evenodd"><path d="m4 4h40v8h-40z" fill="#747e8c"/><path d="m14.26 14h9.23v5.2h-9.23zm10.25 0h9.23v5.2h-9.23zm10.26 0h9.23v5.2h-9.23zm-20.51 6.23h9.23v5.2h-9.23zm10.25 0h9.23v5.2h-9.23zm10.26 0h9.23v5.2h-9.23zm-20.51 6.24h9.23v5.19h-9.23v-5.2zm10.25 0h9.23v5.19h-9.23v-5.2zm10.26 0h9.23v5.19h-9.23v-5.2zm-20.51 6.23h9.23v5.2h-9.23zm10.25 0h9.23v5.2h-9.23zm10.26 0h9.23v5.2h-9.23zm-20.51 6.23h9.23v5.2h-9.23zm10.25 0h9.23v5.2h-9.23zm10.26 0h9.23v5.2h-9.23z" fill="#d9dfe7"/><path d="m4 14h9.231v30h-9.231z" fill="#bec6d0"/></g></svg>