<svg focusable="false" xmlns="http://www.w3.org/2000/svg" xmlns:xlink="http://www.w3.org/1999/xlink" width="20" height="20" viewBox="0 0 20 20">
    <defs>
        <path id="a" d="M8.59 5H7V3h3V0h2v3h3v2h-3v3h-2V6.418l-8.496 8.496L.09 13.5 8.59 5zm4.91 9a1.5 1.5 0 1 1 0-3 1.5 1.5 0 0 1 0 3zm-11-8.5a1.5 1.5 0 1 1 0-3 1.5 1.5 0 0 1 0 3z"/>
    </defs>
    <g fill="none" fill-rule="evenodd">
        <g transform="translate(3 2)">
            <mask id="b" fill="#fff">
                <use xlink:href="#a"/>
            </mask>
            <use fill="#A2ACBA" fill-rule="nonzero" xlink:href="#a"/>
            <g mask="url(#b)">
                <path fill="#A2ACBA" d="M-3-2h20v20H-3z"/>
                <path fill="#747E8C" d="M-3-2h20v20H-3z"/>
            </g>
        </g>
    </g>
</svg>
