<svg width="14" height="14" viewBox="0 0 14 14" fill="none" xmlns="http://www.w3.org/2000/svg">
<path fill-rule="evenodd" clip-rule="evenodd" d="M5.581 3.96519C5.58102 3.96519 5.58103 3.96519 5.58105 3.96518V1.14996C2.42733 1.58811 0 4.28368 0 7.54357C0 11.1091 2.90379 13.9995 6.48579 13.9995C9.74103 13.9995 12.4362 11.6124 12.9008 8.50079L12.9715 8.41845H5.581V3.96519Z" fill="#E3D9FC"/>
<path fill-rule="evenodd" clip-rule="evenodd" d="M7.19315 3.15805C7.18264 3.15698 7.17584 3.1563 7.17584 3.1563V0C7.17584 0 7.51725 0.0232016 7.6856 0.0437617C9.30081 0.241013 10.7424 0.978889 11.8159 2.06201C12.8412 3.0965 13.5369 4.45214 13.7293 5.96254C13.7648 6.24191 13.7831 6.5259 13.7831 6.81334H13.6488L13.649 6.81364H7.19315V3.15805Z" fill="#D1C0FB"/>
</svg>
