<svg width="18" height="18" viewBox="0 0 18 18" fill="none" xmlns="http://www.w3.org/2000/svg">
<path fill-rule="evenodd" clip-rule="evenodd" d="M7.28868 5.09977V1.48047C3.17001 2.04376 0 5.50924 0 9.70022C0 14.2841 3.79226 18.0001 8.47025 18.0001C12.7589 18.0001 16.303 14.877 16.8633 10.8252H16.8598L16.86 10.8249H7.28868L7.28868 5.09977Z" fill="#DBDFE7"/>
<path fill-rule="evenodd" clip-rule="evenodd" d="M9.37115 0.778804V0C9.37115 0 9.81702 0.0298285 10.0369 0.0562609C12.1463 0.309851 14.029 1.25848 15.4309 2.65096C16.7699 3.98092 17.6786 5.72376 17.9297 7.66557C17.9762 8.02473 18 8.38983 18 8.75937H13.8011C13.8011 8.75931 13.8011 8.75925 13.8011 8.75918H9.37V0.77869L9.37115 0.778804Z" fill="#A5ACB9"/>
</svg>
