<svg width="18" height="16" viewBox="0 0 18 16" fill="none" xmlns="http://www.w3.org/2000/svg">
<path d="M15.5 8C15.5 12.1421 12.1421 15.5 8 15.5C3.85786 15.5 0.5 12.1421 0.5 8C0.5 3.85786 3.85786 0.5 8 0.5C10.1055 0.5 12.0076 1.36696 13.3704 2.76468C13.8045 3.20992 14.1837 3.70882 14.4969 4.25036C14.8057 4.78404 15.0504 5.35912 15.2208 5.96519C15.4026 6.61168 15.5 7.29406 15.5 8Z" fill="white" stroke="#2770EF"/>
<path fill-rule="evenodd" clip-rule="evenodd" d="M17.1822 1.82673C17.5632 2.21747 17.5541 2.84348 17.1619 3.22293L7.77096 12.3075C7.37513 12.6904 6.7442 12.6812 6.35971 12.2869L2.66916 8.50208C2.29689 8.12031 2.29689 7.51136 2.66916 7.12959C3.05493 6.73396 3.69092 6.73396 4.07669 7.12959L7.05508 10.184L15.7947 1.80343C16.1852 1.42898 16.8045 1.43938 17.1822 1.82673Z" fill="white"/>
<mask id="mask0" mask-type="alpha" maskUnits="userSpaceOnUse" x="1" y="1" width="14" height="14">
<path d="M15 8C15 11.866 11.866 15 8 15C4.13401 15 1 11.866 1 8C1 4.13401 4.13401 1 8 1C9.96506 1 11.741 1.80971 13.0124 3.11368C13.4174 3.52903 13.7711 3.99454 14.0635 4.5C14.3517 4.99815 14.5802 5.53511 14.7394 6.10111C14.9092 6.70496 15 7.34187 15 8Z" fill="white"/>
</mask>
<g mask="url(#mask0)">
<path fill-rule="evenodd" clip-rule="evenodd" d="M19.2559 -0.24357C19.6362 0.146467 19.6277 0.771154 19.2369 1.1507L8.39808 11.6776C8.00245 12.0618 7.37043 12.0533 6.98541 11.6584L3.29623 7.87501C2.92397 7.49324 2.92397 6.88429 3.29623 6.50252C3.68201 6.10689 4.31799 6.10689 4.70377 6.50252L7.68215 9.55697L17.8669 -0.264921C18.2569 -0.641078 18.8776 -0.631538 19.2559 -0.24357Z" fill="#2770EF"/>
</g>
</svg>
