<svg width="192" height="120" viewBox="0 0 192 120" fill="none" xmlns="http://www.w3.org/2000/svg">
<path d="M94.332 59.4165C94.332 57.0594 96.9254 55.623 98.9235 56.8734C100.862 58.0869 100.785 60.9369 98.7822 62.0426C96.7827 63.1467 94.332 61.7005 94.332 59.4165Z" fill="#323946"/>
<rect width="192" height="120" rx="6" fill="#C0C6CF"/>
<rect width="192" height="120" rx="6" fill="#56D3A8"/>
<mask id="mask0" mask-type="alpha" maskUnits="userSpaceOnUse" x="0" y="0" width="192" height="120">
<rect width="192" height="120" rx="6" fill="#049160"/>
</mask>
<g mask="url(#mask0)">
<rect y="-52" width="192" height="112" fill="#9BE5CB"/>
<rect x="-96" y="35.0771" width="192" height="105.231" fill="#9BE5CB"/>
<rect y="-52" width="96" height="112" fill="#56D3A8"/>
<path fill-rule="evenodd" clip-rule="evenodd" d="M96.0918 10.2227V12.0498L0.0917968 12.0498L0.0917969 10.2227L96.0918 10.2227ZM96.0918 20.0498V21.8769L0.0917968 21.8769L0.0917969 20.0498L96.0918 20.0498ZM96.0918 31.7041V29.877L0.0917969 29.877L0.0917968 31.7041L96.0918 31.7041ZM96.0918 39.7041V41.5312L0.0917968 41.5312L0.0917969 39.7041L96.0918 39.7041ZM96 51.3584V49.5313L0 49.5312V51.3584L96 51.3584Z" fill="#38C192"/>
<path fill-rule="evenodd" clip-rule="evenodd" d="M192.092 70V71.8271L96.0918 71.8271L96.0918 70L192.092 70ZM192.092 79.8272V81.6543L96.0918 81.6543L96.0918 79.8271L192.092 79.8272ZM192.092 91.4814V89.6543L96.0918 89.6543L96.0918 91.4814L192.092 91.4814ZM192.092 99.4814V101.309L96.0918 101.309L96.0918 99.4814L192.092 99.4814ZM192 111.136V109.309L96 109.309V111.136L192 111.136Z" fill="#9BE5CB"/>
</g>
<path fill-rule="evenodd" clip-rule="evenodd" d="M106.347 12C107.091 12 107.694 12.6376 107.694 13.4241C107.694 14.2106 107.091 14.8482 106.347 14.8482C105.603 14.8482 105 14.2106 105 13.4241C105 12.6376 105.603 12 106.347 12ZM107.694 24.8169C107.694 24.0303 107.091 23.3928 106.347 23.3928C105.603 23.3928 105 24.0303 105 24.8169C105 25.6034 105.603 26.2409 106.347 26.2409C107.091 26.2409 107.694 25.6034 107.694 24.8169ZM106.347 34.7846C107.091 34.7846 107.694 35.4222 107.694 36.2087C107.694 36.9952 107.091 37.6328 106.347 37.6328C105.603 37.6328 105 36.9952 105 36.2087C105 35.4222 105.603 34.7846 106.347 34.7846ZM106.347 46.1771C107.091 46.1771 107.694 46.8146 107.694 47.6012C107.694 48.3877 107.091 49.0252 106.347 49.0252C105.603 49.0252 105 48.3877 105 47.6012C105 46.8146 105.603 46.1771 106.347 46.1771ZM117.122 46.178C117.866 46.178 118.469 46.8156 118.469 47.6021C118.469 48.3886 117.866 49.0262 117.122 49.0262C116.378 49.0262 115.775 48.3886 115.775 47.6021C115.775 46.8156 116.378 46.178 117.122 46.178ZM129.244 47.6021C129.244 46.8156 128.641 46.178 127.897 46.178C127.153 46.178 126.55 46.8156 126.55 47.6021C126.55 48.3886 127.153 49.0262 127.897 49.0262C128.641 49.0262 129.244 48.3886 129.244 47.6021ZM138.671 46.178C139.415 46.178 140.018 46.8156 140.018 47.6021C140.018 48.3886 139.415 49.0262 138.671 49.0262C137.927 49.0262 137.324 48.3886 137.324 47.6021C137.324 46.8156 137.927 46.178 138.671 46.178ZM150.793 47.6021C150.793 46.8156 150.19 46.178 149.446 46.178C148.702 46.178 148.099 46.8156 148.099 47.6021C148.099 48.3886 148.702 49.0262 149.446 49.0262C150.19 49.0262 150.793 48.3886 150.793 47.6021ZM118.469 36.2087C118.469 35.4222 117.866 34.7846 117.122 34.7846C116.378 34.7846 115.775 35.4222 115.775 36.2087C115.775 36.9952 116.378 37.6328 117.122 37.6328C117.866 37.6328 118.469 36.9952 118.469 36.2087ZM127.897 34.7846C128.641 34.7846 129.244 35.4222 129.244 36.2087C129.244 36.9952 128.641 37.6328 127.897 37.6328C127.153 37.6328 126.55 36.9952 126.55 36.2087C126.55 35.4222 127.153 34.7846 127.897 34.7846ZM140.018 36.2087C140.018 35.4222 139.415 34.7846 138.671 34.7846C137.927 34.7846 137.324 35.4222 137.324 36.2087C137.324 36.9952 137.927 37.6328 138.671 37.6328C139.415 37.6328 140.018 36.9952 140.018 36.2087ZM149.446 34.7846C150.19 34.7846 150.793 35.4222 150.793 36.2087C150.793 36.9952 150.19 37.6328 149.446 37.6328C148.702 37.6328 148.099 36.9952 148.099 36.2087C148.099 35.4222 148.702 34.7846 149.446 34.7846ZM117.122 23.3928C117.866 23.3928 118.469 24.0303 118.469 24.8169C118.469 25.6034 117.866 26.2409 117.122 26.2409C116.378 26.2409 115.775 25.6034 115.775 24.8169C115.775 24.0303 116.378 23.3928 117.122 23.3928ZM129.244 24.8169C129.244 24.0303 128.641 23.3928 127.897 23.3928C127.153 23.3928 126.55 24.0303 126.55 24.8169C126.55 25.6034 127.153 26.2409 127.897 26.2409C128.641 26.2409 129.244 25.6034 129.244 24.8169ZM138.671 23.3928C139.415 23.3928 140.018 24.0303 140.018 24.8169C140.018 25.6034 139.415 26.2409 138.671 26.2409C137.927 26.2409 137.324 25.6034 137.324 24.8169C137.324 24.0303 137.927 23.3928 138.671 23.3928ZM150.793 24.8169C150.793 24.0303 150.19 23.3928 149.446 23.3928C148.702 23.3928 148.099 24.0303 148.099 24.8169C148.099 25.6034 148.702 26.2409 149.446 26.2409C150.19 26.2409 150.793 25.6034 150.793 24.8169ZM118.468 13.4241C118.468 12.6376 117.865 12 117.121 12C116.377 12 115.774 12.6376 115.774 13.4241C115.774 14.2106 116.377 14.8482 117.121 14.8482C117.865 14.8482 118.468 14.2106 118.468 13.4241ZM127.897 12C128.641 12 129.244 12.6376 129.244 13.4241C129.244 14.2106 128.641 14.8482 127.897 14.8482C127.153 14.8482 126.55 14.2106 126.55 13.4241C126.55 12.6376 127.153 12 127.897 12ZM140.018 13.4241C140.018 12.6376 139.415 12 138.671 12C137.927 12 137.324 12.6376 137.324 13.4241C137.324 14.2106 137.927 14.8482 138.671 14.8482C139.415 14.8482 140.018 14.2106 140.018 13.4241ZM149.446 12C150.19 12 150.793 12.6376 150.793 13.4241C150.793 14.2106 150.19 14.8482 149.446 14.8482C148.702 14.8482 148.099 14.2106 148.099 13.4241C148.099 12.6376 148.702 12 149.446 12ZM161.263 47.6012C161.263 46.8146 160.66 46.1771 159.916 46.1771C159.172 46.1771 158.569 46.8146 158.569 47.6012C158.569 48.3877 159.172 49.0252 159.916 49.0252C160.66 49.0252 161.263 48.3877 161.263 47.6012ZM170.691 46.178C171.434 46.178 172.037 46.8156 172.037 47.6021C172.037 48.3886 171.434 49.0262 170.691 49.0262C169.947 49.0262 169.344 48.3886 169.344 47.6021C169.344 46.8156 169.947 46.178 170.691 46.178ZM182.813 47.6021C182.813 46.8156 182.21 46.178 181.466 46.178C180.722 46.178 180.119 46.8156 180.119 47.6021C180.119 48.3886 180.722 49.0262 181.466 49.0262C182.21 49.0262 182.813 48.3886 182.813 47.6021ZM159.916 34.7846C160.66 34.7846 161.263 35.4222 161.263 36.2087C161.263 36.9952 160.66 37.6328 159.916 37.6328C159.172 37.6328 158.569 36.9952 158.569 36.2087C158.569 35.4222 159.172 34.7846 159.916 34.7846ZM172.038 36.2087C172.038 35.4222 171.435 34.7846 170.691 34.7846C169.947 34.7846 169.344 35.4222 169.344 36.2087C169.344 36.9952 169.947 37.6328 170.691 37.6328C171.435 37.6328 172.038 36.9952 172.038 36.2087ZM181.466 34.7846C182.21 34.7846 182.813 35.4222 182.813 36.2087C182.813 36.9952 182.21 37.6328 181.466 37.6328C180.722 37.6328 180.119 36.9952 180.119 36.2087C180.119 35.4222 180.722 34.7846 181.466 34.7846ZM161.263 24.8169C161.263 24.0303 160.66 23.3928 159.916 23.3928C159.172 23.3928 158.569 24.0303 158.569 24.8169C158.569 25.6034 159.172 26.2409 159.916 26.2409C160.66 26.2409 161.263 25.6034 161.263 24.8169ZM170.691 23.3928C171.435 23.3928 172.038 24.0303 172.038 24.8169C172.038 25.6034 171.435 26.2409 170.691 26.2409C169.947 26.2409 169.344 25.6034 169.344 24.8169C169.344 24.0303 169.947 23.3928 170.691 23.3928ZM182.813 24.8169C182.813 24.0303 182.21 23.3928 181.466 23.3928C180.722 23.3928 180.119 24.0303 180.119 24.8169C180.119 25.6034 180.722 26.2409 181.466 26.2409C182.21 26.2409 182.813 25.6034 182.813 24.8169ZM159.916 12C160.66 12 161.263 12.6376 161.263 13.4241C161.263 14.2106 160.66 14.8482 159.916 14.8482C159.172 14.8482 158.569 14.2106 158.569 13.4241C158.569 12.6376 159.172 12 159.916 12ZM172.038 13.4241C172.038 12.6376 171.435 12 170.691 12C169.947 12 169.344 12.6376 169.344 13.4241C169.344 14.2106 169.947 14.8482 170.691 14.8482C171.435 14.8482 172.038 14.2106 172.038 13.4241ZM181.466 12C182.21 12 182.813 12.6376 182.813 13.4241C182.813 14.2106 182.21 14.8482 181.466 14.8482C180.722 14.8482 180.119 14.2106 180.119 13.4241C180.119 12.6376 180.722 12 181.466 12Z" fill="#56D3A8"/>
<path fill-rule="evenodd" clip-rule="evenodd" d="M11.3469 72C12.0907 72 12.6937 72.6376 12.6937 73.4241C12.6937 74.2106 12.0907 74.8482 11.3469 74.8482C10.603 74.8482 10 74.2106 10 73.4241C10 72.6376 10.603 72 11.3469 72ZM12.6937 84.8169C12.6937 84.0303 12.0907 83.3928 11.3469 83.3928C10.603 83.3928 10 84.0303 10 84.8169C10 85.6034 10.603 86.2409 11.3469 86.2409C12.0907 86.2409 12.6937 85.6034 12.6937 84.8169ZM11.3469 94.7846C12.0907 94.7846 12.6937 95.4222 12.6937 96.2087C12.6937 96.9952 12.0907 97.6328 11.3469 97.6328C10.603 97.6328 10 96.9952 10 96.2087C10 95.4222 10.603 94.7846 11.3469 94.7846ZM11.3471 106.177C12.091 106.177 12.694 106.815 12.694 107.601C12.694 108.388 12.091 109.025 11.3471 109.025C10.6033 109.025 10.0002 108.388 10.0002 107.601C10.0002 106.815 10.6033 106.177 11.3471 106.177ZM22.1218 106.178C22.8656 106.178 23.4686 106.816 23.4686 107.602C23.4686 108.389 22.8656 109.026 22.1218 109.026C21.3779 109.026 20.7749 108.389 20.7749 107.602C20.7749 106.816 21.3779 106.178 22.1218 106.178ZM34.2435 107.602C34.2435 106.816 33.6405 106.178 32.8967 106.178C32.1528 106.178 31.5498 106.816 31.5498 107.602C31.5498 108.389 32.1528 109.026 32.8967 109.026C33.6405 109.026 34.2435 108.389 34.2435 107.602ZM43.6713 106.178C44.4152 106.178 45.0182 106.816 45.0182 107.602C45.0182 108.389 44.4152 109.026 43.6713 109.026C42.9275 109.026 42.3245 108.389 42.3245 107.602C42.3245 106.816 42.9275 106.178 43.6713 106.178ZM55.7931 107.602C55.7931 106.816 55.1901 106.178 54.4462 106.178C53.7024 106.178 53.0994 106.816 53.0994 107.602C53.0994 108.389 53.7024 109.026 54.4462 109.026C55.1901 109.026 55.7931 108.389 55.7931 107.602ZM23.4686 96.2087C23.4686 95.4222 22.8656 94.7846 22.1218 94.7846C21.3779 94.7846 20.7749 95.4222 20.7749 96.2087C20.7749 96.9952 21.3779 97.6328 22.1218 97.6328C22.8656 97.6328 23.4686 96.9952 23.4686 96.2087ZM32.8972 94.7846C33.641 94.7846 34.244 95.4222 34.244 96.2087C34.244 96.9952 33.641 97.6328 32.8972 97.6328C32.1533 97.6328 31.5503 96.9952 31.5503 96.2087C31.5503 95.4222 32.1533 94.7846 32.8972 94.7846ZM45.0182 96.2087C45.0182 95.4222 44.4152 94.7846 43.6713 94.7846C42.9275 94.7846 42.3245 95.4222 42.3245 96.2087C42.3245 96.9952 42.9275 97.6328 43.6713 97.6328C44.4152 97.6328 45.0182 96.9952 45.0182 96.2087ZM54.4462 94.7846C55.1901 94.7846 55.7931 95.4222 55.7931 96.2087C55.7931 96.9952 55.1901 97.6328 54.4462 97.6328C53.7024 97.6328 53.0994 96.9952 53.0994 96.2087C53.0994 95.4222 53.7024 94.7846 54.4462 94.7846ZM22.1218 83.3928C22.8656 83.3928 23.4686 84.0303 23.4686 84.8169C23.4686 85.6034 22.8656 86.2409 22.1218 86.2409C21.3779 86.2409 20.7749 85.6034 20.7749 84.8169C20.7749 84.0303 21.3779 83.3928 22.1218 83.3928ZM34.244 84.8169C34.244 84.0303 33.641 83.3928 32.8972 83.3928C32.1533 83.3928 31.5503 84.0303 31.5503 84.8169C31.5503 85.6034 32.1533 86.2409 32.8972 86.2409C33.641 86.2409 34.244 85.6034 34.244 84.8169ZM43.6713 83.3928C44.4152 83.3928 45.0182 84.0303 45.0182 84.8169C45.0182 85.6034 44.4152 86.2409 43.6713 86.2409C42.9275 86.2409 42.3245 85.6034 42.3245 84.8169C42.3245 84.0303 42.9275 83.3928 43.6713 83.3928ZM55.7931 84.8169C55.7931 84.0303 55.1901 83.3928 54.4462 83.3928C53.7024 83.3928 53.0994 84.0303 53.0994 84.8169C53.0994 85.6034 53.7024 86.2409 54.4462 86.2409C55.1901 86.2409 55.7931 85.6034 55.7931 84.8169ZM23.4681 73.4241C23.4681 72.6376 22.8651 72 22.1213 72C21.3774 72 20.7744 72.6376 20.7744 73.4241C20.7744 74.2106 21.3774 74.8482 22.1213 74.8482C22.8651 74.8482 23.4681 74.2106 23.4681 73.4241ZM32.8972 72C33.641 72 34.244 72.6376 34.244 73.4241C34.244 74.2106 33.641 74.8482 32.8972 74.8482C32.1533 74.8482 31.5503 74.2106 31.5503 73.4241C31.5503 72.6376 32.1533 72 32.8972 72ZM45.0182 73.4241C45.0182 72.6376 44.4152 72 43.6713 72C42.9275 72 42.3245 72.6376 42.3245 73.4241C42.3245 74.2106 42.9275 74.8482 43.6713 74.8482C44.4152 74.8482 45.0182 74.2106 45.0182 73.4241ZM54.4462 72C55.1901 72 55.7931 72.6376 55.7931 73.4241C55.7931 74.2106 55.1901 74.8482 54.4462 74.8482C53.7024 74.8482 53.0994 74.2106 53.0994 73.4241C53.0994 72.6376 53.7024 72 54.4462 72ZM66.2631 107.601C66.2631 106.815 65.66 106.177 64.9162 106.177C64.1723 106.177 63.5693 106.815 63.5693 107.601C63.5693 108.388 64.1723 109.025 64.9162 109.025C65.66 109.025 66.2631 108.388 66.2631 107.601ZM75.6906 106.178C76.4345 106.178 77.0375 106.816 77.0375 107.602C77.0375 108.389 76.4345 109.026 75.6906 109.026C74.9468 109.026 74.3438 108.389 74.3438 107.602C74.3438 106.816 74.9468 106.178 75.6906 106.178ZM87.8129 107.602C87.8129 106.816 87.2098 106.178 86.466 106.178C85.7222 106.178 85.1191 106.816 85.1191 107.602C85.1191 108.389 85.7222 109.026 86.466 109.026C87.2098 109.026 87.8129 108.389 87.8129 107.602ZM64.916 94.7846C65.6598 94.7846 66.2628 95.4222 66.2628 96.2087C66.2628 96.9952 65.6598 97.6328 64.916 97.6328C64.1721 97.6328 63.5691 96.9952 63.5691 96.2087C63.5691 95.4222 64.1721 94.7846 64.916 94.7846ZM77.0377 96.2087C77.0377 95.4222 76.4347 94.7846 75.6908 94.7846C74.947 94.7846 74.344 95.4222 74.344 96.2087C74.344 96.9952 74.947 97.6328 75.6908 97.6328C76.4347 97.6328 77.0377 96.9952 77.0377 96.2087ZM86.466 94.7846C87.2098 94.7846 87.8129 95.4222 87.8129 96.2087C87.8129 96.9952 87.2098 97.6328 86.466 97.6328C85.7222 97.6328 85.1191 96.9952 85.1191 96.2087C85.1191 95.4222 85.7222 94.7846 86.466 94.7846ZM66.2628 84.8169C66.2628 84.0303 65.6598 83.3928 64.916 83.3928C64.1721 83.3928 63.5691 84.0303 63.5691 84.8169C63.5691 85.6034 64.1721 86.2409 64.916 86.2409C65.6598 86.2409 66.2628 85.6034 66.2628 84.8169ZM75.6908 83.3928C76.4347 83.3928 77.0377 84.0303 77.0377 84.8169C77.0377 85.6034 76.4347 86.2409 75.6908 86.2409C74.947 86.2409 74.344 85.6034 74.344 84.8169C74.344 84.0303 74.947 83.3928 75.6908 83.3928ZM87.8129 84.8169C87.8129 84.0303 87.2098 83.3928 86.466 83.3928C85.7222 83.3928 85.1191 84.0303 85.1191 84.8169C85.1191 85.6034 85.7222 86.2409 86.466 86.2409C87.2098 86.2409 87.8129 85.6034 87.8129 84.8169ZM64.916 72C65.6598 72 66.2628 72.6376 66.2628 73.4241C66.2628 74.2106 65.6598 74.8482 64.916 74.8482C64.1721 74.8482 63.5691 74.2106 63.5691 73.4241C63.5691 72.6376 64.1721 72 64.916 72ZM77.0377 73.4241C77.0377 72.6376 76.4347 72 75.6908 72C74.947 72 74.344 72.6376 74.344 73.4241C74.344 74.2106 74.947 74.8482 75.6908 74.8482C76.4347 74.8482 77.0377 74.2106 77.0377 73.4241ZM86.466 72C87.2098 72 87.8129 72.6376 87.8129 73.4241C87.8129 74.2106 87.2098 74.8482 86.466 74.8482C85.7222 74.8482 85.1191 74.2106 85.1191 73.4241C85.1191 72.6376 85.7222 72 86.466 72Z" fill="#38C192"/>
<g filter="url(#filter0_dd)">
<rect x="20" y="33" width="51.9623" height="54" rx="6" fill="#03754D"/>
</g>
<path d="M97.8457 58.1538L97.8457 61.8461L47.9995 61.8461C46.9799 61.8461 46.1534 61.0196 46.1534 60C46.1534 58.9804 46.9799 58.1538 47.9995 58.1538L97.8457 58.1538Z" fill="white"/>
<g filter="url(#filter1_dd)">
<rect x="117" y="33" width="54" height="54" rx="27" fill="white"/>
</g>
<path d="M144 58.1538C145.019 58.1538 145.846 58.9804 145.846 60C145.846 61.0196 145.019 61.8461 144 61.8461L95.9995 61.8461L95.9995 58.1538L144 58.1538Z" fill="#03754D"/>
<defs>
<filter id="filter0_dd" x="16" y="31" width="59.9623" height="62" filterUnits="userSpaceOnUse" color-interpolation-filters="sRGB">
<feFlood flood-opacity="0" result="BackgroundImageFix"/>
<feColorMatrix in="SourceAlpha" type="matrix" values="0 0 0 0 0 0 0 0 0 0 0 0 0 0 0 0 0 0 127 0"/>
<feOffset dy="2"/>
<feGaussianBlur stdDeviation="2"/>
<feColorMatrix type="matrix" values="0 0 0 0 0.0980392 0 0 0 0 0.137255 0 0 0 0 0.192157 0 0 0 0.04 0"/>
<feBlend mode="normal" in2="BackgroundImageFix" result="effect1_dropShadow"/>
<feColorMatrix in="SourceAlpha" type="matrix" values="0 0 0 0 0 0 0 0 0 0 0 0 0 0 0 0 0 0 127 0"/>
<feOffset dy="2"/>
<feGaussianBlur stdDeviation="2"/>
<feColorMatrix type="matrix" values="0 0 0 0 0.0980392 0 0 0 0 0.137255 0 0 0 0 0.192157 0 0 0 0.04 0"/>
<feBlend mode="normal" in2="effect1_dropShadow" result="effect2_dropShadow"/>
<feBlend mode="normal" in="SourceGraphic" in2="effect2_dropShadow" result="shape"/>
</filter>
<filter id="filter1_dd" x="113" y="31" width="62" height="62" filterUnits="userSpaceOnUse" color-interpolation-filters="sRGB">
<feFlood flood-opacity="0" result="BackgroundImageFix"/>
<feColorMatrix in="SourceAlpha" type="matrix" values="0 0 0 0 0 0 0 0 0 0 0 0 0 0 0 0 0 0 127 0"/>
<feOffset dy="2"/>
<feGaussianBlur stdDeviation="2"/>
<feColorMatrix type="matrix" values="0 0 0 0 0.0980392 0 0 0 0 0.137255 0 0 0 0 0.192157 0 0 0 0.04 0"/>
<feBlend mode="normal" in2="BackgroundImageFix" result="effect1_dropShadow"/>
<feColorMatrix in="SourceAlpha" type="matrix" values="0 0 0 0 0 0 0 0 0 0 0 0 0 0 0 0 0 0 127 0"/>
<feOffset dy="2"/>
<feGaussianBlur stdDeviation="2"/>
<feColorMatrix type="matrix" values="0 0 0 0 0.0980392 0 0 0 0 0.137255 0 0 0 0 0.192157 0 0 0 0.04 0"/>
<feBlend mode="normal" in2="effect1_dropShadow" result="effect2_dropShadow"/>
<feBlend mode="normal" in="SourceGraphic" in2="effect2_dropShadow" result="shape"/>
</filter>
</defs>
</svg>
