<svg width="15" height="6" viewBox="0 0 15 6" fill="none" xmlns="http://www.w3.org/2000/svg">
<path d="M15 1C15 1.55228 14.5523 2 14 2C13.4477 2 13 1.55228 13 1C13 0.447715 13.4477 0 14 0C14.5523 0 15 0.447715 15 1Z" fill="#777E8B"/>
<path d="M2 1C2 1.55228 1.55228 2 1 2C0.447715 2 0 1.55228 0 1C0 0.447715 0.447715 0 1 0C1.55228 0 2 0.447715 2 1Z" fill="#777E8B"/>
<path d="M6.33333 1C6.33333 1.55228 5.88562 2 5.33333 2C4.78105 2 4.33333 1.55228 4.33333 1C4.33333 0.447715 4.78105 0 5.33333 0C5.88562 0 6.33333 0.447715 6.33333 1Z" fill="#777E8B"/>
<path d="M9.66667 2C10.219 2 10.6667 1.55228 10.6667 1C10.6667 0.447715 10.219 0 9.66667 0C9.11438 0 8.66667 0.447715 8.66667 1C8.66667 1.55228 9.11438 2 9.66667 2Z" fill="#777E8B"/>
<path d="M15 5C15 5.55228 14.5523 6 14 6C13.4477 6 13 5.55228 13 5C13 4.44772 13.4477 4 14 4C14.5523 4 15 4.44772 15 5Z" fill="#777E8B"/>
<path d="M2 5C2 5.55228 1.55228 6 1 6C0.447715 6 0 5.55228 0 5C0 4.44772 0.447715 4 1 4C1.55228 4 2 4.44772 2 5Z" fill="#777E8B"/>
<path d="M6.33333 5C6.33333 5.55228 5.88562 6 5.33333 6C4.78105 6 4.33333 5.55228 4.33333 5C4.33333 4.44772 4.78105 4 5.33333 4C5.88562 4 6.33333 4.44772 6.33333 5Z" fill="#777E8B"/>
<path d="M9.66667 6C10.219 6 10.6667 5.55228 10.6667 5C10.6667 4.44772 10.219 4 9.66667 4C9.11438 4 8.66667 4.44772 8.66667 5C8.66667 5.55228 9.11438 6 9.66667 6Z" fill="#777E8B"/>
</svg>
