<svg width="140" height="118" viewBox="0 0 140 118" fill="none" xmlns="http://www.w3.org/2000/svg">
<g clip-path="url(#clip0)">
<path fill-rule="evenodd" clip-rule="evenodd" d="M137.997 32.7476C137.917 33.8283 137.777 34.8926 137.583 35.9374H80.1216C79.9268 34.8926 79.7875 33.8283 79.707 32.7476H137.997ZM82.966 44.1273C82.4252 43.0986 81.9439 42.0338 81.5267 40.9374H136.178C135.76 42.0338 135.279 43.0986 134.738 44.1273H82.966ZM86.2916 49.1273C87.2307 50.2662 88.2544 51.3328 89.3531 52.3174H128.351C129.45 51.3328 130.474 50.2662 131.413 49.1273H86.2916ZM108.852 59.7724C104.675 59.7724 100.703 58.8962 97.1086 57.3174H120.596C117.002 58.8962 113.029 59.7724 108.852 59.7724ZM137.947 27.7476H79.7575C79.8603 26.666 80.0219 25.6015 80.2393 24.5575H137.465C137.682 25.6015 137.844 26.666 137.947 27.7476ZM83.2884 16.3678C82.7177 17.3946 82.207 18.4595 81.7612 19.5575H135.943C135.497 18.4595 134.987 17.3946 134.416 16.3678H83.2884ZM130.908 11.3678H86.7967C87.7933 10.2226 88.8777 9.15579 90.0393 8.17781H127.665C128.827 9.15579 129.911 10.2226 130.908 11.3678ZM108.852 1.31885C112.47 1.31885 115.934 1.97614 119.132 3.17781H98.5725C101.77 1.97614 105.234 1.31885 108.852 1.31885Z" fill="#747E8C"/>
<mask id="path-2-inside-1" fill="white">
<path fill-rule="evenodd" clip-rule="evenodd" d="M57.0549 84.9955C77.5941 84.9955 94.2445 68.3451 94.2445 47.8058C94.2445 27.2666 77.5941 10.6162 57.0549 10.6162C36.5156 10.6162 19.8652 27.2666 19.8652 47.8058C19.8652 68.3451 36.5156 84.9955 57.0549 84.9955ZM56.9056 73.033C70.7679 73.033 82.0055 61.7954 82.0055 47.9331C82.0055 34.0708 70.7679 22.8331 56.9056 22.8331C43.0433 22.8331 31.8057 34.0708 31.8057 47.9331C31.8057 61.7954 43.0433 73.033 56.9056 73.033Z"/>
</mask>
<path fill-rule="evenodd" clip-rule="evenodd" d="M57.0549 84.9955C77.5941 84.9955 94.2445 68.3451 94.2445 47.8058C94.2445 27.2666 77.5941 10.6162 57.0549 10.6162C36.5156 10.6162 19.8652 27.2666 19.8652 47.8058C19.8652 68.3451 36.5156 84.9955 57.0549 84.9955ZM56.9056 73.033C70.7679 73.033 82.0055 61.7954 82.0055 47.9331C82.0055 34.0708 70.7679 22.8331 56.9056 22.8331C43.0433 22.8331 31.8057 34.0708 31.8057 47.9331C31.8057 61.7954 43.0433 73.033 56.9056 73.033Z" fill="#C0C6CF"/>
<path d="M88.2445 47.8058C88.2445 65.0314 74.2804 78.9955 57.0549 78.9955V90.9955C80.9078 90.9955 100.244 71.6588 100.244 47.8058H88.2445ZM57.0549 16.6162C74.2804 16.6162 88.2445 30.5803 88.2445 47.8058H100.244C100.244 23.9529 80.9078 4.61621 57.0549 4.61621V16.6162ZM25.8652 47.8058C25.8652 30.5803 39.8293 16.6162 57.0549 16.6162V4.61621C33.2019 4.61621 13.8652 23.9529 13.8652 47.8058H25.8652ZM57.0549 78.9955C39.8293 78.9955 25.8652 65.0314 25.8652 47.8058H13.8652C13.8652 71.6588 33.2019 90.9955 57.0549 90.9955V78.9955ZM76.0055 47.9331C76.0055 58.4817 67.4542 67.033 56.9056 67.033V79.033C74.0816 79.033 88.0055 65.1091 88.0055 47.9331H76.0055ZM56.9056 28.8331C67.4542 28.8331 76.0055 37.3845 76.0055 47.9331H88.0055C88.0055 30.757 74.0816 16.8331 56.9056 16.8331V28.8331ZM37.8057 47.9331C37.8057 37.3845 46.357 28.8331 56.9056 28.8331V16.8331C39.7296 16.8331 25.8057 30.757 25.8057 47.9331H37.8057ZM56.9056 67.033C46.357 67.033 37.8057 58.4817 37.8057 47.9331H25.8057C25.8057 65.1091 39.7296 79.033 56.9056 79.033V67.033Z" fill="#C0C6CF" mask="url(#path-2-inside-1)"/>
<circle cx="39.5737" cy="78.7239" r="1.25367" fill="#777E8B"/>
<circle cx="44.9949" cy="78.7239" r="1.25367" fill="#777E8B"/>
<circle cx="50.416" cy="78.7239" r="1.25367" fill="#777E8B"/>
<circle cx="39.5737" cy="84.1448" r="1.25367" fill="#777E8B"/>
<circle cx="44.9949" cy="84.1448" r="1.25367" fill="#777E8B"/>
<circle cx="50.416" cy="84.1448" r="1.25367" fill="#777E8B"/>
<circle cx="39.5737" cy="89.1145" r="1.25367" fill="#777E8B"/>
<circle cx="44.9949" cy="89.1145" r="1.25367" fill="#777E8B"/>
<circle cx="50.416" cy="89.1145" r="1.25367" fill="#777E8B"/>
<circle cx="39.5737" cy="94.9646" r="1.25367" fill="#777E8B"/>
<circle cx="44.9949" cy="94.9646" r="1.25367" fill="#777E8B"/>
<circle cx="50.416" cy="94.9646" r="1.25367" fill="#777E8B"/>
<circle cx="39.5737" cy="100.386" r="1.25367" fill="#777E8B"/>
<circle cx="44.9949" cy="100.386" r="1.25367" fill="#777E8B"/>
<circle cx="50.416" cy="100.386" r="1.25367" fill="#777E8B"/>
<circle cx="39.5737" cy="105.807" r="1.25367" fill="#777E8B"/>
<circle cx="44.9949" cy="105.807" r="1.25367" fill="#777E8B"/>
<circle cx="50.416" cy="105.807" r="1.25367" fill="#777E8B"/>
<circle cx="39.5737" cy="111.228" r="1.25367" fill="#777E8B"/>
<circle cx="44.9949" cy="111.228" r="1.25367" fill="#777E8B"/>
<circle cx="50.416" cy="111.228" r="1.25367" fill="#777E8B"/>
<circle cx="39.5737" cy="116.198" r="1.25367" fill="#777E8B"/>
<circle cx="44.9949" cy="116.198" r="1.25367" fill="#777E8B"/>
<circle cx="50.416" cy="116.198" r="1.25367" fill="#777E8B"/>
<mask id="mask0" mask-type="alpha" maskUnits="userSpaceOnUse" x="79" y="1" width="59" height="59">
<path fill-rule="evenodd" clip-rule="evenodd" d="M137.997 32.7476C137.916 33.8283 137.777 34.8926 137.582 35.9374H80.1214C79.9265 34.8926 79.7873 33.8283 79.7068 32.7476H137.997ZM82.9658 44.1273C82.4249 43.0986 81.9436 42.0338 81.5264 40.9374H136.177C135.76 42.0338 135.279 43.0986 134.738 44.1273H82.9658ZM86.2914 49.1273C87.2305 50.2662 88.2542 51.3328 89.3528 52.3174H128.351C129.45 51.3328 130.473 50.2662 131.412 49.1273H86.2914ZM108.852 59.7724C104.675 59.7724 100.702 58.8962 97.1083 57.3174H120.595C117.001 58.8962 113.029 59.7724 108.852 59.7724ZM137.946 27.7476H79.7573C79.86 26.666 80.0217 25.6015 80.2391 24.5575H137.465C137.682 25.6015 137.844 26.666 137.946 27.7476ZM83.2881 16.3678C82.7174 17.3946 82.2068 18.4595 81.761 19.5575H135.943C135.497 18.4595 134.986 17.3946 134.416 16.3678H83.2881ZM130.907 11.3678H86.7965C87.7931 10.2226 88.8774 9.15579 90.039 8.17781H127.665C128.826 9.15579 129.911 10.2226 130.907 11.3678ZM108.852 1.31885C112.47 1.31885 115.934 1.97614 119.131 3.17781H98.5723C101.77 1.97614 105.234 1.31885 108.852 1.31885Z" fill="#777E8B"/>
</mask>
<g mask="url(#mask0)">
<mask id="path-29-inside-2" fill="white">
<path fill-rule="evenodd" clip-rule="evenodd" d="M57.0544 84.9955C77.5936 84.9955 94.244 68.3451 94.244 47.8058C94.244 27.2666 77.5936 10.6162 57.0544 10.6162C36.5151 10.6162 19.8647 27.2666 19.8647 47.8058C19.8647 68.3451 36.5151 84.9955 57.0544 84.9955ZM57.0543 71.7135C70.2581 71.7135 80.9619 61.0097 80.9619 47.8059C80.9619 34.6021 70.2581 23.8983 57.0543 23.8983C43.8505 23.8983 33.1467 34.6021 33.1467 47.8059C33.1467 61.0097 43.8505 71.7135 57.0543 71.7135Z"/>
</mask>
<path fill-rule="evenodd" clip-rule="evenodd" d="M57.0544 84.9955C77.5936 84.9955 94.244 68.3451 94.244 47.8058C94.244 27.2666 77.5936 10.6162 57.0544 10.6162C36.5151 10.6162 19.8647 27.2666 19.8647 47.8058C19.8647 68.3451 36.5151 84.9955 57.0544 84.9955ZM57.0543 71.7135C70.2581 71.7135 80.9619 61.0097 80.9619 47.8059C80.9619 34.6021 70.2581 23.8983 57.0543 23.8983C43.8505 23.8983 33.1467 34.6021 33.1467 47.8059C33.1467 61.0097 43.8505 71.7135 57.0543 71.7135Z" fill="white"/>
<path d="M88.244 47.8058C88.244 65.0314 74.2799 78.9955 57.0544 78.9955V90.9955C80.9073 90.9955 100.244 71.6588 100.244 47.8058H88.244ZM57.0544 16.6162C74.2799 16.6162 88.244 30.5803 88.244 47.8058H100.244C100.244 23.9529 80.9073 4.61621 57.0544 4.61621V16.6162ZM25.8647 47.8058C25.8647 30.5803 39.8288 16.6162 57.0544 16.6162V4.61621C33.2014 4.61621 13.8647 23.9529 13.8647 47.8058H25.8647ZM57.0544 78.9955C39.8288 78.9955 25.8647 65.0314 25.8647 47.8058H13.8647C13.8647 71.6588 33.2014 90.9955 57.0544 90.9955V78.9955ZM74.9619 47.8059C74.9619 57.696 66.9444 65.7135 57.0543 65.7135V77.7135C73.5719 77.7135 86.9619 64.3234 86.9619 47.8059H74.9619ZM57.0543 29.8983C66.9444 29.8983 74.9619 37.9158 74.9619 47.8059H86.9619C86.9619 31.2884 73.5719 17.8983 57.0543 17.8983V29.8983ZM39.1467 47.8059C39.1467 37.9158 47.1642 29.8983 57.0543 29.8983V17.8983C40.5368 17.8983 27.1467 31.2884 27.1467 47.8059H39.1467ZM57.0543 65.7135C47.1642 65.7135 39.1467 57.696 39.1467 47.8059H27.1467C27.1467 64.3234 40.5368 77.7135 57.0543 77.7135V65.7135Z" fill="white" mask="url(#path-29-inside-2)"/>
</g>
<rect x="66.3523" y="78.3623" width="13.282" height="33.205" rx="1" transform="rotate(-30.0378 66.3523 78.3623)" fill="#C0C6CF"/>
<rect x="2" y="93" width="14" height="24" fill="#777E8B"/>
<mask id="mask1" mask-type="alpha" maskUnits="userSpaceOnUse" x="21" y="67" width="13" height="51">
<path fill-rule="evenodd" clip-rule="evenodd" d="M31.983 67.0003L29.0157 67.0003L34.0001 70.736L34.0001 68.5121L31.983 67.0003ZM34.0001 72.7722L26.2989 67.0003L23.3316 67.0003L34.0001 74.9961L34.0001 72.7722ZM34.0001 77.0324L21.0001 67.2891L21.0001 69.5131L34.0001 79.2564L34.0001 77.0324ZM34.0001 81.2925L21.0001 71.5492L21.0001 73.7731L34.0001 83.5164L34.0001 81.2925ZM34.0001 85.5525L21.0001 75.8092L21.0001 78.0332L34.0001 87.7764L34.0001 85.5525ZM34.0001 89.8128L21.0001 80.0696L21.0001 82.2935L34.0001 92.0368L34.0001 89.8128ZM34.0001 94.0731L21.0001 84.3298L21.0001 86.5537L34.0001 96.297L34.0001 94.0731ZM34.0001 98.3333L21.0001 88.59L21.0001 90.814L34.0001 100.557L34.0001 98.3333ZM34.0001 102.593L21.0001 92.8501L21.0001 95.0741L34.0001 104.817L34.0001 102.593ZM34.0001 106.854L21.0001 97.1103L21.0001 99.3342L34.0001 109.077L34.0001 106.854ZM34.0001 111.114L21.0001 101.371L21.0001 103.595L34.0001 113.338L34.0001 111.114ZM34.0001 115.374L21.0001 105.631L21.0001 107.855L33.2028 117L34.0001 117L34.0001 115.374ZM30.4859 117L21.0001 109.891L21.0001 112.115L27.5186 117L30.4859 117ZM24.8019 117L21.0001 114.151L21.0001 116.375L21.8346 117L24.8019 117Z" fill="#C4C4C4"/>
</mask>
<g mask="url(#mask1)">
<rect x="20.7366" y="67.4692" width="12.9609" height="49.5599" fill="#777E8B"/>
</g>
</g>
<defs>
<clipPath id="clip0">
<rect width="140" height="118" fill="white"/>
</clipPath>
</defs>
</svg>
