<svg width="48" height="48" viewBox="0 0 48 48" fill="none" xmlns="http://www.w3.org/2000/svg">
<path d="M28.7518 28.5989C28.7518 28.8699 28.5323 29.0896 28.2615 29.0896C27.9907 29.0896 27.7712 28.8699 27.7712 28.5989C27.7712 28.3279 27.9907 28.1082 28.2615 28.1082C28.5323 28.1082 28.7518 28.3279 28.7518 28.5989Z" fill="#777E8B"/>
<path d="M30.8721 28.597C30.8721 28.8681 30.6526 29.0878 30.3819 29.0878C30.1111 29.0878 29.8916 28.8681 29.8916 28.597C29.8916 28.326 30.1111 28.1063 30.3819 28.1063C30.6526 28.1063 30.8721 28.326 30.8721 28.597Z" fill="#777E8B"/>
<path d="M32.992 28.597C32.992 28.8681 32.7725 29.0878 32.5017 29.0878C32.231 29.0878 32.0115 28.8681 32.0115 28.597C32.0115 28.326 32.231 28.1063 32.5017 28.1063C32.7725 28.1063 32.992 28.326 32.992 28.597Z" fill="#777E8B"/>
<path d="M35.1121 28.597C35.1121 28.8681 34.8926 29.0878 34.6219 29.0878C34.3511 29.0878 34.1316 28.8681 34.1316 28.597C34.1316 28.326 34.3511 28.1063 34.6219 28.1063C34.8926 28.1063 35.1121 28.326 35.1121 28.597Z" fill="#777E8B"/>
<path d="M37.2322 28.597C37.2322 28.8681 37.0127 29.0878 36.742 29.0878C36.4712 29.0878 36.2517 28.8681 36.2517 28.597C36.2517 28.326 36.4712 28.1063 36.742 28.1063C37.0127 28.1063 37.2322 28.326 37.2322 28.597Z" fill="#777E8B"/>
<path d="M28.752 30.7189C28.752 30.9899 28.5325 31.2096 28.2617 31.2096C27.991 31.2096 27.7715 30.9899 27.7715 30.7189C27.7715 30.4479 27.991 30.2281 28.2617 30.2281C28.5325 30.2281 28.752 30.4479 28.752 30.7189Z" fill="#777E8B"/>
<path d="M30.8721 30.7189C30.8721 30.9899 30.6526 31.2096 30.3819 31.2096C30.1111 31.2096 29.8916 30.9899 29.8916 30.7189C29.8916 30.4479 30.1111 30.2281 30.3819 30.2281C30.6526 30.2281 30.8721 30.4479 30.8721 30.7189Z" fill="#777E8B"/>
<path d="M32.992 30.7189C32.992 30.9899 32.7725 31.2096 32.5017 31.2096C32.231 31.2096 32.0115 30.9899 32.0115 30.7189C32.0115 30.4479 32.231 30.2281 32.5017 30.2281C32.7725 30.2281 32.992 30.4479 32.992 30.7189Z" fill="#777E8B"/>
<path d="M35.1121 30.7189C35.1121 30.9899 34.8926 31.2096 34.6219 31.2096C34.3511 31.2096 34.1316 30.9899 34.1316 30.7189C34.1316 30.4479 34.3511 30.2281 34.6219 30.2281C34.8926 30.2281 35.1121 30.4479 35.1121 30.7189Z" fill="#777E8B"/>
<path d="M28.752 32.8411C28.752 33.1121 28.5325 33.3318 28.2617 33.3318C27.991 33.3318 27.7715 33.1121 27.7715 32.8411C27.7715 32.57 27.991 32.3503 28.2617 32.3503C28.5325 32.3503 28.752 32.57 28.752 32.8411Z" fill="#777E8B"/>
<path d="M30.8721 32.8411C30.8721 33.1121 30.6526 33.3318 30.3819 33.3318C30.1111 33.3318 29.8916 33.1121 29.8916 32.8411C29.8916 32.57 30.1111 32.3503 30.3819 32.3503C30.6526 32.3503 30.8721 32.57 30.8721 32.8411Z" fill="#777E8B"/>
<path d="M32.992 32.8411C32.992 33.1121 32.7725 33.3318 32.5017 33.3318C32.231 33.3318 32.0115 33.1121 32.0115 32.8411C32.0115 32.57 32.231 32.3503 32.5017 32.3503C32.7725 32.3503 32.992 32.57 32.992 32.8411Z" fill="#777E8B"/>
<path d="M35.1121 32.8411C35.1121 33.1121 34.8926 33.3318 34.6219 33.3318C34.3511 33.3318 34.1316 33.1121 34.1316 32.8411C34.1316 32.57 34.3511 32.3503 34.6219 32.3503C34.8926 32.3503 35.1121 32.57 35.1121 32.8411Z" fill="#777E8B"/>
<path d="M28.752 34.963C28.752 35.234 28.5325 35.4537 28.2617 35.4537C27.991 35.4537 27.7715 35.234 27.7715 34.963C27.7715 34.692 27.991 34.4723 28.2617 34.4723C28.5325 34.4723 28.752 34.692 28.752 34.963Z" fill="#777E8B"/>
<path d="M30.8721 34.963C30.8721 35.234 30.6526 35.4537 30.3819 35.4537C30.1111 35.4537 29.8916 35.234 29.8916 34.963C29.8916 34.692 30.1111 34.4723 30.3819 34.4723C30.6526 34.4723 30.8721 34.692 30.8721 34.963Z" fill="#777E8B"/>
<path d="M32.992 34.963C32.992 35.234 32.7725 35.4537 32.5017 35.4537C32.231 35.4537 32.0115 35.234 32.0115 34.963C32.0115 34.692 32.231 34.4723 32.5017 34.4723C32.7725 34.4723 32.992 34.692 32.992 34.963Z" fill="#777E8B"/>
<path d="M35.1121 34.963C35.1121 35.234 34.8926 35.4537 34.6219 35.4537C34.3511 35.4537 34.1316 35.234 34.1316 34.963C34.1316 34.692 34.3511 34.4723 34.6219 34.4723C34.8926 34.4723 35.1121 34.692 35.1121 34.963Z" fill="#777E8B"/>
<path d="M28.752 36.9081C28.752 37.1791 28.5325 37.3988 28.2617 37.3988C27.991 37.3988 27.7715 37.1791 27.7715 36.9081C27.7715 36.6371 27.991 36.4174 28.2617 36.4174C28.5325 36.4174 28.752 36.6371 28.752 36.9081Z" fill="#777E8B"/>
<path d="M30.8721 36.9081C30.8721 37.1791 30.6526 37.3988 30.3819 37.3988C30.1111 37.3988 29.8916 37.1791 29.8916 36.9081C29.8916 36.6371 30.1111 36.4174 30.3819 36.4174C30.6526 36.4174 30.8721 36.6371 30.8721 36.9081Z" fill="#777E8B"/>
<path d="M32.992 36.9081C32.992 37.1791 32.7725 37.3988 32.5017 37.3988C32.231 37.3988 32.0115 37.1791 32.0115 36.9081C32.0115 36.6371 32.231 36.4174 32.5017 36.4174C32.7725 36.4174 32.992 36.6371 32.992 36.9081Z" fill="#777E8B"/>
<path d="M35.1121 36.9081C35.1121 37.1791 34.8926 37.3988 34.6219 37.3988C34.3511 37.3988 34.1316 37.1791 34.1316 36.9081C34.1316 36.6371 34.3511 36.4174 34.6219 36.4174C34.8926 36.4174 35.1121 36.6371 35.1121 36.9081Z" fill="#777E8B"/>
<path d="M28.752 39.1986C28.752 39.4696 28.5325 39.6893 28.2617 39.6893C27.991 39.6893 27.7715 39.4696 27.7715 39.1986C27.7715 38.9276 27.991 38.7079 28.2617 38.7079C28.5325 38.7079 28.752 38.9276 28.752 39.1986Z" fill="#777E8B"/>
<path d="M30.8724 39.1981C30.8724 39.4691 30.6529 39.6888 30.3821 39.6888C30.1113 39.6888 29.8918 39.4691 29.8918 39.1981C29.8918 38.9271 30.1113 38.7074 30.3821 38.7074C30.6529 38.7074 30.8724 38.9271 30.8724 39.1981Z" fill="#777E8B"/>
<path d="M32.9922 39.1981C32.9922 39.4691 32.7727 39.6888 32.502 39.6888C32.2312 39.6888 32.0117 39.4691 32.0117 39.1981C32.0117 38.9271 32.2312 38.7074 32.502 38.7074C32.7727 38.7074 32.9922 38.9271 32.9922 39.1981Z" fill="#777E8B"/>
<path d="M35.1124 39.1981C35.1124 39.4691 34.8929 39.6888 34.6221 39.6888C34.3513 39.6888 34.1318 39.4691 34.1318 39.1981C34.1318 38.9271 34.3513 38.7074 34.6221 38.7074C34.8929 38.7074 35.1124 38.9271 35.1124 39.1981Z" fill="#777E8B"/>
<path d="M28.7523 41.3199C28.7523 41.591 28.5328 41.8107 28.262 41.8107C27.9912 41.8107 27.7717 41.591 27.7717 41.3199C27.7717 41.0489 27.9912 40.8292 28.262 40.8292C28.5328 40.8292 28.7523 41.0489 28.7523 41.3199Z" fill="#777E8B"/>
<path d="M28.7523 43.4421C28.7523 43.7132 28.5328 43.9329 28.262 43.9329C27.9912 43.9329 27.7717 43.7132 27.7717 43.4421C27.7717 43.1711 27.9912 42.9514 28.262 42.9514C28.5328 42.9514 28.7523 43.1711 28.7523 43.4421Z" fill="#777E8B"/>
<path d="M28.7523 45.5641C28.7523 45.8351 28.5328 46.0548 28.262 46.0548C27.9912 46.0548 27.7717 45.8351 27.7717 45.5641C27.7717 45.2931 27.9912 45.0734 28.262 45.0734C28.5328 45.0734 28.7523 45.2931 28.7523 45.5641Z" fill="#777E8B"/>
<path d="M28.7523 47.5093C28.7523 47.7803 28.5328 48 28.262 48C27.9912 48 27.7717 47.7803 27.7717 47.5093C27.7717 47.2383 27.9912 47.0186 28.262 47.0186C28.5328 47.0186 28.7523 47.2383 28.7523 47.5093Z" fill="#777E8B"/>
<path d="M30.8724 47.5093C30.8724 47.7803 30.6529 48 30.3821 48C30.1113 48 29.8918 47.7803 29.8918 47.5093C29.8918 47.2383 30.1113 47.0186 30.3821 47.0186C30.6529 47.0186 30.8724 47.2383 30.8724 47.5093Z" fill="#777E8B"/>
<path d="M32.9922 47.5093C32.9922 47.7803 32.7727 48 32.502 48C32.2312 48 32.0117 47.7803 32.0117 47.5093C32.0117 47.2383 32.2312 47.0186 32.502 47.0186C32.7727 47.0186 32.9922 47.2383 32.9922 47.5093Z" fill="#777E8B"/>
<path d="M35.1124 47.5093C35.1124 47.7803 34.8929 48 34.6221 48C34.3513 48 34.1318 47.7803 34.1318 47.5093C34.1318 47.2383 34.3513 47.0186 34.6221 47.0186C34.8929 47.0186 35.1124 47.2383 35.1124 47.5093Z" fill="#777E8B"/>
<path d="M37.2325 47.5093C37.2325 47.7803 37.013 48 36.7422 48C36.4715 48 36.252 47.7803 36.252 47.5093C36.252 47.2383 36.4715 47.0186 36.7422 47.0186C37.013 47.0186 37.2325 47.2383 37.2325 47.5093Z" fill="#777E8B"/>
<path d="M39.5201 28.5975C39.5201 28.8686 39.3006 29.0883 39.0298 29.0883C38.759 29.0883 38.5396 28.8686 38.5396 28.5975C38.5396 28.3265 38.759 28.1068 39.0298 28.1068C39.3006 28.1068 39.5201 28.3265 39.5201 28.5975Z" fill="#777E8B"/>
<path d="M41.6397 28.597C41.6397 28.8681 41.4202 29.0878 41.1494 29.0878C40.8787 29.0878 40.6592 28.8681 40.6592 28.597C40.6592 28.326 40.8787 28.1063 41.1494 28.1063C41.4202 28.1063 41.6397 28.326 41.6397 28.597Z" fill="#777E8B"/>
<path d="M43.7598 28.597C43.7598 28.8681 43.5403 29.0878 43.2696 29.0878C42.9988 29.0878 42.7793 28.8681 42.7793 28.597C42.7793 28.326 42.9988 28.1063 43.2696 28.1063C43.5403 28.1063 43.7598 28.326 43.7598 28.597Z" fill="#777E8B"/>
<path d="M45.8799 28.597C45.8799 28.8681 45.6604 29.0878 45.3897 29.0878C45.1189 29.0878 44.8994 28.8681 44.8994 28.597C44.8994 28.326 45.1189 28.1063 45.3897 28.1063C45.6604 28.1063 45.8799 28.326 45.8799 28.597Z" fill="#777E8B"/>
<path d="M47.9998 28.597C47.9998 28.8681 47.7803 29.0878 47.5096 29.0878C47.2388 29.0878 47.0193 28.8681 47.0193 28.597C47.0193 28.326 47.2388 28.1063 47.5096 28.1063C47.7803 28.1063 47.9998 28.326 47.9998 28.597Z" fill="#777E8B"/>
<path d="M47.9998 30.7189C47.9998 30.9899 47.7803 31.2096 47.5096 31.2096C47.2388 31.2096 47.0193 30.9899 47.0193 30.7189C47.0193 30.4479 47.2388 30.2281 47.5096 30.2281C47.7803 30.2281 47.9998 30.4479 47.9998 30.7189Z" fill="#777E8B"/>
<path d="M47.9998 32.8411C47.9998 33.1121 47.7803 33.3318 47.5096 33.3318C47.2388 33.3318 47.0193 33.1121 47.0193 32.8411C47.0193 32.57 47.2388 32.3503 47.5096 32.3503C47.7803 32.3503 47.9998 32.57 47.9998 32.8411Z" fill="#777E8B"/>
<path d="M47.9998 34.963C47.9998 35.234 47.7803 35.4537 47.5096 35.4537C47.2388 35.4537 47.0193 35.234 47.0193 34.963C47.0193 34.692 47.2388 34.4723 47.5096 34.4723C47.7803 34.4723 47.9998 34.692 47.9998 34.963Z" fill="#777E8B"/>
<path d="M47.9998 36.9081C47.9998 37.1791 47.7803 37.3988 47.5096 37.3988C47.2388 37.3988 47.0193 37.1791 47.0193 36.9081C47.0193 36.6371 47.2388 36.4174 47.5096 36.4174C47.7803 36.4174 47.9998 36.6371 47.9998 36.9081Z" fill="#777E8B"/>
<path d="M47.9998 39.1981C47.9998 39.4691 47.7803 39.6888 47.5096 39.6888C47.2388 39.6888 47.0193 39.4691 47.0193 39.1981C47.0193 38.9271 47.2388 38.7074 47.5096 38.7074C47.7803 38.7074 47.9998 38.9271 47.9998 39.1981Z" fill="#777E8B"/>
<path d="M47.9998 41.3199C47.9998 41.591 47.7803 41.8107 47.5096 41.8107C47.2388 41.8107 47.0193 41.591 47.0193 41.3199C47.0193 41.0489 47.2388 40.8292 47.5096 40.8292C47.7803 40.8292 47.9998 41.0489 47.9998 41.3199Z" fill="#777E8B"/>
<path d="M47.9998 43.4421C47.9998 43.7132 47.7803 43.9329 47.5096 43.9329C47.2388 43.9329 47.0193 43.7132 47.0193 43.4421C47.0193 43.1711 47.2388 42.9514 47.5096 42.9514C47.7803 42.9514 47.9998 43.1711 47.9998 43.4421Z" fill="#777E8B"/>
<path d="M47.9998 45.5641C47.9998 45.8351 47.7803 46.0548 47.5096 46.0548C47.2388 46.0548 47.0193 45.8351 47.0193 45.5641C47.0193 45.2931 47.2388 45.0734 47.5096 45.0734C47.7803 45.0734 47.9998 45.2931 47.9998 45.5641Z" fill="#777E8B"/>
<path d="M39.5198 47.5093C39.5198 47.7803 39.3003 48 39.0296 48C38.7588 48 38.5393 47.7803 38.5393 47.5093C38.5393 47.2383 38.7588 47.0186 39.0296 47.0186C39.3003 47.0186 39.5198 47.2383 39.5198 47.5093Z" fill="#777E8B"/>
<path d="M41.6395 47.5093C41.6395 47.7803 41.42 48 41.1492 48C40.8784 48 40.6589 47.7803 40.6589 47.5093C40.6589 47.2383 40.8784 47.0186 41.1492 47.0186C41.42 47.0186 41.6395 47.2383 41.6395 47.5093Z" fill="#777E8B"/>
<path d="M43.7598 47.5093C43.7598 47.7803 43.5403 48 43.2696 48C42.9988 48 42.7793 47.7803 42.7793 47.5093C42.7793 47.2383 42.9988 47.0186 43.2696 47.0186C43.5403 47.0186 43.7598 47.2383 43.7598 47.5093Z" fill="#777E8B"/>
<path d="M45.8799 47.5093C45.8799 47.7803 45.6604 48 45.3897 48C45.1189 48 44.8994 47.7803 44.8994 47.5093C44.8994 47.2383 45.1189 47.0186 45.3897 47.0186C45.6604 47.0186 45.8799 47.2383 45.8799 47.5093Z" fill="#777E8B"/>
<path d="M47.9998 47.5093C47.9998 47.7803 47.7803 48 47.5096 48C47.2388 48 47.0193 47.7803 47.0193 47.5093C47.0193 47.2383 47.2388 47.0186 47.5096 47.0186C47.7803 47.0186 47.9998 47.2383 47.9998 47.5093Z" fill="#777E8B"/>
<path d="M9.68774 12.8698C9.68774 11.4744 10.8179 10.3433 12.2119 10.3433H37.4536C38.8477 10.3433 39.9778 11.4744 39.9778 12.8698V38.135C39.9778 39.5304 38.8477 40.6616 37.4536 40.6616H12.2119C10.8179 40.6616 9.68774 39.5304 9.68774 38.135V12.8698Z" fill="#C0C6CF"/>
<path d="M24.0003 17.5247H26.4003V34.3246H24.0003V17.5247Z" fill="white"/>
<path d="M16.8003 27.1246V24.7246H33.6003V27.1246H16.8003Z" fill="white"/>
<path fill-rule="evenodd" clip-rule="evenodd" d="M19.3753 10.3704C19.3479 10.7681 19.2966 11.1593 19.2227 11.5424H0.152622C0.0786873 11.1593 0.0273341 10.7681 0 10.3704H19.3753ZM1.11706 14.2596C0.915593 13.883 0.738284 13.4917 0.587201 13.0875H18.7881C18.637 13.4917 18.4597 13.883 18.2582 14.2596H1.11706ZM2.14524 15.8047C2.48794 16.2262 2.86534 16.6183 3.27311 16.9768H16.1022C16.5099 16.6183 16.8873 16.2262 17.23 15.8047H2.14524ZM9.68764 19.3934C8.25035 19.3934 6.88599 19.0816 5.65871 18.522H13.7166C12.4893 19.0816 11.1249 19.3934 9.68764 19.3934ZM19.3597 8.82522H0.0156136C0.0511247 8.42711 0.11073 8.03593 0.192964 7.65313H19.1823C19.2645 8.03593 19.3242 8.42711 19.3597 8.82522ZM18.7116 6.10797H0.663672C0.825265 5.70316 1.01338 5.31179 1.22589 4.93598H18.1494C18.3619 5.31179 18.55 5.70316 18.7116 6.10797ZM17.0648 3.39082C16.701 2.96683 16.3011 2.57457 15.87 2.21877H3.50525C3.07413 2.57457 2.6743 2.96683 2.31049 3.39082H17.0648ZM13.2509 0.673608H6.12439C7.22761 0.238849 8.42969 0 9.68764 0C10.9456 0 12.1477 0.238849 13.2509 0.673608Z" fill="#777E8B"/>
</svg>
