<svg width="84" height="79" viewBox="0 0 84 79" fill="none" xmlns="http://www.w3.org/2000/svg">
<circle cx="82.4074" cy="39.9439" r="0.943889" transform="rotate(90 82.4074 39.9439)" fill="#777E8B"/>
<circle cx="82.4074" cy="44.0254" r="0.943889" transform="rotate(90 82.4074 44.0254)" fill="#777E8B"/>
<circle cx="82.4074" cy="48.1072" r="0.943889" transform="rotate(90 82.4074 48.1072)" fill="#777E8B"/>
<circle cx="82.4074" cy="52.1888" r="0.943889" transform="rotate(90 82.4074 52.1888)" fill="#777E8B"/>
<circle cx="82.4074" cy="56.2703" r="0.943889" transform="rotate(90 82.4074 56.2703)" fill="#777E8B"/>
<circle cx="78.3258" cy="39.9439" r="0.943889" transform="rotate(90 78.3258 39.9439)" fill="#777E8B"/>
<circle cx="78.3258" cy="44.0254" r="0.943889" transform="rotate(90 78.3258 44.0254)" fill="#777E8B"/>
<circle cx="78.3258" cy="48.1072" r="0.943889" transform="rotate(90 78.3258 48.1072)" fill="#777E8B"/>
<circle cx="78.3258" cy="52.1888" r="0.943889" transform="rotate(90 78.3258 52.1888)" fill="#777E8B"/>
<circle cx="78.3258" cy="56.2703" r="0.943889" transform="rotate(90 78.3258 56.2703)" fill="#777E8B"/>
<circle cx="74.2442" cy="39.9439" r="0.943889" transform="rotate(90 74.2442 39.9439)" fill="#777E8B"/>
<circle cx="74.2442" cy="44.0254" r="0.943889" transform="rotate(90 74.2442 44.0254)" fill="#777E8B"/>
<circle cx="74.2442" cy="48.1072" r="0.943889" transform="rotate(90 74.2442 48.1072)" fill="#777E8B"/>
<circle cx="74.2442" cy="52.1888" r="0.943889" transform="rotate(90 74.2442 52.1888)" fill="#777E8B"/>
<circle cx="74.2442" cy="56.2703" r="0.943889" transform="rotate(90 74.2442 56.2703)" fill="#777E8B"/>
<circle cx="70.1626" cy="39.9439" r="0.943889" transform="rotate(90 70.1626 39.9439)" fill="#777E8B"/>
<circle cx="70.1626" cy="44.0254" r="0.943889" transform="rotate(90 70.1626 44.0254)" fill="#777E8B"/>
<circle cx="70.1626" cy="48.1072" r="0.943889" transform="rotate(90 70.1626 48.1072)" fill="#777E8B"/>
<circle cx="70.1626" cy="52.1888" r="0.943889" transform="rotate(90 70.1626 52.1888)" fill="#777E8B"/>
<circle cx="70.1626" cy="56.2703" r="0.943889" transform="rotate(90 70.1626 56.2703)" fill="#777E8B"/>
<circle cx="66.426" cy="39.9439" r="0.943889" transform="rotate(90 66.426 39.9439)" fill="#777E8B"/>
<circle cx="66.426" cy="44.0254" r="0.943889" transform="rotate(90 66.426 44.0254)" fill="#777E8B"/>
<circle cx="66.426" cy="48.107" r="0.943889" transform="rotate(90 66.426 48.107)" fill="#777E8B"/>
<circle cx="66.426" cy="52.1888" r="0.943889" transform="rotate(90 66.426 52.1888)" fill="#777E8B"/>
<circle cx="66.426" cy="56.2705" r="0.943889" transform="rotate(90 66.426 56.2705)" fill="#777E8B"/>
<circle cx="62.5744" cy="39.9439" r="0.943889" transform="rotate(90 62.5744 39.9439)" fill="#777E8B"/>
<circle cx="62.5744" cy="44.0254" r="0.943889" transform="rotate(90 62.5744 44.0254)" fill="#777E8B"/>
<circle cx="62.5744" cy="48.1072" r="0.943889" transform="rotate(90 62.5744 48.1072)" fill="#777E8B"/>
<circle cx="62.5744" cy="52.1888" r="0.943889" transform="rotate(90 62.5744 52.1888)" fill="#777E8B"/>
<circle cx="62.5744" cy="56.2703" r="0.943889" transform="rotate(90 62.5744 56.2703)" fill="#777E8B"/>
<circle cx="58.4928" cy="39.9439" r="0.943889" transform="rotate(90 58.4928 39.9439)" fill="#777E8B"/>
<circle cx="58.4928" cy="44.0254" r="0.943889" transform="rotate(90 58.4928 44.0254)" fill="#777E8B"/>
<circle cx="58.4928" cy="48.1072" r="0.943889" transform="rotate(90 58.4928 48.1072)" fill="#777E8B"/>
<circle cx="58.4928" cy="52.1888" r="0.943889" transform="rotate(90 58.4928 52.1888)" fill="#777E8B"/>
<circle cx="58.4928" cy="56.2703" r="0.943889" transform="rotate(90 58.4928 56.2703)" fill="#777E8B"/>
<circle cx="54.4112" cy="39.9439" r="0.943889" transform="rotate(90 54.4112 39.9439)" fill="#777E8B"/>
<circle cx="54.4112" cy="44.0254" r="0.943889" transform="rotate(90 54.4112 44.0254)" fill="#777E8B"/>
<circle cx="54.4112" cy="48.1072" r="0.943889" transform="rotate(90 54.4112 48.1072)" fill="#777E8B"/>
<circle cx="54.4112" cy="52.1888" r="0.943889" transform="rotate(90 54.4112 52.1888)" fill="#777E8B"/>
<circle cx="54.4112" cy="56.2703" r="0.943889" transform="rotate(90 54.4112 56.2703)" fill="#777E8B"/>
<circle cx="62.6302" cy="65.3028" r="0.943889" transform="rotate(90 62.6302 65.3028)" fill="#777E8B"/>
<circle cx="62.6302" cy="69.3843" r="0.943889" transform="rotate(90 62.6302 69.3843)" fill="#777E8B"/>
<circle cx="62.6302" cy="73.4661" r="0.943889" transform="rotate(90 62.6302 73.4661)" fill="#777E8B"/>
<circle cx="62.6302" cy="77.5476" r="0.943889" transform="rotate(90 62.6302 77.5476)" fill="#777E8B"/>
<circle cx="58.5486" cy="65.3028" r="0.943889" transform="rotate(90 58.5486 65.3028)" fill="#777E8B"/>
<circle cx="58.5486" cy="69.3843" r="0.943889" transform="rotate(90 58.5486 69.3843)" fill="#777E8B"/>
<circle cx="58.5486" cy="73.4661" r="0.943889" transform="rotate(90 58.5486 73.4661)" fill="#777E8B"/>
<circle cx="58.5486" cy="77.5476" r="0.943889" transform="rotate(90 58.5486 77.5476)" fill="#777E8B"/>
<circle cx="54.4669" cy="65.3028" r="0.943889" transform="rotate(90 54.4669 65.3028)" fill="#777E8B"/>
<circle cx="54.4669" cy="69.3843" r="0.943889" transform="rotate(90 54.4669 69.3843)" fill="#777E8B"/>
<circle cx="54.4669" cy="73.4661" r="0.943889" transform="rotate(90 54.4669 73.4661)" fill="#777E8B"/>
<circle cx="54.4669" cy="77.5476" r="0.943889" transform="rotate(90 54.4669 77.5476)" fill="#777E8B"/>
<circle cx="50.3853" cy="65.3028" r="0.943889" transform="rotate(90 50.3853 65.3028)" fill="#777E8B"/>
<circle cx="50.3853" cy="69.3843" r="0.943889" transform="rotate(90 50.3853 69.3843)" fill="#777E8B"/>
<circle cx="50.3853" cy="73.4661" r="0.943889" transform="rotate(90 50.3853 73.4661)" fill="#777E8B"/>
<circle cx="50.3853" cy="77.5476" r="0.943889" transform="rotate(90 50.3853 77.5476)" fill="#777E8B"/>
<circle cx="46.6439" cy="65.3028" r="0.943889" transform="rotate(90 46.6439 65.3028)" fill="#777E8B"/>
<circle cx="46.6439" cy="69.3843" r="0.943889" transform="rotate(90 46.6439 69.3843)" fill="#777E8B"/>
<circle cx="46.6439" cy="73.4661" r="0.943889" transform="rotate(90 46.6439 73.4661)" fill="#777E8B"/>
<circle cx="46.6439" cy="77.5476" r="0.943889" transform="rotate(90 46.6439 77.5476)" fill="#777E8B"/>
<circle cx="82.4074" cy="61.1582" r="0.943889" transform="rotate(90 82.4074 61.1582)" fill="#777E8B"/>
<circle cx="82.4074" cy="65.2398" r="0.943889" transform="rotate(90 82.4074 65.2398)" fill="#777E8B"/>
<circle cx="82.4074" cy="69.3216" r="0.943889" transform="rotate(90 82.4074 69.3216)" fill="#777E8B"/>
<circle cx="82.4074" cy="73.4031" r="0.943889" transform="rotate(90 82.4074 73.4031)" fill="#777E8B"/>
<circle cx="82.4074" cy="77.4847" r="0.943889" transform="rotate(90 82.4074 77.4847)" fill="#777E8B"/>
<circle cx="78.3258" cy="61.1582" r="0.943889" transform="rotate(90 78.3258 61.1582)" fill="#777E8B"/>
<circle cx="78.3258" cy="65.2398" r="0.943889" transform="rotate(90 78.3258 65.2398)" fill="#777E8B"/>
<circle cx="78.3258" cy="69.3216" r="0.943889" transform="rotate(90 78.3258 69.3216)" fill="#777E8B"/>
<circle cx="78.3258" cy="73.4031" r="0.943889" transform="rotate(90 78.3258 73.4031)" fill="#777E8B"/>
<circle cx="78.3258" cy="77.4847" r="0.943889" transform="rotate(90 78.3258 77.4847)" fill="#777E8B"/>
<circle cx="74.2442" cy="61.1582" r="0.943889" transform="rotate(90 74.2442 61.1582)" fill="#777E8B"/>
<circle cx="74.2442" cy="65.2398" r="0.943889" transform="rotate(90 74.2442 65.2398)" fill="#777E8B"/>
<circle cx="74.2442" cy="69.3216" r="0.943889" transform="rotate(90 74.2442 69.3216)" fill="#777E8B"/>
<circle cx="74.2442" cy="73.4031" r="0.943889" transform="rotate(90 74.2442 73.4031)" fill="#777E8B"/>
<circle cx="74.2442" cy="77.4847" r="0.943889" transform="rotate(90 74.2442 77.4847)" fill="#777E8B"/>
<circle cx="70.1626" cy="61.1582" r="0.943889" transform="rotate(90 70.1626 61.1582)" fill="#777E8B"/>
<circle cx="70.1626" cy="65.2398" r="0.943889" transform="rotate(90 70.1626 65.2398)" fill="#777E8B"/>
<circle cx="70.1626" cy="69.3216" r="0.943889" transform="rotate(90 70.1626 69.3216)" fill="#777E8B"/>
<circle cx="70.1626" cy="73.4031" r="0.943889" transform="rotate(90 70.1626 73.4031)" fill="#777E8B"/>
<circle cx="70.1626" cy="77.4847" r="0.943889" transform="rotate(90 70.1626 77.4847)" fill="#777E8B"/>
<circle cx="66.4211" cy="65.2398" r="0.943889" transform="rotate(90 66.4211 65.2398)" fill="#777E8B"/>
<circle cx="66.4211" cy="69.3216" r="0.943889" transform="rotate(90 66.4211 69.3216)" fill="#777E8B"/>
<circle cx="66.4211" cy="73.4031" r="0.943889" transform="rotate(90 66.4211 73.4031)" fill="#777E8B"/>
<circle cx="66.4211" cy="77.4847" r="0.943889" transform="rotate(90 66.4211 77.4847)" fill="#777E8B"/>
<rect x="15" y="10.8501" width="52.5667" height="51.1833" fill="#C0C6CF"/>
<path d="M0 2H35" stroke="#777E8B" stroke-width="3.5"/>
<path d="M0 9H35" stroke="#777E8B" stroke-width="3.5"/>
<path d="M0 16H35" stroke="#777E8B" stroke-width="3.5"/>
<path d="M0 23H35" stroke="#777E8B" stroke-width="3.5"/>
<path d="M0 30H35" stroke="#777E8B" stroke-width="3.5"/>
<path d="M15 16H35" stroke="white" stroke-width="3.5"/>
<path d="M15 23H35" stroke="white" stroke-width="3.5"/>
<path d="M15 30H35" stroke="white" stroke-width="3.5"/>
</svg>
