<?xml version="1.0" encoding="UTF-8"?>
<svg focusable="false" width="20px" height="20px" viewBox="0 0 20 20" version="1.1" xmlns="http://www.w3.org/2000/svg" xmlns:xlink="http://www.w3.org/1999/xlink">
    <!-- Generator: Sketch 49 (51002) - http://www.bohemiancoding.com/sketch -->
    <title>searchIcon</title>
    <desc>Created with Sketch.</desc>
    <defs></defs>
    <g id="Flow-for-Invision" stroke="none" stroke-width="1" fill="none" fill-rule="evenodd">
        <g id="01" transform="translate(-107.000000, -291.000000)" fill="#999999">
            <g id="Group-19" transform="translate(82.000000, 131.000000)">
                <g id="Search-Bar" transform="translate(0.000000, 146.000000)">
                    <path d="M33.4146694,29.2851907 C29.4824056,29.2851907 26.2947088,26.1531332 26.2947088,22.2833856 C26.2947088,18.4136379 29.4824056,15.2753288 33.4146694,15.2753288 C37.3469332,15.2753288 40.5352552,18.4136379 40.5352552,22.2833856 C40.5352552,26.1531332 37.3469332,29.2851907 33.4146694,29.2851907 L33.4146694,29.2851907 Z M44.8101073,32.9111255 L39.6469012,27.8285652 C40.9984996,26.3594364 41.8293388,24.4214368 41.8293388,22.2833856 C41.8293388,17.7072058 38.0621176,14 33.4146694,14 C28.7672212,14 25,17.7072058 25,22.2833856 C25,26.8533137 28.7672212,30.5605195 33.4146694,30.5605195 C35.4226871,30.5605195 37.2644119,29.8665906 38.7110349,28.7100424 L43.8948713,33.8113576 C44.1480616,34.0614221 44.5575422,34.0614221 44.8101073,33.8113576 C45.0632976,33.5675448 45.0632976,33.16119 44.8101073,32.9111255 L44.8101073,32.9111255 Z" id="searchIcon"></path>
                </g>
            </g>
        </g>
    </g>
</svg>