<svg width="192" height="120" viewBox="0 0 192 120" fill="none" xmlns="http://www.w3.org/2000/svg">
<rect width="192" height="120" rx="8" fill="#369FAA"/>
<path d="M80.9121 63.6324C81.4644 62.6759 82.6876 62.3481 83.6442 62.9004L96.6429 70.4052C97.5995 70.9575 97.9272 72.1807 97.3749 73.1373L80.9545 101.578C80.2182 102.854 78.4026 102.923 77.5715 101.707L73.9569 96.4198C73.6144 95.9189 73.0629 95.6005 72.4578 95.5544L66.0718 95.0676C64.6033 94.9557 63.7554 93.3488 64.4917 92.0734L80.9121 63.6324Z" fill="#9BE5CB"/>
<path fill-rule="evenodd" clip-rule="evenodd" d="M75.6023 98.8279L73.956 96.4198C73.6135 95.9189 73.0621 95.6005 72.457 95.5544L69.5378 95.3319L87.1074 64.9004L93.1696 68.4004L75.6023 98.8279Z" fill="#E0F8EF"/>
<path d="M114.365 63.6324C113.813 62.6759 112.59 62.3481 111.633 62.9004L98.6345 70.4052C97.6779 70.9575 97.3501 72.1807 97.9024 73.1373L114.323 101.578C115.059 102.854 116.875 102.923 117.706 101.707L121.32 96.4198C121.663 95.9189 122.214 95.6005 122.82 95.5544L129.206 95.0676C130.674 94.9557 131.522 93.3488 130.786 92.0734L114.365 63.6324Z" fill="#9BE5CB"/>
<path fill-rule="evenodd" clip-rule="evenodd" d="M119.675 98.8279L121.321 96.4198C121.664 95.9189 122.215 95.6005 122.82 95.5544L125.74 95.3319L108.17 64.9004L102.108 68.4004L119.675 98.8279Z" fill="#E0F8EF"/>
<path d="M123.796 61.4077L123.796 61.4094L125.966 66.6457C126.701 68.4264 125.85 70.4475 124.091 71.1515L124.075 71.1579L118.835 73.3236L118.834 73.3243C116.312 74.3703 114.263 76.4071 113.219 78.925L111.044 84.1723C110.313 85.934 108.295 86.7685 106.541 86.0414L101.303 83.8693C100.141 83.3875 98.8956 83.1313 97.6528 83.0933L97.6362 83.0964C97.5024 83.0862 97.3694 83.0845 97.2376 83.0903L97.2274 83.0883C95.9161 83.1001 94.6006 83.3675 93.3816 83.8731L93.3799 83.8738L88.1454 86.0522L88.1453 86.0522L88.1336 86.0572C87.7114 86.2371 87.2676 86.3209 86.8219 86.3205C85.923 86.2053 85.0704 85.8496 84.3625 85.2908C84.0618 84.9958 83.8085 84.626 83.6279 84.1889C83.6278 84.1887 83.6277 84.1884 83.6276 84.1882L81.471 78.9466L81.4703 78.9449C80.9686 77.7297 80.2387 76.6125 79.3171 75.6728L79.3023 75.6629C79.2153 75.5724 79.123 75.4829 79.0268 75.3947L79.0063 75.3816C78.9921 75.3681 78.9778 75.3547 78.9635 75.3413C78.9661 75.3435 78.9683 75.3454 78.9701 75.3468L78.9616 75.3396C78.0733 74.5087 77.0286 73.8258 75.8811 73.3501L70.6422 71.1779C68.8888 70.4509 68.0531 68.4331 68.7835 66.6714L70.9592 61.4241C72.0031 58.9062 71.997 56.0176 70.9551 53.4939L70.9544 53.4922L68.7865 48.2593C68.7861 48.2585 68.7858 48.2576 68.7854 48.2567C68.0592 46.4813 68.9072 44.4476 70.6663 43.7177C70.6664 43.7177 70.6666 43.7176 70.6667 43.7176L75.9048 41.5525L75.9065 41.5518C78.4286 40.5058 80.4768 38.4691 81.5208 35.9511L83.6965 30.7038C84.452 28.8815 86.5032 28.0369 88.2322 28.7538L93.4711 30.926C96.0365 31.9897 98.854 32.0042 101.376 30.9587C101.376 30.9585 101.377 30.9583 101.377 30.9581L106.597 28.808L106.601 28.8066C108.358 28.0775 110.388 28.9148 111.121 30.6917L111.124 30.6984L113.297 35.89C113.298 35.8912 113.298 35.8925 113.299 35.8937C114.346 38.4265 116.345 40.4101 118.903 41.4706L124.142 43.6428C125.873 44.3604 126.726 46.4006 125.967 48.2302L123.791 53.4775C122.747 55.9954 122.754 58.8839 123.796 61.4077ZM97.477 83.1014C97.518 83.0984 97.5677 83.0967 97.6245 83.0985L97.4471 83.131L97.3616 83.1144C97.4063 83.1075 97.4453 83.1036 97.477 83.1014ZM97.148 83.1648L97.1495 83.1856L97.0324 83.2071C97.0722 83.1905 97.1109 83.1766 97.148 83.1648ZM97.7212 83.1049C97.8007 83.1128 97.9569 83.135 98.1382 83.2101L97.7212 83.1049Z" fill="#FCC838" stroke="#FDE9AF" stroke-width="3" stroke-linecap="round" stroke-linejoin="bevel"/>
<g filter="url(#filter0_d)">
<path d="M106.541 56.0144L103.004 59.493L103.82 64.3242C103.956 65.0328 103.412 65.7414 102.664 65.8702C102.324 65.9346 102.052 65.8702 101.78 65.7414L97.4259 63.4868L93.1403 65.7414C92.6641 65.9991 92.0519 65.9346 91.6437 65.6126C91.2356 65.3549 90.9635 64.8396 91.0315 64.3242L91.8478 59.493L88.3105 56.0144C87.7663 55.4991 87.7663 54.5973 88.3105 54.0819C88.5146 53.8887 88.7867 53.7599 89.0588 53.6954L93.8886 52.9868L96.0654 48.6709C96.4055 48.0267 97.2218 47.7047 97.9701 48.0267C98.2422 48.1556 98.5143 48.4132 98.6504 48.6709L100.827 53.0513L105.725 53.7599C106.473 53.8887 107.017 54.5329 106.881 55.3059C106.881 55.6279 106.745 55.8212 106.541 56.0144Z" fill="#FFFBF0"/>
</g>
<circle cx="97.4023" cy="57.4004" r="18" stroke="#DEB339" stroke-width="3"/>
<path d="M46.3445 10.0071C45.7502 10.5556 44.2827 12.2181 44.9033 13.0035C45.5228 13.7875 47.8766 11.9275 48.4962 12.7115C49.1157 13.4955 46.7619 15.3555 47.3825 16.1409C48.0031 16.9263 50.3569 15.0662 50.9765 15.8503C51.596 16.6343 49.2422 18.4943 49.8628 19.2797C50.4835 20.065 52.8373 18.205 53.4568 18.989C54.0774 19.7744 52.6278 21.6326 52.411 22.0831" stroke="#FCC838" stroke-width="1.5" stroke-miterlimit="10" stroke-linecap="round"/>
<path d="M140.858 8.82553C140.182 8.38181 138.213 7.36077 137.602 8.15318C136.991 8.94421 139.366 10.7772 138.756 11.5683C138.145 12.3593 135.77 10.5263 135.159 11.3187C134.547 12.1111 136.922 13.9441 136.311 14.7352C135.701 15.5262 133.326 13.6932 132.714 14.4856C132.103 15.278 134.478 17.111 133.867 17.9021C133.255 18.6945 131.101 17.7382 130.612 17.6371" stroke="#FCF1D1" stroke-width="1.5" stroke-miterlimit="10" stroke-linecap="round"/>
<path d="M165.314 46.4175C166.213 46.8554 164.898 49.552 165.798 49.9906C166.696 50.4285 168.011 47.7319 168.909 48.1698C169.807 48.6077 168.492 51.3043 169.392 51.743C170.292 52.1816 171.607 49.485 172.505 49.9229C173.403 50.3608 172.088 53.0574 172.988 53.4961C173.888 53.9347 175.202 51.2381 176.101 51.676C177 52.1147 175.686 54.8113 176.584 55.2492" stroke="#FCF1D1" stroke-width="1.5" stroke-miterlimit="10" stroke-linecap="round"/>
<rect x="53.0703" y="36.4409" width="2.35673" height="7.07018" transform="rotate(90 53.0703 36.4409)" fill="#FCF1D1"/>
<rect x="50.7129" y="41.1543" width="2.35673" height="7.07018" transform="rotate(-180 50.7129 41.1543)" fill="#FCF1D1"/>
<rect x="102.07" y="16.3564" width="2.35673" height="7.07018" transform="rotate(90 102.07 16.3564)" fill="#FCF1D1"/>
<rect x="99.7129" y="21.0698" width="2.35673" height="7.07018" transform="rotate(-180 99.7129 21.0698)" fill="#FCF1D1"/>
<path fill-rule="evenodd" clip-rule="evenodd" d="M141.286 54.0487H143.643V51.6924H146V49.3357H143.643V46.9785H141.286L141.286 49.3357H138.93V51.6924H141.286L141.286 54.0487Z" fill="#FCD977"/>
<circle cx="73.3853" cy="31.2774" r="1.9693" stroke="#FCF1D1" stroke-width="1.5"/>
<circle cx="121.79" cy="28.5577" r="1.9693" stroke="#FCF1D1" stroke-width="1.5"/>
<path d="M26.5703 29.0171L28.572 31.1611L23.4305 40.0815L21.4288 37.9375L26.5703 29.0171Z" fill="#FCC838"/>
<path d="M161.5 14.4658L159.302 16.2722L154.999 12.5353L157.197 10.7289L161.5 14.4658Z" fill="#FCC838"/>
<path d="M163.873 28.5225L162.665 32.7132L154.999 31.6935L156.207 27.5028L163.873 28.5225Z" fill="#FCC838"/>
<path d="M130 66.4863L132.524 64.8733L137.993 70.3419L135.469 71.955L130 66.4863Z" fill="#FCF1D1"/>
<path d="M43.2075 55.0737L46.29 56.5844L40.7075 59.0737L37.9994 56.9435L43.2075 55.0737Z" fill="#FCF1D1"/>
<path d="M58.8476 68.5797L62.2804 68.5742L58.3707 73.2726L55.0003 72.557L58.8476 68.5797Z" fill="#FCC838"/>
<defs>
<filter id="filter0_d" x="85.9023" y="46.9004" width="23" height="22" filterUnits="userSpaceOnUse" color-interpolation-filters="sRGB">
<feFlood flood-opacity="0" result="BackgroundImageFix"/>
<feColorMatrix in="SourceAlpha" type="matrix" values="0 0 0 0 0 0 0 0 0 0 0 0 0 0 0 0 0 0 127 0"/>
<feOffset dy="1"/>
<feGaussianBlur stdDeviation="1"/>
<feColorMatrix type="matrix" values="0 0 0 0 0 0 0 0 0 0 0 0 0 0 0 0 0 0 0.07 0"/>
<feBlend mode="normal" in2="BackgroundImageFix" result="effect1_dropShadow"/>
<feBlend mode="normal" in="SourceGraphic" in2="effect1_dropShadow" result="shape"/>
</filter>
</defs>
</svg>
