<svg width="56" height="57" viewBox="0 0 56 57" fill="none" xmlns="http://www.w3.org/2000/svg">
    <path fill-rule="evenodd" clip-rule="evenodd" d="M28 56.9091C43.464 56.9091 56 44.172 56 28.4599C56 12.7479 43.464 0.0107422 28 0.0107422C12.536 0.0107422 0 12.7479 0 28.4599C0 44.172 12.536 56.9091 28 56.9091Z" fill="#C0C6CF"/>
    <path fill-rule="evenodd" clip-rule="evenodd" d="M28 47.426C29.933 47.426 31.5 45.8339 31.5 43.8699C31.5 41.9059 29.933 40.3137 28 40.3137C26.067 40.3137 24.5 41.9059 24.5 43.8699C24.5 45.8339 26.067 47.426 28 47.426Z" fill="white"/>
    <path fill-rule="evenodd" clip-rule="evenodd" d="M23.4414 11.7771C23.3835 11.189 23.8456 10.6792 24.4366 10.6792H31.5635C32.1545 10.6792 32.6165 11.189 32.5587 11.7771L30.4222 33.4848C30.3718 33.9967 29.9413 34.3869 29.427 34.3869H26.5731C26.0588 34.3869 25.6283 33.9967 25.5779 33.4848L23.4414 11.7771Z" fill="white"/>
</svg>
