<svg width="122" height="118" viewBox="0 0 122 118" fill="none" xmlns="http://www.w3.org/2000/svg">
<path fill-rule="evenodd" clip-rule="evenodd" d="M58.4525 100.079C81.0355 100.079 99.3426 81.7718 99.3426 59.1888C99.3426 36.6059 81.0355 18.2988 58.4525 18.2988C35.8696 18.2988 17.5625 36.6059 17.5625 59.1888C17.5625 81.7718 35.8696 100.079 58.4525 100.079ZM64.3333 69.7562C70.5477 67.5597 75 61.6331 75 54.6666C75 45.83 67.8366 38.6666 59 38.6666C50.1634 38.6666 43 45.83 43 54.6666C43 61.6331 47.4523 67.5597 53.6666 69.7562V73.3333H64.3333V69.7562ZM53.6666 75.9999H64.3333V78.6666H53.6666V75.9999ZM64.3333 81.3333L61.6667 83.9999H56.3333L53.6667 81.3333H64.3333Z" fill="#C0C6CF"/>
<path fill-rule="evenodd" clip-rule="evenodd" d="M121.006 27.0504C120.936 28.0681 120.805 29.0689 120.616 30.0494H71.5613C71.3728 29.0689 71.2416 28.0681 71.1714 27.0504H121.006ZM74.0386 37.0486C73.5242 36.0848 73.0712 35.0833 72.6847 34.0494H119.493C119.106 35.0833 118.653 36.0848 118.139 37.0486H74.0386ZM76.6966 41.0486C77.5727 42.1264 78.5369 43.1299 79.5782 44.0479H112.599C113.64 43.1299 114.605 42.1264 115.481 41.0486H76.6966ZM96.0887 50.2826C92.4002 50.2826 88.8985 49.483 85.7473 48.0479H106.43C103.279 49.483 99.7772 50.2826 96.0887 50.2826ZM120.966 23.0504H71.2118C71.3029 22.0318 71.4552 21.0308 71.6649 20.0511H120.512C120.722 21.0308 120.875 22.0318 120.966 23.0504ZM74.3183 13.0522C73.7757 14.0141 73.2951 15.0155 72.8818 16.0511H119.296C118.882 15.0155 118.402 14.0141 117.859 13.0522H74.3183ZM115.055 9.05218H77.1222C78.0523 7.96778 79.0738 6.96407 80.1748 6.05298H112.003C113.104 6.96407 114.125 7.96778 115.055 9.05218ZM96.0887 0.327881C99.3147 0.327881 102.398 0.939452 105.228 2.05298H86.949C89.7796 0.939452 92.8627 0.327881 96.0887 0.327881Z" fill="#777E8B"/>
<mask id="mask0_1431_11079" style="mask-type:alpha" maskUnits="userSpaceOnUse" x="17" y="18" width="83" height="83">
<circle cx="58.4525" cy="59.1888" r="40.89" fill="#C0C6CF"/>
</mask>
<g mask="url(#mask0_1431_11079)">
<path fill-rule="evenodd" clip-rule="evenodd" d="M121.006 27.0504C120.936 28.068 120.805 29.0688 120.617 30.0493H71.5618C71.3733 29.0688 71.2421 28.068 71.1719 27.0504H121.006ZM74.0391 37.0485C73.5247 36.0847 73.0717 35.0832 72.6852 34.0493H119.493C119.107 35.0832 118.654 36.0847 118.139 37.0485H74.0391ZM76.6971 41.0485C77.5732 42.1264 78.5374 43.1298 79.5787 44.0478H112.6C113.641 43.1298 114.605 42.1264 115.481 41.0485H76.6971ZM96.0892 50.2825C92.4007 50.2825 88.899 49.483 85.7478 48.0478H106.431C103.279 49.483 99.7777 50.2825 96.0892 50.2825ZM71.2122 23.0504C71.3034 22.0318 71.4557 21.0308 71.6654 20.0511H120.513C120.723 21.0308 120.875 22.0318 120.966 23.0504H71.2122ZM72.8822 16.0511C73.2956 15.0155 73.7762 14.014 74.3188 13.0521H117.86C118.402 14.014 118.883 15.0155 119.296 16.0511H72.8822ZM115.056 9.05208C114.126 7.96771 113.104 6.96401 112.003 6.05294H80.1753C79.0743 6.96401 78.0528 7.96771 77.1227 9.05208H115.056ZM96.0892 0.32782C99.3152 0.32782 102.398 0.939399 105.229 2.05294H86.9494C89.7801 0.939399 92.8632 0.32782 96.0892 0.32782Z" fill="white"/>
</g>
<circle cx="1.73155" cy="75.8583" r="1.07139" fill="#777E8B"/>
<circle cx="6.36387" cy="75.8575" r="1.07139" fill="#777E8B"/>
<circle cx="10.9972" cy="75.8575" r="1.07139" fill="#777E8B"/>
<circle cx="15.63" cy="75.8575" r="1.07139" fill="#777E8B"/>
<circle cx="20.2633" cy="75.8575" r="1.07139" fill="#777E8B"/>
<circle cx="1.73106" cy="80.4902" r="1.07139" fill="#777E8B"/>
<circle cx="6.36387" cy="80.4902" r="1.07139" fill="#777E8B"/>
<circle cx="10.9972" cy="80.4902" r="1.07139" fill="#777E8B"/>
<circle cx="15.63" cy="80.4902" r="1.07139" fill="#777E8B"/>
<circle cx="20.2633" cy="80.4902" r="1.07139" fill="#777E8B"/>
<circle cx="1.73106" cy="85.1236" r="1.07139" fill="#777E8B"/>
<circle cx="6.36387" cy="85.1236" r="1.07139" fill="#777E8B"/>
<circle cx="10.9972" cy="85.1236" r="1.07139" fill="#777E8B"/>
<circle cx="15.63" cy="85.1236" r="1.07139" fill="#777E8B"/>
<circle cx="20.2633" cy="85.1236" r="1.07139" fill="#777E8B"/>
<circle cx="1.73106" cy="89.7564" r="1.07139" fill="#777E8B"/>
<circle cx="6.36387" cy="89.7564" r="1.07139" fill="#777E8B"/>
<circle cx="10.9972" cy="89.7564" r="1.07139" fill="#777E8B"/>
<circle cx="15.63" cy="89.7564" r="1.07139" fill="#777E8B"/>
<circle cx="20.2633" cy="89.7564" r="1.07139" fill="#777E8B"/>
<circle cx="1.73106" cy="94.0033" r="1.07139" fill="#777E8B"/>
<circle cx="6.36387" cy="94.0033" r="1.07139" fill="#777E8B"/>
<circle cx="10.9972" cy="94.0033" r="1.07139" fill="#777E8B"/>
<circle cx="15.63" cy="94.0033" r="1.07139" fill="#777E8B"/>
<circle cx="20.2633" cy="94.0033" r="1.07139" fill="#777E8B"/>
<circle cx="1.73106" cy="98.6757" r="1.07139" fill="#777E8B"/>
<circle cx="6.36436" cy="98.6752" r="1.07139" fill="#777E8B"/>
<circle cx="10.9972" cy="98.6752" r="1.07139" fill="#777E8B"/>
<circle cx="15.63" cy="98.6752" r="1.07139" fill="#777E8B"/>
<circle cx="20.2633" cy="98.6752" r="1.07139" fill="#777E8B"/>
<circle cx="1.73106" cy="103.308" r="1.07139" fill="#777E8B"/>
<circle cx="6.36436" cy="103.308" r="1.07139" fill="#777E8B"/>
<circle cx="10.9972" cy="103.308" r="1.07139" fill="#777E8B"/>
<circle cx="15.63" cy="103.308" r="1.07139" fill="#777E8B"/>
<circle cx="20.2633" cy="103.308" r="1.07139" fill="#777E8B"/>
<circle cx="1.73106" cy="107.942" r="1.07139" fill="#777E8B"/>
<circle cx="6.36436" cy="107.942" r="1.07139" fill="#777E8B"/>
<circle cx="10.9972" cy="107.942" r="1.07139" fill="#777E8B"/>
<circle cx="15.63" cy="107.942" r="1.07139" fill="#777E8B"/>
<circle cx="20.2628" cy="107.942" r="1.07139" fill="#777E8B"/>
<circle cx="1.73106" cy="112.574" r="1.07139" fill="#777E8B"/>
<circle cx="6.36436" cy="112.574" r="1.07139" fill="#777E8B"/>
<circle cx="10.9972" cy="112.574" r="1.07139" fill="#777E8B"/>
<circle cx="15.63" cy="112.574" r="1.07139" fill="#777E8B"/>
<circle cx="20.2633" cy="112.574" r="1.07139" fill="#777E8B"/>
<circle cx="1.73106" cy="116.821" r="1.07139" fill="#777E8B"/>
<circle cx="6.36436" cy="116.821" r="1.07139" fill="#777E8B"/>
<circle cx="10.9972" cy="116.821" r="1.07139" fill="#777E8B"/>
<circle cx="15.63" cy="116.821" r="1.07139" fill="#777E8B"/>
<circle cx="20.2633" cy="116.821" r="1.07139" fill="#777E8B"/>
<circle cx="24.9352" cy="75.858" r="1.07139" fill="#777E8B"/>
<circle cx="29.568" cy="75.8575" r="1.07139" fill="#777E8B"/>
<circle cx="34.2013" cy="75.8575" r="1.07139" fill="#777E8B"/>
<circle cx="38.8341" cy="75.8575" r="1.07139" fill="#777E8B"/>
<circle cx="43.4669" cy="75.8575" r="1.07139" fill="#777E8B"/>
<circle cx="24.9352" cy="80.4902" r="1.07139" fill="#777E8B"/>
<circle cx="29.568" cy="80.4902" r="1.07139" fill="#777E8B"/>
<circle cx="34.2013" cy="80.4902" r="1.07139" fill="#777E8B"/>
<circle cx="38.8341" cy="80.4902" r="1.07139" fill="#777E8B"/>
<circle cx="43.4669" cy="80.4902" r="1.07139" fill="#777E8B"/>
<circle cx="24.9352" cy="85.1236" r="1.07139" fill="#777E8B"/>
<circle cx="29.568" cy="85.1236" r="1.07139" fill="#777E8B"/>
<circle cx="34.2013" cy="85.1236" r="1.07139" fill="#777E8B"/>
<circle cx="38.8341" cy="85.1236" r="1.07139" fill="#777E8B"/>
<circle cx="43.4669" cy="85.1236" r="1.07139" fill="#777E8B"/>
<circle cx="24.9352" cy="89.7564" r="1.07139" fill="#777E8B"/>
<circle cx="29.568" cy="89.7564" r="1.07139" fill="#777E8B"/>
<circle cx="34.2013" cy="89.7564" r="1.07139" fill="#777E8B"/>
<circle cx="38.8341" cy="89.7564" r="1.07139" fill="#777E8B"/>
<circle cx="43.4669" cy="89.7564" r="1.07139" fill="#777E8B"/>
<circle cx="24.9352" cy="94.0033" r="1.07139" fill="#777E8B"/>
<circle cx="29.568" cy="94.0033" r="1.07139" fill="#777E8B"/>
<circle cx="34.2013" cy="94.0033" r="1.07139" fill="#777E8B"/>
<circle cx="38.8341" cy="94.0033" r="1.07139" fill="#777E8B"/>
<circle cx="43.4669" cy="94.0033" r="1.07139" fill="#777E8B"/>
<circle cx="24.9352" cy="98.6764" r="1.07139" fill="#777E8B"/>
<circle cx="29.568" cy="98.6756" r="1.07139" fill="#777E8B"/>
<circle cx="34.2013" cy="98.6756" r="1.07139" fill="#777E8B"/>
<circle cx="38.8341" cy="98.6756" r="1.07139" fill="#777E8B"/>
<circle cx="43.4669" cy="98.6756" r="1.07139" fill="#777E8B"/>
<circle cx="24.9352" cy="103.308" r="1.07139" fill="#777E8B"/>
<circle cx="29.568" cy="103.308" r="1.07139" fill="#777E8B"/>
<circle cx="34.2013" cy="103.308" r="1.07139" fill="#777E8B"/>
<circle cx="38.8341" cy="103.308" r="1.07139" fill="#777E8B"/>
<circle cx="43.4669" cy="103.308" r="1.07139" fill="#777E8B"/>
<circle cx="24.9352" cy="107.942" r="1.07139" fill="#777E8B"/>
<circle cx="29.568" cy="107.942" r="1.07139" fill="#777E8B"/>
<circle cx="34.2013" cy="107.942" r="1.07139" fill="#777E8B"/>
<circle cx="38.8341" cy="107.942" r="1.07139" fill="#777E8B"/>
<circle cx="43.4669" cy="107.942" r="1.07139" fill="#777E8B"/>
<circle cx="24.9352" cy="112.575" r="1.07139" fill="#777E8B"/>
<circle cx="29.568" cy="112.575" r="1.07139" fill="#777E8B"/>
<circle cx="34.2013" cy="112.575" r="1.07139" fill="#777E8B"/>
<circle cx="38.8341" cy="112.575" r="1.07139" fill="#777E8B"/>
<circle cx="43.4669" cy="112.575" r="1.07139" fill="#777E8B"/>
<circle cx="24.9352" cy="116.822" r="1.07139" fill="#777E8B"/>
<circle cx="29.568" cy="116.822" r="1.07139" fill="#777E8B"/>
<circle cx="34.2013" cy="116.822" r="1.07139" fill="#777E8B"/>
<circle cx="38.8341" cy="116.822" r="1.07139" fill="#777E8B"/>
<circle cx="43.4669" cy="116.822" r="1.07139" fill="#777E8B"/>
</svg>
