<svg width="56" height="56" viewBox="0 0 56 56" fill="none" xmlns="http://www.w3.org/2000/svg">
<path fill-rule="evenodd" clip-rule="evenodd" d="M56 28C56 43.464 43.464 56 28 56C12.536 56 0 43.464 0 28C0 12.536 12.536 0 28 0C43.464 0 56 12.536 56 28ZM39.5963 21.1101C41.5601 20.7994 42.3457 18.7247 42.4147 17.9285L37.5813 14.5982C36.6164 14.6213 35.1673 16.153 35.4779 18.1168C35.7886 20.0806 37.6325 21.4208 39.5963 21.1101ZM14.4222 17.9284C14.4912 18.7246 15.2768 20.7993 17.2406 21.11C19.2044 21.4206 21.0483 20.0805 21.359 18.1167C21.6696 16.1529 20.2205 14.6212 19.2556 14.5981L14.4222 17.9284ZM24.4999 25.5C23.6715 25.5001 22.9999 26.1716 22.9999 27.0001C23 27.8285 23.6715 28.5001 24.5 28.5L31.5 28.5C32.3284 28.5 33 27.8284 32.9999 26.9999C32.9999 26.1715 32.3284 25.5 31.4999 25.5L24.4999 25.5Z" fill="#C0C6CF"/>
</svg>
