<svg width="500" height="251" viewBox="0 0 500 251" fill="none" xmlns="http://www.w3.org/2000/svg">
<g opacity="0.6">
<mask id="mask0" mask-type="alpha" maskUnits="userSpaceOnUse" x="0" y="0" width="500" height="251">
<path d="M4.57066e-08 6C2.04636e-08 2.68629 2.68629 1.96092e-08 6 4.37984e-08L494 3.60607e-06C497.314 3.63026e-06 500 2.6863 500 6L500 251L1.91206e-06 251L4.57066e-08 6Z" fill="#2359B6"/>
</mask>
<g mask="url(#mask0)">
<path d="M-9 -8L508 -8L508 256L-9 256L-9 -8Z" fill="#2359B6"/>
<rect x="152" y="191" width="8" height="89" fill="#71A1F4"/>
<rect x="188" y="179" width="8" height="109" fill="#71A1F4"/>
<rect x="223" y="169" width="8" height="93" fill="#71A1F4"/>
<rect x="259" y="173" width="8" height="95" fill="#71A1F4"/>
<rect x="295" y="191" width="8" height="93" fill="#71A1F4"/>
<rect x="330" y="183" width="8" height="89" fill="#71A1F4"/>
<rect x="366" y="169" width="8" height="109" fill="#71A1F4"/>
<rect x="402" y="161" width="8" height="93" fill="#71A1F4"/>
<rect x="437" y="155" width="8" height="99" fill="#71A1F4"/>
<rect x="473" y="165" width="8" height="93" fill="#71A1F4"/>
<rect x="370" y="-61" width="162" height="187" fill="#2E75F0"/>
<ellipse rx="3.24539" ry="3.1099" transform="matrix(1 1.74846e-07 1.74846e-07 -1 397.744 101.748)" fill="#ABC7F9"/>
<ellipse rx="3.24539" ry="3.1099" transform="matrix(1 1.74846e-07 1.74846e-07 -1 423.706 101.748)" fill="#ABC7F9"/>
<ellipse rx="3.24539" ry="3.1099" transform="matrix(1 1.74846e-07 1.74846e-07 -1 449.672 101.748)" fill="#ABC7F9"/>
<ellipse rx="3.24539" ry="3.1099" transform="matrix(1 1.74846e-07 1.74846e-07 -1 475.634 101.748)" fill="#ABC7F9"/>
<ellipse rx="3.24539" ry="3.1099" transform="matrix(1 1.74846e-07 1.74846e-07 -1 397.744 76.8671)" fill="#ABC7F9"/>
<ellipse rx="3.24539" ry="3.1099" transform="matrix(1 1.74846e-07 1.74846e-07 -1 423.706 76.8692)" fill="#ABC7F9"/>
<ellipse rx="3.24539" ry="3.1099" transform="matrix(1 1.74846e-07 1.74846e-07 -1 449.672 76.8671)" fill="#ABC7F9"/>
<ellipse rx="3.24539" ry="3.1099" transform="matrix(1 1.74846e-07 1.74846e-07 -1 475.634 76.8671)" fill="#ABC7F9"/>
<ellipse rx="3.24539" ry="3.1099" transform="matrix(1 1.74846e-07 1.74846e-07 -1 397.744 51.9888)" fill="#ABC7F9"/>
<ellipse rx="3.24539" ry="3.1099" transform="matrix(1 1.74846e-07 1.74846e-07 -1 423.706 51.9888)" fill="#ABC7F9"/>
<ellipse rx="3.24539" ry="3.1099" transform="matrix(1 1.74846e-07 1.74846e-07 -1 449.672 51.9888)" fill="#ABC7F9"/>
<ellipse rx="3.24539" ry="3.1099" transform="matrix(1 1.74846e-07 1.74846e-07 -1 475.634 51.9888)" fill="#ABC7F9"/>
<ellipse rx="3.24539" ry="3.1099" transform="matrix(1 1.74846e-07 1.74846e-07 -1 397.744 27.1104)" fill="#ABC7F9"/>
<ellipse rx="3.24539" ry="3.1099" transform="matrix(1 1.74846e-07 1.74846e-07 -1 423.706 27.1104)" fill="#ABC7F9"/>
<ellipse rx="3.24539" ry="3.1099" transform="matrix(1 1.74846e-07 1.74846e-07 -1 449.672 27.1104)" fill="#ABC7F9"/>
<ellipse rx="3.24539" ry="3.1099" transform="matrix(1 1.74846e-07 1.74846e-07 -1 475.634 27.1104)" fill="#ABC7F9"/>
<ellipse rx="1.57674" ry="1.51091" transform="matrix(1 1.74846e-07 1.74846e-07 -1 213.076 48.3465)" fill="#ABC7F9"/>
<ellipse rx="1.57674" ry="1.51091" transform="matrix(1 1.74846e-07 1.74846e-07 -1 225.689 48.3465)" fill="#ABC7F9"/>
<ellipse rx="1.57674" ry="1.51091" transform="matrix(1 1.74846e-07 1.74846e-07 -1 238.304 48.3465)" fill="#ABC7F9"/>
<ellipse rx="1.57674" ry="1.51091" transform="matrix(1 1.74846e-07 1.74846e-07 -1 250.918 48.3465)" fill="#ABC7F9"/>
<ellipse rx="1.57674" ry="1.51091" transform="matrix(1 1.74846e-07 1.74846e-07 -1 213.076 36.2589)" fill="#ABC7F9"/>
<ellipse rx="1.57674" ry="1.51091" transform="matrix(1 1.74846e-07 1.74846e-07 -1 225.689 36.2591)" fill="#ABC7F9"/>
<ellipse rx="1.57674" ry="1.51091" transform="matrix(1 1.74846e-07 1.74846e-07 -1 238.304 36.2591)" fill="#ABC7F9"/>
<ellipse rx="1.57674" ry="1.51091" transform="matrix(1 1.74846e-07 1.74846e-07 -1 250.918 36.2591)" fill="#ABC7F9"/>
<ellipse rx="1.57674" ry="1.51091" transform="matrix(1 1.74846e-07 1.74846e-07 -1 213.076 24.1715)" fill="#ABC7F9"/>
<ellipse rx="1.57674" ry="1.51091" transform="matrix(1 1.74846e-07 1.74846e-07 -1 225.689 24.1715)" fill="#ABC7F9"/>
<ellipse rx="1.57674" ry="1.51091" transform="matrix(1 1.74846e-07 1.74846e-07 -1 238.304 24.1715)" fill="#ABC7F9"/>
<ellipse rx="1.57674" ry="1.51091" transform="matrix(1 1.74846e-07 1.74846e-07 -1 250.918 24.1715)" fill="#ABC7F9"/>
<ellipse rx="1.57674" ry="1.51091" transform="matrix(1 1.74846e-07 1.74846e-07 -1 213.076 12.0845)" fill="#ABC7F9"/>
<ellipse rx="1.57674" ry="1.51091" transform="matrix(1 1.74846e-07 1.74846e-07 -1 225.689 12.0845)" fill="#ABC7F9"/>
<ellipse rx="1.57674" ry="1.51091" transform="matrix(1 1.74846e-07 1.74846e-07 -1 238.304 12.0845)" fill="#ABC7F9"/>
<ellipse rx="1.57674" ry="1.51091" transform="matrix(1 1.74846e-07 1.74846e-07 -1 250.918 12.0845)" fill="#ABC7F9"/>
<rect x="-3" y="126" width="135" height="135" fill="#E6EDFA"/>
<rect x="-15" y="-61" width="388" height="187" fill="#71A1F4"/>
</g>
<rect x="38" y="158" width="59" height="59" rx="29.5" fill="#2E75F0"/>
<path d="M79 190.647C79 185.353 73.3016 181.824 69.4253 181.824V178.294C71.5052 177.582 73.445 175.608 73.3016 173H61.8262C61.6971 175.555 63.5837 177.568 65.5919 178.294V181.824C61.8262 181.824 56 185.353 56 190.647H79Z" fill="white"/>
<path d="M69.4253 192.412H65.592V199.471L67.5086 203L69.4253 199.471V192.412Z" fill="white"/>
<mask id="mask1" mask-type="alpha" maskUnits="userSpaceOnUse" x="-1" y="5" width="374" height="108">
<rect x="-0.000488281" y="5" width="373" height="108" fill="#C4C4C4"/>
</mask>
<g mask="url(#mask1)">
<path d="M15 21.9985C29.3354 21.9985 29.3354 43.5177 43.6959 43.5177C58.0313 43.5177 58.0313 21.9985 72.3667 21.9985C86.7021 21.9985 86.7021 43.5177 101.063 43.5177C115.423 43.5177 115.423 21.9985 129.758 21.9985C144.094 21.9985 144.094 43.5177 158.454 43.5177C172.815 43.5177 172.815 21.9985 187.15 21.9985C201.511 21.9985 201.511 43.5177 215.846 43.5177" stroke="#2E75F0" stroke-width="3" stroke-miterlimit="10"/>
<path d="M15 50.104C29.3354 50.104 29.3354 75.2097 43.6959 75.2097C58.0313 75.2097 58.0313 50.104 72.3667 50.104C86.7021 50.104 86.7021 75.2097 101.063 75.2097C115.423 75.2097 115.423 50.104 129.758 50.104C144.094 50.104 144.094 75.2097 158.454 75.2097C172.815 75.2097 172.815 50.104 187.15 50.104C201.511 50.104 201.511 75.2097 215.846 75.2097" stroke="#2E75F0" stroke-width="3" stroke-miterlimit="10"/>
<path d="M15 83.5883C29.3354 83.5883 29.3354 105.108 43.6959 105.108C58.0313 105.108 58.0313 83.5883 72.3667 83.5883C86.7021 83.5883 86.7021 105.108 101.063 105.108C115.423 105.108 115.423 83.5883 129.758 83.5883C144.094 83.5883 144.094 105.108 158.454 105.108C172.815 105.108 172.815 83.5883 187.15 83.5883C201.511 83.5883 201.511 105.108 215.846 105.108" stroke="#2E75F0" stroke-width="3" stroke-miterlimit="10"/>
<path d="M-157 21.9982C-142.665 21.9982 -142.665 43.5174 -128.305 43.5174C-113.969 43.5174 -113.969 21.9982 -99.6338 21.9982C-85.2984 21.9982 -85.2984 43.5174 -70.9379 43.5174C-56.5774 43.5174 -56.5774 21.9982 -42.242 21.9982C-27.9066 21.9982 -27.9066 43.5174 -13.5461 43.5174C0.814378 43.5174 0.814379 21.9982 15.1498 21.9982C29.5103 21.9982 29.5103 43.5174 43.8457 43.5174" stroke="#2E75F0" stroke-width="3" stroke-miterlimit="10"/>
<path d="M-157 50.1036C-142.665 50.1036 -142.665 75.2094 -128.305 75.2094C-113.969 75.2094 -113.969 50.1036 -99.6338 50.1036C-85.2984 50.1036 -85.2984 75.2094 -70.9379 75.2094C-56.5774 75.2094 -56.5774 50.1036 -42.242 50.1036C-27.9066 50.1036 -27.9066 75.2094 -13.5461 75.2094C0.814378 75.2094 0.814379 50.1036 15.1498 50.1036C29.5103 50.1036 29.5103 75.2094 43.8457 75.2094" stroke="#2E75F0" stroke-width="3" stroke-miterlimit="10"/>
<path d="M-157 83.588C-142.665 83.588 -142.665 105.107 -128.305 105.107C-113.969 105.107 -113.969 83.588 -99.6338 83.588C-85.2984 83.588 -85.2984 105.107 -70.9379 105.107C-56.5774 105.107 -56.5774 83.588 -42.242 83.588C-27.9066 83.588 -27.9066 105.107 -13.5461 105.107C0.814378 105.107 0.814379 83.588 15.1498 83.588C29.5103 83.588 29.5103 105.107 43.8457 105.107" stroke="#2E75F0" stroke-width="3" stroke-miterlimit="10"/>
<path d="M187.154 21.9985C201.489 21.9985 201.489 43.5177 215.85 43.5177C230.185 43.5177 230.185 21.9985 244.52 21.9985C258.856 21.9985 258.856 43.5177 273.216 43.5177C287.577 43.5177 287.577 21.9985 301.912 21.9985C316.248 21.9985 316.248 43.5177 330.608 43.5177C344.969 43.5177 344.969 21.9985 359.304 21.9985C373.665 21.9985 373.665 43.5177 388 43.5177" stroke="white" stroke-width="3" stroke-miterlimit="10"/>
<path d="M187.154 50.104C201.489 50.104 201.489 75.2097 215.85 75.2097C230.185 75.2097 230.185 50.104 244.52 50.104C258.856 50.104 258.856 75.2097 273.216 75.2097C287.577 75.2097 287.577 50.104 301.912 50.104C316.248 50.104 316.248 75.2097 330.608 75.2097C344.969 75.2097 344.969 50.104 359.304 50.104C373.665 50.104 373.665 75.2097 388 75.2097" stroke="white" stroke-width="3" stroke-miterlimit="10"/>
<path d="M187.154 83.5883C201.489 83.5883 201.489 105.108 215.85 105.108C230.185 105.108 230.185 83.5883 244.52 83.5883C258.856 83.5883 258.856 105.108 273.216 105.108C287.577 105.108 287.577 83.5883 301.912 83.5883C316.248 83.5883 316.248 105.108 330.608 105.108C344.969 105.108 344.969 83.5883 359.304 83.5883C373.665 83.5883 373.665 105.108 388 105.108" stroke="white" stroke-width="3" stroke-miterlimit="10"/>
</g>
</g>
</svg>
