<svg width="176" height="120" viewBox="0 0 176 120" fill="none" xmlns="http://www.w3.org/2000/svg"><rect width="176" height="120" rx="8" fill="#2359B6"/><mask id="mask0" mask-type="alpha" maskUnits="userSpaceOnUse" x="0" y="0" width="176" height="120"><rect width="176" height="120" rx="8" fill="#2359B6"/></mask><g mask="url(#mask0)"><rect x="69.793" y="88.6583" width="2.02299" height="45.5554" fill="#71A1F4"/><rect x="80.9194" y="83.2424" width="2.02299" height="55.2481" fill="#71A1F4"/><rect x="91.0347" y="77.9965" width="2.02299" height="47.494" fill="#71A1F4"/><rect x="102.161" y="80.1194" width="2.02299" height="47.494" fill="#71A1F4"/><rect x="112.276" y="88.5967" width="2.02299" height="47.494" fill="#71A1F4"/><rect x="123.402" y="84.6584" width="2.02299" height="45.5554" fill="#71A1F4"/><rect x="134.529" y="78.8735" width="2.02299" height="55.2481" fill="#71A1F4"/><rect x="144.644" y="73.9963" width="2.02299" height="47.494" fill="#71A1F4"/><rect x="155" y="71" width="2" height="50" fill="#71A1F4"/><rect x="165.885" y="75.9043" width="2.02299" height="47.494" fill="#71A1F4"/><rect x="118.345" y="-60.6084" width="176" height="120" fill="#2E75F0"/><ellipse rx="1.57674" ry="1.51091" transform="matrix(1 1.74846e-07 1.74846e-07 -1 128.076 48.3461)" fill="#ABC7F9"/><ellipse rx="1.57674" ry="1.51091" transform="matrix(1 1.74846e-07 1.74846e-07 -1 140.689 48.3461)" fill="#ABC7F9"/><ellipse rx="1.57674" ry="1.51091" transform="matrix(1 1.74846e-07 1.74846e-07 -1 153.304 48.3461)" fill="#ABC7F9"/><ellipse rx="1.57674" ry="1.51091" transform="matrix(1 1.74846e-07 1.74846e-07 -1 165.918 48.3461)" fill="#ABC7F9"/><ellipse rx="1.57674" ry="1.51091" transform="matrix(1 1.74846e-07 1.74846e-07 -1 128.076 36.2585)" fill="#ABC7F9"/><ellipse rx="1.57674" ry="1.51091" transform="matrix(1 1.74846e-07 1.74846e-07 -1 140.689 36.2587)" fill="#ABC7F9"/><ellipse rx="1.57674" ry="1.51091" transform="matrix(1 1.74846e-07 1.74846e-07 -1 153.304 36.2587)" fill="#ABC7F9"/><ellipse rx="1.57674" ry="1.51091" transform="matrix(1 1.74846e-07 1.74846e-07 -1 165.918 36.2587)" fill="#ABC7F9"/><ellipse rx="1.57674" ry="1.51091" transform="matrix(1 1.74846e-07 1.74846e-07 -1 128.076 24.1711)" fill="#ABC7F9"/><ellipse rx="1.57674" ry="1.51091" transform="matrix(1 1.74846e-07 1.74846e-07 -1 140.689 24.1711)" fill="#ABC7F9"/><ellipse rx="1.57674" ry="1.51091" transform="matrix(1 1.74846e-07 1.74846e-07 -1 153.304 24.1711)" fill="#ABC7F9"/><ellipse rx="1.57674" ry="1.51091" transform="matrix(1 1.74846e-07 1.74846e-07 -1 165.918 24.1711)" fill="#ABC7F9"/><ellipse rx="1.57674" ry="1.51091" transform="matrix(1 1.74846e-07 1.74846e-07 -1 128.076 12.0842)" fill="#ABC7F9"/><ellipse rx="1.57674" ry="1.51091" transform="matrix(1 1.74846e-07 1.74846e-07 -1 140.689 12.0842)" fill="#ABC7F9"/><ellipse rx="1.57674" ry="1.51091" transform="matrix(1 1.74846e-07 1.74846e-07 -1 153.304 12.0842)" fill="#ABC7F9"/><ellipse rx="1.57674" ry="1.51091" transform="matrix(1 1.74846e-07 1.74846e-07 -1 165.918 12.0842)" fill="#ABC7F9"/><rect x="-115.311" y="59.5806" width="176" height="120.189" fill="#E6EDFA"/><rect x="-21.2417" y="52.7955" width="81.931" height="75.6026" fill="#E6EDFA"/><rect x="-57.6558" y="-60.6084" width="176" height="120" fill="#71A1F4"/><path d="M-0.000488281 7.24023C8.44637 7.24023 8.44637 20.8099 16.908 20.8099C25.3549 20.8099 25.3549 7.24023 33.8017 7.24023C42.2486 7.24023 42.2486 20.8099 50.7103 20.8099C59.1719 20.8099 59.1719 7.24023 67.6188 7.24023C76.0656 7.24023 76.0656 20.8099 84.5273 20.8099C92.9889 20.8099 92.9889 7.24024 101.436 7.24024C109.897 7.24024 109.897 20.8099 118.344 20.8099" stroke="#2E75F0" stroke-width="1.5" stroke-miterlimit="10"/><path d="M-0.000488281 22.7484C8.44637 22.7484 8.44637 37.2874 16.908 37.2874C25.3549 37.2874 25.3549 22.7484 33.8017 22.7484C42.2486 22.7484 42.2486 37.2874 50.7103 37.2874C59.1719 37.2874 59.1719 22.7484 67.6188 22.7484C76.0656 22.7484 76.0656 37.2874 84.5273 37.2874C92.9889 37.2874 92.9889 22.7484 101.436 22.7484C109.897 22.7484 109.897 37.2874 118.344 37.2874" stroke="#2E75F0" stroke-width="1.5" stroke-miterlimit="10"/><path d="M-0.000488281 40.1952C8.44637 40.1952 8.44637 53.7649 16.908 53.7649C25.3549 53.7649 25.3549 40.1952 33.8017 40.1952C42.2486 40.1952 42.2486 53.7649 50.7103 53.7649C59.1719 53.7649 59.1719 40.1952 67.6188 40.1952C76.0656 40.1952 76.0656 53.7649 84.5273 53.7649C92.9889 53.7649 92.9889 40.1952 101.436 40.1952C109.897 40.1952 109.897 53.7649 118.344 53.7649" stroke="#2E75F0" stroke-width="1.5" stroke-miterlimit="10"/></g><rect x="13.9995" y="72" width="35" height="35" rx="17.5" fill="#2E75F0"/><path d="M37.9995 91.5882C37.9995 88.4118 34.7787 86.2941 32.5877 86.2941V84.1765C33.7633 83.7489 34.8597 82.565 34.7787 81H28.2926C28.2196 82.5328 29.286 83.7408 30.421 84.1765V86.2941C28.2926 86.2941 24.9995 88.4118 24.9995 91.5882H37.9995Z" fill="white"/><path d="M32.5877 92.6471H30.4211V96.8824L31.5044 99L32.5877 96.8824V92.6471Z" fill="white"/></svg>