<svg width="18" height="18" viewBox="0 0 18 18" fill="none" xmlns="http://www.w3.org/2000/svg">
<g clip-path="url(#clip0)">
<path d="M11.7 8.54236C11.7 7.86839 12.2372 7.32202 12.8999 7.32202H16.7999C17.4627 7.32202 17.9999 7.86839 17.9999 8.54236V16.7796C17.9999 17.4536 17.4627 18 16.7999 18H12.8999C12.2372 18 11.7 17.4536 11.7 16.7796L11.7 8.54236Z" fill="#DBDFE7"/>
<path d="M0 1.22034C0 0.546364 0.537258 0 1.2 0H9.29999C9.96273 0 10.5 0.546364 10.5 1.22034V16.7796C10.5 17.4536 9.96273 18 9.29999 18H1.2C0.537258 18 0 17.4536 0 16.7796L0 1.22034Z" fill="#DBDFE7"/>
<path d="M11.7 1.22034C11.7 0.546364 12.2372 0 12.8999 0L16.7999 7.27383e-08C17.4627 7.27383e-08 17.9999 0.546364 17.9999 1.22034V4.57627C17.9999 5.25024 17.4627 5.7966 16.7999 5.7966H12.8999C12.2372 5.7966 11.7 5.25024 11.7 4.57627V1.22034Z" fill="#A5ACB9"/>
</g>
<defs>
<clipPath id="clip0">
<rect width="18" height="18" fill="white"/>
</clipPath>
</defs>
</svg>
