<svg width="12" height="12" viewBox="0 0 12 12" fill="none" xmlns="http://www.w3.org/2000/svg">
<path d="M7.79999 5.69491C7.79999 5.24559 8.15816 4.88135 8.59999 4.88135H11.2C11.6418 4.88135 12 5.24559 12 5.69491V11.1864C12 11.6357 11.6418 12 11.2 12H8.59999C8.15816 12 7.79999 11.6357 7.79999 11.1864L7.79999 5.69491Z" fill="#C9F0F5"/>
<path d="M0 0.813558C0 0.364243 0.358172 0 0.799999 0H6.19999C6.64182 0 6.99999 0.364242 6.99999 0.813558V11.1864C6.99999 11.6357 6.64182 12 6.19999 12H0.799999C0.358172 12 0 11.6357 0 11.1864L0 0.813558Z" fill="#C9F0F5"/>
<path d="M7.79999 0.813558C7.79999 0.364243 8.15816 0 8.59999 0L11.2 4.84922e-08C11.6418 4.84922e-08 12 0.364243 12 0.813558V3.05084C12 3.50016 11.6418 3.8644 11.2 3.8644H8.59999C8.15816 3.8644 7.79999 3.50016 7.79999 3.05084V0.813558Z" fill="#82DFE9"/>
</svg>
