<svg width="153" height="188" viewBox="0 0 153 188" fill="none" xmlns="http://www.w3.org/2000/svg">
<g style="mix-blend-mode:screen" opacity="0.75">
<mask id="path-1-inside-1_4159_42365" fill="white">
<path fill-rule="evenodd" clip-rule="evenodd" d="M76.2599 142.645C118.377 142.645 152.52 108.502 152.52 66.3849C152.52 24.2677 118.377 -9.875 76.2599 -9.875C34.1427 -9.875 0 24.2677 0 66.3849C0 108.502 34.1427 142.645 76.2599 142.645ZM75.9605 118.113C104.386 118.113 127.43 95.0694 127.43 66.6438C127.43 38.2182 104.386 15.1747 75.9605 15.1747C47.5349 15.1747 24.4914 38.2182 24.4914 66.6438C24.4914 95.0694 47.5349 118.113 75.9605 118.113Z"/>
</mask>
<path fill-rule="evenodd" clip-rule="evenodd" d="M76.2599 142.645C118.377 142.645 152.52 108.502 152.52 66.3849C152.52 24.2677 118.377 -9.875 76.2599 -9.875C34.1427 -9.875 0 24.2677 0 66.3849C0 108.502 34.1427 142.645 76.2599 142.645ZM75.9605 118.113C104.386 118.113 127.43 95.0694 127.43 66.6438C127.43 38.2182 104.386 15.1747 75.9605 15.1747C47.5349 15.1747 24.4914 38.2182 24.4914 66.6438C24.4914 95.0694 47.5349 118.113 75.9605 118.113Z" fill="#f2f3f5"/>
<path d="M146.52 66.3849C146.52 105.188 115.063 136.645 76.2599 136.645V148.645C121.691 148.645 158.52 111.816 158.52 66.3849H146.52ZM76.2599 -3.875C115.063 -3.875 146.52 27.5814 146.52 66.3849H158.52C158.52 20.954 121.691 -15.875 76.2599 -15.875V-3.875ZM6 66.3849C6 27.5814 37.4564 -3.875 76.2599 -3.875V-15.875C30.829 -15.875 -6 20.954 -6 66.3849H6ZM76.2599 136.645C37.4564 136.645 6 105.188 6 66.3849H-6C-6 111.816 30.829 148.645 76.2599 148.645V136.645ZM121.43 66.6438C121.43 91.7557 101.072 112.113 75.9605 112.113V124.113C107.7 124.113 133.43 98.3831 133.43 66.6438H121.43ZM75.9605 21.1747C101.072 21.1747 121.43 41.5319 121.43 66.6438H133.43C133.43 34.9045 107.7 9.17467 75.9605 9.17467V21.1747ZM30.4914 66.6438C30.4914 41.5319 50.8486 21.1747 75.9605 21.1747V9.17467C44.2212 9.17467 18.4914 34.9045 18.4914 66.6438H30.4914ZM75.9605 112.113C50.8486 112.113 30.4914 91.7557 30.4914 66.6438H18.4914C18.4914 98.3831 44.2212 124.113 75.9605 124.113V112.113Z" fill="#f2f3f5" mask="url(#path-1-inside-1_4159_42365)"/>
<rect x="95.3082" y="129.054" width="27.2357" height="68.0892" rx="1" transform="rotate(-30.0378 95.3082 129.054)" fill="#f2f3f5"/>
</g>
</svg>
