<?xml version="1.0" encoding="UTF-8"?>
<svg focusable="false" width="16px" height="16px" viewBox="0 0 16 16" version="1.1" xmlns="http://www.w3.org/2000/svg" xmlns:xlink="http://www.w3.org/1999/xlink">
    <!-- Generator: Sketch 51.1 (57501) - http://www.bohemiancoding.com/sketch -->
    <title>Search-Btn</title>
    <desc>Created with Sketch.</desc>
    <defs>
        <path d="M8.33739778,7.54856999 L11.4858019,10.6618539 L10.6654839,11.4914257 L7.50787029,8.36903511 C6.72098367,8.97379706 5.73581227,9.33333333 4.66666667,9.33333333 C2.08933783,9.33333333 0,7.2439955 0,4.66666667 C0,2.08933783 2.08933783,0 4.66666667,0 C7.2439955,0 9.33333333,2.08933783 9.33333333,4.66666667 C9.33333333,5.75432627 8.96123734,6.75507819 8.33739778,7.54856999 Z M4.66666667,8.16666667 C6.59966329,8.16666667 8.16666667,6.59966329 8.16666667,4.66666667 C8.16666667,2.73367004 6.59966329,1.16666667 4.66666667,1.16666667 C2.73367004,1.16666667 1.16666667,2.73367004 1.16666667,4.66666667 C1.16666667,6.59966329 2.73367004,8.16666667 4.66666667,8.16666667 Z" id="path-1"></path>
    </defs>
    <g id="Option-2" stroke="none" stroke-width="1" fill="none" fill-rule="evenodd">
        <g id="Option-2---2" transform="translate(-768.000000, -138.000000)">
            <g id="Info" transform="translate(715.000000, 130.000000)">
                <g id="Content" transform="translate(16.000000, 6.000000)">
                    <g id="Search-Btn" transform="translate(37.000000, 2.000000)">
                        <rect id="search-btn-bg" fill="#0D74FF" x="0" y="0" width="16" height="16" rx="2"></rect>
                        <g id="Icons/Info/24/Search" transform="translate(1.000000, 1.000000)">
                            <g id="Search" transform="translate(1.166667, 1.166667)">
                                <mask id="mask-2" fill="white">
                                    <use xlink:href="#path-1"></use>
                                </mask>
                                <use id="Mask" fill="#A2ACBA" fill-rule="nonzero" xlink:href="#path-1"></use>
                                <g id="Colors/Basic/White" mask="url(#mask-2)" fill="#FFFFFF">
                                    <g transform="translate(-1.166667, -1.166667)" id="Color">
                                        <rect x="0" y="0" width="14" height="14"></rect>
                                    </g>
                                </g>
                            </g>
                        </g>
                    </g>
                </g>
            </g>
        </g>
    </g>
</svg>