<svg width="150" height="161" fill="none" xmlns="http://www.w3.org/2000/svg"><g opacity=".1"><mask id="a" fill="#fff"><path fill-rule="evenodd" clip-rule="evenodd" d="M83.83 109.179c30.148 0 54.589-24.44 54.589-54.59C138.419 24.441 113.978 0 83.829 0 53.681 0 29.24 24.44 29.24 54.59c0 30.148 24.44 54.589 54.59 54.589zm0-19.497c19.381 0 35.093-15.712 35.093-35.093 0-19.382-15.712-35.093-35.093-35.093-19.382 0-35.093 15.711-35.093 35.093 0 19.381 15.711 35.093 35.093 35.093z"/></mask><path fill-rule="evenodd" clip-rule="evenodd" d="M83.83 109.179c30.148 0 54.589-24.44 54.589-54.59C138.419 24.441 113.978 0 83.829 0 53.681 0 29.24 24.44 29.24 54.59c0 30.148 24.44 54.589 54.59 54.589zm0-19.497c19.381 0 35.093-15.712 35.093-35.093 0-19.382-15.712-35.093-35.093-35.093-19.382 0-35.093 15.711-35.093 35.093 0 19.381 15.711 35.093 35.093 35.093z" fill="#C0C6CF"/><path d="M132.419 54.59c0 26.834-21.755 48.589-48.59 48.589v12c33.463 0 60.59-27.127 60.59-60.59h-12zM83.829 6c26.835 0 48.59 21.754 48.59 48.59h12c0-33.463-27.127-60.59-60.59-60.59V6zM35.24 54.59C35.24 27.753 56.994 6 83.83 6V-6C50.366-6 23.24 21.127 23.24 54.59h12zm48.59 48.589c-26.836 0-48.59-21.755-48.59-48.59h-12c0 33.463 27.127 60.59 60.59 60.59v-12zm29.093-48.59c0 16.067-13.026 29.093-29.093 29.093v12c22.695 0 41.093-18.398 41.093-41.093h-12zM83.83 25.496c16.067 0 29.093 13.025 29.093 29.093h12c0-22.695-18.398-41.093-41.093-41.093v12zM54.737 54.589c0-16.068 13.025-29.093 29.093-29.093v-12c-22.695 0-41.093 18.398-41.093 41.093h12zM83.83 83.682c-16.068 0-29.093-13.026-29.093-29.093h-12c0 22.695 18.398 41.093 41.093 41.093v-12z" fill="#C0C6CF" mask="url(#a)"/><circle cx="1.84" cy="69.573" r="1.84" fill="#777E8B"/><circle cx="9.798" cy="69.573" r="1.84" fill="#777E8B"/><circle cx="17.756" cy="69.573" r="1.84" fill="#777E8B"/><circle cx="25.713" cy="69.573" r="1.84" fill="#777E8B"/><circle cx="33.671" cy="69.573" r="1.84" fill="#777E8B"/><circle cx="1.84" cy="77.531" r="1.84" fill="#777E8B"/><circle cx="9.798" cy="77.531" r="1.84" fill="#777E8B"/><circle cx="17.756" cy="77.531" r="1.84" fill="#777E8B"/><circle cx="25.713" cy="77.531" r="1.84" fill="#777E8B"/><circle cx="33.671" cy="77.531" r="1.84" fill="#777E8B"/><circle cx="1.84" cy="85.49" r="1.84" fill="#777E8B"/><circle cx="9.798" cy="85.49" r="1.84" fill="#777E8B"/><circle cx="17.756" cy="85.49" r="1.84" fill="#777E8B"/><circle cx="25.713" cy="85.49" r="1.84" fill="#777E8B"/><circle cx="33.671" cy="85.49" r="1.84" fill="#777E8B"/><circle cx="1.84" cy="93.446" r="1.84" fill="#777E8B"/><circle cx="9.798" cy="93.446" r="1.84" fill="#777E8B"/><circle cx="17.756" cy="93.446" r="1.84" fill="#777E8B"/><circle cx="25.713" cy="93.446" r="1.84" fill="#777E8B"/><circle cx="33.671" cy="93.446" r="1.84" fill="#777E8B"/><circle cx="1.84" cy="100.742" r="1.84" fill="#777E8B"/><circle cx="9.798" cy="100.742" r="1.84" fill="#777E8B"/><circle cx="17.756" cy="100.742" r="1.84" fill="#777E8B"/><circle cx="25.713" cy="100.742" r="1.84" fill="#777E8B"/><circle cx="33.671" cy="100.742" r="1.84" fill="#777E8B"/><circle cx="1.84" cy="109.327" r="1.84" fill="#777E8B"/><circle cx="9.798" cy="109.328" r="1.84" fill="#777E8B"/><circle cx="17.756" cy="109.328" r="1.84" fill="#777E8B"/><circle cx="25.713" cy="109.328" r="1.84" fill="#777E8B"/><circle cx="33.671" cy="109.328" r="1.84" fill="#777E8B"/><circle cx="1.84" cy="117.286" r="1.84" fill="#777E8B"/><circle cx="9.798" cy="117.286" r="1.84" fill="#777E8B"/><circle cx="17.756" cy="117.286" r="1.84" fill="#777E8B"/><circle cx="25.713" cy="117.286" r="1.84" fill="#777E8B"/><circle cx="33.671" cy="117.286" r="1.84" fill="#777E8B"/><circle cx="1.84" cy="125.246" r="1.84" fill="#777E8B"/><circle cx="9.798" cy="125.246" r="1.84" fill="#777E8B"/><circle cx="17.756" cy="125.246" r="1.84" fill="#777E8B"/><circle cx="25.713" cy="125.246" r="1.84" fill="#777E8B"/><circle cx="33.671" cy="125.246" r="1.84" fill="#777E8B"/><circle cx="1.84" cy="133.202" r="1.84" fill="#777E8B"/><circle cx="9.798" cy="133.202" r="1.84" fill="#777E8B"/><circle cx="17.756" cy="133.202" r="1.84" fill="#777E8B"/><circle cx="25.713" cy="133.202" r="1.84" fill="#777E8B"/><circle cx="33.671" cy="133.202" r="1.84" fill="#777E8B"/><circle cx="1.84" cy="140.496" r="1.84" fill="#777E8B"/><circle cx="9.798" cy="140.496" r="1.84" fill="#777E8B"/><circle cx="17.756" cy="140.496" r="1.84" fill="#777E8B"/><circle cx="25.713" cy="140.496" r="1.84" fill="#777E8B"/><circle cx="33.671" cy="140.496" r="1.84" fill="#777E8B"/><circle cx="42.257" cy="69.574" r="1.84" fill="#777E8B"/><circle cx="50.215" cy="69.573" r="1.84" fill="#777E8B"/><circle cx="58.173" cy="69.573" r="1.84" fill="#777E8B"/><circle cx="66.131" cy="69.573" r="1.84" fill="#777E8B"/><circle cx="74.088" cy="69.573" r="1.84" fill="#777E8B"/><circle cx="42.258" cy="77.531" r="1.84" fill="#777E8B"/><circle cx="50.215" cy="77.531" r="1.84" fill="#777E8B"/><circle cx="58.173" cy="77.531" r="1.84" fill="#777E8B"/><circle cx="66.131" cy="77.531" r="1.84" fill="#777E8B"/><circle cx="74.088" cy="77.531" r="1.84" fill="#777E8B"/><circle cx="42.258" cy="85.49" r="1.84" fill="#777E8B"/><circle cx="50.215" cy="85.49" r="1.84" fill="#777E8B"/><circle cx="58.173" cy="85.49" r="1.84" fill="#777E8B"/><circle cx="66.131" cy="85.49" r="1.84" fill="#777E8B"/><circle cx="74.088" cy="85.49" r="1.84" fill="#777E8B"/><circle cx="42.258" cy="93.446" r="1.84" fill="#777E8B"/><circle cx="50.215" cy="93.446" r="1.84" fill="#777E8B"/><circle cx="58.173" cy="93.446" r="1.84" fill="#777E8B"/><circle cx="66.131" cy="93.446" r="1.84" fill="#777E8B"/><circle cx="74.088" cy="93.446" r="1.84" fill="#777E8B"/><circle cx="42.258" cy="100.742" r="1.84" fill="#777E8B"/><circle cx="50.215" cy="100.742" r="1.84" fill="#777E8B"/><circle cx="58.173" cy="100.742" r="1.84" fill="#777E8B"/><circle cx="66.131" cy="100.742" r="1.84" fill="#777E8B"/><circle cx="74.088" cy="100.742" r="1.84" fill="#777E8B"/><circle cx="42.257" cy="109.327" r="1.84" fill="#777E8B"/><circle cx="50.215" cy="109.328" r="1.84" fill="#777E8B"/><circle cx="58.173" cy="109.328" r="1.84" fill="#777E8B"/><circle cx="66.131" cy="109.328" r="1.84" fill="#777E8B"/><circle cx="74.088" cy="109.328" r="1.84" fill="#777E8B"/><circle cx="42.258" cy="117.286" r="1.84" fill="#777E8B"/><circle cx="50.215" cy="117.286" r="1.84" fill="#777E8B"/><circle cx="58.173" cy="117.286" r="1.84" fill="#777E8B"/><circle cx="66.131" cy="117.286" r="1.84" fill="#777E8B"/><circle cx="74.088" cy="117.286" r="1.84" fill="#777E8B"/><circle cx="42.258" cy="125.246" r="1.84" fill="#777E8B"/><circle cx="50.215" cy="125.246" r="1.84" fill="#777E8B"/><circle cx="58.173" cy="125.246" r="1.84" fill="#777E8B"/><circle cx="66.131" cy="125.246" r="1.84" fill="#777E8B"/><circle cx="74.088" cy="125.246" r="1.84" fill="#777E8B"/><circle cx="42.258" cy="133.202" r="1.84" fill="#777E8B"/><circle cx="50.215" cy="133.202" r="1.84" fill="#777E8B"/><circle cx="58.173" cy="133.202" r="1.84" fill="#777E8B"/><circle cx="66.131" cy="133.202" r="1.84" fill="#777E8B"/><circle cx="74.088" cy="133.202" r="1.84" fill="#777E8B"/><circle cx="42.258" cy="140.496" r="1.84" fill="#777E8B"/><circle cx="50.215" cy="140.496" r="1.84" fill="#777E8B"/><circle cx="58.173" cy="140.496" r="1.84" fill="#777E8B"/><circle cx="66.131" cy="140.496" r="1.84" fill="#777E8B"/><circle cx="74.088" cy="140.496" r="1.84" fill="#777E8B"/><rect x="97.478" y="99.444" width="19.496" height="70.017" rx="1" transform="rotate(-30.038 97.478 99.444)" fill="#C0C6CF"/></g></svg>