<svg width="192" height="121" viewBox="0 0 192 121" fill="none" xmlns="http://www.w3.org/2000/svg">
<mask id="mask0" mask-type="alpha" maskUnits="userSpaceOnUse" x="0" y="1" width="192" height="120">
<rect y="1" width="192" height="120" rx="6" fill="#FDE9AF"/>
</mask>
<g mask="url(#mask0)">
<rect x="-34" y="127" width="134" height="255" rx="6" transform="rotate(-90 -34 127)" fill="#F3D47E"/>
<path opacity="0.6" fill-rule="evenodd" clip-rule="evenodd" d="M14.2804 15C14.9878 15 15.5612 15.5683 15.5612 16.2692C15.5612 16.9702 14.9878 17.5385 14.2804 17.5385C13.573 17.5385 12.9995 16.9702 12.9995 16.2692C12.9995 15.5683 13.573 15 14.2804 15ZM15.5612 26.4233C15.5612 25.7223 14.9878 25.1541 14.2804 25.1541C13.573 25.1541 12.9995 25.7223 12.9995 26.4233C12.9995 27.1243 13.573 27.6925 14.2804 27.6925C14.9878 27.6925 15.5612 27.1243 15.5612 26.4233ZM14.2804 35.307C14.9878 35.307 15.5612 35.8752 15.5612 36.5762C15.5612 37.2772 14.9878 37.8454 14.2804 37.8454C13.573 37.8454 12.9995 37.2772 12.9995 36.5762C12.9995 35.8752 13.573 35.307 14.2804 35.307ZM14.2804 45.4608C14.9878 45.4608 15.5612 46.0291 15.5612 46.73C15.5612 47.431 14.9878 47.9993 14.2804 47.9993C13.573 47.9993 12.9995 47.431 12.9995 46.73C12.9995 46.029 13.573 45.4608 14.2804 45.4608ZM24.5274 45.4617C25.2348 45.4617 25.8083 46.03 25.8083 46.7309C25.8083 47.4319 25.2348 48.0002 24.5274 48.0002C23.82 48.0002 23.2466 47.4319 23.2466 46.7309C23.2466 46.03 23.82 45.4617 24.5274 45.4617ZM36.0554 46.7309C36.0554 46.03 35.4819 45.4617 34.7745 45.4617C34.0671 45.4617 33.4937 46.03 33.4937 46.7309C33.4937 47.4319 34.0671 48.0002 34.7745 48.0002C35.4819 48.0002 36.0554 47.4319 36.0554 46.7309ZM45.0206 45.4617C45.728 45.4617 46.3015 46.03 46.3015 46.7309C46.3015 47.4319 45.728 48.0002 45.0206 48.0002C44.3132 48.0002 43.7397 47.4319 43.7397 46.7309C43.7397 46.03 44.3132 45.4617 45.0206 45.4617ZM56.5485 46.7309C56.5485 46.03 55.9751 45.4617 55.2677 45.4617C54.5603 45.4617 53.9868 46.03 53.9868 46.7309C53.9868 47.4319 54.5603 48.0002 55.2677 48.0002C55.9751 48.0002 56.5485 47.4319 56.5485 46.7309ZM25.8083 36.5762C25.8083 35.8752 25.2348 35.307 24.5274 35.307C23.82 35.307 23.2466 35.8752 23.2466 36.5762C23.2466 37.2772 23.82 37.8454 24.5274 37.8454C25.2348 37.8454 25.8083 37.2772 25.8083 36.5762ZM34.7755 35.307C35.4829 35.307 36.0564 35.8752 36.0564 36.5762C36.0564 37.2772 35.4829 37.8454 34.7755 37.8454C34.0681 37.8454 33.4946 37.2772 33.4946 36.5762C33.4946 35.8752 34.0681 35.307 34.7755 35.307ZM46.3015 36.5762C46.3015 35.8752 45.728 35.307 45.0206 35.307C44.3132 35.307 43.7397 35.8752 43.7397 36.5762C43.7397 37.2772 44.3132 37.8454 45.0206 37.8454C45.728 37.8454 46.3015 37.2772 46.3015 36.5762ZM55.2677 35.307C55.9751 35.307 56.5485 35.8752 56.5485 36.5762C56.5485 37.2772 55.9751 37.8454 55.2677 37.8454C54.5603 37.8454 53.9868 37.2772 53.9868 36.5762C53.9868 35.8752 54.5603 35.307 55.2677 35.307ZM24.5274 25.1541C25.2348 25.1541 25.8083 25.7223 25.8083 26.4233C25.8083 27.1243 25.2348 27.6925 24.5274 27.6925C23.82 27.6925 23.2466 27.1243 23.2466 26.4233C23.2466 25.7223 23.82 25.1541 24.5274 25.1541ZM36.0564 26.4233C36.0564 25.7223 35.4829 25.1541 34.7755 25.1541C34.0681 25.1541 33.4946 25.7223 33.4946 26.4233C33.4946 27.1243 34.0681 27.6925 34.7755 27.6925C35.4829 27.6925 36.0564 27.1243 36.0564 26.4233ZM45.0206 25.1541C45.728 25.1541 46.3015 25.7223 46.3015 26.4233C46.3015 27.1243 45.728 27.6925 45.0206 27.6925C44.3132 27.6925 43.7397 27.1243 43.7397 26.4233C43.7397 25.7223 44.3132 25.1541 45.0206 25.1541ZM56.5485 26.4233C56.5485 25.7223 55.9751 25.1541 55.2677 25.1541C54.5603 25.1541 53.9868 25.7223 53.9868 26.4233C53.9868 27.1243 54.5603 27.6925 55.2677 27.6925C55.9751 27.6925 56.5485 27.1243 56.5485 26.4233ZM25.8073 16.2692C25.8073 15.5683 25.2339 15 24.5265 15C23.8191 15 23.2456 15.5683 23.2456 16.2692C23.2456 16.9702 23.8191 17.5385 24.5265 17.5385C25.2339 17.5385 25.8073 16.9702 25.8073 16.2692ZM34.7755 15C35.4829 15 36.0564 15.5683 36.0564 16.2692C36.0564 16.9702 35.4829 17.5385 34.7755 17.5385C34.0681 17.5385 33.4946 16.9702 33.4946 16.2692C33.4946 15.5683 34.0681 15 34.7755 15ZM46.3015 16.2692C46.3015 15.5683 45.728 15 45.0206 15C44.3132 15 43.7397 15.5683 43.7397 16.2692C43.7397 16.9702 44.3132 17.5385 45.0206 17.5385C45.728 17.5385 46.3015 16.9702 46.3015 16.2692ZM55.2677 15C55.9751 15 56.5485 15.5683 56.5485 16.2692C56.5485 16.9702 55.9751 17.5385 55.2677 17.5385C54.5603 17.5385 53.9868 16.9702 53.9868 16.2692C53.9868 15.5683 54.5603 15 55.2677 15ZM66.5056 46.73C66.5056 46.0291 65.9321 45.4608 65.2247 45.4608C64.5173 45.4608 63.9438 46.029 63.9438 46.73C63.9438 47.431 64.5173 47.9993 65.2247 47.9993C65.9321 47.9993 66.5056 47.431 66.5056 46.73ZM75.4708 45.4617C76.1782 45.4617 76.7517 46.03 76.7517 46.7309C76.7517 47.4319 76.1782 48.0002 75.4708 48.0002C74.7634 48.0002 74.1899 47.4319 74.1899 46.7309C74.1899 46.03 74.7634 45.4617 75.4708 45.4617ZM86.9997 46.7309C86.9997 46.03 86.4262 45.4617 85.7188 45.4617C85.0114 45.4617 84.438 46.03 84.438 46.7309C84.438 47.4319 85.0114 48.0002 85.7188 48.0002C86.4262 48.0002 86.9997 47.4319 86.9997 46.7309ZM65.2247 35.307C65.9321 35.307 66.5056 35.8752 66.5056 36.5762C66.5056 37.2772 65.9321 37.8454 65.2247 37.8454C64.5173 37.8454 63.9438 37.2772 63.9438 36.5762C63.9438 35.8752 64.5173 35.307 65.2247 35.307ZM76.7517 36.5762C76.7517 35.8752 76.1782 35.307 75.4708 35.307C74.7634 35.307 74.1899 35.8752 74.1899 36.5762C74.1899 37.2772 74.7634 37.8454 75.4708 37.8454C76.1782 37.8454 76.7517 37.2772 76.7517 36.5762ZM85.7188 35.307C86.4262 35.307 86.9997 35.8752 86.9997 36.5762C86.9997 37.2772 86.4262 37.8454 85.7188 37.8454C85.0114 37.8454 84.438 37.2772 84.438 36.5762C84.438 35.8752 85.0114 35.307 85.7188 35.307ZM66.5056 26.4233C66.5056 25.7223 65.9321 25.1541 65.2247 25.1541C64.5173 25.1541 63.9438 25.7223 63.9438 26.4233C63.9438 27.1243 64.5173 27.6925 65.2247 27.6925C65.9321 27.6925 66.5056 27.1243 66.5056 26.4233ZM75.4708 25.1541C76.1782 25.1541 76.7517 25.7223 76.7517 26.4233C76.7517 27.1243 76.1782 27.6925 75.4708 27.6925C74.7634 27.6925 74.1899 27.1243 74.1899 26.4233C74.1899 25.7223 74.7634 25.1541 75.4708 25.1541ZM86.9997 26.4233C86.9997 25.7223 86.4262 25.1541 85.7188 25.1541C85.0114 25.1541 84.438 25.7223 84.438 26.4233C84.438 27.1243 85.0114 27.6925 85.7188 27.6925C86.4262 27.6925 86.9997 27.1243 86.9997 26.4233ZM65.2247 15C65.9321 15 66.5056 15.5683 66.5056 16.2692C66.5056 16.9702 65.9321 17.5385 65.2247 17.5385C64.5173 17.5385 63.9438 16.9702 63.9438 16.2692C63.9438 15.5683 64.5173 15 65.2247 15ZM76.7517 16.2692C76.7517 15.5683 76.1782 15 75.4708 15C74.7634 15 74.1899 15.5683 74.1899 16.2692C74.1899 16.9702 74.7634 17.5385 75.4708 17.5385C76.1782 17.5385 76.7517 16.9702 76.7517 16.2692ZM85.7188 15C86.4262 15 86.9997 15.5683 86.9997 16.2692C86.9997 16.9702 86.4262 17.5385 85.7188 17.5385C85.0114 17.5385 84.438 16.9702 84.438 16.2692C84.438 15.5683 85.0114 15 85.7188 15Z" fill="white"/>
<path opacity="0.6" fill-rule="evenodd" clip-rule="evenodd" d="M14.2804 56C14.9878 56 15.5612 56.5683 15.5612 57.2692C15.5612 57.9702 14.9878 58.5385 14.2804 58.5385C13.573 58.5385 12.9995 57.9702 12.9995 57.2692C12.9995 56.5683 13.573 56 14.2804 56ZM15.5612 67.4233C15.5612 66.7223 14.9878 66.1541 14.2804 66.1541C13.573 66.1541 12.9995 66.7223 12.9995 67.4233C12.9995 68.1243 13.573 68.6925 14.2804 68.6925C14.9878 68.6925 15.5612 68.1243 15.5612 67.4233ZM14.2804 76.307C14.9878 76.307 15.5612 76.8752 15.5612 77.5762C15.5612 78.2772 14.9878 78.8454 14.2804 78.8454C13.573 78.8454 12.9995 78.2772 12.9995 77.5762C12.9995 76.8752 13.573 76.307 14.2804 76.307ZM14.2804 86.4608C14.9878 86.4608 15.5612 87.0291 15.5612 87.73C15.5612 88.431 14.9878 88.9993 14.2804 88.9993C13.573 88.9993 12.9995 88.431 12.9995 87.73C12.9995 87.029 13.573 86.4608 14.2804 86.4608ZM24.5274 86.4617C25.2348 86.4617 25.8083 87.03 25.8083 87.7309C25.8083 88.4319 25.2348 89.0002 24.5274 89.0002C23.82 89.0002 23.2466 88.4319 23.2466 87.7309C23.2466 87.03 23.82 86.4617 24.5274 86.4617ZM36.0554 87.7309C36.0554 87.03 35.4819 86.4617 34.7745 86.4617C34.0671 86.4617 33.4937 87.03 33.4937 87.7309C33.4937 88.4319 34.0671 89.0002 34.7745 89.0002C35.4819 89.0002 36.0554 88.4319 36.0554 87.7309ZM45.0206 86.4617C45.728 86.4617 46.3015 87.03 46.3015 87.7309C46.3015 88.4319 45.728 89.0002 45.0206 89.0002C44.3132 89.0002 43.7397 88.4319 43.7397 87.7309C43.7397 87.03 44.3132 86.4617 45.0206 86.4617ZM56.5485 87.7309C56.5485 87.03 55.9751 86.4617 55.2677 86.4617C54.5603 86.4617 53.9868 87.03 53.9868 87.7309C53.9868 88.4319 54.5603 89.0002 55.2677 89.0002C55.9751 89.0002 56.5485 88.4319 56.5485 87.7309ZM25.8083 77.5762C25.8083 76.8752 25.2348 76.307 24.5274 76.307C23.82 76.307 23.2466 76.8752 23.2466 77.5762C23.2466 78.2772 23.82 78.8454 24.5274 78.8454C25.2348 78.8454 25.8083 78.2772 25.8083 77.5762ZM34.7755 76.307C35.4829 76.307 36.0564 76.8752 36.0564 77.5762C36.0564 78.2772 35.4829 78.8454 34.7755 78.8454C34.0681 78.8454 33.4946 78.2772 33.4946 77.5762C33.4946 76.8752 34.0681 76.307 34.7755 76.307ZM46.3015 77.5762C46.3015 76.8752 45.728 76.307 45.0206 76.307C44.3132 76.307 43.7397 76.8752 43.7397 77.5762C43.7397 78.2772 44.3132 78.8454 45.0206 78.8454C45.728 78.8454 46.3015 78.2772 46.3015 77.5762ZM55.2677 76.307C55.9751 76.307 56.5485 76.8752 56.5485 77.5762C56.5485 78.2772 55.9751 78.8454 55.2677 78.8454C54.5603 78.8454 53.9868 78.2772 53.9868 77.5762C53.9868 76.8752 54.5603 76.307 55.2677 76.307ZM24.5274 66.1541C25.2348 66.1541 25.8083 66.7223 25.8083 67.4233C25.8083 68.1243 25.2348 68.6925 24.5274 68.6925C23.82 68.6925 23.2466 68.1243 23.2466 67.4233C23.2466 66.7223 23.82 66.1541 24.5274 66.1541ZM36.0564 67.4233C36.0564 66.7223 35.4829 66.1541 34.7755 66.1541C34.0681 66.1541 33.4946 66.7223 33.4946 67.4233C33.4946 68.1243 34.0681 68.6925 34.7755 68.6925C35.4829 68.6925 36.0564 68.1243 36.0564 67.4233ZM45.0206 66.1541C45.728 66.1541 46.3015 66.7223 46.3015 67.4233C46.3015 68.1243 45.728 68.6925 45.0206 68.6925C44.3132 68.6925 43.7397 68.1243 43.7397 67.4233C43.7397 66.7223 44.3132 66.1541 45.0206 66.1541ZM56.5485 67.4233C56.5485 66.7223 55.9751 66.1541 55.2677 66.1541C54.5603 66.1541 53.9868 66.7223 53.9868 67.4233C53.9868 68.1243 54.5603 68.6925 55.2677 68.6925C55.9751 68.6925 56.5485 68.1243 56.5485 67.4233ZM25.8073 57.2692C25.8073 56.5683 25.2339 56 24.5265 56C23.8191 56 23.2456 56.5683 23.2456 57.2692C23.2456 57.9702 23.8191 58.5385 24.5265 58.5385C25.2339 58.5385 25.8073 57.9702 25.8073 57.2692ZM34.7755 56C35.4829 56 36.0564 56.5683 36.0564 57.2692C36.0564 57.9702 35.4829 58.5385 34.7755 58.5385C34.0681 58.5385 33.4946 57.9702 33.4946 57.2692C33.4946 56.5683 34.0681 56 34.7755 56ZM46.3015 57.2692C46.3015 56.5683 45.728 56 45.0206 56C44.3132 56 43.7397 56.5683 43.7397 57.2692C43.7397 57.9702 44.3132 58.5385 45.0206 58.5385C45.728 58.5385 46.3015 57.9702 46.3015 57.2692ZM55.2677 56C55.9751 56 56.5485 56.5683 56.5485 57.2692C56.5485 57.9702 55.9751 58.5385 55.2677 58.5385C54.5603 58.5385 53.9868 57.9702 53.9868 57.2692C53.9868 56.5683 54.5603 56 55.2677 56ZM66.5056 87.73C66.5056 87.0291 65.9321 86.4608 65.2247 86.4608C64.5173 86.4608 63.9438 87.029 63.9438 87.73C63.9438 88.431 64.5173 88.9993 65.2247 88.9993C65.9321 88.9993 66.5056 88.431 66.5056 87.73ZM75.4708 86.4617C76.1782 86.4617 76.7517 87.03 76.7517 87.7309C76.7517 88.4319 76.1782 89.0002 75.4708 89.0002C74.7634 89.0002 74.1899 88.4319 74.1899 87.7309C74.1899 87.03 74.7634 86.4617 75.4708 86.4617ZM86.9997 87.7309C86.9997 87.03 86.4262 86.4617 85.7188 86.4617C85.0114 86.4617 84.438 87.03 84.438 87.7309C84.438 88.4319 85.0114 89.0002 85.7188 89.0002C86.4262 89.0002 86.9997 88.4319 86.9997 87.7309ZM65.2247 76.307C65.9321 76.307 66.5056 76.8752 66.5056 77.5762C66.5056 78.2772 65.9321 78.8454 65.2247 78.8454C64.5173 78.8454 63.9438 78.2772 63.9438 77.5762C63.9438 76.8752 64.5173 76.307 65.2247 76.307ZM76.7517 77.5762C76.7517 76.8752 76.1782 76.307 75.4708 76.307C74.7634 76.307 74.1899 76.8752 74.1899 77.5762C74.1899 78.2772 74.7634 78.8454 75.4708 78.8454C76.1782 78.8454 76.7517 78.2772 76.7517 77.5762ZM85.7188 76.307C86.4262 76.307 86.9997 76.8752 86.9997 77.5762C86.9997 78.2772 86.4262 78.8454 85.7188 78.8454C85.0114 78.8454 84.438 78.2772 84.438 77.5762C84.438 76.8752 85.0114 76.307 85.7188 76.307ZM66.5056 67.4233C66.5056 66.7223 65.9321 66.1541 65.2247 66.1541C64.5173 66.1541 63.9438 66.7223 63.9438 67.4233C63.9438 68.1243 64.5173 68.6925 65.2247 68.6925C65.9321 68.6925 66.5056 68.1243 66.5056 67.4233ZM75.4708 66.1541C76.1782 66.1541 76.7517 66.7223 76.7517 67.4233C76.7517 68.1243 76.1782 68.6925 75.4708 68.6925C74.7634 68.6925 74.1899 68.1243 74.1899 67.4233C74.1899 66.7223 74.7634 66.1541 75.4708 66.1541ZM86.9997 67.4233C86.9997 66.7223 86.4262 66.1541 85.7188 66.1541C85.0114 66.1541 84.438 66.7223 84.438 67.4233C84.438 68.1243 85.0114 68.6925 85.7188 68.6925C86.4262 68.6925 86.9997 68.1243 86.9997 67.4233ZM65.2247 56C65.9321 56 66.5056 56.5683 66.5056 57.2692C66.5056 57.9702 65.9321 58.5385 65.2247 58.5385C64.5173 58.5385 63.9438 57.9702 63.9438 57.2692C63.9438 56.5683 64.5173 56 65.2247 56ZM76.7517 57.2692C76.7517 56.5683 76.1782 56 75.4708 56C74.7634 56 74.1899 56.5683 74.1899 57.2692C74.1899 57.9702 74.7634 58.5385 75.4708 58.5385C76.1782 58.5385 76.7517 57.9702 76.7517 57.2692ZM85.7188 56C86.4262 56 86.9997 56.5683 86.9997 57.2692C86.9997 57.9702 86.4262 58.5385 85.7188 58.5385C85.0114 58.5385 84.438 57.9702 84.438 57.2692C84.438 56.5683 85.0114 56 85.7188 56Z" fill="white"/>
<path opacity="0.6" fill-rule="evenodd" clip-rule="evenodd" d="M14.2804 96C14.9878 96 15.5612 96.5683 15.5612 97.2692C15.5612 97.9702 14.9878 98.5385 14.2804 98.5385C13.573 98.5385 12.9995 97.9702 12.9995 97.2692C12.9995 96.5683 13.573 96 14.2804 96ZM14.2804 106.154C14.9878 106.154 15.5612 106.722 15.5612 107.423C15.5612 108.124 14.9878 108.693 14.2804 108.693C13.573 108.693 12.9995 108.124 12.9995 107.423C12.9995 106.722 13.573 106.154 14.2804 106.154ZM24.5274 106.154C25.2348 106.154 25.8083 106.722 25.8083 107.423C25.8083 108.124 25.2348 108.693 24.5274 108.693C23.82 108.693 23.2466 108.124 23.2466 107.423C23.2466 106.722 23.82 106.154 24.5274 106.154ZM36.0564 107.423C36.0564 106.722 35.4829 106.154 34.7755 106.154C34.0681 106.154 33.4946 106.722 33.4946 107.423C33.4946 108.124 34.0681 108.693 34.7755 108.693C35.4829 108.693 36.0564 108.124 36.0564 107.423ZM45.0206 106.154C45.728 106.154 46.3015 106.722 46.3015 107.423C46.3015 108.124 45.728 108.693 45.0206 108.693C44.3132 108.693 43.7397 108.124 43.7397 107.423C43.7397 106.722 44.3132 106.154 45.0206 106.154ZM56.5485 107.423C56.5485 106.722 55.9751 106.154 55.2677 106.154C54.5603 106.154 53.9868 106.722 53.9868 107.423C53.9868 108.124 54.5603 108.693 55.2677 108.693C55.9751 108.693 56.5485 108.124 56.5485 107.423ZM25.8073 97.2692C25.8073 96.5683 25.2339 96 24.5265 96C23.8191 96 23.2456 96.5683 23.2456 97.2692C23.2456 97.9702 23.8191 98.5385 24.5265 98.5385C25.2339 98.5385 25.8073 97.9702 25.8073 97.2692ZM34.7755 96C35.4829 96 36.0564 96.5683 36.0564 97.2692C36.0564 97.9702 35.4829 98.5385 34.7755 98.5385C34.0681 98.5385 33.4946 97.9702 33.4946 97.2692C33.4946 96.5683 34.0681 96 34.7755 96ZM46.3015 97.2692C46.3015 96.5683 45.728 96 45.0206 96C44.3132 96 43.7397 96.5683 43.7397 97.2692C43.7397 97.9702 44.3132 98.5385 45.0206 98.5385C45.728 98.5385 46.3015 97.9702 46.3015 97.2692ZM55.2677 96C55.9751 96 56.5485 96.5683 56.5485 97.2692C56.5485 97.9702 55.9751 98.5385 55.2677 98.5385C54.5603 98.5385 53.9868 97.9702 53.9868 97.2692C53.9868 96.5683 54.5603 96 55.2677 96ZM66.5056 107.423C66.5056 106.722 65.9321 106.154 65.2247 106.154C64.5173 106.154 63.9438 106.722 63.9438 107.423C63.9438 108.124 64.5173 108.693 65.2247 108.693C65.9321 108.693 66.5056 108.124 66.5056 107.423ZM75.4708 106.154C76.1782 106.154 76.7517 106.722 76.7517 107.423C76.7517 108.124 76.1782 108.693 75.4708 108.693C74.7634 108.693 74.1899 108.124 74.1899 107.423C74.1899 106.722 74.7634 106.154 75.4708 106.154ZM86.9997 107.423C86.9997 106.722 86.4262 106.154 85.7188 106.154C85.0114 106.154 84.438 106.722 84.438 107.423C84.438 108.124 85.0114 108.693 85.7188 108.693C86.4262 108.693 86.9997 108.124 86.9997 107.423ZM65.2247 96C65.9321 96 66.5056 96.5683 66.5056 97.2692C66.5056 97.9702 65.9321 98.5385 65.2247 98.5385C64.5173 98.5385 63.9438 97.9702 63.9438 97.2692C63.9438 96.5683 64.5173 96 65.2247 96ZM76.7517 97.2692C76.7517 96.5683 76.1782 96 75.4708 96C74.7634 96 74.1899 96.5683 74.1899 97.2692C74.1899 97.9702 74.7634 98.5385 75.4708 98.5385C76.1782 98.5385 76.7517 97.9702 76.7517 97.2692ZM85.7188 96C86.4262 96 86.9997 96.5683 86.9997 97.2692C86.9997 97.9702 86.4262 98.5385 85.7188 98.5385C85.0114 98.5385 84.438 97.9702 84.438 97.2692C84.438 96.5683 85.0114 96 85.7188 96Z" fill="white"/>
<path opacity="0.6" fill-rule="evenodd" clip-rule="evenodd" d="M96.2818 15C96.9892 15 97.5627 15.5683 97.5627 16.2692C97.5627 16.9702 96.9892 17.5385 96.2818 17.5385C95.5744 17.5385 95.001 16.9702 95.001 16.2692C95.001 15.5683 95.5744 15 96.2818 15ZM97.5627 26.4233C97.5627 25.7223 96.9892 25.1541 96.2818 25.1541C95.5744 25.1541 95.001 25.7223 95.001 26.4233C95.001 27.1243 95.5744 27.6925 96.2818 27.6925C96.9892 27.6925 97.5627 27.1243 97.5627 26.4233ZM96.2818 35.307C96.9892 35.307 97.5627 35.8752 97.5627 36.5762C97.5627 37.2772 96.9892 37.8454 96.2818 37.8454C95.5744 37.8454 95.001 37.2772 95.001 36.5762C95.001 35.8752 95.5744 35.307 96.2818 35.307ZM96.2818 45.4608C96.9892 45.4608 97.5627 46.0291 97.5627 46.73C97.5627 47.431 96.9892 47.9993 96.2818 47.9993C95.5744 47.9993 95.001 47.431 95.001 46.73C95.001 46.029 95.5744 45.4608 96.2818 45.4608ZM106.529 45.4617C107.236 45.4617 107.81 46.03 107.81 46.7309C107.81 47.4319 107.236 48.0002 106.529 48.0002C105.822 48.0002 105.248 47.4319 105.248 46.7309C105.248 46.03 105.822 45.4617 106.529 45.4617ZM118.057 46.7309C118.057 46.03 117.483 45.4617 116.776 45.4617C116.069 45.4617 115.495 46.03 115.495 46.7309C115.495 47.4319 116.069 48.0002 116.776 48.0002C117.483 48.0002 118.057 47.4319 118.057 46.7309ZM127.022 45.4617C127.729 45.4617 128.303 46.03 128.303 46.7309C128.303 47.4319 127.729 48.0002 127.022 48.0002C126.315 48.0002 125.741 47.4319 125.741 46.7309C125.741 46.03 126.315 45.4617 127.022 45.4617ZM138.55 46.7309C138.55 46.03 137.977 45.4617 137.269 45.4617C136.562 45.4617 135.988 46.03 135.988 46.7309C135.988 47.4319 136.562 48.0002 137.269 48.0002C137.977 48.0002 138.55 47.4319 138.55 46.7309ZM107.81 36.5762C107.81 35.8752 107.236 35.307 106.529 35.307C105.822 35.307 105.248 35.8752 105.248 36.5762C105.248 37.2772 105.822 37.8454 106.529 37.8454C107.236 37.8454 107.81 37.2772 107.81 36.5762ZM116.777 35.307C117.484 35.307 118.058 35.8752 118.058 36.5762C118.058 37.2772 117.484 37.8454 116.777 37.8454C116.07 37.8454 115.496 37.2772 115.496 36.5762C115.496 35.8752 116.07 35.307 116.777 35.307ZM128.303 36.5762C128.303 35.8752 127.729 35.307 127.022 35.307C126.315 35.307 125.741 35.8752 125.741 36.5762C125.741 37.2772 126.315 37.8454 127.022 37.8454C127.729 37.8454 128.303 37.2772 128.303 36.5762ZM137.269 35.307C137.977 35.307 138.55 35.8752 138.55 36.5762C138.55 37.2772 137.977 37.8454 137.269 37.8454C136.562 37.8454 135.988 37.2772 135.988 36.5762C135.988 35.8752 136.562 35.307 137.269 35.307ZM106.529 25.1541C107.236 25.1541 107.81 25.7223 107.81 26.4233C107.81 27.1243 107.236 27.6925 106.529 27.6925C105.822 27.6925 105.248 27.1243 105.248 26.4233C105.248 25.7223 105.822 25.1541 106.529 25.1541ZM118.058 26.4233C118.058 25.7223 117.484 25.1541 116.777 25.1541C116.07 25.1541 115.496 25.7223 115.496 26.4233C115.496 27.1243 116.07 27.6925 116.777 27.6925C117.484 27.6925 118.058 27.1243 118.058 26.4233ZM127.022 25.1541C127.729 25.1541 128.303 25.7223 128.303 26.4233C128.303 27.1243 127.729 27.6925 127.022 27.6925C126.315 27.6925 125.741 27.1243 125.741 26.4233C125.741 25.7223 126.315 25.1541 127.022 25.1541ZM138.55 26.4233C138.55 25.7223 137.977 25.1541 137.269 25.1541C136.562 25.1541 135.988 25.7223 135.988 26.4233C135.988 27.1243 136.562 27.6925 137.269 27.6925C137.977 27.6925 138.55 27.1243 138.55 26.4233ZM107.809 16.2692C107.809 15.5683 107.235 15 106.528 15C105.821 15 105.247 15.5683 105.247 16.2692C105.247 16.9702 105.821 17.5385 106.528 17.5385C107.235 17.5385 107.809 16.9702 107.809 16.2692ZM116.777 15C117.484 15 118.058 15.5683 118.058 16.2692C118.058 16.9702 117.484 17.5385 116.777 17.5385C116.07 17.5385 115.496 16.9702 115.496 16.2692C115.496 15.5683 116.07 15 116.777 15ZM128.303 16.2692C128.303 15.5683 127.729 15 127.022 15C126.315 15 125.741 15.5683 125.741 16.2692C125.741 16.9702 126.315 17.5385 127.022 17.5385C127.729 17.5385 128.303 16.9702 128.303 16.2692ZM137.269 15C137.977 15 138.55 15.5683 138.55 16.2692C138.55 16.9702 137.977 17.5385 137.269 17.5385C136.562 17.5385 135.988 16.9702 135.988 16.2692C135.988 15.5683 136.562 15 137.269 15ZM148.507 46.73C148.507 46.0291 147.934 45.4608 147.226 45.4608C146.519 45.4608 145.945 46.029 145.945 46.73C145.945 47.431 146.519 47.9993 147.226 47.9993C147.934 47.9993 148.507 47.431 148.507 46.73ZM157.472 45.4617C158.18 45.4617 158.753 46.03 158.753 46.7309C158.753 47.4319 158.18 48.0002 157.472 48.0002C156.765 48.0002 156.191 47.4319 156.191 46.7309C156.191 46.03 156.765 45.4617 157.472 45.4617ZM169.001 46.7309C169.001 46.03 168.428 45.4617 167.72 45.4617C167.013 45.4617 166.439 46.03 166.439 46.7309C166.439 47.4319 167.013 48.0002 167.72 48.0002C168.428 48.0002 169.001 47.4319 169.001 46.7309ZM147.226 35.307C147.934 35.307 148.507 35.8752 148.507 36.5762C148.507 37.2772 147.934 37.8454 147.226 37.8454C146.519 37.8454 145.945 37.2772 145.945 36.5762C145.945 35.8752 146.519 35.307 147.226 35.307ZM158.753 36.5762C158.753 35.8752 158.18 35.307 157.472 35.307C156.765 35.307 156.191 35.8752 156.191 36.5762C156.191 37.2772 156.765 37.8454 157.472 37.8454C158.18 37.8454 158.753 37.2772 158.753 36.5762ZM167.72 35.307C168.428 35.307 169.001 35.8752 169.001 36.5762C169.001 37.2772 168.428 37.8454 167.72 37.8454C167.013 37.8454 166.439 37.2772 166.439 36.5762C166.439 35.8752 167.013 35.307 167.72 35.307ZM148.507 26.4233C148.507 25.7223 147.934 25.1541 147.226 25.1541C146.519 25.1541 145.945 25.7223 145.945 26.4233C145.945 27.1243 146.519 27.6925 147.226 27.6925C147.934 27.6925 148.507 27.1243 148.507 26.4233ZM157.472 25.1541C158.18 25.1541 158.753 25.7223 158.753 26.4233C158.753 27.1243 158.18 27.6925 157.472 27.6925C156.765 27.6925 156.191 27.1243 156.191 26.4233C156.191 25.7223 156.765 25.1541 157.472 25.1541ZM169.001 26.4233C169.001 25.7223 168.428 25.1541 167.72 25.1541C167.013 25.1541 166.439 25.7223 166.439 26.4233C166.439 27.1243 167.013 27.6925 167.72 27.6925C168.428 27.6925 169.001 27.1243 169.001 26.4233ZM147.226 15C147.934 15 148.507 15.5683 148.507 16.2692C148.507 16.9702 147.934 17.5385 147.226 17.5385C146.519 17.5385 145.945 16.9702 145.945 16.2692C145.945 15.5683 146.519 15 147.226 15ZM158.753 16.2692C158.753 15.5683 158.18 15 157.472 15C156.765 15 156.191 15.5683 156.191 16.2692C156.191 16.9702 156.765 17.5385 157.472 17.5385C158.18 17.5385 158.753 16.9702 158.753 16.2692ZM167.72 15C168.428 15 169.001 15.5683 169.001 16.2692C169.001 16.9702 168.428 17.5385 167.72 17.5385C167.013 17.5385 166.439 16.9702 166.439 16.2692C166.439 15.5683 167.013 15 167.72 15Z" fill="white"/>
<path opacity="0.6" fill-rule="evenodd" clip-rule="evenodd" d="M96.2818 56C96.9892 56 97.5627 56.5683 97.5627 57.2692C97.5627 57.9702 96.9892 58.5385 96.2818 58.5385C95.5744 58.5385 95.001 57.9702 95.001 57.2692C95.001 56.5683 95.5744 56 96.2818 56ZM97.5627 67.4233C97.5627 66.7223 96.9892 66.1541 96.2818 66.1541C95.5744 66.1541 95.001 66.7223 95.001 67.4233C95.001 68.1243 95.5744 68.6925 96.2818 68.6925C96.9892 68.6925 97.5627 68.1243 97.5627 67.4233ZM96.2818 76.307C96.9892 76.307 97.5627 76.8752 97.5627 77.5762C97.5627 78.2772 96.9892 78.8454 96.2818 78.8454C95.5744 78.8454 95.001 78.2772 95.001 77.5762C95.001 76.8752 95.5744 76.307 96.2818 76.307ZM96.2818 86.4608C96.9892 86.4608 97.5627 87.0291 97.5627 87.73C97.5627 88.431 96.9892 88.9993 96.2818 88.9993C95.5744 88.9993 95.001 88.431 95.001 87.73C95.001 87.029 95.5744 86.4608 96.2818 86.4608ZM106.529 86.4617C107.236 86.4617 107.81 87.03 107.81 87.7309C107.81 88.4319 107.236 89.0002 106.529 89.0002C105.822 89.0002 105.248 88.4319 105.248 87.7309C105.248 87.03 105.822 86.4617 106.529 86.4617ZM118.057 87.7309C118.057 87.03 117.483 86.4617 116.776 86.4617C116.069 86.4617 115.495 87.03 115.495 87.7309C115.495 88.4319 116.069 89.0002 116.776 89.0002C117.483 89.0002 118.057 88.4319 118.057 87.7309ZM127.022 86.4617C127.729 86.4617 128.303 87.03 128.303 87.7309C128.303 88.4319 127.729 89.0002 127.022 89.0002C126.315 89.0002 125.741 88.4319 125.741 87.7309C125.741 87.03 126.315 86.4617 127.022 86.4617ZM138.55 87.7309C138.55 87.03 137.977 86.4617 137.269 86.4617C136.562 86.4617 135.988 87.03 135.988 87.7309C135.988 88.4319 136.562 89.0002 137.269 89.0002C137.977 89.0002 138.55 88.4319 138.55 87.7309ZM107.81 77.5762C107.81 76.8752 107.236 76.307 106.529 76.307C105.822 76.307 105.248 76.8752 105.248 77.5762C105.248 78.2772 105.822 78.8454 106.529 78.8454C107.236 78.8454 107.81 78.2772 107.81 77.5762ZM116.777 76.307C117.484 76.307 118.058 76.8752 118.058 77.5762C118.058 78.2772 117.484 78.8454 116.777 78.8454C116.07 78.8454 115.496 78.2772 115.496 77.5762C115.496 76.8752 116.07 76.307 116.777 76.307ZM128.303 77.5762C128.303 76.8752 127.729 76.307 127.022 76.307C126.315 76.307 125.741 76.8752 125.741 77.5762C125.741 78.2772 126.315 78.8454 127.022 78.8454C127.729 78.8454 128.303 78.2772 128.303 77.5762ZM137.269 76.307C137.977 76.307 138.55 76.8752 138.55 77.5762C138.55 78.2772 137.977 78.8454 137.269 78.8454C136.562 78.8454 135.988 78.2772 135.988 77.5762C135.988 76.8752 136.562 76.307 137.269 76.307ZM106.529 66.1541C107.236 66.1541 107.81 66.7223 107.81 67.4233C107.81 68.1243 107.236 68.6925 106.529 68.6925C105.822 68.6925 105.248 68.1243 105.248 67.4233C105.248 66.7223 105.822 66.1541 106.529 66.1541ZM118.058 67.4233C118.058 66.7223 117.484 66.1541 116.777 66.1541C116.07 66.1541 115.496 66.7223 115.496 67.4233C115.496 68.1243 116.07 68.6925 116.777 68.6925C117.484 68.6925 118.058 68.1243 118.058 67.4233ZM127.022 66.1541C127.729 66.1541 128.303 66.7223 128.303 67.4233C128.303 68.1243 127.729 68.6925 127.022 68.6925C126.315 68.6925 125.741 68.1243 125.741 67.4233C125.741 66.7223 126.315 66.1541 127.022 66.1541ZM138.55 67.4233C138.55 66.7223 137.977 66.1541 137.269 66.1541C136.562 66.1541 135.988 66.7223 135.988 67.4233C135.988 68.1243 136.562 68.6925 137.269 68.6925C137.977 68.6925 138.55 68.1243 138.55 67.4233ZM107.809 57.2692C107.809 56.5683 107.235 56 106.528 56C105.821 56 105.247 56.5683 105.247 57.2692C105.247 57.9702 105.821 58.5385 106.528 58.5385C107.235 58.5385 107.809 57.9702 107.809 57.2692ZM116.777 56C117.484 56 118.058 56.5683 118.058 57.2692C118.058 57.9702 117.484 58.5385 116.777 58.5385C116.07 58.5385 115.496 57.9702 115.496 57.2692C115.496 56.5683 116.07 56 116.777 56ZM128.303 57.2692C128.303 56.5683 127.729 56 127.022 56C126.315 56 125.741 56.5683 125.741 57.2692C125.741 57.9702 126.315 58.5385 127.022 58.5385C127.729 58.5385 128.303 57.9702 128.303 57.2692ZM137.269 56C137.977 56 138.55 56.5683 138.55 57.2692C138.55 57.9702 137.977 58.5385 137.269 58.5385C136.562 58.5385 135.988 57.9702 135.988 57.2692C135.988 56.5683 136.562 56 137.269 56ZM148.507 87.73C148.507 87.0291 147.934 86.4608 147.226 86.4608C146.519 86.4608 145.945 87.029 145.945 87.73C145.945 88.431 146.519 88.9993 147.226 88.9993C147.934 88.9993 148.507 88.431 148.507 87.73ZM157.472 86.4617C158.18 86.4617 158.753 87.03 158.753 87.7309C158.753 88.4319 158.18 89.0002 157.472 89.0002C156.765 89.0002 156.191 88.4319 156.191 87.7309C156.191 87.03 156.765 86.4617 157.472 86.4617ZM169.001 87.7309C169.001 87.03 168.428 86.4617 167.72 86.4617C167.013 86.4617 166.439 87.03 166.439 87.7309C166.439 88.4319 167.013 89.0002 167.72 89.0002C168.428 89.0002 169.001 88.4319 169.001 87.7309ZM147.226 76.307C147.934 76.307 148.507 76.8752 148.507 77.5762C148.507 78.2772 147.934 78.8454 147.226 78.8454C146.519 78.8454 145.945 78.2772 145.945 77.5762C145.945 76.8752 146.519 76.307 147.226 76.307ZM158.753 77.5762C158.753 76.8752 158.18 76.307 157.472 76.307C156.765 76.307 156.191 76.8752 156.191 77.5762C156.191 78.2772 156.765 78.8454 157.472 78.8454C158.18 78.8454 158.753 78.2772 158.753 77.5762ZM167.72 76.307C168.428 76.307 169.001 76.8752 169.001 77.5762C169.001 78.2772 168.428 78.8454 167.72 78.8454C167.013 78.8454 166.439 78.2772 166.439 77.5762C166.439 76.8752 167.013 76.307 167.72 76.307ZM148.507 67.4233C148.507 66.7223 147.934 66.1541 147.226 66.1541C146.519 66.1541 145.945 66.7223 145.945 67.4233C145.945 68.1243 146.519 68.6925 147.226 68.6925C147.934 68.6925 148.507 68.1243 148.507 67.4233ZM157.472 66.1541C158.18 66.1541 158.753 66.7223 158.753 67.4233C158.753 68.1243 158.18 68.6925 157.472 68.6925C156.765 68.6925 156.191 68.1243 156.191 67.4233C156.191 66.7223 156.765 66.1541 157.472 66.1541ZM169.001 67.4233C169.001 66.7223 168.428 66.1541 167.72 66.1541C167.013 66.1541 166.439 66.7223 166.439 67.4233C166.439 68.1243 167.013 68.6925 167.72 68.6925C168.428 68.6925 169.001 68.1243 169.001 67.4233ZM147.226 56C147.934 56 148.507 56.5683 148.507 57.2692C148.507 57.9702 147.934 58.5385 147.226 58.5385C146.519 58.5385 145.945 57.9702 145.945 57.2692C145.945 56.5683 146.519 56 147.226 56ZM158.753 57.2692C158.753 56.5683 158.18 56 157.472 56C156.765 56 156.191 56.5683 156.191 57.2692C156.191 57.9702 156.765 58.5385 157.472 58.5385C158.18 58.5385 158.753 57.9702 158.753 57.2692ZM167.72 56C168.428 56 169.001 56.5683 169.001 57.2692C169.001 57.9702 168.428 58.5385 167.72 58.5385C167.013 58.5385 166.439 57.9702 166.439 57.2692C166.439 56.5683 167.013 56 167.72 56Z" fill="white"/>
<path opacity="0.6" fill-rule="evenodd" clip-rule="evenodd" d="M177.72 15C178.427 15 179.001 15.5683 179.001 16.2692C179.001 16.9702 178.427 17.5385 177.72 17.5385C177.012 17.5385 176.439 16.9702 176.439 16.2692C176.439 15.5683 177.012 15 177.72 15ZM179.001 26.4233C179.001 25.7223 178.427 25.154 177.72 25.154C177.012 25.154 176.439 25.7223 176.439 26.4233C176.439 27.1243 177.012 27.6925 177.72 27.6925C178.427 27.6925 179.001 27.1243 179.001 26.4233ZM177.72 35.3069C178.427 35.3069 179.001 35.8751 179.001 36.5761C179.001 37.2771 178.427 37.8453 177.72 37.8453C177.012 37.8453 176.439 37.2771 176.439 36.5761C176.439 35.8751 177.012 35.3069 177.72 35.3069ZM179.001 46.7309C179.001 46.0299 178.427 45.4617 177.72 45.4617C177.012 45.4617 176.439 46.0299 176.439 46.7309C176.439 47.4319 177.012 48.0001 177.72 48.0001C178.427 48.0001 179.001 47.4319 179.001 46.7309ZM96.2818 95.9999C96.9892 95.9999 97.5627 96.5681 97.5627 97.2691C97.5627 97.9701 96.9892 98.5383 96.2818 98.5383C95.5744 98.5383 95.001 97.9701 95.001 97.2691C95.001 96.5681 95.5744 95.9999 96.2818 95.9999ZM96.2818 106.154C96.9892 106.154 97.5627 106.722 97.5627 107.423C97.5627 108.124 96.9892 108.692 96.2818 108.692C95.5744 108.692 95.001 108.124 95.001 107.423C95.001 106.722 95.5744 106.154 96.2818 106.154ZM106.529 106.154C107.236 106.154 107.81 106.722 107.81 107.423C107.81 108.124 107.236 108.692 106.529 108.692C105.822 108.692 105.248 108.124 105.248 107.423C105.248 106.722 105.822 106.154 106.529 106.154ZM118.058 107.423C118.058 106.722 117.484 106.154 116.777 106.154C116.07 106.154 115.496 106.722 115.496 107.423C115.496 108.124 116.07 108.692 116.777 108.692C117.484 108.692 118.058 108.124 118.058 107.423ZM127.022 106.154C127.729 106.154 128.303 106.722 128.303 107.423C128.303 108.124 127.729 108.692 127.022 108.692C126.315 108.692 125.741 108.124 125.741 107.423C125.741 106.722 126.315 106.154 127.022 106.154ZM138.55 107.423C138.55 106.722 137.977 106.154 137.269 106.154C136.562 106.154 135.988 106.722 135.988 107.423C135.988 108.124 136.562 108.692 137.269 108.692C137.977 108.692 138.55 108.124 138.55 107.423ZM107.809 97.2691C107.809 96.5681 107.235 95.9999 106.528 95.9999C105.821 95.9999 105.247 96.5681 105.247 97.2691C105.247 97.9701 105.821 98.5383 106.528 98.5383C107.235 98.5383 107.809 97.9701 107.809 97.2691ZM116.777 95.9999C117.484 95.9999 118.058 96.5681 118.058 97.2691C118.058 97.9701 117.484 98.5383 116.777 98.5383C116.07 98.5383 115.496 97.9701 115.496 97.2691C115.496 96.5681 116.07 95.9999 116.777 95.9999ZM128.303 97.2691C128.303 96.5681 127.729 95.9999 127.022 95.9999C126.315 95.9999 125.741 96.5681 125.741 97.2691C125.741 97.9701 126.315 98.5383 127.022 98.5383C127.729 98.5383 128.303 97.9701 128.303 97.2691ZM137.269 95.9999C137.977 95.9999 138.55 96.5681 138.55 97.2691C138.55 97.9701 137.977 98.5383 137.269 98.5383C136.562 98.5383 135.988 97.9701 135.988 97.2691C135.988 96.5681 136.562 95.9999 137.269 95.9999ZM148.507 107.423C148.507 106.722 147.934 106.154 147.226 106.154C146.519 106.154 145.945 106.722 145.945 107.423C145.945 108.124 146.519 108.692 147.226 108.692C147.934 108.692 148.507 108.124 148.507 107.423ZM157.472 106.154C158.18 106.154 158.753 106.722 158.753 107.423C158.753 108.124 158.18 108.692 157.472 108.692C156.765 108.692 156.191 108.124 156.191 107.423C156.191 106.722 156.765 106.154 157.472 106.154ZM169.001 107.423C169.001 106.722 168.428 106.154 167.72 106.154C167.013 106.154 166.439 106.722 166.439 107.423C166.439 108.124 167.013 108.692 167.72 108.692C168.428 108.692 169.001 108.124 169.001 107.423ZM147.226 95.9999C147.934 95.9999 148.507 96.5681 148.507 97.2691C148.507 97.9701 147.934 98.5383 147.226 98.5383C146.519 98.5383 145.945 97.9701 145.945 97.2691C145.945 96.5681 146.519 95.9999 147.226 95.9999ZM158.753 97.2691C158.753 96.5681 158.18 95.9999 157.472 95.9999C156.765 95.9999 156.191 96.5681 156.191 97.2691C156.191 97.9701 156.765 98.5383 157.472 98.5383C158.18 98.5383 158.753 97.9701 158.753 97.2691ZM167.72 95.9999C168.428 95.9999 169.001 96.5681 169.001 97.2691C169.001 97.9701 168.428 98.5383 167.72 98.5383C167.013 98.5383 166.439 97.9701 166.439 97.2691C166.439 96.5681 167.013 95.9999 167.72 95.9999ZM179.001 87.7309C179.001 87.0299 178.427 86.4617 177.72 86.4617C177.012 86.4617 176.439 87.0299 176.439 87.7309C176.439 88.4319 177.012 89.0001 177.72 89.0001C178.427 89.0001 179.001 88.4319 179.001 87.7309ZM177.72 76.3069C178.427 76.3069 179.001 76.8751 179.001 77.5761C179.001 78.2771 178.427 78.8453 177.72 78.8453C177.012 78.8453 176.439 78.2771 176.439 77.5761C176.439 76.8751 177.012 76.3069 177.72 76.3069ZM179.001 67.4233C179.001 66.7223 178.427 66.154 177.72 66.154C177.012 66.154 176.439 66.7223 176.439 67.4233C176.439 68.1242 177.012 68.6925 177.72 68.6925C178.427 68.6925 179.001 68.1242 179.001 67.4233ZM177.72 56C178.427 56 179.001 56.5683 179.001 57.2692C179.001 57.9702 178.427 58.5385 177.72 58.5385C177.012 58.5385 176.439 57.9702 176.439 57.2692C176.439 56.5683 177.012 56 177.72 56ZM179.001 107.423C179.001 106.722 178.427 106.154 177.72 106.154C177.012 106.154 176.439 106.722 176.439 107.423C176.439 108.124 177.012 108.693 177.72 108.693C178.427 108.693 179.001 108.124 179.001 107.423ZM177.72 96C178.427 96 179.001 96.5683 179.001 97.2692C179.001 97.9702 178.427 98.5385 177.72 98.5385C177.012 98.5385 176.439 97.9702 176.439 97.2692C176.439 96.5683 177.012 96 177.72 96Z" fill="white"/>
</g>
<g filter="url(#filter0_dd)">
<rect x="27" y="12" width="138" height="26" rx="4" fill="white"/>
</g>
<rect x="60.0967" y="21.2812" width="32.6214" height="6.9903" rx="3.49515" fill="#ABC7F9"/>
<rect x="98.5439" y="21.2812" width="23.301" height="6.9903" rx="3.49515" fill="#9BE5CB"/>
<path fill-rule="evenodd" clip-rule="evenodd" d="M46.0676 23.954C46.0676 26.4521 44.0907 28.4772 41.6521 28.4772C39.2134 28.4772 37.2365 26.4521 37.2365 23.954C37.2365 21.456 39.2134 19.4309 41.6521 19.4309C44.0907 19.4309 46.0676 21.456 46.0676 23.954ZM45.4894 28.7073C44.4475 29.5909 43.1103 30.122 41.6521 30.122C38.3266 30.122 35.6309 27.3605 35.6309 23.954C35.6309 20.5476 38.3266 17.7861 41.6521 17.7861C44.9775 17.7861 47.6733 20.5476 47.6733 23.954C47.6733 25.2733 47.2689 26.4958 46.5803 27.4987L49.6115 30.6037L48.4761 31.7667L45.4894 28.7073Z" fill="#71A1F4"/>
<g filter="url(#filter1_dd)">
<path d="M91 47C91 44.7909 92.7909 43 95 43H161C163.209 43 165 44.7909 165 47V108C165 110.209 163.209 112 161 112H95C92.7909 112 91 110.209 91 108V47Z" fill="white"/>
</g>
<rect x="112.168" y="58.9326" width="41.9595" height="9" rx="1" transform="rotate(90 112.168 58.9326)" fill="#56D3A8"/>
<rect x="125.775" y="72.9194" width="27.973" height="9" rx="1" transform="rotate(90 125.775 72.9194)" fill="#2E75F0"/>
<rect x="139.384" y="81.3115" width="19.5811" height="9" rx="1" transform="rotate(90 139.384 81.3115)" fill="#8C62F5"/>
<rect x="152.991" y="71.0542" width="29.8378" height="9" rx="1" transform="rotate(90 152.991 71.0542)" fill="#FCC838"/>
<g filter="url(#filter2_dd)">
<rect x="27" y="43" width="57" height="57" rx="4" fill="white"/>
</g>
<mask id="mask1" mask-type="alpha" maskUnits="userSpaceOnUse" x="36" y="52" width="19" height="39">
<path fill-rule="evenodd" clip-rule="evenodd" d="M54.7057 61.3573V52.8584C45.0326 53.2889 37.2885 61.0331 36.8579 70.7062C36.8579 70.9781 36.8579 71.2671 36.8579 71.5561C36.8579 71.845 36.8579 72.117 36.8579 72.406C37.0516 76.7731 38.779 80.9322 41.7363 84.1515C42.1127 84.5789 42.5158 84.982 42.9432 85.3583C46.162 88.3293 50.3294 90.0637 54.7057 90.2537V81.7548C52.5953 81.5843 50.5945 80.7447 48.9944 79.3581C48.5456 79.0057 48.1354 78.6069 47.7706 78.1682C46.383 76.5473 45.5388 74.5319 45.3569 72.406C45.3569 72.117 45.3569 71.845 45.3569 71.5561C45.3394 71.273 45.3394 70.9892 45.3569 70.7062C45.7578 65.7184 49.7179 61.7582 54.7057 61.3573Z" fill="white"/>
</mask>
<g mask="url(#mask1)">
<rect x="30.0586" y="46.0596" width="49.2939" height="48.019" rx="3" fill="#ABC7F9"/>
</g>
<mask id="mask2" mask-type="alpha" maskUnits="userSpaceOnUse" x="56" y="52" width="13" height="12">
<path fill-rule="evenodd" clip-rule="evenodd" d="M56.4062 52.8584V61.3573C58.5166 61.5278 60.5175 62.3675 62.1175 63.754L68.1518 57.7198C64.9324 54.7649 60.7722 53.043 56.4062 52.8584V52.8584Z" fill="white"/>
</mask>
<g mask="url(#mask2)">
<rect x="30.0591" y="46.0596" width="49.2939" height="48.019" fill="#FFCCB3"/>
</g>
<mask id="mask3" mask-type="alpha" maskUnits="userSpaceOnUse" x="63" y="58" width="12" height="13">
<path fill-rule="evenodd" clip-rule="evenodd" d="M69.3576 58.9604L63.3403 64.9777C64.7214 66.5894 65.5651 68.5919 65.754 70.706H74.253C74.059 66.3356 72.3249 62.1749 69.3576 58.9604Z" fill="white"/>
</mask>
<g mask="url(#mask3)">
<rect x="54.0557" y="46.0591" width="49.2939" height="48.019" fill="#82DFE9"/>
</g>
<mask id="mask4" mask-type="alpha" maskUnits="userSpaceOnUse" x="56" y="72" width="19" height="19">
<path fill-rule="evenodd" clip-rule="evenodd" d="M65.7551 72.4058C65.3542 77.3935 61.394 81.3537 56.4062 81.7546V90.2535C66.0794 89.823 73.8235 82.0789 74.254 72.4058H65.7551Z" fill="white"/>
</mask>
<g mask="url(#mask4)">
<rect x="31.335" y="46.0591" width="49.2939" height="48.019" fill="#FDE9AF"/>
</g>
<circle cx="55.5555" cy="71.557" r="13.5267" fill="white"/>
<defs>
<filter id="filter0_dd" x="11" y="0" width="170" height="58" filterUnits="userSpaceOnUse" color-interpolation-filters="sRGB">
<feFlood flood-opacity="0" result="BackgroundImageFix"/>
<feColorMatrix in="SourceAlpha" type="matrix" values="0 0 0 0 0 0 0 0 0 0 0 0 0 0 0 0 0 0 127 0"/>
<feOffset dy="4"/>
<feGaussianBlur stdDeviation="8"/>
<feColorMatrix type="matrix" values="0 0 0 0 0.0980392 0 0 0 0 0.137255 0 0 0 0 0.192157 0 0 0 0.08 0"/>
<feBlend mode="normal" in2="BackgroundImageFix" result="effect1_dropShadow"/>
<feColorMatrix in="SourceAlpha" type="matrix" values="0 0 0 0 0 0 0 0 0 0 0 0 0 0 0 0 0 0 127 0"/>
<feOffset dy="2"/>
<feGaussianBlur stdDeviation="2"/>
<feColorMatrix type="matrix" values="0 0 0 0 0 0 0 0 0 0 0 0 0 0 0 0 0 0 0.08 0"/>
<feBlend mode="normal" in2="effect1_dropShadow" result="effect2_dropShadow"/>
<feBlend mode="normal" in="SourceGraphic" in2="effect2_dropShadow" result="shape"/>
</filter>
<filter id="filter1_dd" x="87" y="41" width="82" height="77" filterUnits="userSpaceOnUse" color-interpolation-filters="sRGB">
<feFlood flood-opacity="0" result="BackgroundImageFix"/>
<feColorMatrix in="SourceAlpha" type="matrix" values="0 0 0 0 0 0 0 0 0 0 0 0 0 0 0 0 0 0 127 0"/>
<feOffset dy="2"/>
<feGaussianBlur stdDeviation="2"/>
<feColorMatrix type="matrix" values="0 0 0 0 0.0980392 0 0 0 0 0.137255 0 0 0 0 0.192157 0 0 0 0.04 0"/>
<feBlend mode="normal" in2="BackgroundImageFix" result="effect1_dropShadow"/>
<feColorMatrix in="SourceAlpha" type="matrix" values="0 0 0 0 0 0 0 0 0 0 0 0 0 0 0 0 0 0 127 0"/>
<feOffset dy="2"/>
<feGaussianBlur stdDeviation="2"/>
<feColorMatrix type="matrix" values="0 0 0 0 0.0980392 0 0 0 0 0.137255 0 0 0 0 0.192157 0 0 0 0.04 0"/>
<feBlend mode="normal" in2="effect1_dropShadow" result="effect2_dropShadow"/>
<feBlend mode="normal" in="SourceGraphic" in2="effect2_dropShadow" result="shape"/>
</filter>
<filter id="filter2_dd" x="11" y="31" width="89" height="89" filterUnits="userSpaceOnUse" color-interpolation-filters="sRGB">
<feFlood flood-opacity="0" result="BackgroundImageFix"/>
<feColorMatrix in="SourceAlpha" type="matrix" values="0 0 0 0 0 0 0 0 0 0 0 0 0 0 0 0 0 0 127 0"/>
<feOffset dy="4"/>
<feGaussianBlur stdDeviation="8"/>
<feColorMatrix type="matrix" values="0 0 0 0 0.0980392 0 0 0 0 0.137255 0 0 0 0 0.192157 0 0 0 0.08 0"/>
<feBlend mode="normal" in2="BackgroundImageFix" result="effect1_dropShadow"/>
<feColorMatrix in="SourceAlpha" type="matrix" values="0 0 0 0 0 0 0 0 0 0 0 0 0 0 0 0 0 0 127 0"/>
<feOffset dy="2"/>
<feGaussianBlur stdDeviation="2"/>
<feColorMatrix type="matrix" values="0 0 0 0 0 0 0 0 0 0 0 0 0 0 0 0 0 0 0.04 0"/>
<feBlend mode="normal" in2="effect1_dropShadow" result="effect2_dropShadow"/>
<feBlend mode="normal" in="SourceGraphic" in2="effect2_dropShadow" result="shape"/>
</filter>
</defs>
</svg>
