<?xml version="1.0" encoding="UTF-8"?>
<svg focusable="false" width="26px" height="26px" viewBox="0 0 26 26" version="1.1" xmlns="http://www.w3.org/2000/svg" xmlns:xlink="http://www.w3.org/1999/xlink">
    <!-- Generator: Sketch 50.2 (55047) - http://www.bohemiancoding.com/sketch -->
    <title>searchIcon</title>
    <desc>Created with Sketch.</desc>
    <defs></defs>
    <g id="Option-2" stroke="none" stroke-width="1" fill="none" fill-rule="evenodd">
        <g id="Option-2---13" transform="translate(-1366.000000, -95.000000)" fill="#FFFFFF" stroke="#FFFFFF" stroke-width="0.5">
            <g id="Search-Bar" transform="translate(272.000000, 86.000000)">
                <g id="Search-Button" transform="translate(1071.000000, 0.000000)">
                    <path d="M34.0976033,28.3432323 C29.3788867,28.3432323 25.5536506,24.5845577 25.5536506,19.9406064 C25.5536506,15.2966552 29.3788867,11.5304783 34.0976033,11.5304783 C38.8163198,11.5304783 42.6423062,15.2966552 42.6423062,19.9406064 C42.6423062,24.5845577 38.8163198,28.3432323 34.0976033,28.3432323 L34.0976033,28.3432323 Z M47.7721288,32.6945921 L41.5762814,26.595186 C43.1981995,24.832135 44.1952066,22.5064083 44.1952066,19.9406064 C44.1952066,14.4488903 39.6745411,10 34.0976033,10 C28.5206655,10 24,14.4488903 24,19.9406064 C24,25.4248203 28.5206655,29.8737105 34.0976033,29.8737105 C36.5072245,29.8737105 38.7172943,29.0409503 40.4532419,27.6530166 L46.6738456,33.7749297 C46.9776739,34.0750234 47.4690506,34.0750234 47.7721288,33.7749297 C48.0759571,33.4823382 48.0759571,32.9946858 47.7721288,32.6945921 L47.7721288,32.6945921 Z" id="searchIcon"></path>
                </g>
            </g>
        </g>
    </g>
</svg>