<?xml version="1.0" encoding="UTF-8"?>
<svg focusable="false" width="18px" height="12px" viewBox="0 0 18 12" version="1.1" xmlns="http://www.w3.org/2000/svg" xmlns:xlink="http://www.w3.org/1999/xlink">
    <!-- Generator: Sketch 49 (51002) - http://www.bohemiancoding.com/sketch -->
    <title>Eye Icon</title>
    <desc>Created with Sketch.</desc>
    <defs></defs>
    <g id="Symbols" stroke="none" stroke-width="1" fill="none" fill-rule="evenodd">
        <g id="Info-bar-for-Viz-Cards" transform="translate(-214.000000, -18.000000)" fill="#000">
            <g id="Eye-Icon" transform="translate(214.000000, 18.000000)">
                <path d="M8.72727273,10.3636364 C6.31745455,10.3636364 4.36363636,8.40981818 4.36363636,6 C4.36363636,3.59018182 6.31745455,1.63636364 8.72727273,1.63636364 C11.1370909,1.63636364 13.0909091,3.59018182 13.0909091,6 C13.0909091,8.40981818 11.1370909,10.3636364 8.72727273,10.3636364 M8.72727273,0 C13.5469091,0 17.4545455,6 17.4545455,6 C17.4545455,6 13.5469091,12 8.72727273,12 C3.90763636,12 0,6 0,6 C0,6 3.90763636,0 8.72727273,0 Z M8.72727273,3.27272727 C7.22072727,3.27272727 6,4.49345455 6,6 C6,7.50654545 7.22072727,8.72727273 8.72727273,8.72727273 C10.2338182,8.72727273 11.4545455,7.50654545 11.4545455,6 C11.4545455,4.49345455 10.2338182,3.27272727 8.72727273,3.27272727 Z"></path>
            </g>
        </g>
    </g>
</svg>