<svg width="481" height="140" viewBox="0 0 481 140" fill="none" xmlns="http://www.w3.org/2000/svg">
<path d="M0 4C0 1.79086 1.79086 0 4 0H477C479.209 0 481 1.79086 481 4V140H0V4Z" fill="#ABC7F9"/>
<mask id="mask0" mask-type="alpha" maskUnits="userSpaceOnUse" x="0" y="0" width="481" height="140">
<path d="M0 4C0 1.79086 1.79086 0 4 0H477C479.209 0 481 1.79086 481 4V140H0V4Z" fill="#E6EDFA"/>
</mask>
<g mask="url(#mask0)">
<g opacity="0.4">
<path opacity="0.6" fill-rule="evenodd" clip-rule="evenodd" d="M16.4713 16C17.2838 16 17.9425 16.6527 17.9425 17.4579C17.9425 18.2631 17.2838 18.9158 16.4713 18.9158C15.6587 18.9158 15 18.2631 15 17.4579C15 16.6527 15.6587 16 16.4713 16ZM17.9425 29.121C17.9425 28.3158 17.2838 27.6631 16.4713 27.6631C15.6587 27.6631 15 28.3158 15 29.121C15 29.9262 15.6587 30.5789 16.4713 30.5789C17.2838 30.5789 17.9425 29.9262 17.9425 29.121ZM16.4713 39.3251C17.2838 39.3251 17.9425 39.9779 17.9425 40.783C17.9425 41.5882 17.2838 42.2409 16.4713 42.2409C15.6587 42.2409 15 41.5882 15 40.783C15 39.9779 15.6587 39.3251 16.4713 39.3251ZM16.4713 50.9883C17.2838 50.9883 17.9425 51.641 17.9425 52.4462C17.9425 53.2513 17.2838 53.904 16.4713 53.904C15.6587 53.904 15 53.2513 15 52.4462C15 51.641 15.6587 50.9883 16.4713 50.9883ZM28.2415 50.9894C29.0541 50.9894 29.7128 51.6421 29.7128 52.4473C29.7128 53.2524 29.0541 53.9052 28.2415 53.9052C27.429 53.9052 26.7703 53.2524 26.7703 52.4473C26.7703 51.6421 27.429 50.9894 28.2415 50.9894ZM41.483 52.4473C41.483 51.6421 40.8243 50.9894 40.0118 50.9894C39.1992 50.9894 38.5405 51.6421 38.5405 52.4473C38.5405 53.2524 39.1992 53.9052 40.0118 53.9052C40.8243 53.9052 41.483 53.2524 41.483 52.4473ZM51.7809 50.9894C52.5934 50.9894 53.2521 51.6421 53.2521 52.4473C53.2521 53.2524 52.5934 53.9052 51.7809 53.9052C50.9683 53.9052 50.3096 53.2524 50.3096 52.4473C50.3096 51.6421 50.9683 50.9894 51.7809 50.9894ZM65.0224 52.4473C65.0224 51.6421 64.3637 50.9894 63.5511 50.9894C62.7386 50.9894 62.0799 51.6421 62.0799 52.4473C62.0799 53.2524 62.7386 53.9052 63.5511 53.9052C64.3637 53.9052 65.0224 53.2524 65.0224 52.4473ZM29.7128 40.783C29.7128 39.9779 29.0541 39.3251 28.2415 39.3251C27.429 39.3251 26.7703 39.9779 26.7703 40.783C26.7703 41.5882 27.429 42.2409 28.2415 42.2409C29.0541 42.2409 29.7128 41.5882 29.7128 40.783ZM40.0129 39.3251C40.8254 39.3251 41.4841 39.9779 41.4841 40.783C41.4841 41.5882 40.8254 42.2409 40.0129 42.2409C39.2003 42.2409 38.5416 41.5882 38.5416 40.783C38.5416 39.9779 39.2003 39.3251 40.0129 39.3251ZM53.2521 40.783C53.2521 39.9779 52.5934 39.3251 51.7809 39.3251C50.9683 39.3251 50.3096 39.9779 50.3096 40.783C50.3096 41.5882 50.9683 42.2409 51.7809 42.2409C52.5934 42.2409 53.2521 41.5882 53.2521 40.783ZM63.5511 39.3251C64.3637 39.3251 65.0224 39.9779 65.0224 40.783C65.0224 41.5882 64.3637 42.2409 63.5511 42.2409C62.7386 42.2409 62.0799 41.5882 62.0799 40.783C62.0799 39.9779 62.7386 39.3251 63.5511 39.3251ZM28.2415 27.6631C29.0541 27.6631 29.7128 28.3158 29.7128 29.121C29.7128 29.9262 29.0541 30.5789 28.2415 30.5789C27.429 30.5789 26.7703 29.9262 26.7703 29.121C26.7703 28.3158 27.429 27.6631 28.2415 27.6631ZM41.4841 29.121C41.4841 28.3158 40.8254 27.6631 40.0129 27.6631C39.2003 27.6631 38.5416 28.3158 38.5416 29.121C38.5416 29.9262 39.2003 30.5789 40.0129 30.5789C40.8254 30.5789 41.4841 29.9262 41.4841 29.121ZM51.7809 27.6631C52.5934 27.6631 53.2521 28.3158 53.2521 29.121C53.2521 29.9262 52.5934 30.5789 51.7809 30.5789C50.9683 30.5789 50.3096 29.9262 50.3096 29.121C50.3096 28.3158 50.9683 27.6631 51.7809 27.6631ZM65.0224 29.121C65.0224 28.3158 64.3637 27.6631 63.5511 27.6631C62.7386 27.6631 62.0799 28.3158 62.0799 29.121C62.0799 29.9262 62.7386 30.5789 63.5511 30.5789C64.3637 30.5789 65.0224 29.9262 65.0224 29.121ZM29.7116 17.4579C29.7116 16.6527 29.0529 16 28.2404 16C27.4278 16 26.7691 16.6527 26.7691 17.4579C26.7691 18.2631 27.4278 18.9158 28.2404 18.9158C29.0529 18.9158 29.7116 18.2631 29.7116 17.4579ZM40.0129 16C40.8254 16 41.4841 16.6527 41.4841 17.4579C41.4841 18.2631 40.8254 18.9158 40.0129 18.9158C39.2003 18.9158 38.5416 18.2631 38.5416 17.4579C38.5416 16.6527 39.2003 16 40.0129 16ZM53.2521 17.4579C53.2521 16.6527 52.5934 16 51.7809 16C50.9683 16 50.3096 16.6527 50.3096 17.4579C50.3096 18.2631 50.9683 18.9158 51.7809 18.9158C52.5934 18.9158 53.2521 18.2631 53.2521 17.4579ZM63.5511 16C64.3637 16 65.0224 16.6527 65.0224 17.4579C65.0224 18.2631 64.3637 18.9158 63.5511 18.9158C62.7386 18.9158 62.0799 18.2631 62.0799 17.4579C62.0799 16.6527 62.7386 16 63.5511 16ZM76.4595 52.4462C76.4595 51.641 75.8008 50.9883 74.9882 50.9883C74.1757 50.9883 73.517 51.641 73.517 52.4462C73.517 53.2513 74.1757 53.904 74.9882 53.904C75.8008 53.904 76.4595 53.2513 76.4595 52.4462ZM86.7574 50.9894C87.5699 50.9894 88.2286 51.6421 88.2286 52.4473C88.2286 53.2524 87.5699 53.9052 86.7574 53.9052C85.9448 53.9052 85.2861 53.2524 85.2861 52.4473C85.2861 51.6421 85.9448 50.9894 86.7574 50.9894ZM100 52.4473C100 51.6421 99.3413 50.9894 98.5287 50.9894C97.7162 50.9894 97.0575 51.6421 97.0575 52.4473C97.0575 53.2524 97.7162 53.9052 98.5287 53.9052C99.3413 53.9052 100 53.2524 100 52.4473ZM74.9882 39.3251C75.8008 39.3251 76.4595 39.9779 76.4595 40.783C76.4595 41.5882 75.8008 42.2409 74.9882 42.2409C74.1757 42.2409 73.517 41.5882 73.517 40.783C73.517 39.9779 74.1757 39.3251 74.9882 39.3251ZM88.2286 40.783C88.2286 39.9779 87.5699 39.3251 86.7574 39.3251C85.9448 39.3251 85.2861 39.9779 85.2861 40.783C85.2861 41.5882 85.9448 42.2409 86.7574 42.2409C87.5699 42.2409 88.2286 41.5882 88.2286 40.783ZM98.5287 39.3251C99.3413 39.3251 100 39.9779 100 40.783C100 41.5882 99.3413 42.2409 98.5287 42.2409C97.7162 42.2409 97.0575 41.5882 97.0575 40.783C97.0575 39.9779 97.7162 39.3251 98.5287 39.3251ZM76.4595 29.121C76.4595 28.3158 75.8008 27.6631 74.9882 27.6631C74.1757 27.6631 73.517 28.3158 73.517 29.121C73.517 29.9262 74.1757 30.5789 74.9882 30.5789C75.8008 30.5789 76.4595 29.9262 76.4595 29.121ZM86.7574 27.6631C87.5699 27.6631 88.2286 28.3158 88.2286 29.121C88.2286 29.9262 87.5699 30.5789 86.7574 30.5789C85.9448 30.5789 85.2861 29.9262 85.2861 29.121C85.2861 28.3158 85.9448 27.6631 86.7574 27.6631ZM100 29.121C100 28.3158 99.3413 27.6631 98.5287 27.6631C97.7162 27.6631 97.0575 28.3158 97.0575 29.121C97.0575 29.9262 97.7162 30.5789 98.5287 30.5789C99.3413 30.5789 100 29.9262 100 29.121ZM74.9882 16C75.8008 16 76.4595 16.6527 76.4595 17.4579C76.4595 18.2631 75.8008 18.9158 74.9882 18.9158C74.1757 18.9158 73.517 18.2631 73.517 17.4579C73.517 16.6527 74.1757 16 74.9882 16ZM88.2286 17.4579C88.2286 16.6527 87.5699 16 86.7574 16C85.9448 16 85.2861 16.6527 85.2861 17.4579C85.2861 18.2631 85.9448 18.9158 86.7574 18.9158C87.5699 18.9158 88.2286 18.2631 88.2286 17.4579ZM98.5287 16C99.3413 16 100 16.6527 100 17.4579C100 18.2631 99.3413 18.9158 98.5287 18.9158C97.7162 18.9158 97.0575 18.2631 97.0575 17.4579C97.0575 16.6527 97.7162 16 98.5287 16Z" fill="#E6EDFA"/>
<path opacity="0.6" fill-rule="evenodd" clip-rule="evenodd" d="M16.4713 63.0947C17.2838 63.0947 17.9425 63.7474 17.9425 64.5526C17.9425 65.3578 17.2838 66.0105 16.4713 66.0105C15.6587 66.0105 15 65.3578 15 64.5526C15 63.7474 15.6587 63.0947 16.4713 63.0947ZM17.9425 76.2157C17.9425 75.4106 17.2838 74.7579 16.4713 74.7579C15.6587 74.7579 15 75.4106 15 76.2157C15 77.0209 15.6587 77.6736 16.4713 77.6736C17.2838 77.6736 17.9425 77.0209 17.9425 76.2157ZM16.4713 86.4199C17.2838 86.4199 17.9425 87.0726 17.9425 87.8778C17.9425 88.6829 17.2838 89.3356 16.4713 89.3356C15.6587 89.3356 15 88.6829 15 87.8778C15 87.0726 15.6587 86.4199 16.4713 86.4199ZM16.4713 98.083C17.2838 98.083 17.9425 98.7357 17.9425 99.5409C17.9425 100.346 17.2838 100.999 16.4713 100.999C15.6587 100.999 15 100.346 15 99.5409C15 98.7357 15.6587 98.083 16.4713 98.083ZM28.2415 98.0841C29.0541 98.0841 29.7128 98.7368 29.7128 99.542C29.7128 100.347 29.0541 101 28.2415 101C27.429 101 26.7703 100.347 26.7703 99.542C26.7703 98.7368 27.429 98.0841 28.2415 98.0841ZM41.483 99.542C41.483 98.7368 40.8243 98.0841 40.0118 98.0841C39.1992 98.0841 38.5405 98.7368 38.5405 99.542C38.5405 100.347 39.1992 101 40.0118 101C40.8243 101 41.483 100.347 41.483 99.542ZM51.7809 98.0841C52.5934 98.0841 53.2521 98.7368 53.2521 99.542C53.2521 100.347 52.5934 101 51.7809 101C50.9683 101 50.3096 100.347 50.3096 99.542C50.3096 98.7368 50.9683 98.0841 51.7809 98.0841ZM65.0224 99.542C65.0224 98.7368 64.3637 98.0841 63.5511 98.0841C62.7386 98.0841 62.0799 98.7368 62.0799 99.542C62.0799 100.347 62.7386 101 63.5511 101C64.3637 101 65.0224 100.347 65.0224 99.542ZM29.7128 87.8778C29.7128 87.0726 29.0541 86.4199 28.2415 86.4199C27.429 86.4199 26.7703 87.0726 26.7703 87.8778C26.7703 88.6829 27.429 89.3356 28.2415 89.3356C29.0541 89.3356 29.7128 88.6829 29.7128 87.8778ZM40.0129 86.4199C40.8254 86.4199 41.4841 87.0726 41.4841 87.8778C41.4841 88.6829 40.8254 89.3356 40.0129 89.3356C39.2003 89.3356 38.5416 88.6829 38.5416 87.8778C38.5416 87.0726 39.2003 86.4199 40.0129 86.4199ZM53.2521 87.8778C53.2521 87.0726 52.5934 86.4199 51.7809 86.4199C50.9683 86.4199 50.3096 87.0726 50.3096 87.8778C50.3096 88.6829 50.9683 89.3356 51.7809 89.3356C52.5934 89.3356 53.2521 88.6829 53.2521 87.8778ZM63.5511 86.4199C64.3637 86.4199 65.0224 87.0726 65.0224 87.8778C65.0224 88.6829 64.3637 89.3356 63.5511 89.3356C62.7386 89.3356 62.0799 88.6829 62.0799 87.8778C62.0799 87.0726 62.7386 86.4199 63.5511 86.4199ZM28.2415 74.7579C29.0541 74.7579 29.7128 75.4106 29.7128 76.2157C29.7128 77.0209 29.0541 77.6736 28.2415 77.6736C27.429 77.6736 26.7703 77.0209 26.7703 76.2157C26.7703 75.4106 27.429 74.7579 28.2415 74.7579ZM41.4841 76.2157C41.4841 75.4106 40.8254 74.7579 40.0129 74.7579C39.2003 74.7579 38.5416 75.4106 38.5416 76.2157C38.5416 77.0209 39.2003 77.6736 40.0129 77.6736C40.8254 77.6736 41.4841 77.0209 41.4841 76.2157ZM51.7809 74.7579C52.5934 74.7579 53.2521 75.4106 53.2521 76.2157C53.2521 77.0209 52.5934 77.6736 51.7809 77.6736C50.9683 77.6736 50.3096 77.0209 50.3096 76.2157C50.3096 75.4106 50.9683 74.7579 51.7809 74.7579ZM65.0224 76.2157C65.0224 75.4106 64.3637 74.7579 63.5511 74.7579C62.7386 74.7579 62.0799 75.4106 62.0799 76.2157C62.0799 77.0209 62.7386 77.6736 63.5511 77.6736C64.3637 77.6736 65.0224 77.0209 65.0224 76.2157ZM29.7116 64.5526C29.7116 63.7474 29.0529 63.0947 28.2404 63.0947C27.4278 63.0947 26.7691 63.7474 26.7691 64.5526C26.7691 65.3578 27.4278 66.0105 28.2404 66.0105C29.0529 66.0105 29.7116 65.3578 29.7116 64.5526ZM40.0129 63.0947C40.8254 63.0947 41.4841 63.7474 41.4841 64.5526C41.4841 65.3578 40.8254 66.0105 40.0129 66.0105C39.2003 66.0105 38.5416 65.3578 38.5416 64.5526C38.5416 63.7474 39.2003 63.0947 40.0129 63.0947ZM53.2521 64.5526C53.2521 63.7474 52.5934 63.0947 51.7809 63.0947C50.9683 63.0947 50.3096 63.7474 50.3096 64.5526C50.3096 65.3578 50.9683 66.0105 51.7809 66.0105C52.5934 66.0105 53.2521 65.3578 53.2521 64.5526ZM63.5511 63.0947C64.3637 63.0947 65.0224 63.7474 65.0224 64.5526C65.0224 65.3578 64.3637 66.0105 63.5511 66.0105C62.7386 66.0105 62.0799 65.3578 62.0799 64.5526C62.0799 63.7474 62.7386 63.0947 63.5511 63.0947ZM76.4595 99.5409C76.4595 98.7357 75.8008 98.083 74.9882 98.083C74.1757 98.083 73.517 98.7357 73.517 99.5409C73.517 100.346 74.1757 100.999 74.9882 100.999C75.8008 100.999 76.4595 100.346 76.4595 99.5409ZM86.7574 98.0841C87.5699 98.0841 88.2286 98.7368 88.2286 99.542C88.2286 100.347 87.5699 101 86.7574 101C85.9448 101 85.2861 100.347 85.2861 99.542C85.2861 98.7368 85.9448 98.0841 86.7574 98.0841ZM100 99.542C100 98.7368 99.3413 98.0841 98.5287 98.0841C97.7162 98.0841 97.0575 98.7368 97.0575 99.542C97.0575 100.347 97.7162 101 98.5287 101C99.3413 101 100 100.347 100 99.542ZM74.9882 86.4199C75.8008 86.4199 76.4595 87.0726 76.4595 87.8778C76.4595 88.6829 75.8008 89.3356 74.9882 89.3356C74.1757 89.3356 73.517 88.6829 73.517 87.8778C73.517 87.0726 74.1757 86.4199 74.9882 86.4199ZM88.2286 87.8778C88.2286 87.0726 87.5699 86.4199 86.7574 86.4199C85.9448 86.4199 85.2861 87.0726 85.2861 87.8778C85.2861 88.6829 85.9448 89.3356 86.7574 89.3356C87.5699 89.3356 88.2286 88.6829 88.2286 87.8778ZM98.5287 86.4199C99.3413 86.4199 100 87.0726 100 87.8778C100 88.6829 99.3413 89.3356 98.5287 89.3356C97.7162 89.3356 97.0575 88.6829 97.0575 87.8778C97.0575 87.0726 97.7162 86.4199 98.5287 86.4199ZM76.4595 76.2157C76.4595 75.4106 75.8008 74.7579 74.9882 74.7579C74.1757 74.7579 73.517 75.4106 73.517 76.2157C73.517 77.0209 74.1757 77.6736 74.9882 77.6736C75.8008 77.6736 76.4595 77.0209 76.4595 76.2157ZM86.7574 74.7579C87.5699 74.7579 88.2286 75.4106 88.2286 76.2157C88.2286 77.0209 87.5699 77.6736 86.7574 77.6736C85.9448 77.6736 85.2861 77.0209 85.2861 76.2157C85.2861 75.4106 85.9448 74.7579 86.7574 74.7579ZM100 76.2157C100 75.4106 99.3413 74.7579 98.5287 74.7579C97.7162 74.7579 97.0575 75.4106 97.0575 76.2157C97.0575 77.0209 97.7162 77.6736 98.5287 77.6736C99.3413 77.6736 100 77.0209 100 76.2157ZM74.9882 63.0947C75.8008 63.0947 76.4595 63.7474 76.4595 64.5526C76.4595 65.3578 75.8008 66.0105 74.9882 66.0105C74.1757 66.0105 73.517 65.3578 73.517 64.5526C73.517 63.7474 74.1757 63.0947 74.9882 63.0947ZM88.2286 64.5526C88.2286 63.7474 87.5699 63.0947 86.7574 63.0947C85.9448 63.0947 85.2861 63.7474 85.2861 64.5526C85.2861 65.3578 85.9448 66.0105 86.7574 66.0105C87.5699 66.0105 88.2286 65.3578 88.2286 64.5526ZM98.5287 63.0947C99.3413 63.0947 100 63.7474 100 64.5526C100 65.3578 99.3413 66.0105 98.5287 66.0105C97.7162 66.0105 97.0575 65.3578 97.0575 64.5526C97.0575 63.7474 97.7162 63.0947 98.5287 63.0947Z" fill="#E6EDFA"/>
<path opacity="0.6" fill-rule="evenodd" clip-rule="evenodd" d="M16.4713 109.04C17.2838 109.04 17.9425 109.693 17.9425 110.498C17.9425 111.303 17.2838 111.956 16.4713 111.956C15.6587 111.956 15 111.303 15 110.498C15 109.693 15.6587 109.04 16.4713 109.04ZM16.4713 120.703C17.2838 120.703 17.9425 121.356 17.9425 122.161C17.9425 122.966 17.2838 123.619 16.4713 123.619C15.6587 123.619 15 122.966 15 122.161C15 121.356 15.6587 120.703 16.4713 120.703ZM28.2415 120.703C29.0541 120.703 29.7128 121.356 29.7128 122.161C29.7128 122.966 29.0541 123.619 28.2415 123.619C27.429 123.619 26.7703 122.966 26.7703 122.161C26.7703 121.356 27.429 120.703 28.2415 120.703ZM41.4841 122.161C41.4841 121.356 40.8254 120.703 40.0129 120.703C39.2003 120.703 38.5416 121.356 38.5416 122.161C38.5416 122.966 39.2003 123.619 40.0129 123.619C40.8254 123.619 41.4841 122.966 41.4841 122.161ZM51.7809 120.703C52.5934 120.703 53.2521 121.356 53.2521 122.161C53.2521 122.966 52.5934 123.619 51.7809 123.619C50.9683 123.619 50.3096 122.966 50.3096 122.161C50.3096 121.356 50.9683 120.703 51.7809 120.703ZM65.0224 122.161C65.0224 121.356 64.3637 120.703 63.5511 120.703C62.7386 120.703 62.0799 121.356 62.0799 122.161C62.0799 122.966 62.7386 123.619 63.5511 123.619C64.3637 123.619 65.0224 122.966 65.0224 122.161ZM29.7116 110.498C29.7116 109.693 29.0529 109.04 28.2404 109.04C27.4278 109.04 26.7691 109.693 26.7691 110.498C26.7691 111.303 27.4278 111.956 28.2404 111.956C29.0529 111.956 29.7116 111.303 29.7116 110.498ZM40.0129 109.04C40.8254 109.04 41.4841 109.693 41.4841 110.498C41.4841 111.303 40.8254 111.956 40.0129 111.956C39.2003 111.956 38.5416 111.303 38.5416 110.498C38.5416 109.693 39.2003 109.04 40.0129 109.04ZM53.2521 110.498C53.2521 109.693 52.5934 109.04 51.7809 109.04C50.9683 109.04 50.3096 109.693 50.3096 110.498C50.3096 111.303 50.9683 111.956 51.7809 111.956C52.5934 111.956 53.2521 111.303 53.2521 110.498ZM63.5511 109.04C64.3637 109.04 65.0224 109.693 65.0224 110.498C65.0224 111.303 64.3637 111.956 63.5511 111.956C62.7386 111.956 62.0799 111.303 62.0799 110.498C62.0799 109.693 62.7386 109.04 63.5511 109.04ZM76.4595 122.161C76.4595 121.356 75.8008 120.703 74.9882 120.703C74.1757 120.703 73.517 121.356 73.517 122.161C73.517 122.966 74.1757 123.619 74.9882 123.619C75.8008 123.619 76.4595 122.966 76.4595 122.161ZM86.7574 120.703C87.5699 120.703 88.2286 121.356 88.2286 122.161C88.2286 122.966 87.5699 123.619 86.7574 123.619C85.9448 123.619 85.2861 122.966 85.2861 122.161C85.2861 121.356 85.9448 120.703 86.7574 120.703ZM100 122.161C100 121.356 99.3413 120.703 98.5287 120.703C97.7162 120.703 97.0575 121.356 97.0575 122.161C97.0575 122.966 97.7162 123.619 98.5287 123.619C99.3413 123.619 100 122.966 100 122.161ZM74.9882 109.04C75.8008 109.04 76.4595 109.693 76.4595 110.498C76.4595 111.303 75.8008 111.956 74.9882 111.956C74.1757 111.956 73.517 111.303 73.517 110.498C73.517 109.693 74.1757 109.04 74.9882 109.04ZM88.2286 110.498C88.2286 109.693 87.5699 109.04 86.7574 109.04C85.9448 109.04 85.2861 109.693 85.2861 110.498C85.2861 111.303 85.9448 111.956 86.7574 111.956C87.5699 111.956 88.2286 111.303 88.2286 110.498ZM98.5287 109.04C99.3413 109.04 100 109.693 100 110.498C100 111.303 99.3413 111.956 98.5287 111.956C97.7162 111.956 97.0575 111.303 97.0575 110.498C97.0575 109.693 97.7162 109.04 98.5287 109.04Z" fill="#E6EDFA"/>
</g>
<g opacity="0.4">
<path opacity="0.6" fill-rule="evenodd" clip-rule="evenodd" d="M110.471 16C111.284 16 111.943 16.6527 111.943 17.4579C111.943 18.2631 111.284 18.9158 110.471 18.9158C109.659 18.9158 109 18.2631 109 17.4579C109 16.6527 109.659 16 110.471 16ZM111.943 29.121C111.943 28.3158 111.284 27.6631 110.471 27.6631C109.659 27.6631 109 28.3158 109 29.121C109 29.9262 109.659 30.5789 110.471 30.5789C111.284 30.5789 111.943 29.9262 111.943 29.121ZM110.471 39.3251C111.284 39.3251 111.943 39.9779 111.943 40.783C111.943 41.5882 111.284 42.2409 110.471 42.2409C109.659 42.2409 109 41.5882 109 40.783C109 39.9779 109.659 39.3251 110.471 39.3251ZM110.471 50.9883C111.284 50.9883 111.943 51.641 111.943 52.4462C111.943 53.2513 111.284 53.904 110.471 53.904C109.659 53.904 109 53.2513 109 52.4462C109 51.641 109.659 50.9883 110.471 50.9883ZM122.242 50.9894C123.054 50.9894 123.713 51.6421 123.713 52.4473C123.713 53.2524 123.054 53.9052 122.242 53.9052C121.429 53.9052 120.77 53.2524 120.77 52.4473C120.77 51.6421 121.429 50.9894 122.242 50.9894ZM135.483 52.4473C135.483 51.6421 134.824 50.9894 134.012 50.9894C133.199 50.9894 132.541 51.6421 132.541 52.4473C132.541 53.2524 133.199 53.9052 134.012 53.9052C134.824 53.9052 135.483 53.2524 135.483 52.4473ZM145.781 50.9894C146.593 50.9894 147.252 51.6421 147.252 52.4473C147.252 53.2524 146.593 53.9052 145.781 53.9052C144.968 53.9052 144.31 53.2524 144.31 52.4473C144.31 51.6421 144.968 50.9894 145.781 50.9894ZM159.022 52.4473C159.022 51.6421 158.364 50.9894 157.551 50.9894C156.739 50.9894 156.08 51.6421 156.08 52.4473C156.08 53.2524 156.739 53.9052 157.551 53.9052C158.364 53.9052 159.022 53.2524 159.022 52.4473ZM123.713 40.783C123.713 39.9779 123.054 39.3251 122.242 39.3251C121.429 39.3251 120.77 39.9779 120.77 40.783C120.77 41.5882 121.429 42.2409 122.242 42.2409C123.054 42.2409 123.713 41.5882 123.713 40.783ZM134.013 39.3251C134.825 39.3251 135.484 39.9779 135.484 40.783C135.484 41.5882 134.825 42.2409 134.013 42.2409C133.2 42.2409 132.542 41.5882 132.542 40.783C132.542 39.9779 133.2 39.3251 134.013 39.3251ZM147.252 40.783C147.252 39.9779 146.593 39.3251 145.781 39.3251C144.968 39.3251 144.31 39.9779 144.31 40.783C144.31 41.5882 144.968 42.2409 145.781 42.2409C146.593 42.2409 147.252 41.5882 147.252 40.783ZM157.551 39.3251C158.364 39.3251 159.022 39.9779 159.022 40.783C159.022 41.5882 158.364 42.2409 157.551 42.2409C156.739 42.2409 156.08 41.5882 156.08 40.783C156.08 39.9779 156.739 39.3251 157.551 39.3251ZM122.242 27.6631C123.054 27.6631 123.713 28.3158 123.713 29.121C123.713 29.9262 123.054 30.5789 122.242 30.5789C121.429 30.5789 120.77 29.9262 120.77 29.121C120.77 28.3158 121.429 27.6631 122.242 27.6631ZM135.484 29.121C135.484 28.3158 134.825 27.6631 134.013 27.6631C133.2 27.6631 132.542 28.3158 132.542 29.121C132.542 29.9262 133.2 30.5789 134.013 30.5789C134.825 30.5789 135.484 29.9262 135.484 29.121ZM145.781 27.6631C146.593 27.6631 147.252 28.3158 147.252 29.121C147.252 29.9262 146.593 30.5789 145.781 30.5789C144.968 30.5789 144.31 29.9262 144.31 29.121C144.31 28.3158 144.968 27.6631 145.781 27.6631ZM159.022 29.121C159.022 28.3158 158.364 27.6631 157.551 27.6631C156.739 27.6631 156.08 28.3158 156.08 29.121C156.08 29.9262 156.739 30.5789 157.551 30.5789C158.364 30.5789 159.022 29.9262 159.022 29.121ZM123.712 17.4579C123.712 16.6527 123.053 16 122.24 16C121.428 16 120.769 16.6527 120.769 17.4579C120.769 18.2631 121.428 18.9158 122.24 18.9158C123.053 18.9158 123.712 18.2631 123.712 17.4579ZM134.013 16C134.825 16 135.484 16.6527 135.484 17.4579C135.484 18.2631 134.825 18.9158 134.013 18.9158C133.2 18.9158 132.542 18.2631 132.542 17.4579C132.542 16.6527 133.2 16 134.013 16ZM147.252 17.4579C147.252 16.6527 146.593 16 145.781 16C144.968 16 144.31 16.6527 144.31 17.4579C144.31 18.2631 144.968 18.9158 145.781 18.9158C146.593 18.9158 147.252 18.2631 147.252 17.4579ZM157.551 16C158.364 16 159.022 16.6527 159.022 17.4579C159.022 18.2631 158.364 18.9158 157.551 18.9158C156.739 18.9158 156.08 18.2631 156.08 17.4579C156.08 16.6527 156.739 16 157.551 16ZM170.459 52.4462C170.459 51.641 169.801 50.9883 168.988 50.9883C168.176 50.9883 167.517 51.641 167.517 52.4462C167.517 53.2513 168.176 53.904 168.988 53.904C169.801 53.904 170.459 53.2513 170.459 52.4462ZM180.757 50.9894C181.57 50.9894 182.229 51.6421 182.229 52.4473C182.229 53.2524 181.57 53.9052 180.757 53.9052C179.945 53.9052 179.286 53.2524 179.286 52.4473C179.286 51.6421 179.945 50.9894 180.757 50.9894ZM194 52.4473C194 51.6421 193.341 50.9894 192.529 50.9894C191.716 50.9894 191.057 51.6421 191.057 52.4473C191.057 53.2524 191.716 53.9052 192.529 53.9052C193.341 53.9052 194 53.2524 194 52.4473ZM168.988 39.3251C169.801 39.3251 170.459 39.9779 170.459 40.783C170.459 41.5882 169.801 42.2409 168.988 42.2409C168.176 42.2409 167.517 41.5882 167.517 40.783C167.517 39.9779 168.176 39.3251 168.988 39.3251ZM182.229 40.783C182.229 39.9779 181.57 39.3251 180.757 39.3251C179.945 39.3251 179.286 39.9779 179.286 40.783C179.286 41.5882 179.945 42.2409 180.757 42.2409C181.57 42.2409 182.229 41.5882 182.229 40.783ZM192.529 39.3251C193.341 39.3251 194 39.9779 194 40.783C194 41.5882 193.341 42.2409 192.529 42.2409C191.716 42.2409 191.057 41.5882 191.057 40.783C191.057 39.9779 191.716 39.3251 192.529 39.3251ZM170.459 29.121C170.459 28.3158 169.801 27.6631 168.988 27.6631C168.176 27.6631 167.517 28.3158 167.517 29.121C167.517 29.9262 168.176 30.5789 168.988 30.5789C169.801 30.5789 170.459 29.9262 170.459 29.121ZM180.757 27.6631C181.57 27.6631 182.229 28.3158 182.229 29.121C182.229 29.9262 181.57 30.5789 180.757 30.5789C179.945 30.5789 179.286 29.9262 179.286 29.121C179.286 28.3158 179.945 27.6631 180.757 27.6631ZM194 29.121C194 28.3158 193.341 27.6631 192.529 27.6631C191.716 27.6631 191.057 28.3158 191.057 29.121C191.057 29.9262 191.716 30.5789 192.529 30.5789C193.341 30.5789 194 29.9262 194 29.121ZM168.988 16C169.801 16 170.459 16.6527 170.459 17.4579C170.459 18.2631 169.801 18.9158 168.988 18.9158C168.176 18.9158 167.517 18.2631 167.517 17.4579C167.517 16.6527 168.176 16 168.988 16ZM182.229 17.4579C182.229 16.6527 181.57 16 180.757 16C179.945 16 179.286 16.6527 179.286 17.4579C179.286 18.2631 179.945 18.9158 180.757 18.9158C181.57 18.9158 182.229 18.2631 182.229 17.4579ZM192.529 16C193.341 16 194 16.6527 194 17.4579C194 18.2631 193.341 18.9158 192.529 18.9158C191.716 18.9158 191.057 18.2631 191.057 17.4579C191.057 16.6527 191.716 16 192.529 16Z" fill="#E6EDFA"/>
<path opacity="0.6" fill-rule="evenodd" clip-rule="evenodd" d="M110.471 63.0947C111.284 63.0947 111.943 63.7474 111.943 64.5526C111.943 65.3578 111.284 66.0105 110.471 66.0105C109.659 66.0105 109 65.3578 109 64.5526C109 63.7474 109.659 63.0947 110.471 63.0947ZM111.943 76.2157C111.943 75.4106 111.284 74.7579 110.471 74.7579C109.659 74.7579 109 75.4106 109 76.2157C109 77.0209 109.659 77.6736 110.471 77.6736C111.284 77.6736 111.943 77.0209 111.943 76.2157ZM110.471 86.4199C111.284 86.4199 111.943 87.0726 111.943 87.8778C111.943 88.6829 111.284 89.3356 110.471 89.3356C109.659 89.3356 109 88.6829 109 87.8778C109 87.0726 109.659 86.4199 110.471 86.4199ZM110.471 98.083C111.284 98.083 111.943 98.7357 111.943 99.5409C111.943 100.346 111.284 100.999 110.471 100.999C109.659 100.999 109 100.346 109 99.5409C109 98.7357 109.659 98.083 110.471 98.083ZM122.242 98.0841C123.054 98.0841 123.713 98.7368 123.713 99.542C123.713 100.347 123.054 101 122.242 101C121.429 101 120.77 100.347 120.77 99.542C120.77 98.7368 121.429 98.0841 122.242 98.0841ZM135.483 99.542C135.483 98.7368 134.824 98.0841 134.012 98.0841C133.199 98.0841 132.541 98.7368 132.541 99.542C132.541 100.347 133.199 101 134.012 101C134.824 101 135.483 100.347 135.483 99.542ZM145.781 98.0841C146.593 98.0841 147.252 98.7368 147.252 99.542C147.252 100.347 146.593 101 145.781 101C144.968 101 144.31 100.347 144.31 99.542C144.31 98.7368 144.968 98.0841 145.781 98.0841ZM159.022 99.542C159.022 98.7368 158.364 98.0841 157.551 98.0841C156.739 98.0841 156.08 98.7368 156.08 99.542C156.08 100.347 156.739 101 157.551 101C158.364 101 159.022 100.347 159.022 99.542ZM123.713 87.8778C123.713 87.0726 123.054 86.4199 122.242 86.4199C121.429 86.4199 120.77 87.0726 120.77 87.8778C120.77 88.6829 121.429 89.3356 122.242 89.3356C123.054 89.3356 123.713 88.6829 123.713 87.8778ZM134.013 86.4199C134.825 86.4199 135.484 87.0726 135.484 87.8778C135.484 88.6829 134.825 89.3356 134.013 89.3356C133.2 89.3356 132.542 88.6829 132.542 87.8778C132.542 87.0726 133.2 86.4199 134.013 86.4199ZM147.252 87.8778C147.252 87.0726 146.593 86.4199 145.781 86.4199C144.968 86.4199 144.31 87.0726 144.31 87.8778C144.31 88.6829 144.968 89.3356 145.781 89.3356C146.593 89.3356 147.252 88.6829 147.252 87.8778ZM157.551 86.4199C158.364 86.4199 159.022 87.0726 159.022 87.8778C159.022 88.6829 158.364 89.3356 157.551 89.3356C156.739 89.3356 156.08 88.6829 156.08 87.8778C156.08 87.0726 156.739 86.4199 157.551 86.4199ZM122.242 74.7579C123.054 74.7579 123.713 75.4106 123.713 76.2157C123.713 77.0209 123.054 77.6736 122.242 77.6736C121.429 77.6736 120.77 77.0209 120.77 76.2157C120.77 75.4106 121.429 74.7579 122.242 74.7579ZM135.484 76.2157C135.484 75.4106 134.825 74.7579 134.013 74.7579C133.2 74.7579 132.542 75.4106 132.542 76.2157C132.542 77.0209 133.2 77.6736 134.013 77.6736C134.825 77.6736 135.484 77.0209 135.484 76.2157ZM145.781 74.7579C146.593 74.7579 147.252 75.4106 147.252 76.2157C147.252 77.0209 146.593 77.6736 145.781 77.6736C144.968 77.6736 144.31 77.0209 144.31 76.2157C144.31 75.4106 144.968 74.7579 145.781 74.7579ZM159.022 76.2157C159.022 75.4106 158.364 74.7579 157.551 74.7579C156.739 74.7579 156.08 75.4106 156.08 76.2157C156.08 77.0209 156.739 77.6736 157.551 77.6736C158.364 77.6736 159.022 77.0209 159.022 76.2157ZM123.712 64.5526C123.712 63.7474 123.053 63.0947 122.24 63.0947C121.428 63.0947 120.769 63.7474 120.769 64.5526C120.769 65.3578 121.428 66.0105 122.24 66.0105C123.053 66.0105 123.712 65.3578 123.712 64.5526ZM134.013 63.0947C134.825 63.0947 135.484 63.7474 135.484 64.5526C135.484 65.3578 134.825 66.0105 134.013 66.0105C133.2 66.0105 132.542 65.3578 132.542 64.5526C132.542 63.7474 133.2 63.0947 134.013 63.0947ZM147.252 64.5526C147.252 63.7474 146.593 63.0947 145.781 63.0947C144.968 63.0947 144.31 63.7474 144.31 64.5526C144.31 65.3578 144.968 66.0105 145.781 66.0105C146.593 66.0105 147.252 65.3578 147.252 64.5526ZM157.551 63.0947C158.364 63.0947 159.022 63.7474 159.022 64.5526C159.022 65.3578 158.364 66.0105 157.551 66.0105C156.739 66.0105 156.08 65.3578 156.08 64.5526C156.08 63.7474 156.739 63.0947 157.551 63.0947ZM170.459 99.5409C170.459 98.7357 169.801 98.083 168.988 98.083C168.176 98.083 167.517 98.7357 167.517 99.5409C167.517 100.346 168.176 100.999 168.988 100.999C169.801 100.999 170.459 100.346 170.459 99.5409ZM180.757 98.0841C181.57 98.0841 182.229 98.7368 182.229 99.542C182.229 100.347 181.57 101 180.757 101C179.945 101 179.286 100.347 179.286 99.542C179.286 98.7368 179.945 98.0841 180.757 98.0841ZM194 99.542C194 98.7368 193.341 98.0841 192.529 98.0841C191.716 98.0841 191.057 98.7368 191.057 99.542C191.057 100.347 191.716 101 192.529 101C193.341 101 194 100.347 194 99.542ZM168.988 86.4199C169.801 86.4199 170.459 87.0726 170.459 87.8778C170.459 88.6829 169.801 89.3356 168.988 89.3356C168.176 89.3356 167.517 88.6829 167.517 87.8778C167.517 87.0726 168.176 86.4199 168.988 86.4199ZM182.229 87.8778C182.229 87.0726 181.57 86.4199 180.757 86.4199C179.945 86.4199 179.286 87.0726 179.286 87.8778C179.286 88.6829 179.945 89.3356 180.757 89.3356C181.57 89.3356 182.229 88.6829 182.229 87.8778ZM192.529 86.4199C193.341 86.4199 194 87.0726 194 87.8778C194 88.6829 193.341 89.3356 192.529 89.3356C191.716 89.3356 191.057 88.6829 191.057 87.8778C191.057 87.0726 191.716 86.4199 192.529 86.4199ZM170.459 76.2157C170.459 75.4106 169.801 74.7579 168.988 74.7579C168.176 74.7579 167.517 75.4106 167.517 76.2157C167.517 77.0209 168.176 77.6736 168.988 77.6736C169.801 77.6736 170.459 77.0209 170.459 76.2157ZM180.757 74.7579C181.57 74.7579 182.229 75.4106 182.229 76.2157C182.229 77.0209 181.57 77.6736 180.757 77.6736C179.945 77.6736 179.286 77.0209 179.286 76.2157C179.286 75.4106 179.945 74.7579 180.757 74.7579ZM194 76.2157C194 75.4106 193.341 74.7579 192.529 74.7579C191.716 74.7579 191.057 75.4106 191.057 76.2157C191.057 77.0209 191.716 77.6736 192.529 77.6736C193.341 77.6736 194 77.0209 194 76.2157ZM168.988 63.0947C169.801 63.0947 170.459 63.7474 170.459 64.5526C170.459 65.3578 169.801 66.0105 168.988 66.0105C168.176 66.0105 167.517 65.3578 167.517 64.5526C167.517 63.7474 168.176 63.0947 168.988 63.0947ZM182.229 64.5526C182.229 63.7474 181.57 63.0947 180.757 63.0947C179.945 63.0947 179.286 63.7474 179.286 64.5526C179.286 65.3578 179.945 66.0105 180.757 66.0105C181.57 66.0105 182.229 65.3578 182.229 64.5526ZM192.529 63.0947C193.341 63.0947 194 63.7474 194 64.5526C194 65.3578 193.341 66.0105 192.529 66.0105C191.716 66.0105 191.057 65.3578 191.057 64.5526C191.057 63.7474 191.716 63.0947 192.529 63.0947Z" fill="#E6EDFA"/>
<path opacity="0.6" fill-rule="evenodd" clip-rule="evenodd" d="M110.471 109.04C111.284 109.04 111.943 109.693 111.943 110.498C111.943 111.303 111.284 111.956 110.471 111.956C109.659 111.956 109 111.303 109 110.498C109 109.693 109.659 109.04 110.471 109.04ZM110.471 120.703C111.284 120.703 111.943 121.356 111.943 122.161C111.943 122.966 111.284 123.619 110.471 123.619C109.659 123.619 109 122.966 109 122.161C109 121.356 109.659 120.703 110.471 120.703ZM122.242 120.703C123.054 120.703 123.713 121.356 123.713 122.161C123.713 122.966 123.054 123.619 122.242 123.619C121.429 123.619 120.77 122.966 120.77 122.161C120.77 121.356 121.429 120.703 122.242 120.703ZM135.484 122.161C135.484 121.356 134.825 120.703 134.013 120.703C133.2 120.703 132.542 121.356 132.542 122.161C132.542 122.966 133.2 123.619 134.013 123.619C134.825 123.619 135.484 122.966 135.484 122.161ZM145.781 120.703C146.593 120.703 147.252 121.356 147.252 122.161C147.252 122.966 146.593 123.619 145.781 123.619C144.968 123.619 144.31 122.966 144.31 122.161C144.31 121.356 144.968 120.703 145.781 120.703ZM159.022 122.161C159.022 121.356 158.364 120.703 157.551 120.703C156.739 120.703 156.08 121.356 156.08 122.161C156.08 122.966 156.739 123.619 157.551 123.619C158.364 123.619 159.022 122.966 159.022 122.161ZM123.712 110.498C123.712 109.693 123.053 109.04 122.24 109.04C121.428 109.04 120.769 109.693 120.769 110.498C120.769 111.303 121.428 111.956 122.24 111.956C123.053 111.956 123.712 111.303 123.712 110.498ZM134.013 109.04C134.825 109.04 135.484 109.693 135.484 110.498C135.484 111.303 134.825 111.956 134.013 111.956C133.2 111.956 132.542 111.303 132.542 110.498C132.542 109.693 133.2 109.04 134.013 109.04ZM147.252 110.498C147.252 109.693 146.593 109.04 145.781 109.04C144.968 109.04 144.31 109.693 144.31 110.498C144.31 111.303 144.968 111.956 145.781 111.956C146.593 111.956 147.252 111.303 147.252 110.498ZM157.551 109.04C158.364 109.04 159.022 109.693 159.022 110.498C159.022 111.303 158.364 111.956 157.551 111.956C156.739 111.956 156.08 111.303 156.08 110.498C156.08 109.693 156.739 109.04 157.551 109.04ZM170.459 122.161C170.459 121.356 169.801 120.703 168.988 120.703C168.176 120.703 167.517 121.356 167.517 122.161C167.517 122.966 168.176 123.619 168.988 123.619C169.801 123.619 170.459 122.966 170.459 122.161ZM180.757 120.703C181.57 120.703 182.229 121.356 182.229 122.161C182.229 122.966 181.57 123.619 180.757 123.619C179.945 123.619 179.286 122.966 179.286 122.161C179.286 121.356 179.945 120.703 180.757 120.703ZM194 122.161C194 121.356 193.341 120.703 192.529 120.703C191.716 120.703 191.057 121.356 191.057 122.161C191.057 122.966 191.716 123.619 192.529 123.619C193.341 123.619 194 122.966 194 122.161ZM168.988 109.04C169.801 109.04 170.459 109.693 170.459 110.498C170.459 111.303 169.801 111.956 168.988 111.956C168.176 111.956 167.517 111.303 167.517 110.498C167.517 109.693 168.176 109.04 168.988 109.04ZM182.229 110.498C182.229 109.693 181.57 109.04 180.757 109.04C179.945 109.04 179.286 109.693 179.286 110.498C179.286 111.303 179.945 111.956 180.757 111.956C181.57 111.956 182.229 111.303 182.229 110.498ZM192.529 109.04C193.341 109.04 194 109.693 194 110.498C194 111.303 193.341 111.956 192.529 111.956C191.716 111.956 191.057 111.303 191.057 110.498C191.057 109.693 191.716 109.04 192.529 109.04Z" fill="#E6EDFA"/>
</g>
<g opacity="0.4">
<path opacity="0.6" fill-rule="evenodd" clip-rule="evenodd" d="M204.471 16C205.284 16 205.943 16.6527 205.943 17.4579C205.943 18.2631 205.284 18.9158 204.471 18.9158C203.659 18.9158 203 18.2631 203 17.4579C203 16.6527 203.659 16 204.471 16ZM205.943 29.121C205.943 28.3158 205.284 27.6631 204.471 27.6631C203.659 27.6631 203 28.3158 203 29.121C203 29.9262 203.659 30.5789 204.471 30.5789C205.284 30.5789 205.943 29.9262 205.943 29.121ZM204.471 39.3251C205.284 39.3251 205.943 39.9779 205.943 40.783C205.943 41.5882 205.284 42.2409 204.471 42.2409C203.659 42.2409 203 41.5882 203 40.783C203 39.9779 203.659 39.3251 204.471 39.3251ZM204.471 50.9883C205.284 50.9883 205.943 51.641 205.943 52.4462C205.943 53.2513 205.284 53.904 204.471 53.904C203.659 53.904 203 53.2513 203 52.4462C203 51.641 203.659 50.9883 204.471 50.9883ZM216.242 50.9894C217.054 50.9894 217.713 51.6421 217.713 52.4473C217.713 53.2524 217.054 53.9052 216.242 53.9052C215.429 53.9052 214.77 53.2524 214.77 52.4473C214.77 51.6421 215.429 50.9894 216.242 50.9894ZM229.483 52.4473C229.483 51.6421 228.824 50.9894 228.012 50.9894C227.199 50.9894 226.541 51.6421 226.541 52.4473C226.541 53.2524 227.199 53.9052 228.012 53.9052C228.824 53.9052 229.483 53.2524 229.483 52.4473ZM239.781 50.9894C240.593 50.9894 241.252 51.6421 241.252 52.4473C241.252 53.2524 240.593 53.9052 239.781 53.9052C238.968 53.9052 238.31 53.2524 238.31 52.4473C238.31 51.6421 238.968 50.9894 239.781 50.9894ZM253.022 52.4473C253.022 51.6421 252.364 50.9894 251.551 50.9894C250.739 50.9894 250.08 51.6421 250.08 52.4473C250.08 53.2524 250.739 53.9052 251.551 53.9052C252.364 53.9052 253.022 53.2524 253.022 52.4473ZM217.713 40.783C217.713 39.9779 217.054 39.3251 216.242 39.3251C215.429 39.3251 214.77 39.9779 214.77 40.783C214.77 41.5882 215.429 42.2409 216.242 42.2409C217.054 42.2409 217.713 41.5882 217.713 40.783ZM228.013 39.3251C228.825 39.3251 229.484 39.9779 229.484 40.783C229.484 41.5882 228.825 42.2409 228.013 42.2409C227.2 42.2409 226.542 41.5882 226.542 40.783C226.542 39.9779 227.2 39.3251 228.013 39.3251ZM241.252 40.783C241.252 39.9779 240.593 39.3251 239.781 39.3251C238.968 39.3251 238.31 39.9779 238.31 40.783C238.31 41.5882 238.968 42.2409 239.781 42.2409C240.593 42.2409 241.252 41.5882 241.252 40.783ZM251.551 39.3251C252.364 39.3251 253.022 39.9779 253.022 40.783C253.022 41.5882 252.364 42.2409 251.551 42.2409C250.739 42.2409 250.08 41.5882 250.08 40.783C250.08 39.9779 250.739 39.3251 251.551 39.3251ZM216.242 27.6631C217.054 27.6631 217.713 28.3158 217.713 29.121C217.713 29.9262 217.054 30.5789 216.242 30.5789C215.429 30.5789 214.77 29.9262 214.77 29.121C214.77 28.3158 215.429 27.6631 216.242 27.6631ZM229.484 29.121C229.484 28.3158 228.825 27.6631 228.013 27.6631C227.2 27.6631 226.542 28.3158 226.542 29.121C226.542 29.9262 227.2 30.5789 228.013 30.5789C228.825 30.5789 229.484 29.9262 229.484 29.121ZM239.781 27.6631C240.593 27.6631 241.252 28.3158 241.252 29.121C241.252 29.9262 240.593 30.5789 239.781 30.5789C238.968 30.5789 238.31 29.9262 238.31 29.121C238.31 28.3158 238.968 27.6631 239.781 27.6631ZM253.022 29.121C253.022 28.3158 252.364 27.6631 251.551 27.6631C250.739 27.6631 250.08 28.3158 250.08 29.121C250.08 29.9262 250.739 30.5789 251.551 30.5789C252.364 30.5789 253.022 29.9262 253.022 29.121ZM217.712 17.4579C217.712 16.6527 217.053 16 216.24 16C215.428 16 214.769 16.6527 214.769 17.4579C214.769 18.2631 215.428 18.9158 216.24 18.9158C217.053 18.9158 217.712 18.2631 217.712 17.4579ZM228.013 16C228.825 16 229.484 16.6527 229.484 17.4579C229.484 18.2631 228.825 18.9158 228.013 18.9158C227.2 18.9158 226.542 18.2631 226.542 17.4579C226.542 16.6527 227.2 16 228.013 16ZM241.252 17.4579C241.252 16.6527 240.593 16 239.781 16C238.968 16 238.31 16.6527 238.31 17.4579C238.31 18.2631 238.968 18.9158 239.781 18.9158C240.593 18.9158 241.252 18.2631 241.252 17.4579ZM251.551 16C252.364 16 253.022 16.6527 253.022 17.4579C253.022 18.2631 252.364 18.9158 251.551 18.9158C250.739 18.9158 250.08 18.2631 250.08 17.4579C250.08 16.6527 250.739 16 251.551 16ZM264.459 52.4462C264.459 51.641 263.801 50.9883 262.988 50.9883C262.176 50.9883 261.517 51.641 261.517 52.4462C261.517 53.2513 262.176 53.904 262.988 53.904C263.801 53.904 264.459 53.2513 264.459 52.4462ZM274.757 50.9894C275.57 50.9894 276.229 51.6421 276.229 52.4473C276.229 53.2524 275.57 53.9052 274.757 53.9052C273.945 53.9052 273.286 53.2524 273.286 52.4473C273.286 51.6421 273.945 50.9894 274.757 50.9894ZM288 52.4473C288 51.6421 287.341 50.9894 286.529 50.9894C285.716 50.9894 285.057 51.6421 285.057 52.4473C285.057 53.2524 285.716 53.9052 286.529 53.9052C287.341 53.9052 288 53.2524 288 52.4473ZM262.988 39.3251C263.801 39.3251 264.459 39.9779 264.459 40.783C264.459 41.5882 263.801 42.2409 262.988 42.2409C262.176 42.2409 261.517 41.5882 261.517 40.783C261.517 39.9779 262.176 39.3251 262.988 39.3251ZM276.229 40.783C276.229 39.9779 275.57 39.3251 274.757 39.3251C273.945 39.3251 273.286 39.9779 273.286 40.783C273.286 41.5882 273.945 42.2409 274.757 42.2409C275.57 42.2409 276.229 41.5882 276.229 40.783ZM286.529 39.3251C287.341 39.3251 288 39.9779 288 40.783C288 41.5882 287.341 42.2409 286.529 42.2409C285.716 42.2409 285.057 41.5882 285.057 40.783C285.057 39.9779 285.716 39.3251 286.529 39.3251ZM264.459 29.121C264.459 28.3158 263.801 27.6631 262.988 27.6631C262.176 27.6631 261.517 28.3158 261.517 29.121C261.517 29.9262 262.176 30.5789 262.988 30.5789C263.801 30.5789 264.459 29.9262 264.459 29.121ZM274.757 27.6631C275.57 27.6631 276.229 28.3158 276.229 29.121C276.229 29.9262 275.57 30.5789 274.757 30.5789C273.945 30.5789 273.286 29.9262 273.286 29.121C273.286 28.3158 273.945 27.6631 274.757 27.6631ZM288 29.121C288 28.3158 287.341 27.6631 286.529 27.6631C285.716 27.6631 285.057 28.3158 285.057 29.121C285.057 29.9262 285.716 30.5789 286.529 30.5789C287.341 30.5789 288 29.9262 288 29.121ZM262.988 16C263.801 16 264.459 16.6527 264.459 17.4579C264.459 18.2631 263.801 18.9158 262.988 18.9158C262.176 18.9158 261.517 18.2631 261.517 17.4579C261.517 16.6527 262.176 16 262.988 16ZM276.229 17.4579C276.229 16.6527 275.57 16 274.757 16C273.945 16 273.286 16.6527 273.286 17.4579C273.286 18.2631 273.945 18.9158 274.757 18.9158C275.57 18.9158 276.229 18.2631 276.229 17.4579ZM286.529 16C287.341 16 288 16.6527 288 17.4579C288 18.2631 287.341 18.9158 286.529 18.9158C285.716 18.9158 285.057 18.2631 285.057 17.4579C285.057 16.6527 285.716 16 286.529 16Z" fill="#E6EDFA"/>
<path opacity="0.6" fill-rule="evenodd" clip-rule="evenodd" d="M204.471 63.0947C205.284 63.0947 205.943 63.7474 205.943 64.5526C205.943 65.3578 205.284 66.0105 204.471 66.0105C203.659 66.0105 203 65.3578 203 64.5526C203 63.7474 203.659 63.0947 204.471 63.0947ZM205.943 76.2157C205.943 75.4106 205.284 74.7579 204.471 74.7579C203.659 74.7579 203 75.4106 203 76.2157C203 77.0209 203.659 77.6736 204.471 77.6736C205.284 77.6736 205.943 77.0209 205.943 76.2157ZM204.471 86.4199C205.284 86.4199 205.943 87.0726 205.943 87.8778C205.943 88.6829 205.284 89.3356 204.471 89.3356C203.659 89.3356 203 88.6829 203 87.8778C203 87.0726 203.659 86.4199 204.471 86.4199ZM204.471 98.083C205.284 98.083 205.943 98.7357 205.943 99.5409C205.943 100.346 205.284 100.999 204.471 100.999C203.659 100.999 203 100.346 203 99.5409C203 98.7357 203.659 98.083 204.471 98.083ZM216.242 98.0841C217.054 98.0841 217.713 98.7368 217.713 99.542C217.713 100.347 217.054 101 216.242 101C215.429 101 214.77 100.347 214.77 99.542C214.77 98.7368 215.429 98.0841 216.242 98.0841ZM229.483 99.542C229.483 98.7368 228.824 98.0841 228.012 98.0841C227.199 98.0841 226.541 98.7368 226.541 99.542C226.541 100.347 227.199 101 228.012 101C228.824 101 229.483 100.347 229.483 99.542ZM239.781 98.0841C240.593 98.0841 241.252 98.7368 241.252 99.542C241.252 100.347 240.593 101 239.781 101C238.968 101 238.31 100.347 238.31 99.542C238.31 98.7368 238.968 98.0841 239.781 98.0841ZM253.022 99.542C253.022 98.7368 252.364 98.0841 251.551 98.0841C250.739 98.0841 250.08 98.7368 250.08 99.542C250.08 100.347 250.739 101 251.551 101C252.364 101 253.022 100.347 253.022 99.542ZM217.713 87.8778C217.713 87.0726 217.054 86.4199 216.242 86.4199C215.429 86.4199 214.77 87.0726 214.77 87.8778C214.77 88.6829 215.429 89.3356 216.242 89.3356C217.054 89.3356 217.713 88.6829 217.713 87.8778ZM228.013 86.4199C228.825 86.4199 229.484 87.0726 229.484 87.8778C229.484 88.6829 228.825 89.3356 228.013 89.3356C227.2 89.3356 226.542 88.6829 226.542 87.8778C226.542 87.0726 227.2 86.4199 228.013 86.4199ZM241.252 87.8778C241.252 87.0726 240.593 86.4199 239.781 86.4199C238.968 86.4199 238.31 87.0726 238.31 87.8778C238.31 88.6829 238.968 89.3356 239.781 89.3356C240.593 89.3356 241.252 88.6829 241.252 87.8778ZM251.551 86.4199C252.364 86.4199 253.022 87.0726 253.022 87.8778C253.022 88.6829 252.364 89.3356 251.551 89.3356C250.739 89.3356 250.08 88.6829 250.08 87.8778C250.08 87.0726 250.739 86.4199 251.551 86.4199ZM216.242 74.7579C217.054 74.7579 217.713 75.4106 217.713 76.2157C217.713 77.0209 217.054 77.6736 216.242 77.6736C215.429 77.6736 214.77 77.0209 214.77 76.2157C214.77 75.4106 215.429 74.7579 216.242 74.7579ZM229.484 76.2157C229.484 75.4106 228.825 74.7579 228.013 74.7579C227.2 74.7579 226.542 75.4106 226.542 76.2157C226.542 77.0209 227.2 77.6736 228.013 77.6736C228.825 77.6736 229.484 77.0209 229.484 76.2157ZM239.781 74.7579C240.593 74.7579 241.252 75.4106 241.252 76.2157C241.252 77.0209 240.593 77.6736 239.781 77.6736C238.968 77.6736 238.31 77.0209 238.31 76.2157C238.31 75.4106 238.968 74.7579 239.781 74.7579ZM253.022 76.2157C253.022 75.4106 252.364 74.7579 251.551 74.7579C250.739 74.7579 250.08 75.4106 250.08 76.2157C250.08 77.0209 250.739 77.6736 251.551 77.6736C252.364 77.6736 253.022 77.0209 253.022 76.2157ZM217.712 64.5526C217.712 63.7474 217.053 63.0947 216.24 63.0947C215.428 63.0947 214.769 63.7474 214.769 64.5526C214.769 65.3578 215.428 66.0105 216.24 66.0105C217.053 66.0105 217.712 65.3578 217.712 64.5526ZM228.013 63.0947C228.825 63.0947 229.484 63.7474 229.484 64.5526C229.484 65.3578 228.825 66.0105 228.013 66.0105C227.2 66.0105 226.542 65.3578 226.542 64.5526C226.542 63.7474 227.2 63.0947 228.013 63.0947ZM241.252 64.5526C241.252 63.7474 240.593 63.0947 239.781 63.0947C238.968 63.0947 238.31 63.7474 238.31 64.5526C238.31 65.3578 238.968 66.0105 239.781 66.0105C240.593 66.0105 241.252 65.3578 241.252 64.5526ZM251.551 63.0947C252.364 63.0947 253.022 63.7474 253.022 64.5526C253.022 65.3578 252.364 66.0105 251.551 66.0105C250.739 66.0105 250.08 65.3578 250.08 64.5526C250.08 63.7474 250.739 63.0947 251.551 63.0947ZM264.459 99.5409C264.459 98.7357 263.801 98.083 262.988 98.083C262.176 98.083 261.517 98.7357 261.517 99.5409C261.517 100.346 262.176 100.999 262.988 100.999C263.801 100.999 264.459 100.346 264.459 99.5409ZM274.757 98.0841C275.57 98.0841 276.229 98.7368 276.229 99.542C276.229 100.347 275.57 101 274.757 101C273.945 101 273.286 100.347 273.286 99.542C273.286 98.7368 273.945 98.0841 274.757 98.0841ZM288 99.542C288 98.7368 287.341 98.0841 286.529 98.0841C285.716 98.0841 285.057 98.7368 285.057 99.542C285.057 100.347 285.716 101 286.529 101C287.341 101 288 100.347 288 99.542ZM262.988 86.4199C263.801 86.4199 264.459 87.0726 264.459 87.8778C264.459 88.6829 263.801 89.3356 262.988 89.3356C262.176 89.3356 261.517 88.6829 261.517 87.8778C261.517 87.0726 262.176 86.4199 262.988 86.4199ZM276.229 87.8778C276.229 87.0726 275.57 86.4199 274.757 86.4199C273.945 86.4199 273.286 87.0726 273.286 87.8778C273.286 88.6829 273.945 89.3356 274.757 89.3356C275.57 89.3356 276.229 88.6829 276.229 87.8778ZM286.529 86.4199C287.341 86.4199 288 87.0726 288 87.8778C288 88.6829 287.341 89.3356 286.529 89.3356C285.716 89.3356 285.057 88.6829 285.057 87.8778C285.057 87.0726 285.716 86.4199 286.529 86.4199ZM264.459 76.2157C264.459 75.4106 263.801 74.7579 262.988 74.7579C262.176 74.7579 261.517 75.4106 261.517 76.2157C261.517 77.0209 262.176 77.6736 262.988 77.6736C263.801 77.6736 264.459 77.0209 264.459 76.2157ZM274.757 74.7579C275.57 74.7579 276.229 75.4106 276.229 76.2157C276.229 77.0209 275.57 77.6736 274.757 77.6736C273.945 77.6736 273.286 77.0209 273.286 76.2157C273.286 75.4106 273.945 74.7579 274.757 74.7579ZM288 76.2157C288 75.4106 287.341 74.7579 286.529 74.7579C285.716 74.7579 285.057 75.4106 285.057 76.2157C285.057 77.0209 285.716 77.6736 286.529 77.6736C287.341 77.6736 288 77.0209 288 76.2157ZM262.988 63.0947C263.801 63.0947 264.459 63.7474 264.459 64.5526C264.459 65.3578 263.801 66.0105 262.988 66.0105C262.176 66.0105 261.517 65.3578 261.517 64.5526C261.517 63.7474 262.176 63.0947 262.988 63.0947ZM276.229 64.5526C276.229 63.7474 275.57 63.0947 274.757 63.0947C273.945 63.0947 273.286 63.7474 273.286 64.5526C273.286 65.3578 273.945 66.0105 274.757 66.0105C275.57 66.0105 276.229 65.3578 276.229 64.5526ZM286.529 63.0947C287.341 63.0947 288 63.7474 288 64.5526C288 65.3578 287.341 66.0105 286.529 66.0105C285.716 66.0105 285.057 65.3578 285.057 64.5526C285.057 63.7474 285.716 63.0947 286.529 63.0947Z" fill="#E6EDFA"/>
<path opacity="0.6" fill-rule="evenodd" clip-rule="evenodd" d="M204.471 109.04C205.284 109.04 205.943 109.693 205.943 110.498C205.943 111.303 205.284 111.956 204.471 111.956C203.659 111.956 203 111.303 203 110.498C203 109.693 203.659 109.04 204.471 109.04ZM204.471 120.703C205.284 120.703 205.943 121.356 205.943 122.161C205.943 122.966 205.284 123.619 204.471 123.619C203.659 123.619 203 122.966 203 122.161C203 121.356 203.659 120.703 204.471 120.703ZM216.242 120.703C217.054 120.703 217.713 121.356 217.713 122.161C217.713 122.966 217.054 123.619 216.242 123.619C215.429 123.619 214.77 122.966 214.77 122.161C214.77 121.356 215.429 120.703 216.242 120.703ZM229.484 122.161C229.484 121.356 228.825 120.703 228.013 120.703C227.2 120.703 226.542 121.356 226.542 122.161C226.542 122.966 227.2 123.619 228.013 123.619C228.825 123.619 229.484 122.966 229.484 122.161ZM239.781 120.703C240.593 120.703 241.252 121.356 241.252 122.161C241.252 122.966 240.593 123.619 239.781 123.619C238.968 123.619 238.31 122.966 238.31 122.161C238.31 121.356 238.968 120.703 239.781 120.703ZM253.022 122.161C253.022 121.356 252.364 120.703 251.551 120.703C250.739 120.703 250.08 121.356 250.08 122.161C250.08 122.966 250.739 123.619 251.551 123.619C252.364 123.619 253.022 122.966 253.022 122.161ZM217.712 110.498C217.712 109.693 217.053 109.04 216.24 109.04C215.428 109.04 214.769 109.693 214.769 110.498C214.769 111.303 215.428 111.956 216.24 111.956C217.053 111.956 217.712 111.303 217.712 110.498ZM228.013 109.04C228.825 109.04 229.484 109.693 229.484 110.498C229.484 111.303 228.825 111.956 228.013 111.956C227.2 111.956 226.542 111.303 226.542 110.498C226.542 109.693 227.2 109.04 228.013 109.04ZM241.252 110.498C241.252 109.693 240.593 109.04 239.781 109.04C238.968 109.04 238.31 109.693 238.31 110.498C238.31 111.303 238.968 111.956 239.781 111.956C240.593 111.956 241.252 111.303 241.252 110.498ZM251.551 109.04C252.364 109.04 253.022 109.693 253.022 110.498C253.022 111.303 252.364 111.956 251.551 111.956C250.739 111.956 250.08 111.303 250.08 110.498C250.08 109.693 250.739 109.04 251.551 109.04ZM264.459 122.161C264.459 121.356 263.801 120.703 262.988 120.703C262.176 120.703 261.517 121.356 261.517 122.161C261.517 122.966 262.176 123.619 262.988 123.619C263.801 123.619 264.459 122.966 264.459 122.161ZM274.757 120.703C275.57 120.703 276.229 121.356 276.229 122.161C276.229 122.966 275.57 123.619 274.757 123.619C273.945 123.619 273.286 122.966 273.286 122.161C273.286 121.356 273.945 120.703 274.757 120.703ZM288 122.161C288 121.356 287.341 120.703 286.529 120.703C285.716 120.703 285.057 121.356 285.057 122.161C285.057 122.966 285.716 123.619 286.529 123.619C287.341 123.619 288 122.966 288 122.161ZM262.988 109.04C263.801 109.04 264.459 109.693 264.459 110.498C264.459 111.303 263.801 111.956 262.988 111.956C262.176 111.956 261.517 111.303 261.517 110.498C261.517 109.693 262.176 109.04 262.988 109.04ZM276.229 110.498C276.229 109.693 275.57 109.04 274.757 109.04C273.945 109.04 273.286 109.693 273.286 110.498C273.286 111.303 273.945 111.956 274.757 111.956C275.57 111.956 276.229 111.303 276.229 110.498ZM286.529 109.04C287.341 109.04 288 109.693 288 110.498C288 111.303 287.341 111.956 286.529 111.956C285.716 111.956 285.057 111.303 285.057 110.498C285.057 109.693 285.716 109.04 286.529 109.04Z" fill="#E6EDFA"/>
</g>
<g opacity="0.4">
<path opacity="0.6" fill-rule="evenodd" clip-rule="evenodd" d="M298.471 16C299.284 16 299.943 16.6527 299.943 17.4579C299.943 18.2631 299.284 18.9158 298.471 18.9158C297.659 18.9158 297 18.2631 297 17.4579C297 16.6527 297.659 16 298.471 16ZM299.943 29.121C299.943 28.3158 299.284 27.6631 298.471 27.6631C297.659 27.6631 297 28.3158 297 29.121C297 29.9262 297.659 30.5789 298.471 30.5789C299.284 30.5789 299.943 29.9262 299.943 29.121ZM298.471 39.3251C299.284 39.3251 299.943 39.9779 299.943 40.783C299.943 41.5882 299.284 42.2409 298.471 42.2409C297.659 42.2409 297 41.5882 297 40.783C297 39.9779 297.659 39.3251 298.471 39.3251ZM298.471 50.9883C299.284 50.9883 299.943 51.641 299.943 52.4462C299.943 53.2513 299.284 53.904 298.471 53.904C297.659 53.904 297 53.2513 297 52.4462C297 51.641 297.659 50.9883 298.471 50.9883ZM310.242 50.9894C311.054 50.9894 311.713 51.6421 311.713 52.4473C311.713 53.2524 311.054 53.9052 310.242 53.9052C309.429 53.9052 308.77 53.2524 308.77 52.4473C308.77 51.6421 309.429 50.9894 310.242 50.9894ZM323.483 52.4473C323.483 51.6421 322.824 50.9894 322.012 50.9894C321.199 50.9894 320.541 51.6421 320.541 52.4473C320.541 53.2524 321.199 53.9052 322.012 53.9052C322.824 53.9052 323.483 53.2524 323.483 52.4473ZM333.781 50.9894C334.593 50.9894 335.252 51.6421 335.252 52.4473C335.252 53.2524 334.593 53.9052 333.781 53.9052C332.968 53.9052 332.31 53.2524 332.31 52.4473C332.31 51.6421 332.968 50.9894 333.781 50.9894ZM347.022 52.4473C347.022 51.6421 346.364 50.9894 345.551 50.9894C344.739 50.9894 344.08 51.6421 344.08 52.4473C344.08 53.2524 344.739 53.9052 345.551 53.9052C346.364 53.9052 347.022 53.2524 347.022 52.4473ZM311.713 40.783C311.713 39.9779 311.054 39.3251 310.242 39.3251C309.429 39.3251 308.77 39.9779 308.77 40.783C308.77 41.5882 309.429 42.2409 310.242 42.2409C311.054 42.2409 311.713 41.5882 311.713 40.783ZM322.013 39.3251C322.825 39.3251 323.484 39.9779 323.484 40.783C323.484 41.5882 322.825 42.2409 322.013 42.2409C321.2 42.2409 320.542 41.5882 320.542 40.783C320.542 39.9779 321.2 39.3251 322.013 39.3251ZM335.252 40.783C335.252 39.9779 334.593 39.3251 333.781 39.3251C332.968 39.3251 332.31 39.9779 332.31 40.783C332.31 41.5882 332.968 42.2409 333.781 42.2409C334.593 42.2409 335.252 41.5882 335.252 40.783ZM345.551 39.3251C346.364 39.3251 347.022 39.9779 347.022 40.783C347.022 41.5882 346.364 42.2409 345.551 42.2409C344.739 42.2409 344.08 41.5882 344.08 40.783C344.08 39.9779 344.739 39.3251 345.551 39.3251ZM310.242 27.6631C311.054 27.6631 311.713 28.3158 311.713 29.121C311.713 29.9262 311.054 30.5789 310.242 30.5789C309.429 30.5789 308.77 29.9262 308.77 29.121C308.77 28.3158 309.429 27.6631 310.242 27.6631ZM323.484 29.121C323.484 28.3158 322.825 27.6631 322.013 27.6631C321.2 27.6631 320.542 28.3158 320.542 29.121C320.542 29.9262 321.2 30.5789 322.013 30.5789C322.825 30.5789 323.484 29.9262 323.484 29.121ZM333.781 27.6631C334.593 27.6631 335.252 28.3158 335.252 29.121C335.252 29.9262 334.593 30.5789 333.781 30.5789C332.968 30.5789 332.31 29.9262 332.31 29.121C332.31 28.3158 332.968 27.6631 333.781 27.6631ZM347.022 29.121C347.022 28.3158 346.364 27.6631 345.551 27.6631C344.739 27.6631 344.08 28.3158 344.08 29.121C344.08 29.9262 344.739 30.5789 345.551 30.5789C346.364 30.5789 347.022 29.9262 347.022 29.121ZM311.712 17.4579C311.712 16.6527 311.053 16 310.24 16C309.428 16 308.769 16.6527 308.769 17.4579C308.769 18.2631 309.428 18.9158 310.24 18.9158C311.053 18.9158 311.712 18.2631 311.712 17.4579ZM322.013 16C322.825 16 323.484 16.6527 323.484 17.4579C323.484 18.2631 322.825 18.9158 322.013 18.9158C321.2 18.9158 320.542 18.2631 320.542 17.4579C320.542 16.6527 321.2 16 322.013 16ZM335.252 17.4579C335.252 16.6527 334.593 16 333.781 16C332.968 16 332.31 16.6527 332.31 17.4579C332.31 18.2631 332.968 18.9158 333.781 18.9158C334.593 18.9158 335.252 18.2631 335.252 17.4579ZM345.551 16C346.364 16 347.022 16.6527 347.022 17.4579C347.022 18.2631 346.364 18.9158 345.551 18.9158C344.739 18.9158 344.08 18.2631 344.08 17.4579C344.08 16.6527 344.739 16 345.551 16ZM358.459 52.4462C358.459 51.641 357.801 50.9883 356.988 50.9883C356.176 50.9883 355.517 51.641 355.517 52.4462C355.517 53.2513 356.176 53.904 356.988 53.904C357.801 53.904 358.459 53.2513 358.459 52.4462ZM368.757 50.9894C369.57 50.9894 370.229 51.6421 370.229 52.4473C370.229 53.2524 369.57 53.9052 368.757 53.9052C367.945 53.9052 367.286 53.2524 367.286 52.4473C367.286 51.6421 367.945 50.9894 368.757 50.9894ZM382 52.4473C382 51.6421 381.341 50.9894 380.529 50.9894C379.716 50.9894 379.057 51.6421 379.057 52.4473C379.057 53.2524 379.716 53.9052 380.529 53.9052C381.341 53.9052 382 53.2524 382 52.4473ZM356.988 39.3251C357.801 39.3251 358.459 39.9779 358.459 40.783C358.459 41.5882 357.801 42.2409 356.988 42.2409C356.176 42.2409 355.517 41.5882 355.517 40.783C355.517 39.9779 356.176 39.3251 356.988 39.3251ZM370.229 40.783C370.229 39.9779 369.57 39.3251 368.757 39.3251C367.945 39.3251 367.286 39.9779 367.286 40.783C367.286 41.5882 367.945 42.2409 368.757 42.2409C369.57 42.2409 370.229 41.5882 370.229 40.783ZM380.529 39.3251C381.341 39.3251 382 39.9779 382 40.783C382 41.5882 381.341 42.2409 380.529 42.2409C379.716 42.2409 379.057 41.5882 379.057 40.783C379.057 39.9779 379.716 39.3251 380.529 39.3251ZM358.459 29.121C358.459 28.3158 357.801 27.6631 356.988 27.6631C356.176 27.6631 355.517 28.3158 355.517 29.121C355.517 29.9262 356.176 30.5789 356.988 30.5789C357.801 30.5789 358.459 29.9262 358.459 29.121ZM368.757 27.6631C369.57 27.6631 370.229 28.3158 370.229 29.121C370.229 29.9262 369.57 30.5789 368.757 30.5789C367.945 30.5789 367.286 29.9262 367.286 29.121C367.286 28.3158 367.945 27.6631 368.757 27.6631ZM382 29.121C382 28.3158 381.341 27.6631 380.529 27.6631C379.716 27.6631 379.057 28.3158 379.057 29.121C379.057 29.9262 379.716 30.5789 380.529 30.5789C381.341 30.5789 382 29.9262 382 29.121ZM356.988 16C357.801 16 358.459 16.6527 358.459 17.4579C358.459 18.2631 357.801 18.9158 356.988 18.9158C356.176 18.9158 355.517 18.2631 355.517 17.4579C355.517 16.6527 356.176 16 356.988 16ZM370.229 17.4579C370.229 16.6527 369.57 16 368.757 16C367.945 16 367.286 16.6527 367.286 17.4579C367.286 18.2631 367.945 18.9158 368.757 18.9158C369.57 18.9158 370.229 18.2631 370.229 17.4579ZM380.529 16C381.341 16 382 16.6527 382 17.4579C382 18.2631 381.341 18.9158 380.529 18.9158C379.716 18.9158 379.057 18.2631 379.057 17.4579C379.057 16.6527 379.716 16 380.529 16Z" fill="#E6EDFA"/>
<path opacity="0.6" fill-rule="evenodd" clip-rule="evenodd" d="M298.471 63.0947C299.284 63.0947 299.943 63.7474 299.943 64.5526C299.943 65.3578 299.284 66.0105 298.471 66.0105C297.659 66.0105 297 65.3578 297 64.5526C297 63.7474 297.659 63.0947 298.471 63.0947ZM299.943 76.2157C299.943 75.4106 299.284 74.7579 298.471 74.7579C297.659 74.7579 297 75.4106 297 76.2157C297 77.0209 297.659 77.6736 298.471 77.6736C299.284 77.6736 299.943 77.0209 299.943 76.2157ZM298.471 86.4199C299.284 86.4199 299.943 87.0726 299.943 87.8778C299.943 88.6829 299.284 89.3356 298.471 89.3356C297.659 89.3356 297 88.6829 297 87.8778C297 87.0726 297.659 86.4199 298.471 86.4199ZM298.471 98.083C299.284 98.083 299.943 98.7357 299.943 99.5409C299.943 100.346 299.284 100.999 298.471 100.999C297.659 100.999 297 100.346 297 99.5409C297 98.7357 297.659 98.083 298.471 98.083ZM310.242 98.0841C311.054 98.0841 311.713 98.7368 311.713 99.542C311.713 100.347 311.054 101 310.242 101C309.429 101 308.77 100.347 308.77 99.542C308.77 98.7368 309.429 98.0841 310.242 98.0841ZM323.483 99.542C323.483 98.7368 322.824 98.0841 322.012 98.0841C321.199 98.0841 320.541 98.7368 320.541 99.542C320.541 100.347 321.199 101 322.012 101C322.824 101 323.483 100.347 323.483 99.542ZM333.781 98.0841C334.593 98.0841 335.252 98.7368 335.252 99.542C335.252 100.347 334.593 101 333.781 101C332.968 101 332.31 100.347 332.31 99.542C332.31 98.7368 332.968 98.0841 333.781 98.0841ZM347.022 99.542C347.022 98.7368 346.364 98.0841 345.551 98.0841C344.739 98.0841 344.08 98.7368 344.08 99.542C344.08 100.347 344.739 101 345.551 101C346.364 101 347.022 100.347 347.022 99.542ZM311.713 87.8778C311.713 87.0726 311.054 86.4199 310.242 86.4199C309.429 86.4199 308.77 87.0726 308.77 87.8778C308.77 88.6829 309.429 89.3356 310.242 89.3356C311.054 89.3356 311.713 88.6829 311.713 87.8778ZM322.013 86.4199C322.825 86.4199 323.484 87.0726 323.484 87.8778C323.484 88.6829 322.825 89.3356 322.013 89.3356C321.2 89.3356 320.542 88.6829 320.542 87.8778C320.542 87.0726 321.2 86.4199 322.013 86.4199ZM335.252 87.8778C335.252 87.0726 334.593 86.4199 333.781 86.4199C332.968 86.4199 332.31 87.0726 332.31 87.8778C332.31 88.6829 332.968 89.3356 333.781 89.3356C334.593 89.3356 335.252 88.6829 335.252 87.8778ZM345.551 86.4199C346.364 86.4199 347.022 87.0726 347.022 87.8778C347.022 88.6829 346.364 89.3356 345.551 89.3356C344.739 89.3356 344.08 88.6829 344.08 87.8778C344.08 87.0726 344.739 86.4199 345.551 86.4199ZM310.242 74.7579C311.054 74.7579 311.713 75.4106 311.713 76.2157C311.713 77.0209 311.054 77.6736 310.242 77.6736C309.429 77.6736 308.77 77.0209 308.77 76.2157C308.77 75.4106 309.429 74.7579 310.242 74.7579ZM323.484 76.2157C323.484 75.4106 322.825 74.7579 322.013 74.7579C321.2 74.7579 320.542 75.4106 320.542 76.2157C320.542 77.0209 321.2 77.6736 322.013 77.6736C322.825 77.6736 323.484 77.0209 323.484 76.2157ZM333.781 74.7579C334.593 74.7579 335.252 75.4106 335.252 76.2157C335.252 77.0209 334.593 77.6736 333.781 77.6736C332.968 77.6736 332.31 77.0209 332.31 76.2157C332.31 75.4106 332.968 74.7579 333.781 74.7579ZM347.022 76.2157C347.022 75.4106 346.364 74.7579 345.551 74.7579C344.739 74.7579 344.08 75.4106 344.08 76.2157C344.08 77.0209 344.739 77.6736 345.551 77.6736C346.364 77.6736 347.022 77.0209 347.022 76.2157ZM311.712 64.5526C311.712 63.7474 311.053 63.0947 310.24 63.0947C309.428 63.0947 308.769 63.7474 308.769 64.5526C308.769 65.3578 309.428 66.0105 310.24 66.0105C311.053 66.0105 311.712 65.3578 311.712 64.5526ZM322.013 63.0947C322.825 63.0947 323.484 63.7474 323.484 64.5526C323.484 65.3578 322.825 66.0105 322.013 66.0105C321.2 66.0105 320.542 65.3578 320.542 64.5526C320.542 63.7474 321.2 63.0947 322.013 63.0947ZM335.252 64.5526C335.252 63.7474 334.593 63.0947 333.781 63.0947C332.968 63.0947 332.31 63.7474 332.31 64.5526C332.31 65.3578 332.968 66.0105 333.781 66.0105C334.593 66.0105 335.252 65.3578 335.252 64.5526ZM345.551 63.0947C346.364 63.0947 347.022 63.7474 347.022 64.5526C347.022 65.3578 346.364 66.0105 345.551 66.0105C344.739 66.0105 344.08 65.3578 344.08 64.5526C344.08 63.7474 344.739 63.0947 345.551 63.0947ZM358.459 99.5409C358.459 98.7357 357.801 98.083 356.988 98.083C356.176 98.083 355.517 98.7357 355.517 99.5409C355.517 100.346 356.176 100.999 356.988 100.999C357.801 100.999 358.459 100.346 358.459 99.5409ZM368.757 98.0841C369.57 98.0841 370.229 98.7368 370.229 99.542C370.229 100.347 369.57 101 368.757 101C367.945 101 367.286 100.347 367.286 99.542C367.286 98.7368 367.945 98.0841 368.757 98.0841ZM382 99.542C382 98.7368 381.341 98.0841 380.529 98.0841C379.716 98.0841 379.057 98.7368 379.057 99.542C379.057 100.347 379.716 101 380.529 101C381.341 101 382 100.347 382 99.542ZM356.988 86.4199C357.801 86.4199 358.459 87.0726 358.459 87.8778C358.459 88.6829 357.801 89.3356 356.988 89.3356C356.176 89.3356 355.517 88.6829 355.517 87.8778C355.517 87.0726 356.176 86.4199 356.988 86.4199ZM370.229 87.8778C370.229 87.0726 369.57 86.4199 368.757 86.4199C367.945 86.4199 367.286 87.0726 367.286 87.8778C367.286 88.6829 367.945 89.3356 368.757 89.3356C369.57 89.3356 370.229 88.6829 370.229 87.8778ZM380.529 86.4199C381.341 86.4199 382 87.0726 382 87.8778C382 88.6829 381.341 89.3356 380.529 89.3356C379.716 89.3356 379.057 88.6829 379.057 87.8778C379.057 87.0726 379.716 86.4199 380.529 86.4199ZM358.459 76.2157C358.459 75.4106 357.801 74.7579 356.988 74.7579C356.176 74.7579 355.517 75.4106 355.517 76.2157C355.517 77.0209 356.176 77.6736 356.988 77.6736C357.801 77.6736 358.459 77.0209 358.459 76.2157ZM368.757 74.7579C369.57 74.7579 370.229 75.4106 370.229 76.2157C370.229 77.0209 369.57 77.6736 368.757 77.6736C367.945 77.6736 367.286 77.0209 367.286 76.2157C367.286 75.4106 367.945 74.7579 368.757 74.7579ZM382 76.2157C382 75.4106 381.341 74.7579 380.529 74.7579C379.716 74.7579 379.057 75.4106 379.057 76.2157C379.057 77.0209 379.716 77.6736 380.529 77.6736C381.341 77.6736 382 77.0209 382 76.2157ZM356.988 63.0947C357.801 63.0947 358.459 63.7474 358.459 64.5526C358.459 65.3578 357.801 66.0105 356.988 66.0105C356.176 66.0105 355.517 65.3578 355.517 64.5526C355.517 63.7474 356.176 63.0947 356.988 63.0947ZM370.229 64.5526C370.229 63.7474 369.57 63.0947 368.757 63.0947C367.945 63.0947 367.286 63.7474 367.286 64.5526C367.286 65.3578 367.945 66.0105 368.757 66.0105C369.57 66.0105 370.229 65.3578 370.229 64.5526ZM380.529 63.0947C381.341 63.0947 382 63.7474 382 64.5526C382 65.3578 381.341 66.0105 380.529 66.0105C379.716 66.0105 379.057 65.3578 379.057 64.5526C379.057 63.7474 379.716 63.0947 380.529 63.0947Z" fill="#E6EDFA"/>
<path opacity="0.6" fill-rule="evenodd" clip-rule="evenodd" d="M298.471 109.04C299.284 109.04 299.943 109.693 299.943 110.498C299.943 111.303 299.284 111.956 298.471 111.956C297.659 111.956 297 111.303 297 110.498C297 109.693 297.659 109.04 298.471 109.04ZM298.471 120.703C299.284 120.703 299.943 121.356 299.943 122.161C299.943 122.966 299.284 123.619 298.471 123.619C297.659 123.619 297 122.966 297 122.161C297 121.356 297.659 120.703 298.471 120.703ZM310.242 120.703C311.054 120.703 311.713 121.356 311.713 122.161C311.713 122.966 311.054 123.619 310.242 123.619C309.429 123.619 308.77 122.966 308.77 122.161C308.77 121.356 309.429 120.703 310.242 120.703ZM323.484 122.161C323.484 121.356 322.825 120.703 322.013 120.703C321.2 120.703 320.542 121.356 320.542 122.161C320.542 122.966 321.2 123.619 322.013 123.619C322.825 123.619 323.484 122.966 323.484 122.161ZM333.781 120.703C334.593 120.703 335.252 121.356 335.252 122.161C335.252 122.966 334.593 123.619 333.781 123.619C332.968 123.619 332.31 122.966 332.31 122.161C332.31 121.356 332.968 120.703 333.781 120.703ZM347.022 122.161C347.022 121.356 346.364 120.703 345.551 120.703C344.739 120.703 344.08 121.356 344.08 122.161C344.08 122.966 344.739 123.619 345.551 123.619C346.364 123.619 347.022 122.966 347.022 122.161ZM311.712 110.498C311.712 109.693 311.053 109.04 310.24 109.04C309.428 109.04 308.769 109.693 308.769 110.498C308.769 111.303 309.428 111.956 310.24 111.956C311.053 111.956 311.712 111.303 311.712 110.498ZM322.013 109.04C322.825 109.04 323.484 109.693 323.484 110.498C323.484 111.303 322.825 111.956 322.013 111.956C321.2 111.956 320.542 111.303 320.542 110.498C320.542 109.693 321.2 109.04 322.013 109.04ZM335.252 110.498C335.252 109.693 334.593 109.04 333.781 109.04C332.968 109.04 332.31 109.693 332.31 110.498C332.31 111.303 332.968 111.956 333.781 111.956C334.593 111.956 335.252 111.303 335.252 110.498ZM345.551 109.04C346.364 109.04 347.022 109.693 347.022 110.498C347.022 111.303 346.364 111.956 345.551 111.956C344.739 111.956 344.08 111.303 344.08 110.498C344.08 109.693 344.739 109.04 345.551 109.04ZM358.459 122.161C358.459 121.356 357.801 120.703 356.988 120.703C356.176 120.703 355.517 121.356 355.517 122.161C355.517 122.966 356.176 123.619 356.988 123.619C357.801 123.619 358.459 122.966 358.459 122.161ZM368.757 120.703C369.57 120.703 370.229 121.356 370.229 122.161C370.229 122.966 369.57 123.619 368.757 123.619C367.945 123.619 367.286 122.966 367.286 122.161C367.286 121.356 367.945 120.703 368.757 120.703ZM382 122.161C382 121.356 381.341 120.703 380.529 120.703C379.716 120.703 379.057 121.356 379.057 122.161C379.057 122.966 379.716 123.619 380.529 123.619C381.341 123.619 382 122.966 382 122.161ZM356.988 109.04C357.801 109.04 358.459 109.693 358.459 110.498C358.459 111.303 357.801 111.956 356.988 111.956C356.176 111.956 355.517 111.303 355.517 110.498C355.517 109.693 356.176 109.04 356.988 109.04ZM370.229 110.498C370.229 109.693 369.57 109.04 368.757 109.04C367.945 109.04 367.286 109.693 367.286 110.498C367.286 111.303 367.945 111.956 368.757 111.956C369.57 111.956 370.229 111.303 370.229 110.498ZM380.529 109.04C381.341 109.04 382 109.693 382 110.498C382 111.303 381.341 111.956 380.529 111.956C379.716 111.956 379.057 111.303 379.057 110.498C379.057 109.693 379.716 109.04 380.529 109.04Z" fill="#E6EDFA"/>
</g>
<g opacity="0.4">
<path opacity="0.6" fill-rule="evenodd" clip-rule="evenodd" d="M392.471 16C393.284 16 393.943 16.6527 393.943 17.4579C393.943 18.2631 393.284 18.9158 392.471 18.9158C391.659 18.9158 391 18.2631 391 17.4579C391 16.6527 391.659 16 392.471 16ZM393.943 29.121C393.943 28.3158 393.284 27.6631 392.471 27.6631C391.659 27.6631 391 28.3158 391 29.121C391 29.9262 391.659 30.5789 392.471 30.5789C393.284 30.5789 393.943 29.9262 393.943 29.121ZM392.471 39.3251C393.284 39.3251 393.943 39.9779 393.943 40.783C393.943 41.5882 393.284 42.2409 392.471 42.2409C391.659 42.2409 391 41.5882 391 40.783C391 39.9779 391.659 39.3251 392.471 39.3251ZM392.471 50.9883C393.284 50.9883 393.943 51.641 393.943 52.4462C393.943 53.2513 393.284 53.904 392.471 53.904C391.659 53.904 391 53.2513 391 52.4462C391 51.641 391.659 50.9883 392.471 50.9883ZM404.242 50.9894C405.054 50.9894 405.713 51.6421 405.713 52.4473C405.713 53.2524 405.054 53.9052 404.242 53.9052C403.429 53.9052 402.77 53.2524 402.77 52.4473C402.77 51.6421 403.429 50.9894 404.242 50.9894ZM417.483 52.4473C417.483 51.6421 416.824 50.9894 416.012 50.9894C415.199 50.9894 414.541 51.6421 414.541 52.4473C414.541 53.2524 415.199 53.9052 416.012 53.9052C416.824 53.9052 417.483 53.2524 417.483 52.4473ZM427.781 50.9894C428.593 50.9894 429.252 51.6421 429.252 52.4473C429.252 53.2524 428.593 53.9052 427.781 53.9052C426.968 53.9052 426.31 53.2524 426.31 52.4473C426.31 51.6421 426.968 50.9894 427.781 50.9894ZM441.022 52.4473C441.022 51.6421 440.364 50.9894 439.551 50.9894C438.739 50.9894 438.08 51.6421 438.08 52.4473C438.08 53.2524 438.739 53.9052 439.551 53.9052C440.364 53.9052 441.022 53.2524 441.022 52.4473ZM405.713 40.783C405.713 39.9779 405.054 39.3251 404.242 39.3251C403.429 39.3251 402.77 39.9779 402.77 40.783C402.77 41.5882 403.429 42.2409 404.242 42.2409C405.054 42.2409 405.713 41.5882 405.713 40.783ZM416.013 39.3251C416.825 39.3251 417.484 39.9779 417.484 40.783C417.484 41.5882 416.825 42.2409 416.013 42.2409C415.2 42.2409 414.542 41.5882 414.542 40.783C414.542 39.9779 415.2 39.3251 416.013 39.3251ZM429.252 40.783C429.252 39.9779 428.593 39.3251 427.781 39.3251C426.968 39.3251 426.31 39.9779 426.31 40.783C426.31 41.5882 426.968 42.2409 427.781 42.2409C428.593 42.2409 429.252 41.5882 429.252 40.783ZM439.551 39.3251C440.364 39.3251 441.022 39.9779 441.022 40.783C441.022 41.5882 440.364 42.2409 439.551 42.2409C438.739 42.2409 438.08 41.5882 438.08 40.783C438.08 39.9779 438.739 39.3251 439.551 39.3251ZM404.242 27.6631C405.054 27.6631 405.713 28.3158 405.713 29.121C405.713 29.9262 405.054 30.5789 404.242 30.5789C403.429 30.5789 402.77 29.9262 402.77 29.121C402.77 28.3158 403.429 27.6631 404.242 27.6631ZM417.484 29.121C417.484 28.3158 416.825 27.6631 416.013 27.6631C415.2 27.6631 414.542 28.3158 414.542 29.121C414.542 29.9262 415.2 30.5789 416.013 30.5789C416.825 30.5789 417.484 29.9262 417.484 29.121ZM427.781 27.6631C428.593 27.6631 429.252 28.3158 429.252 29.121C429.252 29.9262 428.593 30.5789 427.781 30.5789C426.968 30.5789 426.31 29.9262 426.31 29.121C426.31 28.3158 426.968 27.6631 427.781 27.6631ZM441.022 29.121C441.022 28.3158 440.364 27.6631 439.551 27.6631C438.739 27.6631 438.08 28.3158 438.08 29.121C438.08 29.9262 438.739 30.5789 439.551 30.5789C440.364 30.5789 441.022 29.9262 441.022 29.121ZM405.712 17.4579C405.712 16.6527 405.053 16 404.24 16C403.428 16 402.769 16.6527 402.769 17.4579C402.769 18.2631 403.428 18.9158 404.24 18.9158C405.053 18.9158 405.712 18.2631 405.712 17.4579ZM416.013 16C416.825 16 417.484 16.6527 417.484 17.4579C417.484 18.2631 416.825 18.9158 416.013 18.9158C415.2 18.9158 414.542 18.2631 414.542 17.4579C414.542 16.6527 415.2 16 416.013 16ZM429.252 17.4579C429.252 16.6527 428.593 16 427.781 16C426.968 16 426.31 16.6527 426.31 17.4579C426.31 18.2631 426.968 18.9158 427.781 18.9158C428.593 18.9158 429.252 18.2631 429.252 17.4579ZM439.551 16C440.364 16 441.022 16.6527 441.022 17.4579C441.022 18.2631 440.364 18.9158 439.551 18.9158C438.739 18.9158 438.08 18.2631 438.08 17.4579C438.08 16.6527 438.739 16 439.551 16ZM452.459 52.4462C452.459 51.641 451.801 50.9883 450.988 50.9883C450.176 50.9883 449.517 51.641 449.517 52.4462C449.517 53.2513 450.176 53.904 450.988 53.904C451.801 53.904 452.459 53.2513 452.459 52.4462ZM462.757 50.9894C463.57 50.9894 464.229 51.6421 464.229 52.4473C464.229 53.2524 463.57 53.9052 462.757 53.9052C461.945 53.9052 461.286 53.2524 461.286 52.4473C461.286 51.6421 461.945 50.9894 462.757 50.9894ZM452.459 40.783C452.459 39.9779 451.801 39.3251 450.988 39.3251C450.176 39.3251 449.517 39.9779 449.517 40.783C449.517 41.5882 450.176 42.2409 450.988 42.2409C451.801 42.2409 452.459 41.5882 452.459 40.783ZM462.757 39.3251C463.57 39.3251 464.229 39.9779 464.229 40.783C464.229 41.5882 463.57 42.2409 462.757 42.2409C461.945 42.2409 461.286 41.5882 461.286 40.783C461.286 39.9779 461.945 39.3251 462.757 39.3251ZM452.459 29.121C452.459 28.3158 451.801 27.6631 450.988 27.6631C450.176 27.6631 449.517 28.3158 449.517 29.121C449.517 29.9262 450.176 30.5789 450.988 30.5789C451.801 30.5789 452.459 29.9262 452.459 29.121ZM462.757 27.6631C463.57 27.6631 464.229 28.3158 464.229 29.121C464.229 29.9262 463.57 30.5789 462.757 30.5789C461.945 30.5789 461.286 29.9262 461.286 29.121C461.286 28.3158 461.945 27.6631 462.757 27.6631ZM452.459 17.4579C452.459 16.6527 451.801 16 450.988 16C450.176 16 449.517 16.6527 449.517 17.4579C449.517 18.2631 450.176 18.9158 450.988 18.9158C451.801 18.9158 452.459 18.2631 452.459 17.4579ZM462.757 16C463.57 16 464.229 16.6527 464.229 17.4579C464.229 18.2631 463.57 18.9158 462.757 18.9158C461.945 18.9158 461.286 18.2631 461.286 17.4579C461.286 16.6527 461.945 16 462.757 16Z" fill="#E6EDFA"/>
<path opacity="0.6" fill-rule="evenodd" clip-rule="evenodd" d="M392.471 63.0947C393.284 63.0947 393.943 63.7474 393.943 64.5526C393.943 65.3578 393.284 66.0105 392.471 66.0105C391.659 66.0105 391 65.3578 391 64.5526C391 63.7474 391.659 63.0947 392.471 63.0947ZM393.943 76.2157C393.943 75.4106 393.284 74.7579 392.471 74.7579C391.659 74.7579 391 75.4106 391 76.2157C391 77.0209 391.659 77.6736 392.471 77.6736C393.284 77.6736 393.943 77.0209 393.943 76.2157ZM392.471 86.4199C393.284 86.4199 393.943 87.0726 393.943 87.8778C393.943 88.6829 393.284 89.3356 392.471 89.3356C391.659 89.3356 391 88.6829 391 87.8778C391 87.0726 391.659 86.4199 392.471 86.4199ZM392.471 98.083C393.284 98.083 393.943 98.7357 393.943 99.5409C393.943 100.346 393.284 100.999 392.471 100.999C391.659 100.999 391 100.346 391 99.5409C391 98.7357 391.659 98.083 392.471 98.083ZM404.242 98.0841C405.054 98.0841 405.713 98.7368 405.713 99.542C405.713 100.347 405.054 101 404.242 101C403.429 101 402.77 100.347 402.77 99.542C402.77 98.7368 403.429 98.0841 404.242 98.0841ZM417.483 99.542C417.483 98.7368 416.824 98.0841 416.012 98.0841C415.199 98.0841 414.541 98.7368 414.541 99.542C414.541 100.347 415.199 101 416.012 101C416.824 101 417.483 100.347 417.483 99.542ZM427.781 98.0841C428.593 98.0841 429.252 98.7368 429.252 99.542C429.252 100.347 428.593 101 427.781 101C426.968 101 426.31 100.347 426.31 99.542C426.31 98.7368 426.968 98.0841 427.781 98.0841ZM441.022 99.542C441.022 98.7368 440.364 98.0841 439.551 98.0841C438.739 98.0841 438.08 98.7368 438.08 99.542C438.08 100.347 438.739 101 439.551 101C440.364 101 441.022 100.347 441.022 99.542ZM405.713 87.8778C405.713 87.0726 405.054 86.4199 404.242 86.4199C403.429 86.4199 402.77 87.0726 402.77 87.8778C402.77 88.6829 403.429 89.3356 404.242 89.3356C405.054 89.3356 405.713 88.6829 405.713 87.8778ZM416.013 86.4199C416.825 86.4199 417.484 87.0726 417.484 87.8778C417.484 88.6829 416.825 89.3356 416.013 89.3356C415.2 89.3356 414.542 88.6829 414.542 87.8778C414.542 87.0726 415.2 86.4199 416.013 86.4199ZM429.252 87.8778C429.252 87.0726 428.593 86.4199 427.781 86.4199C426.968 86.4199 426.31 87.0726 426.31 87.8778C426.31 88.6829 426.968 89.3356 427.781 89.3356C428.593 89.3356 429.252 88.6829 429.252 87.8778ZM439.551 86.4199C440.364 86.4199 441.022 87.0726 441.022 87.8778C441.022 88.6829 440.364 89.3356 439.551 89.3356C438.739 89.3356 438.08 88.6829 438.08 87.8778C438.08 87.0726 438.739 86.4199 439.551 86.4199ZM404.242 74.7579C405.054 74.7579 405.713 75.4106 405.713 76.2157C405.713 77.0209 405.054 77.6736 404.242 77.6736C403.429 77.6736 402.77 77.0209 402.77 76.2157C402.77 75.4106 403.429 74.7579 404.242 74.7579ZM417.484 76.2157C417.484 75.4106 416.825 74.7579 416.013 74.7579C415.2 74.7579 414.542 75.4106 414.542 76.2157C414.542 77.0209 415.2 77.6736 416.013 77.6736C416.825 77.6736 417.484 77.0209 417.484 76.2157ZM427.781 74.7579C428.593 74.7579 429.252 75.4106 429.252 76.2157C429.252 77.0209 428.593 77.6736 427.781 77.6736C426.968 77.6736 426.31 77.0209 426.31 76.2157C426.31 75.4106 426.968 74.7579 427.781 74.7579ZM441.022 76.2157C441.022 75.4106 440.364 74.7579 439.551 74.7579C438.739 74.7579 438.08 75.4106 438.08 76.2157C438.08 77.0209 438.739 77.6736 439.551 77.6736C440.364 77.6736 441.022 77.0209 441.022 76.2157ZM405.712 64.5526C405.712 63.7474 405.053 63.0947 404.24 63.0947C403.428 63.0947 402.769 63.7474 402.769 64.5526C402.769 65.3578 403.428 66.0105 404.24 66.0105C405.053 66.0105 405.712 65.3578 405.712 64.5526ZM416.013 63.0947C416.825 63.0947 417.484 63.7474 417.484 64.5526C417.484 65.3578 416.825 66.0105 416.013 66.0105C415.2 66.0105 414.542 65.3578 414.542 64.5526C414.542 63.7474 415.2 63.0947 416.013 63.0947ZM429.252 64.5526C429.252 63.7474 428.593 63.0947 427.781 63.0947C426.968 63.0947 426.31 63.7474 426.31 64.5526C426.31 65.3578 426.968 66.0105 427.781 66.0105C428.593 66.0105 429.252 65.3578 429.252 64.5526ZM439.551 63.0947C440.364 63.0947 441.022 63.7474 441.022 64.5526C441.022 65.3578 440.364 66.0105 439.551 66.0105C438.739 66.0105 438.08 65.3578 438.08 64.5526C438.08 63.7474 438.739 63.0947 439.551 63.0947ZM452.459 99.5409C452.459 98.7357 451.801 98.083 450.988 98.083C450.176 98.083 449.517 98.7357 449.517 99.5409C449.517 100.346 450.176 100.999 450.988 100.999C451.801 100.999 452.459 100.346 452.459 99.5409ZM462.757 98.0841C463.57 98.0841 464.229 98.7368 464.229 99.542C464.229 100.347 463.57 101 462.757 101C461.945 101 461.286 100.347 461.286 99.542C461.286 98.7368 461.945 98.0841 462.757 98.0841ZM452.459 87.8778C452.459 87.0726 451.801 86.4199 450.988 86.4199C450.176 86.4199 449.517 87.0726 449.517 87.8778C449.517 88.6829 450.176 89.3356 450.988 89.3356C451.801 89.3356 452.459 88.6829 452.459 87.8778ZM462.757 86.4199C463.57 86.4199 464.229 87.0726 464.229 87.8778C464.229 88.6829 463.57 89.3356 462.757 89.3356C461.945 89.3356 461.286 88.6829 461.286 87.8778C461.286 87.0726 461.945 86.4199 462.757 86.4199ZM452.459 76.2157C452.459 75.4106 451.801 74.7579 450.988 74.7579C450.176 74.7579 449.517 75.4106 449.517 76.2157C449.517 77.0209 450.176 77.6736 450.988 77.6736C451.801 77.6736 452.459 77.0209 452.459 76.2157ZM462.757 74.7579C463.57 74.7579 464.229 75.4106 464.229 76.2157C464.229 77.0209 463.57 77.6736 462.757 77.6736C461.945 77.6736 461.286 77.0209 461.286 76.2157C461.286 75.4106 461.945 74.7579 462.757 74.7579ZM452.459 64.5526C452.459 63.7474 451.801 63.0947 450.988 63.0947C450.176 63.0947 449.517 63.7474 449.517 64.5526C449.517 65.3578 450.176 66.0105 450.988 66.0105C451.801 66.0105 452.459 65.3578 452.459 64.5526ZM462.757 63.0947C463.57 63.0947 464.229 63.7474 464.229 64.5526C464.229 65.3578 463.57 66.0105 462.757 66.0105C461.945 66.0105 461.286 65.3578 461.286 64.5526C461.286 63.7474 461.945 63.0947 462.757 63.0947Z" fill="#E6EDFA"/>
<path opacity="0.6" fill-rule="evenodd" clip-rule="evenodd" d="M392.471 109.04C393.284 109.04 393.943 109.693 393.943 110.498C393.943 111.303 393.284 111.956 392.471 111.956C391.659 111.956 391 111.303 391 110.498C391 109.693 391.659 109.04 392.471 109.04ZM392.471 120.703C393.284 120.703 393.943 121.356 393.943 122.161C393.943 122.966 393.284 123.619 392.471 123.619C391.659 123.619 391 122.966 391 122.161C391 121.356 391.659 120.703 392.471 120.703ZM404.242 120.703C405.054 120.703 405.713 121.356 405.713 122.161C405.713 122.966 405.054 123.619 404.242 123.619C403.429 123.619 402.77 122.966 402.77 122.161C402.77 121.356 403.429 120.703 404.242 120.703ZM417.484 122.161C417.484 121.356 416.825 120.703 416.013 120.703C415.2 120.703 414.542 121.356 414.542 122.161C414.542 122.966 415.2 123.619 416.013 123.619C416.825 123.619 417.484 122.966 417.484 122.161ZM427.781 120.703C428.593 120.703 429.252 121.356 429.252 122.161C429.252 122.966 428.593 123.619 427.781 123.619C426.968 123.619 426.31 122.966 426.31 122.161C426.31 121.356 426.968 120.703 427.781 120.703ZM441.022 122.161C441.022 121.356 440.364 120.703 439.551 120.703C438.739 120.703 438.08 121.356 438.08 122.161C438.08 122.966 438.739 123.619 439.551 123.619C440.364 123.619 441.022 122.966 441.022 122.161ZM405.712 110.498C405.712 109.693 405.053 109.04 404.24 109.04C403.428 109.04 402.769 109.693 402.769 110.498C402.769 111.303 403.428 111.956 404.24 111.956C405.053 111.956 405.712 111.303 405.712 110.498ZM416.013 109.04C416.825 109.04 417.484 109.693 417.484 110.498C417.484 111.303 416.825 111.956 416.013 111.956C415.2 111.956 414.542 111.303 414.542 110.498C414.542 109.693 415.2 109.04 416.013 109.04ZM429.252 110.498C429.252 109.693 428.593 109.04 427.781 109.04C426.968 109.04 426.31 109.693 426.31 110.498C426.31 111.303 426.968 111.956 427.781 111.956C428.593 111.956 429.252 111.303 429.252 110.498ZM439.551 109.04C440.364 109.04 441.022 109.693 441.022 110.498C441.022 111.303 440.364 111.956 439.551 111.956C438.739 111.956 438.08 111.303 438.08 110.498C438.08 109.693 438.739 109.04 439.551 109.04ZM452.459 122.161C452.459 121.356 451.801 120.703 450.988 120.703C450.176 120.703 449.517 121.356 449.517 122.161C449.517 122.966 450.176 123.619 450.988 123.619C451.801 123.619 452.459 122.966 452.459 122.161ZM462.757 120.703C463.57 120.703 464.229 121.356 464.229 122.161C464.229 122.966 463.57 123.619 462.757 123.619C461.945 123.619 461.286 122.966 461.286 122.161C461.286 121.356 461.945 120.703 462.757 120.703ZM452.459 110.498C452.459 109.693 451.801 109.04 450.988 109.04C450.176 109.04 449.517 109.693 449.517 110.498C449.517 111.303 450.176 111.956 450.988 111.956C451.801 111.956 452.459 111.303 452.459 110.498ZM462.757 109.04C463.57 109.04 464.229 109.693 464.229 110.498C464.229 111.303 463.57 111.956 462.757 111.956C461.945 111.956 461.286 111.303 461.286 110.498C461.286 109.693 461.945 109.04 462.757 109.04Z" fill="#E6EDFA"/>
</g>
<g filter="url(#filter0_dd)">
<rect x="37" y="37" width="307" height="123" rx="4" fill="#EEF4FF"/>
</g>
<rect x="60" y="106" width="257" height="75" rx="2" fill="white" stroke="#E6EDFA" stroke-width="4" stroke-linecap="round" stroke-linejoin="bevel"/>
<line x1="58" y1="129.26" x2="319" y2="129.26" stroke="#E6EDFA" stroke-width="4"/>
<line x1="231.86" y1="105.669" x2="231.86" y2="180.775" stroke="#E6EDFA" stroke-width="4"/>
<line x1="142.412" y1="105.669" x2="142.412" y2="180.775" stroke="#E6EDFA" stroke-width="4"/>
<g filter="url(#filter1_d)">
<rect x="58" y="58" width="79" height="9" rx="2" fill="#ABC7F9"/>
</g>
<g filter="url(#filter2_d)">
<rect x="58" y="75" width="117" height="9" rx="2" fill="#CEDCF5"/>
</g>
<g style="mix-blend-mode:multiply" opacity="0.2" filter="url(#filter3_i)">
<path d="M0 4C0 1.79086 1.79086 0 4 0H477C479.209 0 481 1.79086 481 4V140H0V4Z" fill="white"/>
</g>
<g filter="url(#filter4_dd)">
<rect x="225" y="56" width="217" height="33" rx="4" fill="white"/>
</g>
<rect x="267" y="68" width="42" height="9" rx="4" fill="#ABC7F9"/>
<rect x="316" y="68" width="30" height="9" rx="4" fill="#9BE5CB"/>
<path fill-rule="evenodd" clip-rule="evenodd" d="M249.437 70.9412C249.437 74.1574 246.892 76.7647 243.752 76.7647C240.613 76.7647 238.067 74.1574 238.067 70.9412C238.067 67.7249 240.613 65.1176 243.752 65.1176C246.892 65.1176 249.437 67.7249 249.437 70.9412ZM248.693 77.061C247.351 78.1986 245.63 78.8824 243.752 78.8824C239.471 78.8824 236 75.327 236 70.9412C236 66.5554 239.471 63 243.752 63C248.034 63 251.505 66.5554 251.505 70.9412C251.505 72.6397 250.984 74.2137 250.097 75.5049L254 79.5026L252.538 81L248.693 77.061Z" fill="#71A1F4"/>
</g>
<defs>
<filter id="filter0_dd" x="7" y="19" width="367" height="183" filterUnits="userSpaceOnUse" color-interpolation-filters="sRGB">
<feFlood flood-opacity="0" result="BackgroundImageFix"/>
<feColorMatrix in="SourceAlpha" type="matrix" values="0 0 0 0 0 0 0 0 0 0 0 0 0 0 0 0 0 0 127 0"/>
<feOffset dy="2"/>
<feGaussianBlur stdDeviation="2"/>
<feColorMatrix type="matrix" values="0 0 0 0 0.0980392 0 0 0 0 0.137255 0 0 0 0 0.192157 0 0 0 0.04 0"/>
<feBlend mode="normal" in2="BackgroundImageFix" result="effect1_dropShadow"/>
<feColorMatrix in="SourceAlpha" type="matrix" values="0 0 0 0 0 0 0 0 0 0 0 0 0 0 0 0 0 0 127 0"/>
<feOffset dy="12"/>
<feGaussianBlur stdDeviation="15"/>
<feColorMatrix type="matrix" values="0 0 0 0 0.0980392 0 0 0 0 0.137255 0 0 0 0 0.192157 0 0 0 0.16 0"/>
<feBlend mode="normal" in2="effect1_dropShadow" result="effect2_dropShadow"/>
<feBlend mode="normal" in="SourceGraphic" in2="effect2_dropShadow" result="shape"/>
</filter>
<filter id="filter1_d" x="28" y="48" width="179" height="109" filterUnits="userSpaceOnUse" color-interpolation-filters="sRGB">
<feFlood flood-opacity="0" result="BackgroundImageFix"/>
<feColorMatrix in="SourceAlpha" type="matrix" values="0 0 0 0 0 0 0 0 0 0 0 0 0 0 0 0 0 0 127 0"/>
<feOffset dx="20" dy="40"/>
<feGaussianBlur stdDeviation="25"/>
<feColorMatrix type="matrix" values="0 0 0 0 0.0980392 0 0 0 0 0.137255 0 0 0 0 0.192157 0 0 0 0.06 0"/>
<feBlend mode="normal" in2="BackgroundImageFix" result="effect1_dropShadow"/>
<feBlend mode="normal" in="SourceGraphic" in2="effect1_dropShadow" result="shape"/>
</filter>
<filter id="filter2_d" x="28" y="65" width="217" height="109" filterUnits="userSpaceOnUse" color-interpolation-filters="sRGB">
<feFlood flood-opacity="0" result="BackgroundImageFix"/>
<feColorMatrix in="SourceAlpha" type="matrix" values="0 0 0 0 0 0 0 0 0 0 0 0 0 0 0 0 0 0 127 0"/>
<feOffset dx="20" dy="40"/>
<feGaussianBlur stdDeviation="25"/>
<feColorMatrix type="matrix" values="0 0 0 0 0.0980392 0 0 0 0 0.137255 0 0 0 0 0.192157 0 0 0 0.06 0"/>
<feBlend mode="normal" in2="BackgroundImageFix" result="effect1_dropShadow"/>
<feBlend mode="normal" in="SourceGraphic" in2="effect1_dropShadow" result="shape"/>
</filter>
<filter id="filter3_i" x="0" y="-6" width="481" height="146" filterUnits="userSpaceOnUse" color-interpolation-filters="sRGB">
<feFlood flood-opacity="0" result="BackgroundImageFix"/>
<feBlend mode="normal" in="SourceGraphic" in2="BackgroundImageFix" result="shape"/>
<feColorMatrix in="SourceAlpha" type="matrix" values="0 0 0 0 0 0 0 0 0 0 0 0 0 0 0 0 0 0 127 0" result="hardAlpha"/>
<feOffset dy="-6"/>
<feGaussianBlur stdDeviation="10"/>
<feComposite in2="hardAlpha" operator="arithmetic" k2="-1" k3="1"/>
<feColorMatrix type="matrix" values="0 0 0 0 0 0 0 0 0 0 0 0 0 0 0 0 0 0 0.25 0"/>
<feBlend mode="normal" in2="shape" result="effect1_innerShadow"/>
</filter>
<filter id="filter4_dd" x="209" y="44" width="249" height="66" filterUnits="userSpaceOnUse" color-interpolation-filters="sRGB">
<feFlood flood-opacity="0" result="BackgroundImageFix"/>
<feColorMatrix in="SourceAlpha" type="matrix" values="0 0 0 0 0 0 0 0 0 0 0 0 0 0 0 0 0 0 127 0"/>
<feOffset dy="4"/>
<feGaussianBlur stdDeviation="8"/>
<feColorMatrix type="matrix" values="0 0 0 0 0.0980392 0 0 0 0 0.137255 0 0 0 0 0.192157 0 0 0 0.08 0"/>
<feBlend mode="normal" in2="BackgroundImageFix" result="effect1_dropShadow"/>
<feColorMatrix in="SourceAlpha" type="matrix" values="0 0 0 0 0 0 0 0 0 0 0 0 0 0 0 0 0 0 127 0"/>
<feOffset dy="5"/>
<feGaussianBlur stdDeviation="8"/>
<feColorMatrix type="matrix" values="0 0 0 0 0 0 0 0 0 0 0 0 0 0 0 0 0 0 0.06 0"/>
<feBlend mode="normal" in2="effect1_dropShadow" result="effect2_dropShadow"/>
<feBlend mode="normal" in="SourceGraphic" in2="effect2_dropShadow" result="shape"/>
</filter>
</defs>
</svg>
