<svg width="192" height="120" viewBox="0 0 192 120" fill="none" xmlns="http://www.w3.org/2000/svg">
<path d="M94.332 60.5835C94.332 62.9406 96.9254 64.377 98.9235 63.1266C100.862 61.9131 100.785 59.0631 98.7822 57.9574C96.7827 56.8533 94.332 58.2995 94.332 60.5835Z" fill="#323946"/>
<rect width="192" height="120" rx="6" transform="matrix(1 0 0 -1 0 120)" fill="#E6EDFA"/>
<mask id="mask0" mask-type="alpha" maskUnits="userSpaceOnUse" x="0" y="0" width="192" height="120">
<rect width="192" height="120" rx="6" transform="matrix(1 0 0 -1 0 120)" fill="#E6EDFA"/>
</mask>
<g mask="url(#mask0)">
<rect width="192" height="140" transform="matrix(1 0 0 -1 -96 120)" fill="#ABC7F9"/>
</g>
<path fill-rule="evenodd" clip-rule="evenodd" d="M12.6937 43.3083C12.6937 44.0948 12.0907 44.7324 11.3469 44.7324C10.603 44.7324 10 44.0948 10 43.3083C10 42.5218 10.603 41.8842 11.3469 41.8842C12.0907 41.8842 12.6937 42.5218 12.6937 43.3083ZM11.3469 33.3397C12.0907 33.3397 12.6937 32.7021 12.6937 31.9156C12.6937 31.1291 12.0907 30.4915 11.3469 30.4915C10.603 30.4915 10 31.1291 10 31.9156C10 32.7021 10.603 33.3397 11.3469 33.3397ZM12.6937 20.5237C12.6937 21.3102 12.0907 21.9478 11.3469 21.9478C10.603 21.9478 10 21.3102 10 20.5237C10 19.7372 10.603 19.0996 11.3469 19.0996C12.0907 19.0996 12.6937 19.7372 12.6937 20.5237ZM12.694 9.13127C12.694 9.91777 12.091 10.5554 11.3471 10.5554C10.6033 10.5554 10.0002 9.91777 10.0002 9.13127C10.0002 8.34477 10.6033 7.70718 11.3471 7.70718C12.091 7.70718 12.694 8.34476 12.694 9.13127ZM23.4686 9.13029C23.4686 9.9168 22.8656 10.5544 22.1218 10.5544C21.3779 10.5544 20.7749 9.9168 20.7749 9.13029C20.7749 8.34379 21.3779 7.7062 22.1218 7.7062C22.8656 7.7062 23.4686 8.34379 23.4686 9.13029ZM32.8967 10.5544C33.6405 10.5544 34.2435 9.9168 34.2435 9.13029C34.2435 8.34379 33.6405 7.7062 32.8967 7.7062C32.1528 7.7062 31.5498 8.34379 31.5498 9.13029C31.5498 9.9168 32.1528 10.5544 32.8967 10.5544ZM45.0182 9.13029C45.0182 9.9168 44.4152 10.5544 43.6713 10.5544C42.9275 10.5544 42.3245 9.9168 42.3245 9.13029C42.3245 8.34379 42.9275 7.7062 43.6713 7.7062C44.4152 7.7062 45.0182 8.34379 45.0182 9.13029ZM54.4462 10.5544C55.1901 10.5544 55.7931 9.9168 55.7931 9.13029C55.7931 8.34379 55.1901 7.7062 54.4462 7.7062C53.7024 7.7062 53.0994 8.34379 53.0994 9.13029C53.0994 9.9168 53.7024 10.5544 54.4462 10.5544ZM22.1218 21.9478C22.8656 21.9478 23.4686 21.3102 23.4686 20.5237C23.4686 19.7372 22.8656 19.0996 22.1218 19.0996C21.3779 19.0996 20.7749 19.7372 20.7749 20.5237C20.7749 21.3102 21.3779 21.9478 22.1218 21.9478ZM34.244 20.5237C34.244 21.3102 33.641 21.9478 32.8972 21.9478C32.1533 21.9478 31.5503 21.3102 31.5503 20.5237C31.5503 19.7372 32.1533 19.0996 32.8972 19.0996C33.641 19.0996 34.244 19.7372 34.244 20.5237ZM43.6713 21.9478C44.4152 21.9478 45.0182 21.3102 45.0182 20.5237C45.0182 19.7372 44.4152 19.0996 43.6713 19.0996C42.9275 19.0996 42.3245 19.7372 42.3245 20.5237C42.3245 21.3102 42.9275 21.9478 43.6713 21.9478ZM55.7931 20.5237C55.7931 21.3102 55.1901 21.9478 54.4462 21.9478C53.7024 21.9478 53.0994 21.3102 53.0994 20.5237C53.0994 19.7372 53.7024 19.0996 54.4462 19.0996C55.1901 19.0996 55.7931 19.7372 55.7931 20.5237ZM23.4686 31.9156C23.4686 32.7021 22.8656 33.3397 22.1218 33.3397C21.3779 33.3397 20.7749 32.7021 20.7749 31.9156C20.7749 31.1291 21.3779 30.4915 22.1218 30.4915C22.8656 30.4915 23.4686 31.1291 23.4686 31.9156ZM32.8972 33.3397C33.641 33.3397 34.244 32.7021 34.244 31.9156C34.244 31.1291 33.641 30.4915 32.8972 30.4915C32.1533 30.4915 31.5503 31.1291 31.5503 31.9156C31.5503 32.7021 32.1533 33.3397 32.8972 33.3397ZM45.0182 31.9156C45.0182 32.7021 44.4152 33.3397 43.6713 33.3397C42.9275 33.3397 42.3245 32.7021 42.3245 31.9156C42.3245 31.1291 42.9275 30.4915 43.6713 30.4915C44.4152 30.4915 45.0182 31.1291 45.0182 31.9156ZM54.4462 33.3397C55.1901 33.3397 55.7931 32.7021 55.7931 31.9156C55.7931 31.1291 55.1901 30.4915 54.4462 30.4915C53.7024 30.4915 53.0994 31.1291 53.0994 31.9156C53.0994 32.7021 53.7024 33.3397 54.4462 33.3397ZM22.1213 44.7324C22.8651 44.7324 23.4681 44.0948 23.4681 43.3083C23.4681 42.5218 22.8651 41.8842 22.1213 41.8842C21.3774 41.8842 20.7744 42.5218 20.7744 43.3083C20.7744 44.0948 21.3774 44.7324 22.1213 44.7324ZM66.2631 9.13127C66.2631 9.91777 65.66 10.5554 64.9162 10.5554C64.1723 10.5554 63.5693 9.91777 63.5693 9.13127C63.5693 8.34477 64.1723 7.70718 64.9162 7.70718C65.66 7.70718 66.2631 8.34476 66.2631 9.13127ZM75.6906 10.5544C76.4345 10.5544 77.0375 9.9168 77.0375 9.13029C77.0375 8.34379 76.4345 7.7062 75.6906 7.7062C74.9468 7.7062 74.3438 8.34379 74.3438 9.13029C74.3438 9.9168 74.9468 10.5544 75.6906 10.5544ZM87.8129 9.13029C87.8129 9.9168 87.2098 10.5544 86.466 10.5544C85.7222 10.5544 85.1191 9.9168 85.1191 9.13029C85.1191 8.34379 85.7222 7.7062 86.466 7.7062C87.2098 7.7062 87.8129 8.34379 87.8129 9.13029ZM64.916 21.9478C65.6598 21.9478 66.2628 21.3102 66.2628 20.5237C66.2628 19.7372 65.6598 19.0996 64.916 19.0996C64.1721 19.0996 63.5691 19.7372 63.5691 20.5237C63.5691 21.3102 64.1721 21.9478 64.916 21.9478ZM77.0377 20.5237C77.0377 21.3102 76.4347 21.9478 75.6908 21.9478C74.947 21.9478 74.344 21.3102 74.344 20.5237C74.344 19.7372 74.947 19.0996 75.6908 19.0996C76.4347 19.0996 77.0377 19.7372 77.0377 20.5237ZM86.466 21.9478C87.2098 21.9478 87.8129 21.3102 87.8129 20.5237C87.8129 19.7372 87.2098 19.0996 86.466 19.0996C85.7222 19.0996 85.1191 19.7372 85.1191 20.5237C85.1191 21.3102 85.7222 21.9478 86.466 21.9478ZM66.2628 31.9156C66.2628 32.7021 65.6598 33.3397 64.916 33.3397C64.1721 33.3397 63.5691 32.7021 63.5691 31.9156C63.5691 31.1291 64.1721 30.4915 64.916 30.4915C65.6598 30.4915 66.2628 31.1291 66.2628 31.9156ZM75.6908 33.3397C76.4347 33.3397 77.0377 32.7021 77.0377 31.9156C77.0377 31.1291 76.4347 30.4915 75.6908 30.4915C74.947 30.4915 74.344 31.1291 74.344 31.9156C74.344 32.7021 74.947 33.3397 75.6908 33.3397ZM87.8129 31.9156C87.8129 32.7021 87.2098 33.3397 86.466 33.3397C85.7222 33.3397 85.1191 32.7021 85.1191 31.9156C85.1191 31.1291 85.7222 30.4915 86.466 30.4915C87.2098 30.4915 87.8129 31.1291 87.8129 31.9156ZM64.916 44.7324C65.6598 44.7324 66.2628 44.0948 66.2628 43.3083C66.2628 42.5218 65.6598 41.8842 64.916 41.8842C64.1721 41.8842 63.5691 42.5218 63.5691 43.3083C63.5691 44.0948 64.1721 44.7324 64.916 44.7324ZM77.0377 43.3083C77.0377 44.0948 76.4347 44.7324 75.6908 44.7324C74.947 44.7324 74.344 44.0948 74.344 43.3083C74.344 42.5218 74.947 41.8842 75.6908 41.8842C76.4347 41.8842 77.0377 42.5218 77.0377 43.3083ZM86.466 44.7324C87.2098 44.7324 87.8129 44.0948 87.8129 43.3083C87.8129 42.5218 87.2098 41.8842 86.466 41.8842C85.7222 41.8842 85.1191 42.5218 85.1191 43.3083C85.1191 44.0948 85.7222 44.7324 86.466 44.7324Z" fill="#F2F7FF"/>
<path fill-rule="evenodd" clip-rule="evenodd" d="M11.3469 89.7588C12.0907 89.7588 12.6937 89.1212 12.6937 88.3347C12.6937 87.5482 12.0907 86.9106 11.3469 86.9106C10.603 86.9106 10 87.5482 10 88.3347C10 89.1212 10.603 89.7588 11.3469 89.7588ZM11.3469 78.366C12.0907 78.366 12.6937 77.7284 12.6937 76.9419C12.6937 76.1554 12.0907 75.5178 11.3469 75.5178C10.603 75.5178 10 76.1554 10 76.9419C10 77.7284 10.603 78.366 11.3469 78.366ZM12.6937 65.5501C12.6937 66.3366 12.0907 66.9742 11.3469 66.9742C10.603 66.9742 10 66.3366 10 65.5501C10 64.7636 10.603 64.126 11.3469 64.126C12.0907 64.126 12.6937 64.7636 12.6937 65.5501ZM12.694 54.1576C12.694 54.9441 12.091 55.5817 11.3471 55.5817C10.6033 55.5817 10.0002 54.9441 10.0002 54.1576C10.0002 53.3711 10.6033 52.7335 11.3471 52.7335C12.091 52.7335 12.694 53.3711 12.694 54.1576ZM23.4686 54.1567C23.4686 54.9432 22.8656 55.5807 22.1218 55.5807C21.3779 55.5807 20.7749 54.9432 20.7749 54.1567C20.7749 53.3702 21.3779 52.7326 22.1218 52.7326C22.8656 52.7326 23.4686 53.3702 23.4686 54.1567ZM32.8967 55.5807C33.6405 55.5807 34.2435 54.9432 34.2435 54.1567C34.2435 53.3702 33.6405 52.7326 32.8967 52.7326C32.1528 52.7326 31.5498 53.3702 31.5498 54.1567C31.5498 54.9432 32.1528 55.5807 32.8967 55.5807ZM45.0182 54.1567C45.0182 54.9432 44.4152 55.5807 43.6713 55.5807C42.9275 55.5807 42.3245 54.9432 42.3245 54.1567C42.3245 53.3702 42.9275 52.7326 43.6713 52.7326C44.4152 52.7326 45.0182 53.3702 45.0182 54.1567ZM54.4462 55.5807C55.1901 55.5807 55.7931 54.9432 55.7931 54.1567C55.7931 53.3702 55.1901 52.7326 54.4462 52.7326C53.7024 52.7326 53.0994 53.3702 53.0994 54.1567C53.0994 54.9432 53.7024 55.5807 54.4462 55.5807ZM22.1218 66.9742C22.8656 66.9742 23.4686 66.3366 23.4686 65.5501C23.4686 64.7636 22.8656 64.126 22.1218 64.126C21.3779 64.126 20.7749 64.7636 20.7749 65.5501C20.7749 66.3366 21.3779 66.9742 22.1218 66.9742ZM34.244 65.5501C34.244 66.3366 33.641 66.9742 32.8972 66.9742C32.1533 66.9742 31.5503 66.3366 31.5503 65.5501C31.5503 64.7636 32.1533 64.126 32.8972 64.126C33.641 64.126 34.244 64.7636 34.244 65.5501ZM43.6713 66.9742C44.4152 66.9742 45.0182 66.3366 45.0182 65.5501C45.0182 64.7636 44.4152 64.126 43.6713 64.126C42.9275 64.126 42.3245 64.7636 42.3245 65.5501C42.3245 66.3366 42.9275 66.9742 43.6713 66.9742ZM55.7931 65.5501C55.7931 66.3366 55.1901 66.9742 54.4462 66.9742C53.7024 66.9742 53.0994 66.3366 53.0994 65.5501C53.0994 64.7636 53.7024 64.126 54.4462 64.126C55.1901 64.126 55.7931 64.7636 55.7931 65.5501ZM23.4686 76.9419C23.4686 77.7284 22.8656 78.366 22.1218 78.366C21.3779 78.366 20.7749 77.7284 20.7749 76.9419C20.7749 76.1554 21.3779 75.5178 22.1218 75.5178C22.8656 75.5178 23.4686 76.1554 23.4686 76.9419ZM23.4681 88.3347C23.4681 89.1212 22.8651 89.7588 22.1213 89.7588C21.3774 89.7588 20.7744 89.1212 20.7744 88.3347C20.7744 87.5482 21.3774 86.9106 22.1213 86.9106C22.8651 86.9106 23.4681 87.5482 23.4681 88.3347ZM32.8972 89.7588C33.641 89.7588 34.244 89.1212 34.244 88.3347C34.244 87.5482 33.641 86.9106 32.8972 86.9106C32.1533 86.9106 31.5503 87.5482 31.5503 88.3347C31.5503 89.1212 32.1533 89.7588 32.8972 89.7588ZM45.0182 88.3347C45.0182 89.1212 44.4152 89.7588 43.6713 89.7588C42.9275 89.7588 42.3245 89.1212 42.3245 88.3347C42.3245 87.5482 42.9275 86.9106 43.6713 86.9106C44.4152 86.9106 45.0182 87.5482 45.0182 88.3347ZM54.4462 89.7588C55.1901 89.7588 55.7931 89.1212 55.7931 88.3347C55.7931 87.5482 55.1901 86.9106 54.4462 86.9106C53.7024 86.9106 53.0994 87.5482 53.0994 88.3347C53.0994 89.1212 53.7024 89.7588 54.4462 89.7588ZM66.2628 76.9419C66.2628 77.7284 65.6598 78.366 64.916 78.366C64.1721 78.366 63.5691 77.7284 63.5691 76.9419C63.5691 76.1554 64.1721 75.5178 64.916 75.5178C65.6598 75.5178 66.2628 76.1554 66.2628 76.9419ZM75.6908 78.366C76.4347 78.366 77.0377 77.7284 77.0377 76.9419C77.0377 76.1554 76.4347 75.5178 75.6908 75.5178C74.947 75.5178 74.344 76.1554 74.344 76.9419C74.344 77.7284 74.947 78.366 75.6908 78.366ZM87.8129 76.9419C87.8129 77.7284 87.2098 78.366 86.466 78.366C85.7222 78.366 85.1191 77.7284 85.1191 76.9419C85.1191 76.1554 85.7222 75.5178 86.466 75.5178C87.2098 75.5178 87.8129 76.1554 87.8129 76.9419ZM64.916 89.7588C65.6598 89.7588 66.2628 89.1212 66.2628 88.3347C66.2628 87.5482 65.6598 86.9106 64.916 86.9106C64.1721 86.9106 63.5691 87.5482 63.5691 88.3347C63.5691 89.1212 64.1721 89.7588 64.916 89.7588ZM77.0377 88.3347C77.0377 89.1212 76.4347 89.7588 75.6908 89.7588C74.947 89.7588 74.344 89.1212 74.344 88.3347C74.344 87.5482 74.947 86.9106 75.6908 86.9106C76.4347 86.9106 77.0377 87.5482 77.0377 88.3347ZM86.466 89.7588C87.2098 89.7588 87.8129 89.1212 87.8129 88.3347C87.8129 87.5482 87.2098 86.9106 86.466 86.9106C85.7222 86.9106 85.1191 87.5482 85.1191 88.3347C85.1191 89.1212 85.7222 89.7588 86.466 89.7588Z" fill="#F2F7FF"/>
<path fill-rule="evenodd" clip-rule="evenodd" d="M11.3469 112C12.0907 112 12.6937 111.362 12.6937 110.576C12.6937 109.789 12.0907 109.152 11.3469 109.152C10.603 109.152 10 109.789 10 110.576C10 111.362 10.603 112 11.3469 112ZM11.3471 100.608C12.091 100.608 12.694 99.97 12.694 99.1835C12.694 98.3969 12.091 97.7594 11.3471 97.7594C10.6033 97.7594 10.0002 98.3969 10.0002 99.1835C10.0002 99.97 10.6033 100.608 11.3471 100.608ZM22.1218 100.607C22.8656 100.607 23.4686 99.969 23.4686 99.1825C23.4686 98.396 22.8656 97.7584 22.1218 97.7584C21.3779 97.7584 20.7749 98.396 20.7749 99.1825C20.7749 99.969 21.3779 100.607 22.1218 100.607ZM34.2435 99.1825C34.2435 99.969 33.6405 100.607 32.8967 100.607C32.1528 100.607 31.5498 99.969 31.5498 99.1825C31.5498 98.396 32.1528 97.7584 32.8967 97.7584C33.6405 97.7584 34.2435 98.396 34.2435 99.1825ZM43.6713 100.607C44.4152 100.607 45.0182 99.969 45.0182 99.1825C45.0182 98.396 44.4152 97.7584 43.6713 97.7584C42.9275 97.7584 42.3245 98.396 42.3245 99.1825C42.3245 99.969 42.9275 100.607 43.6713 100.607ZM55.7931 99.1825C55.7931 99.969 55.1901 100.607 54.4462 100.607C53.7024 100.607 53.0994 99.969 53.0994 99.1825C53.0994 98.396 53.7024 97.7584 54.4462 97.7584C55.1901 97.7584 55.7931 98.396 55.7931 99.1825ZM23.4686 110.576C23.4686 111.362 22.8656 112 22.1218 112C21.3779 112 20.7749 111.362 20.7749 110.576C20.7749 109.789 21.3779 109.152 22.1218 109.152C22.8656 109.152 23.4686 109.789 23.4686 110.576ZM32.8972 112C33.641 112 34.244 111.362 34.244 110.576C34.244 109.789 33.641 109.152 32.8972 109.152C32.1533 109.152 31.5503 109.789 31.5503 110.576C31.5503 111.362 32.1533 112 32.8972 112ZM45.0182 110.576C45.0182 111.362 44.4152 112 43.6713 112C42.9275 112 42.3245 111.362 42.3245 110.576C42.3245 109.789 42.9275 109.152 43.6713 109.152C44.4152 109.152 45.0182 109.789 45.0182 110.576ZM54.4462 112C55.1901 112 55.7931 111.362 55.7931 110.576C55.7931 109.789 55.1901 109.152 54.4462 109.152C53.7024 109.152 53.0994 109.789 53.0994 110.576C53.0994 111.362 53.7024 112 54.4462 112ZM66.2631 99.1835C66.2631 99.97 65.66 100.608 64.9162 100.608C64.1723 100.608 63.5693 99.97 63.5693 99.1835C63.5693 98.3969 64.1723 97.7594 64.9162 97.7594C65.66 97.7594 66.2631 98.3969 66.2631 99.1835ZM75.6906 100.607C76.4345 100.607 77.0375 99.969 77.0375 99.1825C77.0375 98.396 76.4345 97.7584 75.6906 97.7584C74.9468 97.7584 74.3438 98.396 74.3438 99.1825C74.3438 99.969 74.9468 100.607 75.6906 100.607ZM87.8129 99.1825C87.8129 99.969 87.2098 100.607 86.466 100.607C85.7222 100.607 85.1191 99.969 85.1191 99.1825C85.1191 98.396 85.7222 97.7584 86.466 97.7584C87.2098 97.7584 87.8129 98.396 87.8129 99.1825ZM64.916 112C65.6598 112 66.2628 111.362 66.2628 110.576C66.2628 109.789 65.6598 109.152 64.916 109.152C64.1721 109.152 63.5691 109.789 63.5691 110.576C63.5691 111.362 64.1721 112 64.916 112ZM77.0377 110.576C77.0377 111.362 76.4347 112 75.6908 112C74.947 112 74.344 111.362 74.344 110.576C74.344 109.789 74.947 109.152 75.6908 109.152C76.4347 109.152 77.0377 109.789 77.0377 110.576ZM86.466 112C87.2098 112 87.8129 111.362 87.8129 110.576C87.8129 109.789 87.2098 109.152 86.466 109.152C85.7222 109.152 85.1191 109.789 85.1191 110.576C85.1191 111.362 85.7222 112 86.466 112Z" fill="#F2F7FF"/>
<g filter="url(#filter0_dd)">
<rect x="29" y="45" width="31" height="31" rx="2" fill="#2E75F0"/>
</g>
<g filter="url(#filter1_dd)">
<rect x="131" y="17" width="24" height="24" rx="2" fill="#2E75F0"/>
</g>
<path d="M131 29H143" stroke="#2359B6" stroke-width="4" stroke-linecap="round"/>
<g filter="url(#filter2_dd)">
<rect x="131" y="48" width="24" height="24" rx="2" fill="white"/>
</g>
<g filter="url(#filter3_dd)">
<rect x="131" y="79" width="24" height="24" rx="2" fill="#2E75F0"/>
</g>
<path d="M131 91H143" stroke="#2359B6" stroke-width="4" stroke-linecap="round"/>
<path d="M63.5 60C104 60 95 29 131 29" stroke="white" stroke-width="4"/>
<path d="M64 60C104.5 60 95 91 131 91" stroke="white" stroke-width="4"/>
<path d="M48 60H60" stroke="#ABC7F9" stroke-width="4" stroke-linecap="round"/>
<rect x="60" y="58" width="4" height="4" fill="white"/>
<defs>
<filter id="filter0_dd" x="25" y="43" width="39" height="39" filterUnits="userSpaceOnUse" color-interpolation-filters="sRGB">
<feFlood flood-opacity="0" result="BackgroundImageFix"/>
<feColorMatrix in="SourceAlpha" type="matrix" values="0 0 0 0 0 0 0 0 0 0 0 0 0 0 0 0 0 0 127 0"/>
<feOffset dy="2"/>
<feGaussianBlur stdDeviation="2"/>
<feColorMatrix type="matrix" values="0 0 0 0 0.0980392 0 0 0 0 0.137255 0 0 0 0 0.192157 0 0 0 0.04 0"/>
<feBlend mode="normal" in2="BackgroundImageFix" result="effect1_dropShadow"/>
<feColorMatrix in="SourceAlpha" type="matrix" values="0 0 0 0 0 0 0 0 0 0 0 0 0 0 0 0 0 0 127 0"/>
<feOffset dy="2"/>
<feGaussianBlur stdDeviation="2"/>
<feColorMatrix type="matrix" values="0 0 0 0 0.0980392 0 0 0 0 0.137255 0 0 0 0 0.192157 0 0 0 0.04 0"/>
<feBlend mode="normal" in2="effect1_dropShadow" result="effect2_dropShadow"/>
<feBlend mode="normal" in="SourceGraphic" in2="effect2_dropShadow" result="shape"/>
</filter>
<filter id="filter1_dd" x="127" y="15" width="32" height="32" filterUnits="userSpaceOnUse" color-interpolation-filters="sRGB">
<feFlood flood-opacity="0" result="BackgroundImageFix"/>
<feColorMatrix in="SourceAlpha" type="matrix" values="0 0 0 0 0 0 0 0 0 0 0 0 0 0 0 0 0 0 127 0"/>
<feOffset dy="2"/>
<feGaussianBlur stdDeviation="2"/>
<feColorMatrix type="matrix" values="0 0 0 0 0.0980392 0 0 0 0 0.137255 0 0 0 0 0.192157 0 0 0 0.04 0"/>
<feBlend mode="normal" in2="BackgroundImageFix" result="effect1_dropShadow"/>
<feColorMatrix in="SourceAlpha" type="matrix" values="0 0 0 0 0 0 0 0 0 0 0 0 0 0 0 0 0 0 127 0"/>
<feOffset dy="2"/>
<feGaussianBlur stdDeviation="2"/>
<feColorMatrix type="matrix" values="0 0 0 0 0.0980392 0 0 0 0 0.137255 0 0 0 0 0.192157 0 0 0 0.04 0"/>
<feBlend mode="normal" in2="effect1_dropShadow" result="effect2_dropShadow"/>
<feBlend mode="normal" in="SourceGraphic" in2="effect2_dropShadow" result="shape"/>
</filter>
<filter id="filter2_dd" x="127" y="46" width="32" height="32" filterUnits="userSpaceOnUse" color-interpolation-filters="sRGB">
<feFlood flood-opacity="0" result="BackgroundImageFix"/>
<feColorMatrix in="SourceAlpha" type="matrix" values="0 0 0 0 0 0 0 0 0 0 0 0 0 0 0 0 0 0 127 0"/>
<feOffset dy="2"/>
<feGaussianBlur stdDeviation="2"/>
<feColorMatrix type="matrix" values="0 0 0 0 0.0980392 0 0 0 0 0.137255 0 0 0 0 0.192157 0 0 0 0.04 0"/>
<feBlend mode="normal" in2="BackgroundImageFix" result="effect1_dropShadow"/>
<feColorMatrix in="SourceAlpha" type="matrix" values="0 0 0 0 0 0 0 0 0 0 0 0 0 0 0 0 0 0 127 0"/>
<feOffset dy="2"/>
<feGaussianBlur stdDeviation="2"/>
<feColorMatrix type="matrix" values="0 0 0 0 0.0980392 0 0 0 0 0.137255 0 0 0 0 0.192157 0 0 0 0.04 0"/>
<feBlend mode="normal" in2="effect1_dropShadow" result="effect2_dropShadow"/>
<feBlend mode="normal" in="SourceGraphic" in2="effect2_dropShadow" result="shape"/>
</filter>
<filter id="filter3_dd" x="127" y="77" width="32" height="32" filterUnits="userSpaceOnUse" color-interpolation-filters="sRGB">
<feFlood flood-opacity="0" result="BackgroundImageFix"/>
<feColorMatrix in="SourceAlpha" type="matrix" values="0 0 0 0 0 0 0 0 0 0 0 0 0 0 0 0 0 0 127 0"/>
<feOffset dy="2"/>
<feGaussianBlur stdDeviation="2"/>
<feColorMatrix type="matrix" values="0 0 0 0 0.0980392 0 0 0 0 0.137255 0 0 0 0 0.192157 0 0 0 0.04 0"/>
<feBlend mode="normal" in2="BackgroundImageFix" result="effect1_dropShadow"/>
<feColorMatrix in="SourceAlpha" type="matrix" values="0 0 0 0 0 0 0 0 0 0 0 0 0 0 0 0 0 0 127 0"/>
<feOffset dy="2"/>
<feGaussianBlur stdDeviation="2"/>
<feColorMatrix type="matrix" values="0 0 0 0 0.0980392 0 0 0 0 0.137255 0 0 0 0 0.192157 0 0 0 0.04 0"/>
<feBlend mode="normal" in2="effect1_dropShadow" result="effect2_dropShadow"/>
<feBlend mode="normal" in="SourceGraphic" in2="effect2_dropShadow" result="shape"/>
</filter>
</defs>
</svg>
