<svg width="192" height="120" viewBox="0 0 192 120" fill="none" xmlns="http://www.w3.org/2000/svg">
<rect width="192" height="120" rx="8" fill="white"/>
<rect width="192" height="120" rx="8" fill="#ABC7F9"/>
<path d="M96 0L184 6.42376e-07C188.418 6.74629e-07 192 3.58172 192 8L192 112C192 116.418 188.418 120 184 120L96 120L96 0Z" fill="#E6EDFA"/>
<path opacity="0.6" fill-rule="evenodd" clip-rule="evenodd" d="M108.281 13C108.988 13 109.562 13.5683 109.562 14.2692C109.562 14.9702 108.988 15.5385 108.281 15.5385C107.573 15.5385 107 14.9702 107 14.2692C107 13.5683 107.573 13 108.281 13ZM109.562 24.4233C109.562 23.7223 108.988 23.1541 108.281 23.1541C107.573 23.1541 107 23.7223 107 24.4233C107 25.1243 107.573 25.6925 108.281 25.6925C108.988 25.6925 109.562 25.1243 109.562 24.4233ZM108.281 33.307C108.988 33.307 109.562 33.8752 109.562 34.5762C109.562 35.2772 108.988 35.8454 108.281 35.8454C107.573 35.8454 107 35.2772 107 34.5762C107 33.8752 107.573 33.307 108.281 33.307ZM108.281 43.4608C108.988 43.4608 109.562 44.0291 109.562 44.73C109.562 45.431 108.988 45.9993 108.281 45.9993C107.573 45.9993 107 45.431 107 44.73C107 44.0291 107.573 43.4608 108.281 43.4608ZM118.528 43.4617C119.235 43.4617 119.809 44.03 119.809 44.7309C119.809 45.4319 119.235 46.0002 118.528 46.0002C117.821 46.0002 117.247 45.4319 117.247 44.7309C117.247 44.03 117.821 43.4617 118.528 43.4617ZM130.056 44.7309C130.056 44.03 129.482 43.4617 128.775 43.4617C128.068 43.4617 127.494 44.03 127.494 44.7309C127.494 45.4319 128.068 46.0002 128.775 46.0002C129.482 46.0002 130.056 45.4319 130.056 44.7309ZM139.021 43.4617C139.728 43.4617 140.302 44.03 140.302 44.7309C140.302 45.4319 139.728 46.0002 139.021 46.0002C138.314 46.0002 137.74 45.4319 137.74 44.7309C137.74 44.03 138.314 43.4617 139.021 43.4617ZM150.549 44.7309C150.549 44.03 149.976 43.4617 149.268 43.4617C148.561 43.4617 147.987 44.03 147.987 44.7309C147.987 45.4319 148.561 46.0002 149.268 46.0002C149.976 46.0002 150.549 45.4319 150.549 44.7309ZM119.809 34.5762C119.809 33.8752 119.235 33.307 118.528 33.307C117.821 33.307 117.247 33.8752 117.247 34.5762C117.247 35.2772 117.821 35.8454 118.528 35.8454C119.235 35.8454 119.809 35.2772 119.809 34.5762ZM128.776 33.307C129.483 33.307 130.057 33.8752 130.057 34.5762C130.057 35.2772 129.483 35.8454 128.776 35.8454C128.069 35.8454 127.495 35.2772 127.495 34.5762C127.495 33.8752 128.069 33.307 128.776 33.307ZM140.302 34.5762C140.302 33.8752 139.728 33.307 139.021 33.307C138.314 33.307 137.74 33.8752 137.74 34.5762C137.74 35.2772 138.314 35.8454 139.021 35.8454C139.728 35.8454 140.302 35.2772 140.302 34.5762ZM149.268 33.307C149.976 33.307 150.549 33.8752 150.549 34.5762C150.549 35.2772 149.976 35.8454 149.268 35.8454C148.561 35.8454 147.987 35.2772 147.987 34.5762C147.987 33.8752 148.561 33.307 149.268 33.307ZM118.528 23.1541C119.235 23.1541 119.809 23.7223 119.809 24.4233C119.809 25.1243 119.235 25.6925 118.528 25.6925C117.821 25.6925 117.247 25.1243 117.247 24.4233C117.247 23.7223 117.821 23.1541 118.528 23.1541ZM130.057 24.4233C130.057 23.7223 129.483 23.1541 128.776 23.1541C128.069 23.1541 127.495 23.7223 127.495 24.4233C127.495 25.1243 128.069 25.6925 128.776 25.6925C129.483 25.6925 130.057 25.1243 130.057 24.4233ZM139.021 23.1541C139.728 23.1541 140.302 23.7223 140.302 24.4233C140.302 25.1243 139.728 25.6925 139.021 25.6925C138.314 25.6925 137.74 25.1243 137.74 24.4233C137.74 23.7223 138.314 23.1541 139.021 23.1541ZM150.549 24.4233C150.549 23.7223 149.976 23.1541 149.268 23.1541C148.561 23.1541 147.987 23.7223 147.987 24.4233C147.987 25.1243 148.561 25.6925 149.268 25.6925C149.976 25.6925 150.549 25.1243 150.549 24.4233ZM119.808 14.2692C119.808 13.5683 119.234 13 118.527 13C117.82 13 117.246 13.5683 117.246 14.2692C117.246 14.9702 117.82 15.5385 118.527 15.5385C119.234 15.5385 119.808 14.9702 119.808 14.2692ZM128.776 13C129.483 13 130.057 13.5683 130.057 14.2692C130.057 14.9702 129.483 15.5385 128.776 15.5385C128.069 15.5385 127.495 14.9702 127.495 14.2692C127.495 13.5683 128.069 13 128.776 13ZM140.302 14.2692C140.302 13.5683 139.728 13 139.021 13C138.314 13 137.74 13.5683 137.74 14.2692C137.74 14.9702 138.314 15.5385 139.021 15.5385C139.728 15.5385 140.302 14.9702 140.302 14.2692ZM149.268 13C149.976 13 150.549 13.5683 150.549 14.2692C150.549 14.9702 149.976 15.5385 149.268 15.5385C148.561 15.5385 147.987 14.9702 147.987 14.2692C147.987 13.5683 148.561 13 149.268 13ZM160.506 44.73C160.506 44.0291 159.933 43.4608 159.225 43.4608C158.518 43.4608 157.944 44.0291 157.944 44.73C157.944 45.431 158.518 45.9993 159.225 45.9993C159.933 45.9993 160.506 45.431 160.506 44.73ZM169.471 43.4617C170.179 43.4617 170.752 44.03 170.752 44.7309C170.752 45.4319 170.179 46.0002 169.471 46.0002C168.764 46.0002 168.19 45.4319 168.19 44.7309C168.19 44.03 168.764 43.4617 169.471 43.4617ZM181 44.7309C181 44.03 180.427 43.4617 179.719 43.4617C179.012 43.4617 178.438 44.03 178.438 44.7309C178.438 45.4319 179.012 46.0002 179.719 46.0002C180.427 46.0002 181 45.4319 181 44.7309ZM159.225 33.307C159.933 33.307 160.506 33.8752 160.506 34.5762C160.506 35.2772 159.933 35.8454 159.225 35.8454C158.518 35.8454 157.944 35.2772 157.944 34.5762C157.944 33.8752 158.518 33.307 159.225 33.307ZM170.752 34.5762C170.752 33.8752 170.179 33.307 169.471 33.307C168.764 33.307 168.19 33.8752 168.19 34.5762C168.19 35.2772 168.764 35.8454 169.471 35.8454C170.179 35.8454 170.752 35.2772 170.752 34.5762ZM179.719 33.307C180.427 33.307 181 33.8752 181 34.5762C181 35.2772 180.427 35.8454 179.719 35.8454C179.012 35.8454 178.438 35.2772 178.438 34.5762C178.438 33.8752 179.012 33.307 179.719 33.307ZM160.506 24.4233C160.506 23.7223 159.933 23.1541 159.225 23.1541C158.518 23.1541 157.944 23.7223 157.944 24.4233C157.944 25.1243 158.518 25.6925 159.225 25.6925C159.933 25.6925 160.506 25.1243 160.506 24.4233ZM169.471 23.1541C170.179 23.1541 170.752 23.7223 170.752 24.4233C170.752 25.1243 170.179 25.6925 169.471 25.6925C168.764 25.6925 168.19 25.1243 168.19 24.4233C168.19 23.7223 168.764 23.1541 169.471 23.1541ZM181 24.4233C181 23.7223 180.427 23.1541 179.719 23.1541C179.012 23.1541 178.438 23.7223 178.438 24.4233C178.438 25.1243 179.012 25.6925 179.719 25.6925C180.427 25.6925 181 25.1243 181 24.4233ZM159.225 13C159.933 13 160.506 13.5683 160.506 14.2692C160.506 14.9702 159.933 15.5385 159.225 15.5385C158.518 15.5385 157.944 14.9702 157.944 14.2692C157.944 13.5683 158.518 13 159.225 13ZM170.752 14.2692C170.752 13.5683 170.179 13 169.471 13C168.764 13 168.19 13.5683 168.19 14.2692C168.19 14.9702 168.764 15.5385 169.471 15.5385C170.179 15.5385 170.752 14.9702 170.752 14.2692ZM179.719 13C180.427 13 181 13.5683 181 14.2692C181 14.9702 180.427 15.5385 179.719 15.5385C179.012 15.5385 178.438 14.9702 178.438 14.2692C178.438 13.5683 179.012 13 179.719 13Z" fill="white"/>
<path opacity="0.6" fill-rule="evenodd" clip-rule="evenodd" d="M108.281 54C108.988 54 109.562 54.5683 109.562 55.2692C109.562 55.9702 108.988 56.5385 108.281 56.5385C107.573 56.5385 107 55.9702 107 55.2692C107 54.5683 107.573 54 108.281 54ZM109.562 65.4233C109.562 64.7223 108.988 64.1541 108.281 64.1541C107.573 64.1541 107 64.7223 107 65.4233C107 66.1243 107.573 66.6925 108.281 66.6925C108.988 66.6925 109.562 66.1243 109.562 65.4233ZM108.281 74.307C108.988 74.307 109.562 74.8752 109.562 75.5762C109.562 76.2772 108.988 76.8454 108.281 76.8454C107.573 76.8454 107 76.2772 107 75.5762C107 74.8752 107.573 74.307 108.281 74.307ZM108.281 84.4608C108.988 84.4608 109.562 85.0291 109.562 85.73C109.562 86.431 108.988 86.9993 108.281 86.9993C107.573 86.9993 107 86.431 107 85.73C107 85.0291 107.573 84.4608 108.281 84.4608ZM118.528 84.4617C119.235 84.4617 119.809 85.03 119.809 85.7309C119.809 86.4319 119.235 87.0002 118.528 87.0002C117.821 87.0002 117.247 86.4319 117.247 85.7309C117.247 85.03 117.821 84.4617 118.528 84.4617ZM130.056 85.7309C130.056 85.03 129.482 84.4617 128.775 84.4617C128.068 84.4617 127.494 85.03 127.494 85.7309C127.494 86.4319 128.068 87.0002 128.775 87.0002C129.482 87.0002 130.056 86.4319 130.056 85.7309ZM139.021 84.4617C139.728 84.4617 140.302 85.03 140.302 85.7309C140.302 86.4319 139.728 87.0002 139.021 87.0002C138.314 87.0002 137.74 86.4319 137.74 85.7309C137.74 85.03 138.314 84.4617 139.021 84.4617ZM150.549 85.7309C150.549 85.03 149.976 84.4617 149.268 84.4617C148.561 84.4617 147.987 85.03 147.987 85.7309C147.987 86.4319 148.561 87.0002 149.268 87.0002C149.976 87.0002 150.549 86.4319 150.549 85.7309ZM119.809 75.5762C119.809 74.8752 119.235 74.307 118.528 74.307C117.821 74.307 117.247 74.8752 117.247 75.5762C117.247 76.2772 117.821 76.8454 118.528 76.8454C119.235 76.8454 119.809 76.2772 119.809 75.5762ZM128.776 74.307C129.483 74.307 130.057 74.8752 130.057 75.5762C130.057 76.2772 129.483 76.8454 128.776 76.8454C128.069 76.8454 127.495 76.2772 127.495 75.5762C127.495 74.8752 128.069 74.307 128.776 74.307ZM140.302 75.5762C140.302 74.8752 139.728 74.307 139.021 74.307C138.314 74.307 137.74 74.8752 137.74 75.5762C137.74 76.2772 138.314 76.8454 139.021 76.8454C139.728 76.8454 140.302 76.2772 140.302 75.5762ZM149.268 74.307C149.976 74.307 150.549 74.8752 150.549 75.5762C150.549 76.2772 149.976 76.8454 149.268 76.8454C148.561 76.8454 147.987 76.2772 147.987 75.5762C147.987 74.8752 148.561 74.307 149.268 74.307ZM118.528 64.1541C119.235 64.1541 119.809 64.7223 119.809 65.4233C119.809 66.1243 119.235 66.6925 118.528 66.6925C117.821 66.6925 117.247 66.1243 117.247 65.4233C117.247 64.7223 117.821 64.1541 118.528 64.1541ZM130.057 65.4233C130.057 64.7223 129.483 64.1541 128.776 64.1541C128.069 64.1541 127.495 64.7223 127.495 65.4233C127.495 66.1243 128.069 66.6925 128.776 66.6925C129.483 66.6925 130.057 66.1243 130.057 65.4233ZM139.021 64.1541C139.728 64.1541 140.302 64.7223 140.302 65.4233C140.302 66.1243 139.728 66.6925 139.021 66.6925C138.314 66.6925 137.74 66.1243 137.74 65.4233C137.74 64.7223 138.314 64.1541 139.021 64.1541ZM150.549 65.4233C150.549 64.7223 149.976 64.1541 149.268 64.1541C148.561 64.1541 147.987 64.7223 147.987 65.4233C147.987 66.1243 148.561 66.6925 149.268 66.6925C149.976 66.6925 150.549 66.1243 150.549 65.4233ZM119.808 55.2692C119.808 54.5683 119.234 54 118.527 54C117.82 54 117.246 54.5683 117.246 55.2692C117.246 55.9702 117.82 56.5385 118.527 56.5385C119.234 56.5385 119.808 55.9702 119.808 55.2692ZM128.776 54C129.483 54 130.057 54.5683 130.057 55.2692C130.057 55.9702 129.483 56.5385 128.776 56.5385C128.069 56.5385 127.495 55.9702 127.495 55.2692C127.495 54.5683 128.069 54 128.776 54ZM140.302 55.2692C140.302 54.5683 139.728 54 139.021 54C138.314 54 137.74 54.5683 137.74 55.2692C137.74 55.9702 138.314 56.5385 139.021 56.5385C139.728 56.5385 140.302 55.9702 140.302 55.2692ZM149.268 54C149.976 54 150.549 54.5683 150.549 55.2692C150.549 55.9702 149.976 56.5385 149.268 56.5385C148.561 56.5385 147.987 55.9702 147.987 55.2692C147.987 54.5683 148.561 54 149.268 54ZM160.506 85.73C160.506 85.0291 159.933 84.4608 159.225 84.4608C158.518 84.4608 157.944 85.0291 157.944 85.73C157.944 86.431 158.518 86.9993 159.225 86.9993C159.933 86.9993 160.506 86.431 160.506 85.73ZM169.471 84.4617C170.179 84.4617 170.752 85.03 170.752 85.7309C170.752 86.4319 170.179 87.0002 169.471 87.0002C168.764 87.0002 168.19 86.4319 168.19 85.7309C168.19 85.03 168.764 84.4617 169.471 84.4617ZM181 85.7309C181 85.03 180.427 84.4617 179.719 84.4617C179.012 84.4617 178.438 85.03 178.438 85.7309C178.438 86.4319 179.012 87.0002 179.719 87.0002C180.427 87.0002 181 86.4319 181 85.7309ZM159.225 74.307C159.933 74.307 160.506 74.8752 160.506 75.5762C160.506 76.2772 159.933 76.8454 159.225 76.8454C158.518 76.8454 157.944 76.2772 157.944 75.5762C157.944 74.8752 158.518 74.307 159.225 74.307ZM170.752 75.5762C170.752 74.8752 170.179 74.307 169.471 74.307C168.764 74.307 168.19 74.8752 168.19 75.5762C168.19 76.2772 168.764 76.8454 169.471 76.8454C170.179 76.8454 170.752 76.2772 170.752 75.5762ZM179.719 74.307C180.427 74.307 181 74.8752 181 75.5762C181 76.2772 180.427 76.8454 179.719 76.8454C179.012 76.8454 178.438 76.2772 178.438 75.5762C178.438 74.8752 179.012 74.307 179.719 74.307ZM160.506 65.4233C160.506 64.7223 159.933 64.1541 159.225 64.1541C158.518 64.1541 157.944 64.7223 157.944 65.4233C157.944 66.1243 158.518 66.6925 159.225 66.6925C159.933 66.6925 160.506 66.1243 160.506 65.4233ZM169.471 64.1541C170.179 64.1541 170.752 64.7223 170.752 65.4233C170.752 66.1243 170.179 66.6925 169.471 66.6925C168.764 66.6925 168.19 66.1243 168.19 65.4233C168.19 64.7223 168.764 64.1541 169.471 64.1541ZM181 65.4233C181 64.7223 180.427 64.1541 179.719 64.1541C179.012 64.1541 178.438 64.7223 178.438 65.4233C178.438 66.1243 179.012 66.6925 179.719 66.6925C180.427 66.6925 181 66.1243 181 65.4233ZM159.225 54C159.933 54 160.506 54.5683 160.506 55.2692C160.506 55.9702 159.933 56.5385 159.225 56.5385C158.518 56.5385 157.944 55.9702 157.944 55.2692C157.944 54.5683 158.518 54 159.225 54ZM170.752 55.2692C170.752 54.5683 170.179 54 169.471 54C168.764 54 168.19 54.5683 168.19 55.2692C168.19 55.9702 168.764 56.5385 169.471 56.5385C170.179 56.5385 170.752 55.9702 170.752 55.2692ZM179.719 54C180.427 54 181 54.5683 181 55.2692C181 55.9702 180.427 56.5385 179.719 56.5385C179.012 56.5385 178.438 55.9702 178.438 55.2692C178.438 54.5683 179.012 54 179.719 54Z" fill="white"/>
<path opacity="0.6" fill-rule="evenodd" clip-rule="evenodd" d="M108.281 94C108.988 94 109.562 94.5683 109.562 95.2692C109.562 95.9702 108.988 96.5385 108.281 96.5385C107.573 96.5385 107 95.9702 107 95.2692C107 94.5683 107.573 94 108.281 94ZM108.281 104.154C108.988 104.154 109.562 104.722 109.562 105.423C109.562 106.124 108.988 106.693 108.281 106.693C107.573 106.693 107 106.124 107 105.423C107 104.722 107.573 104.154 108.281 104.154ZM118.528 104.154C119.235 104.154 119.809 104.722 119.809 105.423C119.809 106.124 119.235 106.693 118.528 106.693C117.821 106.693 117.247 106.124 117.247 105.423C117.247 104.722 117.821 104.154 118.528 104.154ZM130.057 105.423C130.057 104.722 129.483 104.154 128.776 104.154C128.069 104.154 127.495 104.722 127.495 105.423C127.495 106.124 128.069 106.693 128.776 106.693C129.483 106.693 130.057 106.124 130.057 105.423ZM139.021 104.154C139.728 104.154 140.302 104.722 140.302 105.423C140.302 106.124 139.728 106.693 139.021 106.693C138.314 106.693 137.74 106.124 137.74 105.423C137.74 104.722 138.314 104.154 139.021 104.154ZM150.549 105.423C150.549 104.722 149.976 104.154 149.268 104.154C148.561 104.154 147.987 104.722 147.987 105.423C147.987 106.124 148.561 106.693 149.268 106.693C149.976 106.693 150.549 106.124 150.549 105.423ZM119.808 95.2692C119.808 94.5683 119.234 94 118.527 94C117.82 94 117.246 94.5683 117.246 95.2692C117.246 95.9702 117.82 96.5385 118.527 96.5385C119.234 96.5385 119.808 95.9702 119.808 95.2692ZM128.776 94C129.483 94 130.057 94.5683 130.057 95.2692C130.057 95.9702 129.483 96.5385 128.776 96.5385C128.069 96.5385 127.495 95.9702 127.495 95.2692C127.495 94.5683 128.069 94 128.776 94ZM140.302 95.2692C140.302 94.5683 139.728 94 139.021 94C138.314 94 137.74 94.5683 137.74 95.2692C137.74 95.9702 138.314 96.5385 139.021 96.5385C139.728 96.5385 140.302 95.9702 140.302 95.2692ZM149.268 94C149.976 94 150.549 94.5683 150.549 95.2692C150.549 95.9702 149.976 96.5385 149.268 96.5385C148.561 96.5385 147.987 95.9702 147.987 95.2692C147.987 94.5683 148.561 94 149.268 94ZM160.506 105.423C160.506 104.722 159.933 104.154 159.225 104.154C158.518 104.154 157.944 104.722 157.944 105.423C157.944 106.124 158.518 106.693 159.225 106.693C159.933 106.693 160.506 106.124 160.506 105.423ZM169.471 104.154C170.179 104.154 170.752 104.722 170.752 105.423C170.752 106.124 170.179 106.693 169.471 106.693C168.764 106.693 168.19 106.124 168.19 105.423C168.19 104.722 168.764 104.154 169.471 104.154ZM181 105.423C181 104.722 180.427 104.154 179.719 104.154C179.012 104.154 178.438 104.722 178.438 105.423C178.438 106.124 179.012 106.693 179.719 106.693C180.427 106.693 181 106.124 181 105.423ZM159.225 94C159.933 94 160.506 94.5683 160.506 95.2692C160.506 95.9702 159.933 96.5385 159.225 96.5385C158.518 96.5385 157.944 95.9702 157.944 95.2692C157.944 94.5683 158.518 94 159.225 94ZM170.752 95.2692C170.752 94.5683 170.179 94 169.471 94C168.764 94 168.19 94.5683 168.19 95.2692C168.19 95.9702 168.764 96.5385 169.471 96.5385C170.179 96.5385 170.752 95.9702 170.752 95.2692ZM179.719 94C180.427 94 181 94.5683 181 95.2692C181 95.9702 180.427 96.5385 179.719 96.5385C179.012 96.5385 178.438 95.9702 178.438 95.2692C178.438 94.5683 179.012 94 179.719 94Z" fill="white"/>
<path opacity="0.2" fill-rule="evenodd" clip-rule="evenodd" d="M12.2809 13C12.9883 13 13.5617 13.5683 13.5617 14.2692C13.5617 14.9702 12.9883 15.5385 12.2809 15.5385C11.5735 15.5385 11 14.9702 11 14.2692C11 13.5683 11.5735 13 12.2809 13ZM13.5617 24.4233C13.5617 23.7223 12.9883 23.1541 12.2809 23.1541C11.5735 23.1541 11 23.7223 11 24.4233C11 25.1243 11.5735 25.6925 12.2809 25.6925C12.9883 25.6925 13.5617 25.1243 13.5617 24.4233ZM12.2809 33.307C12.9883 33.307 13.5617 33.8752 13.5617 34.5762C13.5617 35.2772 12.9883 35.8454 12.2809 35.8454C11.5735 35.8454 11 35.2772 11 34.5762C11 33.8752 11.5735 33.307 12.2809 33.307ZM12.2809 43.4608C12.9883 43.4608 13.5617 44.0291 13.5617 44.73C13.5617 45.431 12.9883 45.9993 12.2809 45.9993C11.5735 45.9993 11 45.431 11 44.73C11 44.0291 11.5735 43.4608 12.2809 43.4608ZM22.5279 43.4617C23.2353 43.4617 23.8088 44.03 23.8088 44.7309C23.8088 45.4319 23.2353 46.0002 22.5279 46.0002C21.8205 46.0002 21.2471 45.4319 21.2471 44.7309C21.2471 44.03 21.8205 43.4617 22.5279 43.4617ZM34.0559 44.7309C34.0559 44.03 33.4824 43.4617 32.775 43.4617C32.0676 43.4617 31.4941 44.03 31.4941 44.7309C31.4941 45.4319 32.0676 46.0002 32.775 46.0002C33.4824 46.0002 34.0559 45.4319 34.0559 44.7309ZM43.0211 43.4617C43.7285 43.4617 44.302 44.03 44.302 44.7309C44.302 45.4319 43.7285 46.0002 43.0211 46.0002C42.3137 46.0002 41.7402 45.4319 41.7402 44.7309C41.7402 44.03 42.3137 43.4617 43.0211 43.4617ZM54.549 44.7309C54.549 44.03 53.9756 43.4617 53.2682 43.4617C52.5608 43.4617 51.9873 44.03 51.9873 44.7309C51.9873 45.4319 52.5608 46.0002 53.2682 46.0002C53.9756 46.0002 54.549 45.4319 54.549 44.7309ZM23.8088 34.5762C23.8088 33.8752 23.2353 33.307 22.5279 33.307C21.8205 33.307 21.2471 33.8752 21.2471 34.5762C21.2471 35.2772 21.8205 35.8454 22.5279 35.8454C23.2353 35.8454 23.8088 35.2772 23.8088 34.5762ZM32.776 33.307C33.4834 33.307 34.0568 33.8752 34.0568 34.5762C34.0568 35.2772 33.4834 35.8454 32.776 35.8454C32.0686 35.8454 31.4951 35.2772 31.4951 34.5762C31.4951 33.8752 32.0686 33.307 32.776 33.307ZM44.302 34.5762C44.302 33.8752 43.7285 33.307 43.0211 33.307C42.3137 33.307 41.7402 33.8752 41.7402 34.5762C41.7402 35.2772 42.3137 35.8454 43.0211 35.8454C43.7285 35.8454 44.302 35.2772 44.302 34.5762ZM53.2682 33.307C53.9756 33.307 54.549 33.8752 54.549 34.5762C54.549 35.2772 53.9756 35.8454 53.2682 35.8454C52.5608 35.8454 51.9873 35.2772 51.9873 34.5762C51.9873 33.8752 52.5608 33.307 53.2682 33.307ZM22.5279 23.1541C23.2353 23.1541 23.8088 23.7223 23.8088 24.4233C23.8088 25.1243 23.2353 25.6925 22.5279 25.6925C21.8205 25.6925 21.2471 25.1243 21.2471 24.4233C21.2471 23.7223 21.8205 23.1541 22.5279 23.1541ZM34.0568 24.4233C34.0568 23.7223 33.4834 23.1541 32.776 23.1541C32.0686 23.1541 31.4951 23.7223 31.4951 24.4233C31.4951 25.1243 32.0686 25.6925 32.776 25.6925C33.4834 25.6925 34.0568 25.1243 34.0568 24.4233ZM43.0211 23.1541C43.7285 23.1541 44.302 23.7223 44.302 24.4233C44.302 25.1243 43.7285 25.6925 43.0211 25.6925C42.3137 25.6925 41.7402 25.1243 41.7402 24.4233C41.7402 23.7223 42.3137 23.1541 43.0211 23.1541ZM54.549 24.4233C54.549 23.7223 53.9756 23.1541 53.2682 23.1541C52.5608 23.1541 51.9873 23.7223 51.9873 24.4233C51.9873 25.1243 52.5608 25.6925 53.2682 25.6925C53.9756 25.6925 54.549 25.1243 54.549 24.4233ZM23.8078 14.2692C23.8078 13.5683 23.2344 13 22.527 13C21.8196 13 21.2461 13.5683 21.2461 14.2692C21.2461 14.9702 21.8196 15.5385 22.527 15.5385C23.2344 15.5385 23.8078 14.9702 23.8078 14.2692ZM32.776 13C33.4834 13 34.0568 13.5683 34.0568 14.2692C34.0568 14.9702 33.4834 15.5385 32.776 15.5385C32.0686 15.5385 31.4951 14.9702 31.4951 14.2692C31.4951 13.5683 32.0686 13 32.776 13ZM44.302 14.2692C44.302 13.5683 43.7285 13 43.0211 13C42.3137 13 41.7402 13.5683 41.7402 14.2692C41.7402 14.9702 42.3137 15.5385 43.0211 15.5385C43.7285 15.5385 44.302 14.9702 44.302 14.2692ZM53.2682 13C53.9756 13 54.549 13.5683 54.549 14.2692C54.549 14.9702 53.9756 15.5385 53.2682 15.5385C52.5608 15.5385 51.9873 14.9702 51.9873 14.2692C51.9873 13.5683 52.5608 13 53.2682 13ZM64.5061 44.73C64.5061 44.0291 63.9326 43.4608 63.2252 43.4608C62.5178 43.4608 61.9443 44.0291 61.9443 44.73C61.9443 45.431 62.5178 45.9993 63.2252 45.9993C63.9326 45.9993 64.5061 45.431 64.5061 44.73ZM73.4713 43.4617C74.1787 43.4617 74.7522 44.03 74.7522 44.7309C74.7522 45.4319 74.1787 46.0002 73.4713 46.0002C72.7639 46.0002 72.1904 45.4319 72.1904 44.7309C72.1904 44.03 72.7639 43.4617 73.4713 43.4617ZM85.0002 44.7309C85.0002 44.03 84.4267 43.4617 83.7193 43.4617C83.0119 43.4617 82.4385 44.03 82.4385 44.7309C82.4385 45.4319 83.0119 46.0002 83.7193 46.0002C84.4267 46.0002 85.0002 45.4319 85.0002 44.7309ZM63.2252 33.307C63.9326 33.307 64.5061 33.8752 64.5061 34.5762C64.5061 35.2772 63.9326 35.8454 63.2252 35.8454C62.5178 35.8454 61.9443 35.2772 61.9443 34.5762C61.9443 33.8752 62.5178 33.307 63.2252 33.307ZM74.7522 34.5762C74.7522 33.8752 74.1787 33.307 73.4713 33.307C72.7639 33.307 72.1904 33.8752 72.1904 34.5762C72.1904 35.2772 72.7639 35.8454 73.4713 35.8454C74.1787 35.8454 74.7522 35.2772 74.7522 34.5762ZM83.7193 33.307C84.4267 33.307 85.0002 33.8752 85.0002 34.5762C85.0002 35.2772 84.4267 35.8454 83.7193 35.8454C83.0119 35.8454 82.4385 35.2772 82.4385 34.5762C82.4385 33.8752 83.0119 33.307 83.7193 33.307ZM64.5061 24.4233C64.5061 23.7223 63.9326 23.1541 63.2252 23.1541C62.5178 23.1541 61.9443 23.7223 61.9443 24.4233C61.9443 25.1243 62.5178 25.6925 63.2252 25.6925C63.9326 25.6925 64.5061 25.1243 64.5061 24.4233ZM73.4713 23.1541C74.1787 23.1541 74.7522 23.7223 74.7522 24.4233C74.7522 25.1243 74.1787 25.6925 73.4713 25.6925C72.7639 25.6925 72.1904 25.1243 72.1904 24.4233C72.1904 23.7223 72.7639 23.1541 73.4713 23.1541ZM85.0002 24.4233C85.0002 23.7223 84.4267 23.1541 83.7193 23.1541C83.0119 23.1541 82.4385 23.7223 82.4385 24.4233C82.4385 25.1243 83.0119 25.6925 83.7193 25.6925C84.4267 25.6925 85.0002 25.1243 85.0002 24.4233ZM63.2252 13C63.9326 13 64.5061 13.5683 64.5061 14.2692C64.5061 14.9702 63.9326 15.5385 63.2252 15.5385C62.5178 15.5385 61.9443 14.9702 61.9443 14.2692C61.9443 13.5683 62.5178 13 63.2252 13ZM74.7522 14.2692C74.7522 13.5683 74.1787 13 73.4713 13C72.7639 13 72.1904 13.5683 72.1904 14.2692C72.1904 14.9702 72.7639 15.5385 73.4713 15.5385C74.1787 15.5385 74.7522 14.9702 74.7522 14.2692ZM83.7193 13C84.4267 13 85.0002 13.5683 85.0002 14.2692C85.0002 14.9702 84.4267 15.5385 83.7193 15.5385C83.0119 15.5385 82.4385 14.9702 82.4385 14.2692C82.4385 13.5683 83.0119 13 83.7193 13Z" fill="white"/>
<path opacity="0.2" fill-rule="evenodd" clip-rule="evenodd" d="M12.2809 54C12.9883 54 13.5617 54.5683 13.5617 55.2692C13.5617 55.9702 12.9883 56.5385 12.2809 56.5385C11.5735 56.5385 11 55.9702 11 55.2692C11 54.5683 11.5735 54 12.2809 54ZM13.5617 65.4233C13.5617 64.7223 12.9883 64.1541 12.2809 64.1541C11.5735 64.1541 11 64.7223 11 65.4233C11 66.1243 11.5735 66.6925 12.2809 66.6925C12.9883 66.6925 13.5617 66.1243 13.5617 65.4233ZM12.2809 74.307C12.9883 74.307 13.5617 74.8752 13.5617 75.5762C13.5617 76.2772 12.9883 76.8454 12.2809 76.8454C11.5735 76.8454 11 76.2772 11 75.5762C11 74.8752 11.5735 74.307 12.2809 74.307ZM12.2809 84.4608C12.9883 84.4608 13.5617 85.0291 13.5617 85.73C13.5617 86.431 12.9883 86.9993 12.2809 86.9993C11.5735 86.9993 11 86.431 11 85.73C11 85.0291 11.5735 84.4608 12.2809 84.4608ZM22.5279 84.4617C23.2353 84.4617 23.8088 85.03 23.8088 85.7309C23.8088 86.4319 23.2353 87.0002 22.5279 87.0002C21.8205 87.0002 21.2471 86.4319 21.2471 85.7309C21.2471 85.03 21.8205 84.4617 22.5279 84.4617ZM34.0559 85.7309C34.0559 85.03 33.4824 84.4617 32.775 84.4617C32.0676 84.4617 31.4941 85.03 31.4941 85.7309C31.4941 86.4319 32.0676 87.0002 32.775 87.0002C33.4824 87.0002 34.0559 86.4319 34.0559 85.7309ZM43.0211 84.4617C43.7285 84.4617 44.302 85.03 44.302 85.7309C44.302 86.4319 43.7285 87.0002 43.0211 87.0002C42.3137 87.0002 41.7402 86.4319 41.7402 85.7309C41.7402 85.03 42.3137 84.4617 43.0211 84.4617ZM54.549 85.7309C54.549 85.03 53.9756 84.4617 53.2682 84.4617C52.5608 84.4617 51.9873 85.03 51.9873 85.7309C51.9873 86.4319 52.5608 87.0002 53.2682 87.0002C53.9756 87.0002 54.549 86.4319 54.549 85.7309ZM23.8088 75.5762C23.8088 74.8752 23.2353 74.307 22.5279 74.307C21.8205 74.307 21.2471 74.8752 21.2471 75.5762C21.2471 76.2772 21.8205 76.8454 22.5279 76.8454C23.2353 76.8454 23.8088 76.2772 23.8088 75.5762ZM32.776 74.307C33.4834 74.307 34.0568 74.8752 34.0568 75.5762C34.0568 76.2772 33.4834 76.8454 32.776 76.8454C32.0686 76.8454 31.4951 76.2772 31.4951 75.5762C31.4951 74.8752 32.0686 74.307 32.776 74.307ZM44.302 75.5762C44.302 74.8752 43.7285 74.307 43.0211 74.307C42.3137 74.307 41.7402 74.8752 41.7402 75.5762C41.7402 76.2772 42.3137 76.8454 43.0211 76.8454C43.7285 76.8454 44.302 76.2772 44.302 75.5762ZM53.2682 74.307C53.9756 74.307 54.549 74.8752 54.549 75.5762C54.549 76.2772 53.9756 76.8454 53.2682 76.8454C52.5608 76.8454 51.9873 76.2772 51.9873 75.5762C51.9873 74.8752 52.5608 74.307 53.2682 74.307ZM22.5279 64.1541C23.2353 64.1541 23.8088 64.7223 23.8088 65.4233C23.8088 66.1243 23.2353 66.6925 22.5279 66.6925C21.8205 66.6925 21.2471 66.1243 21.2471 65.4233C21.2471 64.7223 21.8205 64.1541 22.5279 64.1541ZM34.0568 65.4233C34.0568 64.7223 33.4834 64.1541 32.776 64.1541C32.0686 64.1541 31.4951 64.7223 31.4951 65.4233C31.4951 66.1243 32.0686 66.6925 32.776 66.6925C33.4834 66.6925 34.0568 66.1243 34.0568 65.4233ZM43.0211 64.1541C43.7285 64.1541 44.302 64.7223 44.302 65.4233C44.302 66.1243 43.7285 66.6925 43.0211 66.6925C42.3137 66.6925 41.7402 66.1243 41.7402 65.4233C41.7402 64.7223 42.3137 64.1541 43.0211 64.1541ZM54.549 65.4233C54.549 64.7223 53.9756 64.1541 53.2682 64.1541C52.5608 64.1541 51.9873 64.7223 51.9873 65.4233C51.9873 66.1243 52.5608 66.6925 53.2682 66.6925C53.9756 66.6925 54.549 66.1243 54.549 65.4233ZM23.8078 55.2692C23.8078 54.5683 23.2344 54 22.527 54C21.8196 54 21.2461 54.5683 21.2461 55.2692C21.2461 55.9702 21.8196 56.5385 22.527 56.5385C23.2344 56.5385 23.8078 55.9702 23.8078 55.2692ZM32.776 54C33.4834 54 34.0568 54.5683 34.0568 55.2692C34.0568 55.9702 33.4834 56.5385 32.776 56.5385C32.0686 56.5385 31.4951 55.9702 31.4951 55.2692C31.4951 54.5683 32.0686 54 32.776 54ZM44.302 55.2692C44.302 54.5683 43.7285 54 43.0211 54C42.3137 54 41.7402 54.5683 41.7402 55.2692C41.7402 55.9702 42.3137 56.5385 43.0211 56.5385C43.7285 56.5385 44.302 55.9702 44.302 55.2692ZM53.2682 54C53.9756 54 54.549 54.5683 54.549 55.2692C54.549 55.9702 53.9756 56.5385 53.2682 56.5385C52.5608 56.5385 51.9873 55.9702 51.9873 55.2692C51.9873 54.5683 52.5608 54 53.2682 54ZM64.5061 85.73C64.5061 85.0291 63.9326 84.4608 63.2252 84.4608C62.5178 84.4608 61.9443 85.0291 61.9443 85.73C61.9443 86.431 62.5178 86.9993 63.2252 86.9993C63.9326 86.9993 64.5061 86.431 64.5061 85.73ZM73.4713 84.4617C74.1787 84.4617 74.7522 85.03 74.7522 85.7309C74.7522 86.4319 74.1787 87.0002 73.4713 87.0002C72.7639 87.0002 72.1904 86.4319 72.1904 85.7309C72.1904 85.03 72.7639 84.4617 73.4713 84.4617ZM85.0002 85.7309C85.0002 85.03 84.4267 84.4617 83.7193 84.4617C83.0119 84.4617 82.4385 85.03 82.4385 85.7309C82.4385 86.4319 83.0119 87.0002 83.7193 87.0002C84.4267 87.0002 85.0002 86.4319 85.0002 85.7309ZM63.2252 74.307C63.9326 74.307 64.5061 74.8752 64.5061 75.5762C64.5061 76.2772 63.9326 76.8454 63.2252 76.8454C62.5178 76.8454 61.9443 76.2772 61.9443 75.5762C61.9443 74.8752 62.5178 74.307 63.2252 74.307ZM74.7522 75.5762C74.7522 74.8752 74.1787 74.307 73.4713 74.307C72.7639 74.307 72.1904 74.8752 72.1904 75.5762C72.1904 76.2772 72.7639 76.8454 73.4713 76.8454C74.1787 76.8454 74.7522 76.2772 74.7522 75.5762ZM83.7193 74.307C84.4267 74.307 85.0002 74.8752 85.0002 75.5762C85.0002 76.2772 84.4267 76.8454 83.7193 76.8454C83.0119 76.8454 82.4385 76.2772 82.4385 75.5762C82.4385 74.8752 83.0119 74.307 83.7193 74.307ZM64.5061 65.4233C64.5061 64.7223 63.9326 64.1541 63.2252 64.1541C62.5178 64.1541 61.9443 64.7223 61.9443 65.4233C61.9443 66.1243 62.5178 66.6925 63.2252 66.6925C63.9326 66.6925 64.5061 66.1243 64.5061 65.4233ZM73.4713 64.1541C74.1787 64.1541 74.7522 64.7223 74.7522 65.4233C74.7522 66.1243 74.1787 66.6925 73.4713 66.6925C72.7639 66.6925 72.1904 66.1243 72.1904 65.4233C72.1904 64.7223 72.7639 64.1541 73.4713 64.1541ZM85.0002 65.4233C85.0002 64.7223 84.4267 64.1541 83.7193 64.1541C83.0119 64.1541 82.4385 64.7223 82.4385 65.4233C82.4385 66.1243 83.0119 66.6925 83.7193 66.6925C84.4267 66.6925 85.0002 66.1243 85.0002 65.4233ZM63.2252 54C63.9326 54 64.5061 54.5683 64.5061 55.2692C64.5061 55.9702 63.9326 56.5385 63.2252 56.5385C62.5178 56.5385 61.9443 55.9702 61.9443 55.2692C61.9443 54.5683 62.5178 54 63.2252 54ZM74.7522 55.2692C74.7522 54.5683 74.1787 54 73.4713 54C72.7639 54 72.1904 54.5683 72.1904 55.2692C72.1904 55.9702 72.7639 56.5385 73.4713 56.5385C74.1787 56.5385 74.7522 55.9702 74.7522 55.2692ZM83.7193 54C84.4267 54 85.0002 54.5683 85.0002 55.2692C85.0002 55.9702 84.4267 56.5385 83.7193 56.5385C83.0119 56.5385 82.4385 55.9702 82.4385 55.2692C82.4385 54.5683 83.0119 54 83.7193 54Z" fill="white"/>
<path opacity="0.2" fill-rule="evenodd" clip-rule="evenodd" d="M12.2809 94C12.9883 94 13.5617 94.5683 13.5617 95.2692C13.5617 95.9702 12.9883 96.5385 12.2809 96.5385C11.5735 96.5385 11 95.9702 11 95.2692C11 94.5683 11.5735 94 12.2809 94ZM12.2809 104.154C12.9883 104.154 13.5617 104.722 13.5617 105.423C13.5617 106.124 12.9883 106.693 12.2809 106.693C11.5735 106.693 11 106.124 11 105.423C11 104.722 11.5735 104.154 12.2809 104.154ZM22.5279 104.154C23.2353 104.154 23.8088 104.722 23.8088 105.423C23.8088 106.124 23.2353 106.693 22.5279 106.693C21.8205 106.693 21.2471 106.124 21.2471 105.423C21.2471 104.722 21.8205 104.154 22.5279 104.154ZM34.0568 105.423C34.0568 104.722 33.4834 104.154 32.776 104.154C32.0686 104.154 31.4951 104.722 31.4951 105.423C31.4951 106.124 32.0686 106.693 32.776 106.693C33.4834 106.693 34.0568 106.124 34.0568 105.423ZM43.0211 104.154C43.7285 104.154 44.302 104.722 44.302 105.423C44.302 106.124 43.7285 106.693 43.0211 106.693C42.3137 106.693 41.7402 106.124 41.7402 105.423C41.7402 104.722 42.3137 104.154 43.0211 104.154ZM54.549 105.423C54.549 104.722 53.9756 104.154 53.2682 104.154C52.5608 104.154 51.9873 104.722 51.9873 105.423C51.9873 106.124 52.5608 106.693 53.2682 106.693C53.9756 106.693 54.549 106.124 54.549 105.423ZM23.8078 95.2692C23.8078 94.5683 23.2344 94 22.527 94C21.8196 94 21.2461 94.5683 21.2461 95.2692C21.2461 95.9702 21.8196 96.5385 22.527 96.5385C23.2344 96.5385 23.8078 95.9702 23.8078 95.2692ZM32.776 94C33.4834 94 34.0568 94.5683 34.0568 95.2692C34.0568 95.9702 33.4834 96.5385 32.776 96.5385C32.0686 96.5385 31.4951 95.9702 31.4951 95.2692C31.4951 94.5683 32.0686 94 32.776 94ZM44.302 95.2692C44.302 94.5683 43.7285 94 43.0211 94C42.3137 94 41.7402 94.5683 41.7402 95.2692C41.7402 95.9702 42.3137 96.5385 43.0211 96.5385C43.7285 96.5385 44.302 95.9702 44.302 95.2692ZM53.2682 94C53.9756 94 54.549 94.5683 54.549 95.2692C54.549 95.9702 53.9756 96.5385 53.2682 96.5385C52.5608 96.5385 51.9873 95.9702 51.9873 95.2692C51.9873 94.5683 52.5608 94 53.2682 94ZM64.5061 105.423C64.5061 104.722 63.9326 104.154 63.2252 104.154C62.5178 104.154 61.9443 104.722 61.9443 105.423C61.9443 106.124 62.5178 106.693 63.2252 106.693C63.9326 106.693 64.5061 106.124 64.5061 105.423ZM73.4713 104.154C74.1787 104.154 74.7522 104.722 74.7522 105.423C74.7522 106.124 74.1787 106.693 73.4713 106.693C72.7639 106.693 72.1904 106.124 72.1904 105.423C72.1904 104.722 72.7639 104.154 73.4713 104.154ZM85.0002 105.423C85.0002 104.722 84.4267 104.154 83.7193 104.154C83.0119 104.154 82.4385 104.722 82.4385 105.423C82.4385 106.124 83.0119 106.693 83.7193 106.693C84.4267 106.693 85.0002 106.124 85.0002 105.423ZM63.2252 94C63.9326 94 64.5061 94.5683 64.5061 95.2692C64.5061 95.9702 63.9326 96.5385 63.2252 96.5385C62.5178 96.5385 61.9443 95.9702 61.9443 95.2692C61.9443 94.5683 62.5178 94 63.2252 94ZM74.7522 95.2692C74.7522 94.5683 74.1787 94 73.4713 94C72.7639 94 72.1904 94.5683 72.1904 95.2692C72.1904 95.9702 72.7639 96.5385 73.4713 96.5385C74.1787 96.5385 74.7522 95.9702 74.7522 95.2692ZM83.7193 94C84.4267 94 85.0002 94.5683 85.0002 95.2692C85.0002 95.9702 84.4267 96.5385 83.7193 96.5385C83.0119 96.5385 82.4385 95.9702 82.4385 95.2692C82.4385 94.5683 83.0119 94 83.7193 94Z" fill="white"/>
<rect x="18" y="21" width="18" height="18" rx="2" fill="url(#paint0_linear)"/>
<rect x="18" y="51" width="18" height="18" rx="2" fill="url(#paint1_linear)"/>
<rect x="18" y="81" width="18" height="18" rx="2" fill="url(#paint2_linear)"/>
<g filter="url(#filter0_dd)">
<rect x="49" y="21" width="18" height="18" rx="2" fill="white"/>
</g>
<path d="M139 60L112.231 60C107.308 59.6667 95.6154 57 90.0769 44C84.5385 31 71.9231 30.3333 67.9231 30L55 30" stroke="white" stroke-width="4" stroke-linecap="round"/>
<path d="M127 60L112.231 60C107.308 60.3333 95.6154 63 90.0769 76C84.5385 89 71.9231 89.6667 67.9231 90L55 90" stroke="white" stroke-width="4"/>
<rect opacity="0.3" x="113" y="28" width="64" height="64" rx="6" fill="#ABC7F9"/>
<g filter="url(#filter1_dd)">
<rect x="120" y="35" width="50" height="50" rx="4" fill="#2E75F0"/>
</g>
<g filter="url(#filter2_dd)">
<rect x="49" y="51" width="18" height="18" rx="2" fill="white"/>
</g>
<rect x="59" y="58" width="66" height="4" rx="2" fill="white"/>
<path d="M36 28H56C57.1046 28 58 28.8954 58 30C58 31.1046 57.1046 32 56 32H36V28Z" fill="url(#paint3_linear)"/>
<path d="M36 58H56C57.1046 58 58 58.8954 58 60C58 61.1046 57.1046 62 56 62H36V58Z" fill="url(#paint4_linear)"/>
<path d="M36 88H56C57.1046 88 58 88.8954 58 90C58 91.1046 57.1046 92 56 92H36V88Z" fill="url(#paint5_linear)"/>
<g filter="url(#filter3_dd)">
<rect x="49" y="81" width="18" height="18" rx="2" fill="white"/>
</g>
<path fill-rule="evenodd" clip-rule="evenodd" d="M153.276 55.0511C153.674 55.4429 153.674 56.0848 153.276 56.4766L144.3 65.3097C143.911 65.6927 143.287 65.6927 142.898 65.3097L137.724 60.2183C137.326 59.8265 137.326 59.1846 137.724 58.7928L138.091 58.432C138.48 58.049 139.104 58.049 139.494 58.432L142.898 61.782C143.287 62.165 143.911 62.165 144.3 61.782L151.506 54.6903C151.896 54.3073 152.52 54.3073 152.909 54.6903L153.276 55.0511Z" fill="white" stroke="white"/>
<defs>
<filter id="filter0_dd" x="45" y="19" width="26" height="26" filterUnits="userSpaceOnUse" color-interpolation-filters="sRGB">
<feFlood flood-opacity="0" result="BackgroundImageFix"/>
<feColorMatrix in="SourceAlpha" type="matrix" values="0 0 0 0 0 0 0 0 0 0 0 0 0 0 0 0 0 0 127 0"/>
<feOffset dy="2"/>
<feGaussianBlur stdDeviation="2"/>
<feColorMatrix type="matrix" values="0 0 0 0 0.0980392 0 0 0 0 0.137255 0 0 0 0 0.192157 0 0 0 0.04 0"/>
<feBlend mode="normal" in2="BackgroundImageFix" result="effect1_dropShadow"/>
<feColorMatrix in="SourceAlpha" type="matrix" values="0 0 0 0 0 0 0 0 0 0 0 0 0 0 0 0 0 0 127 0"/>
<feOffset dy="2"/>
<feGaussianBlur stdDeviation="2"/>
<feColorMatrix type="matrix" values="0 0 0 0 0.0980392 0 0 0 0 0.137255 0 0 0 0 0.192157 0 0 0 0.04 0"/>
<feBlend mode="normal" in2="effect1_dropShadow" result="effect2_dropShadow"/>
<feBlend mode="normal" in="SourceGraphic" in2="effect2_dropShadow" result="shape"/>
</filter>
<filter id="filter1_dd" x="116" y="33" width="58" height="58" filterUnits="userSpaceOnUse" color-interpolation-filters="sRGB">
<feFlood flood-opacity="0" result="BackgroundImageFix"/>
<feColorMatrix in="SourceAlpha" type="matrix" values="0 0 0 0 0 0 0 0 0 0 0 0 0 0 0 0 0 0 127 0"/>
<feOffset dy="2"/>
<feGaussianBlur stdDeviation="2"/>
<feColorMatrix type="matrix" values="0 0 0 0 0.0980392 0 0 0 0 0.137255 0 0 0 0 0.192157 0 0 0 0.04 0"/>
<feBlend mode="normal" in2="BackgroundImageFix" result="effect1_dropShadow"/>
<feColorMatrix in="SourceAlpha" type="matrix" values="0 0 0 0 0 0 0 0 0 0 0 0 0 0 0 0 0 0 127 0"/>
<feOffset dy="2"/>
<feGaussianBlur stdDeviation="2"/>
<feColorMatrix type="matrix" values="0 0 0 0 0.0980392 0 0 0 0 0.137255 0 0 0 0 0.192157 0 0 0 0.04 0"/>
<feBlend mode="normal" in2="effect1_dropShadow" result="effect2_dropShadow"/>
<feBlend mode="normal" in="SourceGraphic" in2="effect2_dropShadow" result="shape"/>
</filter>
<filter id="filter2_dd" x="45" y="49" width="26" height="26" filterUnits="userSpaceOnUse" color-interpolation-filters="sRGB">
<feFlood flood-opacity="0" result="BackgroundImageFix"/>
<feColorMatrix in="SourceAlpha" type="matrix" values="0 0 0 0 0 0 0 0 0 0 0 0 0 0 0 0 0 0 127 0"/>
<feOffset dy="2"/>
<feGaussianBlur stdDeviation="2"/>
<feColorMatrix type="matrix" values="0 0 0 0 0.0980392 0 0 0 0 0.137255 0 0 0 0 0.192157 0 0 0 0.04 0"/>
<feBlend mode="normal" in2="BackgroundImageFix" result="effect1_dropShadow"/>
<feColorMatrix in="SourceAlpha" type="matrix" values="0 0 0 0 0 0 0 0 0 0 0 0 0 0 0 0 0 0 127 0"/>
<feOffset dy="2"/>
<feGaussianBlur stdDeviation="2"/>
<feColorMatrix type="matrix" values="0 0 0 0 0.0980392 0 0 0 0 0.137255 0 0 0 0 0.192157 0 0 0 0.04 0"/>
<feBlend mode="normal" in2="effect1_dropShadow" result="effect2_dropShadow"/>
<feBlend mode="normal" in="SourceGraphic" in2="effect2_dropShadow" result="shape"/>
</filter>
<filter id="filter3_dd" x="45" y="79" width="26" height="26" filterUnits="userSpaceOnUse" color-interpolation-filters="sRGB">
<feFlood flood-opacity="0" result="BackgroundImageFix"/>
<feColorMatrix in="SourceAlpha" type="matrix" values="0 0 0 0 0 0 0 0 0 0 0 0 0 0 0 0 0 0 127 0"/>
<feOffset dy="2"/>
<feGaussianBlur stdDeviation="2"/>
<feColorMatrix type="matrix" values="0 0 0 0 0.0980392 0 0 0 0 0.137255 0 0 0 0 0.192157 0 0 0 0.04 0"/>
<feBlend mode="normal" in2="BackgroundImageFix" result="effect1_dropShadow"/>
<feColorMatrix in="SourceAlpha" type="matrix" values="0 0 0 0 0 0 0 0 0 0 0 0 0 0 0 0 0 0 127 0"/>
<feOffset dy="2"/>
<feGaussianBlur stdDeviation="2"/>
<feColorMatrix type="matrix" values="0 0 0 0 0.0980392 0 0 0 0 0.137255 0 0 0 0 0.192157 0 0 0 0.04 0"/>
<feBlend mode="normal" in2="effect1_dropShadow" result="effect2_dropShadow"/>
<feBlend mode="normal" in="SourceGraphic" in2="effect2_dropShadow" result="shape"/>
</filter>
<linearGradient id="paint0_linear" x1="38" y1="30" x2="13.5" y2="30" gradientUnits="userSpaceOnUse">
<stop stop-color="white"/>
<stop offset="1" stop-color="white" stop-opacity="0"/>
</linearGradient>
<linearGradient id="paint1_linear" x1="38" y1="60" x2="13.5" y2="60" gradientUnits="userSpaceOnUse">
<stop stop-color="white"/>
<stop offset="1" stop-color="white" stop-opacity="0"/>
</linearGradient>
<linearGradient id="paint2_linear" x1="38" y1="90" x2="13.5" y2="90" gradientUnits="userSpaceOnUse">
<stop stop-color="white"/>
<stop offset="1" stop-color="white" stop-opacity="0"/>
</linearGradient>
<linearGradient id="paint3_linear" x1="50.5" y1="29.5" x2="23.5" y2="29.5" gradientUnits="userSpaceOnUse">
<stop stop-color="white"/>
<stop offset="1" stop-color="white" stop-opacity="0.83"/>
</linearGradient>
<linearGradient id="paint4_linear" x1="50.5" y1="59.5" x2="33" y2="60" gradientUnits="userSpaceOnUse">
<stop stop-color="white"/>
<stop offset="1" stop-color="white" stop-opacity="0.83"/>
</linearGradient>
<linearGradient id="paint5_linear" x1="50.5" y1="89.5" x2="33" y2="90" gradientUnits="userSpaceOnUse">
<stop stop-color="white"/>
<stop offset="1" stop-color="white" stop-opacity="0.83"/>
</linearGradient>
</defs>
</svg>
