<svg width="226" height="71" viewBox="0 0 226 71" fill="none" xmlns="http://www.w3.org/2000/svg">
<path fill-rule="evenodd" clip-rule="evenodd" d="M0.29289 64.7071C-0.0976339 64.3166 -0.0976339 63.6834 0.29289 63.2929C0.683415 62.9024 1.31658 62.9024 1.7071 63.2929L6.49999 68.0858L6.49999 68L6.50012 66.8846L6.50029 66.3846L7.50029 66.3849L7.50012 66.8849L7.49999 68L7.49999 68.0858L12.2929 63.2929C12.6834 62.9024 13.3166 62.9024 13.7071 63.2929C14.0976 63.6834 14.0976 64.3166 13.7071 64.7071L7.7071 70.7071C7.31658 71.0976 6.68341 71.0976 6.29289 70.7071L0.29289 64.7071ZM7.08579 68.5L7 68.5858L6.9142 68.5L7.08579 68.5ZM7.55073 60.7255L7.5659 60.2257C7.58968 59.4421 7.622 58.7092 7.66589 58.0206L7.69769 57.5216L6.69971 57.458L6.66791 57.957C6.62317 58.6592 6.59039 59.4035 6.56636 60.1954L6.55119 60.6952L7.55073 60.7255ZM8.68618 52.1164L8.87703 51.6542C9.01401 51.3225 9.1646 51.0032 9.33021 50.6933C9.51 50.357 9.7017 50.0282 9.90476 49.7075L10.1723 49.2851L9.3274 48.7501L9.0599 49.1725C8.84374 49.5139 8.63968 49.8639 8.44829 50.222C8.26673 50.5616 8.10206 50.9109 7.95274 51.2725L7.76189 51.7347L8.68618 52.1164ZM14.2851 45.1723L14.7075 44.9048C15.0282 44.7017 15.357 44.51 15.6933 44.3302C16.0032 44.1646 16.3225 44.014 16.6542 43.877L17.1164 43.6862L16.7347 42.7619L16.2725 42.9527C15.9109 43.1021 15.5616 43.2667 15.2219 43.4483C14.8639 43.6397 14.5139 43.8437 14.1725 44.0599L13.7501 44.3274L14.2851 45.1723ZM22.5216 42.6977L23.0206 42.6659C23.7092 42.622 24.4421 42.5897 25.2257 42.5659L25.7255 42.5507L25.6952 41.5512L25.1954 41.5664C24.4035 41.5904 23.6592 41.6232 22.957 41.6679L22.458 41.6997L22.5216 42.6977ZM31.3849 42.5003L31.8849 42.5001L33 42.5L34.0063 42.5L34.5063 42.5L34.5063 41.5L34.0063 41.5L33 41.5L31.8845 41.5001L31.3845 41.5003L31.3849 42.5003ZM39.5438 42.5L40.0438 42.5L42.0563 42.5L42.5563 42.5L42.5563 41.5L42.0563 41.5L40.0438 41.5L39.5438 41.5L39.5438 42.5ZM47.5938 42.5L48.0938 42.5L50.1063 42.5L50.6063 42.5L50.6063 41.5L50.1063 41.5L48.0938 41.5L47.5938 41.5L47.5938 42.5ZM55.6438 42.5L56.1438 42.5L58.1563 42.5L58.6563 42.5L58.6563 41.5L58.1563 41.5L56.1438 41.5L55.6438 41.5L55.6438 42.5ZM63.6938 42.5L64.1938 42.5L66.2063 42.5L66.7063 42.5L66.7063 41.5L66.2063 41.5L64.1938 41.5L63.6938 41.5L63.6938 42.5ZM71.7438 42.5L72.2438 42.5L74.2563 42.5L74.7563 42.5L74.7563 41.5L74.2563 41.5L72.2438 41.5L71.7438 41.5L71.7438 42.5ZM79.7938 42.5L80.2938 42.5L82.3063 42.5L82.8063 42.5L82.8063 41.5L82.3063 41.5L80.2938 41.5L79.7938 41.5L79.7938 42.5ZM87.8438 42.5L88.3438 42.5L90.3563 42.5L90.8563 42.5L90.8563 41.5L90.3563 41.5L88.3438 41.5L87.8438 41.5L87.8438 42.5ZM95.8938 42.5L96.3938 42.5L98.4063 42.5L98.9063 42.5L98.9063 41.5L98.4063 41.5L96.3938 41.5L95.8938 41.5L95.8938 42.5ZM103.944 42.5L104.444 42.5L106.456 42.5L106.956 42.5L106.956 41.5L106.456 41.5L104.444 41.5L103.944 41.5L103.944 42.5ZM111.994 42.5L112.494 42.5L114.506 42.5L115.006 42.5L115.006 41.5L114.506 41.5L112.494 41.5L111.994 41.5L111.994 42.5ZM120.044 42.5L120.544 42.5L122.556 42.5L123.056 42.5L123.056 41.5L122.556 41.5L120.544 41.5L120.044 41.5L120.044 42.5ZM128.094 42.5L128.594 42.5L130.606 42.5L131.106 42.5L131.106 41.5L130.606 41.5L128.594 41.5L128.094 41.5L128.094 42.5ZM136.144 42.5L136.644 42.5L138.656 42.5L139.156 42.5L139.156 41.5L138.656 41.5L136.644 41.5L136.144 41.5L136.144 42.5ZM144.194 42.5L144.694 42.5L146.706 42.5L147.206 42.5L147.206 41.5L146.706 41.5L144.694 41.5L144.194 41.5L144.194 42.5ZM152.244 42.5L152.744 42.5L154.756 42.5L155.256 42.5L155.256 41.5L154.756 41.5L152.744 41.5L152.244 41.5L152.244 42.5ZM160.294 42.5L160.794 42.5L162.806 42.5L163.306 42.5L163.306 41.5L162.806 41.5L160.794 41.5L160.294 41.5L160.294 42.5ZM168.344 42.5L168.844 42.5L170.856 42.5L171.356 42.5L171.356 41.5L170.856 41.5L168.844 41.5L168.344 41.5L168.344 42.5ZM176.394 42.5L176.894 42.5L178.906 42.5L179.406 42.5L179.406 41.5L178.906 41.5L176.894 41.5L176.394 41.5L176.394 42.5ZM184.444 42.5L184.944 42.5L186.956 42.5L187.456 42.5L187.456 41.5L186.956 41.5L184.944 41.5L184.444 41.5L184.444 42.5ZM192.494 42.5L192.994 42.5L194 42.5L195.115 42.4999L195.615 42.4997L195.615 41.4997L195.115 41.4999L194 41.5L192.994 41.5L192.494 41.5L192.494 42.5ZM201.305 42.4488L201.805 42.4336C202.596 42.4096 203.341 42.3768 204.043 42.3321L204.542 42.3003L204.478 41.3023L203.979 41.3341C203.291 41.378 202.558 41.4103 201.774 41.4341L201.274 41.4493L201.305 42.4488ZM210.265 41.2381L210.727 41.0473C211.089 40.8979 211.438 40.7333 211.778 40.5517C212.136 40.3603 212.486 40.1563 212.827 39.9401L213.25 39.6726L212.715 38.8277L212.292 39.0952C211.972 39.2983 211.643 39.49 211.307 39.6698C210.997 39.8354 210.677 39.986 210.346 40.123L209.884 40.3138L210.265 41.2381ZM217.673 35.2499L217.94 34.8275C218.156 34.4861 218.36 34.1361 218.552 33.7781C218.733 33.4384 218.898 33.0891 219.047 32.7275L219.238 32.2653L218.314 31.8836L218.123 32.3458C217.986 32.6775 217.835 32.9968 217.67 33.3067C217.49 33.643 217.298 33.9718 217.095 34.2925L216.828 34.7149L217.673 35.2499ZM220.3 26.542L220.332 26.043C220.377 25.3408 220.41 24.5965 220.434 23.8046L220.449 23.3048L219.449 23.2745L219.434 23.7743C219.41 24.5579 219.378 25.2908 219.334 25.9794L219.302 26.4784L220.3 26.542ZM220.5 17.6155L220.5 17.1155L220.5 16L220.5 15.5L219.5 15.5L219.5 16L219.5 17.1151L219.5 17.6151L220.5 17.6155ZM216 6.00001C216 8.20915 217.791 10 220 10C222.209 10 224 8.20915 224 6.00001C224 3.79087 222.209 2.00001 220 2.00001C217.791 2.00001 216 3.79087 216 6.00001ZM220 12C216.686 12 214 9.31372 214 6.00001C214 2.6863 216.686 9.47166e-06 220 9.61651e-06C223.314 9.76135e-06 226 2.6863 226 6.00001C226 9.31372 223.314 12 220 12Z" fill="#1D232F"/>
</svg>
