<svg width="181" height="89" viewBox="0 0 181 89" fill="none" xmlns="http://www.w3.org/2000/svg">
<line x1="-5.40769e-09" y1="0.5" x2="181" y2="0.500001" stroke="#EAEDF2"/>
<line x1="-5.40769e-09" y1="22.5" x2="181" y2="22.5" stroke="#EAEDF2"/>
<line x1="-5.40769e-09" y1="44.5" x2="181" y2="44.5" stroke="#EAEDF2"/>
<line x1="-6.16361e-09" y1="66.5" x2="181" y2="66.5" stroke="#EAEDF2"/>
<line x1="-6.16361e-09" y1="88.5" x2="181" y2="88.5" stroke="#EAEDF2"/>
<path opacity="0.6" d="M129.967 54.231C127.294 54.231 124.73 55.6309 122.15 57.0394C120.221 58.0924 118.284 59.1503 116.285 59.6316C111.947 60.7567 107.275 58.5065 102.937 55.3561C98.2647 52.2058 93.5927 47.9303 89.2544 41.6296C88.2174 40.231 87.1968 38.7326 86.1853 37.2477C82.6401 32.0429 79.2071 27.0029 75.5722 27.0029C72.9439 27.0029 70.1931 30.0589 67.394 33.1686C65.573 35.1917 63.7315 37.2375 61.89 38.4792C59.1926 40.438 56.3662 40.3959 53.5712 40.3543C51.871 40.329 50.1824 40.3039 48.5415 40.7295C44.2291 41.5603 40.2011 45.2669 35.9325 49.1948C35.5765 49.5223 35.2189 49.8514 34.8593 50.1805C30.521 54.231 25.8491 58.5065 21.1771 60.7567C16.8388 62.7819 12.1668 62.7819 7.82858 57.3813C7.24787 56.738 6.6723 56.0113 6.1051 55.2218" stroke="#06BF7F" stroke-width="5" stroke-linecap="round"/>
<path opacity="0.6" d="M6.1051 10.1019C8.5758 8.89587 11.0594 8.55446 13.6189 9.7291C16.3896 11.2507 19.2635 14.7593 22.1905 18.3329C25.3155 22.1481 28.5012 26.0373 31.6869 27.6618C34.7756 29.1884 37.9923 28.1544 41.1991 27.1237C43.9402 26.2426 46.674 25.3638 49.3142 26.0888C55.0247 27.5448 60.3577 35.2 66.012 43.3165C66.4665 43.969 66.9232 44.6245 67.3823 45.28C67.9215 46.05 68.4574 46.82 68.9906 47.586C74.5567 55.5834 79.82 63.1456 85.4503 65.7296C91.1792 68.8757 97.3487 65.7296 103.078 61.3251C104.514 60.2994 105.927 59.1885 107.327 58.0877C111.939 54.4608 116.413 50.9429 121.146 50.9429C124.676 50.9429 128.062 52.9002 131.469 54.8694" stroke="#8C62F5" stroke-width="5" stroke-linecap="round"/>
<path opacity="0.6" d="M128 53C141 59.5 166.402 73.0307 169.825 75" stroke="#8C62F5" stroke-width="5" stroke-linecap="round" stroke-dasharray="8 8"/>
<path opacity="0.6" d="M124 55.8359C125.203 54.7644 174.509 25.4193 177.933 23.4995" stroke="#06BF7F" stroke-width="5" stroke-linecap="round" stroke-dasharray="8 8"/>
</svg>
