<svg fill="none" height="600" viewBox="0 0 260 600" width="260" xmlns="http://www.w3.org/2000/svg" xmlns:xlink="http://www.w3.org/1999/xlink"><clipPath id="a"><path d="m0 0h260v600h-260z"/></clipPath><g clip-path="url(#a)"><g fill="#eaedf2"><path d="m0 247h260v2h-260v-1z"/><path d="m0 267h260v2h-260z"/><path d="m0 287h260v2h-260z"/><path d="m0 307h260v2h-260z"/><path d="m0 327h260v2h-260z"/><path d="m0 347h260v2h-260z"/><path d="m0 367h260v2h-260z"/><path d="m0 387h260v2h-260z"/><path d="m0 407h260v2h-260z"/><path d="m0 427h260v2h-260z"/><path d="m0 447h260v2h-260z"/><path d="m0 467h260v2h-260z"/><path d="m0 487h260v2h-260z"/><path d="m0 507h260v2h-260z"/><path d="m0 527h260v2h-260z"/><path d="m0 547h260v2h-260z"/><path d="m0 567h260v2h-260z"/><path d="m0 587h260v2h-260z"/><path d="m166 248c0 2.761-2.239 5-5 5s-5-2.239-5-5c2-1.5 2.239 0 5 0s2.5-1.5 5 0z"/><path d="m6 249c0 2.761-2.2386 5-5 5s-5-2.239-5-5 2.2386-1 5-1 5-1.761 5 1z"/><path d="m46 249c0 2.761-2.2386 5-5 5s-5-2.239-5-5 1.7386-1 4.5-1 5.5-1.761 5.5 1z"/><path d="m86 249c0 2.761-2.239 5-5 5s-5-2.239-5-5 1.739-1 4.5-1 5.5-1.761 5.5 1z"/><path d="m242 249v351h-2v-351z"/><path d="m222 249v351h-2v-351z"/><path d="m202 247.452v352.548h-2v-352.548z"/><path d="m182 249v351h-2v-351z"/><path d="m162 249v351h-2v-351z"/><path d="m142 249v351h-2v-351z"/><path d="m122 249v351h-2v-351z"/><path d="m102 249v351h-2v-351z"/><path d="m82 249v351h-2v-351z"/><path d="m62 249v351h-2v-351z"/><path d="m42 249v351h-2v-351z"/><path d="m22 249v351h-2v-351z"/><path d="m2 249v351h-2v-351z"/><path d="m166 286.999c0 2.762-2.239 5.001-5 5.001s-5-2.239-5-5.001c0-2.761 2.239-5 5-5s5 2.239 5 5z"/><path d="m66 286.999c0 2.762-2.239 5.001-5 5.001s-5-2.239-5-5.001c0-2.761 2.239-5 5-5s5 2.239 5 5z"/><path d="m66 327c0 2.761-2.239 5-5 5s-5-2.239-5-5c0-2.762 2.239-5 5-5s5 2.238 5 5z"/><path d="m66 348c0 2.761-2.239 5-5 5s-5-2.239-5-5c0-2.762 2.239-5 5-5s5 2.238 5 5z"/><path d="m66 367.999c0 2.762-2.239 5-5 5s-5-2.238-5-5c0-2.761 2.239-5 5-5s5 2.239 5 5z"/><path d="m6 387.999c0 2.762-2.2386 5-5 5s-5-2.238-5-5c0-2.761 2.2386-5 5-5s5 2.239 5 5z"/><path d="m66 467.999c0 2.762-2.239 5-5 5s-5-2.238-5-5c0-2.761 2.239-5 5-5s5 2.239 5 5z"/><path d="m26 467.999c0 2.762-2.2386 5-5 5s-5-2.238-5-5c0-2.761 2.2386-5 5-5s5 2.239 5 5z"/><path d="m6 467.999c0 2.762-2.2386 5-5 5s-5-2.238-5-5c0-2.761 2.2386-5 5-5s5 2.239 5 5z"/><path d="m6 527c0 2.761-2.2386 5-5 5s-5-2.239-5-5c0-2.762 2.2386-5 5-5s5 2.238 5 5z"/><path d="m26 527c0 2.761-2.2386 5-5 5s-5-2.239-5-5c0-2.762 2.2386-5 5-5s5 2.238 5 5z"/><path d="m66 527c0 2.761-2.239 5-5 5s-5-2.239-5-5c0-2.762 2.239-5 5-5s5 2.238 5 5z"/><path d="m26 587c0 2.761-2.2386 5-5 5s-5-2.239-5-5c0-2.762 2.2386-5 5-5s5 2.238 5 5z"/><path d="m86 527c0 2.761-2.239 5-5 5s-5-2.239-5-5c0-2.762 2.239-5 5-5s5 2.238 5 5z"/><path d="m86 587c0 2.761-2.239 5-5 5s-5-2.239-5-5c0-2.762 2.239-5 5-5s5 2.238 5 5z"/><path d="m106 527c0 2.761-2.239 5-5 5s-5-2.239-5-5c0-2.762 2.239-5 5-5s5 2.238 5 5z"/><path d="m106 508c0 2.761-2.239 5-5 5s-5-2.239-5-5c0-2.762 2.239-5 5-5s5 2.238 5 5z"/><path d="m6 548c0 2.761-2.2386 5-5 5s-5-2.239-5-5c0-2.762 2.2386-5 5-5s5 2.238 5 5z"/><path d="m6 427.999c0 2.762-2.2386 5-5 5s-5-2.238-5-5c0-2.761 2.2386-5 5-5s5 2.239 5 5z"/><path d="m106 446.999c0 2.762-2.239 5-5 5s-5-2.238-5-5c0-2.761 2.239-5 5-5s5 2.239 5 5z"/><path d="m166 407.999c0 2.762-2.239 5-5 5s-5-2.238-5-5c0-2.761 2.239-5 5-5s5 2.239 5 5z"/><path d="m186 407.999c0 2.762-2.239 5-5 5s-5-2.238-5-5c0-2.761 2.239-5 5-5s5 2.239 5 5z"/><path d="m166 387.999c0 2.762-2.239 5-5 5s-5-2.238-5-5c0-2.761 2.239-5 5-5s5 2.239 5 5z"/><path d="m186 387.999c0 2.762-2.239 5-5 5s-5-2.238-5-5c0-2.761 2.239-5 5-5s5 2.239 5 5z"/><path d="m226 387.999c0 2.762-2.239 5-5 5s-5-2.238-5-5c0-2.761 2.239-5 5-5s5 2.239 5 5z"/><path d="m226 427.999c0 2.762-2.239 5-5 5s-5-2.238-5-5c0-2.761 2.239-5 5-5s5 2.239 5 5z"/><path d="m226 527c0 2.761-2.239 5-5 5s-5-2.239-5-5c0-2.762 2.239-5 5-5s5 2.238 5 5z"/><path d="m246 548c0 2.761-2.239 5-5 5s-5-2.239-5-5c0-2.762 2.239-5 5-5s5 2.238 5 5z"/><path d="m126 548c0 2.761-2.239 5-5 5s-5-2.239-5-5c0-2.762 2.239-5 5-5s5 2.238 5 5z"/><path d="m146 548c0 2.761-2.239 5-5 5s-5-2.239-5-5c0-2.762 2.239-5 5-5s5 2.238 5 5z"/><path d="m146 568c0 2.761-2.239 5-5 5s-5-2.239-5-5c0-2.762 2.239-5 5-5s5 2.238 5 5z"/><path d="m146 527c0 2.761-2.239 5-5 5s-5-2.239-5-5c0-2.762 2.239-5 5-5s5 2.238 5 5z"/><path d="m259.5 548c0 2.761 0 2 .5 5-2.761 0-5-2.239-5-5 0-2.762 2.239-5 5-5 0 3-.5 2.238-.5 5z"/><path d="m259.5 527c0 2.762 0 3.5.5 5-2.761 0-5-2.239-5-5 0-2.762 2.239-5 5-5-.5 3.5-.5 2.239-.5 5z"/><path d="m206 446.999c0 2.762-2.239 5-5 5s-5-2.238-5-5c0-2.761 2.239-5 5-5s5 2.239 5 5z"/><path d="m246 446.999c0 2.762-2.239 5-5 5s-5-2.238-5-5c0-2.761 2.239-5 5-5s5 2.239 5 5z"/><path d="m206 488c0 2.761-2.239 5-5 5s-5-2.239-5-5c0-2.762 2.239-5.001 5-5.001s5 2.239 5 5.001z"/><path d="m259.5 488c0 2.761-1 3.5.5 5-2.761 0-5-2.239-5-5 0-2.762 2.239-5.001 5-5.001-1.5 2.001-.5 2.239-.5 5.001z"/><path d="m259.5 388c0 2.761 0 3 .5 4.999-2.761 0-5-2.238-5-5 0-2.761 2.239-5 5-5 0 3.501-.5 2.239-.5 5.001z"/><path d="m86 367.999c0 2.762-2.239 5-5 5s-5-2.238-5-5c0-2.761 2.239-5 5-5s5 2.239 5 5z"/><path d="m106 367.999c0 2.762-2.239 5-5 5s-5-2.238-5-5c0-2.761 2.239-5 5-5s5 2.239 5 5z"/><path d="m106 348c0 2.761-2.239 5-5 5s-5-2.239-5-5c0-2.762 2.239-5 5-5s5 2.238 5 5z"/><path d="m146 329c0 2.761-2.239 5-5 5s-5-2.239-5-5c0-2.762 2.239-5 5-5s5 2.238 5 5z"/><path d="m6 308c0 2.761-2.2386 5-5 5s-5-2.239-5-5c0-2.762 2.2386-5 5-5s5 2.238 5 5z"/><path d="m6 346c0 2.761-2.2386 5-5 5s-5-2.239-5-5c0-2.762 2.2386-5 5-5s5 2.238 5 5z"/><path d="m186 286.999c0 2.762-2.239 5.001-5 5.001s-5-2.239-5-5.001c0-2.761 2.239-5 5-5s5 2.239 5 5z"/><path d="m206 286.999c0 2.762-2.239 5.001-5 5.001s-5-2.239-5-5.001c0-2.761 2.239-5 5-5s5 2.239 5 5z"/><path d="m226 286.999c0 2.762-2.239 5.001-5 5.001s-5-2.239-5-5.001c0-2.761 2.239-5 5-5s5 2.239 5 5z"/><path d="m206 328c0 2.761-2.239 5-5 5s-5-2.239-5-5c0-2.762 2.239-5 5-5s5 2.238 5 5z"/><path d="m206 249c0 2.761-2.239 5-5 5s-5-2.239-5-5c0-2.762 2.239-1.501 5-1.501s5-1.261 5 1.501z"/><path d="m247 308c0 2.761-2.239 5-5 5s-5-2.239-5-5c0-2.762 2.239-5 5-5s5 2.238 5 5z"/><path d="m206 308c0 2.761-2.239 5-5 5s-5-2.239-5-5c0-2.762 2.239-5 5-5s5 2.238 5 5z"/><path d="m226 308c0 2.761-2.239 5-5 5s-5-2.239-5-5c0-2.762 2.239-5 5-5s5 2.238 5 5z"/><path d="m246 268c0 2.761-2.239 5-5 5s-5-2.239-5-5c0-2.762 2.239-5 5-5s5 2.238 5 5z"/><path d="m166 268c0 2.761-2.239 5-5 5s-5-2.239-5-5c0-2.762 2.239-5 5-5s5 2.238 5 5z"/></g><path d="m162 247v62h-2v-62z" fill="#8c62f5"/><path d="m202 489v80h-2v-80z" fill="#8c62f5"/><path d="m120 487h82v2h-82z" fill="#8c62f5"/><path d="m160 567h42v2h-42z" fill="#8c62f5"/><path d="m162 567v33h-2v-33z" fill="#8c62f5"/><path d="m160 527h40v2h-40z" fill="#d1c0fb"/><path d="m120 307h40v2h-40z" fill="#8c62f5"/><path d="m120 347h40v2h-40z" fill="#d1c0fb"/><path d="m86 407h34v2h-34z" fill="#d1c0fb"/><path d="m40 447h42v2h-42z" fill="#d1c0fb"/><path d="m40 547h42v2h-42z" fill="#d1c0fb"/><path d="m202 487h40v2h-40z" fill="#d1c0fb"/><path d="m122 309v178h-2v-178z" fill="#8c62f5"/><path d="m162 309v40h-2v-40z" fill="#d1c0fb"/><path d="m82 409v40h-2v-40z" fill="#d1c0fb"/><path d="m82 547v53h-2v-53z" fill="#d1c0fb"/><path d="m42 448v101h-2v-101z" fill="#d1c0fb"/><path d="m202 569v31h-2v-31z" fill="#d1c0fb"/><path d="m166 308c0 2.761-2.239 5-5 5s-5-2.239-5-5 2.239-5 5-5 5 2.239 5 5z" fill="#71a1f4"/><path d="m246 488c0 2.761-2.239 5-5 5s-5-2.239-5-5 2.239-5 5-5 5 2.239 5 5z" fill="#e22b3d"/><path d="m86 408c0 2.761-2.239 5-5 5s-5-2.239-5-5 2.239-5 5-5 5 2.239 5 5z" fill="#e22b3d"/><path d="m166 528c0 2.761-2.239 5-5 5s-5-2.239-5-5 2.239-5 5-5 5 2.239 5 5z" fill="#71a1f4"/><path d="m46 548c0 2.761-2.2386 5-5 5s-5-2.239-5-5 2.2386-5 5-5 5 2.239 5 5z" fill="#b094f8"/><path d="m206 567c0 2.761-2.239 5-5 5s-5-2.239-5-5 2.239-5 5-5 5 2.239 5 5z" fill="#e22b3d"/><path clip-rule="evenodd" d="m73.8164 0h3.3678l127.5688 247h-3.367zm140.3526 247h-3.368l-127.5698-247h3.3679zm19.679-247h3.368l22.784 44.1139v6.5207zm26.152 25.8915v6.5141l-16.737-32.4056h3.364zm-3.961-25.8915h-3.364l7.325 14.1831v-6.51411zm-28.237 0h-3.368l35.566 68.8636v-6.5207zm-12.779 0h3.363l41.614 80.5719v6.5142zm-24.875 0h-3.364l73.216 141.76v-6.514zm69.852 123.537v-6.52l-60.436-117.017h-3.368zm-54.389-123.537h3.364l51.025 98.7944v6.5146zm-90.771 0h-3.368l127.57 247h3.368zm133.617 247h3.368l-127.57-247h-3.368zm-67.72-247h-3.368l82.631 159.989v-6.521zm-50.435 0h3.365l126.333 244.607v2.393h-2.129zm129.698 226.384v6.515l-120.286-232.899h3.364zm-88.677-226.384h-3.368l92.045 178.218v-6.521zm88.677 214.676v-6.521l-107.507-208.155h-3.368zm0-24.75v6.521l-101.46-196.447h3.368zm-205.0098-189.926h3.3677l127.5701 247h-3.368zm140.3488 247h-3.365l-127.5691-247h3.3644zm-99.3253-247h-3.3679l127.5702 247h3.368zm133.6163 247h3.365l-127.569-247h-3.365zm-180.6869-247h-3.3678l127.5687 247h3.368zm-12.7793 0h3.3644l127.5698 247h-3.365zm-36.1638 14.5909v6.5141l116.669 225.895h3.364zm126.081 232.4091h3.364l-127.56939-247h-1.87561v2.88256zm-108.7435-247h3.3678l127.5697 247h-3.368zm140.3495 247h-3.365l-127.5696-247h3.3644zm-149.76428-247h3.36768l127.5696 247h-3.368zm-7.92272 39.3275v-6.5141l110.622 214.1866h-3.364zm0 11.7083v6.5141l97.8467 189.4501h3.3643zm0 61.1812v-6.514l72.9764 141.297h-3.3644zm82.3878 134.783h-3.3644l-79.0234-153.0051v-6.5141zm-82.3878-177.7417v6.5141l88.4347 171.2276h3.3644zm7.08604 177.7417h-3.3678l-3.71824-7.199v-6.521zm-7.08604-116.56v-6.514l63.5649 123.074h-3.3644zm0 84.611v6.521l13.1331 25.428h3.3678zm22.548 31.949h3.3677l-25.9157-50.178v6.521zm-22.548-98.338v-6.514l54.1535 104.852h-3.3644zm35.3272 98.338h-3.3644l-31.9628-61.886v-6.514zm6.047 0h3.3678l-44.742-86.629v6.52z" fill="#eaedf2" fill-rule="evenodd"/></g></svg>