<svg width="180" height="88" viewBox="0 0 180 88" fill="none" xmlns="http://www.w3.org/2000/svg">
<g clip-path="url(#clip0)">
<rect y="61.0801" width="19.2513" height="26.353" rx="4" fill="#EAEDF2"/>
<rect x="26.952" y="53.2451" width="19.2513" height="34.1877" rx="4" fill="#EAEDF2"/>
<rect x="53.9039" y="46.123" width="19.2513" height="41.3102" rx="4" fill="#EAEDF2"/>
<rect opacity="0.5" x="80.8558" y="36.8633" width="19.2513" height="50.5693" rx="4" fill="#DBDFE7"/>
<rect x="107.808" y="29.7412" width="19.2513" height="57.6918" rx="4" fill="#EAEDF2"/>
<rect x="134.76" y="19.0576" width="19.2513" height="68.3754" rx="4" fill="#EAEDF2"/>
<rect x="160.748" y="4.8125" width="19.2513" height="82.6203" rx="4" fill="#EAEDF2"/>
<g opacity="0.5" filter="url(#filter0_f)">
<path d="M3.7749 61.7646L33.6145 47.7272L62.9728 51.3368L99.069 36.4972L139.016 29.679L171.743 6.41699" stroke="#FCC838" stroke-width="4" stroke-linecap="round"/>
</g>
<path d="M3.7749 61.7646L33.6145 47.7272L62.9728 51.3368L99.069 36.4972L139.016 29.679L171.743 6.41699" stroke="#FCC838" stroke-width="4" stroke-linecap="round"/>
<circle cx="172" cy="6" r="4.5" fill="white" stroke="#FCC838" stroke-width="3"/>
</g>
<defs>
<filter id="filter0_f" x="-10.2256" y="-7.58301" width="195.969" height="83.3482" filterUnits="userSpaceOnUse" color-interpolation-filters="sRGB">
<feFlood flood-opacity="0" result="BackgroundImageFix"/>
<feBlend mode="normal" in="SourceGraphic" in2="BackgroundImageFix" result="shape"/>
<feGaussianBlur stdDeviation="6" result="effect1_foregroundBlur"/>
</filter>
<clipPath id="clip0">
<rect width="180" height="88" fill="white"/>
</clipPath>
</defs>
</svg>
