<?xml version="1.0" encoding="UTF-8"?>
<svg focusable="false" width="48px" height="48px" viewBox="0 0 48 48" version="1.1" xmlns="http://www.w3.org/2000/svg" xmlns:xlink="http://www.w3.org/1999/xlink">
    <!-- Generator: Sketch 48.2 (47327) - http://www.bohemiancoding.com/sketch -->
    <title>Chart Icon/Geo Bubble</title>
    <desc>Created with Sketch.</desc>
    <defs></defs>
    <g id="Symbols" stroke="none" stroke-width="1" fill="none" fill-rule="evenodd">
        <g id="Chart-Icon/Geo-Bubble">
            <g id="geo_bubble_chart_24">
                <rect id="Rectangle-path" x="0" y="0" width="48" height="47.98"></rect>
                <path d="M45.74,13.1 C45.54,12.82 45.28,12.58 45.1,12.3 C45.0057773,12.0962749 44.938543,11.881125 44.9,11.66 C44.7,10.98 44.46,10.88 43.92,11.24 L43.5,11 C43.367773,11.5798146 43.2742335,12.1677773 43.22,12.76 C43.2728212,13.4787798 42.8263768,14.1401788 42.14,14.36 C41.6417688,14.5235437 41.1341943,14.6571159 40.62,14.76 C40.2016933,14.8425445 39.8463095,15.1164862 39.66,15.5 C39.52,15.74 39.4,15.98 39.26,16.24 L39.46,16.68 C39.1786885,17.1110825 38.6665149,17.3317112 38.16,17.24 C37.9620557,17.24 37.7680659,17.2954256 37.6,17.4 C37.6,17.4 37.42,17.68 37.44,17.74 C37.72,18.12 37.44,18.34 37.24,18.52 C37.04,18.7 36.3,19.22 35.86,19.62 C35.6700201,19.8492703 35.3877537,19.9819561 35.09,19.9819561 C34.7922463,19.9819561 34.5099799,19.8492703 34.32,19.62 L34.82,18.7 C34.8388902,18.6346715 34.8388902,18.5653285 34.82,18.5 C34.7530302,18.0877292 34.6595021,17.6802142 34.54,17.28 C34.44,16.98 34.22,16.96 34.02,17.28 L33.72,17.68 L33.58,17.68 C33.58,17.5 33.74,17.3 33.84,17.12 C34.1076897,16.6422301 33.9590013,16.0387301 33.5,15.74 L33.32,15.74 C32.661263,15.7596743 32.0289832,15.4802949 31.6,14.98 C31.2441646,14.9248492 30.8954258,14.830958 30.56,14.7 C30.2194683,14.505605 29.9038214,14.2705488 29.62,14 L28.88,14.54 C28.5,14.82 28.36,14.78 28.14,14.36 L27.42,14.7 L27.42,14.56 L28,14 C27.2168481,13.9406231 26.5169107,13.4890507 26.14,12.8 L26.14,12.66 C25.9919655,12.7170084 25.8280345,12.7170084 25.68,12.66 C25.4528561,12.6578965 25.2284372,12.6102925 25.02,12.52 L24.42,12.28 C18.0703361,12.225886 11.7605846,11.269659 5.68,9.44 L5.68,10.82 C5.56,10.64 5.5,10.46 5.36,10.38 C5.22,10.3 4.58,10 4,9.7 C4,10.04 4,10.36 4,10.66 C3.98258929,12.0506139 3.6473769,13.4188278 3.02,14.66 C2.56270256,15.3472483 2.31913161,16.154512 2.32,16.98 C2.36771485,17.4122346 2.25372238,17.8468309 2,18.2 C1.93495854,18.4288008 1.93495854,18.6711992 2,18.9 C2,19.14 2.16,19.44 2,19.62 C1.68,20.36 2.34,20.88 2.28,21.62 C2.28,21.82 2.28,22.02 2.42,22.24 C2.56,22.46 2.42,22.7 2.42,22.78 C2.42,22.86 2.84,23.18 2.42,23.48 C2,23.78 2.42,23.68 2.42,23.78 C2.42,23.88 2.78,24.48 2.92,24.86 C2.99406656,25.1011067 2.99406656,25.3588933 2.92,25.6 C2.8,26 2.92,26.08 3.24,26.2 C3.49790494,26.2689142 3.72834155,26.4155556 3.9,26.62 C4.1,26.94 4.44,27.06 4.66,27.36 C5.01751028,27.6705235 5.23991642,28.1081613 5.28,28.58 C5.28,28.86 5.28,28.98 5.66,29.02 C6.42527971,28.9856051 7.1775064,29.2268853 7.78,29.7 C8.4940661,30.1168322 9.23579567,30.4843559 10,30.8 C11.0479072,31.3419806 12.2013303,31.6491051 13.38,31.7 L13.48,31.18 C13.8426028,31.2139763 14.2031212,31.2673865 14.56,31.34 C14.7572957,31.4016578 14.9360477,31.5116591 15.08,31.66 C15.391335,31.9641661 15.6788473,32.2917964 15.94,32.64 C16.102364,32.9012887 16.2428427,33.1755566 16.36,33.46 C16.4510929,33.7109585 16.5791737,33.9468968 16.74,34.16 C17.0479262,34.4245162 17.3755391,34.6652114 17.72,34.88 C17.84,34.72 18.02,34.6 18.08,34.44 C18.14,34.28 18.34,33.92 18.62,33.94 C18.8971329,33.9254347 19.1713222,34.0027701 19.4,34.16 C19.6800598,34.4771488 19.9217298,34.8262276 20.12,35.2 L20.9,36.5 C20.9575649,36.5847857 20.9983034,36.6798421 21.02,36.78 C21.12,37.42 21.32,37.98 21.98,38.18 L22.84,38.5 C22.9729284,38.5146965 23.1070716,38.5146965 23.24,38.5 C23.1156844,38.0905131 23.0418049,37.6673856 23.02,37.24 C23.0489615,36.3917347 23.6101797,35.6541336 24.42,35.4 C24.6935241,35.3169747 24.9413406,35.1655313 25.14,34.96 C25.3090205,34.6593714 25.5889881,34.4368331 25.92,34.34 C26.4410839,34.1783459 26.9989161,34.1783459 27.52,34.34 C27.7,34.34 27.94,34.34 28.14,34.34 L28.14,34 C28.64,34.32 29.08,34.82 29.8,34.62 C29.9857963,34.1889568 30.3001002,33.8257612 30.7,33.58 C30.6794055,33.4770156 30.6226538,33.3847941 30.54,33.32 C30.96,33.22 31.46,32.92 31.7,33.08 C31.94,33.24 32.4,33.08 32.7,33.08 C33.1406166,32.9971849 33.5959278,33.0983651 33.96,33.36 C34.06,33.36 34.12,33.58 34.24,33.78 C34.528821,33.6870131 34.7994505,33.5449326 35.04,33.36 C35.42,32.94 35.66,33.26 35.9,33.48 C36.14,33.7 36.22,33.92 36.42,33.98 C36.5719149,34.0157812 36.700919,34.1155399 36.7737669,34.2535675 C36.8466148,34.3915951 36.8561809,34.5543905 36.8,34.7 C36.62,35.24 36.8,35.58 37.1,35.94 C37.320305,36.2679393 37.560768,36.5818771 37.82,36.88 C37.96,37.06 38.04,37.36 38.2,37.42 C38.36,37.48 38.66,37.78 38.8,38.06 C38.8543763,38.138224 38.944795,38.1834333 39.04,38.18 C39.42,38.18 39.6,37.94 39.64,37.44 C39.7654633,36.8323405 39.6659618,36.1997949 39.36,35.66 C39.1603067,35.3302028 38.9928658,34.9819258 38.86,34.62 C38.86,34.44 38.86,34.2 38.68,34.08 C38.3302141,33.6442603 38.0471223,33.1589601 37.84,32.64 C37.4854873,31.6336173 37.7249721,30.5134465 38.46,29.74 C38.8775142,29.4391651 39.1862756,29.0111096 39.34,28.52 C39.34,28.32 39.7,28.16 39.9,27.98 L40.26,27.6 L41.02,26.76 C41.1330824,26.6519793 41.2533582,26.5517495 41.38,26.46 L41.12,26 C41.5,25.86 41.76,25.7 41.7,25.26 L41.6,25.26 L41.26,25.14 L41.42,25.14 C41.0352288,24.6488303 40.8242143,24.0439221 40.82,23.42 L40.7,22.68 L40.86,22.82 C40.8865342,22.6569315 40.9266744,22.4963707 40.98,22.34 C40.9798477,21.4552703 41.4228776,20.6292823 42.16,20.14 L42.16,20 L43.44,19.04 L43.24,18.76 C43.5,18.56 43.76,18.34 44.04,18.14 C44.64,17.74 44.04,17.56 43.9,17.26 C43.89439,17.186774 43.89439,17.113226 43.9,17.04 C43.7944465,16.4788142 43.9742858,15.9018296 44.38,15.5 C44.62,15.28 44.8,14.98 45.04,14.76 C45.28,14.54 45.74,14.2 46.14,13.9 C46.0338103,13.6206036 45.8998033,13.3525896 45.74,13.1 Z" id="Shape" fill="#D1D1D1" fill-rule="nonzero"></path>
                <circle id="Oval" fill="#DE576F" fill-rule="nonzero" cx="10" cy="28.3" r="5.94"></circle>
                <circle id="Oval" fill="#5776AD" fill-rule="nonzero" cx="38.16" cy="15.74" r="3.52"></circle>
                <circle id="Oval" fill="#68B8E3" fill-rule="nonzero" cx="27.1" cy="34.34" r="2.44"></circle>
                <circle id="Oval" fill="#5776AD" fill-rule="nonzero" cx="37.56" cy="29.56" r="2.44"></circle>
                <circle id="Oval" fill="#F5CF5F" fill-rule="nonzero" cx="33.56" cy="22.44" r="2.44"></circle>
                <circle id="Oval" fill="#68B8E3" fill-rule="nonzero" cx="6.56" cy="14.56" r="3.44"></circle>
                <circle id="Oval" fill="#F5CF5F" fill-rule="nonzero" cx="41.44" cy="22.56" r="3.44"></circle>
            </g>
        </g>
    </g>
</svg>