<?xml version="1.0" encoding="UTF-8"?>
<svg focusable="false" width="48px" height="48px" viewBox="0 0 48 48" version="1.1" xmlns="http://www.w3.org/2000/svg" xmlns:xlink="http://www.w3.org/1999/xlink">
    <!-- Generator: Sketch 48.2 (47327) - http://www.bohemiancoding.com/sketch -->
    <title>Chart Icon/Geo Area</title>
    <desc>Created with Sketch.</desc>
    <defs></defs>
    <g id="Symbols" stroke="none" stroke-width="1" fill="none" fill-rule="evenodd">
        <g id="Chart-Icon/Geo-Area">
            <g id="geo_area_chart_24">
                <rect id="Rectangle-path" x="0" y="0" width="48" height="47.98"></rect>
                <polygon id="Shape" fill="#DE576F" fill-rule="nonzero" points="39.42 22.12 39.2 21.94 39.36 21.74 39.6 21.92"></polygon>
                <polygon id="Shape" fill="#BD2F49" fill-rule="nonzero" points="2.62 15.14 2.06 14.8 2.06 12.26 3.82 13.24 3.82 12.18 7.34 12.18 7.34 15.14"></polygon>
                <polygon id="Shape" fill="#DE576F" fill-rule="nonzero" points="7.34 18 2.06 18 2.06 15.18 2.54 15.46 7.34 15.46"></polygon>
                <polygon id="Shape" fill="#BD2F49" fill-rule="nonzero" points="8.1 26.96 7.6 27.4 7.6 29.34 5.24 29.34 5.24 27.94 4.08 27.22 4.08 26.7 2.06 22.48 2.06 18.32 4.8 18.32 4.8 21.28"></polygon>
                <polygon id="Shape" fill-opacity="0.599999964" fill="#DE576F" fill-rule="nonzero" points="8.78 18.32 8.78 25.06 8.14 25.06 8.14 26.4 5.14 21.2 5.14 18.32"></polygon>
                <polygon id="Shape" fill="#DE576F" fill-rule="nonzero" points="7.66 18 7.66 12.18 8.14 12.18 8.14 13.28 9.02 13.28 9.84 15.66 11.64 16.26 12.06 16.68 12.06 18"></polygon>
                <polygon id="Shape" fill="#BD2F49" fill-rule="nonzero" points="12.06 20.06 13.54 20.06 13.54 24.56 9.1 24.56 9.1 18.32 12.06 18.32"></polygon>
                <polygon id="Shape" fill="#DE576F" fill-rule="nonzero" points="9.1 24.88 13.54 24.88 13.54 30.9 10.9 30.9 7.92 29.42 7.92 27.54 8.48 27.12 8.48 25.38 9.1 25.38"></polygon>
                <polygon id="Shape" fill-opacity="0.599999964" fill="#DE576F" fill-rule="nonzero" points="18.36 30.4 14.64 30.4 14.64 30.9 13.86 30.9 13.86 24.88 18.36 24.88"></polygon>
                <polygon id="Shape" fill-opacity="0.599999964" fill="#DE576F" fill-rule="nonzero" points="9.26 12.96 8.48 12.96 8.48 12.18 18.32 12.18 18.32 15.56 12.06 15.56 12.06 16.22 11.82 15.98 10.08 15.42"></polygon>
                <rect id="Rectangle-path" fill="#DE576F" fill-rule="nonzero" x="12.38" y="15.88" width="5.94" height="3.86"></rect>
                <rect id="Rectangle-path" fill="#DE576F" fill-rule="nonzero" x="13.86" y="20.06" width="6.06" height="4.48"></rect>
                <rect id="Rectangle-path" fill="#DE576F" fill-rule="nonzero" x="18.64" y="12.18" width="4.28" height="2.2"></rect>
                <rect id="Rectangle-path" fill="#BD2F49" fill-rule="nonzero" x="18.64" y="14.7" width="4.28" height="3.14"></rect>
                <polygon id="Shape" fill-opacity="0.599999964" fill="#DE576F" fill-rule="nonzero" points="20.24 19.74 18.64 19.74 18.64 18.18 22.92 18.18 22.92 18.64 24.46 21.06 20.24 21.06"></polygon>
                <polygon id="Shape" fill="#DE576F" fill-rule="nonzero" points="25.38 24.56 20.24 24.56 20.24 21.38 24.66 21.38 25.38 22.5"></polygon>
                <polygon id="Shape" fill="#DE576F" fill-rule="nonzero" points="21.56 27.18 21.56 25.7 18.68 25.7 18.68 24.88 20.24 24.88 20.24 24.88 25.38 24.88 25.38 29.1 23.8 28.26 23.26 28.64"></polygon>
                <polygon id="Shape" fill="#BD2F49" fill-rule="nonzero" points="21.76 35.48 22.16 36.76 19.72 36.2 17.72 33.08 16.74 33.9 15 30.9 15 30.72 18.68 30.72 18.68 26.02 21.24 26.02 21.24 27.34 23.26 29.04 23.82 28.64 25.38 29.46 25.38 32.56"></polygon>
                <polygon id="Shape" fill="#DE576F" fill-rule="nonzero" points="26.38 16.86 23.24 16.86 23.24 12.18 27.18 12.18 26.14 13.86 26.14 13.86 26 14.1 26 14.1 25.38 15.16 26.38 16.22"></polygon>
                <polygon id="Shape" fill="#DE576F" fill-rule="nonzero" points="24.08 19.86 23.24 18.54 23.24 17.18 26.38 17.18 26.38 17.44 27.46 18.5 27.1 18.76 27.1 19.86"></polygon>
                <polygon id="Shape" fill="#DE576F" fill-rule="nonzero" points="25.72 22.4 24.28 20.18 27.18 20.18 28.16 21.8 28.7 21.8 28.34 22.28 29.2 24.36 25.72 24.36"></polygon>
                <polygon id="Shape" fill="#DE576F" fill-rule="nonzero" points="28.22 29.2 25.72 29.2 25.72 24.7 29.6 24.7 28.22 27.8"></polygon>
                <polygon id="Shape" fill-opacity="0.599999964" fill="#DE576F" fill-rule="nonzero" points="27.72 33.44 25.72 32.54 25.72 29.52 28.22 29.52 28.22 30 27.56 31.02 29.7 31.02 29.7 33.44"></polygon>
                <polygon id="Shape" fill="#BD2F49" fill-rule="nonzero" points="26.38 14.1 27.82 14.1 29.86 15.3 29.86 17.58 26.98 17.58 26.7 17.32 26.7 16.08 25.78 15.1"></polygon>
                <polygon id="Shape" fill="#BD2F49" fill-rule="nonzero" points="28.7 22.32 29.34 21.48 28.34 21.48 27.42 19.96 27.42 18.94 27.96 18.54 27.3 17.9 29.96 17.92 30.8 18.54 30.8 22.14 30.36 23.32 29.28 23.72"></polygon>
                <polygon id="Shape" fill="#DE576F" fill-rule="nonzero" points="29.08 26.66 31.02 26.66 31.02 31.56 30.02 31.56 30.02 30.7 28.16 30.7 28.54 30.1 28.54 27.88"></polygon>
                <polygon id="Shape" fill="#DE576F" fill-rule="nonzero" points="30 15 28.12 13.9 28.76 13.18 28.76 14.02 30.12 14.02 30.88 12.94 32.2 12.94"></polygon>
                <polygon id="Shape" fill="#DE576F" fill-rule="nonzero" points="33.28 20.9 32.56 21.68 31.12 21.96 31.12 18.56 31.78 18.22 33.28 18.22"></polygon>
                <polygon id="Shape" fill="#DE576F" fill-rule="nonzero" points="33.62 30.62 32.14 30.62 32.14 31.56 31.34 31.56 31.34 26.66 33.62 26.66"></polygon>
                <polygon id="Shape" fill="#DE576F" fill-rule="nonzero" points="31.92 15.62 33.04 14.6 33.42 14.6 33.42 16 34.3 16 34.3 17.9 31.92 17.9"></polygon>
                <polygon id="Shape" fill="#DE576F" fill-rule="nonzero" points="35.72 23.04 34.86 24.36 29.54 24.36 29.4 24.02 30.62 23.58 31.08 22.3 32.72 21.96 33.44 21.18"></polygon>
                <polygon id="Shape" fill="#BD2F49" fill-rule="nonzero" points="34.3 18.22 35.84 18.22 36.6 17.34 36.62 17.32 36.62 19.74 36.1 19.74 36.1 21.26 35.1 22.1 33.6 20.88 33.6 18.22 34.3 18.22"></polygon>
                <polygon id="Shape" fill="#DE576F" fill-rule="nonzero" points="35.1 25.72 34.68 26.34 29.24 26.34 29.96 24.7 36.84 24.7 36.48 25.44"></polygon>
                <polygon id="Shape" fill-opacity="0.599999964" fill="#DE576F" fill-rule="nonzero" points="34.7 26.66 36.92 29.54 37.12 29.88 36.76 29.88 36.76 30.62 33.94 30.62 33.94 26.66"></polygon>
                <polygon id="Shape" fill="#DE576F" fill-rule="nonzero" points="37.2 20.74 37.2 21.64 38.28 21.64 36.98 22.86 36.02 22.86 35.36 22.32 36.42 21.4 36.42 20.06 36.62 20.06 36.62 20.74"></polygon>
                <polygon id="Shape" fill="#DE576F" fill-rule="nonzero" points="37.08 29.2 35.1 26.66 37.42 26.66 38.74 27.54"></polygon>
                <polygon id="Shape" fill="#DE576F" fill-rule="nonzero" points="36.86 34.58 36.06 31.4 34.16 31.4 33.54 32.02 33.1 31.56 32.46 31.56 32.46 30.94 37.1 30.94 37.1 30.22 37.3 30.22 39.02 33.4 39.02 36"></polygon>
                <polygon id="Shape" fill="#DE576F" fill-rule="nonzero" points="39.42 22.5 40.2 24.02 40.2 24.36 35.26 24.36 36.02 23.2 37.1 23.2 38.56 21.82"></polygon>
                <polygon id="Shape" fill="#DE576F" fill-rule="nonzero" points="37.22 24.7 40.2 24.7 40.2 26.08 38.98 27.3 37.52 26.34 35.08 26.34 35.3 26.02 36.7 25.72"></polygon>
                <polygon id="Shape" fill="#DE576F" fill-rule="nonzero" points="40.7 20.74 40.94 21.9 40.6 21.9 40.6 20.74"></polygon>
                <polygon id="Shape" fill="#DE576F" fill-rule="nonzero" points="40.28 22.22 40.98 22.22 40.98 22.6 40.22 22.6 39.62 22.24 39.96 21.88 39.32 21.38 38.98 21.76 38.44 21.32 37.52 21.32 37.52 20.74 40.28 20.74"></polygon>
                <polygon id="Shape" fill-opacity="0.599999964" fill="#DE576F" fill-rule="nonzero" points="40.3 18.78 41.04 19.52 40.72 20.4 36.94 20.4 36.94 16.94 37.46 16.34 37.54 16.34 37.54 17.68 40.9 17.68 41.1 17.9"></polygon>
                <polygon id="Shape" fill="#DE576F" fill-rule="nonzero" points="41.32 18.16 41.62 18.52 41.62 20.68 41.04 20.48 41.42 19.44 40.74 18.76"></polygon>
                <polygon id="Shape" fill="#DE576F" fill-rule="nonzero" points="42.86 17.76 42 18.02 42 17.18 42.86 17.18"></polygon>
                <polygon id="Shape" fill="#DE576F" fill-rule="nonzero" points="42.36 15.82 42.04 15.82 42.04 13.62 43 13.62 43 14.14 42.36 14.72"></polygon>
                <polygon id="Shape" fill="#DE576F" fill-rule="nonzero" points="43.46 17.18 43.46 17.58 43.18 17.66 43.18 17.18"></polygon>
                <polygon id="Shape" fill-opacity="0.599999964" fill="#DE576F" fill-rule="nonzero" points="42.8 14.84 43.32 14.26 43.32 13.62 44.02 13.62 44.02 15.82 42.8 15.82"></polygon>
                <polygon id="Shape" fill="#DE576F" fill-rule="nonzero" points="44.54 16.76 44.34 17.24 43.78 17.42 43.78 16.84 42.04 16.84 42.04 16.14 44.02 16.14 44.02 17.06 44.26 17.08"></polygon>
                <polygon id="Shape" fill="#DE576F" fill-rule="nonzero" points="44.26 15.32 44.26 13.36 44.82 11.24 45.26 11.24 45.26 12.5 45.94 12.5 45.94 13.22"></polygon>
                <polygon id="Shape" fill="#DE576F" fill-rule="nonzero" points="42.94 18.12 41.9 18.48 41.06 17.34 37.86 17.34 37.86 16.34 39.24 16.34 40.6 13.62 41.72 13.62 41.72 17.8 42 18.24 42.9 18.02"></polygon>
            </g>
        </g>
    </g>
</svg>