<?xml version="1.0" encoding="UTF-8"?>
<svg focusable="false" width="48px" height="48px" viewBox="0 0 48 48" version="1.1" xmlns="http://www.w3.org/2000/svg" xmlns:xlink="http://www.w3.org/1999/xlink">
    <!-- Generator: Sketch 48.2 (47327) - http://www.bohemiancoding.com/sketch -->
    <title>Chart Icon/Geo Heatmap</title>
    <desc>Created with Sketch.</desc>
    <defs>
        <radialGradient cx="50%" cy="50%" fx="50%" fy="50%" r="50%" id="radialGradient-1">
            <stop stop-color="#F5CF5F" offset="0%"></stop>
            <stop stop-color="#F5CF5F" offset="10.6160482%"></stop>
            <stop stop-color="#DE576F" offset="52.6123047%"></stop>
            <stop stop-color="#68B8E3" offset="100%"></stop>
        </radialGradient>
    </defs>
    <g id="Symbols" stroke="none" stroke-width="1" fill="none" fill-rule="evenodd">
        <g id="Chart-Icon/Geo-Heatmap">
            <g id="geo_heatmap_chart_24-copy-2">
                <rect id="Rectangle-path" x="0" y="0" width="48" height="48"></rect>
                <path d="M2,12.26 L3.76,13.26 L3.76,12.18 L27.18,12.18 L26.14,13.86 L26.38,14.1 L27.82,14.1 L28.76,13.18 L28.76,14 L30.14,14 L30.9,12.92 L32.22,12.92 L29.86,15.3 L29.86,17.58 L30.8,18.54 L31.12,18.54 L31.78,18.2 L32,18 L32,15.62 L33.14,14.6 L33.52,14.6 L33.52,16 L34.38,16 L34.38,18.22 L35.94,18.22 L37.56,16.32 L39.32,16.32 L40.68,13.62 L44,13.62 L44.82,11.22 L45.24,11.22 L45.24,12.48 L46,12.48 L46,13.2 L44,15.56 L44,17.06 L44.24,17.06 L44.52,16.74 L44.34,17.2 L42.84,17.74 L42.84,18.1 L42,18.48 L41.72,18.48 L41.72,20.64 L41.16,20.44 L40.84,20.44 L41.06,21.92 L41.06,22.62 L40.32,22.62 L39.68,22.14 L39.52,22.52 L40.3,24.04 L40.3,26.04 L37.08,29.2 L37.08,29.88 L39.08,33.4 L39.08,36 L36.92,34.58 L36,31.4 L34.12,31.4 C34.12,31.4 33.66,32.16 33.5,32.02 L33.06,31.58 L29.66,31.58 L29.66,33.58 L27.66,33.58 L25.66,32.66 L25.34,32.66 L21.72,35.58 L22.12,36.86 L19.7,36.2 L17.7,33.08 L16.74,34 L15,30.98 L10.9,30.98 L8,29.42 L5.32,29.42 L5.32,28.02 L4,27.22 L4,26.7 L2,22.48 L2,12.26 Z" id="Shape" fill="#D1D1D1" fill-rule="nonzero"></path>
                <circle id="Oval-2-Copy-12" fill="url(#radialGradient-1)" cx="40" cy="22" r="6"></circle>
                <circle id="Oval-2-Copy-13" fill="url(#radialGradient-1)" cx="31" cy="31" r="5"></circle>
                <circle id="Oval-2-Copy-14" fill="url(#radialGradient-1)" cx="27" cy="19" r="3"></circle>
                <circle id="Oval-2-Copy-15" fill="url(#radialGradient-1)" cx="9" cy="29" r="5"></circle>
                <circle id="Oval-2-Copy-16" fill="url(#radialGradient-1)" cx="6" cy="16" r="4"></circle>
                <circle id="Oval-2-Copy-17" fill="url(#radialGradient-1)" cx="3" cy="23" r="3"></circle>
            </g>
        </g>
    </g>
</svg>