<?xml version="1.0" encoding="UTF-8"?>
<svg focusable="false" width="48px" height="48px" viewBox="0 0 48 48" version="1.1" xmlns="http://www.w3.org/2000/svg" xmlns:xlink="http://www.w3.org/1999/xlink">
    <!-- Generator: Sketch 52.5 (67469) - http://www.bohemiancoding.com/sketch -->
    <title>Artboard</title>
    <desc>Created with Sketch.</desc>
    <g id="Artboard" stroke="none" stroke-width="1" fill="none" fill-rule="evenodd">
        <g id="headline_icon_24">
            <g id="donut_chart_24-copy">
                <rect id="Rectangle-path" x="0" y="0" width="48" height="48"></rect>
            </g>
            <path d="M8.63200366,30 L8.63200366,16.714 L4.16000366,16.714 L4.16000366,14.244 C7.35800366,14.166 8.71000366,13.464 9.02200366,11.41 L11.8820037,11.41 L11.8820037,30 L8.63200366,30 Z M28.3880036,30 L16.2200037,30 L16.2200037,27.296 C16.2200037,27.296 19.5480037,24.306 21.7320036,22.252 C24.0720036,20.094 25.0860036,18.586 25.0860036,16.818 C25.0860036,15.076 24.0200036,13.906 22.2260036,13.906 C20.1460036,13.906 19.2100037,15.388 19.1840037,17.364 L16.0900037,17.364 C16.0900037,17.286 16.0640037,17.234 16.0640037,17.182 C16.0640037,13.802 18.2220037,11.046 22.2260036,11.046 C26.0740036,11.046 28.3880036,13.49 28.3880036,16.74 C28.3880036,21.472 23.2400036,24.566 20.3800036,27.218 L28.3880036,27.218 L28.3880036,30 Z M31.0880036,24.644 L34.2600036,24.644 C34.4680036,26.412 35.5340036,27.608 37.5620036,27.608 C39.5120036,27.608 40.7340036,26.178 40.7340036,24.41 C40.7340036,22.148 39.0700036,21.212 36.9380036,21.212 L36.2100036,21.212 L36.2100036,18.612 C38.2640036,18.612 39.8760036,17.988 39.8760036,16.012 C39.8500036,14.478 38.7840036,13.75 37.4840036,13.75 C36.1320036,13.75 35.1440036,14.582 34.9880036,16.038 L31.9980036,16.038 C32.0760036,13.152 34.2080036,11.046 37.5620036,11.046 C40.9160036,11.046 43.0740036,13.022 43.0740036,15.908 C43.0740036,17.65 42.0600036,18.976 40.5780036,19.756 C42.7880036,20.484 44.0100036,22.226 44.0100036,24.514 C44.0100036,27.946 41.4880036,30.338 37.4840036,30.338 C33.5580036,30.338 31.3220036,27.868 31.0880036,24.644 Z" id="123" fill="#757575" fill-rule="nonzero"></path>
            <rect id="Rectangle-6" fill="#68B8E3" x="4" y="40" width="40" height="4"></rect>
        </g>
    </g>
</svg>