<?xml version="1.0" encoding="UTF-8"?>
<svg focusable="false" width="48px" height="48px" viewBox="0 0 48 48" version="1.1" xmlns="http://www.w3.org/2000/svg" xmlns:xlink="http://www.w3.org/1999/xlink">
    <!-- Generator: Sketch 48.2 (47327) - http://www.bohemiancoding.com/sketch -->
    <title>Chart Icon/Stacked Bar</title>
    <desc>Created with Sketch.</desc>
    <defs></defs>
    <g id="Symbols" stroke="none" stroke-width="1" fill="none" fill-rule="evenodd">
        <g id="Chart-Icon/Stacked-Bar">
            <g id="Column-chart-Copy-3" opacity="0.899999976" transform="translate(24.000000, 24.000000) scale(1, -1) rotate(90.000000) translate(-24.000000, -24.000000) ">
                <rect id="Rectangle-4" x="0" y="0" width="48" height="48"></rect>
                <path d="M4,43 L44,43" id="Path-2" stroke="#757575"></path>
            </g>
            <g id="Stacked-Column-chart--Copy-3" transform="translate(24.000000, 24.000000) rotate(90.000000) translate(-24.000000, -24.000000) ">
                <rect id="Rectangle-4" x="0" y="0" width="48" height="48"></rect>
                <g id="Group-8" transform="translate(4.000000, 26.000000)">
                    <rect id="Rectangle-2-Copy-4" fill="#DE576F" x="0" y="2" width="8" height="12"></rect>
                    <rect id="Rectangle-2-Copy-14" fill="#68B8E3" x="0" y="2" width="8" height="10"></rect>
                    <rect id="Rectangle-2-Copy-15" fill="#F5CF5F" x="0" y="2" width="8" height="4"></rect>
                    <rect id="Rectangle-2-Copy-16" fill="#5776AD" x="0" y="0" width="8" height="2"></rect>
                </g>
                <g id="Group-7" transform="translate(14.666667, 16.000000)">
                    <rect id="Rectangle-2-Copy-5" fill="#DE576F" x="0" y="2" width="8" height="22"></rect>
                    <rect id="Rectangle-2-Copy-11" fill="#68B8E3" x="0" y="0" width="8" height="20"></rect>
                    <rect id="Rectangle-2-Copy-12" fill="#F5CF5F" x="0" y="0" width="8" height="10"></rect>
                    <rect id="Rectangle-2-Copy-13" fill="#5776AD" x="0" y="0" width="8" height="6"></rect>
                </g>
                <g id="Group-5" transform="translate(25.333333, 4.000000)">
                    <rect id="Rectangle-2-Copy-6" fill="#DE576F" x="0" y="0" width="8" height="36"></rect>
                    <rect id="Rectangle-2-Copy-8" fill="#68B8E3" x="0" y="14" width="8" height="16"></rect>
                    <rect id="Rectangle-2-Copy-9" fill="#F5CF5F" x="0" y="8" width="8" height="8"></rect>
                    <rect id="Rectangle-2-Copy-10" fill="#5776AD" x="0" y="0" width="8" height="8"></rect>
                </g>
                <g id="Group-6" transform="translate(36.000000, 14.000000)">
                    <rect id="Rectangle-2-Copy-7" fill="#DE576F" x="0" y="0" width="8" height="26"></rect>
                    <rect id="Rectangle-2-Copy-17" fill="#68B8E3" x="0" y="2" width="8" height="16"></rect>
                    <rect id="Rectangle-2-Copy-18" fill="#F5CF5F" x="0" y="4" width="8" height="6"></rect>
                    <rect id="Rectangle-2-Copy-19" fill="#5776AD" x="0" y="0" width="8" height="4"></rect>
                </g>
            </g>
        </g>
    </g>
</svg>