<?xml version="1.0" encoding="UTF-8"?>
<svg focusable="false" width="48px" height="48px" viewBox="0 0 48 48" version="1.1" xmlns="http://www.w3.org/2000/svg" xmlns:xlink="http://www.w3.org/1999/xlink">
    <!-- Generator: Sketch 48.2 (47327) - http://www.bohemiancoding.com/sketch -->
    <title>Chart Icon/Headline</title>
    <desc>Created with Sketch.</desc>
    <defs></defs>
    <g id="Symbols" stroke="none" stroke-width="1" fill="none" fill-rule="evenodd">
        <g id="Chart-Icon/Headline">
            <g id="Stacked-column-chart-icon-Copy-6">
                <g id="donut_chart_24-copy">
                    <rect id="Rectangle-path" x="0" y="0" width="48" height="48"></rect>
                </g>
                <path d="M11.465,9.58 L11.465,28 L8.43500004,28 L8.43500004,13.33 L4.11500004,15.52 L4.11500004,12.37 L9.63500004,9.58 L11.465,9.58 Z M24.855,14.65 C24.855,13.12 23.775,12.04 22.035,12.04 C20.205,12.04 19.215,13.36 19.095,15.1 L15.885,15.1 C16.245,11.68 18.615,9.28 22.035,9.28 C25.725,9.28 27.885,11.35 27.885,14.62 C27.885,16.87 26.025,18.73 24.135,20.86 L20.175,25.27 L28.185,25.27 L28.185,28 L15.915,28 L15.915,25.96 L21.375,19.9 C23.265,17.8 24.855,16.24 24.855,14.65 Z M36.085,19.9 L36.085,17.29 L37.165,17.29 C38.935,17.29 40.255,16.36 40.255,14.62 C40.255,13.15 39.205,11.98 37.435,11.98 C35.485,11.98 34.435,13.24 34.315,14.86 L31.255,14.86 C31.645,11.65 33.955,9.28 37.405,9.28 C41.035,9.28 43.165,11.44 43.165,14.44 C43.165,16.36 42.235,17.95 40.765,18.58 C42.655,19.36 43.525,21.04 43.525,22.75 C43.525,25.87 41.245,28.3 37.435,28.3 C33.655,28.3 31.045,25.93 30.835,22.48 L33.865,22.48 C34.075,24.34 35.275,25.63 37.405,25.63 C39.265,25.63 40.585,24.49 40.585,22.78 C40.585,21.01 39.205,19.9 37.255,19.9 L36.085,19.9 Z" id="123" fill="#757575"></path>
                <rect id="Rectangle-6" fill="#D8D8D8" x="4" y="36" width="40" height="4"></rect>
            </g>
        </g>
    </g>
</svg>