<?xml version="1.0" encoding="UTF-8"?>
<svg focusable="false" width="22px" height="17px" viewBox="0 0 22 17" version="1.1" xmlns="http://www.w3.org/2000/svg" xmlns:xlink="http://www.w3.org/1999/xlink">
    <!-- Generator: Sketch 49.2 (51160) - http://www.bohemiancoding.com/sketch -->
    <title>Community Icon</title>
    <desc>Created with Sketch.</desc>
    <defs></defs>
    <g id="Final-Colors-and-Icons" stroke="none" stroke-width="1" fill="none" fill-rule="evenodd">
        <g id="Colors-and-Icons-Copy-6" transform="translate(-269.000000, -377.000000)">
            <g id="Community-Icon" transform="translate(268.000000, 373.000000)">
                <rect id="Rectangle-2" x="0" y="0" width="24" height="24"></rect>
                <path d="M15.7158983,4.872 C17.5583983,4.872 19.0580649,6.37069442 19.0580649,8.21199991 C19.0580649,10.0542215 17.5583983,11.5519998 15.7158983,11.5519998 C13.8724816,11.5519998 12.3737316,10.0542215 12.3737316,8.21199991 C12.3737316,6.37069442 13.8724816,4.872 15.7158983,4.872 Z M8.04891494,4.872 C9.89022043,4.872 11.3889149,6.37069442 11.3889149,8.21199991 C11.3889149,10.0542215 9.89022043,11.5519998 8.04891494,11.5519998 C6.20669338,11.5519998 4.70891503,10.0542215 4.70891503,8.21199991 C4.70891503,6.37069442 6.20669338,4.872 8.04891494,4.872 Z M15.4521899,20.1517998 C15.2936066,17.5078279 14.4273566,15.4384293 12.9707733,14.0930867 C13.8241899,13.6995273 14.7967733,13.4718 15.9041066,13.4718 C17.7777733,13.4718 22.0705233,14.1374643 22.4610233,20.1517998 L15.4521899,20.1517998 Z M12.0396233,14.6767692 C13.3275399,15.6168741 14.4174566,17.2635174 14.6044566,20.1515663 L9.41337327,20.1515663 L1.49337327,20.1515663 C1.78395661,15.9555454 4.20028994,13.4727343 8.04753994,13.4727343 C9.02103994,13.4727343 10.6462899,13.6595874 12.0396233,14.6767692 Z" id="Combined-Shape" fill="#333333"></path>
            </g>
        </g>
    </g>
</svg>