<?xml version="1.0" encoding="utf-8"?>
<!-- Generator: Adobe Illustrator 18.1.0, SVG Export Plug-In . SVG Version: 6.00 Build 0)  -->
<svg focusable="false" version="1.2" baseProfile="tiny" id="Layer_1" xmlns="http://www.w3.org/2000/svg" xmlns:xlink="http://www.w3.org/1999/xlink"
	 x="0px" y="0px" viewBox="0 0 24 24" xml:space="preserve">
<g>
	<title>Community Icon (1) Copy</title>
	<desc>Created with Sketch.</desc>
	<g id="Page-1_1_">
		<g id="New-Help-Menu_1_" transform="translate(-1087.000000, -84.000000)">
			<g id="Community-Icon-_x28_1_x29_-Copy_1_" transform="translate(1088.000000, 85.000000)">
				<path id="Fill-5_1_" fill="#FFFFFF" d="M4,2.2c1.6,0,3,1.3,3,3s-1.3,3-3,3s-3-1.3-3-3S2.4,2.2,4,2.2"/>
				<path id="Fill-7_1_" fill="#FFFFFF" d="M-1,13.8h9.7C8.6,11,6.6,8.7,4,8.7c-2.6,0-4.6,2.3-4.7,5.1"/>
				<path id="Fill-9_1_" fill="#FFFFFF" d="M18.3,2.2c1.6,0,3,1.3,3,3s-1.3,3-3,3s-3-1.3-3-3S16.7,2.2,18.3,2.2"/>
				<path id="Fill-11_1_" fill="#FFFFFF" d="M18.3,8.7c-2.6,0-4.6,2.3-4.7,5.1H23C22.9,11,20.9,8.7,18.3,8.7"/>
				<path id="Fill-1_1_" fill="#FFFFFF" d="M11.2,4c2.2,0,3.9,1.8,3.9,3.9s-1.8,3.9-3.9,3.9S7.2,10.1,7.2,8
					S9,4,11.2,4"/>
				<path id="Fill-3_1_" fill="#FFFFFF" d="M4.9,19.8h12.5C17.3,16,14.6,13,11.2,13S5,16,4.9,19.8"/>
			</g>
		</g>
	</g>
</g>
</svg>
