<?xml version="1.0" encoding="UTF-8"?>
<svg focusable="false" width="11px" height="16px" viewBox="0 0 11 16" version="1.1" xmlns="http://www.w3.org/2000/svg" xmlns:xlink="http://www.w3.org/1999/xlink">
    <!-- Generator: Sketch 49.3 (51167) - http://www.bohemiancoding.com/sketch -->
    <title>download-icon</title>
    <desc>Created with Sketch.</desc>
    <defs></defs>
    <g id="Final-Export" stroke="none" stroke-width="1" fill="none" fill-rule="evenodd">
        <g id="Icons" transform="translate(-59.000000, -231.000000)" fill="#335C8F">
            <path d="M63.4035504,240.146729 L63.4035504,232.183626 C63.4035504,231.632107 63.8506452,231.185012 64.4021646,231.185012 L64.5357069,231.185012 C65.0872263,231.185012 65.5343211,231.632107 65.5343211,232.183626 L65.5343211,240.080841 L67.94259,237.673353 L67.9426882,237.673451 C68.3326872,237.283561 68.964899,237.283605 69.3548438,237.673549 L69.4494688,237.767782 C69.4495015,237.767814 69.4495342,237.767847 69.4495669,237.76788 C69.8394958,238.157917 69.8394079,238.790205 69.4493706,239.180134 L65.2120235,243.41591 C65.1648041,243.463116 65.114034,243.504606 65.0605732,243.54038 C64.6676556,243.858821 64.0896816,243.835449 63.7239201,243.47014 L59.514869,239.267174 C59.123739,238.876528 59.1233466,238.242773 59.5139926,237.851643 C59.5223524,237.843273 59.5308598,237.835052 59.539511,237.826983 L59.6266157,237.745745 C60.0203792,237.378503 60.6341107,237.388568 61.0156206,237.768524 L63.4035504,240.146729 Z M69.0013858,244.869229 C69.5529052,244.869229 70,245.316324 70,245.867843 L70,246.001386 C70,246.552905 69.5529052,247 69.0013858,247 L59.9986142,247 C59.4470948,247 59,246.552905 59,246.001386 L59,245.867843 C59,245.316324 59.4470948,244.869229 59.9986142,244.869229 L69.0013858,244.869229 Z" id="download-icon"></path>
        </g>
    </g>
</svg>