<?xml version="1.0" encoding="UTF-8"?>
<svg focusable="false" viewBox="0 0 120 120" version="1.1" xmlns="http://www.w3.org/2000/svg" xmlns:xlink="http://www.w3.org/1999/xlink">
    <g id="Artboard" stroke="none" stroke-width="1" fill="none" fill-rule="evenodd">
        <g id="rd-icon-embrace-xl" transform="translate(17.000000, 11.000000)" fill="#D9DFE7" fill-rule="nonzero">
            <path d="M77.713685,22.6054024 L68.188357,27.2735341 C63.10615,17.0998731 52.635546,10.5263158 40.9719262,10.5263158 C24.2131791,10.5263158 10.6275303,23.9825775 10.6275303,40.5817174 C10.6275303,57.1808575 24.2131791,70.637119 40.9719262,70.637119 C52.803731,70.637119 63.3995365,63.871477 68.3930785,53.471951 L77.9904655,57.992969 C71.2516285,72.027238 56.9432505,81.163435 40.9719262,81.163435 C18.3437562,81.163435 2.27373675e-13,62.994381 2.27373675e-13,40.5817174 C2.27373675e-13,18.1690538 18.3437562,0 40.9719262,0 C56.7157285,0 70.855897,8.8773495 77.713685,22.6054024 Z" id="Path"></path>
            <polygon id="Line-2" transform="translate(71.558212, 82.988594) rotate(0.567266) translate(-71.558212, -82.988594) " points="57.1439365 76.362156 64.583967 68.8456 85.9724875 89.6150315 78.532457 97.131588"></polygon>
            <polygon id="Rectangle-5" transform="translate(36.710634, 41.027462) rotate(179.000000) translate(-36.710634, -41.027462) " points="37.0787784 41.0285897 24.2397443 28.3117377 30.2901117 22.3189675 49.1815245 41.0306011 30.2963897 59.7359567 24.244011 53.7411752"></polygon>
            <polygon id="Line" transform="translate(58.805673, 41.080332) rotate(-90.000000) translate(-58.805673, -41.080332) " points="54.5674455 14.157255 63.0438995 14.157255 63.0438995 68.003409 54.5674455 68.003409"></polygon>
        </g>
    </g>
</svg>