<svg width="56" height="56" viewBox="0 0 56 56" fill="none" xmlns="http://www.w3.org/2000/svg">
<path fill-rule="evenodd" clip-rule="evenodd" d="M56 28C56 43.464 43.464 56 28 56C12.536 56 0 43.464 0 28C0 12.536 12.536 0 28 0C43.464 0 56 12.536 56 28ZM21.2 33.6C21.2 35.5882 19.5882 37.2 17.6 37.2C15.6118 37.2 14 35.5882 14 33.6C14 31.6118 15.6118 30 17.6 30C19.5882 30 21.2 31.6118 21.2 33.6ZM38.6 37.2C40.5882 37.2 42.2 35.5882 42.2 33.6C42.2 31.6118 40.5882 30 38.6 30C36.6118 30 35 31.6118 35 33.6C35 35.5882 36.6118 37.2 38.6 37.2ZM22.9106 45.192C24.534 43.9517 29.2059 42.0722 34.1913 45.2634C34.8891 45.71 35.8167 45.5064 36.2634 44.8087C36.71 44.1109 36.5064 43.1833 35.8087 42.7366C29.4765 38.6834 23.417 41.0298 21.0894 42.808C20.4311 43.311 20.3051 44.2523 20.8081 44.9106C21.311 45.5689 22.2523 45.6949 22.9106 45.192Z" fill="#C0C6CF"/>
</svg>
