<svg width="56" height="56" viewBox="0 0 56 56" fill="none" xmlns="http://www.w3.org/2000/svg">
<path fill-rule="evenodd" clip-rule="evenodd" d="M28 56C43.464 56 56 43.464 56 28C56 12.536 43.464 0 28 0C12.536 0 0 12.536 0 28C0 43.464 12.536 56 28 56ZM23.4433 11.5995C23.3844 11.0108 23.8467 10.5 24.4383 10.5H31.5617C32.1533 10.5 32.6156 11.0108 32.5567 11.5995L30.4234 32.9328C30.3723 33.444 29.9421 33.8333 29.4283 33.8333H26.5717C26.0579 33.8333 25.6277 33.444 25.5766 32.9328L23.4433 11.5995ZM31.5 43.1667C31.5 45.0997 29.933 46.6667 28 46.6667C26.067 46.6667 24.5 45.0997 24.5 43.1667C24.5 41.2337 26.067 39.6667 28 39.6667C29.933 39.6667 31.5 41.2337 31.5 43.1667Z" fill="#C0C6CF"/>
</svg>
