<svg width="88" height="82" viewBox="0 0 88 82" fill="none" xmlns="http://www.w3.org/2000/svg">
<g filter="url(#filter0_dd)">
<path d="M16 14C16 12.8954 16.8954 12 18 12H70C71.1046 12 72 12.8954 72 14V60C72 61.1046 71.1046 62 70 62H18C16.8954 62 16 61.1046 16 60V14Z" fill="white"/>
</g>
<path d="M22 19C22 18.4477 22.4477 18 23 18H27.7692C28.3215 18 28.7692 18.4477 28.7692 19V19.8504C28.7692 20.4027 28.3215 20.8504 27.7692 20.8504H23C22.4477 20.8504 22 20.4027 22 19.8504V19Z" fill="#EAEDF2"/>
<path d="M30.4615 19C30.4615 18.4477 30.9092 18 31.4615 18H37.0769C37.6292 18 38.0769 18.4477 38.0769 19V19.8504C38.0769 20.4027 37.6292 20.8504 37.0769 20.8504H31.4615C30.9092 20.8504 30.4615 20.4027 30.4615 19.8504V19Z" fill="#EAEDF2"/>
<path d="M39.7692 19C39.7692 18.4477 40.2169 18 40.7692 18H46.3846C46.9369 18 47.3846 18.4477 47.3846 19V19.8504C47.3846 20.4027 46.9369 20.8504 46.3846 20.8504H40.7692C40.2169 20.8504 39.7692 20.4027 39.7692 19.8504V19Z" fill="#EAEDF2"/>
<path d="M49.0769 19C49.0769 18.4477 49.5246 18 50.0769 18H55.6923C56.2446 18 56.6923 18.4477 56.6923 19V19.8504C56.6923 20.4027 56.2446 20.8504 55.6923 20.8504H50.0769C49.5246 20.8504 49.0769 20.4027 49.0769 19.8504V19Z" fill="#EAEDF2"/>
<path d="M58.3846 19C58.3846 18.4477 58.8323 18 59.3846 18H65C65.5523 18 66 18.4477 66 19V19.8504C66 20.4027 65.5523 20.8504 65 20.8504H59.3846C58.8323 20.8504 58.3846 20.4027 58.3846 19.8504V19Z" fill="#EAEDF2"/>
<path d="M22 25.7012C22 24.5966 22.8954 23.7012 24 23.7012H64C65.1046 23.7012 66 24.5966 66 25.7012V31.2025C66 32.307 65.1046 33.2025 64 33.2025H24C22.8954 33.2025 22 32.307 22 31.2025V25.7012Z" fill="#EAEDF2"/>
<path d="M22 37.0996C22 35.995 22.8954 35.0996 24 35.0996H33.5385C34.643 35.0996 35.5385 35.995 35.5385 37.0996V42.6009C35.5385 43.7055 34.643 44.6009 33.5385 44.6009H24C22.8954 44.6009 22 43.7055 22 42.6009V37.0996Z" fill="#EAEDF2"/>
<path d="M22 48.5039C22 47.3993 22.8954 46.5039 24 46.5039H48.7692C49.8738 46.5039 50.7692 47.3993 50.7692 48.5039V54.0052C50.7692 55.1098 49.8738 56.0052 48.7692 56.0052H24C22.8954 56.0052 22 55.1098 22 54.0052V48.5039Z" fill="#EAEDF2"/>
<path d="M37.2308 37.0996C37.2308 35.995 38.1262 35.0996 39.2308 35.0996H48.7692C49.8738 35.0996 50.7692 35.995 50.7692 37.0996V42.6009C50.7692 43.7055 49.8738 44.6009 48.7692 44.6009H39.2308C38.1262 44.6009 37.2308 43.7055 37.2308 42.6009V37.0996Z" fill="#EAEDF2"/>
<path d="M52.4615 37.0996C52.4615 35.995 53.3569 35.0996 54.4615 35.0996H64C65.1045 35.0996 66 35.995 66 37.0996V42.6009C66 43.7055 65.1045 44.6009 64 44.6009H54.4615C53.3569 44.6009 52.4615 43.7055 52.4615 42.6009V37.0996Z" fill="#EAEDF2"/>
<path d="M52.4615 48.5039C52.4615 47.3993 53.3569 46.5039 54.4615 46.5039H64C65.1045 46.5039 66 47.3993 66 48.5039V54.0052C66 55.1098 65.1045 56.0052 64 56.0052H54.4615C53.3569 56.0052 52.4615 55.1098 52.4615 54.0052V48.5039Z" fill="#EAEDF2"/>
<defs>
<filter id="filter0_dd" x="0" y="0" width="88" height="82" filterUnits="userSpaceOnUse" color-interpolation-filters="sRGB">
<feFlood flood-opacity="0" result="BackgroundImageFix"/>
<feColorMatrix in="SourceAlpha" type="matrix" values="0 0 0 0 0 0 0 0 0 0 0 0 0 0 0 0 0 0 127 0"/>
<feOffset dy="4"/>
<feGaussianBlur stdDeviation="8"/>
<feColorMatrix type="matrix" values="0 0 0 0 0.0980392 0 0 0 0 0.137255 0 0 0 0 0.192157 0 0 0 0.08 0"/>
<feBlend mode="normal" in2="BackgroundImageFix" result="effect1_dropShadow"/>
<feColorMatrix in="SourceAlpha" type="matrix" values="0 0 0 0 0 0 0 0 0 0 0 0 0 0 0 0 0 0 127 0"/>
<feOffset dy="2"/>
<feGaussianBlur stdDeviation="2"/>
<feColorMatrix type="matrix" values="0 0 0 0 0 0 0 0 0 0 0 0 0 0 0 0 0 0 0.04 0"/>
<feBlend mode="normal" in2="effect1_dropShadow" result="effect2_dropShadow"/>
<feBlend mode="normal" in="SourceGraphic" in2="effect2_dropShadow" result="shape"/>
</filter>
</defs>
</svg>
