<svg focusable="false" xmlns="http://www.w3.org/2000/svg" width="64" height="48" viewBox="0 0 64 48">
    <g fill="none" fill-rule="evenodd">
        <rect width="64" height="48" fill="#FFF" rx="2"/>
        <path fill="#EAEDF2" d="M4 2h56a2 2 0 0 1 2 2v9.3a2 2 0 0 1-2 2H4a2 2 0 0 1-2-2V4a2 2 0 0 1 2-2zm0 15.3h14.305a2 2 0 0 1 2 2v9.3a2 2 0 0 1-2 2H4a2 2 0 0 1-2-2v-9.3a2 2 0 0 1 2-2zm20.339 0h15.322a2 2 0 0 1 2 2v9.3a2 2 0 0 1-2 2H24.339a2 2 0 0 1-2-2v-9.3a2 2 0 0 1 2-2zm21.356 0H60a2 2 0 0 1 2 2v9.3a2 2 0 0 1-2 2H45.695a2 2 0 0 1-2-2v-9.3a2 2 0 0 1 2-2zm0 15.3H60a2 2 0 0 1 2 2v9.3a2 2 0 0 1-2 2H45.695a2 2 0 0 1-2-2v-9.3a2 2 0 0 1 2-2zM4 32.6h35.661a2 2 0 0 1 2 2v9.3a2 2 0 0 1-2 2H4a2 2 0 0 1-2-2v-9.3a2 2 0 0 1 2-2z"/>
    </g>
</svg>
