<svg focusable="false" id="Layer_1" data-name="Layer 1" xmlns="http://www.w3.org/2000/svg" viewBox="0 0 24 24"><defs><style>.cls-1{fill:#FFFFFF;}</style></defs><title>New Help Icon </title><g id="Page-1"><g id="New-Help-Menu"><g id="Group-2"><path id="Combined-Shape" class="cls-1" d="M12,24A12,12,0,1,1,24,12,12,12,0,0,1,12,24ZM8.3,9.62a.94.94,0,0,0,.3.67,1,1,0,0,0,.74.31q.74,0,1-.88A3.46,3.46,0,0,1,11,8.43,1.66,1.66,0,0,1,12.3,8a1.7,1.7,0,0,1,1.2.43A1.38,1.38,0,0,1,14,9.48a1.2,1.2,0,0,1-.15.59,2.24,2.24,0,0,1-.37.5q-.22.22-.72.66a12.37,12.37,0,0,0-.91.86,2.77,2.77,0,0,0-.74,2,1,1,0,0,0,.28.79,1,1,0,0,0,.68.27.87.87,0,0,0,.93-.81q.09-.38.13-.54a1.65,1.65,0,0,1,.12-.3,1.73,1.73,0,0,1,.24-.34,5.42,5.42,0,0,1,.43-.43q1-.86,1.33-1.22a3.56,3.56,0,0,0,.64-.86,2.42,2.42,0,0,0,.27-1.16,2.79,2.79,0,0,0-.47-1.56A3.24,3.24,0,0,0,14.3,6.77a4.55,4.55,0,0,0-2-.42,4.38,4.38,0,0,0-2.13.5A3.67,3.67,0,0,0,8.78,8.11,2.82,2.82,0,0,0,8.3,9.62Zm3.81,8.56a1.19,1.19,0,0,0,.81-.31,1.09,1.09,0,0,0,.35-.86,1.15,1.15,0,0,0-1.16-1.16,1.16,1.16,0,0,0-.84.34,1.11,1.11,0,0,0-.34.83,1.08,1.08,0,0,0,.36.86A1.23,1.23,0,0,0,12.12,18.18Z"/></g></g></g></svg>