<?xml version="1.0" encoding="UTF-8"?>
<svg focusable="false" width="18px" height="17px" viewBox="0 0 18 17" version="1.1" xmlns="http://www.w3.org/2000/svg" xmlns:xlink="http://www.w3.org/1999/xlink">
    <!-- Generator: Sketch 46.2 (44496) - http://www.bohemiancoding.com/sketch -->
    <title>UN IconUsername</title>
    <desc>Created with Sketch.</desc>
    <defs></defs>
    <g id="Page-1" stroke="none" stroke-width="1" fill="none" fill-rule="evenodd">
        <g id="1440-X-1024" transform="translate(-51.000000, -464.000000)" fill="#333333">
            <g id="Login-Window" transform="translate(0.000000, -1.000000)">
                <g id="Active-Log-In" transform="translate(40.000000, 456.000000)">
                    <g id="Username">
                        <g id="UN-Icon" transform="translate(11.000000, 9.000000)">
                            <g id="Page-1" transform="translate(0.000000, 0.039724)">
                                <path d="M0.162098864,15.5269393 C0.225794792,15.22461 0.280564922,14.9916197 0.311406742,14.8916471 C0.328321926,14.8368376 0.361554584,14.7247272 0.385243811,14.6425129 C0.447624777,14.4259854 0.606755017,13.9912362 0.686190633,13.82039 C0.705297419,13.7792728 0.775229451,13.6279188 0.841595149,13.4840588 C1.3132877,12.4615921 2.14846743,11.3741711 3.02391287,10.6426533 C3.39632585,10.3314747 3.79904271,10.039888 4.14716875,9.82933971 C4.56456934,9.576897 4.98631329,9.36778372 5.4167838,9.19980747 C5.56744648,9.14103173 5.70752971,9.08488684 5.72809092,9.07504106 C5.74863221,9.06521521 5.84948575,9.03230956 5.95223205,9.00193512 C6.05495842,8.97156068 6.18384455,8.93167927 6.2386346,8.91332307 C6.7974533,8.72617345 7.85585767,8.57609501 8.61702102,8.57609501 C9.37818437,8.57609501 10.4365688,8.72617345 10.9954074,8.91332307 C11.0501975,8.93167927 11.1790637,8.97156068 11.28181,9.00193512 C11.3845364,9.03230956 11.4853899,9.06521521 11.5059511,9.07504106 C11.5264924,9.08488684 11.6665756,9.14103173 11.8172583,9.19980747 C12.6651891,9.53067763 13.4344415,9.99450572 14.2101292,10.6426533 C15.0855547,11.3741512 15.9207543,12.4615921 16.392427,13.4840388 C16.4588126,13.6279188 16.5287446,13.7792728 16.5478514,13.82037 C16.627287,13.9912362 16.7864173,14.4259854 16.8487982,14.6425129 C16.8724875,14.7247272 16.9057002,14.8368376 16.9226154,14.8916471 C16.9531185,14.9904438 16.9972295,15.178291 17.0688749,15.5144826 C17.1396637,15.8466682 17.2341417,16.6055111 17.234042,16.8411322 L17.234042,16.9220909 L8.61706087,16.9220909 L7.96946245e-05,16.9220909 L7.96946245e-05,16.8411322 C-0.000199236558,16.6116896 0.0935814118,15.8522687 0.162098864,15.5269393 Z" id="Fill-1"></path>
                                <path d="M8.18036422,8.332433 C7.75051134,8.29085748 7.2271169,8.14123745 6.80371929,7.93892054 C5.73848111,7.42988953 4.88867741,6.41089077 4.58520028,5.27872529 C4.47137644,4.85408102 4.4486037,4.66930317 4.4486037,4.1698987 C4.4486037,3.67049424 4.47137644,3.48571638 4.58520028,3.06105218 C4.95825082,1.66926893 6.11728958,0.509838202 7.50857839,0.136635163 C7.93309173,0.0227708663 8.11780394,9.96536818e-06 8.61703099,9.96536818e-06 C9.11623811,9.96536818e-06 9.30095032,0.0227708663 9.72546366,0.136635163 C11.1167525,0.509818272 12.2757912,1.66926893 12.6488418,3.06105218 C12.7626656,3.48571638 12.7854184,3.67049424 12.7854184,4.1698987 C12.7854184,4.66928323 12.7626656,4.85408102 12.6488418,5.27872529 C12.2744563,6.6754713 11.104599,7.84165855 9.71283206,8.20555393 C9.23988432,8.32922415 8.65108051,8.37797473 8.18036422,8.332433 Z" id="Fill-4"></path>
                            </g>
                        </g>
                    </g>
                </g>
            </g>
        </g>
    </g>
</svg>