<?xml version="1.0" encoding="utf-8"?>
<!-- Generator: Adobe Illustrator 21.1.0, SVG Export Plug-In . SVG Version: 6.00 Build 0)  -->
<svg focusable="false" version="1.1" id="Layer_1" xmlns="http://www.w3.org/2000/svg" xmlns:xlink="http://www.w3.org/1999/xlink" x="0px" y="0px"
	 viewBox="0 0 28.8 28.8" style="enable-background:new 0 0 28.8 28.8;" xml:space="preserve">
<style type="text/css">
	.st0{fill:#303030;}
</style>
<title>PW Icon Revised3</title>
<path class="st0" d="M16.5,22.7h-4.2l1.2-3.7c-1.2-0.6-1.7-1.9-1.2-3.2c0.6-1.2,1.9-1.7,3.2-1.2c1.2,0.6,1.7,1.9,1.2,3.2
	c-0.3,0.6-0.7,1-1.2,1.2L16.5,22.7L16.5,22.7z M9.3,7.2c0-2.9,2.3-5.2,5.2-5.2s5.2,2.3,5.2,5.2v2.6c-3.2-1.9-7.1-1.9-10.2,0
	C9.3,9.6,9.3,7.2,9.3,7.2z M21.5,11.2v-4c0-4-3.2-7.2-7.2-7.2S7.1,3.2,7.1,7.2v4c-4,4-4,10.5-0.1,14.5s10.5,4,14.5,0.1
	S25.7,15.4,21.5,11.2C21.6,11.4,21.5,11.2,21.5,11.2z"/>
</svg>
