<svg width="126" height="90" viewBox="0 0 126 90" fill="none" xmlns="http://www.w3.org/2000/svg">
<rect x="0.179688" width="124.988" height="90" rx="8" fill="#CEDCF5"/>
<path fill-rule="evenodd" clip-rule="evenodd" d="M63.0555 60.0002C68.7378 60.0002 73.3442 55.5777 73.3442 50.1222C73.3442 44.6667 68.7378 40.2441 63.0555 40.2441C57.3732 40.2441 52.7668 44.6667 52.7668 50.1222C52.7668 55.5777 57.3732 60.0002 63.0555 60.0002Z" fill="#ABC7F9"/>
<path fill-rule="evenodd" clip-rule="evenodd" d="M61.4557 45.0518C61.3942 44.4618 61.857 43.9482 62.4503 43.9482H63.6607C64.254 43.9482 64.7168 44.4618 64.6553 45.0518L64.0017 51.3272C63.9512 51.8118 63.5427 52.1799 63.0555 52.1799V52.1799C62.5682 52.1799 62.1598 51.8118 62.1093 51.3272L61.4557 45.0518Z" fill="white"/>
<path fill-rule="evenodd" clip-rule="evenodd" d="M63.0555 56.7078C63.7658 56.7078 64.3416 56.155 64.3416 55.473C64.3416 54.7911 63.7658 54.2383 63.0555 54.2383C62.3452 54.2383 61.7694 54.7911 61.7694 55.473C61.7694 56.155 62.3452 56.7078 63.0555 56.7078Z" fill="white"/>
<rect x="6.83292" y="6.84375" width="67.009" height="5.47529" fill="#ABC7F9"/>
<rect x="6.83292" y="14.1445" width="43.7222" height="2.73764" fill="#ABC7F9"/>
<line x1="0.179688" y1="22.3145" x2="125.168" y2="22.3145" stroke="#ABC7F9"/>
</svg>
