<svg focusable="false" width="18px" height="18px" viewBox="0 0 12 12" version="1.1" xmlns="http://www.w3.org/2000/svg" xmlns:xlink="http://www.w3.org/1999/xlink">
    <!-- Generator: Sketch 48.1 (47250) - http://www.bohemiancoding.com/sketch -->
    <desc>Created with Sketch.</desc>
    <defs></defs>
    <g id="Config-Panel-for-Enlite-and-Cake" stroke="none" stroke-width="1" fill="none" fill-rule="evenodd">
        <g id="Enlite_tooltip_4_refined-Copy-7" transform="translate(-1249.000000, -308.000000)"  fill-rule="nonzero">
            <g id="Group-16" transform="translate(995.000000, 87.000000)">
                <g id="Group-23" transform="translate(248.000000, 215.000000)">
                    <path d="M17.9675496,9.97120946 L17.6480795,9.65160334 C17.6047457,9.60840251 17.5542118,9.59973568 17.4987445,9.62560284 L16.7562031,9.97534288 L17.1648742,9.29559651 C17.1963413,9.24306217 17.1902079,9.19399456 17.1468741,9.15079374 L16.9490052,8.95278994 C16.9055381,8.90932244 16.8579376,8.90518903 16.8078037,8.94092305 L16.100596,9.44279933 L16.5843346,8.71691875 C16.618335,8.66571777 16.6136683,8.61731684 16.5703345,8.57411601 L16.4192662,8.42291312 C16.375799,8.37971229 16.3275318,8.37477886 16.2764646,8.40877951 L14.93285,9.29946325 L15.7921927,7.92397022 C15.8247264,7.87183588 15.8192596,7.82303495 15.7757925,7.77983412 L15.5793904,7.58329702 C15.5360566,7.54009619 15.4861894,7.53236271 15.4316554,7.56062992 L14.7689816,7.90636988 L15.1732526,7.30609171 C15.207653,7.2551574 15.2029863,7.2068898 15.1595191,7.16355564 L14.9831172,6.98715226 C14.9397834,6.94395143 14.8897829,6.93581794 14.8349823,6.96368514 L13.8675051,7.45569457 L14.3932442,6.52381004 C14.4235112,6.47020901 14.4167111,6.42087474 14.3733773,6.37740724 L14.0287069,6.03260062 C13.9853731,5.98913313 13.9411059,5.98913313 13.8975055,6.03260062 L10.658137,9.27226273 C10.2778662,9.65253669 10.2673327,10.0196104 10.3492003,10.4341517 C10.8997396,13.218205 8.82451706,13.7511486 7.87904013,14.2502248 C7.14663218,14.6366322 6.08662067,15.4691815 6.00395311,16.6589377 C5.94661915,17.4812201 6.5187587,18.0534977 7.34170096,17.99603 C8.5310472,17.9132284 9.3633229,16.8534747 9.74999377,16.121194 C10.2489325,15.1754426 10.782005,13.1004695 13.5660352,13.65088 C13.9804397,13.7328816 14.3476437,13.7222147 14.7279145,13.3420741 L17.9675496,10.1022786 C18.0108834,10.0588111 18.0107501,10.014677 17.9675496,9.97120946 Z M7.16183234,16.8380078 C6.93569655,16.6120034 6.93569655,16.2447964 7.16183234,16.0186587 C7.3878348,15.7925211 7.75503878,15.7925211 7.9813079,16.0186587 C8.20771036,16.2449297 8.20744369,16.6118701 7.9813079,16.8380078 C7.75503878,17.0641454 7.3882348,17.0645454 7.16183234,16.8380078 Z M14.284043,12.502058 C12.5859228,11.0336874 11.6572016,10.1048696 11.4978794,9.71560456 C11.3385572,9.32633953 11.7278059,8.93708762 12.6656254,8.54784884 L15.451789,11.3341689 L14.284043,12.502058 Z" id="Shape"></path>
                </g>
            </g>
        </g>
    </g>
</svg>