<?xml version="1.0"?>
<svg focusable="false" width="95.453" height="100" xmlns="http://www.w3.org/2000/svg">
 <title>234 ed s sd</title>
 <g>
  <title>Layer 1</title>
  <path d="m92.114998,56.539001c0.216003,-1.638 3.234001,-4.062 3.332001,-5.712002c0.175003,-3 -3.878998,-8.869999 -6.664001,-9.996998c-4.421997,-1.789001 -26.895996,-0.952003 -26.895996,-0.952003c-2.195999,-3.84 3.914001,-13.320999 5.594002,-17.414999c2.466995,-5.998999 2.050995,-13.959 -1.069,-18.047999c-3.810001,-4.996 -10.805004,-5.329 -10.949001,-3.093c-1.042,16.213999 -4.146,20.712 -8.302002,23.918c-2.495998,1.926001 -4.679001,3.611 -5.829998,6.546c-7.083,18.038002 -12.332001,22.214001 -15.332001,22.214001l-2,0l0,40.999001l20.994999,3.904999c0,0 26.064999,2.467003 34.271999,0c2.582001,-0.774002 7.039001,-4.652 8.092003,-7.140999c0.601997,-1.428001 -0.233002,-4.808998 0.477997,-6.188004c1.049004,-2.042999 5.479004,-4.601997 5.474998,-7.377998c-0.003998,-1.978996 -2.310997,-5.404999 -2.142998,-7.378998c0.167,-1.975998 4.288002,-4.684998 4.284004,-6.664001c-0.009003,-2.076 -3.610001,-5.555 -3.337006,-7.614998z" id="svg_1" fill="#61BA64"/>
  <path d="m20,93.999001c0,2.209 -1.791,4 -4,4l-12,0c-2.209,0 -4,-1.791 -4,-4l0,-37.999001c0,-2.209 1.791,-4 4,-4l12,0c2.209,0 4,1.791 4,4l0,37.999001z" id="svg_2" fill="#61BA64"/>
 </g>
</svg>