<svg width="17" height="9" viewBox="0 0 17 9" fill="none" xmlns="http://www.w3.org/2000/svg">
<path d="M16.8274 0.239007C16.6794 0.0674895 16.4678 -0.0182696 16.2352 0.00317015L12.2374 0.367646C11.9624 0.389085 11.7297 0.560603 11.6451 0.81788C11.5393 1.07516 11.6028 1.35387 11.7932 1.56827L12.6181 2.49018L9.41948 5.22935L6.9658 2.52795C6.75427 2.29211 6.50044 2.16347 6.20431 2.14203C5.86587 2.09915 5.50628 2.20635 5.2313 2.46363L0.381465 6.87514C-0.105041 7.32538 -0.126193 8.09721 0.318008 8.61176C0.444922 8.7404 0.592989 8.8476 0.741056 8.91192C0.804513 8.93336 0.889123 8.9548 0.973733 8.97624C1.03719 8.99768 1.10065 8.99768 1.1641 8.99768C1.48139 9.01912 1.79868 8.89048 2.03135 8.67608L5.99278 5.07927L8.44646 7.80212C8.89067 8.29524 9.67331 8.33812 10.1598 7.86644L14.2468 4.29112L15.0718 5.21303C15.2622 5.40599 15.5371 5.49174 15.791 5.42743C16.0448 5.34167 16.2352 5.12727 16.2775 4.86999L16.9755 0.86076C17.039 0.624923 16.9755 0.389086 16.8274 0.239007Z" fill="#9BA1B7"/>
</svg>
