<svg width="64" height="64" viewBox="0 0 64 64" fill="none" xmlns="http://www.w3.org/2000/svg">
<path d="M39.9531 0.613452C39.9531 0.951713 39.6789 1.22593 39.3407 1.22593C39.0024 1.22593 38.7282 0.951713 38.7282 0.613452C38.7282 0.275191 39.0024 0.000976562 39.3407 0.000976562C39.6789 0.000976562 39.9531 0.275191 39.9531 0.613452Z" fill="#777E8B"/>
<path d="M42.6016 0.612476C42.6016 0.950737 42.3274 1.22495 41.9891 1.22495C41.6509 1.22495 41.3767 0.950737 41.3767 0.612476C41.3767 0.274215 41.6509 0 41.9891 0C42.3274 0 42.6016 0.274215 42.6016 0.612476Z" fill="#777E8B"/>
<path d="M45.2501 0.612476C45.2501 0.950737 44.9759 1.22495 44.6377 1.22495C44.2994 1.22495 44.0252 0.950737 44.0252 0.612476C44.0252 0.274215 44.2994 0 44.6377 0C44.9759 0 45.2501 0.274215 45.2501 0.612476Z" fill="#777E8B"/>
<path d="M47.8986 0.612476C47.8986 0.950737 47.6244 1.22495 47.2862 1.22495C46.9479 1.22495 46.6737 0.950737 46.6737 0.612476C46.6737 0.274215 46.9479 0 47.2862 0C47.6244 0 47.8986 0.274215 47.8986 0.612476Z" fill="#777E8B"/>
<path d="M50.5471 0.612476C50.5471 0.950737 50.2729 1.22495 49.9347 1.22495C49.5964 1.22495 49.3222 0.950737 49.3222 0.612476C49.3222 0.274215 49.5964 0 49.9347 0C50.2729 0 50.5471 0.274215 50.5471 0.612476Z" fill="#777E8B"/>
<path d="M39.9531 3.25896C39.9531 3.59722 39.6789 3.87144 39.3406 3.87144C39.0024 3.87144 38.7282 3.59722 38.7282 3.25896C38.7282 2.9207 39.0024 2.64648 39.3406 2.64648C39.6789 2.64648 39.9531 2.9207 39.9531 3.25896Z" fill="#777E8B"/>
<path d="M42.6016 3.25896C42.6016 3.59722 42.3274 3.87144 41.9891 3.87144C41.6509 3.87144 41.3767 3.59722 41.3767 3.25896C41.3767 2.9207 41.6509 2.64648 41.9891 2.64648C42.3274 2.64648 42.6016 2.9207 42.6016 3.25896Z" fill="#777E8B"/>
<path d="M45.2501 3.25896C45.2501 3.59722 44.9759 3.87144 44.6377 3.87144C44.2994 3.87144 44.0252 3.59722 44.0252 3.25896C44.0252 2.9207 44.2994 2.64648 44.6377 2.64648C44.9759 2.64648 45.2501 2.9207 45.2501 3.25896Z" fill="#777E8B"/>
<path d="M47.8986 3.25896C47.8986 3.59722 47.6244 3.87144 47.2862 3.87144C46.9479 3.87144 46.6737 3.59722 46.6737 3.25896C46.6737 2.9207 46.9479 2.64648 47.2862 2.64648C47.6244 2.64648 47.8986 2.9207 47.8986 3.25896Z" fill="#777E8B"/>
<path d="M50.5471 3.25896C50.5471 3.59722 50.2729 3.87144 49.9347 3.87144C49.5964 3.87144 49.3222 3.59722 49.3222 3.25896C49.3222 2.9207 49.5964 2.64648 49.9347 2.64648C50.2729 2.64648 50.5471 2.9207 50.5471 3.25896Z" fill="#777E8B"/>
<path d="M39.9531 5.9074C39.9531 6.24566 39.6789 6.51987 39.3406 6.51987C39.0024 6.51987 38.7282 6.24566 38.7282 5.9074C38.7282 5.56914 39.0024 5.29492 39.3406 5.29492C39.6789 5.29492 39.9531 5.56914 39.9531 5.9074Z" fill="#777E8B"/>
<path d="M42.6016 5.9074C42.6016 6.24566 42.3274 6.51987 41.9891 6.51987C41.6509 6.51987 41.3767 6.24566 41.3767 5.9074C41.3767 5.56914 41.6509 5.29492 41.9891 5.29492C42.3274 5.29492 42.6016 5.56914 42.6016 5.9074Z" fill="#777E8B"/>
<path d="M45.2501 5.9074C45.2501 6.24566 44.9759 6.51987 44.6377 6.51987C44.2994 6.51987 44.0252 6.24566 44.0252 5.9074C44.0252 5.56914 44.2994 5.29492 44.6377 5.29492C44.9759 5.29492 45.2501 5.56914 45.2501 5.9074Z" fill="#777E8B"/>
<path d="M47.8986 5.9074C47.8986 6.24566 47.6244 6.51987 47.2862 6.51987C46.9479 6.51987 46.6737 6.24566 46.6737 5.9074C46.6737 5.56914 46.9479 5.29492 47.2862 5.29492C47.6244 5.29492 47.8986 5.56914 47.8986 5.9074Z" fill="#777E8B"/>
<path d="M50.5471 5.9074C50.5471 6.24566 50.2729 6.51987 49.9347 6.51987C49.5964 6.51987 49.3222 6.24566 49.3222 5.9074C49.3222 5.56914 49.5964 5.29492 49.9347 5.29492C50.2729 5.29492 50.5471 5.56914 50.5471 5.9074Z" fill="#777E8B"/>
<path d="M39.9531 8.55486C39.9531 8.89312 39.6789 9.16733 39.3406 9.16733C39.0024 9.16733 38.7282 8.89312 38.7282 8.55486C38.7282 8.2166 39.0024 7.94238 39.3406 7.94238C39.6789 7.94238 39.9531 8.2166 39.9531 8.55486Z" fill="#777E8B"/>
<path d="M42.6016 8.55486C42.6016 8.89312 42.3274 9.16733 41.9891 9.16733C41.6509 9.16733 41.3767 8.89312 41.3767 8.55486C41.3767 8.2166 41.6509 7.94238 41.9891 7.94238C42.3274 7.94238 42.6016 8.2166 42.6016 8.55486Z" fill="#777E8B"/>
<path d="M45.2501 8.55486C45.2501 8.89312 44.9759 9.16733 44.6377 9.16733C44.2994 9.16733 44.0252 8.89312 44.0252 8.55486C44.0252 8.2166 44.2994 7.94238 44.6377 7.94238C44.9759 7.94238 45.2501 8.2166 45.2501 8.55486Z" fill="#777E8B"/>
<path d="M47.8986 8.55486C47.8986 8.89312 47.6244 9.16733 47.2862 9.16733C46.9479 9.16733 46.6737 8.89312 46.6737 8.55486C46.6737 8.2166 46.9479 7.94238 47.2862 7.94238C47.6244 7.94238 47.8986 8.2166 47.8986 8.55486Z" fill="#777E8B"/>
<path d="M50.5471 8.55486C50.5471 8.89312 50.2729 9.16733 49.9347 9.16733C49.5964 9.16733 49.3222 8.89312 49.3222 8.55486C49.3222 8.2166 49.5964 7.94238 49.9347 7.94238C50.2729 7.94238 50.5471 8.2166 50.5471 8.55486Z" fill="#777E8B"/>
<path d="M39.9531 10.9816C39.9531 11.3199 39.6789 11.5941 39.3406 11.5941C39.0024 11.5941 38.7282 11.3199 38.7282 10.9816C38.7282 10.6434 39.0024 10.3691 39.3406 10.3691C39.6789 10.3691 39.9531 10.6434 39.9531 10.9816Z" fill="#777E8B"/>
<path d="M42.6016 10.9816C42.6016 11.3199 42.3274 11.5941 41.9891 11.5941C41.6509 11.5941 41.3767 11.3199 41.3767 10.9816C41.3767 10.6434 41.6509 10.3691 41.9891 10.3691C42.3274 10.3691 42.6016 10.6434 42.6016 10.9816Z" fill="#777E8B"/>
<path d="M45.2501 10.9816C45.2501 11.3199 44.9759 11.5941 44.6377 11.5941C44.2994 11.5941 44.0252 11.3199 44.0252 10.9816C44.0252 10.6434 44.2994 10.3691 44.6377 10.3691C44.9759 10.3691 45.2501 10.6434 45.2501 10.9816Z" fill="#777E8B"/>
<path d="M47.8986 10.9816C47.8986 11.3199 47.6244 11.5941 47.2862 11.5941C46.9479 11.5941 46.6737 11.3199 46.6737 10.9816C46.6737 10.6434 46.9479 10.3691 47.2862 10.3691C47.6244 10.3691 47.8986 10.6434 47.8986 10.9816Z" fill="#777E8B"/>
<path d="M50.5471 10.9816C50.5471 11.3199 50.2729 11.5941 49.9347 11.5941C49.5964 11.5941 49.3222 11.3199 49.3222 10.9816C49.3222 10.6434 49.5964 10.3691 49.9347 10.3691C50.2729 10.3691 50.5471 10.6434 50.5471 10.9816Z" fill="#777E8B"/>
<path d="M39.9531 13.8381C39.9531 14.1763 39.6789 14.4505 39.3407 14.4505C39.0024 14.4505 38.7282 14.1763 38.7282 13.8381C38.7282 13.4998 39.0024 13.2256 39.3407 13.2256C39.6789 13.2256 39.9531 13.4998 39.9531 13.8381Z" fill="#777E8B"/>
<path d="M42.6016 13.8381C42.6016 14.1763 42.3274 14.4505 41.9892 14.4505C41.6509 14.4505 41.3767 14.1763 41.3767 13.8381C41.3767 13.4998 41.6509 13.2256 41.9892 13.2256C42.3274 13.2256 42.6016 13.4998 42.6016 13.8381Z" fill="#777E8B"/>
<path d="M45.2501 13.8381C45.2501 14.1763 44.9759 14.4505 44.6377 14.4505C44.2994 14.4505 44.0252 14.1763 44.0252 13.8381C44.0252 13.4998 44.2994 13.2256 44.6377 13.2256C44.9759 13.2256 45.2501 13.4998 45.2501 13.8381Z" fill="#777E8B"/>
<path d="M47.8986 13.8381C47.8986 14.1763 47.6244 14.4505 47.2862 14.4505C46.9479 14.4505 46.6737 14.1763 46.6737 13.8381C46.6737 13.4998 46.9479 13.2256 47.2862 13.2256C47.6244 13.2256 47.8986 13.4998 47.8986 13.8381Z" fill="#777E8B"/>
<path d="M50.5471 13.8381C50.5471 14.1763 50.2729 14.4505 49.9347 14.4505C49.5964 14.4505 49.3222 14.1763 49.3222 13.8381C49.3222 13.4998 49.5964 13.2256 49.9347 13.2256C50.2729 13.2256 50.5471 13.4998 50.5471 13.8381Z" fill="#777E8B"/>
<path d="M39.9531 16.4845C39.9531 16.8228 39.6789 17.097 39.3406 17.097C39.0024 17.097 38.7282 16.8228 38.7282 16.4845C38.7282 16.1463 39.0024 15.8721 39.3406 15.8721C39.6789 15.8721 39.9531 16.1463 39.9531 16.4845Z" fill="#777E8B"/>
<path d="M42.6016 16.4845C42.6016 16.8228 42.3274 17.097 41.9892 17.097C41.6509 17.097 41.3767 16.8228 41.3767 16.4845C41.3767 16.1463 41.6509 15.8721 41.9892 15.8721C42.3274 15.8721 42.6016 16.1463 42.6016 16.4845Z" fill="#777E8B"/>
<path d="M45.2501 16.4845C45.2501 16.8228 44.9759 17.097 44.6377 17.097C44.2994 17.097 44.0252 16.8228 44.0252 16.4845C44.0252 16.1463 44.2994 15.8721 44.6377 15.8721C44.9759 15.8721 45.2501 16.1463 45.2501 16.4845Z" fill="#777E8B"/>
<path d="M47.8986 16.4845C47.8986 16.8228 47.6244 17.097 47.2862 17.097C46.9479 17.097 46.6737 16.8228 46.6737 16.4845C46.6737 16.1463 46.9479 15.8721 47.2862 15.8721C47.6244 15.8721 47.8986 16.1463 47.8986 16.4845Z" fill="#777E8B"/>
<path d="M50.5471 16.4845C50.5471 16.8228 50.2729 17.097 49.9347 17.097C49.5964 17.097 49.3222 16.8228 49.3222 16.4845C49.3222 16.1463 49.5964 15.8721 49.9347 15.8721C50.2729 15.8721 50.5471 16.1463 50.5471 16.4845Z" fill="#777E8B"/>
<path d="M39.9531 19.133C39.9531 19.4712 39.6789 19.7455 39.3406 19.7455C39.0024 19.7455 38.7282 19.4712 38.7282 19.133C38.7282 18.7947 39.0024 18.5205 39.3406 18.5205C39.6789 18.5205 39.9531 18.7947 39.9531 19.133Z" fill="#777E8B"/>
<path d="M42.6016 19.133C42.6016 19.4712 42.3274 19.7455 41.9892 19.7455C41.6509 19.7455 41.3767 19.4712 41.3767 19.133C41.3767 18.7947 41.6509 18.5205 41.9892 18.5205C42.3274 18.5205 42.6016 18.7947 42.6016 19.133Z" fill="#777E8B"/>
<path d="M45.2501 19.133C45.2501 19.4712 44.9759 19.7455 44.6377 19.7455C44.2994 19.7455 44.0252 19.4712 44.0252 19.133C44.0252 18.7947 44.2994 18.5205 44.6377 18.5205C44.9759 18.5205 45.2501 18.7947 45.2501 19.133Z" fill="#777E8B"/>
<path d="M47.8986 19.133C47.8986 19.4712 47.6244 19.7455 47.2862 19.7455C46.9479 19.7455 46.6737 19.4712 46.6737 19.133C46.6737 18.7947 46.9479 18.5205 47.2862 18.5205C47.6244 18.5205 47.8986 18.7947 47.8986 19.133Z" fill="#777E8B"/>
<path d="M50.5471 19.133C50.5471 19.4712 50.2729 19.7455 49.9347 19.7455C49.5964 19.7455 49.3222 19.4712 49.3222 19.133C49.3222 18.7947 49.5964 18.5205 49.9347 18.5205C50.2729 18.5205 50.5471 18.7947 50.5471 19.133Z" fill="#777E8B"/>
<path d="M39.9531 21.7804C39.9531 22.1187 39.6789 22.3929 39.3406 22.3929C39.0024 22.3929 38.7282 22.1187 38.7282 21.7804C38.7282 21.4422 39.0024 21.168 39.3406 21.168C39.6789 21.168 39.9531 21.4422 39.9531 21.7804Z" fill="#777E8B"/>
<path d="M42.6016 21.7804C42.6016 22.1187 42.3274 22.3929 41.9892 22.3929C41.6509 22.3929 41.3767 22.1187 41.3767 21.7804C41.3767 21.4422 41.6509 21.168 41.9892 21.168C42.3274 21.168 42.6016 21.4422 42.6016 21.7804Z" fill="#777E8B"/>
<path d="M45.2501 21.7804C45.2501 22.1187 44.9759 22.3929 44.6377 22.3929C44.2994 22.3929 44.0252 22.1187 44.0252 21.7804C44.0252 21.4422 44.2994 21.168 44.6377 21.168C44.9759 21.168 45.2501 21.4422 45.2501 21.7804Z" fill="#777E8B"/>
<path d="M47.8986 21.7804C47.8986 22.1187 47.6244 22.3929 47.2862 22.3929C46.9479 22.3929 46.6737 22.1187 46.6737 21.7804C46.6737 21.4422 46.9479 21.168 47.2862 21.168C47.6244 21.168 47.8986 21.4422 47.8986 21.7804Z" fill="#777E8B"/>
<path d="M50.5471 21.7804C50.5471 22.1187 50.2729 22.3929 49.9347 22.3929C49.5964 22.3929 49.3222 22.1187 49.3222 21.7804C49.3222 21.4422 49.5964 21.168 49.9347 21.168C50.2729 21.168 50.5471 21.4422 50.5471 21.7804Z" fill="#777E8B"/>
<path d="M39.9531 24.2072C39.9531 24.5455 39.6789 24.8197 39.3406 24.8197C39.0024 24.8197 38.7282 24.5455 38.7282 24.2072C38.7282 23.8689 39.0024 23.5947 39.3406 23.5947C39.6789 23.5947 39.9531 23.8689 39.9531 24.2072Z" fill="#777E8B"/>
<path d="M42.6016 24.2072C42.6016 24.5455 42.3274 24.8197 41.9892 24.8197C41.6509 24.8197 41.3767 24.5455 41.3767 24.2072C41.3767 23.8689 41.6509 23.5947 41.9892 23.5947C42.3274 23.5947 42.6016 23.8689 42.6016 24.2072Z" fill="#777E8B"/>
<path d="M45.2501 24.2072C45.2501 24.5455 44.9759 24.8197 44.6377 24.8197C44.2994 24.8197 44.0252 24.5455 44.0252 24.2072C44.0252 23.8689 44.2994 23.5947 44.6377 23.5947C44.9759 23.5947 45.2501 23.8689 45.2501 24.2072Z" fill="#777E8B"/>
<path d="M47.8986 24.2072C47.8986 24.5455 47.6244 24.8197 47.2862 24.8197C46.9479 24.8197 46.6737 24.5455 46.6737 24.2072C46.6737 23.8689 46.9479 23.5947 47.2862 23.5947C47.6244 23.5947 47.8986 23.8689 47.8986 24.2072Z" fill="#777E8B"/>
<path d="M50.5471 24.2072C50.5471 24.5455 50.2729 24.8197 49.9347 24.8197C49.5964 24.8197 49.3222 24.5455 49.3222 24.2072C49.3222 23.8689 49.5964 23.5947 49.9347 23.5947C50.2729 23.5947 50.5471 23.8689 50.5471 24.2072Z" fill="#777E8B"/>
<path d="M53.4053 0.612476C53.4053 0.950737 53.1311 1.22495 52.7929 1.22495C52.4546 1.22495 52.1804 0.950737 52.1804 0.612476C52.1804 0.274215 52.4546 0 52.7929 0C53.1311 0 53.4053 0.274215 53.4053 0.612476Z" fill="#777E8B"/>
<path d="M56.0539 0.612476C56.0539 0.950737 55.7796 1.22495 55.4414 1.22495C55.1031 1.22495 54.8289 0.950737 54.8289 0.612476C54.8289 0.274215 55.1031 0 55.4414 0C55.7796 0 56.0539 0.274215 56.0539 0.612476Z" fill="#777E8B"/>
<path d="M58.7024 0.612476C58.7024 0.950737 58.4282 1.22495 58.0899 1.22495C57.7516 1.22495 57.4774 0.950737 57.4774 0.612476C57.4774 0.274215 57.7516 0 58.0899 0C58.4282 0 58.7024 0.274215 58.7024 0.612476Z" fill="#777E8B"/>
<path d="M61.3509 0.612476C61.3509 0.950737 61.0767 1.22495 60.7384 1.22495C60.4001 1.22495 60.1259 0.950737 60.1259 0.612476C60.1259 0.274215 60.4001 0 60.7384 0C61.0767 0 61.3509 0.274215 61.3509 0.612476Z" fill="#777E8B"/>
<path d="M63.9994 0.612476C63.9994 0.950737 63.7252 1.22495 63.3869 1.22495C63.0486 1.22495 62.7744 0.950737 62.7744 0.612476C62.7744 0.274215 63.0486 0 63.3869 0C63.7252 0 63.9994 0.274215 63.9994 0.612476Z" fill="#777E8B"/>
<path d="M53.4054 3.25896C53.4054 3.59722 53.1312 3.87144 52.7929 3.87144C52.4546 3.87144 52.1804 3.59722 52.1804 3.25896C52.1804 2.9207 52.4546 2.64648 52.7929 2.64648C53.1312 2.64648 53.4054 2.9207 53.4054 3.25896Z" fill="#777E8B"/>
<path d="M56.0539 3.25896C56.0539 3.59722 55.7796 3.87144 55.4414 3.87144C55.1031 3.87144 54.8289 3.59722 54.8289 3.25896C54.8289 2.9207 55.1031 2.64648 55.4414 2.64648C55.7796 2.64648 56.0539 2.9207 56.0539 3.25896Z" fill="#777E8B"/>
<path d="M58.7024 3.25896C58.7024 3.59722 58.4282 3.87144 58.0899 3.87144C57.7517 3.87144 57.4774 3.59722 57.4774 3.25896C57.4774 2.9207 57.7517 2.64648 58.0899 2.64648C58.4282 2.64648 58.7024 2.9207 58.7024 3.25896Z" fill="#777E8B"/>
<path d="M61.3509 3.25896C61.3509 3.59722 61.0767 3.87144 60.7384 3.87144C60.4001 3.87144 60.1259 3.59722 60.1259 3.25896C60.1259 2.9207 60.4001 2.64648 60.7384 2.64648C61.0767 2.64648 61.3509 2.9207 61.3509 3.25896Z" fill="#777E8B"/>
<path d="M63.9994 3.25896C63.9994 3.59722 63.7252 3.87144 63.3869 3.87144C63.0486 3.87144 62.7744 3.59722 62.7744 3.25896C62.7744 2.9207 63.0486 2.64648 63.3869 2.64648C63.7252 2.64648 63.9994 2.9207 63.9994 3.25896Z" fill="#777E8B"/>
<path d="M53.4054 5.9074C53.4054 6.24566 53.1312 6.51987 52.7929 6.51987C52.4546 6.51987 52.1804 6.24566 52.1804 5.9074C52.1804 5.56914 52.4546 5.29492 52.7929 5.29492C53.1312 5.29492 53.4054 5.56914 53.4054 5.9074Z" fill="#777E8B"/>
<path d="M56.0539 5.9074C56.0539 6.24566 55.7796 6.51987 55.4414 6.51987C55.1031 6.51987 54.8289 6.24566 54.8289 5.9074C54.8289 5.56914 55.1031 5.29492 55.4414 5.29492C55.7796 5.29492 56.0539 5.56914 56.0539 5.9074Z" fill="#777E8B"/>
<path d="M58.7024 5.9074C58.7024 6.24566 58.4282 6.51987 58.0899 6.51987C57.7517 6.51987 57.4774 6.24566 57.4774 5.9074C57.4774 5.56914 57.7517 5.29492 58.0899 5.29492C58.4282 5.29492 58.7024 5.56914 58.7024 5.9074Z" fill="#777E8B"/>
<path d="M61.3509 5.9074C61.3509 6.24566 61.0767 6.51987 60.7384 6.51987C60.4001 6.51987 60.1259 6.24566 60.1259 5.9074C60.1259 5.56914 60.4001 5.29492 60.7384 5.29492C61.0767 5.29492 61.3509 5.56914 61.3509 5.9074Z" fill="#777E8B"/>
<path d="M63.9994 5.9074C63.9994 6.24566 63.7252 6.51987 63.3869 6.51987C63.0486 6.51987 62.7744 6.24566 62.7744 5.9074C62.7744 5.56914 63.0486 5.29492 63.3869 5.29492C63.7252 5.29492 63.9994 5.56914 63.9994 5.9074Z" fill="#777E8B"/>
<path d="M53.4054 8.55486C53.4054 8.89312 53.1312 9.16733 52.7929 9.16733C52.4546 9.16733 52.1804 8.89312 52.1804 8.55486C52.1804 8.2166 52.4546 7.94238 52.7929 7.94238C53.1312 7.94238 53.4054 8.2166 53.4054 8.55486Z" fill="#777E8B"/>
<path d="M56.0539 8.55486C56.0539 8.89312 55.7796 9.16733 55.4414 9.16733C55.1031 9.16733 54.8289 8.89312 54.8289 8.55486C54.8289 8.2166 55.1031 7.94238 55.4414 7.94238C55.7796 7.94238 56.0539 8.2166 56.0539 8.55486Z" fill="#777E8B"/>
<path d="M58.7024 8.55486C58.7024 8.89312 58.4282 9.16733 58.0899 9.16733C57.7517 9.16733 57.4774 8.89312 57.4774 8.55486C57.4774 8.2166 57.7517 7.94238 58.0899 7.94238C58.4282 7.94238 58.7024 8.2166 58.7024 8.55486Z" fill="#777E8B"/>
<path d="M61.3509 8.55486C61.3509 8.89312 61.0767 9.16733 60.7384 9.16733C60.4001 9.16733 60.1259 8.89312 60.1259 8.55486C60.1259 8.2166 60.4001 7.94238 60.7384 7.94238C61.0767 7.94238 61.3509 8.2166 61.3509 8.55486Z" fill="#777E8B"/>
<path d="M63.9994 8.55486C63.9994 8.89312 63.7252 9.16733 63.3869 9.16733C63.0486 9.16733 62.7744 8.89312 62.7744 8.55486C62.7744 8.2166 63.0486 7.94238 63.3869 7.94238C63.7252 7.94238 63.9994 8.2166 63.9994 8.55486Z" fill="#777E8B"/>
<path d="M53.4054 10.9816C53.4054 11.3199 53.1312 11.5941 52.7929 11.5941C52.4546 11.5941 52.1804 11.3199 52.1804 10.9816C52.1804 10.6434 52.4546 10.3691 52.7929 10.3691C53.1312 10.3691 53.4054 10.6434 53.4054 10.9816Z" fill="#777E8B"/>
<path d="M56.0539 10.9816C56.0539 11.3199 55.7796 11.5941 55.4414 11.5941C55.1031 11.5941 54.8289 11.3199 54.8289 10.9816C54.8289 10.6434 55.1031 10.3691 55.4414 10.3691C55.7796 10.3691 56.0539 10.6434 56.0539 10.9816Z" fill="#777E8B"/>
<path d="M58.7024 10.9816C58.7024 11.3199 58.4282 11.5941 58.0899 11.5941C57.7517 11.5941 57.4774 11.3199 57.4774 10.9816C57.4774 10.6434 57.7517 10.3691 58.0899 10.3691C58.4282 10.3691 58.7024 10.6434 58.7024 10.9816Z" fill="#777E8B"/>
<path d="M61.3509 10.9816C61.3509 11.3199 61.0767 11.5941 60.7384 11.5941C60.4001 11.5941 60.1259 11.3199 60.1259 10.9816C60.1259 10.6434 60.4001 10.3691 60.7384 10.3691C61.0767 10.3691 61.3509 10.6434 61.3509 10.9816Z" fill="#777E8B"/>
<path d="M63.9994 10.9816C63.9994 11.3199 63.7252 11.5941 63.3869 11.5941C63.0486 11.5941 62.7744 11.3199 62.7744 10.9816C62.7744 10.6434 63.0486 10.3691 63.3869 10.3691C63.7252 10.3691 63.9994 10.6434 63.9994 10.9816Z" fill="#777E8B"/>
<path d="M53.4053 13.8381C53.4053 14.1763 53.1311 14.4505 52.7929 14.4505C52.4546 14.4505 52.1804 14.1763 52.1804 13.8381C52.1804 13.4998 52.4546 13.2256 52.7929 13.2256C53.1311 13.2256 53.4053 13.4998 53.4053 13.8381Z" fill="#777E8B"/>
<path d="M56.0539 13.8381C56.0539 14.1763 55.7796 14.4505 55.4414 14.4505C55.1031 14.4505 54.8289 14.1763 54.8289 13.8381C54.8289 13.4998 55.1031 13.2256 55.4414 13.2256C55.7796 13.2256 56.0539 13.4998 56.0539 13.8381Z" fill="#777E8B"/>
<path d="M58.7024 13.8381C58.7024 14.1763 58.4282 14.4505 58.0899 14.4505C57.7516 14.4505 57.4774 14.1763 57.4774 13.8381C57.4774 13.4998 57.7516 13.2256 58.0899 13.2256C58.4282 13.2256 58.7024 13.4998 58.7024 13.8381Z" fill="#777E8B"/>
<path d="M61.3509 13.8381C61.3509 14.1763 61.0767 14.4505 60.7384 14.4505C60.4001 14.4505 60.1259 14.1763 60.1259 13.8381C60.1259 13.4998 60.4001 13.2256 60.7384 13.2256C61.0767 13.2256 61.3509 13.4998 61.3509 13.8381Z" fill="#777E8B"/>
<path d="M63.9994 13.8381C63.9994 14.1763 63.7252 14.4505 63.3869 14.4505C63.0486 14.4505 62.7744 14.1763 62.7744 13.8381C62.7744 13.4998 63.0486 13.2256 63.3869 13.2256C63.7252 13.2256 63.9994 13.4998 63.9994 13.8381Z" fill="#777E8B"/>
<path d="M53.4054 16.4845C53.4054 16.8228 53.1312 17.097 52.7929 17.097C52.4546 17.097 52.1804 16.8228 52.1804 16.4845C52.1804 16.1463 52.4546 15.8721 52.7929 15.8721C53.1312 15.8721 53.4054 16.1463 53.4054 16.4845Z" fill="#777E8B"/>
<path d="M56.0539 16.4845C56.0539 16.8228 55.7796 17.097 55.4414 17.097C55.1031 17.097 54.8289 16.8228 54.8289 16.4845C54.8289 16.1463 55.1031 15.8721 55.4414 15.8721C55.7796 15.8721 56.0539 16.1463 56.0539 16.4845Z" fill="#777E8B"/>
<path d="M58.7024 16.4845C58.7024 16.8228 58.4282 17.097 58.0899 17.097C57.7517 17.097 57.4774 16.8228 57.4774 16.4845C57.4774 16.1463 57.7517 15.8721 58.0899 15.8721C58.4282 15.8721 58.7024 16.1463 58.7024 16.4845Z" fill="#777E8B"/>
<path d="M61.3509 16.4845C61.3509 16.8228 61.0767 17.097 60.7384 17.097C60.4001 17.097 60.1259 16.8228 60.1259 16.4845C60.1259 16.1463 60.4001 15.8721 60.7384 15.8721C61.0767 15.8721 61.3509 16.1463 61.3509 16.4845Z" fill="#777E8B"/>
<path d="M63.9994 16.4845C63.9994 16.8228 63.7252 17.097 63.3869 17.097C63.0486 17.097 62.7744 16.8228 62.7744 16.4845C62.7744 16.1463 63.0486 15.8721 63.3869 15.8721C63.7252 15.8721 63.9994 16.1463 63.9994 16.4845Z" fill="#777E8B"/>
<path d="M53.4054 19.133C53.4054 19.4712 53.1312 19.7455 52.7929 19.7455C52.4546 19.7455 52.1804 19.4712 52.1804 19.133C52.1804 18.7947 52.4546 18.5205 52.7929 18.5205C53.1312 18.5205 53.4054 18.7947 53.4054 19.133Z" fill="#777E8B"/>
<path d="M56.0539 19.133C56.0539 19.4712 55.7796 19.7455 55.4414 19.7455C55.1031 19.7455 54.8289 19.4712 54.8289 19.133C54.8289 18.7947 55.1031 18.5205 55.4414 18.5205C55.7796 18.5205 56.0539 18.7947 56.0539 19.133Z" fill="#777E8B"/>
<path d="M58.7024 19.133C58.7024 19.4712 58.4282 19.7455 58.0899 19.7455C57.7517 19.7455 57.4774 19.4712 57.4774 19.133C57.4774 18.7947 57.7517 18.5205 58.0899 18.5205C58.4282 18.5205 58.7024 18.7947 58.7024 19.133Z" fill="#777E8B"/>
<path d="M61.3509 19.133C61.3509 19.4712 61.0767 19.7455 60.7384 19.7455C60.4001 19.7455 60.1259 19.4712 60.1259 19.133C60.1259 18.7947 60.4001 18.5205 60.7384 18.5205C61.0767 18.5205 61.3509 18.7947 61.3509 19.133Z" fill="#777E8B"/>
<path d="M63.9994 19.133C63.9994 19.4712 63.7252 19.7455 63.3869 19.7455C63.0486 19.7455 62.7744 19.4712 62.7744 19.133C62.7744 18.7947 63.0486 18.5205 63.3869 18.5205C63.7252 18.5205 63.9994 18.7947 63.9994 19.133Z" fill="#777E8B"/>
<path d="M53.4054 21.7804C53.4054 22.1187 53.1312 22.3929 52.7929 22.3929C52.4546 22.3929 52.1804 22.1187 52.1804 21.7804C52.1804 21.4422 52.4546 21.168 52.7929 21.168C53.1312 21.168 53.4054 21.4422 53.4054 21.7804Z" fill="#777E8B"/>
<path d="M56.0539 21.7804C56.0539 22.1187 55.7796 22.3929 55.4414 22.3929C55.1031 22.3929 54.8289 22.1187 54.8289 21.7804C54.8289 21.4422 55.1031 21.168 55.4414 21.168C55.7796 21.168 56.0539 21.4422 56.0539 21.7804Z" fill="#777E8B"/>
<path d="M58.7024 21.7804C58.7024 22.1187 58.4282 22.3929 58.0899 22.3929C57.7517 22.3929 57.4774 22.1187 57.4774 21.7804C57.4774 21.4422 57.7517 21.168 58.0899 21.168C58.4282 21.168 58.7024 21.4422 58.7024 21.7804Z" fill="#777E8B"/>
<path d="M61.3509 21.7804C61.3509 22.1187 61.0767 22.3929 60.7384 22.3929C60.4001 22.3929 60.1259 22.1187 60.1259 21.7804C60.1259 21.4422 60.4001 21.168 60.7384 21.168C61.0767 21.168 61.3509 21.4422 61.3509 21.7804Z" fill="#777E8B"/>
<path d="M63.9994 21.7804C63.9994 22.1187 63.7252 22.3929 63.3869 22.3929C63.0486 22.3929 62.7744 22.1187 62.7744 21.7804C62.7744 21.4422 63.0486 21.168 63.3869 21.168C63.7252 21.168 63.9994 21.4422 63.9994 21.7804Z" fill="#777E8B"/>
<path d="M53.4054 24.2072C53.4054 24.5455 53.1312 24.8197 52.7929 24.8197C52.4546 24.8197 52.1804 24.5455 52.1804 24.2072C52.1804 23.8689 52.4546 23.5947 52.7929 23.5947C53.1312 23.5947 53.4054 23.8689 53.4054 24.2072Z" fill="#777E8B"/>
<path d="M56.0539 24.2072C56.0539 24.5455 55.7796 24.8197 55.4414 24.8197C55.1031 24.8197 54.8289 24.5455 54.8289 24.2072C54.8289 23.8689 55.1031 23.5947 55.4414 23.5947C55.7796 23.5947 56.0539 23.8689 56.0539 24.2072Z" fill="#777E8B"/>
<path d="M58.7024 24.2072C58.7024 24.5455 58.4282 24.8197 58.0899 24.8197C57.7517 24.8197 57.4774 24.5455 57.4774 24.2072C57.4774 23.8689 57.7517 23.5947 58.0899 23.5947C58.4282 23.5947 58.7024 23.8689 58.7024 24.2072Z" fill="#777E8B"/>
<path d="M61.3509 24.2072C61.3509 24.5455 61.0767 24.8197 60.7384 24.8197C60.4001 24.8197 60.1259 24.5455 60.1259 24.2072C60.1259 23.8689 60.4001 23.5947 60.7384 23.5947C61.0767 23.5947 61.3509 23.8689 61.3509 24.2072Z" fill="#777E8B"/>
<path d="M63.9994 24.2072C63.9994 24.5455 63.7252 24.8197 63.3869 24.8197C63.0486 24.8197 62.7744 24.5455 62.7744 24.2072C62.7744 23.8689 63.0486 23.5947 63.3869 23.5947C63.7252 23.5947 63.9994 23.8689 63.9994 24.2072Z" fill="#777E8B"/>
<ellipse cx="31.9997" cy="31.985" rx="22.3998" ry="22.3893" fill="white"/>
<path fill-rule="evenodd" clip-rule="evenodd" d="M33.621 9.65234V10.7051V15.2679H46.9018C43.3198 12.0753 38.7051 10.0158 33.621 9.65234ZM49.1362 17.5645H33.621V19.0651V22.6172H52.351C51.506 20.7861 50.421 19.0884 49.1362 17.5645ZM53.2597 24.9138H33.621V30.2113H44.7726V30.2115H54.3303C54.1864 28.3744 53.8206 26.5996 53.2597 24.9138Z" fill="#C0C6CF"/>
<path d="M9.72466 31.8052C9.72466 44.1172 19.7102 54.0981 32.0279 54.0981C43.7832 54.0981 53.4144 45.0078 54.2694 33.4764L54.3311 33.3973H54.2751H30.4348V9.56836C18.8606 10.3848 9.72466 20.0286 9.72466 31.8052Z" fill="#C0C6CF"/>
<path d="M1.22497 39.7951C1.22497 40.1334 0.950752 40.4076 0.612491 40.4076C0.27423 40.4076 1.52588e-05 40.1334 1.52588e-05 39.7951C1.52588e-05 39.4568 0.27423 39.1826 0.612491 39.1826C0.950752 39.1826 1.22497 39.4568 1.22497 39.7951Z" fill="#777E8B"/>
<path d="M3.87345 39.7941C3.87345 40.1324 3.59924 40.4066 3.26097 40.4066C2.92271 40.4066 2.6485 40.1324 2.6485 39.7941C2.6485 39.4559 2.92271 39.1816 3.26097 39.1816C3.59924 39.1816 3.87345 39.4559 3.87345 39.7941Z" fill="#777E8B"/>
<path d="M6.52196 39.7941C6.52196 40.1324 6.24775 40.4066 5.90949 40.4066C5.57123 40.4066 5.29701 40.1324 5.29701 39.7941C5.29701 39.4559 5.57123 39.1816 5.90949 39.1816C6.24775 39.1816 6.52196 39.4559 6.52196 39.7941Z" fill="#777E8B"/>
<path d="M9.17048 39.7941C9.17048 40.1324 8.89626 40.4066 8.558 40.4066C8.21974 40.4066 7.94553 40.1324 7.94553 39.7941C7.94553 39.4559 8.21974 39.1816 8.558 39.1816C8.89626 39.1816 9.17048 39.4559 9.17048 39.7941Z" fill="#777E8B"/>
<path d="M11.819 39.7941C11.819 40.1324 11.5448 40.4066 11.2065 40.4066C10.8682 40.4066 10.594 40.1324 10.594 39.7941C10.594 39.4559 10.8682 39.1816 11.2065 39.1816C11.5448 39.1816 11.819 39.4559 11.819 39.7941Z" fill="#777E8B"/>
<path d="M1.22495 42.4406C1.22495 42.7789 0.950737 43.0531 0.612476 43.0531C0.274215 43.0531 0 42.7789 0 42.4406C0 42.1023 0.274215 41.8281 0.612476 41.8281C0.950737 41.8281 1.22495 42.1023 1.22495 42.4406Z" fill="#777E8B"/>
<path d="M3.87347 42.4406C3.87347 42.7789 3.59925 43.0531 3.26099 43.0531C2.92273 43.0531 2.64851 42.7789 2.64851 42.4406C2.64851 42.1023 2.92273 41.8281 3.26099 41.8281C3.59925 41.8281 3.87347 42.1023 3.87347 42.4406Z" fill="#777E8B"/>
<path d="M6.52196 42.4406C6.52196 42.7789 6.24775 43.0531 5.90949 43.0531C5.57123 43.0531 5.29701 42.7789 5.29701 42.4406C5.29701 42.1023 5.57123 41.8281 5.90949 41.8281C6.24775 41.8281 6.52196 42.1023 6.52196 42.4406Z" fill="#777E8B"/>
<path d="M9.17048 42.4406C9.17048 42.7789 8.89626 43.0531 8.558 43.0531C8.21974 43.0531 7.94553 42.7789 7.94553 42.4406C7.94553 42.1023 8.21974 41.8281 8.558 41.8281C8.89626 41.8281 9.17048 42.1023 9.17048 42.4406Z" fill="#777E8B"/>
<path d="M11.819 42.4406C11.819 42.7789 11.5448 43.0531 11.2065 43.0531C10.8682 43.0531 10.594 42.7789 10.594 42.4406C10.594 42.1023 10.8682 41.8281 11.2065 41.8281C11.5448 41.8281 11.819 42.1023 11.819 42.4406Z" fill="#777E8B"/>
<path d="M1.22495 45.089C1.22495 45.4273 0.950737 45.7015 0.612476 45.7015C0.274215 45.7015 0 45.4273 0 45.089C0 44.7508 0.274215 44.4766 0.612476 44.4766C0.950737 44.4766 1.22495 44.7508 1.22495 45.089Z" fill="#777E8B"/>
<path d="M3.87347 45.089C3.87347 45.4273 3.59925 45.7015 3.26099 45.7015C2.92273 45.7015 2.64851 45.4273 2.64851 45.089C2.64851 44.7508 2.92273 44.4766 3.26099 44.4766C3.59925 44.4766 3.87347 44.7508 3.87347 45.089Z" fill="#777E8B"/>
<path d="M6.52196 45.089C6.52196 45.4273 6.24775 45.7015 5.90949 45.7015C5.57123 45.7015 5.29701 45.4273 5.29701 45.089C5.29701 44.7508 5.57123 44.4766 5.90949 44.4766C6.24775 44.4766 6.52196 44.7508 6.52196 45.089Z" fill="#777E8B"/>
<path d="M9.17048 45.089C9.17048 45.4273 8.89626 45.7015 8.558 45.7015C8.21974 45.7015 7.94553 45.4273 7.94553 45.089C7.94553 44.7508 8.21974 44.4766 8.558 44.4766C8.89626 44.4766 9.17048 44.7508 9.17048 45.089Z" fill="#777E8B"/>
<path d="M11.819 45.089C11.819 45.4273 11.5448 45.7015 11.2065 45.7015C10.8682 45.7015 10.594 45.4273 10.594 45.089C10.594 44.7508 10.8682 44.4766 11.2065 44.4766C11.5448 44.4766 11.819 44.7508 11.819 45.089Z" fill="#777E8B"/>
<path d="M1.22495 47.7365C1.22495 48.0748 0.950737 48.349 0.612476 48.349C0.274215 48.349 0 48.0748 0 47.7365C0 47.3982 0.274215 47.124 0.612476 47.124C0.950737 47.124 1.22495 47.3982 1.22495 47.7365Z" fill="#777E8B"/>
<path d="M3.87347 47.7365C3.87347 48.0748 3.59925 48.349 3.26099 48.349C2.92273 48.349 2.64851 48.0748 2.64851 47.7365C2.64851 47.3982 2.92273 47.124 3.26099 47.124C3.59925 47.124 3.87347 47.3982 3.87347 47.7365Z" fill="#777E8B"/>
<path d="M6.52196 47.7365C6.52196 48.0748 6.24775 48.349 5.90949 48.349C5.57123 48.349 5.29701 48.0748 5.29701 47.7365C5.29701 47.3982 5.57123 47.124 5.90949 47.124C6.24775 47.124 6.52196 47.3982 6.52196 47.7365Z" fill="#777E8B"/>
<path d="M9.17048 47.7365C9.17048 48.0748 8.89626 48.349 8.558 48.349C8.21974 48.349 7.94553 48.0748 7.94553 47.7365C7.94553 47.3982 8.21974 47.124 8.558 47.124C8.89626 47.124 9.17048 47.3982 9.17048 47.7365Z" fill="#777E8B"/>
<path d="M11.819 47.7365C11.819 48.0748 11.5448 48.349 11.2065 48.349C10.8682 48.349 10.594 48.0748 10.594 47.7365C10.594 47.3982 10.8682 47.124 11.2065 47.124C11.5448 47.124 11.819 47.3982 11.819 47.7365Z" fill="#777E8B"/>
<path d="M1.22495 50.1633C1.22495 50.5015 0.950737 50.7757 0.612476 50.7757C0.274215 50.7757 0 50.5015 0 50.1633C0 49.825 0.274215 49.5508 0.612476 49.5508C0.950737 49.5508 1.22495 49.825 1.22495 50.1633Z" fill="#777E8B"/>
<path d="M3.87347 50.1633C3.87347 50.5015 3.59925 50.7757 3.26099 50.7757C2.92273 50.7757 2.64851 50.5015 2.64851 50.1633C2.64851 49.825 2.92273 49.5508 3.26099 49.5508C3.59925 49.5508 3.87347 49.825 3.87347 50.1633Z" fill="#777E8B"/>
<path d="M6.52196 50.1633C6.52196 50.5015 6.24775 50.7757 5.90949 50.7757C5.57123 50.7757 5.29701 50.5015 5.29701 50.1633C5.29701 49.825 5.57123 49.5508 5.90949 49.5508C6.24775 49.5508 6.52196 49.825 6.52196 50.1633Z" fill="#777E8B"/>
<path d="M9.17048 50.1633C9.17048 50.5015 8.89626 50.7757 8.558 50.7757C8.21974 50.7757 7.94553 50.5015 7.94553 50.1633C7.94553 49.825 8.21974 49.5508 8.558 49.5508C8.89626 49.5508 9.17048 49.825 9.17048 50.1633Z" fill="#777E8B"/>
<path d="M11.819 50.1633C11.819 50.5015 11.5448 50.7757 11.2065 50.7757C10.8682 50.7757 10.594 50.5015 10.594 50.1633C10.594 49.825 10.8682 49.5508 11.2065 49.5508C11.5448 49.5508 11.819 49.825 11.819 50.1633Z" fill="#777E8B"/>
<path d="M1.22497 53.0197C1.22497 53.358 0.950752 53.6322 0.612491 53.6322C0.27423 53.6322 1.52588e-05 53.358 1.52588e-05 53.0197C1.52588e-05 52.6814 0.27423 52.4072 0.612491 52.4072C0.950752 52.4072 1.22497 52.6814 1.22497 53.0197Z" fill="#777E8B"/>
<path d="M3.87345 53.0197C3.87345 53.358 3.59924 53.6322 3.26097 53.6322C2.92271 53.6322 2.6485 53.358 2.6485 53.0197C2.6485 52.6814 2.92271 52.4072 3.26097 52.4072C3.59924 52.4072 3.87345 52.6814 3.87345 53.0197Z" fill="#777E8B"/>
<path d="M6.52195 53.0197C6.52195 53.358 6.24773 53.6322 5.90947 53.6322C5.57121 53.6322 5.297 53.358 5.297 53.0197C5.297 52.6814 5.57121 52.4072 5.90947 52.4072C6.24773 52.4072 6.52195 52.6814 6.52195 53.0197Z" fill="#777E8B"/>
<path d="M9.17046 53.0197C9.17046 53.358 8.89625 53.6322 8.55799 53.6322C8.21973 53.6322 7.94551 53.358 7.94551 53.0197C7.94551 52.6814 8.21973 52.4072 8.55799 52.4072C8.89625 52.4072 9.17046 52.6814 9.17046 53.0197Z" fill="#777E8B"/>
<path d="M11.8189 53.0197C11.8189 53.358 11.5447 53.6322 11.2065 53.6322C10.8682 53.6322 10.594 53.358 10.594 53.0197C10.594 52.6814 10.8682 52.4072 11.2065 52.4072C11.5447 52.4072 11.8189 52.6814 11.8189 53.0197Z" fill="#777E8B"/>
<path d="M1.22494 55.6662C1.22494 56.0044 0.950721 56.2787 0.61246 56.2787C0.274199 56.2787 -1.52588e-05 56.0044 -1.52588e-05 55.6662C-1.52588e-05 55.3279 0.274199 55.0537 0.61246 55.0537C0.950721 55.0537 1.22494 55.3279 1.22494 55.6662Z" fill="#777E8B"/>
<path d="M3.87347 55.6662C3.87347 56.0044 3.59925 56.2787 3.26099 56.2787C2.92273 56.2787 2.64851 56.0044 2.64851 55.6662C2.64851 55.3279 2.92273 55.0537 3.26099 55.0537C3.59925 55.0537 3.87347 55.3279 3.87347 55.6662Z" fill="#777E8B"/>
<path d="M6.52195 55.6662C6.52195 56.0044 6.24773 56.2787 5.90947 56.2787C5.57121 56.2787 5.297 56.0044 5.297 55.6662C5.297 55.3279 5.57121 55.0537 5.90947 55.0537C6.24773 55.0537 6.52195 55.3279 6.52195 55.6662Z" fill="#777E8B"/>
<path d="M9.17046 55.6662C9.17046 56.0044 8.89625 56.2787 8.55799 56.2787C8.21973 56.2787 7.94551 56.0044 7.94551 55.6662C7.94551 55.3279 8.21973 55.0537 8.55799 55.0537C8.89625 55.0537 9.17046 55.3279 9.17046 55.6662Z" fill="#777E8B"/>
<path d="M11.8189 55.6662C11.8189 56.0044 11.5447 56.2787 11.2065 56.2787C10.8682 56.2787 10.594 56.0044 10.594 55.6662C10.594 55.3279 10.8682 55.0537 11.2065 55.0537C11.5447 55.0537 11.8189 55.3279 11.8189 55.6662Z" fill="#777E8B"/>
<path d="M1.22494 58.3146C1.22494 58.6529 0.950721 58.9271 0.61246 58.9271C0.274199 58.9271 -1.52588e-05 58.6529 -1.52588e-05 58.3146C-1.52588e-05 57.9764 0.274199 57.7021 0.61246 57.7021C0.950721 57.7021 1.22494 57.9764 1.22494 58.3146Z" fill="#777E8B"/>
<path d="M3.87347 58.3146C3.87347 58.6529 3.59925 58.9271 3.26099 58.9271C2.92273 58.9271 2.64851 58.6529 2.64851 58.3146C2.64851 57.9764 2.92273 57.7021 3.26099 57.7021C3.59925 57.7021 3.87347 57.9764 3.87347 58.3146Z" fill="#777E8B"/>
<path d="M6.52195 58.3146C6.52195 58.6529 6.24773 58.9271 5.90947 58.9271C5.57121 58.9271 5.297 58.6529 5.297 58.3146C5.297 57.9764 5.57121 57.7021 5.90947 57.7021C6.24773 57.7021 6.52195 57.9764 6.52195 58.3146Z" fill="#777E8B"/>
<path d="M9.17046 58.3146C9.17046 58.6529 8.89625 58.9271 8.55799 58.9271C8.21973 58.9271 7.94551 58.6529 7.94551 58.3146C7.94551 57.9764 8.21973 57.7021 8.55799 57.7021C8.89625 57.7021 9.17046 57.9764 9.17046 58.3146Z" fill="#777E8B"/>
<path d="M11.8189 58.3146C11.8189 58.6529 11.5447 58.9271 11.2065 58.9271C10.8682 58.9271 10.594 58.6529 10.594 58.3146C10.594 57.9764 10.8682 57.7021 11.2065 57.7021C11.5447 57.7021 11.8189 57.9764 11.8189 58.3146Z" fill="#777E8B"/>
<path d="M1.22494 60.9621C1.22494 61.3003 0.950721 61.5746 0.61246 61.5746C0.274199 61.5746 -1.52588e-05 61.3003 -1.52588e-05 60.9621C-1.52588e-05 60.6238 0.274199 60.3496 0.61246 60.3496C0.950721 60.3496 1.22494 60.6238 1.22494 60.9621Z" fill="#777E8B"/>
<path d="M3.87347 60.9621C3.87347 61.3003 3.59925 61.5746 3.26099 61.5746C2.92273 61.5746 2.64851 61.3003 2.64851 60.9621C2.64851 60.6238 2.92273 60.3496 3.26099 60.3496C3.59925 60.3496 3.87347 60.6238 3.87347 60.9621Z" fill="#777E8B"/>
<path d="M6.52195 60.9621C6.52195 61.3003 6.24773 61.5746 5.90947 61.5746C5.57121 61.5746 5.297 61.3003 5.297 60.9621C5.297 60.6238 5.57121 60.3496 5.90947 60.3496C6.24773 60.3496 6.52195 60.6238 6.52195 60.9621Z" fill="#777E8B"/>
<path d="M9.17046 60.9621C9.17046 61.3003 8.89625 61.5746 8.55799 61.5746C8.21973 61.5746 7.94551 61.3003 7.94551 60.9621C7.94551 60.6238 8.21973 60.3496 8.55799 60.3496C8.89625 60.3496 9.17046 60.6238 9.17046 60.9621Z" fill="#777E8B"/>
<path d="M11.8189 60.9621C11.8189 61.3003 11.5447 61.5746 11.2065 61.5746C10.8682 61.5746 10.594 61.3003 10.594 60.9621C10.594 60.6238 10.8682 60.3496 11.2065 60.3496C11.5447 60.3496 11.8189 60.6238 11.8189 60.9621Z" fill="#777E8B"/>
<path d="M1.22494 63.3879C1.22494 63.7261 0.950721 64.0003 0.61246 64.0003C0.274199 64.0003 -1.52588e-05 63.7261 -1.52588e-05 63.3879C-1.52588e-05 63.0496 0.274199 62.7754 0.61246 62.7754C0.950721 62.7754 1.22494 63.0496 1.22494 63.3879Z" fill="#777E8B"/>
<path d="M3.87347 63.3879C3.87347 63.7261 3.59925 64.0003 3.26099 64.0003C2.92273 64.0003 2.64851 63.7261 2.64851 63.3879C2.64851 63.0496 2.92273 62.7754 3.26099 62.7754C3.59925 62.7754 3.87347 63.0496 3.87347 63.3879Z" fill="#777E8B"/>
<path d="M6.52195 63.3879C6.52195 63.7261 6.24773 64.0003 5.90947 64.0003C5.57121 64.0003 5.297 63.7261 5.297 63.3879C5.297 63.0496 5.57121 62.7754 5.90947 62.7754C6.24773 62.7754 6.52195 63.0496 6.52195 63.3879Z" fill="#777E8B"/>
<path d="M9.17046 63.3879C9.17046 63.7261 8.89625 64.0003 8.55799 64.0003C8.21973 64.0003 7.94551 63.7261 7.94551 63.3879C7.94551 63.0496 8.21973 62.7754 8.55799 62.7754C8.89625 62.7754 9.17046 63.0496 9.17046 63.3879Z" fill="#777E8B"/>
<path d="M11.8189 63.3879C11.8189 63.7261 11.5447 64.0003 11.2065 64.0003C10.8682 64.0003 10.594 63.7261 10.594 63.3879C10.594 63.0496 10.8682 62.7754 11.2065 62.7754C11.5447 62.7754 11.8189 63.0496 11.8189 63.3879Z" fill="#777E8B"/>
<path d="M14.6772 39.7941C14.6772 40.1324 14.403 40.4066 14.0647 40.4066C13.7264 40.4066 13.4522 40.1324 13.4522 39.7941C13.4522 39.4559 13.7264 39.1816 14.0647 39.1816C14.403 39.1816 14.6772 39.4559 14.6772 39.7941Z" fill="#777E8B"/>
<path d="M17.3257 39.7941C17.3257 40.1324 17.0515 40.4066 16.7132 40.4066C16.375 40.4066 16.1008 40.1324 16.1008 39.7941C16.1008 39.4559 16.375 39.1816 16.7132 39.1816C17.0515 39.1816 17.3257 39.4559 17.3257 39.7941Z" fill="#777E8B"/>
<path d="M19.9742 39.7941C19.9742 40.1324 19.7 40.4066 19.3617 40.4066C19.0235 40.4066 18.7493 40.1324 18.7493 39.7941C18.7493 39.4559 19.0235 39.1816 19.3617 39.1816C19.7 39.1816 19.9742 39.4559 19.9742 39.7941Z" fill="#777E8B"/>
<path d="M22.6227 39.7941C22.6227 40.1324 22.3485 40.4066 22.0102 40.4066C21.672 40.4066 21.3978 40.1324 21.3978 39.7941C21.3978 39.4559 21.672 39.1816 22.0102 39.1816C22.3485 39.1816 22.6227 39.4559 22.6227 39.7941Z" fill="#777E8B"/>
<path d="M25.2712 39.7941C25.2712 40.1324 24.997 40.4066 24.6587 40.4066C24.3205 40.4066 24.0463 40.1324 24.0463 39.7941C24.0463 39.4559 24.3205 39.1816 24.6587 39.1816C24.997 39.1816 25.2712 39.4559 25.2712 39.7941Z" fill="#777E8B"/>
<path d="M14.6772 42.4406C14.6772 42.7789 14.403 43.0531 14.0647 43.0531C13.7265 43.0531 13.4523 42.7789 13.4523 42.4406C13.4523 42.1023 13.7265 41.8281 14.0647 41.8281C14.403 41.8281 14.6772 42.1023 14.6772 42.4406Z" fill="#777E8B"/>
<path d="M17.3257 42.4406C17.3257 42.7789 17.0515 43.0531 16.7132 43.0531C16.375 43.0531 16.1008 42.7789 16.1008 42.4406C16.1008 42.1023 16.375 41.8281 16.7132 41.8281C17.0515 41.8281 17.3257 42.1023 17.3257 42.4406Z" fill="#777E8B"/>
<path d="M19.9742 42.4406C19.9742 42.7789 19.7 43.0531 19.3617 43.0531C19.0235 43.0531 18.7493 42.7789 18.7493 42.4406C18.7493 42.1023 19.0235 41.8281 19.3617 41.8281C19.7 41.8281 19.9742 42.1023 19.9742 42.4406Z" fill="#777E8B"/>
<path d="M22.6227 42.4406C22.6227 42.7789 22.3485 43.0531 22.0102 43.0531C21.672 43.0531 21.3978 42.7789 21.3978 42.4406C21.3978 42.1023 21.672 41.8281 22.0102 41.8281C22.3485 41.8281 22.6227 42.1023 22.6227 42.4406Z" fill="#777E8B"/>
<path d="M25.2712 42.4406C25.2712 42.7789 24.997 43.0531 24.6587 43.0531C24.3205 43.0531 24.0463 42.7789 24.0463 42.4406C24.0463 42.1023 24.3205 41.8281 24.6587 41.8281C24.997 41.8281 25.2712 42.1023 25.2712 42.4406Z" fill="#777E8B"/>
<path d="M14.6772 45.089C14.6772 45.4273 14.403 45.7015 14.0647 45.7015C13.7265 45.7015 13.4523 45.4273 13.4523 45.089C13.4523 44.7508 13.7265 44.4766 14.0647 44.4766C14.403 44.4766 14.6772 44.7508 14.6772 45.089Z" fill="#777E8B"/>
<path d="M17.3257 45.089C17.3257 45.4273 17.0515 45.7015 16.7132 45.7015C16.375 45.7015 16.1008 45.4273 16.1008 45.089C16.1008 44.7508 16.375 44.4766 16.7132 44.4766C17.0515 44.4766 17.3257 44.7508 17.3257 45.089Z" fill="#777E8B"/>
<path d="M19.9742 45.089C19.9742 45.4273 19.7 45.7015 19.3617 45.7015C19.0235 45.7015 18.7493 45.4273 18.7493 45.089C18.7493 44.7508 19.0235 44.4766 19.3617 44.4766C19.7 44.4766 19.9742 44.7508 19.9742 45.089Z" fill="#777E8B"/>
<path d="M22.6227 45.089C22.6227 45.4273 22.3485 45.7015 22.0102 45.7015C21.672 45.7015 21.3978 45.4273 21.3978 45.089C21.3978 44.7508 21.672 44.4766 22.0102 44.4766C22.3485 44.4766 22.6227 44.7508 22.6227 45.089Z" fill="#777E8B"/>
<path d="M25.2712 45.089C25.2712 45.4273 24.997 45.7015 24.6587 45.7015C24.3205 45.7015 24.0463 45.4273 24.0463 45.089C24.0463 44.7508 24.3205 44.4766 24.6587 44.4766C24.997 44.4766 25.2712 44.7508 25.2712 45.089Z" fill="#777E8B"/>
<path d="M14.6772 47.7365C14.6772 48.0748 14.403 48.349 14.0647 48.349C13.7265 48.349 13.4523 48.0748 13.4523 47.7365C13.4523 47.3982 13.7265 47.124 14.0647 47.124C14.403 47.124 14.6772 47.3982 14.6772 47.7365Z" fill="#777E8B"/>
<path d="M17.3257 47.7365C17.3257 48.0748 17.0515 48.349 16.7132 48.349C16.375 48.349 16.1008 48.0748 16.1008 47.7365C16.1008 47.3982 16.375 47.124 16.7132 47.124C17.0515 47.124 17.3257 47.3982 17.3257 47.7365Z" fill="#777E8B"/>
<path d="M19.9742 47.7365C19.9742 48.0748 19.7 48.349 19.3617 48.349C19.0235 48.349 18.7493 48.0748 18.7493 47.7365C18.7493 47.3982 19.0235 47.124 19.3617 47.124C19.7 47.124 19.9742 47.3982 19.9742 47.7365Z" fill="#777E8B"/>
<path d="M22.6227 47.7365C22.6227 48.0748 22.3485 48.349 22.0102 48.349C21.672 48.349 21.3978 48.0748 21.3978 47.7365C21.3978 47.3982 21.672 47.124 22.0102 47.124C22.3485 47.124 22.6227 47.3982 22.6227 47.7365Z" fill="#777E8B"/>
<path d="M25.2712 47.7365C25.2712 48.0748 24.997 48.349 24.6587 48.349C24.3205 48.349 24.0463 48.0748 24.0463 47.7365C24.0463 47.3982 24.3205 47.124 24.6587 47.124C24.997 47.124 25.2712 47.3982 25.2712 47.7365Z" fill="#777E8B"/>
<path d="M14.6772 50.1633C14.6772 50.5015 14.403 50.7757 14.0647 50.7757C13.7265 50.7757 13.4523 50.5015 13.4523 50.1633C13.4523 49.825 13.7265 49.5508 14.0647 49.5508C14.403 49.5508 14.6772 49.825 14.6772 50.1633Z" fill="#777E8B"/>
<path d="M17.3257 50.1633C17.3257 50.5015 17.0515 50.7757 16.7132 50.7757C16.375 50.7757 16.1008 50.5015 16.1008 50.1633C16.1008 49.825 16.375 49.5508 16.7132 49.5508C17.0515 49.5508 17.3257 49.825 17.3257 50.1633Z" fill="#777E8B"/>
<path d="M19.9742 50.1633C19.9742 50.5015 19.7 50.7757 19.3617 50.7757C19.0235 50.7757 18.7493 50.5015 18.7493 50.1633C18.7493 49.825 19.0235 49.5508 19.3617 49.5508C19.7 49.5508 19.9742 49.825 19.9742 50.1633Z" fill="#777E8B"/>
<path d="M22.6227 50.1633C22.6227 50.5015 22.3485 50.7757 22.0102 50.7757C21.672 50.7757 21.3978 50.5015 21.3978 50.1633C21.3978 49.825 21.672 49.5508 22.0102 49.5508C22.3485 49.5508 22.6227 49.825 22.6227 50.1633Z" fill="#777E8B"/>
<path d="M25.2712 50.1633C25.2712 50.5015 24.997 50.7757 24.6587 50.7757C24.3205 50.7757 24.0463 50.5015 24.0463 50.1633C24.0463 49.825 24.3205 49.5508 24.6587 49.5508C24.997 49.5508 25.2712 49.825 25.2712 50.1633Z" fill="#777E8B"/>
<path d="M14.6772 53.0197C14.6772 53.358 14.403 53.6322 14.0647 53.6322C13.7264 53.6322 13.4522 53.358 13.4522 53.0197C13.4522 52.6814 13.7264 52.4072 14.0647 52.4072C14.403 52.4072 14.6772 52.6814 14.6772 53.0197Z" fill="#777E8B"/>
<path d="M17.3257 53.0197C17.3257 53.358 17.0515 53.6322 16.7132 53.6322C16.375 53.6322 16.1008 53.358 16.1008 53.0197C16.1008 52.6814 16.375 52.4072 16.7132 52.4072C17.0515 52.4072 17.3257 52.6814 17.3257 53.0197Z" fill="#777E8B"/>
<path d="M19.9742 53.0197C19.9742 53.358 19.7 53.6322 19.3617 53.6322C19.0235 53.6322 18.7493 53.358 18.7493 53.0197C18.7493 52.6814 19.0235 52.4072 19.3617 52.4072C19.7 52.4072 19.9742 52.6814 19.9742 53.0197Z" fill="#777E8B"/>
<path d="M22.6227 53.0197C22.6227 53.358 22.3485 53.6322 22.0102 53.6322C21.672 53.6322 21.3978 53.358 21.3978 53.0197C21.3978 52.6814 21.672 52.4072 22.0102 52.4072C22.3485 52.4072 22.6227 52.6814 22.6227 53.0197Z" fill="#777E8B"/>
<path d="M25.2712 53.0197C25.2712 53.358 24.997 53.6322 24.6587 53.6322C24.3205 53.6322 24.0463 53.358 24.0463 53.0197C24.0463 52.6814 24.3205 52.4072 24.6587 52.4072C24.997 52.4072 25.2712 52.6814 25.2712 53.0197Z" fill="#777E8B"/>
<path d="M14.6772 55.6662C14.6772 56.0044 14.403 56.2787 14.0647 56.2787C13.7265 56.2787 13.4523 56.0044 13.4523 55.6662C13.4523 55.3279 13.7265 55.0537 14.0647 55.0537C14.403 55.0537 14.6772 55.3279 14.6772 55.6662Z" fill="#777E8B"/>
<path d="M17.3257 55.6662C17.3257 56.0044 17.0515 56.2787 16.7132 56.2787C16.375 56.2787 16.1008 56.0044 16.1008 55.6662C16.1008 55.3279 16.375 55.0537 16.7132 55.0537C17.0515 55.0537 17.3257 55.3279 17.3257 55.6662Z" fill="#777E8B"/>
<path d="M19.9742 55.6662C19.9742 56.0044 19.7 56.2787 19.3617 56.2787C19.0235 56.2787 18.7493 56.0044 18.7493 55.6662C18.7493 55.3279 19.0235 55.0537 19.3617 55.0537C19.7 55.0537 19.9742 55.3279 19.9742 55.6662Z" fill="#777E8B"/>
<path d="M22.6227 55.6662C22.6227 56.0044 22.3485 56.2787 22.0102 56.2787C21.672 56.2787 21.3978 56.0044 21.3978 55.6662C21.3978 55.3279 21.672 55.0537 22.0102 55.0537C22.3485 55.0537 22.6227 55.3279 22.6227 55.6662Z" fill="#777E8B"/>
<path d="M25.2712 55.6662C25.2712 56.0044 24.997 56.2787 24.6587 56.2787C24.3205 56.2787 24.0463 56.0044 24.0463 55.6662C24.0463 55.3279 24.3205 55.0537 24.6587 55.0537C24.997 55.0537 25.2712 55.3279 25.2712 55.6662Z" fill="#777E8B"/>
<path d="M14.6772 58.3146C14.6772 58.6529 14.403 58.9271 14.0647 58.9271C13.7265 58.9271 13.4523 58.6529 13.4523 58.3146C13.4523 57.9764 13.7265 57.7021 14.0647 57.7021C14.403 57.7021 14.6772 57.9764 14.6772 58.3146Z" fill="#777E8B"/>
<path d="M17.3257 58.3146C17.3257 58.6529 17.0515 58.9271 16.7132 58.9271C16.375 58.9271 16.1008 58.6529 16.1008 58.3146C16.1008 57.9764 16.375 57.7021 16.7132 57.7021C17.0515 57.7021 17.3257 57.9764 17.3257 58.3146Z" fill="#777E8B"/>
<path d="M19.9742 58.3146C19.9742 58.6529 19.7 58.9271 19.3617 58.9271C19.0235 58.9271 18.7493 58.6529 18.7493 58.3146C18.7493 57.9764 19.0235 57.7021 19.3617 57.7021C19.7 57.7021 19.9742 57.9764 19.9742 58.3146Z" fill="#777E8B"/>
<path d="M22.6227 58.3146C22.6227 58.6529 22.3485 58.9271 22.0102 58.9271C21.672 58.9271 21.3978 58.6529 21.3978 58.3146C21.3978 57.9764 21.672 57.7021 22.0102 57.7021C22.3485 57.7021 22.6227 57.9764 22.6227 58.3146Z" fill="#777E8B"/>
<path d="M25.2712 58.3146C25.2712 58.6529 24.997 58.9271 24.6587 58.9271C24.3205 58.9271 24.0463 58.6529 24.0463 58.3146C24.0463 57.9764 24.3205 57.7021 24.6587 57.7021C24.997 57.7021 25.2712 57.9764 25.2712 58.3146Z" fill="#777E8B"/>
<path d="M14.6772 60.9621C14.6772 61.3003 14.403 61.5746 14.0647 61.5746C13.7265 61.5746 13.4523 61.3003 13.4523 60.9621C13.4523 60.6238 13.7265 60.3496 14.0647 60.3496C14.403 60.3496 14.6772 60.6238 14.6772 60.9621Z" fill="#777E8B"/>
<path d="M17.3257 60.9621C17.3257 61.3003 17.0515 61.5746 16.7132 61.5746C16.375 61.5746 16.1008 61.3003 16.1008 60.9621C16.1008 60.6238 16.375 60.3496 16.7132 60.3496C17.0515 60.3496 17.3257 60.6238 17.3257 60.9621Z" fill="#777E8B"/>
<path d="M19.9742 60.9621C19.9742 61.3003 19.7 61.5746 19.3617 61.5746C19.0235 61.5746 18.7493 61.3003 18.7493 60.9621C18.7493 60.6238 19.0235 60.3496 19.3617 60.3496C19.7 60.3496 19.9742 60.6238 19.9742 60.9621Z" fill="#777E8B"/>
<path d="M22.6227 60.9621C22.6227 61.3003 22.3485 61.5746 22.0102 61.5746C21.672 61.5746 21.3978 61.3003 21.3978 60.9621C21.3978 60.6238 21.672 60.3496 22.0102 60.3496C22.3485 60.3496 22.6227 60.6238 22.6227 60.9621Z" fill="#777E8B"/>
<path d="M25.2712 60.9621C25.2712 61.3003 24.997 61.5746 24.6587 61.5746C24.3205 61.5746 24.0463 61.3003 24.0463 60.9621C24.0463 60.6238 24.3205 60.3496 24.6587 60.3496C24.997 60.3496 25.2712 60.6238 25.2712 60.9621Z" fill="#777E8B"/>
<path d="M14.6772 63.3879C14.6772 63.7261 14.403 64.0003 14.0647 64.0003C13.7265 64.0003 13.4523 63.7261 13.4523 63.3879C13.4523 63.0496 13.7265 62.7754 14.0647 62.7754C14.403 62.7754 14.6772 63.0496 14.6772 63.3879Z" fill="#777E8B"/>
<path d="M17.3257 63.3879C17.3257 63.7261 17.0515 64.0003 16.7132 64.0003C16.375 64.0003 16.1008 63.7261 16.1008 63.3879C16.1008 63.0496 16.375 62.7754 16.7132 62.7754C17.0515 62.7754 17.3257 63.0496 17.3257 63.3879Z" fill="#777E8B"/>
<path d="M19.9742 63.3879C19.9742 63.7261 19.7 64.0003 19.3617 64.0003C19.0235 64.0003 18.7493 63.7261 18.7493 63.3879C18.7493 63.0496 19.0235 62.7754 19.3617 62.7754C19.7 62.7754 19.9742 63.0496 19.9742 63.3879Z" fill="#777E8B"/>
<path d="M22.6227 63.3879C22.6227 63.7261 22.3485 64.0003 22.0102 64.0003C21.672 64.0003 21.3978 63.7261 21.3978 63.3879C21.3978 63.0496 21.672 62.7754 22.0102 62.7754C22.3485 62.7754 22.6227 63.0496 22.6227 63.3879Z" fill="#777E8B"/>
<path d="M25.2712 63.3879C25.2712 63.7261 24.997 64.0003 24.6587 64.0003C24.3205 64.0003 24.0463 63.7261 24.0463 63.3879C24.0463 63.0496 24.3205 62.7754 24.6587 62.7754C24.997 62.7754 25.2712 63.0496 25.2712 63.3879Z" fill="#777E8B"/>
</svg>
