<svg width="140" height="118" viewBox="0 0 140 118" fill="none" xmlns="http://www.w3.org/2000/svg">
<g clip-path="url(#clip0)">
<circle cx="127.877" cy="60.7886" r="1.38868" transform="rotate(90 127.877 60.7886)" fill="#777E8B"/>
<circle cx="127.877" cy="66.7935" r="1.38868" transform="rotate(90 127.877 66.7935)" fill="#777E8B"/>
<circle cx="127.877" cy="72.7988" r="1.38868" transform="rotate(90 127.877 72.7988)" fill="#777E8B"/>
<circle cx="127.877" cy="78.8037" r="1.38868" transform="rotate(90 127.877 78.8037)" fill="#777E8B"/>
<circle cx="127.877" cy="84.8089" r="1.38868" transform="rotate(90 127.877 84.8089)" fill="#777E8B"/>
<circle cx="121.872" cy="60.7886" r="1.38868" transform="rotate(90 121.872 60.7886)" fill="#777E8B"/>
<circle cx="121.872" cy="66.7935" r="1.38868" transform="rotate(90 121.872 66.7935)" fill="#777E8B"/>
<circle cx="121.872" cy="72.7988" r="1.38868" transform="rotate(90 121.872 72.7988)" fill="#777E8B"/>
<circle cx="121.872" cy="78.8037" r="1.38868" transform="rotate(90 121.872 78.8037)" fill="#777E8B"/>
<circle cx="121.872" cy="84.8089" r="1.38868" transform="rotate(90 121.872 84.8089)" fill="#777E8B"/>
<circle cx="115.867" cy="60.7886" r="1.38868" transform="rotate(90 115.867 60.7886)" fill="#777E8B"/>
<circle cx="115.867" cy="66.7935" r="1.38868" transform="rotate(90 115.867 66.7935)" fill="#777E8B"/>
<circle cx="115.867" cy="72.7988" r="1.38868" transform="rotate(90 115.867 72.7988)" fill="#777E8B"/>
<circle cx="115.867" cy="78.8037" r="1.38868" transform="rotate(90 115.867 78.8037)" fill="#777E8B"/>
<circle cx="115.867" cy="84.8089" r="1.38868" transform="rotate(90 115.867 84.8089)" fill="#777E8B"/>
<circle cx="109.862" cy="60.7886" r="1.38868" transform="rotate(90 109.862 60.7886)" fill="#777E8B"/>
<circle cx="109.862" cy="66.7935" r="1.38868" transform="rotate(90 109.862 66.7935)" fill="#777E8B"/>
<circle cx="109.862" cy="72.7988" r="1.38868" transform="rotate(90 109.862 72.7988)" fill="#777E8B"/>
<circle cx="109.862" cy="78.8037" r="1.38868" transform="rotate(90 109.862 78.8037)" fill="#777E8B"/>
<circle cx="109.862" cy="84.8089" r="1.38868" transform="rotate(90 109.862 84.8089)" fill="#777E8B"/>
<circle cx="104.357" cy="60.7886" r="1.38868" transform="rotate(90 104.357 60.7886)" fill="#777E8B"/>
<circle cx="104.357" cy="66.7935" r="1.38868" transform="rotate(90 104.357 66.7935)" fill="#777E8B"/>
<circle cx="104.357" cy="72.7988" r="1.38868" transform="rotate(90 104.357 72.7988)" fill="#777E8B"/>
<circle cx="104.357" cy="78.8037" r="1.38868" transform="rotate(90 104.357 78.8037)" fill="#777E8B"/>
<circle cx="104.357" cy="84.8089" r="1.38868" transform="rotate(90 104.357 84.8089)" fill="#777E8B"/>
<circle cx="98.7799" cy="60.7886" r="1.38868" transform="rotate(90 98.7799 60.7886)" fill="#777E8B"/>
<circle cx="98.7799" cy="66.7935" r="1.38868" transform="rotate(90 98.7799 66.7935)" fill="#777E8B"/>
<circle cx="98.7799" cy="72.7988" r="1.38868" transform="rotate(90 98.7799 72.7988)" fill="#777E8B"/>
<circle cx="98.7799" cy="78.8037" r="1.38868" transform="rotate(90 98.7799 78.8037)" fill="#777E8B"/>
<circle cx="98.7799" cy="84.8089" r="1.38868" transform="rotate(90 98.7799 84.8089)" fill="#777E8B"/>
<circle cx="92.7749" cy="60.7886" r="1.38868" transform="rotate(90 92.7749 60.7886)" fill="#777E8B"/>
<circle cx="92.7749" cy="66.7935" r="1.38868" transform="rotate(90 92.7749 66.7935)" fill="#777E8B"/>
<circle cx="92.7749" cy="72.7988" r="1.38868" transform="rotate(90 92.7749 72.7988)" fill="#777E8B"/>
<circle cx="92.7749" cy="78.8037" r="1.38868" transform="rotate(90 92.7749 78.8037)" fill="#777E8B"/>
<circle cx="92.7749" cy="84.8089" r="1.38868" transform="rotate(90 92.7749 84.8089)" fill="#777E8B"/>
<circle cx="86.7699" cy="60.7886" r="1.38868" transform="rotate(90 86.7699 60.7886)" fill="#777E8B"/>
<circle cx="86.7699" cy="66.7935" r="1.38868" transform="rotate(90 86.7699 66.7935)" fill="#777E8B"/>
<circle cx="86.7699" cy="72.7988" r="1.38868" transform="rotate(90 86.7699 72.7988)" fill="#777E8B"/>
<circle cx="86.7699" cy="78.8037" r="1.38868" transform="rotate(90 86.7699 78.8037)" fill="#777E8B"/>
<circle cx="86.7699" cy="84.8089" r="1.38868" transform="rotate(90 86.7699 84.8089)" fill="#777E8B"/>
<circle cx="80.7648" cy="60.7886" r="1.38868" transform="rotate(90 80.7648 60.7886)" fill="#777E8B"/>
<circle cx="80.7648" cy="66.7935" r="1.38868" transform="rotate(90 80.7648 66.7935)" fill="#777E8B"/>
<circle cx="80.7648" cy="72.7988" r="1.38868" transform="rotate(90 80.7648 72.7988)" fill="#777E8B"/>
<circle cx="80.7648" cy="78.8037" r="1.38868" transform="rotate(90 80.7648 78.8037)" fill="#777E8B"/>
<circle cx="80.7648" cy="84.8089" r="1.38868" transform="rotate(90 80.7648 84.8089)" fill="#777E8B"/>
<circle cx="75.2602" cy="60.7886" r="1.38868" transform="rotate(90 75.2602 60.7886)" fill="#777E8B"/>
<circle cx="75.2602" cy="66.7935" r="1.38868" transform="rotate(90 75.2602 66.7935)" fill="#777E8B"/>
<circle cx="75.2602" cy="72.7988" r="1.38868" transform="rotate(90 75.2602 72.7988)" fill="#777E8B"/>
<circle cx="75.2602" cy="78.8037" r="1.38868" transform="rotate(90 75.2602 78.8037)" fill="#777E8B"/>
<circle cx="75.2602" cy="84.8089" r="1.38868" transform="rotate(90 75.2602 84.8089)" fill="#777E8B"/>
<circle cx="98.7798" cy="92.0923" r="1.38868" transform="rotate(90 98.7798 92.0923)" fill="#777E8B"/>
<circle cx="98.7798" cy="98.0979" r="1.38868" transform="rotate(90 98.7798 98.0979)" fill="#777E8B"/>
<circle cx="98.7798" cy="104.103" r="1.38868" transform="rotate(90 98.7798 104.103)" fill="#777E8B"/>
<circle cx="98.7798" cy="110.107" r="1.38868" transform="rotate(90 98.7798 110.107)" fill="#777E8B"/>
<circle cx="98.7798" cy="116.113" r="1.38868" transform="rotate(90 98.7798 116.113)" fill="#777E8B"/>
<circle cx="92.7748" cy="92.0923" r="1.38868" transform="rotate(90 92.7748 92.0923)" fill="#777E8B"/>
<circle cx="92.7748" cy="98.0979" r="1.38868" transform="rotate(90 92.7748 98.0979)" fill="#777E8B"/>
<circle cx="92.7748" cy="104.103" r="1.38868" transform="rotate(90 92.7748 104.103)" fill="#777E8B"/>
<circle cx="92.7748" cy="110.107" r="1.38868" transform="rotate(90 92.7748 110.107)" fill="#777E8B"/>
<circle cx="92.7748" cy="116.113" r="1.38868" transform="rotate(90 92.7748 116.113)" fill="#777E8B"/>
<circle cx="86.7698" cy="92.0923" r="1.38868" transform="rotate(90 86.7698 92.0923)" fill="#777E8B"/>
<circle cx="86.7698" cy="98.0979" r="1.38868" transform="rotate(90 86.7698 98.0979)" fill="#777E8B"/>
<circle cx="86.7698" cy="104.103" r="1.38868" transform="rotate(90 86.7698 104.103)" fill="#777E8B"/>
<circle cx="86.7698" cy="110.107" r="1.38868" transform="rotate(90 86.7698 110.107)" fill="#777E8B"/>
<circle cx="86.7698" cy="116.113" r="1.38868" transform="rotate(90 86.7698 116.113)" fill="#777E8B"/>
<circle cx="80.7648" cy="92.0923" r="1.38868" transform="rotate(90 80.7648 92.0923)" fill="#777E8B"/>
<circle cx="80.7646" cy="98.0979" r="1.38868" transform="rotate(90 80.7646 98.0979)" fill="#777E8B"/>
<circle cx="80.7646" cy="104.103" r="1.38868" transform="rotate(90 80.7646 104.103)" fill="#777E8B"/>
<circle cx="80.7646" cy="110.108" r="1.38868" transform="rotate(90 80.7646 110.108)" fill="#777E8B"/>
<circle cx="80.7646" cy="116.113" r="1.38868" transform="rotate(90 80.7646 116.113)" fill="#777E8B"/>
<circle cx="75.2601" cy="92.0923" r="1.38868" transform="rotate(90 75.2601 92.0923)" fill="#777E8B"/>
<circle cx="75.2601" cy="98.0979" r="1.38868" transform="rotate(90 75.2601 98.0979)" fill="#777E8B"/>
<circle cx="75.2601" cy="104.103" r="1.38868" transform="rotate(90 75.2601 104.103)" fill="#777E8B"/>
<circle cx="75.2601" cy="110.108" r="1.38868" transform="rotate(90 75.2601 110.108)" fill="#777E8B"/>
<circle cx="75.2601" cy="116.113" r="1.38868" transform="rotate(90 75.2601 116.113)" fill="#777E8B"/>
<circle cx="127.877" cy="91.9998" r="1.38868" transform="rotate(90 127.877 91.9998)" fill="#777E8B"/>
<circle cx="127.877" cy="98.0049" r="1.38868" transform="rotate(90 127.877 98.0049)" fill="#777E8B"/>
<circle cx="127.877" cy="104.01" r="1.38868" transform="rotate(90 127.877 104.01)" fill="#777E8B"/>
<circle cx="127.877" cy="110.015" r="1.38868" transform="rotate(90 127.877 110.015)" fill="#777E8B"/>
<circle cx="127.877" cy="116.02" r="1.38868" transform="rotate(90 127.877 116.02)" fill="#777E8B"/>
<circle cx="121.872" cy="91.9995" r="1.38868" transform="rotate(90 121.872 91.9995)" fill="#777E8B"/>
<circle cx="121.872" cy="98.0049" r="1.38868" transform="rotate(90 121.872 98.0049)" fill="#777E8B"/>
<circle cx="121.872" cy="104.01" r="1.38868" transform="rotate(90 121.872 104.01)" fill="#777E8B"/>
<circle cx="121.872" cy="110.015" r="1.38868" transform="rotate(90 121.872 110.015)" fill="#777E8B"/>
<circle cx="121.872" cy="116.02" r="1.38868" transform="rotate(90 121.872 116.02)" fill="#777E8B"/>
<circle cx="115.867" cy="91.9995" r="1.38868" transform="rotate(90 115.867 91.9995)" fill="#777E8B"/>
<circle cx="115.867" cy="98.0049" r="1.38868" transform="rotate(90 115.867 98.0049)" fill="#777E8B"/>
<circle cx="115.867" cy="104.01" r="1.38868" transform="rotate(90 115.867 104.01)" fill="#777E8B"/>
<circle cx="115.867" cy="110.015" r="1.38868" transform="rotate(90 115.867 110.015)" fill="#777E8B"/>
<circle cx="115.867" cy="116.02" r="1.38868" transform="rotate(90 115.867 116.02)" fill="#777E8B"/>
<circle cx="109.862" cy="91.9995" r="1.38868" transform="rotate(90 109.862 91.9995)" fill="#777E8B"/>
<circle cx="109.862" cy="98.0049" r="1.38868" transform="rotate(90 109.862 98.0049)" fill="#777E8B"/>
<circle cx="109.862" cy="104.01" r="1.38868" transform="rotate(90 109.862 104.01)" fill="#777E8B"/>
<circle cx="109.862" cy="110.015" r="1.38868" transform="rotate(90 109.862 110.015)" fill="#777E8B"/>
<circle cx="109.862" cy="116.02" r="1.38868" transform="rotate(90 109.862 116.02)" fill="#777E8B"/>
<circle cx="104.357" cy="91.9995" r="1.38868" transform="rotate(90 104.357 91.9995)" fill="#777E8B"/>
<circle cx="104.357" cy="98.0049" r="1.38868" transform="rotate(90 104.357 98.0049)" fill="#777E8B"/>
<circle cx="104.357" cy="104.01" r="1.38868" transform="rotate(90 104.357 104.01)" fill="#777E8B"/>
<circle cx="104.357" cy="110.015" r="1.38868" transform="rotate(90 104.357 110.015)" fill="#777E8B"/>
<circle cx="104.357" cy="116.02" r="1.38868" transform="rotate(90 104.357 116.02)" fill="#777E8B"/>
<mask id="mask0" mask-type="alpha" maskUnits="userSpaceOnUse" x="11" y="-1" width="60" height="60">
<path fill-rule="evenodd" clip-rule="evenodd" d="M70.9999 1.11913L70.9999 -0.000158746L69.261 -0.000158699L70.9999 1.11913ZM61.1063 -0.000158708L65.4941 -0.000158726L70.9999 3.54385L70.9999 6.36817L61.1063 -0.000158708ZM52.9518 -0.000158827L57.3396 -0.000158744L70.9999 8.79273L70.9999 11.6171L52.9518 -0.000158827ZM44.7962 -0.000158835L49.1839 -0.000158752L70.9999 14.0423L70.9999 16.8667L44.7962 -0.000158835ZM36.642 -0.000158712L41.0298 -0.000158689L70.9999 19.291L70.9999 22.1153L36.642 -0.000158712ZM28.4877 -0.000158669L32.8755 -0.000158646L70.9999 24.5398L70.9999 27.3641L28.4877 -0.000158669ZM20.3328 -0.000158709L24.7206 -0.000158725L70.9999 29.7889L70.9999 32.6132L20.3328 -0.000158709ZM12.4621 -0.000158726L16.5658 -0.000158722L70.9999 35.0379L70.9999 37.8622L12.4072 0.147383L12.4621 -0.000158726ZM11.9999 5.13384L11.9999 2.30951L70.9999 40.2866L70.9999 43.1109L11.9999 5.13384ZM11.9999 10.3827L11.9999 7.55839L70.9999 45.5354L70.9999 48.3598L11.9999 10.3827ZM11.9999 15.6322L11.9999 12.8078L70.9999 50.7849L70.9999 53.6092L11.9999 15.6322ZM11.9999 20.8814L11.9999 18.057L70.9999 56.0341L70.9999 58.8584L11.9999 20.8814ZM11.9999 26.1303L11.9999 23.3059L67.4529 58.9998L63.0652 58.9998L11.9999 26.1303ZM11.9999 31.3791L11.9999 28.5548L59.2985 58.9998L54.9107 58.9998L11.9999 31.3791ZM11.9999 36.6279L11.9999 33.8036L51.1441 58.9998L46.7563 58.9998L11.9999 36.6279ZM11.9999 41.8768L11.9999 39.0525L42.9896 58.9998L38.6018 58.9998L11.9999 41.8768ZM11.9999 47.1262L11.9999 44.3018L34.8343 58.9998L30.4465 58.9998L11.9999 47.1262ZM11.9999 52.3749L11.9999 49.5505L26.6801 58.9998L22.2923 58.9998L11.9999 52.3749ZM11.9999 57.624L11.9999 54.7997L18.5252 58.9998L14.1374 58.9998L11.9999 57.624Z" fill="black"/>
</mask>
<g mask="url(#mask0)">
<rect x="12.0792" y="0.551514" width="58.8495" height="58.8495" fill="#747E8C"/>
</g>
<ellipse cx="72.4002" cy="88.9364" rx="33.8384" ry="8.71596" fill="#C0C6CF"/>
<path d="M38.5618 81.2458V89.4491H106.239V81.2458H38.5618Z" fill="#C0C6CF"/>
<ellipse cx="72.4002" cy="80.7333" rx="33.8384" ry="8.71596" fill="#C0C6CF"/>
<ellipse cx="72.4002" cy="70.0678" rx="33.8384" ry="8.71596" fill="#F1F3F6"/>
<path d="M38.5618 62.3772V70.5805H106.239V62.3772H38.5618Z" fill="#F1F3F6"/>
<ellipse cx="72.4002" cy="61.8644" rx="33.8384" ry="8.71596" fill="white"/>
<ellipse cx="72.4002" cy="58.1742" rx="33.8384" ry="8.71596" fill="#C0C6CF"/>
<ellipse cx="72.4002" cy="66.3771" rx="33.8384" ry="8.71596" fill="#C0C6CF"/>
<path d="M38.5618 58.6868V66.89H106.239V58.6868H38.5618Z" fill="#C0C6CF"/>
<ellipse cx="72.4002" cy="47.7558" rx="33.8384" ry="8.71596" fill="#F1F3F6"/>
<path d="M38.5618 40.0652V48.2684H106.239V40.0652H38.5618Z" fill="#F1F3F6"/>
<ellipse cx="72.4002" cy="39.5526" rx="33.8384" ry="8.71596" fill="white"/>
<ellipse cx="72.4003" cy="43.8187" rx="33.8384" ry="8.71596" fill="#C0C6CF"/>
<ellipse cx="72.4002" cy="35.6151" rx="33.8384" ry="8.71596" fill="#C0C6CF"/>
<path d="M38.5618 36.1274V44.3307H106.239V36.1274H38.5618Z" fill="#C0C6CF"/>
<mask id="mask1" mask-type="alpha" maskUnits="userSpaceOnUse" x="12" y="0" width="59" height="59">
<mask id="mask2" maskUnits="userSpaceOnUse" x="11" y="-1" width="60" height="60">
<path fill-rule="evenodd" clip-rule="evenodd" d="M70.9999 1.11905L70.9999 -0.000157079L69.2612 -0.000158898L70.9999 1.11905ZM61.1064 -0.000158054L65.4942 -0.00015843L70.9999 3.54378L70.9999 6.3681L61.1064 -0.000158054ZM52.9519 -0.000158906L57.3397 -0.000155744L70.9999 8.79265L70.9999 11.617L52.9519 -0.000158906ZM44.7963 -0.000157586L49.1841 -0.000158236L70.9999 14.0423L70.9999 16.8666L44.7963 -0.000157586ZM36.6422 -0.000156894L41.0299 -0.00015727L70.9999 19.2909L70.9999 22.1152L36.6422 -0.000156894ZM28.4878 -0.000158868L32.8756 -0.000159381L70.9999 24.5397L70.9999 27.364L28.4878 -0.000158868ZM20.3329 -0.000157451L24.7207 -0.000157964L70.9999 29.7888L70.9999 32.6131L20.3329 -0.000157451ZM12.4621 -0.000159283L16.5659 -0.000157394L70.9999 35.0378L70.9999 37.8622L12.4073 0.147327L12.4621 -0.000159283ZM11.9999 5.13376L11.9999 2.30944L70.9999 40.2865L70.9999 43.1108L11.9999 5.13376ZM11.9999 10.3826L11.9999 7.55831L70.9999 45.5354L70.9999 48.3597L11.9999 10.3826ZM11.9999 15.6321L11.9999 12.8078L70.9999 50.7848L70.9999 53.6091L11.9999 15.6321ZM11.9999 20.8813L11.9999 18.057L70.9999 56.034L70.9999 58.8583L11.9999 20.8813ZM11.9999 26.1302L11.9999 23.3058L67.4531 58.9998L63.0653 58.9998L11.9999 26.1302ZM11.9999 31.379L11.9999 28.5547L59.2986 58.9998L54.9108 58.9998L11.9999 31.379ZM11.9999 36.6278L11.9999 33.8035L51.1442 58.9998L46.7564 58.9998L11.9999 36.6278ZM11.9999 41.8767L11.9999 39.0524L42.9897 58.9998L38.6019 58.9998L11.9999 41.8767ZM11.9999 47.1261L11.9999 44.3017L34.8345 58.9998L30.4467 58.9998L11.9999 47.1261ZM11.9999 52.3748L11.9999 49.5505L26.6802 58.9998L22.2924 58.9998L11.9999 52.3748ZM11.9999 57.6239L11.9999 54.7996L18.5253 58.9998L14.1375 58.9998L11.9999 57.6239Z" fill="#C4C4C4"/>
</mask>
<g mask="url(#mask2)">
<rect x="12.0792" y="0.551514" width="58.8495" height="58.8495" fill="#777E8B"/>
</g>
</mask>
<g mask="url(#mask1)">
<path d="M106.239 43.8184C106.239 48.6321 91.0887 52.5344 72.4002 52.5344C53.7118 52.5344 38.5618 48.6321 38.5618 43.8184C38.5618 39.0047 38.5618 35.8604 38.5618 35.8604C57.2502 35.8604 106.239 39.0047 106.239 43.8184Z" fill="white"/>
<ellipse cx="72.4002" cy="35.6154" rx="33.8384" ry="8.71596" fill="white"/>
</g>
</g>
<defs>
<clipPath id="clip0">
<rect width="140" height="118" fill="white"/>
</clipPath>
</defs>
</svg>
