<svg width="140" height="118" viewBox="0 0 140 118" fill="none" xmlns="http://www.w3.org/2000/svg">
<g clip-path="url(#clip0)">
<path fill-rule="evenodd" clip-rule="evenodd" d="M77.4972 19.6524H114.668V57.1706L67.6413 103.919C66.6786 104.874 65.3843 105.408 64.0362 105.408C62.6881 105.408 61.3938 104.874 60.4311 103.919L31.2295 74.4919C30.7468 74.0077 30.3636 73.4316 30.1021 72.797C29.8407 72.1623 29.7061 71.4815 29.7061 70.7939C29.7061 70.1064 29.8407 69.4256 30.1021 68.7909C30.3636 68.1562 30.7468 67.5802 31.2295 67.096L77.4972 19.6524ZM90.3076 44.236C91.0149 45.0036 91.8677 45.6193 92.8154 46.0463C93.763 46.4733 94.786 46.7029 95.8232 46.7214C96.8605 46.7399 97.8909 46.5469 98.8528 46.154C99.8147 45.7611 100.689 45.1762 101.422 44.4343C102.156 43.6925 102.734 42.8088 103.123 41.836C103.511 40.8632 103.702 39.8212 103.684 38.7722C103.665 37.7232 103.438 36.6887 103.016 35.7303C102.594 34.772 101.985 33.9095 101.226 33.1942C99.7616 31.8142 97.8246 31.0629 95.8232 31.0986C93.8219 31.1343 91.9123 31.9543 90.4969 33.3857C89.0815 34.8171 88.2707 36.7482 88.2354 38.7722C88.2001 40.7962 88.943 42.755 90.3076 44.236Z" fill="#C0C6CF"/>
<mask id="mask0" mask-type="alpha" maskUnits="userSpaceOnUse" x="80" y="69" width="49" height="49">
<path fill-rule="evenodd" clip-rule="evenodd" d="M129 69.6218L129 69L128.034 69L129 69.6218ZM121.794 69L124.426 69L129 71.9439L129 73.6385L121.794 69ZM115.554 69L118.187 69L129 75.9602L129 77.6548L115.554 69ZM109.314 69L111.947 69L129 79.9767L129 81.6713L109.314 69ZM103.074 69L105.707 69L129 83.9933L129 85.6879L103.074 69ZM96.8348 69L99.4674 69L129 88.0095L129 89.7041L96.8348 69ZM90.5952 69L93.2279 69L129 92.0258L129 93.7204L90.5952 69ZM84.355 69L86.9876 69L129 96.0425L129 97.7371L84.355 69ZM80.0001 70.2129L80.0001 69L80.7484 69L129 100.059L129 101.753L80.0001 70.2129ZM80.0001 74.2292L80.0001 72.5346L129 104.075L129 105.769L80.0001 74.2292ZM80.0001 78.2461L80.0001 76.5515L129 108.092L129 109.786L80.0001 78.2461ZM80.0001 82.2623L80.0001 80.5677L129 112.108L129 113.803L80.0001 82.2623ZM80.0001 86.2785L80.0001 84.5839L129 116.124L129 117.819L80.0001 86.2785ZM80.0001 90.2951L80.0001 88.6005L125.674 118L123.042 118L80.0001 90.2951ZM80.0001 94.3112L80.0001 92.6166L119.435 118L116.802 118L80.0001 94.3112ZM80.0001 98.3276L80.0001 96.633L113.195 118L110.563 118L80.0001 98.3276ZM80.0001 102.344L80.0001 100.65L106.955 118L104.323 118L80.0001 102.344ZM80.0001 106.361L80.0001 104.666L100.715 118L98.0828 118L80.0001 106.361ZM80.0001 110.377L80.0001 108.682L94.4757 118L91.843 118L80.0001 110.377ZM80.0001 114.393L80.0001 112.699L88.2359 118L85.6033 118L80.0001 114.393ZM81.9962 118L80.0001 118L80.0001 116.715L81.9962 118Z" fill="#C4C4C4"/>
</mask>
<g mask="url(#mask0)">
<rect x="79.6736" y="68.7835" width="50.0243" height="49.1311" fill="#747E8C"/>
</g>
<path fill-rule="evenodd" clip-rule="evenodd" d="M73.5932 33.5576C73.5048 34.8447 73.3389 36.1104 73.1 37.3501H11.4802C11.2413 36.1104 11.0754 34.8447 10.9871 33.5576H73.5932ZM14.5965 46.1427C13.9456 44.9243 13.3726 43.6578 12.8844 42.3501H71.6958C71.2076 43.6578 70.6347 44.9243 69.9837 46.1427H14.5965ZM17.9189 51.1427C19.0262 52.5064 20.2457 53.7754 21.5632 54.9355H63.017C64.3346 53.7754 65.5541 52.5064 66.6614 51.1427H17.9189ZM42.2901 62.7552C37.6459 62.7552 33.2373 61.7462 29.2717 59.9355H55.3086C51.3429 61.7462 46.9343 62.7552 42.2901 62.7552ZM11.0375 28.5576C11.1523 27.2694 11.3449 26.0035 11.6106 24.7648H72.9697C73.2354 26.0035 73.428 27.2694 73.5427 28.5576H11.0375ZM14.9482 15.9724C14.2615 17.1885 13.6537 18.4549 13.1315 19.7648H71.4487C70.9265 18.4549 70.3187 17.1885 69.632 15.9724H14.9482ZM18.4528 10.9724C19.6284 9.60041 20.9203 8.33108 22.3133 7.17974H62.2669C63.6599 8.33108 64.9519 9.60041 66.1274 10.9724H18.4528ZM42.2901 0C46.3548 0 50.2391 0.772894 53.8038 2.17974H30.7764C34.3412 0.772894 38.2254 0 42.2901 0Z" fill="#747E8C"/>
<mask id="mask1" mask-type="alpha" maskUnits="userSpaceOnUse" x="24" y="14" width="96" height="97">
<path fill-rule="evenodd" clip-rule="evenodd" d="M77.4972 19.6524H114.668V57.1706L67.6413 103.919C66.6786 104.874 65.3843 105.408 64.0362 105.408C62.6881 105.408 61.3938 104.874 60.4311 103.919L31.2295 74.4919C30.7468 74.0077 30.3636 73.4316 30.1021 72.797C29.8407 72.1623 29.7061 71.4815 29.7061 70.7939C29.7061 70.1064 29.8407 69.4256 30.1021 68.7909C30.3636 68.1562 30.7468 67.5802 31.2295 67.096L77.4972 19.6524ZM90.3076 44.236C91.0149 45.0036 91.8677 45.6193 92.8154 46.0463C93.763 46.4733 94.786 46.7029 95.8232 46.7214C96.8605 46.7399 97.8909 46.5469 98.8528 46.154C99.8147 45.7611 100.689 45.1762 101.422 44.4343C102.156 43.6925 102.734 42.8088 103.123 41.836C103.511 40.8632 103.702 39.8212 103.684 38.7722C103.665 37.7232 103.438 36.6887 103.016 35.7303C102.594 34.772 101.985 33.9095 101.226 33.1942C99.7616 31.8142 97.8246 31.0629 95.8232 31.0986C93.8219 31.1343 91.9123 31.9543 90.4969 33.3857C89.0815 34.8171 88.2707 36.7482 88.2354 38.7722C88.2001 40.7962 88.943 42.755 90.3076 44.236Z" fill="#C0C6CF"/>
</mask>
<g mask="url(#mask1)">
<path fill-rule="evenodd" clip-rule="evenodd" d="M73.5929 33.5576C73.5046 34.8447 73.3387 36.1104 73.0998 37.3501H11.48C11.2411 36.1104 11.0751 34.8447 10.9868 33.5576H73.5929ZM14.5963 46.1427C13.9453 44.9243 13.3724 43.6578 12.8842 42.3501H71.6955C71.2074 43.6578 70.6344 44.9243 69.9834 46.1427H14.5963ZM17.9186 51.1427C19.0259 52.5064 20.2454 53.7754 21.563 54.9355H63.0167C64.3343 53.7754 65.5538 52.5064 66.6611 51.1427H17.9186ZM42.2899 62.7552C37.6457 62.7552 33.2371 61.7462 29.2714 59.9355H55.3083C51.3427 61.7462 46.9341 62.7552 42.2899 62.7552ZM11.0373 28.5576C11.152 27.2694 11.3446 26.0035 11.6103 24.7648H72.9694C73.2351 26.0035 73.4277 27.2694 73.5425 28.5576H11.0373ZM14.9479 15.9724C14.2613 17.1885 13.6534 18.4549 13.1313 19.7648H71.4484C70.9263 18.4549 70.3184 17.1885 69.6318 15.9724H14.9479ZM18.4526 10.9724C19.6281 9.60041 20.9201 8.33108 22.3131 7.17974H62.2666C63.6597 8.33108 64.9516 9.60041 66.1272 10.9724H18.4526ZM42.2899 0C46.3546 0 50.2388 0.772894 53.8036 2.17974H30.7762C34.3409 0.772894 38.2251 0 42.2899 0Z" fill="white"/>
</g>
</g>
<defs>
<clipPath id="clip0">
<rect width="140" height="118" fill="white"/>
</clipPath>
</defs>
</svg>
