<svg width="76" height="76" viewBox="0 0 76 76" fill="none" xmlns="http://www.w3.org/2000/svg">
<path d="M44.5182 44.7601C44.5182 45.1793 44.1784 45.5192 43.7591 45.5192C43.3399 45.5192 43 45.1793 43 44.7601C43 44.3408 43.3399 44.001 43.7591 44.001C44.1784 44.001 44.5182 44.3408 44.5182 44.7601Z" fill="#777E8B"/>
<path d="M47.8008 44.7591C47.8008 45.1784 47.4609 45.5182 47.0417 45.5182C46.6224 45.5182 46.2826 45.1784 46.2826 44.7591C46.2826 44.3399 46.6224 44 47.0417 44C47.4609 44 47.8008 44.3399 47.8008 44.7591Z" fill="#777E8B"/>
<path d="M51.0834 44.7591C51.0834 45.1784 50.7435 45.5182 50.3243 45.5182C49.905 45.5182 49.5652 45.1784 49.5652 44.7591C49.5652 44.3399 49.905 44 50.3243 44C50.7435 44 51.0834 44.3399 51.0834 44.7591Z" fill="#777E8B"/>
<path d="M54.366 44.7591C54.366 45.1784 54.0261 45.5182 53.6069 45.5182C53.1876 45.5182 52.8477 45.1784 52.8477 44.7591C52.8477 44.3399 53.1876 44 53.6069 44C54.0261 44 54.366 44.3399 54.366 44.7591Z" fill="#777E8B"/>
<path d="M57.6485 44.7591C57.6485 45.1784 57.3087 45.5182 56.8894 45.5182C56.4702 45.5182 56.1303 45.1784 56.1303 44.7591C56.1303 44.3399 56.4702 44 56.8894 44C57.3087 44 57.6485 44.3399 57.6485 44.7591Z" fill="#777E8B"/>
<path d="M44.5182 48.0418C44.5182 48.4611 44.1784 48.8009 43.7591 48.8009C43.3399 48.8009 43 48.4611 43 48.0418C43 47.6226 43.3399 47.2827 43.7591 47.2827C44.1784 47.2827 44.5182 47.6226 44.5182 48.0418Z" fill="#777E8B"/>
<path d="M47.8008 48.0418C47.8008 48.4611 47.4609 48.8009 47.0417 48.8009C46.6224 48.8009 46.2826 48.4611 46.2826 48.0418C46.2826 47.6226 46.6224 47.2827 47.0417 47.2827C47.4609 47.2827 47.8008 47.6226 47.8008 48.0418Z" fill="#777E8B"/>
<path d="M51.0834 48.0418C51.0834 48.4611 50.7435 48.8009 50.3243 48.8009C49.905 48.8009 49.5652 48.4611 49.5652 48.0418C49.5652 47.6226 49.905 47.2827 50.3243 47.2827C50.7435 47.2827 51.0834 47.6226 51.0834 48.0418Z" fill="#777E8B"/>
<path d="M54.366 48.0418C54.366 48.4611 54.0261 48.8009 53.6069 48.8009C53.1876 48.8009 52.8477 48.4611 52.8477 48.0418C52.8477 47.6226 53.1876 47.2827 53.6069 47.2827C54.0261 47.2827 54.366 47.6226 54.366 48.0418Z" fill="#777E8B"/>
<path d="M44.5182 51.324C44.5182 51.7433 44.1784 52.0832 43.7591 52.0832C43.3399 52.0832 43 51.7433 43 51.324C43 50.9048 43.3399 50.5649 43.7591 50.5649C44.1784 50.5649 44.5182 50.9048 44.5182 51.324Z" fill="#777E8B"/>
<path d="M47.8008 51.324C47.8008 51.7433 47.4609 52.0832 47.0417 52.0832C46.6224 52.0832 46.2826 51.7433 46.2826 51.324C46.2826 50.9048 46.6224 50.5649 47.0417 50.5649C47.4609 50.5649 47.8008 50.9048 47.8008 51.324Z" fill="#777E8B"/>
<path d="M51.0834 51.324C51.0834 51.7433 50.7435 52.0832 50.3243 52.0832C49.905 52.0832 49.5652 51.7433 49.5652 51.324C49.5652 50.9048 49.905 50.5649 50.3243 50.5649C50.7435 50.5649 51.0834 50.9048 51.0834 51.324Z" fill="#777E8B"/>
<path d="M54.366 51.324C54.366 51.7433 54.0261 52.0832 53.6069 52.0832C53.1876 52.0832 52.8477 51.7433 52.8477 51.324C52.8477 50.9048 53.1876 50.5649 53.6069 50.5649C54.0261 50.5649 54.366 50.9048 54.366 51.324Z" fill="#777E8B"/>
<path d="M44.5182 54.6068C44.5182 55.026 44.1784 55.3659 43.7591 55.3659C43.3399 55.3659 43 55.026 43 54.6068C43 54.1875 43.3399 53.8477 43.7591 53.8477C44.1784 53.8477 44.5182 54.1875 44.5182 54.6068Z" fill="#777E8B"/>
<path d="M47.8008 54.6068C47.8008 55.026 47.4609 55.3659 47.0417 55.3659C46.6224 55.3659 46.2826 55.026 46.2826 54.6068C46.2826 54.1875 46.6224 53.8477 47.0417 53.8477C47.4609 53.8477 47.8008 54.1875 47.8008 54.6068Z" fill="#777E8B"/>
<path d="M51.0834 54.6068C51.0834 55.026 50.7435 55.3659 50.3243 55.3659C49.905 55.3659 49.5652 55.026 49.5652 54.6068C49.5652 54.1875 49.905 53.8477 50.3243 53.8477C50.7435 53.8477 51.0834 54.1875 51.0834 54.6068Z" fill="#777E8B"/>
<path d="M54.366 54.6068C54.366 55.026 54.0261 55.3659 53.6069 55.3659C53.1876 55.3659 52.8477 55.026 52.8477 54.6068C52.8477 54.1875 53.1876 53.8477 53.6069 53.8477C54.0261 53.8477 54.366 54.1875 54.366 54.6068Z" fill="#777E8B"/>
<path d="M44.5182 57.6156C44.5182 58.0348 44.1784 58.3747 43.7591 58.3747C43.3399 58.3747 43 58.0348 43 57.6156C43 57.1963 43.3399 56.8564 43.7591 56.8564C44.1784 56.8564 44.5182 57.1963 44.5182 57.6156Z" fill="#777E8B"/>
<path d="M47.8008 57.6156C47.8008 58.0348 47.4609 58.3747 47.0417 58.3747C46.6224 58.3747 46.2826 58.0348 46.2826 57.6156C46.2826 57.1963 46.6224 56.8564 47.0417 56.8564C47.4609 56.8564 47.8008 57.1963 47.8008 57.6156Z" fill="#777E8B"/>
<path d="M51.0834 57.6156C51.0834 58.0348 50.7435 58.3747 50.3243 58.3747C49.905 58.3747 49.5652 58.0348 49.5652 57.6156C49.5652 57.1963 49.905 56.8564 50.3243 56.8564C50.7435 56.8564 51.0834 57.1963 51.0834 57.6156Z" fill="#777E8B"/>
<path d="M54.366 57.6156C54.366 58.0348 54.0261 58.3747 53.6069 58.3747C53.1876 58.3747 52.8477 58.0348 52.8477 57.6156C52.8477 57.1963 53.1876 56.8564 53.6069 56.8564C54.0261 56.8564 54.366 57.1963 54.366 57.6156Z" fill="#777E8B"/>
<path d="M44.5182 61.1585C44.5182 61.5778 44.1784 61.9176 43.7591 61.9176C43.3399 61.9176 43 61.5778 43 61.1585C43 60.7393 43.3399 60.3994 43.7591 60.3994C44.1784 60.3994 44.5182 60.7393 44.5182 61.1585Z" fill="#777E8B"/>
<path d="M47.8008 61.158C47.8008 61.5773 47.4609 61.9171 47.0417 61.9171C46.6224 61.9171 46.2826 61.5773 46.2826 61.158C46.2826 60.7388 46.6224 60.3989 47.0417 60.3989C47.4609 60.3989 47.8008 60.7388 47.8008 61.158Z" fill="#777E8B"/>
<path d="M51.0834 61.158C51.0834 61.5773 50.7435 61.9171 50.3242 61.9171C49.905 61.9171 49.5651 61.5773 49.5651 61.158C49.5651 60.7388 49.905 60.3989 50.3242 60.3989C50.7435 60.3989 51.0834 60.7388 51.0834 61.158Z" fill="#777E8B"/>
<path d="M54.3659 61.158C54.3659 61.5773 54.0261 61.9171 53.6068 61.9171C53.1876 61.9171 52.8477 61.5773 52.8477 61.158C52.8477 60.7388 53.1876 60.3989 53.6068 60.3989C54.0261 60.3989 54.3659 60.7388 54.3659 61.158Z" fill="#777E8B"/>
<path d="M44.5182 64.4407C44.5182 64.86 44.1783 65.1999 43.7591 65.1999C43.3398 65.1999 43 64.86 43 64.4407C43 64.0215 43.3398 63.6816 43.7591 63.6816C44.1783 63.6816 44.5182 64.0215 44.5182 64.4407Z" fill="#777E8B"/>
<path d="M44.5182 67.723C44.5182 68.1422 44.1783 68.4821 43.7591 68.4821C43.3398 68.4821 43 68.1422 43 67.723C43 67.3037 43.3398 66.9639 43.7591 66.9639C44.1783 66.9639 44.5182 67.3037 44.5182 67.723Z" fill="#777E8B"/>
<path d="M44.5182 71.0057C44.5182 71.4249 44.1783 71.7648 43.7591 71.7648C43.3398 71.7648 43 71.4249 43 71.0057C43 70.5864 43.3398 70.2466 43.7591 70.2466C44.1783 70.2466 44.5182 70.5864 44.5182 71.0057Z" fill="#777E8B"/>
<path d="M44.5182 74.015C44.5182 74.4342 44.1783 74.7741 43.7591 74.7741C43.3398 74.7741 43 74.4342 43 74.015C43 73.5957 43.3398 73.2559 43.7591 73.2559C44.1783 73.2559 44.5182 73.5957 44.5182 74.015Z" fill="#777E8B"/>
<path d="M47.8008 74.015C47.8008 74.4342 47.4609 74.7741 47.0417 74.7741C46.6224 74.7741 46.2826 74.4342 46.2826 74.015C46.2826 73.5957 46.6224 73.2559 47.0417 73.2559C47.4609 73.2559 47.8008 73.5957 47.8008 74.015Z" fill="#777E8B"/>
<path d="M51.0834 74.015C51.0834 74.4342 50.7435 74.7741 50.3242 74.7741C49.905 74.7741 49.5651 74.4342 49.5651 74.015C49.5651 73.5957 49.905 73.2559 50.3242 73.2559C50.7435 73.2559 51.0834 73.5957 51.0834 74.015Z" fill="#777E8B"/>
<path d="M54.3659 74.015C54.3659 74.4342 54.0261 74.7741 53.6068 74.7741C53.1876 74.7741 52.8477 74.4342 52.8477 74.015C52.8477 73.5957 53.1876 73.2559 53.6068 73.2559C54.0261 73.2559 54.3659 73.5957 54.3659 74.015Z" fill="#777E8B"/>
<path d="M57.6485 74.015C57.6485 74.4342 57.3086 74.7741 56.8894 74.7741C56.4702 74.7741 56.1303 74.4342 56.1303 74.015C56.1303 73.5957 56.4702 73.2559 56.8894 73.2559C57.3086 73.2559 57.6485 73.5957 57.6485 74.015Z" fill="#777E8B"/>
<path d="M61.191 44.7596C61.191 45.1788 60.8512 45.5187 60.4319 45.5187C60.0127 45.5187 59.6728 45.1788 59.6728 44.7596C59.6728 44.3404 60.0127 44.0005 60.4319 44.0005C60.8512 44.0005 61.191 44.3404 61.191 44.7596Z" fill="#777E8B"/>
<path d="M64.4736 44.7591C64.4736 45.1784 64.1337 45.5182 63.7145 45.5182C63.2953 45.5182 62.9554 45.1784 62.9554 44.7591C62.9554 44.3399 63.2953 44 63.7145 44C64.1337 44 64.4736 44.3399 64.4736 44.7591Z" fill="#777E8B"/>
<path d="M67.7562 44.7591C67.7562 45.1784 67.4163 45.5182 66.9971 45.5182C66.5779 45.5182 66.238 45.1784 66.238 44.7591C66.238 44.3399 66.5779 44 66.9971 44C67.4163 44 67.7562 44.3399 67.7562 44.7591Z" fill="#777E8B"/>
<path d="M71.0388 44.7591C71.0388 45.1784 70.6989 45.5182 70.2797 45.5182C69.8604 45.5182 69.5206 45.1784 69.5206 44.7591C69.5206 44.3399 69.8604 44 70.2797 44C70.6989 44 71.0388 44.3399 71.0388 44.7591Z" fill="#777E8B"/>
<path d="M74.3214 44.7591C74.3214 45.1784 73.9815 45.5182 73.5623 45.5182C73.143 45.5182 72.8031 45.1784 72.8031 44.7591C72.8031 44.3399 73.143 44 73.5623 44C73.9815 44 74.3214 44.3399 74.3214 44.7591Z" fill="#777E8B"/>
<path d="M74.3214 48.0418C74.3214 48.4611 73.9815 48.8009 73.5623 48.8009C73.143 48.8009 72.8031 48.4611 72.8031 48.0418C72.8031 47.6226 73.143 47.2827 73.5623 47.2827C73.9815 47.2827 74.3214 47.6226 74.3214 48.0418Z" fill="#777E8B"/>
<path d="M74.3214 51.324C74.3214 51.7433 73.9815 52.0832 73.5623 52.0832C73.143 52.0832 72.8031 51.7433 72.8031 51.324C72.8031 50.9048 73.143 50.5649 73.5623 50.5649C73.9815 50.5649 74.3214 50.9048 74.3214 51.324Z" fill="#777E8B"/>
<path d="M74.3214 54.6068C74.3214 55.026 73.9815 55.3659 73.5623 55.3659C73.143 55.3659 72.8031 55.026 72.8031 54.6068C72.8031 54.1875 73.143 53.8477 73.5623 53.8477C73.9815 53.8477 74.3214 54.1875 74.3214 54.6068Z" fill="#777E8B"/>
<path d="M74.3214 57.6156C74.3214 58.0348 73.9815 58.3747 73.5623 58.3747C73.143 58.3747 72.8031 58.0348 72.8031 57.6156C72.8031 57.1963 73.143 56.8564 73.5623 56.8564C73.9815 56.8564 74.3214 57.1963 74.3214 57.6156Z" fill="#777E8B"/>
<path d="M74.3214 61.158C74.3214 61.5773 73.9815 61.9171 73.5623 61.9171C73.143 61.9171 72.8031 61.5773 72.8031 61.158C72.8031 60.7388 73.143 60.3989 73.5623 60.3989C73.9815 60.3989 74.3214 60.7388 74.3214 61.158Z" fill="#777E8B"/>
<path d="M74.3214 64.4407C74.3214 64.86 73.9815 65.1999 73.5623 65.1999C73.143 65.1999 72.8031 64.86 72.8031 64.4407C72.8031 64.0215 73.143 63.6816 73.5623 63.6816C73.9815 63.6816 74.3214 64.0215 74.3214 64.4407Z" fill="#777E8B"/>
<path d="M74.3214 67.723C74.3214 68.1422 73.9815 68.4821 73.5623 68.4821C73.143 68.4821 72.8031 68.1422 72.8031 67.723C72.8031 67.3037 73.143 66.9639 73.5623 66.9639C73.9815 66.9639 74.3214 67.3037 74.3214 67.723Z" fill="#777E8B"/>
<path d="M74.3214 71.0057C74.3214 71.4249 73.9815 71.7648 73.5623 71.7648C73.143 71.7648 72.8031 71.4249 72.8031 71.0057C72.8031 70.5864 73.143 70.2466 73.5623 70.2466C73.9815 70.2466 74.3214 70.5864 74.3214 71.0057Z" fill="#777E8B"/>
<path d="M61.1911 74.015C61.1911 74.4342 60.8512 74.7741 60.4319 74.7741C60.0127 74.7741 59.6728 74.4342 59.6728 74.015C59.6728 73.5957 60.0127 73.2559 60.4319 73.2559C60.8512 73.2559 61.1911 73.5957 61.1911 74.015Z" fill="#777E8B"/>
<path d="M64.4736 74.015C64.4736 74.4342 64.1337 74.7741 63.7145 74.7741C63.2953 74.7741 62.9554 74.4342 62.9554 74.015C62.9554 73.5957 63.2953 73.2559 63.7145 73.2559C64.1337 73.2559 64.4736 73.5957 64.4736 74.015Z" fill="#777E8B"/>
<path d="M67.7562 74.015C67.7562 74.4342 67.4163 74.7741 66.9971 74.7741C66.5779 74.7741 66.238 74.4342 66.238 74.015C66.238 73.5957 66.5779 73.2559 66.9971 73.2559C67.4163 73.2559 67.7562 73.5957 67.7562 74.015Z" fill="#777E8B"/>
<path d="M71.0388 74.015C71.0388 74.4342 70.6989 74.7741 70.2797 74.7741C69.8604 74.7741 69.5206 74.4342 69.5206 74.015C69.5206 73.5957 69.8604 73.2559 70.2797 73.2559C70.6989 73.2559 71.0388 73.5957 71.0388 74.015Z" fill="#777E8B"/>
<path d="M74.3214 74.015C74.3214 74.4342 73.9815 74.7741 73.5623 74.7741C73.143 74.7741 72.8031 74.4342 72.8031 74.015C72.8031 73.5957 73.143 73.2559 73.5623 73.2559C73.9815 73.2559 74.3214 73.5957 74.3214 74.015Z" fill="#777E8B"/>
<path d="M15 19.9083C15 17.7498 16.7498 16 18.9083 16H57.9917C60.1502 16 61.9 17.7498 61.9 19.9083V58.9917C61.9 61.1502 60.1502 62.9 57.9917 62.9H18.9083C16.7498 62.9 15 61.1502 15 58.9917V19.9083Z" fill="#A5ACB9"/>
<path fill-rule="evenodd" clip-rule="evenodd" d="M50.175 36.955L38.0057 49.0774L31.5221 42.6188L24.2407 49.8721L21.5139 47.1559L31.5221 37.1863L38.0057 43.6449L47.4482 34.2388L50.175 36.955Z" fill="white"/>
<path fill-rule="evenodd" clip-rule="evenodd" d="M52.1506 42.1882L53.1242 31.4796L42.3474 32.385L52.1506 42.1882Z" fill="white"/>
<path fill-rule="evenodd" clip-rule="evenodd" d="M30 16.0422C29.9577 16.6574 29.8782 17.2625 29.7637 17.8551H0.236315C0.121837 17.2625 0.0423231 16.6574 0 16.0422H30ZM1.72962 22.0584C1.41767 21.476 1.14313 20.8705 0.909202 20.2454H29.0908C28.8569 20.8705 28.5823 21.476 28.2704 22.0584H1.72962ZM3.32162 24.4487C3.85223 25.1006 4.43659 25.7072 5.06796 26.2618H24.932C25.5634 25.7072 26.1478 25.1006 26.6784 24.4487H3.32162ZM15 30C12.7746 30 10.662 29.5177 8.76174 28.6521H21.2383C19.338 29.5177 17.2254 30 15 30ZM29.9758 13.6519H0.0241755C0.0791597 13.0361 0.171451 12.4309 0.298779 11.8388H29.7012C29.8285 12.4309 29.9208 13.0361 29.9758 13.6519ZM28.9724 9.44854H1.02761C1.27781 8.82234 1.56909 8.21691 1.89812 7.63557H28.1019C28.4309 8.21691 28.7222 8.82234 28.9724 9.44854ZM26.4225 5.24533C25.8592 4.58945 25.2401 3.98266 24.5726 3.43226H5.4274C4.75988 3.98266 4.14079 4.58945 3.57748 5.24533H26.4225ZM20.5172 1.04202H9.48279C11.191 0.36948 13.0522 0 15 0C16.9478 0 18.809 0.36948 20.5172 1.04202Z" fill="#777E8B"/>
</svg>
