<?xml version="1.0" encoding="UTF-8"?>
<svg focusable="false" width="48px" height="48px" viewBox="0 0 48 48" version="1.1" xmlns="http://www.w3.org/2000/svg" xmlns:xlink="http://www.w3.org/1999/xlink">
    <!-- Generator: Sketch 48.2 (47327) - http://www.bohemiancoding.com/sketch -->
    <title>Imported Data Table</title>
    <desc>Created with Sketch.</desc>
    <defs></defs>
    <g id="Symbols" stroke="none" stroke-width="1" fill="none" fill-rule="evenodd">
        <g id="Imported-Data-Table">
            <g id="Data-Table-Icon">
                <rect id="Rectangle-16" x="0" y="0" width="48" height="48"></rect>
                <g id="Group" transform="translate(2.000000, 17.000000)" fill="#E0E0E0">
                    <polygon id="Rectangle-16-Copy-5" points="0 0 10.1538462 0 10.1538462 5 0 5"></polygon>
                    <polygon id="Rectangle-16-Copy-7" points="11.2820513 0 21.4358974 0 21.4358974 5 11.2820513 5"></polygon>
                    <polygon id="Rectangle-16-Copy-8" points="22.5641026 0 32.7179487 0 32.7179487 5 22.5641026 5"></polygon>
                    <polygon id="Rectangle-16-Copy-9" points="33.8461538 0 44 0 44 5 33.8461538 5"></polygon>
                </g>
                <g id="Group-Copy" transform="translate(2.000000, 23.000000)" fill="#E0E0E0">
                    <polygon id="Rectangle-16-Copy-5" points="0 0 10.1538462 0 10.1538462 5 0 5"></polygon>
                    <polygon id="Rectangle-16-Copy-7" points="11.2820513 0 21.4358974 0 21.4358974 5 11.2820513 5"></polygon>
                    <polygon id="Rectangle-16-Copy-8" points="22.5641026 0 32.7179487 0 32.7179487 5 22.5641026 5"></polygon>
                    <polygon id="Rectangle-16-Copy-9" points="33.8461538 0 44 0 44 5 33.8461538 5"></polygon>
                </g>
                <g id="Group-Copy-2" transform="translate(2.000000, 29.000000)" fill="#E0E0E0">
                    <polygon id="Rectangle-16-Copy-5" points="0 0 10.1538462 0 10.1538462 5 0 5"></polygon>
                    <polygon id="Rectangle-16-Copy-7" points="11.2820513 0 21.4358974 0 21.4358974 5 11.2820513 5"></polygon>
                    <polygon id="Rectangle-16-Copy-8" points="22.5641026 0 32.7179487 0 32.7179487 5 22.5641026 5"></polygon>
                    <polygon id="Rectangle-16-Copy-9" points="33.8461538 0 44 0 44 5 33.8461538 5"></polygon>
                </g>
                <g id="Group-Copy-3" transform="translate(2.000000, 35.000000)" fill="#E0E0E0">
                    <polygon id="Rectangle-16-Copy-5" points="0 0 10.1538462 0 10.1538462 5 0 5"></polygon>
                    <polygon id="Rectangle-16-Copy-7" points="11.2820513 0 21.4358974 0 21.4358974 5 11.2820513 5"></polygon>
                    <polygon id="Rectangle-16-Copy-8" points="22.5641026 0 32.7179487 0 32.7179487 5 22.5641026 5"></polygon>
                    <polygon id="Rectangle-16-Copy-9" points="33.8461538 0 44 0 44 5 33.8461538 5"></polygon>
                </g>
                <rect id="Rectangle-16-Copy-3" fill="#757575" x="2" y="8" width="44" height="7"></rect>
            </g>
            <g id="Advanced-Search-Button" transform="translate(0.000000, 20.500000)">
                <circle id="Oval-7" fill="#38B070" cx="8" cy="8" r="8"></circle>
                <g id="Group-9" transform="translate(3.623604, 4.546518)" stroke="#FFFFFF" stroke-linecap="round">
                    <path d="M7.75757576,3.30037214 L4.46580864,0.00860502355" id="Path-6"></path>
                    <path d="M7.75757576,6.56671983 L4.46580864,3.27495271" id="Path-6" transform="translate(6.111692, 4.920836) scale(1, -1) translate(-6.111692, -4.920836) "></path>
                    <path d="M-9.095e-13,3.30037214 L7.3492823,3.30037214" id="Path-4"></path>
                </g>
            </g>
        </g>
    </g>
</svg>