<?xml version="1.0" encoding="UTF-8"?>
<svg focusable="false" width="48px" height="48px" viewBox="0 0 48 48" version="1.1" xmlns="http://www.w3.org/2000/svg" xmlns:xlink="http://www.w3.org/1999/xlink">
    <!-- Generator: Sketch 48.2 (47327) - http://www.bohemiancoding.com/sketch -->
    <title>Chart Icon/SpotIQ Donut</title>
    <desc>Created with Sketch.</desc>
    <defs></defs>
    <g id="Symbols" stroke="none" stroke-width="1" fill="none" fill-rule="evenodd">
        <g id="Chart-Icon/SpotIQ-Donut">
            <g id="donut_chart_24-copy">
                <rect id="Rectangle-path" x="0" y="0" width="48" height="47.98"></rect>
                <path d="M23,12 L23,2 C11.6184562,2.50658672 2.50658672,11.6184562 2,23 C2,23.32 2,23.66 2,24 C2,24.34 2,24.66 2,25 C2.22785861,30.1385023 4.26036253,35.0320918 7.74,38.82 C8.18286141,39.3228548 8.65714524,39.7971386 9.16,40.24 C12.9473829,43.7356835 17.8508171,45.7764192 23,46 L23,36 C20.5169031,35.7993892 18.1626569,34.8114467 16.28,33.18 C15.7519799,32.7654118 15.2692946,32.2961344 14.84,31.78 C13.2074,29.8727306 12.214117,27.5014422 12,25 C12,24.66 12,24.34 12,24 C11.9795056,23.6669817 11.9795056,23.3330183 12,23 C12.4717055,17.1313415 17.1313415,12.4717055 23,12 Z" id="Shape" fill="#D1D1D1"></path>
                <path d="M25,2 L25,12 C27.4830969,12.2006108 29.8373431,13.1885533 31.72,14.82 L38.82,7.72 C35.0320275,4.24322971 30.1370686,2.21724091 25,2 Z" id="Shape" fill="#6AB7E2"></path>
                <path d="M40.24,9.18 L33.16,16.26 C34.7849463,18.1564107 35.7777395,20.5125466 36,23 L46,23 C45.7717543,17.8577875 43.7313351,12.9621984 40.24,9.18 Z" id="Shape" fill="#9AD5F6"></path>
                <path d="M36,25 C35.5282945,30.8686585 30.8686585,35.5282945 25,36 L25,46 C36.3815438,45.4934133 45.4934133,36.3815438 46,25 L36,25 Z" id="Shape" fill="#D1D1D1"></path>
            </g>
        </g>
    </g>
</svg>