<?xml version="1.0" encoding="UTF-8"?>
<svg focusable="false" width="18px" height="12px" viewBox="0 0 18 12" version="1.1" xmlns="http://www.w3.org/2000/svg" xmlns:xlink="http://www.w3.org/1999/xlink">
    <!-- Generator: Sketch 48.2 (47327) - http://www.bohemiancoding.com/sketch -->
    <title>Views Loading Icon</title>
    <desc>Created with Sketch.</desc>
    <defs></defs>
    <g id="Object-Loader-Card" stroke="none" stroke-width="1" fill="none" fill-rule="evenodd" transform="translate(-214.000000, -194.000000)">
        <g fill="#E6E8EB" id="Views-Loading-Icon">
            <path d="M222.727273,204.363636 C220.317455,204.363636 218.363636,202.409818 218.363636,200 C218.363636,197.590182 220.317455,195.636364 222.727273,195.636364 C225.137091,195.636364 227.090909,197.590182 227.090909,200 C227.090909,202.409818 225.137091,204.363636 222.727273,204.363636 M222.727273,194 C227.546909,194 231.454545,200 231.454545,200 C231.454545,200 227.546909,206 222.727273,206 C217.907636,206 214,200 214,200 C214,200 217.907636,194 222.727273,194 Z M222.727273,197.272727 C221.220727,197.272727 220,198.493455 220,200 C220,201.506545 221.220727,202.727273 222.727273,202.727273 C224.233818,202.727273 225.454545,201.506545 225.454545,200 C225.454545,198.493455 224.233818,197.272727 222.727273,197.272727 Z"></path>
        </g>
    </g>
</svg>