<svg width="58" height="58" viewBox="0 0 58 58" fill="none" xmlns="http://www.w3.org/2000/svg">
<path fill-rule="evenodd" clip-rule="evenodd" d="M25.8615 30.5704C25.5786 30.5704 25.2365 30.5295 24.8366 30.4488C24.4377 30.3658 24.0786 30.2647 23.7605 30.1454V31.4976C24.0355 31.6533 24.3741 31.7771 24.7786 31.8726C25.182 31.9669 25.5865 32.0146 25.9899 32.0146C26.9194 32.0146 27.6467 31.776 28.175 31.2988C28.7046 30.8226 28.9682 30.1749 28.9682 29.3591C28.9682 28.9375 28.9057 28.5784 28.7818 28.2819C28.6568 27.9864 28.4637 27.7171 28.2023 27.4762C27.9387 27.2353 27.5853 26.9955 27.1376 26.7546L26.4422 26.3797C26.0638 26.1751 25.8081 25.9854 25.674 25.8126C25.5422 25.6411 25.474 25.4218 25.474 25.1547C25.474 24.8377 25.5786 24.5877 25.7854 24.4082C25.9899 24.2275 26.274 24.1366 26.6353 24.1366C27.1671 24.1366 27.7819 24.265 28.4796 24.5241V23.1582C27.8091 22.848 27.133 22.6923 26.4547 22.6923C25.9138 22.6923 25.4343 22.798 25.0172 23.0094C24.6002 23.2196 24.2718 23.5207 24.0309 23.9116C23.7911 24.3025 23.6696 24.7604 23.6696 25.2843C23.6696 25.8524 23.8059 26.3331 24.082 26.7285C24.357 27.124 24.8127 27.4933 25.4502 27.8376L26.1444 28.2114C26.4978 28.4 26.749 28.5875 26.899 28.7716C27.049 28.9568 27.1239 29.1818 27.1239 29.4488C27.1239 29.8102 27.0183 30.0863 26.8024 30.2795C26.5876 30.4738 26.274 30.5704 25.8615 30.5704ZM20.7822 27.2183C20.7822 26.2047 20.647 25.4593 20.3754 24.9809C20.1061 24.5048 19.6822 24.265 19.1061 24.265H18.3573V30.442H19.1175C19.6777 30.442 20.0936 30.1988 20.3697 29.7136C20.6436 29.2261 20.7822 28.4807 20.7822 27.4762V27.2183ZM21.7742 24.0207C22.3503 24.7775 22.6378 25.8854 22.6378 27.3467C22.6378 28.8171 22.3548 29.9306 21.7878 30.6874C21.2197 31.4431 20.3947 31.8215 19.3118 31.8215H16.554V22.8866H19.2482C20.3561 22.8866 21.1981 23.265 21.7742 24.0207ZM13.3178 25.6967C13.3178 25.2161 13.2291 24.8513 13.0541 24.6013C12.8769 24.3513 12.6212 24.2275 12.286 24.2275H11.4474V27.1671H12.286C12.6212 27.1671 12.8769 27.0433 13.0541 26.7933C13.2291 26.5433 13.3178 26.1785 13.3178 25.6967ZM13.7564 28.2375L15.5608 31.8215H13.7052L12.1451 28.508H11.4474V31.8215H9.6827V22.8866H12.5053C13.2962 22.8866 13.9257 23.1378 14.3938 23.6412C14.862 24.1434 15.0961 24.8286 15.0961 25.6967C15.0961 26.2979 14.9802 26.8183 14.7495 27.2569C14.5166 27.6955 14.1859 28.0228 13.7564 28.2375ZM48.99 18.9289V14.0939C48.99 13.4666 48.8582 12.9894 48.5968 12.6621C48.3332 12.336 47.9525 12.1735 47.456 12.1735C46.8276 12.1735 46.1708 12.4269 45.4833 12.9337L45.3413 12.3405H43.8971V18.9289H45.6629V13.8234C45.981 13.6166 46.2731 13.5132 46.539 13.5132C46.789 13.5132 46.9651 13.5996 47.0685 13.7711C47.1719 13.9439 47.223 14.2189 47.223 14.5961V18.9289H48.99ZM40.8938 15.6415C40.8938 14.9109 40.8222 14.3734 40.6802 14.0291C40.5392 13.6859 40.3086 13.5132 39.9915 13.5132C39.6734 13.5132 39.4427 13.6859 39.3007 14.0291C39.1598 14.3734 39.0882 14.9109 39.0882 15.6415C39.0882 16.3722 39.1598 16.9074 39.3007 17.246C39.4427 17.5857 39.6734 17.7562 39.9915 17.7562C40.3086 17.7562 40.5392 17.5857 40.6802 17.246C40.8222 16.9074 40.8938 16.3722 40.8938 15.6415ZM41.9642 13.0757C42.4278 13.6768 42.6596 14.5325 42.6596 15.6415C42.6596 16.7415 42.4278 17.5914 41.9642 18.1925C41.5006 18.7959 40.8426 19.0959 39.9915 19.0959C39.1416 19.0959 38.4825 18.7959 38.0178 18.1925C37.5542 17.5914 37.3224 16.7415 37.3224 15.6415C37.3224 14.5325 37.5542 13.6768 38.0178 13.0757C38.4825 12.4735 39.1416 12.1735 39.9915 12.1735C40.8426 12.1735 41.5006 12.4735 41.9642 13.0757ZM31.9465 18.9289H36.5235V17.5744H33.8032L36.4713 13.5916V12.3405H32.0487V13.6939H34.6145L31.9465 17.6778V18.9289ZM29.2636 17.446V16.1824C29.075 16.1222 28.8523 16.0926 28.5932 16.0926C28.3455 16.0926 28.1534 16.1722 28.0205 16.3313C27.8864 16.4892 27.8205 16.721 27.8205 17.0199C27.8205 17.2789 27.8739 17.4823 27.9819 17.6323C28.0898 17.7835 28.233 17.8573 28.4137 17.8573C28.6977 17.8573 28.9807 17.7198 29.2636 17.446ZM28.7364 18.8846C28.4603 19.0255 28.1819 19.0959 27.8978 19.0959C27.3648 19.0959 26.9433 18.9232 26.6353 18.5732C26.3251 18.2266 26.1694 17.7471 26.1694 17.1369C26.1694 16.4915 26.3592 15.9824 26.7376 15.6086C27.116 15.2347 27.6273 15.0484 28.2716 15.0484C28.5375 15.0484 28.8682 15.1006 29.2636 15.2029V14.6097C29.2636 14.1632 29.2057 13.8598 29.0909 13.7007C28.9739 13.5427 28.758 13.4621 28.4398 13.4621C27.9228 13.4621 27.2921 13.5996 26.5456 13.8746V12.7007C26.7933 12.5382 27.1194 12.4098 27.5239 12.3155C27.9273 12.2212 28.3409 12.1735 28.7614 12.1735C29.5091 12.1735 30.0511 12.3428 30.3863 12.6826C30.7215 13.0223 30.8897 13.5655 30.8897 14.3132V18.9289H29.5227L29.3682 18.3357C29.2216 18.5596 29.0102 18.7414 28.7364 18.8846ZM24.9195 18.9289V14.0939C24.9195 13.4746 24.7911 13.0007 24.5332 12.6689C24.2752 12.3383 23.9048 12.1735 23.4241 12.1735C22.823 12.1735 22.1696 12.4348 21.4651 12.9598C21.2151 12.4348 20.7856 12.1735 20.1765 12.1735C19.5743 12.1735 18.9289 12.4269 18.2425 12.9337L18.0994 12.3405H16.6551V18.9289H18.4221V13.8234C18.7391 13.6166 19.0198 13.5132 19.2595 13.5132C19.4925 13.5132 19.6584 13.5996 19.7572 13.7711C19.8561 13.9439 19.905 14.2143 19.905 14.5847V18.9289H21.6708V14.1189V13.9655C21.6708 13.9132 21.6674 13.8666 21.6583 13.8234C21.9765 13.6166 22.2605 13.5132 22.5094 13.5132C22.7412 13.5132 22.906 13.5996 23.006 13.7711C23.1037 13.9439 23.1537 14.2143 23.1537 14.5847V18.9289H24.9195ZM13.0996 15.5131L12.286 11.8121L11.4997 15.5131H13.0996ZM15.8188 18.9289H13.8336L13.3689 16.8017H11.2292L10.7781 18.9289H8.88273L11.3576 9.99518H13.3564L15.8188 18.9289ZM51.7274 35.8236V31.8067C49.7604 32.8782 46.7799 33.4339 43.8118 33.4339C40.8438 33.4339 37.8632 32.8782 35.8974 31.8067V35.8236C35.8974 36.5383 38.5893 38.2144 43.8118 38.2144C49.0343 38.2144 51.7274 36.5383 51.7274 35.8236ZM51.7274 42.7528V38.8598C49.7604 39.9313 46.7799 40.487 43.8118 40.487C40.8438 40.487 37.8632 39.9313 35.8974 38.8598V42.7528C35.8974 43.4675 38.5893 45.1424 43.8118 45.1424C49.0343 45.1424 51.7274 43.4675 51.7274 42.7528ZM51.7274 48.9389V45.789C49.7604 46.8605 46.7799 47.4151 43.8118 47.4151C40.8438 47.4151 37.8632 46.8605 35.8974 45.789V48.9389C35.8974 49.6536 38.5893 51.3297 43.8118 51.3297C49.0343 51.3297 51.7274 49.6536 51.7274 48.9389ZM35.8974 28.7705C35.8974 29.4852 38.5893 31.1613 43.8118 31.1613C49.0343 31.1613 51.7274 29.4852 51.7274 28.7705C51.7274 28.0557 49.0343 26.3797 43.8118 26.3797C38.5893 26.3797 35.8974 28.0557 35.8974 28.7705ZM54 28.7705V48.9389C54 52.0001 48.8741 53.6023 43.8118 53.6023C38.7496 53.6023 33.6248 52.0001 33.6248 48.9389V28.7705C33.6248 25.7092 38.7496 24.1082 43.8118 24.1082C48.8741 24.1082 54 25.7092 54 28.7705ZM10.5383 51.6024H32.9032V53.875H10.5383C6.93282 53.875 4 50.9422 4 47.3367V10.5395C4 6.93396 6.93282 4 10.5383 4H47.3344C50.9399 4 53.8739 6.93396 53.8739 10.5395V24.9706H51.6012V10.5395C51.6012 8.18731 49.6877 6.27262 47.3344 6.27262H10.5383C8.18504 6.27262 6.27262 8.18731 6.27262 10.5395V47.3367C6.27262 49.6888 8.18504 51.6024 10.5383 51.6024Z" fill="#2E27AD"/>
</svg>
