<svg width="52" height="52" viewBox="0 0 52 52" fill="none" xmlns="http://www.w3.org/2000/svg">
<path fill-rule="evenodd" clip-rule="evenodd" d="M3.52669 26.0024C2.89084 26.0024 2.36373 26.5318 2.36373 27.1818C2.36373 27.833 2.89321 28.3636 3.5456 28.3636H13.0005C13.6517 28.3636 14.1824 27.833 14.1824 27.1818C14.1824 26.5306 13.6517 26 13.0005 26C12.3469 26 11.8187 25.4705 11.8187 24.8182C11.8187 24.167 11.288 23.6364 10.6368 23.6364C10.1085 23.6848 9.4892 23.3775 9.31073 22.8658C8.97745 21.9133 8.08514 21.2727 7.09119 21.2727C5.78759 21.2727 4.72746 22.3328 4.72746 23.6364C4.72746 23.8928 4.7771 24.1552 4.87992 24.4365C5.0182 24.817 4.95202 25.2413 4.70501 25.5627C4.458 25.8818 4.05853 26.0532 3.66024 26.0177C3.64487 26.0165 3.54796 26.0047 3.53023 26.0024H3.52669ZM13.0005 30.7273H3.5456C1.58961 30.7273 0 29.1365 0 27.1818C0 25.6395 0.990403 24.3242 2.36846 23.8373C2.36491 23.7699 2.36373 23.7037 2.36373 23.6364C2.36373 21.0293 4.484 18.9091 7.09119 18.9091C8.80608 18.9091 10.3661 19.8486 11.1934 21.3165C12.542 21.5304 13.6399 22.5065 14.0299 23.7888C15.4836 24.2308 16.5461 25.584 16.5461 27.1818C16.5461 29.1365 14.9553 30.7273 13.0005 30.7273ZM31.9104 49.6364C30.2735 49.6364 29.5466 49.1601 29.5466 48.9793V46.9265C30.2215 47.1439 31.0086 47.2727 31.9104 47.2727C32.7968 47.2727 33.591 47.1285 34.2776 46.8886L34.2812 48.9332C34.1878 49.14 33.3747 49.6364 31.9104 49.6364ZM31.9104 43.7273C33.2943 43.7273 34.033 44.0795 34.2398 44.2674C34.0389 44.4966 33.2447 44.9091 31.9104 44.9091C30.3763 44.9091 29.6495 44.4955 29.5466 44.3702V44.3241C29.6885 44.1504 30.4543 43.7273 31.9104 43.7273ZM36.6378 44.252C36.6378 42.5242 34.7374 41.3636 31.9104 41.3636C29.0822 41.3636 27.1829 42.5242 27.1829 44.252C27.1829 44.2745 27.19 44.2957 27.1912 44.3182H27.1829V48.9793C27.1829 50.8146 29.0384 52 31.9104 52C34.6487 52 36.6378 50.7295 36.6378 48.9793V44.3182H36.6284C36.6284 44.2957 36.6378 44.2745 36.6378 44.252ZM31.9104 8.27273C30.2735 8.27273 29.5466 7.79646 29.5466 7.61564V5.56282C30.2215 5.78027 31.0086 5.90909 31.9104 5.90909C32.7968 5.90909 33.591 5.76491 34.2776 5.525L34.2812 7.56955C34.1878 7.77636 33.3747 8.27273 31.9104 8.27273ZM31.9104 2.36364C33.2943 2.36364 34.033 2.71582 34.2398 2.90373C34.0389 3.133 33.2447 3.54545 31.9104 3.54545C30.3763 3.54545 29.6495 3.13182 29.5466 3.00655V2.96045C29.6885 2.78673 30.4543 2.36364 31.9104 2.36364ZM36.6378 2.88836C36.6378 1.16055 34.7374 0 31.9104 0C29.0822 0 27.1829 1.16055 27.1829 2.88836C27.1829 2.91082 27.19 2.93209 27.1912 2.95455H27.1829V7.61564C27.1829 9.451 29.0384 10.6364 31.9104 10.6364C34.6487 10.6364 36.6378 9.36591 36.6378 7.61564V2.95455H36.6284C36.6284 2.93209 36.6378 2.91082 36.6378 2.88836ZM31.9104 20.0909C35.1676 20.0909 37.8197 22.7417 37.8197 26C37.8197 29.2583 35.1676 31.9091 31.9104 31.9091C28.652 31.9091 26.001 29.2583 26.001 26C26.001 22.7417 28.652 20.0909 31.9104 20.0909ZM31.9104 34.2727C36.4712 34.2727 40.1834 30.5618 40.1834 26C40.1834 21.4382 36.4712 17.7273 31.9104 17.7273C27.7514 17.7273 24.3074 20.8154 23.7319 24.8182H17.728V27.1818H23.7319C24.3074 31.1846 27.7514 34.2727 31.9104 34.2727ZM49.0888 43.1777C48.3572 43.9081 47.1659 43.9081 46.4343 43.1777L39.6646 36.4095C40.6727 35.6566 41.5662 34.7632 42.319 33.7551L49.0888 40.5234C49.4433 40.8767 49.6383 41.3483 49.6383 41.8505C49.6383 42.3516 49.4433 42.8232 49.0888 43.1777ZM50.7599 38.8523L43.586 31.6786C44.4263 29.9603 44.9109 28.0386 44.9109 26C44.9109 18.8323 39.0784 13 31.9104 13C25.9715 13 20.9616 17.0064 19.4133 22.4545H21.8941C23.3584 18.33 27.2893 15.3636 31.9104 15.3636C37.776 15.3636 42.5471 20.1358 42.5471 26C42.5471 31.8642 37.776 36.6364 31.9104 36.6364C27.2893 36.6364 23.3584 33.67 21.8941 29.5455H19.4133C20.9616 34.9936 25.9715 39 31.9104 39C33.9479 39 35.8708 38.5155 37.5892 37.6764L44.7631 44.85C45.5893 45.6749 46.6754 46.0885 47.7615 46.0885C48.8477 46.0885 49.9338 45.6749 50.7599 44.8488C52.4134 43.1955 52.4134 40.5045 50.7599 38.8523ZM12.3647 37.0618C11.9628 36.3527 11.5941 35.6117 11.2703 34.8601L13.4425 33.9265C13.7309 34.5989 14.0607 35.2607 14.4211 35.8965L12.3647 37.0618ZM15.2839 41.0942C14.7284 40.482 14.1989 39.8308 13.712 39.1595L15.6254 37.7721C16.0615 38.3736 16.5355 38.9563 17.0342 39.5046L15.2839 41.0942ZM19.0174 44.3867C18.339 43.9093 17.6807 43.3905 17.0602 42.8445L18.6227 41.0705C19.1781 41.5598 19.7691 42.0255 20.3777 42.4533L19.0174 44.3867ZM23.3868 46.7799C22.6209 46.4655 21.8645 46.1051 21.1353 45.7056L22.2687 43.6315C22.9223 43.9896 23.5995 44.3123 24.2838 44.5935L23.3868 46.7799ZM21.77 8.65209L20.5739 6.61227C21.2889 6.19391 22.0359 5.80982 22.7935 5.473L23.7531 7.63336C23.0771 7.93355 22.4093 8.27627 21.77 8.65209ZM18.1972 11.3159L16.5839 9.58927C17.1926 9.02082 17.8355 8.48191 18.4986 7.99027L19.9085 9.88591C19.3176 10.3255 18.742 10.8077 18.1972 11.3159ZM15.2945 14.6995L13.3421 13.3687C13.8065 12.6845 14.3171 12.0191 14.8584 11.388L16.6513 12.9279C16.1679 13.4916 15.7117 14.0873 15.2945 14.6995ZM13.2097 18.6361L11.0103 17.7698C11.314 16.9981 11.665 16.2358 12.055 15.5031L14.141 16.6105C13.7947 17.2652 13.4815 17.9471 13.2097 18.6361Z" fill="#4D27AA"/>
</svg>
