<svg width="57" height="60" viewBox="0 0 57 60" fill="none" xmlns="http://www.w3.org/2000/svg">
<path fill-rule="evenodd" clip-rule="evenodd" d="M50.7704 49.955V46.8025C48.7716 47.8908 45.8095 48.3944 43.1162 48.3944C40.4039 48.3944 37.4541 47.8885 35.4619 46.8025V49.955C35.4619 50.8914 38.4418 52.6806 43.1162 52.6806C47.7894 52.6806 50.7704 50.8914 50.7704 49.955ZM35.4619 30.0082C35.4619 30.7218 38.0661 32.3973 43.1162 32.3973C48.1662 32.3973 50.7704 30.7218 50.7704 30.0082C50.7704 29.2935 48.1662 27.618 43.1162 27.618C38.0661 27.618 35.4619 29.2935 35.4619 30.0082ZM50.7704 33.0888C48.863 34.1621 45.9834 34.7179 43.1162 34.7179C40.2489 34.7179 37.3694 34.1621 35.4619 33.0888V36.8737C36.0617 37.8194 38.9089 39.0458 43.1162 39.0458C47.0169 39.0458 49.9544 37.9656 50.7358 36.9503C50.7503 36.9306 50.757 36.9132 50.7704 36.8946V33.0888ZM35.4619 43.9017C36.0595 44.8497 38.9056 46.0738 43.1162 46.0738C47.4639 46.0738 50.1818 44.8149 50.7704 43.9075V39.7594C48.9444 40.7608 46.1997 41.3664 43.1162 41.3664C40.4061 41.3664 37.4552 40.8594 35.4619 39.7745V43.9017ZM52.9911 29.9224H53V49.955C53 52.7838 48.6578 55.0012 43.1162 55.0012C37.5734 55.0012 33.2323 52.7838 33.2323 49.955V29.9224H33.2401C33.3338 26.887 38.2512 25.2974 43.1162 25.2974C47.9812 25.2974 52.8986 26.887 52.9911 29.9224ZM32.3394 23.3713C32.2045 23.326 32.0428 23.304 31.8578 23.304C31.6805 23.304 31.5434 23.3632 31.4487 23.4815C31.3528 23.601 31.3048 23.7727 31.3048 23.9978C31.3048 24.1893 31.3427 24.3424 31.4208 24.455C31.4977 24.5675 31.6003 24.6232 31.7296 24.6232C31.9325 24.6232 32.1354 24.5211 32.3394 24.3158V23.3713ZM33.5021 25.4227H32.5244L32.413 24.9806C32.3082 25.1465 32.1577 25.2835 31.9615 25.389C31.763 25.4946 31.5635 25.5492 31.3606 25.5492C30.9782 25.5492 30.6783 25.4181 30.4554 25.1581C30.2335 24.8982 30.1232 24.5409 30.1232 24.0837C30.1232 23.6022 30.2592 23.2216 30.5301 22.942C30.7998 22.6635 31.1666 22.5231 31.6281 22.5231C31.8188 22.5231 32.0562 22.5614 32.3394 22.6391V22.1947C32.3394 21.8617 32.297 21.6355 32.2134 21.5171C32.132 21.3976 31.9771 21.3384 31.7485 21.3384C31.3773 21.3384 30.9258 21.4405 30.3918 21.6471V20.7699C30.5702 20.648 30.8032 20.5517 31.093 20.481C31.3818 20.4102 31.6772 20.3742 31.9793 20.3742C32.5144 20.3742 32.9024 20.5018 33.142 20.7548C33.3817 21.0089 33.5021 21.415 33.5021 21.9743V25.4227ZM28.3963 21.8292C28.6616 21.6749 28.9415 21.5983 29.238 21.5983C29.3907 21.5983 29.5546 21.6134 29.7263 21.6471V20.481C29.6271 20.4612 29.529 20.452 29.4309 20.452C29.228 20.452 29.0351 20.5065 28.8534 20.6156C28.6717 20.7246 28.49 20.8975 28.3049 21.1354L28.1656 20.4995H27.1321V25.4227H28.3963V21.8292ZM23.6885 22.9663C23.6885 23.5128 23.7387 23.9131 23.8412 24.1661C23.9416 24.4202 24.1066 24.5467 24.334 24.5467C24.5614 24.5467 24.7275 24.4202 24.8278 24.1661C24.9304 23.9131 24.9806 23.5128 24.9806 22.9663C24.9806 22.4198 24.9304 22.0184 24.8278 21.7619C24.7275 21.5043 24.5614 21.3767 24.334 21.3767C24.1066 21.3767 23.9416 21.5043 23.8412 21.7619C23.7387 22.0184 23.6885 22.4198 23.6885 22.9663ZM22.9226 24.8739C22.5904 24.4248 22.4221 23.789 22.4221 22.9663C22.4221 22.1379 22.5904 21.4997 22.9226 21.0495C23.2537 20.5993 23.7253 20.3742 24.334 20.3742C24.9438 20.3742 25.4142 20.5993 25.7464 21.0495C26.0787 21.4997 26.2459 22.1379 26.2459 22.9663C26.2459 23.789 26.0787 24.4248 25.7464 24.8739C25.4142 25.3241 24.9438 25.5492 24.334 25.5492C23.7253 25.5492 23.2537 25.3241 22.9226 24.8739ZM20.7243 21.8292C20.9896 21.6749 21.2683 21.5983 21.5648 21.5983C21.7187 21.5983 21.8825 21.6134 22.0542 21.6471V20.481C21.9561 20.4612 21.8569 20.452 21.7588 20.452C21.5559 20.452 21.3642 20.5065 21.1813 20.6156C21.0007 20.7246 20.8168 20.8975 20.6328 21.1354L20.4946 20.4995H19.4601V25.4227H20.7243V21.8292ZM14.8158 20.4995V24.0837C14.8158 24.5594 14.905 24.9214 15.0834 25.1721C15.2617 25.4227 15.5237 25.5492 15.8682 25.5492C16.3052 25.5492 16.7611 25.3589 17.2349 24.9806L17.3364 25.4227H18.3709V20.4995H17.1067V24.325C16.9027 24.4736 16.7087 24.5467 16.5237 24.5467C16.3643 24.5467 16.2506 24.4794 16.1826 24.3448C16.1157 24.2102 16.0811 23.9851 16.0811 23.6695V20.4995H14.8158ZM12.2863 22.87L11.7044 20.1039L11.1414 22.87H12.2863ZM12.4714 18.7475L14.235 25.4227H12.8125L12.4803 23.8331H10.9474L10.6242 25.4227H9.26744L11.04 18.7475H12.4714ZM37.9892 15.7887V12.1755C37.9892 11.7067 37.8956 11.3505 37.7083 11.1057C37.5199 10.862 37.2467 10.7402 36.8911 10.7402C36.4407 10.7402 35.9714 10.9293 35.4775 11.3088L35.3761 10.8655H34.3438V15.7887H35.6069V11.9736C35.8354 11.8181 36.0439 11.7415 36.2356 11.7415C36.414 11.7415 36.5388 11.8065 36.6135 11.9342C36.6871 12.063 36.725 12.2683 36.725 12.5514V15.7887H37.9892ZM30.8979 13.3323C30.8979 13.8777 30.9492 14.278 31.0518 14.5321C31.1521 14.785 31.3182 14.9115 31.5456 14.9115C31.7731 14.9115 31.9369 14.785 32.0384 14.5321C32.1398 14.278 32.1911 13.8777 32.1911 13.3323C32.1911 12.7858 32.1398 12.3844 32.0384 12.1279C31.9369 11.8703 31.7731 11.7415 31.5456 11.7415C31.3182 11.7415 31.1521 11.8703 31.0518 12.1279C30.9492 12.3844 30.8979 12.7858 30.8979 13.3323ZM30.1321 15.2399C29.7999 14.7897 29.6338 14.155 29.6338 13.3323C29.6338 12.5027 29.7999 11.8645 30.1321 11.4143C30.4654 10.9641 30.9358 10.7402 31.5456 10.7402C32.1543 10.7402 32.6259 10.9641 32.957 11.4143C33.2892 11.8645 33.4564 12.5027 33.4564 13.3323C33.4564 14.155 33.2892 14.7897 32.957 15.2399C32.6259 15.6889 32.1543 15.914 31.5456 15.914C30.9358 15.914 30.4654 15.6889 30.1321 15.2399ZM29.0607 14.7769H27.1132L29.024 11.7996V10.8655H25.8579V11.8773H27.6962L25.7843 14.8546V15.7887H29.0607V14.7769ZM22.8301 14.3627C22.8301 14.5553 22.868 14.7084 22.9449 14.821C23.0219 14.9324 23.1255 14.9892 23.2537 14.9892C23.4578 14.9892 23.6606 14.886 23.8635 14.6818V13.7361C23.7286 13.692 23.5692 13.6688 23.3842 13.6688C23.2047 13.6688 23.0676 13.728 22.9728 13.8475C22.8769 13.9659 22.8301 14.1387 22.8301 14.3627ZM22.8847 15.914C22.5046 15.914 22.2025 15.7829 21.9806 15.5241C21.7588 15.2631 21.6484 14.9057 21.6484 14.4485C21.6484 13.9682 21.7833 13.5864 22.0542 13.308C22.3251 13.0283 22.6919 12.8879 23.1545 12.8879C23.3429 12.8879 23.5804 12.9274 23.8635 13.004V12.5607C23.8635 12.2266 23.8212 12.0015 23.7398 11.8819C23.6573 11.7636 23.5012 11.7044 23.2738 11.7044C22.9037 11.7044 22.4522 11.8065 21.916 12.0119V11.1347C22.0944 11.0129 22.3273 10.9166 22.6172 10.8458C22.907 10.775 23.2025 10.7402 23.5035 10.7402C24.0386 10.7402 24.4276 10.8667 24.6662 11.1208C24.9081 11.3737 25.0274 11.7798 25.0274 12.3403V15.7887H24.0486L23.9382 15.3455C23.8334 15.5114 23.6818 15.6483 23.4856 15.7539C23.2883 15.8606 23.0888 15.914 22.8847 15.914ZM19.382 11.9342C19.4523 12.063 19.4879 12.266 19.4879 12.5422V15.7887H20.7521V12.1755C20.7521 11.7125 20.6607 11.3575 20.4757 11.1103C20.2906 10.8644 20.0264 10.7402 19.6819 10.7402C19.2516 10.7402 18.7823 10.9363 18.2784 11.3273C18.1 10.9363 17.7912 10.7402 17.3542 10.7402C16.925 10.7402 16.4635 10.9293 15.9696 11.3088L15.8682 10.8655H14.8348V15.7887H16.0989V11.9736C16.3275 11.8181 16.527 11.7415 16.6998 11.7415C16.8648 11.7415 16.9841 11.8065 17.0554 11.9342C17.1246 12.063 17.1614 12.266 17.1614 12.5422V15.7887H18.4255V12.1952V12.0792C18.4255 12.0409 18.4233 12.0049 18.4177 11.9736C18.6452 11.8181 18.848 11.7415 19.0253 11.7415C19.1925 11.7415 19.3107 11.8065 19.382 11.9342ZM12.2863 13.2349L11.7044 10.4699L11.1414 13.2349H12.2863ZM14.235 15.7887H12.8125L12.4803 14.1991H10.9474L10.6242 15.7887H9.26744L11.04 9.1123H12.4714L14.235 15.7887ZM53 10.6857V25.4436H50.7704V10.6857C50.7704 8.2792 48.8897 6.32061 46.5765 6.32061H10.4235C8.11027 6.32061 6.2296 8.2792 6.2296 10.6857V48.3155C6.2296 50.722 8.11027 52.6806 10.4235 52.6806H32.3985V55.0012H10.4235C6.88176 55.0012 4 52.0018 4 48.3155V10.6857C4 6.99939 6.88176 4 10.4235 4H46.5765C50.1182 4 53 6.99939 53 10.6857Z" fill="#2E27AD"/>
</svg>
