<svg width="24" height="24" viewBox="0 0 24 24" fill="none" xmlns="http://www.w3.org/2000/svg">
<path d="M0.950012 14.184L12 20.403L21.919 14.853V17.063L12 22.662L1.51601 16.702L0.951012 17.01V17.78L12 24L23.05 17.782V13.465L22.535 13.156L12 19.118L2.13301 13.465V11.255L12 16.805L23.05 10.587V6.32L22.535 6.012L12 11.974L2.64701 6.681L12 1.388L19.76 5.756L20.428 5.345V4.779L12 0L0.950012 6.27V6.99L12 13.207L21.919 7.657V9.917L12 15.52L1.51601 9.56L0.951012 9.868L0.950012 14.184Z" fill="#ED3C2C"/>
</svg>
