<svg width="35" height="56" viewBox="0 0 35 56" fill="none" xmlns="http://www.w3.org/2000/svg">
<path d="M17.2225 0C15.4195 0 13.7604 0.997399 12.9069 2.5894C12.0629 4.1814 12.1588 6.11866 13.1658 7.61476L15.2565 5.53365C15.1894 5.32266 15.151 5.11167 15.151 4.89109C15.151 3.74984 16.0717 2.82916 17.2129 2.82916C18.3542 2.82916 19.2749 3.74984 19.2749 4.89109C19.2749 6.03235 18.3542 6.95302 17.2129 6.95302C16.9924 6.95302 16.7814 6.91466 16.5704 6.84753L14.4797 8.92864C16.2155 10.1083 18.5076 10.0411 20.1764 8.7752C21.8451 7.50927 22.5164 5.31307 21.8451 3.32786C21.1834 1.33306 19.3132 0 17.2225 0Z" fill="#34A853"/>
<path d="M15.2757 14.2417C15.2757 12.5922 14.7482 10.981 13.7508 9.6671L11.0463 12.3716C11.8903 13.9252 11.593 15.8433 10.3079 17.0613L11.7848 20.6577C13.9522 19.2479 15.2757 16.8311 15.2757 14.2417Z" fill="#FBBC04"/>
<path d="M7.69927 18.1258H7.63214C5.973 18.1258 4.49609 17.0709 3.95902 15.4981C3.42196 13.9252 3.93984 12.1894 5.25373 11.1632C6.56761 10.137 8.38019 10.0699 9.77079 10.9906L12.4561 8.30527C9.84752 6.1858 6.16481 6.02276 3.37401 7.90248C0.583211 9.78219 -0.644357 13.2539 0.333862 16.4667C1.31208 19.6795 4.27551 21.8757 7.63214 21.8757C8.15002 21.8757 8.6679 21.8277 9.17619 21.7222L7.69927 18.1258Z" fill="#EA4335"/>
<path d="M17.3184 21.2331C15.6209 21.2331 13.933 21.4824 12.3123 21.962L14.4605 27.2079C15.3908 26.9777 16.3498 26.8626 17.3184 26.8626C22.9 26.8626 27.6952 30.8043 28.7885 36.2804C29.8722 41.7565 26.9472 47.2326 21.7971 49.3617C16.6471 51.4907 10.7011 49.6877 7.60338 45.0556C4.50569 40.4234 5.10029 34.2376 9.04194 30.2864C9.86671 29.4616 10.8066 28.7711 11.8327 28.2245L9.71326 22.9977C1.8012 26.8722 -1.94864 36.0694 1.0052 44.3747C3.95903 52.6799 12.6671 57.4464 21.2505 55.4516C29.8339 53.4664 35.5593 45.3529 34.5619 36.5969C33.5645 27.8409 26.1512 21.2331 17.3376 21.2331H17.3184Z" fill="#4285F4"/>
</svg>
