<svg width="140" height="118" viewBox="0 0 140 118" fill="none" xmlns="http://www.w3.org/2000/svg">
<path fill-rule="evenodd" clip-rule="evenodd" d="M112 59C112 81.6437 93.6437 100 71 100C48.3563 100 30 81.6437 30 59C30 36.3563 48.3563 18 71 18C93.6437 18 112 36.3563 112 59ZM64.2769 34.4745C64.2181 33.8858 64.6804 33.375 65.272 33.375H76.7287C77.3203 33.375 77.7826 33.8858 77.7237 34.4745L74.5071 66.6412C74.4559 67.1524 74.0258 67.5417 73.512 67.5417H68.4886C67.9749 67.5417 67.5447 67.1524 67.4936 66.6412L64.2769 34.4745ZM71.0002 86.3336C73.8307 86.3336 76.1252 84.039 76.1252 81.2086C76.1252 78.3781 73.8307 76.0836 71.0002 76.0836C68.1698 76.0836 65.8752 78.3781 65.8752 81.2086C65.8752 84.039 68.1698 86.3336 71.0002 86.3336Z" fill="#C0C6CF"/>
<path fill-rule="evenodd" clip-rule="evenodd" d="M129.006 27.0504C128.936 28.0681 128.805 29.0689 128.617 30.0494H79.5618C79.3733 29.0689 79.2421 28.0681 79.1719 27.0504H129.006ZM82.0391 37.0486C81.5247 36.0848 81.0717 35.0833 80.6852 34.0494H127.493C127.107 35.0833 126.654 36.0848 126.139 37.0486H82.0391ZM84.6971 41.0486C85.5732 42.1265 86.5374 43.1299 87.5787 44.0479H120.6C121.641 43.1299 122.605 42.1265 123.481 41.0486H84.6971ZM104.089 50.2826C100.401 50.2826 96.899 49.483 93.7478 48.0479H114.431C111.279 49.483 107.778 50.2826 104.089 50.2826ZM79.2122 23.0504C79.3034 22.0318 79.4557 21.0308 79.6654 20.0512H128.513C128.723 21.0308 128.875 22.0318 128.966 23.0504H79.2122ZM127.296 16.0512H80.8823C81.2956 15.0155 81.7762 14.0141 82.3188 13.0522H125.86C126.402 14.0141 126.883 15.0155 127.296 16.0512ZM123.056 9.0522C122.126 7.9678 121.104 6.96409 120.003 6.053H88.1753C87.0743 6.96409 86.0528 7.9678 85.1227 9.0522H123.056ZM113.229 2.053H94.9494C97.7801 0.93946 100.863 0.327881 104.089 0.327881C107.315 0.327881 110.398 0.93946 113.229 2.053Z" fill="#747E8C"/>
<mask id="mask0" mask-type="alpha" maskUnits="userSpaceOnUse" x="30" y="18" width="82" height="82">
<circle cx="71" cy="59" r="41" fill="#C0C6CF"/>
</mask>
<g mask="url(#mask0)">
<path fill-rule="evenodd" clip-rule="evenodd" d="M129.006 27.0504C128.936 28.068 128.805 29.0689 128.617 30.0493H79.5618C79.3733 29.0689 79.2421 28.068 79.1719 27.0504H129.006ZM82.0391 37.0486C81.5247 36.0848 81.0717 35.0833 80.6852 34.0493H127.493C127.107 35.0833 126.654 36.0848 126.139 37.0486H82.0391ZM84.6971 41.0486C85.5732 42.1265 86.5374 43.1299 87.5787 44.0479H120.6C121.641 43.1299 122.605 42.1265 123.481 41.0486H84.6971ZM104.089 50.2826C100.401 50.2826 96.899 49.483 93.7478 48.0479H114.431C111.279 49.483 107.778 50.2826 104.089 50.2826ZM79.2122 23.0504C79.3034 22.0318 79.4557 21.0309 79.6654 20.0512H128.513C128.723 21.0309 128.875 22.0318 128.966 23.0504H79.2122ZM80.8822 16.0512C81.2956 15.0155 81.7762 14.0141 82.3188 13.0521H125.86C126.402 14.0141 126.883 15.0155 127.296 16.0512H80.8822ZM123.056 9.05215C122.126 7.96777 121.104 6.96407 120.003 6.053H88.1753C87.0743 6.96407 86.0528 7.96777 85.1227 9.05215H123.056ZM104.089 0.327881C107.315 0.327881 110.398 0.93946 113.229 2.053H94.9494C97.7801 0.93946 100.863 0.327881 104.089 0.327881Z" fill="white"/>
</g>
<circle cx="13.7313" cy="75.8583" r="1.07139" fill="#777E8B"/>
<circle cx="18.3641" cy="75.8575" r="1.07139" fill="#777E8B"/>
<circle cx="22.9972" cy="75.8575" r="1.07139" fill="#777E8B"/>
<circle cx="27.63" cy="75.8575" r="1.07139" fill="#777E8B"/>
<circle cx="32.263" cy="75.8575" r="1.07139" fill="#777E8B"/>
<circle cx="13.7311" cy="80.4903" r="1.07139" fill="#777E8B"/>
<circle cx="18.3641" cy="80.4903" r="1.07139" fill="#777E8B"/>
<circle cx="22.9972" cy="80.4903" r="1.07139" fill="#777E8B"/>
<circle cx="27.63" cy="80.4903" r="1.07139" fill="#777E8B"/>
<circle cx="32.263" cy="80.4903" r="1.07139" fill="#777E8B"/>
<circle cx="13.7311" cy="85.1236" r="1.07139" fill="#777E8B"/>
<circle cx="18.3641" cy="85.1236" r="1.07139" fill="#777E8B"/>
<circle cx="22.9972" cy="85.1236" r="1.07139" fill="#777E8B"/>
<circle cx="27.63" cy="85.1236" r="1.07139" fill="#777E8B"/>
<circle cx="32.263" cy="85.1236" r="1.07139" fill="#777E8B"/>
<circle cx="13.7311" cy="89.7565" r="1.07139" fill="#777E8B"/>
<circle cx="18.3641" cy="89.7565" r="1.07139" fill="#777E8B"/>
<circle cx="22.9972" cy="89.7565" r="1.07139" fill="#777E8B"/>
<circle cx="27.63" cy="89.7565" r="1.07139" fill="#777E8B"/>
<circle cx="32.263" cy="89.7565" r="1.07139" fill="#777E8B"/>
<circle cx="13.7311" cy="94.0033" r="1.07139" fill="#777E8B"/>
<circle cx="18.3641" cy="94.0033" r="1.07139" fill="#777E8B"/>
<circle cx="22.9972" cy="94.0033" r="1.07139" fill="#777E8B"/>
<circle cx="27.63" cy="94.0033" r="1.07139" fill="#777E8B"/>
<circle cx="32.263" cy="94.0033" r="1.07139" fill="#777E8B"/>
<circle cx="13.7311" cy="98.6756" r="1.07139" fill="#777E8B"/>
<circle cx="18.3641" cy="98.6752" r="1.07139" fill="#777E8B"/>
<circle cx="22.9972" cy="98.6752" r="1.07139" fill="#777E8B"/>
<circle cx="27.6302" cy="98.6752" r="1.07139" fill="#777E8B"/>
<circle cx="32.263" cy="98.6752" r="1.07139" fill="#777E8B"/>
<circle cx="13.7311" cy="103.308" r="1.07139" fill="#777E8B"/>
<circle cx="18.3641" cy="103.308" r="1.07139" fill="#777E8B"/>
<circle cx="22.9972" cy="103.308" r="1.07139" fill="#777E8B"/>
<circle cx="27.6302" cy="103.308" r="1.07139" fill="#777E8B"/>
<circle cx="32.263" cy="103.308" r="1.07139" fill="#777E8B"/>
<circle cx="13.7311" cy="107.942" r="1.07139" fill="#777E8B"/>
<circle cx="18.3641" cy="107.942" r="1.07139" fill="#777E8B"/>
<circle cx="22.9972" cy="107.942" r="1.07139" fill="#777E8B"/>
<circle cx="27.6302" cy="107.942" r="1.07139" fill="#777E8B"/>
<circle cx="32.263" cy="107.942" r="1.07139" fill="#777E8B"/>
<circle cx="13.7311" cy="112.574" r="1.07139" fill="#777E8B"/>
<circle cx="18.3641" cy="112.574" r="1.07139" fill="#777E8B"/>
<circle cx="22.9972" cy="112.574" r="1.07139" fill="#777E8B"/>
<circle cx="27.6302" cy="112.574" r="1.07139" fill="#777E8B"/>
<circle cx="32.263" cy="112.574" r="1.07139" fill="#777E8B"/>
<circle cx="13.7311" cy="116.821" r="1.07139" fill="#777E8B"/>
<circle cx="18.3641" cy="116.821" r="1.07139" fill="#777E8B"/>
<circle cx="22.9972" cy="116.821" r="1.07139" fill="#777E8B"/>
<circle cx="27.6302" cy="116.821" r="1.07139" fill="#777E8B"/>
<circle cx="32.263" cy="116.821" r="1.07139" fill="#777E8B"/>
<circle cx="36.9352" cy="75.858" r="1.07139" fill="#777E8B"/>
<circle cx="41.5682" cy="75.8575" r="1.07139" fill="#777E8B"/>
<circle cx="46.2013" cy="75.8575" r="1.07139" fill="#777E8B"/>
<circle cx="50.8341" cy="75.8575" r="1.07139" fill="#777E8B"/>
<circle cx="55.4671" cy="75.8575" r="1.07139" fill="#777E8B"/>
<circle cx="36.9352" cy="80.4903" r="1.07139" fill="#777E8B"/>
<circle cx="41.5682" cy="80.4903" r="1.07139" fill="#777E8B"/>
<circle cx="46.2013" cy="80.4903" r="1.07139" fill="#777E8B"/>
<circle cx="50.8341" cy="80.4903" r="1.07139" fill="#777E8B"/>
<circle cx="55.4671" cy="80.4903" r="1.07139" fill="#777E8B"/>
<circle cx="36.9352" cy="85.1236" r="1.07139" fill="#777E8B"/>
<circle cx="41.5682" cy="85.1236" r="1.07139" fill="#777E8B"/>
<circle cx="46.2013" cy="85.1236" r="1.07139" fill="#777E8B"/>
<circle cx="50.8341" cy="85.1236" r="1.07139" fill="#777E8B"/>
<circle cx="55.4671" cy="85.1236" r="1.07139" fill="#777E8B"/>
<circle cx="36.9352" cy="89.7565" r="1.07139" fill="#777E8B"/>
<circle cx="41.5682" cy="89.7565" r="1.07139" fill="#777E8B"/>
<circle cx="46.2013" cy="89.7565" r="1.07139" fill="#777E8B"/>
<circle cx="50.8341" cy="89.7565" r="1.07139" fill="#777E8B"/>
<circle cx="55.4671" cy="89.7565" r="1.07139" fill="#777E8B"/>
<circle cx="36.9352" cy="94.0033" r="1.07139" fill="#777E8B"/>
<circle cx="41.5682" cy="94.0033" r="1.07139" fill="#777E8B"/>
<circle cx="46.2013" cy="94.0033" r="1.07139" fill="#777E8B"/>
<circle cx="50.8341" cy="94.0033" r="1.07139" fill="#777E8B"/>
<circle cx="55.4671" cy="94.0033" r="1.07139" fill="#777E8B"/>
<circle cx="36.9352" cy="98.6764" r="1.07139" fill="#777E8B"/>
<circle cx="41.5682" cy="98.6756" r="1.07139" fill="#777E8B"/>
<circle cx="46.2013" cy="98.6756" r="1.07139" fill="#777E8B"/>
<circle cx="50.8341" cy="98.6756" r="1.07139" fill="#777E8B"/>
<circle cx="55.4671" cy="98.6756" r="1.07139" fill="#777E8B"/>
<circle cx="36.9352" cy="103.308" r="1.07139" fill="#777E8B"/>
<circle cx="41.5682" cy="103.308" r="1.07139" fill="#777E8B"/>
<circle cx="46.2013" cy="103.308" r="1.07139" fill="#777E8B"/>
<circle cx="50.8341" cy="103.308" r="1.07139" fill="#777E8B"/>
<circle cx="55.4671" cy="103.308" r="1.07139" fill="#777E8B"/>
<circle cx="36.9352" cy="107.942" r="1.07139" fill="#777E8B"/>
<circle cx="41.5682" cy="107.942" r="1.07139" fill="#777E8B"/>
<circle cx="46.2013" cy="107.942" r="1.07139" fill="#777E8B"/>
<circle cx="50.8341" cy="107.942" r="1.07139" fill="#777E8B"/>
<circle cx="55.4671" cy="107.942" r="1.07139" fill="#777E8B"/>
<circle cx="36.9352" cy="112.575" r="1.07139" fill="#777E8B"/>
<circle cx="41.5682" cy="112.575" r="1.07139" fill="#777E8B"/>
<circle cx="46.2013" cy="112.575" r="1.07139" fill="#777E8B"/>
<circle cx="50.8341" cy="112.575" r="1.07139" fill="#777E8B"/>
<circle cx="55.4671" cy="112.575" r="1.07139" fill="#777E8B"/>
<circle cx="36.9352" cy="116.822" r="1.07139" fill="#777E8B"/>
<circle cx="41.5682" cy="116.822" r="1.07139" fill="#777E8B"/>
<circle cx="46.2013" cy="116.822" r="1.07139" fill="#777E8B"/>
<circle cx="50.8341" cy="116.822" r="1.07139" fill="#777E8B"/>
<circle cx="55.4671" cy="116.822" r="1.07139" fill="#777E8B"/>
</svg>
