<svg width="60" height="60" viewBox="0 0 60 60" fill="none" xmlns="http://www.w3.org/2000/svg">
<path d="M52.3438 4H7.65625C5.63696 4 4 5.63696 4 7.65625V52.3438C4 54.363 5.63696 56 7.65625 56H52.3438C54.363 56 56 54.363 56 52.3438V7.65625C56 5.63696 54.363 4 52.3438 4Z" fill="black"/>
<path d="M50.7428 30.1079C50.7428 31.5394 49.5823 32.6998 48.1507 32.6998C46.7193 32.6998 45.5588 31.5394 45.5588 30.1079C45.5588 28.6763 46.7193 27.5159 48.1507 27.5159C49.5823 27.5159 50.7428 28.6763 50.7428 30.1079Z" fill="#669CFE"/>
<path d="M45.398 35.3892C45.398 36.8206 44.2376 37.9811 42.8059 37.9811C41.3743 37.9811 40.2139 36.8206 40.2139 35.3892C40.2139 33.9576 41.3743 32.7971 42.8059 32.7971C44.2376 32.7971 45.398 33.9576 45.398 35.3892Z" fill="#3FE7FE"/>
<path d="M40.0448 40.7804C40.0448 42.212 38.8843 43.3724 37.4529 43.3724C36.0213 43.3724 34.8608 42.212 34.8608 40.7804C34.8608 39.3489 36.0213 38.1885 37.4529 38.1885C38.8843 38.1885 40.0448 39.3489 40.0448 40.7804Z" fill="white"/>
<path d="M45.2326 24.7872C45.2326 26.1272 44.1463 27.2133 42.8065 27.2133C41.4664 27.2133 40.3801 26.1272 40.3801 24.7872C40.3801 23.4472 41.4664 22.3608 42.8065 22.3608C44.1463 22.3608 45.2326 23.4472 45.2326 24.7872Z" fill="#669CFE"/>
<path d="M39.9001 30.0604C39.9001 31.4004 38.8137 32.4867 37.4739 32.4867C36.1339 32.4867 35.0476 31.4004 35.0476 30.0604C35.0476 28.7203 36.1339 27.634 37.4739 27.634C38.8137 27.634 39.9001 28.7203 39.9001 30.0604Z" fill="#3FE7FE"/>
<path d="M34.5844 35.4115C34.5844 36.7515 33.4983 37.8378 32.1583 37.8378C30.8182 37.8378 29.7319 36.7515 29.7319 35.4115C29.7319 34.0715 30.8182 32.9854 32.1583 32.9854C33.4983 32.9854 34.5844 34.0715 34.5844 35.4115Z" fill="white"/>
<path d="M39.6977 19.4852C39.6977 20.7021 38.7111 21.6889 37.494 21.6889C36.2769 21.6889 35.2903 20.7021 35.2903 19.4852C35.2903 18.2681 36.2769 17.2815 37.494 17.2815C38.7111 17.2815 39.6977 18.2681 39.6977 19.4852Z" fill="#669CFE"/>
<path d="M34.3715 24.7576C34.3715 25.9745 33.3847 26.9613 32.1676 26.9613C30.9506 26.9613 29.9639 25.9745 29.9639 24.7576C29.9639 23.5405 30.9506 22.5537 32.1676 22.5537C33.3847 22.5537 34.3715 23.5405 34.3715 24.7576Z" fill="#3FE7FE"/>
<path d="M29.0358 30.1256C29.0358 31.3427 28.0492 32.3293 26.8321 32.3293C25.615 32.3293 24.6284 31.3427 24.6284 30.1256C24.6284 28.9087 25.615 27.9219 26.8321 27.9219C28.0492 27.9219 29.0358 28.9087 29.0358 30.1256Z" fill="white"/>
<path d="M34.1881 14.1578C34.1881 15.2519 33.3012 16.1387 32.2072 16.1387C31.1132 16.1387 30.2263 15.2519 30.2263 14.1578C30.2263 13.0636 31.1132 12.1768 32.2072 12.1768C33.3012 12.1768 34.1881 13.0636 34.1881 14.1578Z" fill="#669CFE"/>
<path d="M28.8414 19.4557C28.8414 20.5498 27.9545 21.4368 26.8605 21.4368C25.7665 21.4368 24.8796 20.5498 24.8796 19.4557C24.8796 18.3617 25.7665 17.4749 26.8605 17.4749C27.9545 17.4749 28.8414 18.3617 28.8414 19.4557Z" fill="#3FE7FE"/>
<path d="M23.5122 24.8143C23.5122 25.9084 22.6252 26.7952 21.5312 26.7952C20.4371 26.7952 19.5503 25.9084 19.5503 24.8143C19.5503 23.7203 20.4371 22.8333 21.5312 22.8333C22.6252 22.8333 23.5122 23.7203 23.5122 24.8143Z" fill="white"/>
<path d="M23.3091 35.4279C23.3091 36.4002 22.5206 37.1886 21.5482 37.1886C20.5757 37.1886 19.7874 36.4002 19.7874 35.4279C19.7874 34.4553 20.5757 33.667 21.5482 33.667C22.5206 33.667 23.3091 34.4553 23.3091 35.4279Z" fill="#6A9EFE"/>
<path d="M28.6158 40.7345C28.6158 41.7069 27.8272 42.4952 26.8549 42.4952C25.8823 42.4952 25.094 41.7069 25.094 40.7345C25.094 39.762 25.8823 38.9736 26.8549 38.9736C27.8272 38.9736 28.6158 39.762 28.6158 40.7345Z" fill="#6A9EFE"/>
<path d="M33.9139 46.0324C33.9139 47.0049 33.1255 47.7933 32.153 47.7933C31.1804 47.7933 30.3921 47.0049 30.3921 46.0324C30.3921 45.0598 31.1804 44.2715 32.153 44.2715C33.1255 44.2715 33.9139 45.0598 33.9139 46.0324Z" fill="#6A9EFE"/>
<path d="M23.3345 46.0324C23.3345 47.0049 22.546 47.7933 21.5736 47.7933C20.6011 47.7933 19.8127 47.0049 19.8127 46.0324C19.8127 45.0598 20.6011 44.2715 21.5736 44.2715C22.546 44.2715 23.3345 45.0598 23.3345 46.0324Z" fill="#6A9EFE"/>
<path d="M12.6531 46.0324C12.6531 47.0049 11.8648 47.7933 10.8922 47.7933C9.91988 47.7933 9.13135 47.0049 9.13135 46.0324C9.13135 45.0598 9.91988 44.2715 10.8922 44.2715C11.8648 44.2715 12.6531 45.0598 12.6531 46.0324Z" fill="#6A9EFE"/>
<path d="M17.9598 40.7257C17.9598 41.6983 17.1714 42.4866 16.1989 42.4866C15.2265 42.4866 14.438 41.6983 14.438 40.7257C14.438 39.7532 15.2265 38.9648 16.1989 38.9648C17.1714 38.9648 17.9598 39.7532 17.9598 40.7257Z" fill="#6A9EFE"/>
<path d="M23.3318 14.1628C23.3318 15.1791 22.508 16.0029 21.4917 16.0029C20.4755 16.0029 19.6516 15.1791 19.6516 14.1628C19.6516 13.1464 20.4755 12.3225 21.4917 12.3225C22.508 12.3225 23.3318 13.1464 23.3318 14.1628Z" fill="#3FE7FE"/>
<path d="M17.9749 19.5467C17.9749 20.5631 17.151 21.387 16.1345 21.387C15.1183 21.387 14.2944 20.5631 14.2944 19.5467C14.2944 18.5304 15.1183 17.7065 16.1345 17.7065C17.151 17.7065 17.9749 18.5304 17.9749 19.5467Z" fill="white"/>
<path d="M12.3635 14.0877C12.3635 14.9077 11.6987 15.5725 10.8787 15.5725C10.0589 15.5725 9.39404 14.9077 9.39404 14.0877C9.39404 13.2679 10.0589 12.603 10.8787 12.603C11.6987 12.603 12.3635 13.2679 12.3635 14.0877Z" fill="white"/>
</svg>
