<svg width="88" height="88" viewBox="0 0 88 88" fill="none" xmlns="http://www.w3.org/2000/svg">
<mask id="mask0_9602_312459" style="mask-type:alpha" maskUnits="userSpaceOnUse" x="0" y="13" width="88" height="62">
<path d="M0 13H88V74.4706H0V13Z" fill="white"/>
</mask>
<g mask="url(#mask0_9602_312459)">
<path fill-rule="evenodd" clip-rule="evenodd" d="M36.5388 19.7292C39.3794 16.7721 43.3329 14.941 47.7006 14.941C53.5241 14.941 58.5712 18.1762 61.2888 22.9968C63.7012 21.9184 66.3141 21.3617 68.9565 21.363C79.4388 21.363 87.9476 29.9365 87.9476 40.516C87.9476 51.0954 79.4388 59.6689 68.9565 59.6689C67.6753 59.6689 66.4265 59.5401 65.2035 59.2968C62.8256 63.5351 58.28 66.4145 53.1035 66.4145C50.996 66.4186 48.9155 65.9406 47.0212 65.0168C44.6109 70.6786 38.9976 74.658 32.4623 74.658C25.6359 74.658 19.8447 70.3551 17.6123 64.3051C16.6188 64.5148 15.606 64.6201 14.5906 64.6195C6.46999 64.6195 -0.0976562 57.9548 -0.0976562 49.7695C-0.0976562 44.2695 2.8594 39.4813 7.24646 36.8931C6.31575 34.749 5.83667 32.4363 5.83911 30.099C5.83911 20.6519 13.5068 13.0166 22.9538 13.0166C28.4862 13.0166 33.4362 15.6534 36.5421 19.746" fill="#00A1E0"/>
<path fill-rule="evenodd" clip-rule="evenodd" d="M12.727 44.9648C12.6717 45.1091 12.7468 45.1392 12.7646 45.1648C12.9299 45.2845 13.0978 45.3712 13.266 45.4686C14.1655 45.9442 15.0131 46.0833 15.8996 46.0833C17.7049 46.0833 18.8275 45.1224 18.8275 43.5759V43.5455C18.8275 42.1155 17.5593 41.5946 16.3752 41.2226L16.2202 41.1724C15.324 40.8819 14.5508 40.6289 14.5508 40.0401V40.01C14.5508 39.5053 15.0037 39.1332 15.7025 39.1332C16.479 39.1332 17.4043 39.3917 17.9964 39.7188C17.9964 39.7188 18.1717 39.832 18.2355 39.6628C18.2701 39.5713 18.5719 38.7634 18.6043 38.6728C18.6386 38.578 18.5784 38.5065 18.5166 38.4697C17.8372 38.0555 16.899 37.7741 15.9284 37.7741L15.7482 37.7747C14.0949 37.7747 12.9399 38.7744 12.9399 40.2044V40.2352C12.9399 41.7428 14.2146 42.2346 15.4052 42.5743L15.5967 42.6338C16.4638 42.9004 17.2144 43.132 17.2144 43.7403V43.7707C17.2144 44.3304 16.7259 44.7477 15.9429 44.7477C15.6385 44.7477 14.6682 44.7426 13.6167 44.078C13.4896 44.004 13.4171 43.9506 13.3191 43.8907C13.2673 43.8593 13.1379 43.8027 13.0816 43.9722L12.7257 44.9622L12.727 44.9648ZM39.1581 44.9622C39.1028 45.1065 39.1778 45.1366 39.1963 45.1622C39.361 45.2819 39.5295 45.3686 39.6977 45.466C40.5972 45.9416 41.4448 46.0807 42.3313 46.0807C44.1366 46.0807 45.2592 45.1198 45.2592 43.5733V43.5429C45.2592 42.1129 43.9942 41.592 42.8069 41.22L42.6519 41.1698C41.7557 40.8793 40.9825 40.6263 40.9825 40.0375V40.0074C40.9825 39.5027 41.4354 39.1306 42.1342 39.1306C42.9107 39.1306 43.8328 39.3891 44.4281 39.7162C44.4281 39.7162 44.6034 39.8295 44.6675 39.6602C44.7018 39.5687 45.004 38.7608 45.0331 38.6702C45.0677 38.5755 45.0072 38.504 44.9457 38.4671C44.2663 38.053 43.3281 37.7715 42.3575 37.7715L42.177 37.7721C40.5237 37.7721 39.3687 38.7718 39.3687 40.2018V40.2326C39.3687 41.7402 40.6434 42.232 41.834 42.5717L42.0252 42.6312C42.8955 42.8978 43.6429 43.1295 43.6429 43.7377V43.7681C43.6429 44.3278 43.1543 44.7452 42.3714 44.7452C42.0663 44.7452 41.0935 44.74 40.0452 44.0755C39.9181 44.0014 39.8437 43.9502 39.7472 43.8881C39.7146 43.8674 39.5622 43.8079 39.5101 43.9697L39.1542 44.9597L39.1581 44.9622ZM57.2072 41.9314C57.2072 42.805 57.0441 43.4941 56.7251 43.9826C56.4067 44.4647 55.926 44.7008 55.2563 44.7008C54.5866 44.7008 54.1077 44.4666 53.7939 43.9858C53.4778 43.5005 53.3183 42.8082 53.3183 41.9347C53.3183 41.0611 53.4788 40.3752 53.7939 39.8932C54.1071 39.4144 54.5833 39.1847 55.2563 39.1847C55.9292 39.1847 56.408 39.4166 56.7251 39.8932C57.046 40.3752 57.2072 41.0611 57.2072 41.9347V41.9314ZM58.7148 40.3138C58.5663 39.8123 58.3363 39.3723 58.0289 39.0035C57.7212 38.6347 57.3333 38.337 56.8707 38.1235C56.4113 37.9083 55.8677 37.8 55.253 37.8C54.6383 37.8 54.098 37.909 53.6354 38.1235C53.176 38.3383 52.7845 38.6347 52.4772 39.0035C52.1705 39.3723 51.9401 39.8123 51.7913 40.3138C51.6441 40.812 51.5693 41.3555 51.5693 41.9347C51.5693 42.5138 51.6441 43.0573 51.7913 43.5555C51.9391 44.057 52.1698 44.497 52.4772 44.8658C52.7848 45.2347 53.176 45.5291 53.6354 45.7394C54.098 45.949 54.6416 46.0558 55.253 46.0558C55.8645 46.0558 56.408 45.949 56.8675 45.7394C57.3269 45.5297 57.7183 45.2347 58.0257 44.8658C58.3327 44.497 58.5627 44.057 58.7116 43.5555C58.8585 43.0573 58.9332 42.5138 58.9332 41.9347C58.9332 41.3588 58.8585 40.812 58.7116 40.3138H58.7148ZM71.1027 44.455C71.0532 44.3084 70.9102 44.3637 70.9102 44.3637C70.6912 44.4475 70.4573 44.5252 70.2082 44.564C69.9571 44.6035 69.6776 44.6232 69.3832 44.6232C68.6552 44.6232 68.0729 44.4061 67.6588 43.9761C67.2414 43.5458 67.0085 42.8535 67.0117 41.9152C67.014 41.0611 67.2204 40.4205 67.5908 39.9288C67.9564 39.4435 68.5194 39.1911 69.2635 39.1911C69.8847 39.1911 70.3602 39.2633 70.8585 39.4192C70.8585 39.4192 70.9766 39.4707 71.0332 39.315C71.1655 38.9495 71.2632 38.6874 71.4052 38.2862C71.4454 38.1714 71.347 38.1228 71.3111 38.1089C71.1157 38.0326 70.6543 37.9074 70.3049 37.8546C69.9782 37.8048 69.5996 37.7789 69.1726 37.7789C68.5385 37.7789 67.9755 37.8873 67.4935 38.1021C67.0114 38.3166 66.6037 38.6133 66.2802 38.9821C65.9567 39.351 65.7108 39.791 65.5458 40.2924C65.3824 40.7907 65.2999 41.3374 65.2999 41.9165C65.2999 43.1654 65.6364 44.178 66.3029 44.9189C66.9693 45.663 67.9723 46.0383 69.2793 46.0383C70.0526 46.0383 70.8452 45.882 71.4146 45.6565C71.4146 45.6565 71.5233 45.6041 71.4761 45.4773L71.104 44.455H71.1027ZM73.7408 41.0902C73.813 40.605 73.9459 40.2005 74.1549 39.8867C74.4678 39.4079 74.9443 39.1458 75.614 39.1458C76.2837 39.1458 76.727 39.4092 77.044 39.8867C77.2543 40.2022 77.3462 40.6211 77.3805 41.0902L73.7246 41.0896L73.7408 41.0902ZM78.8202 40.0226C78.6918 39.5405 78.3737 39.052 78.1667 38.8288C77.8367 38.4761 77.5164 38.227 77.1961 38.0911C76.7337 37.8945 76.2362 37.7936 75.7337 37.7945C75.0964 37.7945 74.5173 37.9022 74.0482 38.1212C73.579 38.3419 73.1843 38.6421 72.8737 39.0174C72.5635 39.3927 72.3302 39.8359 72.1814 40.3439C72.0326 40.8453 71.9575 41.3953 71.9575 41.9712C71.9575 42.56 72.0355 43.1068 72.1888 43.6018C72.3438 44.1 72.5933 44.5368 72.9297 44.8992C73.2662 45.2647 73.6965 45.5495 74.2141 45.75C74.7285 45.949 75.353 46.0522 76.068 46.05C77.5432 46.0451 78.3197 45.7167 78.6368 45.5388C78.6934 45.5071 78.7468 45.4524 78.6801 45.2948L78.3469 44.3598C78.2958 44.2204 78.1547 44.2709 78.1547 44.2709C77.7891 44.4074 77.2715 44.6526 76.0582 44.6494C75.2656 44.6481 74.68 44.4142 74.3112 44.0476C73.9359 43.6723 73.7483 43.1256 73.7191 42.3491L78.8309 42.353C78.8309 42.353 78.9655 42.3517 78.9794 42.2203C78.9849 42.166 79.1544 41.1721 78.827 40.0236L78.8202 40.0226ZM32.879 41.0902C32.9512 40.605 33.0845 40.2005 33.2932 39.8867C33.6063 39.4079 34.0826 39.1458 34.7523 39.1458C35.422 39.1458 35.8652 39.4092 36.1823 39.8867C36.3922 40.2022 36.4841 40.6211 36.5187 41.0902L32.8629 41.0896L32.879 41.0902ZM37.9585 40.0226C37.8303 39.5405 37.512 39.052 37.3049 38.8288C36.9749 38.4761 36.6546 38.227 36.3343 38.0911C35.8719 37.8945 35.3745 37.7936 34.872 37.7945C34.2346 37.7945 33.6555 37.9022 33.1864 38.1212C32.7173 38.3419 32.3226 38.6421 32.012 39.0174C31.7024 39.3927 31.4685 39.8359 31.3196 40.3439C31.1711 40.8453 31.0964 41.3953 31.0964 41.9712C31.0964 42.56 31.1737 43.1068 31.328 43.6018C31.4827 44.1 31.7325 44.5368 32.0657 44.8992C32.4022 45.2647 32.8325 45.5495 33.3501 45.75C33.8645 45.949 34.4857 46.0522 35.2039 46.05C36.6792 46.0451 37.4557 45.7167 37.7727 45.5388C37.829 45.5071 37.8827 45.4524 37.8158 45.2948L37.4825 44.3598C37.4311 44.2204 37.29 44.2709 37.29 44.2709C36.9245 44.4074 36.4068 44.6526 35.1936 44.6494C34.4042 44.6481 33.8153 44.4142 33.4465 44.0476C33.0712 43.6723 32.8836 43.1256 32.8545 42.3491L37.9662 42.353C37.9662 42.353 38.1008 42.3517 38.1147 42.2203C38.1202 42.166 38.2897 41.1721 37.962 40.0236L37.9585 40.0226ZM21.8467 44.4226C21.6464 44.2628 21.6186 44.2236 21.5523 44.1198C21.451 43.9635 21.3992 43.7412 21.3992 43.4565C21.3992 43.0101 21.5481 42.6865 21.8554 42.4698C21.8522 42.4704 22.2954 42.088 23.3372 42.101C23.8009 42.1093 24.2635 42.1487 24.7219 42.219V44.5387H24.7225C24.7225 44.5387 24.0755 44.6782 23.3443 44.7222C22.3058 44.7846 21.8464 44.4232 21.8496 44.4242L21.8467 44.4226ZM23.8785 40.8314C23.6714 40.8162 23.4029 40.8088 23.0826 40.8088C22.6458 40.8088 22.222 40.8631 21.8273 40.9699C21.4293 41.0773 21.0702 41.2436 20.7629 41.4649C20.4547 41.6848 20.2012 41.9726 20.022 42.3061C19.8411 42.6425 19.7489 43.0372 19.7489 43.4837C19.7489 43.9367 19.8275 44.3281 19.9828 44.6484C20.135 44.9661 20.3641 45.2408 20.6493 45.4475C20.933 45.654 21.2834 45.8067 21.6878 45.8972C22.089 45.9888 22.542 46.0351 23.0402 46.0351C23.5643 46.0351 24.0852 45.9911 24.5899 45.906C25.0198 45.8318 25.448 45.7486 25.8743 45.6562C26.0445 45.6171 26.2334 45.5656 26.2334 45.5656C26.3596 45.5336 26.3499 45.3987 26.3499 45.3987L26.347 40.7399C26.347 39.7175 26.0739 38.9572 25.5349 38.4881C24.9979 38.019 24.2117 37.7828 23.1926 37.7828C22.8108 37.7828 22.1929 37.8346 21.824 37.9087C21.824 37.9087 20.7111 38.1248 20.2517 38.4845C20.2517 38.4845 20.1507 38.5467 20.2057 38.6874L20.5681 39.658C20.6131 39.7838 20.7357 39.7408 20.7357 39.7408C20.7357 39.7408 20.7742 39.7256 20.8195 39.6987C21.7998 39.1649 23.0421 39.1811 23.0421 39.1811C23.5921 39.1811 24.0192 39.2927 24.3039 39.5111C24.5825 39.725 24.7245 40.0482 24.7245 40.7276V40.9434C24.2877 40.88 23.8833 40.8434 23.8833 40.8434L23.8785 40.8314ZM64.9667 38.2011C64.974 38.1841 64.9779 38.1657 64.978 38.1471C64.9781 38.1285 64.9745 38.1101 64.9673 38.093C64.9602 38.0758 64.9496 38.0603 64.9364 38.0473C64.9231 38.0343 64.9073 38.0241 64.89 38.0174C64.803 37.9844 64.3691 37.8928 64.0359 37.8721C63.3953 37.832 63.0394 37.94 62.7191 38.0837C62.4027 38.2264 62.0527 38.4557 61.8585 38.721L61.8579 38.0999C61.8579 38.0145 61.7974 37.9455 61.7113 37.9455H60.4043C60.3195 37.9455 60.258 38.0145 60.258 38.0999V45.7028C60.2581 45.7439 60.2745 45.7832 60.3035 45.8123C60.3326 45.8413 60.3719 45.8577 60.413 45.8578H61.7524C61.7935 45.8577 61.8328 45.8413 61.8618 45.8123C61.8908 45.7832 61.9071 45.7439 61.9071 45.7028V41.8852C61.9071 41.374 61.9634 40.866 62.0756 40.5457C62.1863 40.229 62.3367 39.9763 62.5221 39.7952C62.699 39.6202 62.9154 39.4903 63.153 39.4166C63.376 39.3526 63.6069 39.3202 63.8389 39.3202C64.1058 39.3202 64.3986 39.3888 64.3986 39.3888C64.4969 39.3998 64.5516 39.3396 64.5849 39.251C64.6726 39.0177 64.9214 38.3192 64.9699 38.1801" fill="#FFFFFE"/>
<path fill-rule="evenodd" clip-rule="evenodd" d="M52.4563 34.6922C52.2907 34.6422 52.1223 34.6022 51.9519 34.5725C51.7227 34.5342 51.4906 34.5163 51.2583 34.5188C50.3352 34.5188 49.6076 34.7796 49.0968 35.2946C48.5895 35.8058 48.2443 36.5845 48.0712 37.6091L48.0087 37.955H46.8502C46.8502 37.955 46.7088 37.9492 46.679 38.1035L46.4888 39.1647C46.4755 39.2663 46.5192 39.3297 46.6551 39.329H47.7829L46.6386 45.7165C46.549 46.2309 46.4464 46.6541 46.3329 46.9747C46.2209 47.2911 46.1116 47.5282 45.977 47.7003C45.8466 47.867 45.723 47.9896 45.5098 48.0611C45.3338 48.1203 45.1313 48.1475 44.9093 48.1475C44.7857 48.1475 44.6214 48.1268 44.5001 48.1025C44.3787 48.0786 44.3156 48.0514 44.2247 48.0132C44.2247 48.0132 44.0924 47.9627 44.0403 48.0954C43.9979 48.2038 43.6974 49.0304 43.6618 49.1326C43.6256 49.2336 43.6764 49.3131 43.7404 49.3361C43.8905 49.3898 44.0021 49.4241 44.2066 49.4723C44.4907 49.5393 44.7301 49.5435 44.9543 49.5435C45.4241 49.5435 45.8521 49.4775 46.207 49.3494C46.5642 49.2203 46.8751 48.9954 47.1501 48.691C47.4474 48.3626 47.6344 48.0187 47.8133 47.5496C47.9903 47.0847 48.1411 46.5075 48.2617 45.8349L49.4116 39.329H51.0926C51.0926 39.329 51.2343 39.3342 51.2638 39.1805L51.454 38.1193C51.4673 38.0178 51.4239 37.9543 51.2874 37.955H49.6558C49.6639 37.9181 49.738 37.3442 49.9253 36.8039C50.0052 36.5732 50.1557 36.3872 50.2831 36.2594C50.4022 36.1377 50.5488 36.0464 50.7105 35.9934C50.8878 35.9386 51.0727 35.912 51.2583 35.9145C51.4119 35.9145 51.5627 35.9329 51.6776 35.9569C51.8358 35.9905 51.8972 36.0083 51.9386 36.0206C52.1049 36.0714 52.1273 36.0222 52.1599 35.9417L52.5501 34.8701C52.5902 34.755 52.4925 34.7064 52.4563 34.6922V34.6922ZM29.6559 45.7301C29.6559 45.8155 29.5951 45.885 29.5096 45.885H28.1563C28.0706 45.885 28.0098 45.8155 28.0098 45.7301V34.8375C28.0098 34.7524 28.0706 34.6835 28.1563 34.6835H29.5096C29.5951 34.6835 29.6559 34.7524 29.6559 34.8375V45.7301" fill="#FFFFFE"/>
</g>
</svg>
