<svg width="52" height="52" viewBox="0 0 52 52" fill="none" xmlns="http://www.w3.org/2000/svg">
    <path
        d="M27.1772 6.10352e-05C32.7483 1.54954 37.8243 5.45419 39.9289 10.2266C43.1478 17.974 42.405 27.7667 38.8766 33.5927C35.9053 38.3651 31.3246 40.9062 26.063 40.8442C17.892 40.7823 11.2686 34.2745 11.2067 26.0932C11.2067 17.912 17.6444 11.1563 26.063 11.1563C27.4248 11.1563 29.3884 11.3452 31.6168 12.2748C31.6168 12.2748 30.0148 11.3259 25.9003 10.6885C14.0771 9.13904 0.126329 18.0979 3.3452 38.7369C7.80208 46.6702 16.3445 52.0626 26.063 52.0003C40.3622 51.9385 52.0616 40.2244 51.9998 25.8453C51.9998 12.0859 40.7955 0.371935 27.1772 6.10352e-05Z"
        fill="url(#paint0_linear_101_120)" />
    <path
        d="M36.8953 10.9698C34.9145 6.81716 30.829 3.53226 25.815 2.2307C24.7007 1.9208 23.5246 1.79684 22.2247 1.73486C20.3058 1.73486 18.4487 1.98278 16.5298 2.47862C11.7633 3.90413 8.42071 6.6932 6.43985 8.86243C3.9019 11.7754 2.23056 14.8124 1.24014 17.8494C1.24014 17.9114 1.17824 17.9734 1.17824 18.0973C1.11634 18.3452 0.868733 19.089 0.868733 19.2749C0.80683 19.3989 0.80683 19.5848 0.744932 19.7088C0.683029 19.9567 0.621126 20.2046 0.559228 20.4525C0.559228 20.5145 0.559228 20.5765 0.497325 20.6384C-1.11211 28.6337 1.56155 35.8087 3.17098 38.4738C3.57354 39.1404 3.9041 39.6966 4.2354 40.2069C0.58322 20.3735 11.0825 10.9078 23.0294 10.6598C29.2814 10.5359 35.5335 13.077 38.5667 18.1593C38.3809 15.3702 38.1953 13.8208 36.8953 10.9698Z"
        fill="url(#paint1_linear_101_120)" />
    <defs>
        <linearGradient id="paint0_linear_101_120" x1="36.9852" y1="-13.5225" x2="-10.3341" y2="11.9825"
            gradientUnits="userSpaceOnUse">
            <stop stop-color="#FF7BFF" />
            <stop offset="0.350158" stop-color="#AA00FF" />
            <stop offset="0.998876" stop-color="#8800CC" />
        </linearGradient>
        <linearGradient id="paint1_linear_101_120" x1="13.9839" y1="-5.84591" x2="43.0875" y2="19.0368"
            gradientUnits="userSpaceOnUse">
            <stop offset="0.0354358" stop-color="#FF7BFF" />
            <stop offset="0.576537" stop-color="#8800CC" />
            <stop offset="1" stop-color="#311B92" />
        </linearGradient>
    </defs>
</svg>