<svg width="32" height="32" viewBox="0 0 32 32" fill="none" xmlns="http://www.w3.org/2000/svg">
<path d="M6.72313 20.2214C6.72313 22.0716 5.21173 23.583 3.36157 23.583C1.5114 23.583 0 22.0716 0 20.2214C0 18.3713 1.5114 16.8599 3.36157 16.8599H6.72313V20.2214Z" fill="#E01E5A"/>
<path d="M8.41693 20.2214C8.41693 18.3713 9.92833 16.8599 11.7785 16.8599C13.6287 16.8599 15.1401 18.3713 15.1401 20.2214V28.6384C15.1401 30.4885 13.6287 31.9999 11.7785 31.9999C9.92833 31.9999 8.41693 30.4885 8.41693 28.6384V20.2214Z" fill="#E01E5A"/>
<path d="M11.7785 6.72313C9.92833 6.72313 8.41693 5.21173 8.41693 3.36157C8.41693 1.5114 9.92833 0 11.7785 0C13.6287 0 15.1401 1.5114 15.1401 3.36157V6.72313H11.7785Z" fill="#36C5F0"/>
<path d="M11.7785 8.41699C13.6287 8.41699 15.1401 9.92839 15.1401 11.7786C15.1401 13.6287 13.6287 15.1401 11.7785 15.1401H3.36157C1.5114 15.1401 0 13.6287 0 11.7786C0 9.92839 1.5114 8.41699 3.36157 8.41699H11.7785Z" fill="#36C5F0"/>
<path d="M25.2769 11.7786C25.2769 9.92839 26.7883 8.41699 28.6384 8.41699C30.4886 8.41699 32 9.92839 32 11.7786C32 13.6287 30.4886 15.1401 28.6384 15.1401H25.2769V11.7786Z" fill="#2EB67D"/>
<path d="M23.5831 11.7785C23.5831 13.6287 22.0717 15.1401 20.2215 15.1401C18.3713 15.1401 16.8599 13.6287 16.8599 11.7785V3.36157C16.8599 1.5114 18.3713 0 20.2215 0C22.0717 0 23.5831 1.5114 23.5831 3.36157V11.7785Z" fill="#2EB67D"/>
<path d="M20.2215 25.2769C22.0717 25.2769 23.5831 26.7883 23.5831 28.6384C23.5831 30.4886 22.0717 32 20.2215 32C18.3713 32 16.8599 30.4886 16.8599 28.6384V25.2769H20.2215Z" fill="#ECB22E"/>
<path d="M20.2215 23.583C18.3713 23.583 16.8599 22.0716 16.8599 20.2214C16.8599 18.3713 18.3713 16.8599 20.2215 16.8599H28.6384C30.4886 16.8599 32 18.3713 32 20.2214C32 22.0716 30.4886 23.583 28.6384 23.583H20.2215Z" fill="#ECB22E"/>
</svg>
