<?xml version="1.0" encoding="UTF-8"?>
<svg focusable="false" width="60px" height="60px" viewBox="0 0 60 60" version="1.1" xmlns="http://www.w3.org/2000/svg" xmlns:xlink="http://www.w3.org/1999/xlink">
    <!-- Generator: Sketch 56.3 (81716) - https://sketch.com -->
    <title>smart-sync</title>
    <desc>Created with Sketch.</desc>
    <defs>
        <circle id="path-1" cx="29.7918367" cy="30.122449" r="29.3877551"></circle>
    </defs>
    <g id="Create-Connection" stroke="none" stroke-width="1" fill="none" fill-rule="evenodd">
        <g id="1.20" transform="translate(-603.000000, -328.000000)">
            <g id="smart-sync" transform="translate(603.000000, 328.000000)">
                <mask id="mask-2" fill="white">
                    <use xlink:href="#path-1"></use>
                </mask>
                <use id="Oval" fill="#A35DFF" fill-rule="nonzero" xlink:href="#path-1"></use>
                <g id="Group" mask="url(#mask-2)" fill-rule="nonzero">
                    <g transform="translate(13.469388, 14.693878)" id="Path">
                        <path d="M30.5265306,15.4285714 L30.5265306,15.4285714 C30.5265306,23.5437759 23.9478575,30.122449 15.8326531,30.122449 L15.8326531,30.122449 C7.71744857,30.122449 1.13877551,23.5437759 1.13877551,15.4285714 L1.13877551,15.4285714" fill="#4E55FD"></path>
                        <path d="M1.13877551,15.4285714 C1.13877551,7.31336694 7.71744857,0.734693878 15.8326531,0.734693878 L15.8326531,0.734693878 C23.9478575,0.734693878 30.5265306,7.31336694 30.5265306,15.4285714" fill="#767CFE"></path>
                    </g>
                </g>
                <g id="Group" mask="url(#mask-2)">
                    <g transform="translate(-13.469388, -12.244898)">
                        <circle id="SVGID-2" stroke="none" fill="#A35DFF" fill-rule="nonzero" transform="translate(42.747956, 42.033043) rotate(-45.000000) translate(-42.747956, -42.033043) " cx="42.7479565" cy="42.0330427" r="29.3877551"></circle>
                        <g id="Group" opacity="0.5" stroke="none" stroke-width="1" fill="none" fill-rule="evenodd" transform="translate(0.000000, 20.816327)">
                            <path d="M4.64081633,24.6857143 L25.4204082,3.90612245" id="Path" stroke="#FFFFFF"></path>
                            <path d="M8.10612245,28.1510204 L28.8857143,7.35918367" id="Path" stroke="#FFFFFF"></path>
                            <path d="M11.5714286,31.6040816 L32.3510204,10.8244898" id="Path" stroke="#FFFFFF"></path>
                            <path d="M15.0367347,35.0693878 L35.8163265,14.2897959" id="Path" stroke="#FFFFFF"></path>
                            <path d="M18.5020408,38.5346939 L39.2816327,17.755102" id="Path" stroke="#FFFFFF"></path>
                            <path d="M1.1755102,21.2204082 L21.9673469,0.440816327" id="Path" stroke="#FFFFFF"></path>
                        </g>
                        <polygon id="Rectangle" stroke="none" fill="#FFFFFF" fill-rule="nonzero" opacity="0.8" transform="translate(44.825219, 23.400915) rotate(45.000000) translate(-44.825219, -23.400915) " points="27.143586 8.70703769 62.5068513 8.70703769 62.5068513 38.0947928 27.143586 38.0947928"></polygon>
                        <path d="M63.3918367,29.8408163 L38.3877551,4.83673469" id="Path" stroke="#A35DFF" stroke-width="1" fill="none"></path>
                        <path d="M59.9265306,33.3061224 L34.922449,8.28979592" id="Path" stroke="#A35DFF" stroke-width="1" fill="none"></path>
                        <path d="M56.4612245,36.7714286 L31.4571429,11.755102" id="Path" stroke="#A35DFF" stroke-width="1" fill="none"></path>
                        <path d="M53.0081633,40.2244898 L27.9918367,15.2204082" id="Path" stroke="#A35DFF" stroke-width="1" fill="none"></path>
                        <path d="M49.5428571,43.6897959 L24.5265306,18.6857143" id="Path" stroke="#A35DFF" stroke-width="1" fill="none"></path>
                        <polygon id="Rectangle" stroke="none" fill="#FFFFFF" fill-rule="nonzero" opacity="0.3" transform="translate(41.201703, 61.330786) rotate(45.000000) translate(-41.201703, -61.330786) " points="24.3588462 46.6307858 58.0445605 46.6307858 58.0445605 76.0307858 24.3588462 76.0307858"></polygon>
                        <path d="M39.2693878,39.4408163 L63.0857143,63.2571429" id="Path" stroke="#A35DFF" stroke-width="1" fill="none"></path>
                        <path d="M35.8163265,42.9061224 L59.6204082,66.7102041" id="Path" stroke="#A35DFF" stroke-width="1" fill="none"></path>
                        <path d="M32.3510204,46.3714286 L56.155102,70.1755102" id="Path" stroke="#A35DFF" stroke-width="1" fill="none"></path>
                        <path d="M28.8857143,49.8367347 L52.6897959,73.6408163" id="Path" stroke="#A35DFF" stroke-width="1" fill="none"></path>
                        <path d="M25.4204082,53.2897959 L49.2367347,77.1061224" id="Path" stroke="#A35DFF" stroke-width="1" fill="none"></path>
                        <path d="M35.8408163,42.8816327 L59.6571429,66.6979592" id="Path" stroke="#A35DFF" stroke-width="1" fill="none"></path>
                        <path d="M32.3755102,46.3469388 L56.1918367,70.1510204" id="Path" stroke="#A35DFF" stroke-width="1" fill="none"></path>
                        <path d="M28.9102041,49.8122449 L52.7265306,73.6163265" id="Path" stroke="#A35DFF" stroke-width="1" fill="none"></path>
                        <path d="M25.444898,53.277551 L49.2612245,77.0816327" id="Path" stroke="#A35DFF" stroke-width="1" fill="none"></path>
                        <path d="M21.9918367,56.7306122 L45.7959184,80.5469388" id="Path" stroke="#A35DFF" stroke-width="1" fill="none"></path>
                        <g id="Group" opacity="0.8" stroke="none" stroke-width="1" fill="none" fill-rule="evenodd" transform="translate(50.204082, 29.387755)">
                            <path d="M0.636734694,20.8040816 L21.4163265,0.0244897959" id="Path" stroke="#FFFFFF"></path>
                            <path d="M3.23265306,25.1265306 L24.8816327,3.47755102" id="Path" stroke="#FFFFFF"></path>
                            <path d="M6.69795918,28.5918367 L28.3469388,6.94285714" id="Path" stroke="#FFFFFF"></path>
                            <path d="M10.1632653,32.044898 L31.8,10.4081633" id="Path" stroke="#FFFFFF"></path>
                        </g>
                    </g>
                </g>
                <path d="M44.0816327,29.6693878 L44.0816327,29.6693878 C44.0816327,33.5664464 42.5335321,37.3038916 39.7778956,40.0595282 C37.022259,42.8151648 33.2848137,44.3632653 29.3877551,44.3632653 L29.3877551,44.3632653 C21.2725506,44.3632653 14.6938776,37.7845922 14.6938776,29.6693878 L14.6938776,29.6693878" id="Path" fill="#A35DFF" fill-rule="nonzero" mask="url(#mask-2)"></path>
                <path d="M14.6938776,29.6693878 C14.6938776,21.5541833 21.2725506,14.9755102 29.3877551,14.9755102 L29.3877551,14.9755102 C37.5029596,14.9755102 44.0816327,21.5541833 44.0816327,29.6693878" id="Path" fill="#AF7EFC" fill-rule="nonzero" mask="url(#mask-2)"></path>
                <path d="M21.6979592,29.8285714 L21.6979592,29.8285714 C22.1751415,29.8228184 22.5660759,29.4479497 22.5918367,28.9714286 C22.6395819,27.3029305 23.3332068,25.7181295 24.5265306,24.5510204 C27.0511841,21.992942 31.1328353,21.8479359 33.8326531,24.2204082 L32.7795918,25.2734694 C32.6475329,25.4120122 32.598889,25.610216 32.6518031,25.7941556 C32.7047173,25.9780952 32.8512449,26.1201538 33.0367347,26.1673469 L37.2734694,27.1959184 C37.4561724,27.2372613 37.6473653,27.1829534 37.7810542,27.0517403 C37.9147431,26.9205271 37.9726148,26.7303825 37.9346939,26.5469388 L36.8938776,22.2979592 C36.8509224,22.1124468 36.7111508,21.9645826 36.5283471,21.9112648 C36.3455434,21.8579471 36.1481961,21.907485 36.0122449,22.0408163 L35.0938776,22.9469388 L35.0938776,22.9469388 C31.6846879,19.9152833 26.5064834,20.0546553 23.2653061,23.2653061 C21.76025,24.7666446 20.8844121,26.785451 20.8163265,28.9102041 C20.8097501,29.1493798 20.899335,29.3812083 21.0650344,29.5538118 C21.2307338,29.7264154 21.4587143,29.8253842 21.6979592,29.8285714 L21.6979592,29.8285714 Z" id="Path" stroke="#FFFFFF" stroke-width="0.25" fill="#FFFFFF" fill-rule="nonzero" mask="url(#mask-2)"></path>
                <path d="M37.0897959,28.8857143 C36.8559187,28.875766 36.6276864,28.9592383 36.4554133,29.1177296 C36.2831401,29.2762209 36.1809708,29.4967181 36.1714286,29.7306122 C36.1127385,31.419435 35.4120462,33.0222685 34.2122449,34.2122449 C31.6731731,36.7451933 27.6061665,36.8789764 24.9061224,34.5183673 L25.9591837,33.4653061 C26.092515,33.3293549 26.1420529,33.1320076 26.0887352,32.9492039 C26.0354174,32.7664002 25.8875532,32.6266286 25.7020408,32.5836735 L21.4653061,31.5428571 C21.2811972,31.5067125 21.0911773,31.5646132 20.9585075,31.697283 C20.8258377,31.8299528 20.767937,32.0199727 20.8040816,32.2040816 L21.844898,36.4408163 C21.8878531,36.6263287 22.0276247,36.7741929 22.2104284,36.8275107 C22.3932321,36.8808284 22.5905794,36.8312905 22.7265306,36.6979592 L23.6204082,35.8040816 L23.6204082,35.8040816 C27.018001,38.9189794 32.2706466,38.7891509 35.5102041,35.5102041 C37.0137186,33.9978416 37.8887222,31.9722082 37.9591837,29.8408163 C37.9834626,29.5957881 37.9027015,29.3519565 37.7369544,29.1698681 C37.5712072,28.9877797 37.3360211,28.8845144 37.0897959,28.8857143 L37.0897959,28.8857143 Z" id="Path" stroke="#FFFFFF" stroke-width="0.25" fill="#FFFFFF" fill-rule="nonzero" mask="url(#mask-2)"></path>
            </g>
        </g>
    </g>
</svg>