<?xml version="1.0" encoding="utf-8"?>
<!-- Generator: Adobe Illustrator 24.3.0, SVG Export Plug-In . SVG Version: 6.00 Build 0)  -->
<svg version="1.1" id="Layer_1" xmlns="http://www.w3.org/2000/svg" xmlns:xlink="http://www.w3.org/1999/xlink" x="0px" y="0px"
     viewBox="0 0 141.1 141.1" style="enable-background:new 0 0 141.1 141.1;" xml:space="preserve">
<style type="text/css">
	.st0{fill:#253746;}
	.st1{fill:#00A7B5;}
</style>
    <title>Starburst_Logo_Horizontal_RGB</title>
    <path class="st1" d="M93,64.4L70.5,0h-0.1c-3.4,0-6.8,0.3-10.1,0.8l31.1,64.3C91.9,64.8,92.4,64.6,93,64.4"/>
    <path class="st1" d="M88,67.3L36,9c-3.2,1.8-6.3,3.9-9.2,6.1l59.9,53.4C87.2,68.1,87.6,67.7,88,67.3"/>
    <path class="st1" d="M84.5,72L9.2,35.5c-1.9,3.3-3.5,6.7-4.8,10.3l79.4,27.7C84,73,84.3,72.5,84.5,72"/>
    <path class="st1" d="M83,78.4c0-0.3,0.1-0.6,0.1-0.8L0,72.8c0.1,3.8,0.5,7.5,1.2,11.2L83,79.2C83,78.9,83,78.7,83,78.4"/>
    <path class="st1" d="M83.8,83.3l-72.8,25.3c1.9,3,4.1,5.9,6.5,8.6l66.9-32.3C84.3,84.3,84,83.8,83.8,83.3"/>
    <path class="st1" d="M86.8,88.2l-49.8,44.4c2.9,1.5,5.9,2.9,9,4L88,89.4C87.6,89.1,87.2,88.7,86.8,88.2"/>
    <path class="st1" d="M91.4,91.7L67.6,141c1,0,1.9,0.1,2.9,0.1c1.9,0,3.8-0.1,5.6-0.3L93,92.4C92.5,92.2,91.9,92,91.4,91.7"/>
    <path class="st0" d="M97.8,93.2c-0.3,0-0.6-0.1-0.8-0.1l-2.5,43.7c2.3-0.8,4.4-1.7,6.6-2.8l-2.4-40.9C98.4,93.2,98.1,93.2,97.8,93.2"/>
    <path class="st0" d="M107.7,89.4l19.9,22.4c1-1.4,2-2.8,2.9-4.3l-21.6-19.2C108.5,88.7,108.1,89.1,107.7,89.4"/>
    <path class="st0" d="M112.6,77.6c0,0.3,0.1,0.6,0.1,0.8s-0.1,0.6-0.1,0.8l27.6,1.6c0.2-1.6,0.4-3.3,0.6-4.9L112.6,77.6z"/>
    <path class="st0" d="M108.9,68.6l27.1-24.1c-0.8-2-1.7-3.9-2.6-5.8l-25.6,28.7C108.1,67.7,108.5,68.1,108.9,68.6"/>
    <path class="st0" d="M97,63.6c0.3,0,0.6-0.1,0.8-0.1s0.6,0.1,0.8,0.1l3.2-56.2c-2.7-1.4-5.5-2.5-8.4-3.5L97,63.6z"/>
    <path class="st0" d="M102.7,92.4l11.6,33.4c1.6-1.2,3-2.6,4.5-3.9l-14.6-30.1C103.7,92,103.2,92.2,102.7,92.4"/>
    <path class="st0" d="M111.2,84.8l24.7,12c0.6-1.5,1.2-3,1.7-4.6l-25.8-9C111.6,83.8,111.4,84.3,111.2,84.8"/>
    <path class="st0" d="M111.8,73.6l28.8-10c-0.2-1.8-0.5-3.6-0.8-5.4L111.2,72C111.4,72.5,111.6,73,111.8,73.6"/>
    <path class="st0" d="M123.9,24.5c-1.7-1.9-3.5-3.8-5.3-5.5l-15.8,45.4c0.5,0.2,1.1,0.4,1.6,0.6L123.9,24.5z"/>
</svg>