<?xml version="1.0" standalone="no"?>
<!DOCTYPE svg PUBLIC "-//W3C//DTD SVG 20010904//EN"
 "http://www.w3.org/TR/2001/REC-SVG-20010904/DTD/svg10.dtd">
<svg version="1.0" xmlns="http://www.w3.org/2000/svg"
 width="48.000000pt" height="48.000000pt" viewBox="0 0 48.000000 48.000000"
 preserveAspectRatio="xMidYMid meet">

<g transform="translate(0.000000,48.000000) scale(0.100000,-0.100000)"
fill="#000000" stroke="none">
<path d="M0 465 c0 -13 33 -15 240 -15 207 0 240 2 240 15 0 13 -33 15 -240
15 -207 0 -240 -2 -240 -15z"/>
<path d="M0 405 c0 -13 33 -15 240 -15 207 0 240 2 240 15 0 13 -33 15 -240
15 -207 0 -240 -2 -240 -15z"/>
<path d="M0 345 c0 -12 16 -15 80 -15 l80 0 2 -162 c2 -118 6 -162 16 -166 9
-3 12 34 12 162 0 140 2 166 15 166 12 0 15 -27 17 -162 2 -118 6 -162 16
-166 9 -3 12 34 12 162 0 140 2 166 15 166 12 0 15 -27 17 -162 2 -118 6 -162
16 -166 9 -3 12 34 12 162 l0 166 85 0 c69 0 85 3 85 15 0 13 -33 15 -240 15
-207 0 -240 -2 -240 -15z"/>
<path d="M380 100 c-11 -11 -20 -29 -20 -40 0 -28 35 -60 64 -60 50 0 74 76
34 104 -30 21 -54 20 -78 -4z"/>
</g>
</svg>
