<svg fill="none" height="96" viewBox="0 0 110 96" width="110" xmlns="http://www.w3.org/2000/svg" xmlns:xlink="http://www.w3.org/1999/xlink"><linearGradient id="a" gradientUnits="userSpaceOnUse" x1="53.9512" x2="53.9512" y1="16.5869" y2="72.5869"><stop offset="0" stop-color="#d7cff9"/><stop offset="1" stop-color="#bfb2f8"/></linearGradient><path d="m25.9512 20.587c0-2.2092 1.7909-4.0001 4-4.0001h48c2.2091 0 4 1.7909 4 4.0001v47.9999c0 2.2091-1.7909 4-4 4h-48c-2.2091 0-4-1.7909-4-4z" fill="url(#a)"/><path d="m56.6207 84.0736h-6.2912v-35.263l-9.2908 9.4544-4.0778-4.0692 16.4562-16.4214 16.4561 16.4214-4.0778 4.0692-9.1747-9.4952z" fill="#fff"/><path d="m56.6203 84.0742h-6.2912v-12.5056l6.2912-.05z" fill="#c1b5f9"/><path clip-rule="evenodd" d="m0 4.42366h41.679v-3.923656l-41.67899966-.000004z" fill="#dbdfe7" fill-rule="evenodd"/><path clip-rule="evenodd" d="m0 12.2713h41.679v-3.92363l-41.67899931-.00001z" fill="#dbdfe7" fill-rule="evenodd"/><path clip-rule="evenodd" d="m0 20.1179h40.1061v-3.9236h-40.1061z" fill="#dbdfe7" fill-rule="evenodd"/><path clip-rule="evenodd" d="m0 27.9657h40.1061v-3.9237h-40.10609966z" fill="#dbdfe7" fill-rule="evenodd"/><path clip-rule="evenodd" d="m0 35.8133h37.7469v-3.9237h-37.7469z" fill="#dbdfe7" fill-rule="evenodd"/><path clip-rule="evenodd" d="m25.9512 20.1179h15.7279v-3.9236h-15.7279z" fill="#fff" fill-rule="evenodd"/><path clip-rule="evenodd" d="m25.9512 27.9657h15.7279v-3.9237h-15.7279z" fill="#fff" fill-rule="evenodd"/><path clip-rule="evenodd" d="m25.9512 35.8133h15.7279v-3.9237h-15.7279z" fill="#fff" fill-rule="evenodd"/><g fill="#1d232f"><path d="m72.18 94.4065c0-.6037-.4904-1.093-1.0953-1.093-.605 0-1.0954.4893-1.0954 1.093s.4904 1.093 1.0954 1.093c.6049 0 1.0953-.4893 1.0953-1.093z"/><path d="m76.9163 94.4066c0-.6037-.4904-1.0931-1.0954-1.0931-.6049 0-1.0953.4894-1.0953 1.0931 0 .6036.4904 1.093 1.0953 1.093.605 0 1.0954-.4894 1.0954-1.093z"/><path d="m81.6536 94.4066c0-.6037-.4904-1.0931-1.0954-1.0931-.6049 0-1.0953.4894-1.0953 1.0931 0 .6036.4904 1.093 1.0953 1.093.605 0 1.0954-.4894 1.0954-1.093z"/><path d="m72.18 89.68c0-.6037-.4904-1.0931-1.0953-1.0931-.605 0-1.0954.4894-1.0954 1.0931 0 .6036.4904 1.093 1.0954 1.093.6049 0 1.0953-.4894 1.0953-1.093z"/><path d="m76.9163 89.68c0-.6037-.4904-1.0931-1.0953-1.0931-.605 0-1.0954.4894-1.0954 1.0931 0 .6036.4904 1.093 1.0954 1.093.6049 0 1.0953-.4894 1.0953-1.093z"/><path d="m81.6536 89.68c0-.6037-.4904-1.0931-1.0953-1.0931-.605 0-1.0954.4894-1.0954 1.0931 0 .6036.4904 1.093 1.0954 1.093.6049 0 1.0953-.4894 1.0953-1.093z"/><path d="m72.18 84.9533c0-.6037-.4904-1.0929-1.0953-1.0929-.605 0-1.0954.4892-1.0954 1.0929s.4904 1.093 1.0954 1.093c.6049 0 1.0953-.4893 1.0953-1.093z"/><path d="m76.9163 84.9533c0-.6037-.4904-1.0929-1.0953-1.0929-.605 0-1.0954.4892-1.0954 1.0929s.4904 1.093 1.0954 1.093c.6049 0 1.0953-.4893 1.0953-1.093z"/><path d="m81.6536 84.9533c0-.6037-.4904-1.0929-1.0953-1.0929-.605 0-1.0954.4892-1.0954 1.0929s.4904 1.093 1.0954 1.093c.6049 0 1.0953-.4893 1.0953-1.093z"/><path d="m72.18 80.2268c0-.6036-.4904-1.093-1.0953-1.093-.605 0-1.0954.4894-1.0954 1.093 0 .6037.4904 1.0931 1.0954 1.0931.6049 0 1.0953-.4894 1.0953-1.0931z"/><path d="m72.18 75.8977c0-.6037-.4904-1.093-1.0953-1.093-.605 0-1.0954.4893-1.0954 1.093s.4904 1.093 1.0954 1.093c.6049 0 1.0953-.4893 1.0953-1.093z"/><path d="m76.9163 80.2268c0-.6036-.4904-1.093-1.0953-1.093-.605 0-1.0954.4894-1.0954 1.093 0 .6037.4904 1.0931 1.0954 1.0931.6049 0 1.0953-.4894 1.0953-1.0931z"/><path d="m76.9163 75.8977c0-.6037-.4904-1.093-1.0953-1.093-.605 0-1.0954.4893-1.0954 1.093s.4904 1.093 1.0954 1.093c.6049 0 1.0953-.4893 1.0953-1.093z"/><path d="m81.6536 80.2268c0-.6036-.4904-1.093-1.0953-1.093-.605 0-1.0954.4894-1.0954 1.093 0 .6037.4904 1.0931 1.0954 1.0931.6049 0 1.0953-.4894 1.0953-1.0931z"/><path d="m81.6536 75.8977c0-.6037-.4904-1.093-1.0953-1.093-.605 0-1.0954.4893-1.0954 1.093s.4904 1.093 1.0954 1.093c.6049 0 1.0953-.4893 1.0953-1.093z"/><path d="m91.3489 71.5042c0-.6037-.4904-1.0931-1.0953-1.0931-.605 0-1.0954.4894-1.0954 1.0931 0 .6036.4904 1.093 1.0954 1.093.6049 0 1.0953-.4894 1.0953-1.093z"/><path d="m86.4085 71.5042c0-.6037-.4904-1.0931-1.0953-1.0931-.605 0-1.0954.4894-1.0954 1.0931 0 .6036.4904 1.093 1.0954 1.093.6049 0 1.0953-.4894 1.0953-1.093z"/><path d="m96.0853 71.5042c0-.6037-.4905-1.0931-1.0954-1.0931s-1.0954.4894-1.0954 1.0931c0 .6036.4905 1.093 1.0954 1.093s1.0954-.4894 1.0954-1.093z"/><path d="m100.822 71.5042c0-.6037-.491-1.0931-1.0958-1.0931-.6049 0-1.0953.4894-1.0953 1.0931 0 .6036.4904 1.093 1.0953 1.093.6048 0 1.0958-.4894 1.0958-1.093z"/><path d="m105.558 71.5042c0-.6037-.49-1.0931-1.095-1.0931s-1.095.4894-1.095 1.0931c0 .6036.49 1.093 1.095 1.093s1.095-.4894 1.095-1.093z"/><path d="m110.001 71.5042c0-.6037-.49-1.0931-1.095-1.0931s-1.096.4894-1.096 1.0931c0 .6036.491 1.093 1.096 1.093s1.095-.4894 1.095-1.093z"/><path d="m91.3489 66.7776c0-.6036-.4904-1.093-1.0953-1.093-.605 0-1.0954.4894-1.0954 1.093 0 .6037.4904 1.0931 1.0954 1.0931.6049 0 1.0953-.4894 1.0953-1.0931z"/><path d="m86.4085 66.7776c0-.6036-.4904-1.093-1.0953-1.093-.605 0-1.0954.4894-1.0954 1.093 0 .6037.4904 1.0931 1.0954 1.0931.6049 0 1.0953-.4894 1.0953-1.0931z"/><path d="m96.0852 66.7776c0-.6036-.4904-1.093-1.0953-1.093-.605 0-1.0954.4894-1.0954 1.093 0 .6037.4904 1.0931 1.0954 1.0931.6049 0 1.0953-.4894 1.0953-1.0931z"/><path d="m100.822 66.7776c0-.6036-.491-1.093-1.0957-1.093-.605 0-1.0954.4894-1.0954 1.093 0 .6037.4904 1.0931 1.0954 1.0931.6047 0 1.0957-.4894 1.0957-1.0931z"/><path d="m105.558 66.7776c0-.6036-.49-1.093-1.095-1.093s-1.095.4894-1.095 1.093c0 .6037.49 1.0931 1.095 1.0931s1.095-.4894 1.095-1.0931z"/><path d="m100.822 62.0511c0-.6037-.491-1.0931-1.0957-1.0931-.605 0-1.0954.4894-1.0954 1.0931 0 .6036.4904 1.093 1.0954 1.093.6047 0 1.0957-.4894 1.0957-1.093z"/><path d="m105.558 62.0511c0-.6037-.49-1.0931-1.095-1.0931s-1.095.4894-1.095 1.0931c0 .6036.49 1.093 1.095 1.093s1.095-.4894 1.095-1.093z"/><path d="m91.3489 62.0511c0-.6037-.4904-1.0931-1.0953-1.0931-.605 0-1.0954.4894-1.0954 1.0931 0 .6036.4904 1.093 1.0954 1.093.6049 0 1.0953-.4894 1.0953-1.093z"/><path d="m86.4085 62.0511c0-.6037-.4904-1.0931-1.0953-1.0931-.605 0-1.0954.4894-1.0954 1.0931 0 .6036.4904 1.093 1.0954 1.093.6049 0 1.0953-.4894 1.0953-1.093z"/><path d="m96.0852 62.051c0-.6036-.4904-1.093-1.0953-1.093-.605 0-1.0954.4894-1.0954 1.093 0 .6037.4904 1.0931 1.0954 1.0931.6049 0 1.0953-.4894 1.0953-1.0931z"/><path d="m109.927 66.7776c0-.6036-.491-1.093-1.096-1.093s-1.095.4894-1.095 1.093c0 .6037.49 1.0931 1.095 1.0931s1.096-.4894 1.096-1.0931z"/><path d="m109.927 62.0511c0-.6037-.491-1.0931-1.096-1.0931s-1.095.4894-1.095 1.0931c0 .6036.49 1.093 1.095 1.093s1.096-.4894 1.096-1.093z"/><path d="m86.5393 94.4066c0-.6037-.4904-1.0931-1.0954-1.0931-.6049 0-1.0953.4894-1.0953 1.0931 0 .6036.4904 1.093 1.0953 1.093.605 0 1.0954-.4894 1.0954-1.093z"/><path d="m91.2757 94.4066c0-.6037-.4904-1.0931-1.0954-1.0931-.6049 0-1.0953.4894-1.0953 1.0931 0 .6036.4904 1.093 1.0953 1.093.605 0 1.0954-.4894 1.0954-1.093z"/><path d="m96.012 94.4066c0-.6037-.4904-1.0931-1.0953-1.0931-.605 0-1.0954.4894-1.0954 1.0931 0 .6036.4904 1.093 1.0954 1.093.6049 0 1.0953-.4894 1.0953-1.093z"/><path d="m100.749 94.4066c0-.6037-.491-1.0931-1.096-1.0931s-1.0954.4894-1.0954 1.0931c0 .6036.4904 1.093 1.0954 1.093s1.096-.4894 1.096-1.093z"/><path d="m105.485 94.4066c0-.6037-.49-1.0931-1.095-1.0931s-1.095.4894-1.095 1.0931c0 .6036.49 1.093 1.095 1.093s1.095-.4894 1.095-1.093z"/><path d="m109.927 94.4066c0-.6037-.491-1.0931-1.096-1.0931-.604 0-1.095.4894-1.095 1.0931 0 .6036.491 1.093 1.095 1.093.605 0 1.096-.4894 1.096-1.093z"/><path d="m86.5394 89.68c0-.6037-.4905-1.0931-1.0954-1.0931s-1.0954.4894-1.0954 1.0931c0 .6036.4905 1.093 1.0954 1.093s1.0954-.4894 1.0954-1.093z"/><path d="m91.2757 89.68c0-.6037-.4904-1.0931-1.0953-1.0931-.605 0-1.0954.4894-1.0954 1.0931 0 .6036.4904 1.093 1.0954 1.093.6049 0 1.0953-.4894 1.0953-1.093z"/><path d="m96.012 89.68c0-.6037-.4904-1.0931-1.0953-1.0931-.605 0-1.0954.4894-1.0954 1.0931 0 .6036.4904 1.093 1.0954 1.093.6049 0 1.0953-.4894 1.0953-1.093z"/><path d="m100.749 89.68c0-.6037-.491-1.0931-1.0961-1.0931-.6049 0-1.0953.4894-1.0953 1.0931 0 .6036.4904 1.093 1.0953 1.093.6051 0 1.0961-.4894 1.0961-1.093z"/><path d="m105.485 89.68c0-.6037-.49-1.0931-1.095-1.0931s-1.095.4894-1.095 1.0931c0 .6036.49 1.093 1.095 1.093s1.095-.4894 1.095-1.093z"/><path d="m109.927 89.68c0-.6037-.491-1.0931-1.096-1.0931s-1.095.4894-1.095 1.0931c0 .6036.49 1.093 1.095 1.093s1.096-.4894 1.096-1.093z"/><path d="m86.5394 84.9534c0-.6036-.4905-1.093-1.0954-1.093s-1.0954.4894-1.0954 1.093c0 .6037.4905 1.093 1.0954 1.093s1.0954-.4893 1.0954-1.093z"/><path d="m91.2757 84.9534c0-.6036-.4904-1.093-1.0953-1.093-.605 0-1.0954.4894-1.0954 1.093 0 .6037.4904 1.093 1.0954 1.093.6049 0 1.0953-.4893 1.0953-1.093z"/><path d="m96.012 84.9534c0-.6036-.4904-1.093-1.0953-1.093-.605 0-1.0954.4894-1.0954 1.093 0 .6037.4904 1.093 1.0954 1.093.6049 0 1.0953-.4893 1.0953-1.093z"/><path d="m100.749 84.9534c0-.6036-.491-1.093-1.0961-1.093-.6049 0-1.0953.4894-1.0953 1.093 0 .6037.4904 1.093 1.0953 1.093.6051 0 1.0961-.4893 1.0961-1.093z"/><path d="m105.485 84.9534c0-.6037-.49-1.093-1.095-1.093s-1.095.4893-1.095 1.093.49 1.0929 1.095 1.0929 1.095-.4892 1.095-1.0929z"/><path d="m109.927 84.9534c0-.6037-.491-1.093-1.096-1.093s-1.095.4893-1.095 1.093.49 1.0929 1.095 1.0929 1.096-.4892 1.096-1.0929z"/><path d="m86.5394 80.2268c0-.6036-.4905-1.093-1.0954-1.093s-1.0954.4894-1.0954 1.093c0 .6037.4905 1.0931 1.0954 1.0931s1.0954-.4894 1.0954-1.0931z"/><path d="m91.2757 80.2268c0-.6036-.4904-1.093-1.0953-1.093-.605 0-1.0954.4894-1.0954 1.093 0 .6037.4904 1.0931 1.0954 1.0931.6049 0 1.0953-.4894 1.0953-1.0931z"/><path d="m96.012 80.2268c0-.6036-.4904-1.093-1.0953-1.093-.605 0-1.0954.4894-1.0954 1.093 0 .6037.4904 1.0931 1.0954 1.0931.6049 0 1.0953-.4894 1.0953-1.0931z"/><path d="m100.749 80.2268c0-.6036-.491-1.093-1.0961-1.093-.6049 0-1.0953.4894-1.0953 1.093 0 .6037.4904 1.0931 1.0953 1.0931.6051 0 1.0961-.4894 1.0961-1.0931z"/><path d="m105.485 80.2268c0-.6036-.49-1.093-1.095-1.093s-1.095.4894-1.095 1.093c0 .6037.49 1.0931 1.095 1.0931s1.095-.4894 1.095-1.0931z"/><path d="m109.927 80.2268c0-.6036-.491-1.093-1.096-1.093s-1.095.4894-1.095 1.093c0 .6037.49 1.0931 1.095 1.0931s1.096-.4894 1.096-1.0931z"/><path d="m91.2757 75.8948c0-.6037-.4904-1.093-1.0953-1.093-.605 0-1.0954.4893-1.0954 1.093s.4904 1.093 1.0954 1.093c.6049 0 1.0953-.4893 1.0953-1.093z"/><path d="m86.3352 75.8948c0-.6037-.4904-1.093-1.0954-1.093-.6049 0-1.0953.4893-1.0953 1.093s.4904 1.093 1.0953 1.093c.605 0 1.0954-.4893 1.0954-1.093z"/><path d="m96.012 75.8938c0-.6036-.4904-1.093-1.0953-1.093-.605 0-1.0954.4894-1.0954 1.093 0 .6037.4904 1.0931 1.0954 1.0931.6049 0 1.0953-.4894 1.0953-1.0931z"/><path d="m100.749 75.8938c0-.6036-.491-1.093-1.0961-1.093-.6049 0-1.0953.4894-1.0953 1.093 0 .6037.4904 1.0931 1.0953 1.0931.6051 0 1.0961-.4894 1.0961-1.0931z"/><path d="m105.485 75.8948c0-.6037-.49-1.093-1.095-1.093s-1.095.4893-1.095 1.093.49 1.093 1.095 1.093 1.095-.4893 1.095-1.093z"/><path d="m109.927 75.8948c0-.6037-.491-1.093-1.096-1.093s-1.095.4893-1.095 1.093.49 1.093 1.095 1.093 1.096-.4893 1.096-1.093z"/></g><path d="m61.684 28.312c-.384.72-1.008 1.152-1.908 1.152-1.44 0-2.304-1.08-2.304-2.736 0-1.728.864-2.82 2.304-2.82.948 0 1.62.48 1.98 1.308l2.148-.012c-.54-1.836-2.04-2.94-4.116-2.94-2.604 0-4.368 1.74-4.368 4.452 0 2.772 1.74 4.44 4.344 4.44 2.088 0 3.564-1.044 4.116-2.844zm2.7203.084c.072 1.716 1.38 2.76 3.444 2.76 2.052 0 3.432-1.032 3.432-2.676 0-1.524-.912-2.1-2.856-2.652l-.66-.192c-.66-.192-1.056-.372-1.068-.948 0-.504.396-.864 1.116-.864.78 0 1.188.372 1.308 1.02h1.968c-.084-1.656-1.332-2.58-3.204-2.58-1.956 0-3.24 1.044-3.24 2.568 0 1.344.756 2.04 2.652 2.58l.588.168c.924.264 1.368.408 1.368.996 0 .6-.528.996-1.32.996-.888 0-1.392-.408-1.512-1.176zm9.9252 2.604h2.412s2.1-6.18 2.868-8.58h-2.052l-1.368 4.56c-.276.9-.372 1.332-.6 2.208h-.036c-.228-.936-.3-1.284-.564-2.172l-1.356-4.596h-2.172c.672 2.064 2.016 6.084 2.868 8.58z" fill="#fff"/></svg>