<svg focusable="false" width="629" height="127" xmlns="http://www.w3.org/2000/svg"><g fill="#7B7979" fill-rule="evenodd"><path d="M628.55 62.27v-7.89h-9.33V43h-7.89v11.34H604v7.89h7.34V85c0 6.627 5.373 12 12 12h5.21v-7.89h-5.21a4.12 4.12 0 0 1-4.12-4.13V62.27h9.33zm-45.81-8.63A15.25 15.25 0 0 1 598 68.92v12.82c-.027 8.416-6.844 15.233-15.26 15.26h-3c-8.426-.044-15.246-6.864-15.29-15.29V68.92c.017-8.436 6.854-15.269 15.29-15.28h3zm-10.36 15.28v12.82a7.42 7.42 0 0 0 7.4 7.4h3a7.36 7.36 0 0 0 7.39-7.4V68.92a7.36 7.36 0 0 0-7.39-7.39h-3a7.42 7.42 0 0 0-7.4 7.39zm-16.53 0v12.82A15.26 15.26 0 0 1 540.57 97h-1a14.58 14.58 0 0 1-9.37-3.37v16.92h-7.88v-56.2h7.88V57a14.53 14.53 0 0 1 9.37-3.37h1a15.25 15.25 0 0 1 15.28 15.29zm-7.89 0a7.41 7.41 0 0 0-7.39-7.39h-3a7.47 7.47 0 0 0-7.4 7.39v12.82a7.42 7.42 0 0 0 7.4 7.4h3a7.36 7.36 0 0 0 7.39-7.4V68.92zm-62.42 14.3a7.49 7.49 0 0 0 7.31 5.92h5.51a7.47 7.47 0 0 0 7.39-7.4c0-4.6-2.79-7.31-7.06-9l-7.23-2.72c-6.74-2.62-12.33-7.06-12.33-15.44a15.26 15.26 0 0 1 15.28-15.29h3.87a15.33 15.33 0 0 1 14.79 11.51l-7.65 2.22a7.23 7.23 0 0 0-7.14-5.84h-3.87a7.37 7.37 0 0 0-7.39 7.4c0 3.2 1.15 5.67 7.48 8.13l7.23 2.8c7.31 2.95 11.91 8.54 11.91 16.18 0 8.444-6.836 15.293-15.28 15.31h-5.51A15.41 15.41 0 0 1 478 85.44l7.54-2.22zM470.5 62.27v-7.89h-9.34V43h-7.89v11.34h-7.34v7.89h7.34V85c0 6.627 5.373 12 12 12h5.21v-7.89h-5.21a4.13 4.13 0 0 1-4.13-4.13V62.27h9.36zm-31.43 6.65v27.37h-7.89V68.92a7.37 7.37 0 0 0-7.39-7.39h-3a7.42 7.42 0 0 0-7.4 7.39v27.37h-7.88V40.08h7.88V57a14.53 14.53 0 0 1 9.37-3.37h1a15.25 15.25 0 0 1 15.31 15.29zm-43.75-14.54V96a15.18 15.18 0 0 1-15.2 15.28H377a15.26 15.26 0 0 1-14.79-11.5l7.56-2.22a7.48 7.48 0 0 0 7.23 5.83h3.12a7.4 7.4 0 0 0 7.32-7.39v-4.93a14.53 14.53 0 0 1-9.37 3.37h-1c-8.415-.016-15.237-6.825-15.27-15.24V68.92c.011-8.434 6.846-15.269 15.28-15.28h1a14.91 14.91 0 0 1 9.37 3.29v-2.55h7.87zm-7.88 24.82V68.92a7.37 7.37 0 0 0-7.4-7.39h-3a7.42 7.42 0 0 0-7.39 7.39V79.2a7.47 7.47 0 0 0 7.39 7.39h3a7.42 7.42 0 0 0 7.4-7.39zm-60.05-24.82v27.36a7.36 7.36 0 0 0 7.39 7.4h3a7.37 7.37 0 0 0 7.4-7.4V54.38H353v27.36c0 8.428-6.832 15.26-15.26 15.26h-3a15.26 15.26 0 0 1-15.28-15.29V54.38h7.93zM295 53.64a15.25 15.25 0 0 1 15.28 15.28v12.82c-.027 8.424-6.856 15.244-15.28 15.26h-3c-8.425-.044-15.242-6.865-15.28-15.29V68.92c.011-8.434 6.846-15.269 15.28-15.28h3zm-10.35 15.28v12.82a7.42 7.42 0 0 0 7.39 7.4h3a7.36 7.36 0 0 0 7.39-7.4V68.92a7.36 7.36 0 0 0-7.39-7.39h-3a7.42 7.42 0 0 0-7.41 7.39h.02zm-17.04 0v27.37h-7.89V68.92a7.37 7.37 0 0 0-7.39-7.39h-3a7.42 7.42 0 0 0-7.4 7.39v27.37h-7.89V40.08H242V57a14.53 14.53 0 0 1 9.37-3.37h1a15.25 15.25 0 0 1 15.24 15.29zm-41.84-28.84V48H210v48.32h-7.89V48h-15.84v-7.89l39.5-.03z"/><circle cx="110.96" cy="110.96" r="15.6"/><path d="M125.58 31.99H.79v7.8h42.9v85.79h7.8V39.79h7.8v85.79h7.8V39.79h7.8v85.79h7.8V39.79h42.89v-7.8zM.79 16.39h124.79v7.8H.79v-7.8zm0-15.6h124.79v7.8H.79V.79z"/></g></svg>