<?xml version="1.0" encoding="UTF-8"?>
<svg width="344px" height="40px" viewBox="0 0 344 40" version="1.1" xmlns="http://www.w3.org/2000/svg" xmlns:xlink="http://www.w3.org/1999/xlink">
    <title>Artboard</title>
    <g id="Artboard" stroke="none" stroke-width="1" fill="none" fill-rule="evenodd" opacity="0.4">
        <g id="TS-PoweredBy-Black" fill="#000000" fill-rule="nonzero">
            <g id="Group">
                <g transform="translate(147.000000, 0.000000)">
                    <path d="M196.81,18 L196.81,15.54 L193.89,15.54 L193.89,12 L191.42,12 L191.42,15.54 L189.13,15.54 L189.13,18 L191.42,18 L191.42,25.11 C191.42,27.18 193.1,28.87 195.18,28.87 L196.81,28.87 L196.81,26.4 L195.18,26.4 C194.47,26.4 193.89,25.82 193.89,25.11 L193.89,18 L196.81,18 Z" id="Path"></path>
                    <path d="M182.49,15.3 C185.13,15.3 187.27,17.43 187.27,20.08 L187.27,24.09 C187.27,26.71 185.14,28.87 182.49,28.87 L181.57,28.87 C178.95,28.87 176.79,26.71 176.79,24.09 L176.79,20.08 C176.79,17.44 178.95,15.3 181.57,15.3 L182.49,15.3 Z M179.25,20.08 L179.25,24.09 C179.25,25.37 180.3,26.4 181.56,26.4 L182.48,26.4 C183.76,26.4 184.79,25.37 184.79,24.09 L184.79,20.08 C184.79,18.8 183.76,17.77 182.48,17.77 L181.56,17.77 C180.31,17.77 179.25,18.79 179.25,20.08 Z" id="Shape"></path>
                    <path d="M174.09,20.08 L174.09,24.09 C174.09,26.73 171.96,28.87 169.31,28.87 L169,28.87 C167.9,28.87 166.87,28.48 166.07,27.82 L166.07,33.11 L163.61,33.11 L163.61,15.55 L166.07,15.55 L166.07,16.37 C166.87,15.7 167.89,15.3198603 169,15.3198603 L169.31,15.3198603 C171.96,15.3 174.09,17.43 174.09,20.08 Z M171.62,20.08 C171.62,18.82 170.59,17.77 169.31,17.77 L168.39,17.77 C167.13,17.77 166.08,18.82 166.08,20.08 L166.08,24.09 C166.08,25.37 167.13,26.4 168.39,26.4 L169.31,26.4 C170.59,26.4 171.62,25.37 171.62,24.09 L171.62,20.08 Z" id="Shape"></path>
                    <path d="M152.11,24.55 C152.34,25.6 153.27,26.4 154.4,26.4 L156.12,26.4 C157.38,26.4 158.43,25.35 158.43,24.09 C158.43,22.65 157.56,21.8 156.22,21.29 L153.96,20.44 C151.85,19.62 150.11,18.23 150.11,15.61 C150.11,12.97 152.24,10.83 154.89,10.83 L156.1,10.83 C158.31,10.83 160.18,12.35 160.72,14.42 L158.33,15.11 C158.12,14.06 157.2,13.29 156.1,13.29 L154.89,13.29 C153.61,13.29 152.58,14.32 152.58,15.6 C152.58,16.6 152.94,17.37 154.92,18.14 L157.18,19.01 C159.47,19.93 160.9,21.68 160.9,24.07 C160.9,26.71 158.74,28.85 156.12,28.85 L154.4,28.85 C152.17,28.85 150.29,27.31 149.75,25.23 L152.11,24.55 Z" id="Path"></path>
                    <path d="M147.41,18 L147.41,15.54 L144.49,15.54 L144.49,12 L142.02,12 L142.02,15.54 L139.73,15.54 L139.73,18 L142.02,18 L142.02,25.11 C142.02,27.18 143.7,28.87 145.78,28.87 L147.41,28.87 L147.41,26.4 L145.78,26.4 C145.07,26.4 144.49,25.82 144.49,25.11 L144.49,18 L147.41,18 Z" id="Path"></path>
                    <path d="M137.59,20.08 L137.59,28.63 L135.12,28.63 L135.12,20.08 C135.12,18.8 134.09,17.77 132.81,17.77 L131.89,17.77 C130.63,17.77 129.58,18.8 129.58,20.08 L129.58,28.63 L127.12,28.63 L127.12,11.07 L129.58,11.07 L129.58,16.36 C130.38,15.69 131.4,15.31 132.51,15.31 L132.82,15.31 C135.46,15.3 137.59,17.43 137.59,20.08 Z" id="Path"></path>
                    <path d="M123.92,15.53 L123.92,28.55 C123.92,31.19 121.81,33.33 119.17,33.33 L118.19,33.33 C115.96,33.33 114.08,31.79 113.57,29.74 L115.93,29.05 C116.16,30.08 117.09,30.87 118.19,30.87 L119.17,30.87 C120.43,30.87 121.46,29.82 121.46,28.56 L121.46,27.02 C120.66,27.69 119.64,28.07 118.53,28.07 L118.22,28.07 C115.6,28.07 113.44,25.94 113.44,23.29 L113.44,20.08 C113.44,17.44 115.6,15.3 118.22,15.3 L118.53,15.3 C119.63,15.3 120.66,15.69 121.46,16.33 L121.46,15.53 L123.92,15.53 Z M121.46,23.29 L121.46,20.08 C121.46,18.8 120.43,17.77 119.15,17.77 L118.23,17.77 C116.97,17.77 115.92,18.8 115.92,20.08 L115.92,23.29 C115.92,24.55 116.97,25.6 118.23,25.6 L119.15,25.6 C120.43,25.6 121.46,24.55 121.46,23.29 Z" id="Shape"></path>
                    <path d="M102.69,15.53 L102.69,24.08 C102.69,25.36 103.72,26.39 105,26.39 L105.92,26.39 C107.2,26.39 108.23,25.36 108.23,24.08 L108.23,15.53 L110.7,15.53 L110.7,24.08 C110.7,26.72 108.57,28.86 105.92,28.86 L105,28.86 C102.36,28.86 100.22,26.73 100.22,24.08 L100.22,15.53 L102.69,15.53 Z" id="Path"></path>
                    <path d="M92.56,15.3 C95.2,15.3 97.34,17.43 97.34,20.08 L97.34,24.09 C97.34,26.71 95.21,28.87 92.56,28.87 L91.64,28.87 C89.02,28.87 86.86,26.71 86.86,24.09 L86.86,20.08 C86.86,17.44 89.02,15.3 91.64,15.3 L92.56,15.3 Z M89.33,20.08 L89.33,24.09 C89.33,25.37 90.38,26.4 91.64,26.4 L92.56,26.4 C93.84,26.4 94.87,25.37 94.87,24.09 L94.87,20.08 C94.87,18.8 93.84,17.77 92.56,17.77 L91.64,17.77 C90.38,17.77 89.33,18.79 89.33,20.08 Z" id="Shape"></path>
                    <path d="M84.01,20.08 L84.01,28.63 L81.54,28.63 L81.54,20.08 C81.54,18.8 80.51,17.77 79.23,17.77 L78.31,17.77 C77.05,17.77 76,18.8 76,20.08 L76,28.63 L73.53,28.63 L73.53,11.07 L76,11.07 L76,16.36 C76.8,15.69 77.82,15.31 78.93,15.31 L79.24,15.31 C81.88,15.3 84.01,17.43 84.01,20.08 Z" id="Path"></path>
                    <polygon id="Path" points="70.94 11.07 70.94 13.54 66 13.54 66 28.64 63.53 28.64 63.53 13.54 58.59 13.54 58.59 11.07"></polygon>
                    <circle id="Oval" cx="35.06" cy="34.78" r="4.87"></circle>
                    <polygon id="Path" points="39.63 10.1 0.63 10.1 0.63 12.54 14.04 12.54 14.04 39.35 16.47 39.35 16.47 12.54 18.91 12.54 18.91 39.35 21.35 39.35 21.35 12.54 23.79 12.54 23.79 39.35 26.22 39.35 26.22 12.54 39.63 12.54"></polygon>
                    <rect id="Rectangle" x="0.63" y="5.22" width="39" height="2.44"></rect>
                    <rect id="Rectangle" x="0.63" y="0.35" width="39" height="2.44"></rect>
                </g>
                <g transform="translate(0.000000, 11.000000)">
                    <path d="M0.4,0.47 L5.32,0.47 C6.74,0.47 8.06,0.64 9.09,1.17 C10.48,1.89 11.39,3.21 11.39,5.42 C11.39,7.17 10.74,8.47 9.64,9.28 C8.56,10.1 7.05,10.46 5.2,10.46 L2.44,10.46 L2.44,17.64 L0.4,17.64 L0.4,0.47 L0.4,0.47 Z M2.44,8.72 L5.22,8.72 C7.48,8.72 9.18,7.81 9.18,5.41 C9.18,3.23 7.84,2.19 5.08,2.19 L2.44,2.19 L2.44,8.72 L2.44,8.72 Z" id="Shape"></path>
                    <path d="M12.91,11.34 C12.91,7.5 15.36,4.69 19.29,4.69 C23.2,4.69 25.67,7.5 25.67,11.34 C25.67,15.2 23.27,17.94 19.24,17.94 C15.21,17.94 12.91,15.21 12.91,11.34 Z M23.51,11.32 C23.51,8.42 21.95,6.3 19.24,6.3 C16.5,6.3 14.94,8.41 14.94,11.32 C14.94,14.32 16.48,16.34 19.24,16.34 C21.98,16.33 23.51,14.32 23.51,11.32 Z" id="Shape"></path>
                    <path d="M26.97,5.03 L29.13,5.03 L31,11.56 C31.41,13.05 31.74,14.18 32.22,16 L32.27,16 C32.68,14.25 33.09,12.83 33.54,11.03 L35.08,5.03 L37.55,5.03 L38.92,10.74 C39.3,12.25 39.69,14.03 40.17,15.97 L40.22,15.97 C40.7,14.22 41.28,12.44 41.85,10.45 L43.46,5.03 L45.45,5.03 C44.13,9.11 41.47,17.63 41.47,17.63 L38.81,17.63 L37.61,12.76 C37.13,10.79 36.55,8.18 36.31,7.02 L36.24,7.02 C35.93,8.34 35.38,10.79 34.82,12.85 L33.52,17.63 L30.86,17.63 C30.86,17.63 28.24,9.11 26.97,5.03 Z" id="Path"></path>
                    <path d="M48.67,11.65 C48.81,14.63 50.47,16.33 53.04,16.33 C54.94,16.33 56.09,15.25 56.69,14.05 L58.71,14.05 C57.92,16.26 55.88,17.94 53,17.94 C49.04,17.94 46.69,15.18 46.69,11.36 C46.69,7.4 49.21,4.69 53.03,4.69 C57.18,4.69 59.01,7.86 59.01,11.22 C59.01,11.46 58.99,11.58 58.99,11.65 L48.67,11.65 Z M56.9,10.16 C56.66,7.88 55.44,6.25 52.96,6.25 C50.56,6.25 49.07,7.83 48.76,10.16 L56.9,10.16 Z" id="Shape"></path>
                    <path d="M63.59,7.07 C64.02,5.75 65.34,4.74 66.78,4.74 C66.9,4.74 67.04,4.74 67.16,4.76 L67.16,6.66 C66.97,6.61 66.61,6.59 66.34,6.59 C64.4,6.59 63.7,8.22 63.7,10.74 L63.7,17.63 L61.71,17.63 L61.71,6.92 C61.71,6.34 61.71,5.6 61.69,5.02 L63.59,5.02 L63.59,7.07 Z" id="Path"></path>
                    <path d="M70.19,11.65 C70.33,14.63 71.99,16.33 74.56,16.33 C76.46,16.33 77.61,15.25 78.21,14.05 L80.23,14.05 C79.44,16.26 77.4,17.94 74.52,17.94 C70.56,17.94 68.21,15.18 68.21,11.36 C68.21,7.4 70.73,4.69 74.55,4.69 C78.7,4.69 80.53,7.86 80.53,11.22 C80.53,11.46 80.51,11.58 80.51,11.65 L70.19,11.65 Z M78.43,10.16 C78.19,7.88 76.97,6.25 74.49,6.25 C72.09,6.25 70.6,7.83 70.29,10.16 L78.43,10.16 Z" id="Shape"></path>
                    <path d="M94.58,17.63 L92.73,17.63 L92.73,15.71 C91.99,16.84 90.52,17.94 88.34,17.94 C84.91,17.94 82.44,15.52 82.44,11.32 C82.44,7.43 84.89,4.7 88.2,4.7 C90.53,4.7 91.9,5.8 92.62,6.98 C92.6,6.12 92.6,5.01 92.6,4.2 L92.6,0.48 L94.59,0.48 L94.59,17.63 L94.58,17.63 Z M92.63,11.32 C92.63,8.39 91.24,6.33 88.62,6.33 C86.05,6.33 84.59,8.39 84.59,11.32 C84.59,14.37 86.03,16.34 88.62,16.34 C91.24,16.33 92.63,14.36 92.63,11.32 Z" id="Shape"></path>
                    <path d="M104.39,0.47 L106.38,0.47 L106.38,4.14 C106.38,4.96 106.38,6.11 106.36,6.97 C107.08,5.82 108.52,4.69 110.78,4.69 C114.24,4.69 116.54,7.36 116.54,11.24 C116.54,15.3 114.07,17.94 110.64,17.94 C108.46,17.94 106.99,16.84 106.25,15.71 L106.25,17.63 L104.4,17.63 L104.4,0.47 L104.39,0.47 Z M114.38,11.32 C114.38,8.39 112.92,6.3 110.35,6.3 C107.73,6.3 106.34,8.39 106.34,11.32 C106.34,14.37 107.73,16.34 110.35,16.34 C112.94,16.33 114.38,14.36 114.38,11.32 Z" id="Shape"></path>
                    <path d="M120.67,21.95 L122.42,17.7 C120.98,13.88 119.08,8.99 117.57,5.03 L119.8,5.03 C121.19,9.04 122.58,12.88 123.47,15.35 C124.24,13.26 126.21,8.01 127.24,5.03 L129.3,5.03 C127.09,10.6 125,16.19 122.65,21.95 L120.67,21.95 Z" id="Path"></path>
                </g>
            </g>
        </g>
    </g>
</svg>