<svg fill="none" height="24" viewBox="0 0 24 24" width="24" xmlns="http://www.w3.org/2000/svg"><rect height="15" rx="1.5" stroke="#fff" width="15" x="4.5" y="4.5"/><path clip-rule="evenodd" d="m16.1284 9c.5548 0 1.0043.44965 1.0043 1.0043 0 .5549-.4496 1.0044-1.0043 1.0044-.5549 0-1.0044-.4497-1.0044-1.0044 0-.55478.4497-1.0043 1.0044-1.0043zm-1.6759 2.5647 3.3941 4.269c.3242.4071.116 1.1515-.4506 1.1515h-10.79112c-.56071 0-.77958-.7391-.45063-1.1515l2.1851-2.7483c.37201-.4671 1.01086-.4815 1.39407 0l1.05788 1.3307 2.2668-2.8514c.372-.4671 1.0108-.4815 1.394 0z" fill="#fff" fill-rule="evenodd"/></svg>