<svg fill="none" height="24" viewBox="0 0 24 24" width="24" xmlns="http://www.w3.org/2000/svg"><g clip-rule="evenodd" fill="#fff" fill-rule="evenodd"><path d="m12.7619 6.07606c1.5041-1.45272 3.895-1.43195 5.3736.0467 1.4787 1.47864 1.4995 3.86952.0467 5.37364l-.006.0062-2 1.9999c-.7863.7866-1.8755 1.1929-2.9849 1.1135-1.1094-.0795-2.1296-.6368-2.7958-1.5275-.1654-.2211-.1202-.5344.1009-.6998.2212-.1654.5345-.1203.6999.1009.4924.6582 1.2465 1.0702 2.0664 1.1289.82.0588 1.6251-.2415 2.2063-.8229l1.9968-1.9969c1.0709-1.11192 1.0546-2.8769-.0374-3.96884-1.0921-1.09209-2.8574-1.10824-3.9693-.03692l-1.144 1.13735c-.1958.19469-.5124.19377-.7071-.00206s-.1938-.51241.0021-.70711z"/><path d="m8.08215 10.7423c.78632-.78653 1.87549-1.1928 2.98485-1.11335 1.1094.07945 2.1296.63685 2.7958 1.52745.1654.2211.1202.5345-.1009.6999-.2212.1654-.5345.1202-.6999-.1009-.4924-.6583-1.2465-1.0703-2.0664-1.129-.82-.0587-1.62508.2416-2.20628.823l-1.99686 1.9968c-1.07084 1.112-1.05452 2.8769.0374 3.9689 1.09193 1.0919 2.8569 1.1082 3.96884.0374l1.1368-1.1368c.1952-.1953.5118-.1953.7071 0 .1953.1952.1953.5118 0 .7071l-1.1462 1.1461c-1.50407 1.4527-3.895 1.4319-5.37364-.0467-1.47865-1.4787-1.49942-3.8695-.0467-5.3737l.00604-.0062 2.00005-2c.00002 0-.00002.0001 0 0z"/></g></svg>