<svg fill="none" height="24" viewBox="0 0 24 24" width="24" xmlns="http://www.w3.org/2000/svg"><g stroke="#fff" stroke-linecap="round"><path d="m8.5 11.5h11"/><path d="m8.5 4.5h11"/><path d="m8.5 18.5h11"/></g><g fill="#fff"><path d="m5.032 8.29h.75v-4.29h-.66c-.072.474-.384.636-1.122.654v.57h1.032z"/><path d="m6.844 19.374v-.642h-1.848c.66-.612 1.848-1.326 1.848-2.418 0-.75-.534-1.314-1.422-1.314-.924 0-1.422.636-1.422 1.416 0 .012.006.024.006.042h.714c.006-.456.222-.798.702-.798.414 0 .66.27.66.672 0 .408-.234.756-.774 1.254-.504.474-1.272 1.164-1.272 1.164v.624z"/></g></svg>