<svg fill="none" height="24" viewBox="0 0 24 24" width="24" xmlns="http://www.w3.org/2000/svg"><g fill="#fff"><path d="m7.576 14.432c.144 2.192 1.776 3.472 4.336 3.472 2.48 0 4.208-1.376 4.208-3.472 0-1.92-1.328-2.64-3.328-3.248l-.8-.24c-1.248-.368-2.256-.768-2.256-1.936 0-.96.784-1.616 2.112-1.616 1.376 0 2.112.672 2.304 1.808h1.728c-.208-1.952-1.552-3.2-3.984-3.2-2.368 0-3.968 1.28-3.968 3.152 0 1.824 1.28 2.624 3.344 3.28l.752.24c1.312.416 2.32.72 2.32 1.968 0 1.152-.912 1.92-2.416 1.92-1.632 0-2.432-.928-2.64-2.128z"/><path d="m7 12.64h9.776v.8h-9.776z"/></g></svg>